<svg id="Capa_1" enable-background="new 0 0 512 512" height="512" viewBox="0 0 512 512" width="512" xmlns="http://www.w3.org/2000/svg"><g><path d="m467.959 90.525h-434.533c-6.088 0-11.796 1.628-16.713 4.472l-12.251 40.276 6.516 126.841 373.417 12.252h83.564c18.46 0 33.426-14.965 33.426-33.426v-116.99c-.001-18.46-14.966-33.425-33.426-33.425z" fill="#ff7e8e"/><path d="m367.682 257.653h-334.256c-9.23 0-16.713-7.483-16.713-16.713v-145.943c-9.949 5.79-16.713 16.613-16.713 28.954v116.99c0 18.46 14.965 33.426 33.426 33.426h350.969c0-9.231-7.483-16.714-16.713-16.714z" fill="#fb5f7a"/><g fill="#fff"><path d="m105.826 152.949c-1.485-3.615-4.962-5.953-8.871-5.953 0 0 0 0-.008 0-3.909.004-7.385 2.346-8.936 6.149l-20.344 53.415c-1.64 4.313.522 9.14 4.839 10.784 4.276 1.636 9.132-.526 10.78-4.835l3.015-7.92h21.154l2.981 7.895c1.265 3.346 4.439 5.41 7.818 5.41.979 0 1.983-.175 2.954-.543 4.317-1.628 6.496-6.451 4.864-10.768zm-13.161 34.928 4.258-11.184 4.223 11.184z"/><path d="m423.99 155.275c-.041-4.586-3.778-8.275-8.356-8.275-.024 0-.057 0-.082 0-4.611.045-8.316 3.823-8.275 8.438l.269 27.844-22.49-32.577c-2.089-3.011-5.884-4.309-9.368-3.228-3.493 1.089-5.867 4.321-5.867 7.977v54.08c0 4.615 3.738 8.356 8.356 8.356 4.619 0 8.356-3.742 8.356-8.356v-27.273l21.324 30.88c2.383 3.464 6.39 4.941 10.233 3.746 3.893-1.212 6.406-4.815 6.406-9.258z"/><path d="m267.323 147c-4.619 0-8.356 3.742-8.356 8.356v54.178c0 4.615 3.738 8.356 8.356 8.356 4.619 0 8.356-3.742 8.356-8.356v-54.178c.001-4.614-3.737-8.356-8.356-8.356z"/><path d="m177.802 196.498c-.433.506-.889.983-1.379 1.416-2.432 2.167-5.566 3.264-9.311 3.264-10.323 0-18.728-8.405-18.728-18.733s8.405-18.733 18.728-18.733c3.762 0 7.377 1.102 10.47 3.191 3.811 2.583 9.026 1.571 11.596-2.244 2.587-3.823 1.583-9.021-2.244-11.604-5.859-3.962-12.714-6.055-19.822-6.055-19.545 0-35.441 15.901-35.441 35.445s15.897 35.445 35.441 35.445c7.859 0 14.917-2.591 20.426-7.495 1.077-.959 2.089-1.999 3.028-3.117 2.979-3.525 2.538-8.797-.987-11.776-3.551-2.978-8.815-2.533-11.777.996z"/><path d="m239.847 147h-29.925c-4.619 0-8.356 3.742-8.356 8.356s3.738 8.356 8.356 8.356h6.545v45.821c0 4.615 3.738 8.356 8.356 8.356 4.619 0 8.356-3.742 8.356-8.356v-45.821h6.667c4.619 0 8.356-3.742 8.356-8.356s-3.736-8.356-8.355-8.356z"/><path d="m322.929 147c-19.545 0-35.449 15.901-35.449 35.445s15.905 35.445 35.449 35.445 35.441-15.901 35.441-35.445-15.896-35.445-35.441-35.445zm0 54.178c-10.331 0-18.737-8.405-18.737-18.733s8.405-18.733 18.737-18.733c10.323 0 18.728 8.405 18.728 18.733s-8.405 18.733-18.728 18.733z"/></g><path d="m504.92 315.659-90.074-62.771-1.625 109.569 36.489-13.466 34.317 67.33 22.264-26.42-32.192-48.956 28.915-10.583c6.351-2.324 7.454-10.836 1.906-14.703z" fill="#615260"/><path d="m475.33 416.868c2.157 4.294 7.483 5.889 11.645 3.486l20.846-12.035c4.162-2.403 5.444-7.813 2.803-11.828l-4.333-6.589-12.333 7.12c-4.162 2.403-9.489.808-11.646-3.486l-26.618-52.999c-2.418-4.815-8.693-6.116-12.827-2.661l-7.078 5.916c-5.189 4.337-13.111 1.036-13.685-5.702l-7.258-85.2-3.219-2.244c-5.809-4.049-13.705.509-13.104 7.564l9.658 113.303c.574 6.738 8.497 10.039 13.686 5.701l23.623-19.75z" fill="#4e3d4d"/></g></svg>