<svg id="Capa_1" enable-background="new 0 0 512 512" height="512" viewBox="0 0 512 512" width="512" xmlns="http://www.w3.org/2000/svg"><g><g><g><path d="m512 412.903c0 23.932-8.483 45.882-22.607 63.008-18.176 22.04-45.692 32.362-76.49 32.362-54.73 0-94.894-40.64-94.894-95.369 0-30.797 9.846-58.313 31.885-76.489 17.126-14.124 39.077-22.608 63.009-22.608 54.73-.001 99.097 44.367 99.097 99.096z" fill="#7ad7ee"/><path d="m426.355 498.548c-54.73 0-99.097-44.367-99.097-99.097 0-23.94 8.505-45.909 22.636-63.037-22.03 18.175-36.087 45.699-36.087 76.489 0 54.729 44.367 99.097 99.097 99.097 30.79 0 58.315-14.059 76.49-36.089-17.129 14.131-39.1 22.637-63.039 22.637z" fill="#4bc3ef"/></g><path d="m198.194 412.903c0 23.932-8.483 45.882-22.607 63.008-18.176 22.04-45.692 32.362-76.49 32.362-54.73 0-94.894-40.64-94.894-95.369 0-30.797 9.846-58.313 31.885-76.489 17.126-14.124 39.077-22.608 63.009-22.608 54.729-.001 99.097 44.367 99.097 99.096z" fill="#8ceea1"/><path d="m112.548 498.548c-54.73 0-99.097-44.367-99.097-99.097 0-23.94 8.505-45.909 22.636-63.037-22.03 18.176-36.087 45.699-36.087 76.489 0 54.73 44.367 99.097 99.097 99.097 30.79 0 58.315-14.059 76.49-36.089-17.128 14.131-39.099 22.637-63.039 22.637z" fill="#4ce1a1"/></g><g><path d="m512 99.097c0 23.932-8.483 45.882-22.607 63.008-18.176 22.04-45.692 32.362-76.49 32.362-54.73 0-94.894-40.64-94.894-95.369 0-30.797 9.846-58.313 31.885-76.489 17.126-14.125 39.077-22.609 63.009-22.609 54.73 0 99.097 44.367 99.097 99.097z" fill="#ffe077"/><path d="m426.355 184.741c-54.73 0-99.097-44.367-99.097-99.097 0-23.94 8.505-45.909 22.636-63.037-22.03 18.175-36.087 45.699-36.087 76.489 0 54.729 44.367 99.097 99.097 99.097 30.79 0 58.315-14.059 76.49-36.089-17.129 14.132-39.1 22.637-63.039 22.637z" fill="#ffd05b"/></g><path d="m198.194 99.097c0 23.932-8.483 45.882-22.607 63.008-18.176 22.04-45.692 32.362-76.49 32.362-54.73 0-94.894-40.64-94.894-95.369 0-30.797 9.846-58.313 31.885-76.489 17.125-14.125 39.076-22.609 63.009-22.609 54.729 0 99.097 44.367 99.097 99.097z" fill="#fbf4db"/><path d="m107.355 107.359c-3.46 0-6.677-2.19-7.831-5.649l-16.516-49.549c-1.444-4.327.895-9.004 5.218-10.448 4.371-1.46 9 .899 10.444 5.222l16.516 49.548c1.444 4.327-.895 9.004-5.218 10.448-.871.291-1.75.428-2.613.428z" fill="#4ce1a1"/><path d="m110.027 50.947c-6.197 4.131-9.862 10.57-10.73 17.417-.371 2.931 1.56 5.674 4.413 6.442 6.616 1.78 13.907.856 20.059-3.245 6.197-4.131 9.862-10.57 10.73-17.417.371-2.931-1.56-5.674-4.413-6.442-6.615-1.78-13.907-.857-20.059 3.245z" fill="#8ceea1"/><path d="m112.548 184.741c-54.73 0-99.097-44.367-99.097-99.097 0-23.94 8.505-45.909 22.636-63.037-22.03 18.176-36.087 45.699-36.087 76.49 0 54.729 44.367 99.097 99.097 99.097 30.79 0 58.315-14.059 76.49-36.089-17.128 14.131-39.099 22.636-63.039 22.636z" fill="#f8ebcc"/><path d="m454.194 421.161h-57.63l8.081-24.774h49.549z" fill="#eceaec"/><path d="m404.645 396.387h-33.032v33.032h82.581v-16.516h-33.032c-9.122 0-16.517-7.394-16.517-16.516z" fill="#dbd8db"/><path d="m388.129 138.073c-4.565 0-8.258-3.698-8.258-8.258v-53.17c0-11.387 7.718-21.27 18.758-24.036l43.306-10.823c4.935-1.23 10.129-.145 14.161 3.004 4.04 3.153 6.355 7.899 6.355 13.02v63.746c0 4.56-3.694 8.258-8.258 8.258s-8.258-3.698-8.258-8.258v-63.746l-43.298 10.823c-3.677.919-6.25 4.218-6.25 8.012v53.169c0 4.561-3.693 8.259-8.258 8.259z" fill="#ff8b57"/><path d="m83.985 74.982c-14.643-.013-20.47 11.094-20.162 25.733.472 22.431 4.75 47.366 27.016 47.366 1.669 0 3.119.17 4.819-.111 2.122-.351 4.516-.111 6.638.241.318.053.636.101.953.144 1.379.189 2.75.29 4.106.29 22.804 0 33.032-26.744 33.032-49.548 0-20.767-15.189-24.25-35.151-24.708-6.654-.153-21.251.593-21.251.593z" fill="#ff7e92"/><path d="m74.329 100.715c-.308-14.64 11.518-26.321 26.161-26.307 1.591.002 3.171-.009 4.746-.02-6.695-.159-13.911.026-21.251.02-14.643-.014-26.469 11.667-26.161 26.307.472 22.431 10.749 47.93 33.015 47.93 1.669 0 3.36-.153 5.059-.434 2.122-.351 4.275-.351 6.397 0 .208.034.745.114.953.144-19.196-3.152-28.48-26.758-28.919-47.64z" fill="#ff5f7a"/><circle cx="379.871" cy="129.814" fill="#ff744d" r="16.516"/><circle cx="445.935" cy="121.556" fill="#ff744d" r="16.516"/><path d="m99.097 391.716c0-9.122 7.395-16.516 16.516-16.516h24.774c4.561 0 8.258 3.697 8.258 8.258v49.548c0 4.561-3.697 8.258-8.258 8.258h-24.774c-4.561 0-8.258 3.697-8.258 8.258 0 4.56-3.698 8.258-8.258 8.258 0-1.101-11.166-23.167-11.166-41.125 0-13.969 11.166-24.939 11.166-24.939z" fill="#fff"/><path d="m379.871 429.419h-8.258c-4.561 0-8.258-3.697-8.258-8.258v-33.032c0-4.561 3.697-8.258 8.258-8.258h8.258c4.561 0 8.258 3.697 8.258 8.258v33.032c0 4.561-3.697 8.258-8.258 8.258z" fill="#736572"/><path d="m379.871 421.161c-4.56 0-8.258-3.698-8.258-8.258v-33.032h-8.258c-4.56 0-8.258 3.697-8.258 8.258v49.548c0 4.56 3.698 8.258 8.258 8.258h16.516c4.56 0 8.258-3.698 8.258-8.258v-16.516z" fill="#615260"/><path d="m280.774 189.935c0 3.624-.778 7.066-2.176 10.168-3.881 8.612-12.539 12.444-22.598 12.444-13.682 0-22.766-8.93-22.766-22.612 0-10.076 4.008-18.748 12.644-22.619 3.09-1.385 6.516-2.156 10.122-2.156 13.682.001 24.774 11.093 24.774 24.775z" fill="#fbbd80"/><path d="m289.032 231.226h-49.548c-31.444 0-42.738 14.789-42.738 33.032v33.032l9.704 23.364c2.583.913 5.364 1.41 8.26 1.41l8.859-9.988 7.657 9.988h49.548l8.17-9.988 8.346 9.988c13.682 0 24.774-11.092 24.774-24.774v-33.032c0-18.243-14.789-33.032-33.032-33.032z" fill="#dbd8db"/><path d="m222.968 264.258c-4.565 0-8.258 3.698-8.258 8.258v49.548h16.516v-49.548c0-4.56-3.694-8.258-8.258-8.258z" fill="#c9c5c9"/><path d="m289.032 264.258c-4.565 0-8.258 3.698-8.258 8.258v49.548h16.516v-49.548c0-4.56-3.693-8.258-8.258-8.258z" fill="#c9c5c9"/><path d="m268.387 202.323c-13.682 0-24.774-11.092-24.774-24.774 0-3.631.861-7.125 2.265-10.232-8.602 3.885-14.652 12.567-14.652 22.619 0 13.682 11.092 24.774 24.774 24.774 10.052 0 18.714-6.004 22.598-14.606-3.107 1.403-6.58 2.219-10.211 2.219z" fill="#f4aa73"/><path d="m189.935 264.258v33.032c0 10.771 6.916 19.946 16.516 23.359v-56.391c0-18.243 14.789-33.032 33.032-33.032h-16.516c-18.243 0-33.032 14.789-33.032 33.032z" fill="#c9c5c9"/><path d="m99.097 391.716c0-9.122-7.395-16.516-16.516-16.516h-24.775c-4.561 0-8.258 3.697-8.258 8.258v49.548c0 4.561 3.697 8.258 8.258 8.258h24.774c4.561 0 8.258 3.697 8.258 8.258 0 4.56 3.698 8.258 8.258 8.258.001-1.957.001-66.064.001-66.064z" fill="#f8ebcc"/><path d="m462.452 429.419h-8.258c-4.561 0-8.258-3.697-8.258-8.258v-33.032c0-4.561 3.697-8.258 8.258-8.258h8.258c4.561 0 8.258 3.697 8.258 8.258v33.032c0 4.561-3.698 8.258-8.258 8.258z" fill="#736572"/><path d="m462.452 421.161c-4.56 0-8.258-3.698-8.258-8.258v-33.032h-8.258c-4.56 0-8.258 3.697-8.258 8.258v49.548c0 4.56 3.698 8.258 8.258 8.258h16.516c4.56 0 8.258-3.698 8.258-8.258v-16.516z" fill="#615260"/></g></svg>