<?xml version="1.0" encoding="UTF-8"?>
<svg xmlns="http://www.w3.org/2000/svg" viewBox="0 0 256 256" width="512" height="512"><path d="M164.551,72.629V90.221a46.162,46.162,0,0,1-1.031,9.689c.341.025.683.052,1.031.052a13.667,13.667,0,1,0,0-27.333Z" fill="#ffd2c0"/><path d="M173.16,75.686A13.661,13.661,0,0,1,163.9,97.894c-.114.674-.238,1.345-.381,2.009.342.025.682.059,1.03.059a13.663,13.663,0,0,0,8.609-24.276Z" fill="#fcc4ae"/><path d="M164.551,79.3V90.221c0,1.032-.046,2.053-.113,3.068.038,0,.075.006.113.006a7,7,0,0,0,0-14Z" fill="#f2ad97"/><path d="M72.551,90.221V72.629a13.667,13.667,0,1,0,0,27.333c.348,0,.69-.027,1.031-.052A46.162,46.162,0,0,1,72.551,90.221Z" fill="#ffd2c0"/><path d="M72.551,90.221V79.3a7,7,0,0,0,0,14c.038,0,.075,0,.113-.006C72.6,92.274,72.551,91.253,72.551,90.221Z" fill="#f2ad97"/><path d="M83.639,151.3h69.824a50,50,0,0,1,50,50v35.994a10,10,0,0,1-10,10H43.639a10,10,0,0,1-10-10V201.3A50,50,0,0,1,83.639,151.3Z" fill="#808285"/><circle cx="55.844" cy="167.21" r="2.013" fill="#939598"/><path d="M39.639,203.3a2,2,0,0,1-2-2,45.994,45.994,0,0,1,10.967-29.782,2,2,0,0,1,3.046,2.593A41.988,41.988,0,0,0,41.639,201.3,2,2,0,0,1,39.639,203.3Zm16.2-36.078h0Z" fill="#939598"/><path d="M183.463,161.295a49.773,49.773,0,0,1,10,30v35.994a10,10,0,0,1-10,10H33.639a10,10,0,0,0,10,10H193.463a10,10,0,0,0,10-10V201.3A49.92,49.92,0,0,0,183.463,161.295Z" fill="#58595b"/><path d="M186.221,163.538A49.794,49.794,0,0,1,198.463,196.3v35.994a10,10,0,0,1-10,10H38.639a9.951,9.951,0,0,1-4.11-.89,9.994,9.994,0,0,0,9.11,5.89H193.463a10,10,0,0,0,10-10V201.3A49.87,49.87,0,0,0,186.221,163.538Z" fill="#414042"/><path d="M162.9,217.2l7.306-6.678a10,10,0,0,0,3.253-7.381V191.3a50,50,0,0,0-50-50h-9.824a50,50,0,0,0-50,50v11.843a10,10,0,0,0,3.253,7.381L74.2,217.2l-9.114,13.027a8,8,0,0,0-1.445,4.586v12.479H173.463V234.81a8,8,0,0,0-1.445-4.586Z" fill="#414042"/><path d="M102.384,151.3h32.333a13,13,0,0,1,13,13v82.994a0,0,0,0,1,0,0H89.384a0,0,0,0,1,0,0V164.3A13,13,0,0,1,102.384,151.3Z" fill="#f1f2f2"/><circle cx="118.551" cy="193.962" r="3.079" fill="#d1d3d4"/><circle cx="118.551" cy="213.962" r="3.079" fill="#d1d3d4"/><circle cx="118.551" cy="233.962" r="3.079" fill="#d1d3d4"/><path d="M134.718,151.295H102.384a13,13,0,0,0-13,13V188.88a2,2,0,0,0,2.979,1.744l26.188-14.692,26.188,14.692a2,2,0,0,0,2.979-1.744V164.3A13,13,0,0,0,134.718,151.295Z" fill="#d1d3d4"/><path d="M118.551,136.221h0a45.891,45.891,0,0,1-16.167-2.93v23.59a4,4,0,0,0,.89,2.514l12.166,15.052a4,4,0,0,0,6.222,0L133.828,159.4a4,4,0,0,0,.89-2.514v-23.59A45.891,45.891,0,0,1,118.551,136.221Z" fill="#fcc4ae"/><path d="M118.551,136.221h0a45.891,45.891,0,0,1-16.167-2.93v5a45.891,45.891,0,0,0,16.167,2.93h0a45.891,45.891,0,0,0,16.167-2.93v-5A45.891,45.891,0,0,1,118.551,136.221Z" fill="#f2ad97"/><path d="M160.884,56.044H86.057a10,10,0,0,0-7.405,3.279l-6.1,6.721V90.221a46,46,0,0,0,46,46h0a46,46,0,0,0,46-46V55.76A23.825,23.825,0,0,1,160.884,56.044Z" fill="#ffd2c0"/><path d="M160.884,56.044h-1.333V85.221a46,46,0,0,1-46,46h0a45.8,45.8,0,0,1-29.922-11.078,45.884,45.884,0,0,0,34.922,16.078h0a46,46,0,0,0,46-46V55.76A23.825,23.825,0,0,1,160.884,56.044Z" fill="#fcc4ae"/><path d="M160.884,56.044H86.057a10,10,0,0,0-7.405,3.279l-6.1,6.721v-22.5A34.833,34.833,0,0,1,107.384,8.711h53.5a23.667,23.667,0,0,1,23.667,23.667h0A23.667,23.667,0,0,1,160.884,56.044Z" fill="#995222"/><path d="M174.93,13.331a23.558,23.558,0,0,1,4.621,14.047h0a23.667,23.667,0,0,1-23.667,23.666H81.057a10,10,0,0,0-7.405,3.279l-1.1,1.213V66.044l6.1-6.721a10,10,0,0,1,7.405-3.279h74.827a23.667,23.667,0,0,0,23.667-23.666h0A23.633,23.633,0,0,0,174.93,13.331Z" fill="#8c3f0a"/><circle cx="138.551" cy="79.587" r="5.292" fill="#995222"/><circle cx="98.551" cy="79.587" r="5.292" fill="#995222"/><path d="M118.551,113.712c6.259,0,11.333-3.027,11.333-6.76H107.218C107.218,110.685,112.292,113.712,118.551,113.712Z" fill="#995222"/><path d="M51.079,96.436l1.14.307a.9.9,0,0,1,0,1.747l-1.14.307a20.916,20.916,0,0,0-14.76,14.76l-.307,1.139a.9.9,0,0,1-1.747,0l-.307-1.139A20.916,20.916,0,0,0,19.2,98.8l-1.139-.307a.9.9,0,0,1,0-1.747l1.139-.307a20.918,20.918,0,0,0,14.76-14.76l.307-1.14a.9.9,0,0,1,1.747,0l.307,1.14A20.918,20.918,0,0,0,51.079,96.436Z" fill="#ffa91a"/><path d="M42.253,97.113h0a.522.522,0,0,1,0,1.007h0a9.368,9.368,0,0,0-6.611,6.61h0a.521.521,0,0,1-1.007,0h0a9.368,9.368,0,0,0-6.611-6.61h0a.522.522,0,0,1,0-1.007h0A9.37,9.37,0,0,0,34.635,90.5h0a.522.522,0,0,1,1.007,0h0A9.37,9.37,0,0,0,42.253,97.113Z" fill="#ffc91d"/><path d="M205.449,62.22l.963.259a.765.765,0,0,1,0,1.477l-.963.259a17.677,17.677,0,0,0-12.473,12.474l-.26.963a.764.764,0,0,1-1.476,0l-.259-.963a17.681,17.681,0,0,0-12.474-12.474l-.963-.259a.765.765,0,0,1,0-1.477l.963-.259a17.681,17.681,0,0,0,12.474-12.474l.259-.963a.764.764,0,0,1,1.476,0l.26.963A17.677,17.677,0,0,0,205.449,62.22Z" fill="#ffa91a"/><path d="M197.99,62.792h0a.441.441,0,0,1,0,.851h0A7.916,7.916,0,0,0,192.4,69.23h0a.442.442,0,0,1-.852,0h0a7.916,7.916,0,0,0-5.586-5.587h0a.441.441,0,0,1,0-.851h0a7.916,7.916,0,0,0,5.586-5.586h0a.442.442,0,0,1,.852,0h0A7.916,7.916,0,0,0,197.99,62.792Z" fill="#ffc91d"/><path d="M219.959,101.553l.642.172a.51.51,0,0,1,0,.985l-.642.173a11.785,11.785,0,0,0-8.316,8.315l-.173.642a.509.509,0,0,1-.984,0l-.173-.642A11.785,11.785,0,0,0,202,102.883l-.642-.173a.51.51,0,0,1,0-.985l.642-.172a11.786,11.786,0,0,0,8.316-8.316l.173-.642a.509.509,0,0,1,.984,0l.173.642A11.786,11.786,0,0,0,219.959,101.553Z" fill="#ffa91a"/><path d="M214.986,101.934h0a.294.294,0,0,1,0,.567h0a5.278,5.278,0,0,0-3.724,3.725h0a.294.294,0,0,1-.568,0h0a5.278,5.278,0,0,0-3.724-3.725h0a.294.294,0,0,1,0-.567h0a5.278,5.278,0,0,0,3.724-3.724h0a.294.294,0,0,1,.568,0h0A5.278,5.278,0,0,0,214.986,101.934Z" fill="#ffc91d"/><path d="M36.683,152.011l.8.216a.637.637,0,0,1,0,1.23l-.8.216a14.731,14.731,0,0,0-10.394,10.4l-.216.8a.637.637,0,0,1-1.231,0l-.216-.8a14.731,14.731,0,0,0-10.4-10.4l-.8-.216a.637.637,0,0,1,0-1.23l.8-.216a14.731,14.731,0,0,0,10.4-10.395l.216-.8a.638.638,0,0,1,1.231,0l.216.8A14.731,14.731,0,0,0,36.683,152.011Z" fill="#ffa91a"/><path d="M30.467,152.487h0a.368.368,0,0,1,0,.71h0a6.6,6.6,0,0,0-4.655,4.655h0a.367.367,0,0,1-.709,0h0a6.6,6.6,0,0,0-4.656-4.655h0a.368.368,0,0,1,0-.71h0a6.6,6.6,0,0,0,4.656-4.655h0a.367.367,0,0,1,.709,0h0A6.6,6.6,0,0,0,30.467,152.487Z" fill="#ffc91d"/><path d="M229.283,122.724,206,132.006l-20.846-13.92a2.9,2.9,0,0,0-4.5,2.6l1.632,25.014L162.6,161.221a2.9,2.9,0,0,0,1.08,5.081l24.294,6.178,4.924,39.234h13.264l9.043-36.372,25.047-.992a2.9,2.9,0,0,0,2.113-4.745l-16.023-19.277,6.8-24.128A2.9,2.9,0,0,0,229.283,122.724Z" fill="#f79219"/><path d="M173.7,211.714h51.8a5,5,0,0,1,5,5v21.694a0,0,0,0,1,0,0H168.7a0,0,0,0,1,0,0V216.714A5,5,0,0,1,173.7,211.714Z" fill="#7c3108"/><rect x="174.493" y="217.506" width="50.217" height="15.109" rx="2" fill="#995222"/><rect x="164.647" y="238.408" width="69.91" height="8.881" rx="2.896" fill="#725246"/><rect x="164.647" y="238.408" width="69.91" height="8.881" rx="2" fill="#995222"/><path d="M188.767,127.465l16.547,11.049,18.482-7.367a1.158,1.158,0,0,1,1.544,1.39l-5.394,19.151,12.717,15.3a1.158,1.158,0,0,1-.845,1.9l-19.881.788L202,211.714h-4.832l-4.809-44.1-19.283-4.9a1.158,1.158,0,0,1-.432-2.032l15.621-12.323-1.3-19.854A1.159,1.159,0,0,1,188.767,127.465Z" fill="#ffc91d"/><rect x="114.301" y="172.392" width="8.5" height="8.5" fill="#b7022d"/><path d="M122.8,180.892l10.667,5.5a2,2,0,0,0,2.916-1.778V168.672a2,2,0,0,0-2.916-1.778l-10.667,5.5Z" fill="#d10028"/><path d="M114.3,180.892l-10.667,5.5a2,2,0,0,1-2.916-1.778V168.672a2,2,0,0,1,2.916-1.778l10.667,5.5Z" fill="#d10028"/></svg>
