<svg id="Layer_1" height="512" viewBox="0 0 256 256" width="512" xmlns="http://www.w3.org/2000/svg"><g><g><g><g><path d="m175.394 98.866c4.079-14.33-.927-29.704-12.662-38.884-7.557-5.911-12.769-14.315-14.705-23.713-3.381-16.41-17.828-28.184-34.583-28.184h-8.763c-4.062 0-7.741 1.621-10.442 4.244-2.701-2.623-6.38-4.244-10.442-4.244h-8.763c-16.754 0-31.202 11.774-34.583 28.183-1.963 9.527-7.407 17.878-15.006 23.951-11.52 9.206-16.406 24.438-12.362 38.646l3.219 11.306c1.165 4.091 1.257 8.412.268 12.549l-2.295 9.606c-4.947 20.705 10.749 40.594 32.037 40.594h95.855c21.287 0 36.984-19.889 32.037-40.594l-2.295-9.606c-.988-4.137-.896-8.458.268-12.549z" fill="#ffc91d"/></g></g><g><g><g><path d="m175.394 98.866c4.079-14.33-.927-29.704-12.662-38.884-7.557-5.911-12.769-14.315-14.705-23.713-3.381-16.41-17.828-28.184-34.583-28.184h-5c16.754 0 31.202 11.774 34.583 28.184 1.936 9.397 7.148 17.801 14.705 23.713 11.736 9.18 16.742 24.553 12.662 38.884l-3.218 11.306c-1.164 4.091-1.257 8.412-.268 12.549l2.295 9.606c4.947 20.704-10.749 40.594-32.037 40.594h-90.856.001 95.855c21.287 0 36.984-19.889 32.037-40.594l-2.295-9.606c-.988-4.137-.896-8.458.268-12.549z" fill="#ffa91a"/></g></g></g><g><g><g><g><path d="m142.238 78.253c-.681 0-1.345.066-2 .163v17.43c0 3.225-.335 6.371-.966 9.409.956.212 1.947.332 2.966.332 7.548 0 13.667-6.119 13.667-13.667s-6.119-13.667-13.667-13.667z" fill="#ffd2c0"/></g></g><g><g><path d="m150.847 81.311c1.91 2.35 3.058 5.344 3.058 8.609 0 7.548-6.119 13.667-13.667 13.667-.221 0-.438-.018-.656-.029-.096.568-.194 1.136-.31 1.698.956.212 1.947.331 2.967.331 7.548 0 13.667-6.119 13.667-13.667-.001-4.284-1.975-8.103-5.059-10.609z" fill="#fcc4ae"/></g></g><g><g><path d="m142.238 84.92c-.695 0-1.366.105-2 .294v10.632c0 .926-.035 1.844-.089 2.757.66.206 1.362.318 2.089.318 3.866 0 7-3.134 7-7s-3.134-7.001-7-7.001z" fill="#f2ad97"/></g></g></g><g><g><g><path d="m48.238 95.846v-17.43c-.655-.096-1.319-.163-2-.163-7.548 0-13.667 6.119-13.667 13.667s6.119 13.667 13.667 13.667c1.02 0 2.01-.12 2.966-.332-.631-3.038-.966-6.184-.966-9.409z" fill="#ffd2c0"/></g></g><g><g><path d="m48.238 95.846v-10.632c-.634-.189-1.305-.294-2-.294-3.866 0-7 3.134-7 7s3.134 7 7 7c.728 0 1.43-.112 2.089-.318-.053-.912-.089-1.83-.089-2.756z" fill="#f2ad97"/></g></g></g></g><g><g><path d="m169.15 247.914h-149.824c-5.523 0-10-4.477-10-10v-40.994c0-22.091 17.909-40 40-40h89.824c22.091 0 40 17.909 40 40v40.994c0 5.523-4.477 10-10 10z" fill="#fcc4ae"/></g></g><g><g><path d="m161.985 164.086c4.512 6.476 7.166 14.343 7.166 22.834v40.994c0 5.523-4.477 10-10 10h-149.825c0 5.523 4.477 10 10 10h149.824c5.523 0 10-4.477 10-10v-40.994c0-13.6-6.793-25.607-17.165-32.834z" fill="#f2ad97"/></g></g><g><g><path d="m164.82 166.25c5.821 6.947 9.33 15.897 9.33 25.67v40.994c0 5.523-4.477 10-10 10h-149.824c-1.466 0-2.855-.323-4.11-.891 1.569 3.471 5.053 5.891 9.11 5.891h149.824c5.523 0 10-4.477 10-10v-40.994c0-12.319-5.572-23.332-14.33-30.67z" fill="#e59076"/></g></g><g><g><path d="m15.326 234.111c-1.104 0-2-.896-2-2v-21c0-1.104.896-2 2-2s2 .896 2 2v21c0 1.105-.895 2-2 2zm0-29c-1.104 0-2-.896-2-2v-.191c0-1.104.896-2 2-2s2 .896 2 2v.191c0 1.105-.895 2-2 2z" fill="#ffd2c0"/></g></g><g><g><g><path d="m54.572 156.92h-24.442c-13.807 0-25 11.193-25 25v6.08h49.441v-31.08z" fill="#d10028"/></g></g><g><g><path d="m7.13 198.361h47.441v-10.361h-49.441v8.361c0 1.105.896 2 2 2z" fill="#b7022d"/></g></g></g><g><g><g><path d="m135.13 156.92h24.441c13.807 0 25 11.193 25 25v6.08h-49.441z" fill="#d10028"/></g></g><g><g><path d="m182.572 198.361h-47.442v-10.361h49.441v8.361c.001 1.105-.895 2-1.999 2z" fill="#b7022d"/></g></g></g><g><g><path d="m121.042 175.834c-11.627 0-21.639 6.892-26.19 16.81-4.552-9.918-14.563-16.81-26.19-16.81-15.911 0-28.81 12.898-28.81 28.809v43.271h110v-43.271c-.001-15.91-12.899-28.809-28.81-28.809z" fill="#d10028"/></g></g><g><g><path d="m110.405 156.92v-18.004c-5.03 1.889-10.476 2.929-16.167 2.929-5.69 0-11.136-1.04-16.167-2.929v18.004z" fill="#fcc4ae"/></g></g><g><g><path d="m94.238 141.846c-5.691 0-11.136-1.04-16.167-2.929v5.131c5.052 1.807 10.493 2.799 16.167 2.799 5.674 0 11.114-.991 16.167-2.799v-5.131c-5.03 1.888-10.476 2.929-16.167 2.929z" fill="#f2ad97"/></g></g><g><g><g><path d="m61.818 71.682c23.77 0 44.026-12.392 51.855-29.784 14.95 1.705 26.566 14.392 26.566 29.799v24.149c0 25.405-20.595 46-46 46-25.405 0-46-20.595-46-46v-24.149c0-.475.014-.947.036-1.416 4.336.903 8.867 1.401 13.543 1.401z" fill="#ffd2c0"/></g></g><g><g><path d="m128.793 48.131c4.033 5.107 6.445 11.552 6.445 18.565v24.149c0 25.405-20.595 46-46 46-11.43 0-21.877-4.178-29.922-11.078 8.437 9.837 20.947 16.078 34.922 16.078 25.405 0 46-20.595 46-46v-24.148c0-9.562-4.476-18.074-11.445-23.566z" fill="#fcc4ae"/></g></g></g><g><g><circle cx="114.238" cy="85.212" fill="#995222" r="5.292"/></g></g><g><g><circle cx="74.238" cy="85.212" fill="#995222" r="5.292"/></g></g><g><g><path d="m94.238 119.337c6.259 0 11.333-3.026 11.333-6.76h-22.666c0 3.733 5.074 6.76 11.333 6.76z" fill="#995222"/></g></g></g><g><g><g><g><g><path d="m159.456 193.487v49.427c0 2.761 2.239 5 5 5h81.414c2.761 0 5-2.239 5-5v-49.427z" fill="#58595b"/></g></g></g><g><g><path d="m194.14 235.136v-29.541c0-1.965 2.177-3.148 3.826-2.079l22.787 14.77c1.507.977 1.507 3.182 0 4.159l-22.787 14.77c-1.649 1.069-3.826-.114-3.826-2.079z" fill="#f1f2f2"/></g></g><g><g><path d="m220.753 218.286-3.915-2.538c-.102.66-.453 1.287-1.085 1.697l-21.613 14.009v3.682c0 1.965 2.177 3.148 3.826 2.079l22.787-14.77c1.507-.977 1.507-3.182 0-4.159z" fill="#e6e7e8"/></g></g><g><g><path d="m245.87 193.487v44.427c0 2.761-2.239 5-5 5h-81.414c0 2.761 2.239 5 5 5h81.414c2.761 0 5-2.239 5-5v-49.427z" fill="#414042"/></g></g><g><g><g><path d="m248.87 181.152h-89.414v12.346h91.414v-10.346c0-1.105-.896-2-2-2z" fill="#e6e7e8"/></g></g><g><g><path d="m250.87 183.152c0-1.104-.895-2-2-2h-5c1.105 0 2 .896 2 2v10.346h5z" fill="#d1d3d4"/></g></g><g><g><g><path d="m193.75 193.498h14.944l8.688-12.346h-14.944z" fill="#414042"/></g></g></g><g><g><g><path d="m223.75 193.498h14.944l8.688-12.346h-14.944z" fill="#414042"/></g></g></g><g><g><g><path d="m163.75 193.498h14.944l8.688-12.346h-14.944z" fill="#414042"/></g></g></g></g></g><g><g><g><path d="m242.63 146.085-84.435 22.624c-1.067.286-1.7 1.383-1.414 2.449l2.678 9.994 86.367-23.142c1.067-.286 1.7-1.383 1.414-2.449l-2.16-8.062c-.287-1.067-1.383-1.7-2.45-1.414z" fill="#e6e7e8"/></g></g><g><g><path d="m245.079 147.499c-.286-1.067-1.383-1.7-2.449-1.414l-4.83 1.294c1.067-.286 2.164.347 2.449 1.414l2.678 9.994 2.898-.776c1.067-.286 1.7-1.383 1.414-2.449z" fill="#d1d3d4"/></g></g><g><g><g><path d="m192.584 172.276 14.435-3.868 5.196-14.174-14.435 3.868z" fill="#414042"/></g></g></g><g><g><g><path d="m221.562 164.511 14.435-3.867 5.196-14.175-14.435 3.868z" fill="#414042"/></g></g></g><g><g><g><path d="m163.606 180.041 14.435-3.868 5.197-14.174-14.435 3.867z" fill="#414042"/></g></g></g></g></g></g></svg>