<svg fill="none" height="512" viewBox="0 0 512 512" width="512" xmlns="http://www.w3.org/2000/svg"><path d="m479.864 182.659v297.744c.017 6.769-2.414 13.315-6.844 18.431-4.431 5.117-10.562 8.459-17.264 9.409-57.418 7.888-115.862 3.322-171.36-13.386l-34.262-10.326c-48.755-14.679-99.847-20.001-150.5809-15.682l-36.0456 3.062c-3.8803.33-7.7868-.15-11.472-1.409-3.6853-1.258-7.0691-3.269-9.937-5.903-2.8679-2.635-5.1574-5.836-6.7236-9.401-1.5662-3.566-2.3749-7.418-2.3749-11.312v-297.431c-.0001-7.047 2.6446-13.836 7.411-19.026 4.7663-5.19 11.307-8.401 18.3279-8.999l40.1721-3.42c51.147-4.346 102.654 1.102 151.76 16.052l31.799 9.687c64.443 19.762 129.364 17.687 166.353 13.935 3.918-.404 7.877.018 11.621 1.239 3.744 1.222 7.19 3.215 10.116 5.852 2.925 2.636 5.265 5.857 6.868 9.455 1.602 3.597 2.432 7.491 2.436 11.429z" fill="#e8b23a"/><path d="m315.569 502.897c-10.475-2.253-20.866-4.933-31.173-8.042l-34.262-10.326c-48.755-14.68-99.847-20.001-150.5809-15.685l-36.0525 3.06c-3.88.331-7.7864-.148-11.4716-1.407-3.6852-1.258-7.0688-3.268-9.9363-5.903-2.8675-2.634-5.1565-5.836-6.7217-9.402-1.5652-3.565-2.3726-7.417-2.371-11.312v-82.327c70.392-23.575 145.892-27.451 218.328-11.209l63.48 131.601z" fill="#4eb393"/><path d="m479.864 420.75v59.66c.017 6.769-2.416 13.314-6.848 18.429s-10.565 8.454-17.266 9.401c-28.657 3.933-57.652 4.778-86.489 2.522v-20.787l-52.334-104.871 83.983 22.579c25.825 6.938 52.271 11.315 78.954 13.067z" fill="#4eb393"/><path d="m479.864 161.87v297.744c.017 6.769-2.414 13.315-6.844 18.431-4.431 5.117-10.562 8.459-17.264 9.409-57.418 7.888-115.862 3.322-171.36-13.386l-34.262-10.326c-48.755-14.679-99.847-20.001-150.5809-15.682l-36.0456 3.062c-3.8803.33-7.7868-.15-11.472-1.409-3.6853-1.258-7.0691-3.269-9.937-5.903-2.8679-2.635-5.1574-5.836-6.7236-9.401-1.5662-3.566-2.3749-7.418-2.3749-11.312v-297.431c-.0001-7.047 2.6446-13.836 7.411-19.026 4.7663-5.19 11.307-8.4013 18.3279-8.9994l40.1721-3.4194c51.147-4.346 102.654 1.1021 151.76 16.0518l31.799 9.687c64.441 19.76 129.367 17.687 166.352 13.935 3.918-.405 7.877.017 11.621 1.238 3.745 1.221 7.191 3.215 10.117 5.851 2.926 2.637 5.265 5.858 6.868 9.456s2.432 7.492 2.436 11.43z" fill="#fcd034"/><path d="m251.328 110.47v158.788c-72.382-16.788-148.022-12.941-218.328 11.103v-154.7c-.001-7.046 2.6434-13.836 7.41-19.026 4.7666-5.189 11.3078-8.4004 18.3289-8.9971l40.1708-3.4181c51.1473-4.3459 102.6543 1.1021 151.7603 16.0522z" fill="#00b7f0"/><path d="m314.808 481.946c-10.207-2.223-20.344-4.849-30.412-7.878l-34.262-10.327c-48.755-14.68-99.847-20.001-150.5809-15.683l-36.0525 3.054c-3.88.331-7.7864-.149-11.4715-1.407-3.6851-1.259-7.0686-3.269-9.936-5.904-2.8675-2.635-5.1564-5.836-6.7217-9.402-1.5652-3.566-2.3728-7.418-2.3714-11.312v-82.32c70.392-23.576 145.892-27.452 218.328-11.209z" fill="#4fe399"/><path d="m150.418 428.116c32.217 0 58.335-7.63 58.335-17.042 0-9.411-26.118-17.041-58.335-17.041s-58.3347 7.63-58.3347 17.041c0 9.412 26.1177 17.042 58.3347 17.042z" fill="#43265c" opacity=".302"/><path d="m479.864 399.964v59.642c.02 6.771-2.411 13.32-6.844 18.438-4.432 5.118-10.567 8.46-17.271 9.407-28.655 3.941-57.651 4.787-86.488 2.523l-52.333-125.661 83.984 22.576c25.824 6.941 52.269 11.321 78.952 13.075z" fill="#4fe399"/><path d="m479.864 161.877v179.293c-50.699-2.407-101.157-8.492-150.974-18.206l-37.426-7.312v-193.057c.896.253 1.776.491 2.671.715 52.052 14.164 106.415 17.751 159.878 10.551 7.04.569 13.608 3.767 18.398 8.958s7.45 11.995 7.453 19.058z" fill="#4fe399"/><path d="m390.634 247.809c25.231 0 45.685-10.794 45.685-24.11s-20.454-24.11-45.685-24.11-45.685 10.794-45.685 24.11 20.454 24.11 45.685 24.11z" fill="#43265c" opacity=".302"/><path d="m479.864 161.877v297.73c.019 6.771-2.411 13.32-6.844 18.438-4.432 5.118-10.567 8.46-17.271 9.408-57.416 7.886-115.858 3.321-171.353-13.385l-13.938-4.208v-353.554l12.013 3.656c64.434 19.756 129.362 17.682 166.354 13.936 3.917-.405 7.876.018 11.621 1.239 3.744 1.222 7.191 3.216 10.116 5.853 2.926 2.637 5.265 5.859 6.867 9.457 1.602 3.597 2.432 7.492 2.435 11.43z" fill="#43265c" opacity=".1"/><g fill="#e11e68"><path d="m389.708 222.241h-.087c-.138 0-3.443-.083-9.15-.554-.509-.012-1.009-.128-1.472-.341-.462-.212-.876-.517-1.216-.895-.341-.379-.6-.822-.763-1.305-.162-.482-.225-.992-.183-1.499.041-.507.186-1.001.425-1.45s.567-.845.964-1.163c.398-.317.856-.551 1.346-.685.491-.135 1.004-.168 1.508-.097 5.465.445 8.682.526 8.718.527.952.065 1.843.492 2.491 1.193.647.701 1.002 1.623.991 2.578-.011.954-.387 1.868-1.05 2.554-.664.686-1.564 1.092-2.518 1.135z"/><path d="m254.472 422.142c-.369 0-.741-.004-1.116-.014-.953-.065-1.844-.493-2.49-1.195-.647-.702-1.001-1.625-.989-2.579.012-.955.389-1.868 1.053-2.554.665-.685 1.566-1.09 2.52-1.132h.097c5.28.155 10.526-.896 15.339-3.072.451-.236.945-.377 1.452-.415s1.017.028 1.498.194c.481.165.923.428 1.298.77.376.343.678.759.888 1.222s.323.965.332 1.473c.009.509-.086 1.014-.279 1.484-.193.471-.48.897-.844 1.253-.363.356-.795.634-1.27.816-5.495 2.486-11.458 3.764-17.489 3.749zm-18.426-1.439c-.108 0-.216 0-.326-.014l-17.404-1.501c-.949-.131-1.811-.622-2.409-1.37-.597-.749-.885-1.698-.802-2.652.082-.955.527-1.841 1.244-2.476s1.651-.971 2.608-.938l17.405 1.503c.94.106 1.805.565 2.42 1.283.615.719.935 1.644.895 2.589s-.438 1.839-1.112 2.503c-.673.664-1.574 1.047-2.519 1.073zm48.176-12.454c-.71-.003-1.404-.208-2.001-.59-.598-.383-1.074-.928-1.373-1.571s-.409-1.359-.317-2.062c.093-.704.383-1.366.839-1.91 3.407-4.051 5.881-8.803 7.245-13.917.102-.498.305-.97.595-1.387.291-.417.664-.77 1.096-1.038s.914-.445 1.416-.521c.503-.075 1.016-.047 1.507.083s.951.358 1.351.672c.4.313.732.705.976 1.151.243.447.393.938.44 1.444s-.01 1.016-.167 1.5c-1.647 6.181-4.635 11.923-8.753 16.819-.349.416-.786.752-1.279.981-.494.23-1.031.349-1.575.348zm8.534-32.679c-.863-.002-1.697-.302-2.363-.85-.667-.547-1.123-1.308-1.292-2.153-.458-2.289-1.134-4.529-2.02-6.689l-1.384-3.378c-.784-1.914-1.542-3.838-2.274-5.773-.285-.91-.212-1.895.205-2.752.417-.858 1.146-1.523 2.038-1.861.892-.337 1.879-.321 2.759.046.88.366 1.587 1.055 1.975 1.926.709 1.873 1.442 3.736 2.201 5.589l1.383 3.377c1.068 2.603 1.882 5.302 2.433 8.061.192.97-.009 1.976-.559 2.799-.549.822-1.402 1.393-2.372 1.587-.24.048-.485.072-.73.074zm-11.391-32.993c-.806-.001-1.59-.263-2.235-.747s-1.116-1.163-1.343-1.936c-1.661-5.652-3.114-11.444-4.331-17.215-.148-.945.073-1.91.616-2.698.543-.787 1.367-1.336 2.303-1.533.936-.198 1.912-.029 2.727.471.815.501 1.407 1.295 1.655 2.219 1.179 5.585 2.587 11.189 4.191 16.657.162.556.193 1.143.089 1.713-.103.57-.338 1.109-.685 1.573-.348.464-.799.841-1.317 1.1-.518.26-1.09.395-1.67.396zm-7.212-34.151c-.904-.003-1.776-.332-2.455-.929-.679-.596-1.119-1.418-1.238-2.313-.77-5.84-1.323-11.788-1.643-17.677-.057-.506-.01-1.018.138-1.505s.394-.938.722-1.327c.329-.388.733-.705 1.189-.932s.953-.358 1.461-.385c.508-.028 1.016.048 1.494.224.477.176.914.447 1.283.798.368.351.662.773.862 1.241s.302.971.3 1.48c.311 5.702.846 11.456 1.59 17.106.128.98-.138 1.972-.74 2.757-.601.785-1.49 1.299-2.47 1.43-.164.022-.328.033-.493.035zm-1.739-34.85c-.101 0-.201 0-.302-.013-.985-.08-1.899-.547-2.54-1.299-.642-.752-.959-1.728-.882-2.714.488-6.159 1.836-12.219 4.004-18.004.379-.885 1.084-1.589 1.969-1.967s1.882-.399 2.782-.06c.901.339 1.636 1.012 2.052 1.879.417.868.483 1.862.184 2.777-1.925 5.133-3.121 10.511-3.553 15.976-.078.933-.502 1.802-1.19 2.437s-1.589.988-2.524.991zm12.115-32.271c-.691-.002-1.367-.196-1.954-.56-.587-.363-1.062-.883-1.371-1.5-.31-.617-.443-1.308-.384-1.996s.308-1.346.718-1.901c3.688-4.953 8.042-9.373 12.939-13.135.385-.332.834-.582 1.319-.735.485-.152.996-.204 1.502-.153.505.052.995.206 1.439.454s.833.583 1.143.987c.31.403.534.865.659 1.358s.148 1.006.068 1.508-.262.982-.535 1.412c-.272.429-.629.798-1.049 1.085-4.352 3.343-8.221 7.271-11.498 11.674-.348.468-.8.848-1.322 1.11-.521.261-1.097.397-1.68.395zm27.354-21.013c-.864-.006-1.699-.311-2.363-.864s-1.116-1.318-1.279-2.166c-.163-.849-.028-1.727.384-2.487.412-.759 1.074-1.352 1.874-1.679 5.741-2.288 11.774-3.764 17.923-4.384.955-.043 1.89.281 2.613.905.723.625 1.18 1.503 1.275 2.454.096.951-.177 1.903-.761 2.659-.585.756-1.437 1.259-2.381 1.407-5.457.548-10.811 1.858-15.906 3.89-.439.175-.907.265-1.379.265zm51.538-.553c-.177 0-.354-.012-.53-.036-5.464-.779-10.948-1.701-16.301-2.746-.354-.07-.703-.138-1.049-.198-.506-.059-.995-.221-1.436-.475-.441-.255-.825-.598-1.129-1.007-.304-.408-.522-.875-.639-1.371s-.131-1.011-.042-1.512c.09-.502.281-.98.561-1.405.281-.425.646-.788 1.072-1.067.427-.279.906-.468 1.408-.555s1.016-.071 1.511.048c.392.068.785.139 1.177.219 5.222 1.02 10.579 1.922 15.914 2.681.92.148 1.752.636 2.332 1.367s.865 1.652.8 2.582c-.066.931-.476 1.803-1.152 2.446s-1.568 1.01-2.501 1.029z"/><path d="m201.093 417.686c-.108 0-.217 0-.326-.014l-8.921-.772c-.509-.013-1.011-.13-1.473-.344-.463-.215-.876-.521-1.216-.901s-.598-.826-.759-1.309c-.161-.484-.222-.995-.178-1.503s.192-1.001.434-1.45c.241-.449.572-.843.972-1.159s.861-.547 1.353-.679c.493-.131 1.007-.16 1.511-.086l8.92.771c.938.108 1.8.567 2.413 1.286.613.718.932 1.641.892 2.584-.041.944-.436 1.837-1.108 2.5-.672.664-1.57 1.048-2.514 1.076z"/></g><path d="m89.1716 320.385-4.1515-25.144c-.5458-3.302-.4358-6.679.3235-9.939.7594-3.259 2.1533-6.338 4.1023-9.058 1.9489-2.721 4.4147-5.032 7.2565-6.799 2.8418-1.768 6.0036-2.959 9.3056-3.505s6.68-.436 9.939.323c3.26.76 6.338 2.154 9.059 4.103s5.031 4.414 6.799 7.256 2.958 6.004 3.504 9.306l4.152 25.146zm20.9984-47.379c-2.624.001-5.216.573-7.596 1.676-2.38 1.102-4.4924 2.71-6.1897 4.71-1.6974 2-2.9395 4.346-3.6401 6.874-.7007 2.528-.8431 5.178-.4175 7.767l2.9475 17.834 35.6678-5.895-2.948-17.834c-.703-4.222-2.879-8.059-6.142-10.829s-7.402-4.295-11.682-4.303z" fill="#43265c"/><path d="m208.751 319.521h-43.113v-21.557c-.022-2.845.518-5.667 1.591-8.302 1.073-2.636 2.658-5.032 4.662-7.052 2.004-2.021 4.388-3.624 7.014-4.718 2.627-1.094 5.444-1.658 8.29-1.658 2.845 0 5.662.564 8.289 1.658s5.011 2.697 7.015 4.718c2.004 2.02 3.588 4.416 4.661 7.052 1.073 2.635 1.614 5.457 1.591 8.302zm-36.845-6.267h30.582v-15.29c0-4.055-1.611-7.945-4.479-10.812-2.867-2.868-6.757-4.479-10.812-4.479-4.056 0-7.945 1.611-10.813 4.479-2.867 2.867-4.478 6.757-4.478 10.812z" fill="#43265c"/><path d="m141.146 390.143 11.317-81.335c.167-1.203.764-2.304 1.679-3.102.916-.797 2.089-1.236 3.303-1.236h59.504c1.214 0 2.387.439 3.303 1.237.915.797 1.511 1.898 1.679 3.101l11.315 81.335c.154 1.107.069 2.235-.25 3.307s-.864 2.063-1.599 2.906c-.734.843-1.641 1.519-2.659 1.983-1.018.463-2.123.702-3.241.702h-76.605c-1.118 0-2.223-.24-3.241-.704-1.017-.463-1.923-1.139-2.657-1.982-.734-.844-1.279-1.834-1.597-2.906-.319-1.071-.404-2.199-.251-3.306z" fill="#6a2bc2"/><path d="m190.653 399.039h-41.76c-1.118.001-2.223-.238-3.241-.701-1.018-.462-1.925-1.138-2.659-1.981-.735-.843-1.28-1.834-1.599-2.905-.319-1.072-.404-2.199-.251-3.306l11.312-81.337c.169-1.202.765-2.303 1.68-3.1.916-.797 2.088-1.238 3.301-1.241h7.989l27.055 86.826c.423 1.336.477 2.761.155 4.125-.322 1.363-1.006 2.614-1.982 3.62z" fill="#43265c" opacity=".302"/><path d="m74.2612 409.122-2.5435-99.496c-.0309-1.214.3782-2.398 1.1518-3.334.7737-.936 1.8597-1.561 3.0578-1.759l70.9757-11.73c1.198-.199 2.427.043 3.461.681 1.034.637 1.802 1.627 2.163 2.786l29.604 95.017c.333 1.068.432 2.194.293 3.303s-.515 2.176-1.102 3.128c-.586.951-1.37 1.766-2.299 2.389-.928.623-1.979 1.04-3.082 1.223l-92.5882 15.302c-1.1025.182-2.2312.126-3.3101-.165s-2.0829-.81-2.9445-1.522c-.8615-.711-1.5605-1.599-2.0499-2.604-.4894-1.004-.7578-2.102-.7871-3.219z" fill="#8a49e6"/><path d="m78.7876 316.243 2.5379 99.487c.0094.33.0399.66.0913.986-1.918-.163-3.7085-1.028-5.0281-2.429-1.3197-1.402-2.0758-3.241-2.1234-5.165l-2.549-99.487c-.0313-1.214.3777-2.399 1.1516-3.336.774-.937 1.8605-1.562 3.0593-1.76l70.9818-11.735c1.198-.194 2.425.051 3.458.689 1.032.638 1.799 1.627 2.161 2.786l.998 3.213-70.5289 11.654c-1.1978.2-2.2833.826-3.0567 1.763-.7734.936-1.1828 2.12-1.1528 3.334z" fill="#f2fbff" opacity=".2"/><path d="m225.494 399.039h-1.067c.509-1.519.674-3.133.483-4.724l-10.536-89.847h2.569c1.214.002 2.387.442 3.303 1.239.915.798 1.512 1.9 1.679 3.102l11.311 81.337c.155 1.107.07 2.234-.248 3.305-.318 1.072-.863 2.062-1.597 2.905s-1.64 1.519-2.657 1.982c-1.018.463-2.122.702-3.24.701z" fill="#f2fbff" opacity=".2"/><path d="m251.328 110.47v158.788c-50.184-91.085-172.301-149.536-208.2262-165.19 4.4283-3.698 9.888-5.9433 15.6371-6.4301l40.1707-3.4181c51.1474-4.3459 102.6544 1.1021 151.7604 16.0522z" fill="#f2fbff" opacity=".2"/><path d="m473.275 78.4513c1.014 19.0474-4.611 37.8567-15.914 53.2217-10.414 14.16-20.678 28.432-29.997 43.337l-27.088 43.335c-1.023 1.637-2.445 2.988-4.133 3.925-1.688.938-3.586 1.431-5.517 1.434-1.931.004-3.831-.483-5.522-1.415-1.691-.931-3.118-2.277-4.147-3.911l-30.747-48.805c-8.196-13.008-17.159-25.503-26.283-37.885-7.626-10.395-12.718-22.429-14.868-35.1405-2.151-12.7119-1.302-25.7505 2.48-38.0759s10.392-23.5965 19.302-32.9144c8.911-9.3178 19.875-16.42464 32.019-20.75352 12.144-4.32889 25.132-5.760092 37.927-4.179452 12.796 1.580642 25.045 6.129382 35.77 13.283472 10.726 7.154 19.631 16.7154 26.006 27.9215s10.043 23.7469 10.712 36.6221z" fill="#e11e68"/><path d="m390.634 128.41c25.231 0 45.685-20.454 45.685-45.6855 0-25.2312-20.454-45.6852-45.685-45.6852s-45.685 20.454-45.685 45.6852c0 25.2315 20.454 45.6855 45.685 45.6855z" fill="#f2fbff"/><path d="m457.362 131.662c-10.416 14.16-20.683 28.441-29.995 43.349l-27.084 43.334c-1.025 1.636-2.448 2.985-4.137 3.921-1.688.937-3.586 1.429-5.517 1.432s-3.83-.484-5.522-1.415c-1.691-.931-3.118-2.276-4.149-3.909l-6.642-10.535c1.27.855 2.698 1.446 4.201 1.738 1.502.291 3.048.277 4.545-.042s2.915-.936 4.169-1.814c1.253-.878 2.317-2 3.128-3.298l27.098-43.334c9.311-14.908 19.578-29.189 29.994-43.335 9.411-12.818 14.923-28.0805 15.873-43.9545.951-15.8741-2.7-31.6851-10.515-45.535 12.434 14.1328 19.665 32.0909 20.492 50.8967.828 18.8059-4.796 37.3298-15.941 52.5008z" fill="#43265c" opacity=".302"/><path d="m425.786 53.5426c-8.758-7.2638-19.911-10.9989-31.277-10.4747s-22.128 5.27-30.18 13.3091-12.815 18.7931-13.358 30.1584c-.542 11.3653 3.175 22.5246 10.425 31.2936-4.882-4.065-8.863-9.104-11.688-14.794-2.824-5.6905-4.431-11.9074-4.718-18.2538-.286-6.3465.754-12.6829 3.055-18.6046 2.3-5.9217 5.81-11.2985 10.306-15.787 4.496-4.4886 9.878-7.9902 15.804-10.2812 5.925-2.2909 12.263-3.321 18.609-3.0242 6.346.2967 12.561 1.9136 18.246 4.7475 5.686 2.8339 10.718 6.8225 14.776 11.7109z" fill="#43265c" opacity=".302"/><g fill="#f2fbff" opacity=".2"><path d="m371.193 25.1869c-1.171-.0006-2.303-.4207-3.19-1.1841-.888-.7634-1.472-1.8195-1.648-2.9769s.069-2.3395.69-3.3319 1.577-1.7295 2.695-2.0775c6.765-2.1016 13.81-3.1672 20.895-3.1607 1.284.0216 2.508.5469 3.409 1.4626.9.9156 1.405 2.1485 1.405 3.4327s-.505 2.517-1.405 3.4327c-.901.9157-2.125 1.4409-3.409 1.4625-6.099-.0063-12.164.9105-17.989 2.7192-.471.1465-.961.2212-1.453.2214z"/><path d="m325.261 87.6191c-1.298 0-2.543-.5157-3.461-1.4336s-1.433-2.1629-1.433-3.461c.027-10.9491 2.599-21.742 7.514-31.5263 4.914-9.7843 12.036-18.2922 20.803-24.8516 1.042-.7563 2.34-1.0714 3.613-.8772 1.273.1943 2.419.8823 3.188 1.915s1.101 2.327.923 3.6024c-.179 1.2754-.852 2.4292-1.875 3.2115-7.593 5.6021-13.757 12.9159-17.993 21.3475-4.235 8.4315-6.423 17.7431-6.384 27.1787-.001 1.298-.516 2.5427-1.434 3.4606-.918.9178-2.163 1.4336-3.461 1.434z"/></g></svg>