<svg id="Capa_1" enable-background="new 0 0 512 512" height="512" viewBox="0 0 512 512" width="512" xmlns="http://www.w3.org/2000/svg"><g><g><path d="m355.482 115.688c14.469-35.011 4.212-74.513-16.988-90.094-17.721-13.024-38.37-9.284-38.37-9.284s-15.539-16.31-43.561-16.31c-38.27 0-115.984 19.403-101.197 116.94z" fill="#af665a"/><path d="m168.779 154.775 11.274-11.613 9-13.701-9-13.701c-3.402-1.671-7.227-2.613-11.274-2.613-10.863 0-20.139 6.768-23.859 16.315 0 17.446 12.996 25.313 23.859 25.313z" fill="#ebbaa1"/><path d="m144.92 129.46c-1.123 2.881-1.745 6.012-1.745 9.29 0 14.141 11.464 25.605 25.605 25.605 4.046 0 7.872-.942 11.274-2.614l9-8.569-9-10.012c-3.402 1.671-7.227 2.613-11.274 2.613-10.864.002-20.14-6.766-23.86-16.313z" fill="#e8a990"/><path d="m141.422 313.825c-2.42 5.808-4.65 11.991-6.635 18.581l122.34 9 121.212-9c-1.985-6.59-4.215-12.773-6.635-18.581l-114.577-9z" fill="#deeaf3"/><path d="m371.704 313.825c-27.894-66.949-81.248-83.412-81.248-83.412h-.021c-10.213 5.052-21.707 7.904-33.872 7.904-12.165 0-23.659-2.852-33.872-7.904h-.022s-53.354 16.464-81.247 83.412z" fill="#eef2f5"/><path d="m222.685 230.41-.016.003 16.947 42.949 16.947 9 16.947-9 16.947-42.949-.015-.003c.014.003-67.757 0-67.757 0z" fill="#f68acc"/><path d="m232.228 313.825-3.392 18.581 28.291 9 27.163-9-3.393-18.581-24.334-9z" fill="#f690d2"/><path d="m280.897 313.825-7.387-40.463h-33.894l-7.388 40.463z" fill="#ffa6d4"/><path d="m72.413 502.419h367.174c17.103 0 30.968-9.479 30.968-39.968v-99.078c0-17.103-13.865-30.968-30.968-30.968h-367.174c-17.103 0-30.968 13.865-30.968 30.968v99.078c0 27.14 13.865 39.968 30.968 39.968z" fill="#ffdd91"/><path d="m439.587 493.419h-367.174c-17.103 0-30.968-13.865-30.968-30.968v18.581c0 17.103 13.865 30.968 30.968 30.968h367.174c17.103 0 30.968-13.865 30.968-30.968v-18.581c0 17.104-13.865 30.968-30.968 30.968z" fill="#f9cd80"/><path d="m344.346 154.775-11.274-11.613-9-13.701 9-13.701c3.402-1.671 7.227-2.613 11.274-2.613 10.863 0 20.139 6.768 23.859 16.315.001 17.446-12.996 25.313-23.859 25.313z" fill="#ebbaa1"/><path d="m368.206 129.46c1.123 2.881 1.745 6.012 1.745 9.29 0 14.141-11.464 25.605-25.605 25.605-4.046 0-7.871-.942-11.274-2.614l-9-8.569 9-10.012c3.402 1.671 7.227 2.613 11.274 2.613 10.863.002 20.14-6.766 23.86-16.313z" fill="#e8a990"/><path d="m256.563 228.736c42.256 0 76.51-26.577 76.51-85.51v-27.467c-19.763-8.889-40.948-35.204-48.608-45.341-1.658-2.194-4.769-2.632-6.971-.986-13.466 10.068-58.53 41.79-97.442 46.327v27.467c.001 55.017 34.255 85.51 76.511 85.51z" fill="#fdd4bb"/><path d="m256.563 219.736c-42.255 0-76.51-34.255-76.51-76.51v18.581c0 42.255 34.255 76.51 76.51 76.51 42.255 0 76.51-34.255 76.51-76.51v-18.581c0 42.256-34.255 76.51-76.51 76.51z" fill="#f7c4a8"/></g><g><path d="m291.086 154.124c4.284 0 7.757-3.473 7.757-7.757v-12.417c0-4.284-3.473-7.757-7.757-7.757s-7.757 3.473-7.757 7.757v12.416c0 4.285 3.473 7.758 7.757 7.758z" fill="#565e74"/><path d="m223.167 154.124c4.284 0 7.757-3.473 7.757-7.757v-12.417c0-4.284-3.473-7.757-7.757-7.757s-7.757 3.473-7.757 7.757v12.416c0 4.285 3.473 7.758 7.757 7.758z" fill="#565e74"/><g fill="#f95750"><path d="m230.128 186.878c2.389 5.713 10.72 15.281 26.999 15.281s24.609-9.568 26.999-15.281c.444-.978.698-2.061.698-3.206 0-4.291-3.479-7.771-7.77-7.771-3.238 0-6.017 1.978-7.185 4.793 0-.001 0 0 0-.001-.292.606-3.129 5.92-12.742 5.92s-12.45-5.314-12.742-5.92c0 .001.001 0 0 .001-1.168-2.816-3.947-4.793-7.184-4.793-4.292 0-7.771 3.479-7.771 7.771 0 1.145.254 2.228.698 3.206z"/><path d="m111.673 474.072c4.284 0 7.757-3.473 7.757-7.757v-85.559c0-4.284-3.473-7.757-7.757-7.757h-18.288c-4.284 0-7.757 3.473-7.757 7.757s3.473 7.757 7.757 7.757h10.531v77.802c0 4.284 3.473 7.757 7.757 7.757z"/><path d="m135.109 441.573c0 17.92 14.579 32.499 32.498 32.499 17.92 0 32.499-14.579 32.499-32.499 0-10.595-5.098-20.021-12.969-25.957 3.899-4.52 6.265-10.398 6.265-16.822 0-14.223-11.572-25.795-25.795-25.795s-25.795 11.572-25.795 25.795c0 6.424 2.366 12.302 6.265 16.822-7.87 5.936-12.968 15.361-12.968 25.957zm32.498 16.984c-9.365 0-16.984-7.619-16.984-16.985s7.619-16.985 16.984-16.985c9.366 0 16.985 7.619 16.985 16.985s-7.619 16.985-16.985 16.985zm-10.281-59.764c0-5.669 4.612-10.281 10.281-10.281s10.281 4.612 10.281 10.281-4.612 10.281-10.281 10.281-10.281-4.612-10.281-10.281z"/><path d="m393.575 473.725c.23 0 .463-.003.693-.007 17.691-.357 32.266-14.467 33.182-32.124.488-9.401-2.806-18.332-9.276-25.147-6.379-6.719-15.346-10.572-24.602-10.572-3.107 0-5.746.173-8.101.504l3.236-19.531h25.569c4.284 0 7.757-3.473 7.757-7.757s-3.473-7.757-7.757-7.757h-32.146c-3.795 0-7.033 2.745-7.653 6.49l-6.368 38.438c-.478 2.887.721 5.79 3.082 7.519 2.36 1.729 5.506 1.976 8.114.649.068-.034.33-.164.75-.353 3.605-1.623 6.494-2.686 13.518-2.686 5.095 0 9.837 2.039 13.351 5.74 3.512 3.699 5.3 8.55 5.035 13.661-.497 9.573-8.404 17.224-18.001 17.417-9.356.191-17.331-6.617-18.617-15.828-.118-.849-.178-1.717-.178-2.579 0-4.284-3.473-7.757-7.757-7.757s-7.757 3.473-7.757 7.757c0 1.576.11 3.164.327 4.722 2.337 16.76 16.716 29.202 33.599 29.201z"/><path d="m344.038 400.635c0-16.349-13.301-29.65-29.65-29.65-14.137 0-26.372 10.056-29.094 23.911-.826 4.204 1.913 8.281 6.116 9.107 4.203.823 8.281-1.913 9.107-6.116 1.296-6.598 7.129-11.388 13.87-11.388 7.794 0 14.136 6.342 14.136 14.136s-6.341 14.136-14.136 14.136c-4.284 0-7.757 3.473-7.757 7.757s3.473 7.757 7.757 7.757c7.794 0 14.136 6.342 14.136 14.136s-6.341 14.136-14.136 14.136c-7.014 0-13.032-5.225-13.999-12.156-.09-.648-.136-1.315-.136-1.98 0-4.284-3.473-7.757-7.757-7.757s-7.757 3.473-7.757 7.757c0 1.381.096 2.769.285 4.125 2.031 14.552 14.655 25.525 29.364 25.525 16.349 0 29.65-13.301 29.65-29.65 0-8.662-3.735-16.467-9.677-21.893 5.943-5.425 9.678-13.231 9.678-21.893z"/><path d="m229.294 414.771c-4.284 0-7.757 3.473-7.757 7.757s3.473 7.757 7.757 7.757h25.013c4.284 0 7.757-3.473 7.757-7.757s-3.473-7.757-7.757-7.757z"/></g></g></g></svg>