<svg id="Capa_1" enable-background="new 0 0 511.999 511.999" height="512" viewBox="0 0 511.999 511.999" width="512" xmlns="http://www.w3.org/2000/svg"><g><path d="m449.203 350.994h-12.218v-69.145-55.95-93.482c0-73.132-59.285-132.417-132.416-132.417h-97.139c-73.131 0-132.416 59.285-132.416 132.416v93.482 55.95 69.145h-12.218c-23.014 0-41.67 18.656-41.67 41.67 0 23.014 18.656 41.67 41.67 41.67h130.504 125.399 130.504c23.014 0 41.67-18.656 41.67-41.67.001-23.013-18.656-41.669-41.67-41.669z" fill="#544f57"/><path d="m173.448 281.851 118.287 152.489h-228.934c-11.509 0-21.921-4.664-29.471-12.202-7.538-7.549-12.202-17.962-12.202-29.471 0-23.006 18.656-41.673 41.673-41.673h12.213v-218.578c0-73.124 59.289-132.412 132.423-132.412h97.137c.213 0 .436 0 .649.011-72.833.336-131.775 59.49-131.775 132.401z" fill="#454045"/><path d="m390.339 511.999h-268.672l6.554-31.92c5.391-26.283 25.87-46.259 51.281-51.638 4.463-.951 9.082-1.443 13.802-1.443h125.4c4.709 0 9.328.492 13.79 1.443 25.411 5.38 45.901 25.355 51.292 51.638z" fill="#80b4fb"/><path d="m218.753 426.997c-2.796 0-5.536.492-8.187 1.443-15.099 5.38-27.256 25.355-30.466 51.638l-3.892 31.92h-54.546l6.554-31.92c5.391-26.283 25.87-46.259 51.281-51.638 4.463-.951 9.082-1.443 13.802-1.443z" fill="#5490f9"/><path d="m293.168 364.924v62.073c0 20.523-16.642 37.166-37.166 37.166-20.535 0-37.177-16.642-37.177-37.166v-62.073z" fill="#ffcbbe"/><path d="m268.14 462.137c-3.803 1.309-7.885 2.024-12.135 2.024-20.535 0-37.177-16.642-37.177-37.166v-62.073h24.27v62.073c.001 16.285 10.469 30.12 25.042 35.142z" fill="#eaac9d"/><path d="m100.721 313.237c-26.799 0-48.525-21.725-48.525-48.525 0-3.688.412-7.281 1.191-10.733 6.295-27.879 47.333-23.307 47.333 5.274h310.557c0-28.581 41.038-33.153 47.333-5.274.78 3.453 1.191 7.045 1.191 10.733 0 26.799-21.725 48.525-48.525 48.525" fill="#eaac9d"/><path d="m100.728 282.347c-2.43 0-4.819-1.142-6.323-3.276-.188-.262-8.049-10.989-16.5-7.582-3.957 1.598-8.459-.317-10.055-4.274-1.597-3.957.317-8.46 4.275-10.056 15.91-6.421 29.445 5.177 34.933 13.039 2.442 3.499 1.586 8.315-1.913 10.758-1.349.939-2.891 1.391-4.417 1.391z" fill="#df9380"/><path d="m411.272 282.323c-1.538 0-3.089-.457-4.438-1.409-3.473-2.452-4.325-7.23-1.892-10.716 5.488-7.863 19.02-19.463 34.933-13.039 3.958 1.596 5.871 6.099 4.275 10.056-1.597 3.956-6.1 5.872-10.055 4.274-8.515-3.432-16.424 7.476-16.503 7.587-1.512 2.114-3.899 3.247-6.32 3.247z" fill="#df9380"/><path d="m218.826 364.924h74.343v57.186h-74.343z" fill="#eaac9d"/><path d="m411.27 203.969v85.292c0 62.499-50.665 113.175-113.175 113.175h-84.208c-62.499 0-113.175-50.665-113.175-113.175v-84.319c19.271-.559 45.789-3.847 74.354-9.652 58.539-11.9 125.735-34.392 156.996-65.652 0-.001 30.925 63.191 79.208 74.331z" fill="#ffcbbe"/><path d="m288.242 402.437h-74.354c-62.499 0-113.175-50.665-113.175-113.175v-84.319c19.271-.559 45.789-3.847 74.354-9.652v93.971c0 62.498 50.665 113.175 113.175 113.175z" fill="#eaac9d"/><g fill="#e490b7"><ellipse cx="347.466" cy="297.304" rx="25.418" ry="15.456"/><ellipse cx="164.533" cy="297.304" rx="25.418" ry="15.456"/></g><path d="m271.12 279.339h-30.241c-4.268 0-7.726-3.459-7.726-7.726s3.459-7.726 7.726-7.726h30.241c4.268 0 7.726 3.459 7.726 7.726s-3.458 7.726-7.726 7.726z" fill="#eaac9d"/><circle cx="324.452" cy="246.252" fill="#fff" r="31.242"/><path d="m218.775 246.246c0 11.128-5.816 20.892-14.573 26.417h-33.342c-8.757-5.525-14.573-15.289-14.573-26.417 0-17.247 13.992-31.238 31.238-31.238 17.258 0 31.25 13.992 31.25 31.238z" fill="#fff"/><path d="m321.266 346.581c-2.014 0-4.025-.782-5.539-2.34l-16.218-16.674-16.218 16.674c-1.455 1.496-3.452 2.34-5.538 2.34-2.087 0-4.084-.844-5.538-2.34l-16.218-16.674-16.218 16.674c-1.454 1.496-3.452 2.34-5.538 2.34s-4.083-.844-5.538-2.339l-16.222-16.676-16.222 16.676c-2.975 3.058-7.866 3.126-10.926.151-3.059-2.975-3.127-7.867-.151-10.926l21.761-22.369c1.455-1.495 3.452-2.339 5.538-2.339s4.083.844 5.538 2.339l16.221 16.675 16.219-16.675c1.455-1.496 3.452-2.34 5.538-2.34 2.087 0 4.083.844 5.538 2.34l16.218 16.674 16.217-16.672c1.455-1.496 3.452-2.34 5.538-2.34s4.083.844 5.538 2.34l21.757 22.369c2.976 3.059 2.907 7.95-.151 10.926-1.502 1.459-3.445 2.186-5.386 2.186z" fill="#dd636e"/><path d="m369.966 94.451c-1.942 0-3.884-.727-5.386-2.188-3.059-2.975-3.127-7.867-.151-10.926l21.761-22.369c1.455-1.495 3.453-2.339 5.538-2.339 2.087 0 4.083.844 5.538 2.339l16.221 16.675 16.219-16.675c1.455-1.495 3.452-2.339 5.538-2.339 2.087 0 4.083.844 5.538 2.34l16.218 16.674 16.218-16.674c2.975-3.059 7.866-3.127 10.926-.152 3.058 2.975 3.127 7.867.151 10.926l-21.755 22.368c-1.455 1.496-3.452 2.34-5.538 2.34s-4.083-.844-5.538-2.34l-16.218-16.674-16.219 16.675c-1.455 1.495-3.452 2.339-5.538 2.339-2.087 0-4.083-.844-5.538-2.339l-16.221-16.676-16.222 16.676c-1.517 1.556-3.529 2.339-5.542 2.339z" fill="#f4dd45"/><path d="m457.001 131.601c-2.087 0-4.083-.844-5.538-2.34l-16.218-16.674-16.219 16.675c-1.455 1.495-3.452 2.339-5.538 2.339-2.087 0-4.083-.844-5.538-2.339l-16.221-16.676-16.222 16.676c-2.975 3.058-7.866 3.126-10.926.151-3.059-2.975-3.127-7.867-.151-10.926l21.761-22.369c1.455-1.495 3.453-2.339 5.538-2.339 2.087 0 4.083.844 5.538 2.339l16.221 16.675 16.219-16.675c1.455-1.495 3.452-2.339 5.538-2.339 2.087 0 4.083.844 5.538 2.34l16.218 16.674 16.218-16.674c2.975-3.059 7.866-3.127 10.926-.152 3.058 2.975 3.127 7.867.151 10.926l-21.757 22.369c-1.454 1.496-3.451 2.339-5.538 2.339z" fill="#f4dd45"/><g fill="#454045"><path d="m324.452 260.115c-4.268 0-7.726-3.459-7.726-7.726v-12.274c0-4.267 3.459-7.726 7.726-7.726s7.726 3.459 7.726 7.726v12.274c.001 4.266-3.458 7.726-7.726 7.726z"/><path d="m187.531 260.115c-4.268 0-7.726-3.459-7.726-7.726v-12.274c0-4.267 3.459-7.726 7.726-7.726s7.726 3.459 7.726 7.726v12.274c0 4.266-3.459 7.726-7.726 7.726z"/></g></g></svg>