<svg id="Layer_1" height="512" viewBox="0 0 512 512" width="512" xmlns="http://www.w3.org/2000/svg"><g><g><g><circle cx="360" cy="360" fill="#555a6e" r="136"/></g><g><path d="m445.327 388.589c-3.093-2.19-7.301-1.905-10.074.677-7.43 6.922-17.108 10.734-27.253 10.734-22.056 0-40-17.944-40-40s17.944-40 40-40c10.145 0 19.823 3.813 27.253 10.734 2.772 2.585 6.981 2.867 10.074.677 3.095-2.189 4.228-6.251 2.713-9.727-15.27-35.041-49.828-57.684-88.04-57.684-52.935 0-96 43.065-96 96s43.065 96 96 96c38.212 0 72.77-22.643 88.04-57.685 1.515-3.475.382-7.537-2.713-9.726z" fill="#a5c3dc"/><g><path d="m272 368c-4.418 0-8-3.582-8-8 0-52.935 43.065-96 96-96 4.418 0 8 3.582 8 8s-3.582 8-8 8c-44.112 0-80 35.888-80 80 0 4.418-3.582 8-8 8z" fill="#d7e6f0"/></g><g><circle cx="348" cy="316" fill="#d7e6f0" r="12"/></g><g><circle cx="312" cy="392" fill="#d7e6f0" r="16"/></g><g><circle cx="352" cy="416" fill="#d7e6f0" r="8"/></g></g></g><path d="m390.782 153.877c-2.476-5.979-8.31-9.877-14.782-9.877h-16v-48c0-44.112-35.888-80-80-80h-64c-44.112 0-80 35.888-80 80v8c0 8.837 7.163 16 16 16s16-7.163 16-16v-8c0-26.468 21.532-48 48-48h64c26.468 0 48 21.532 48 48v48h-16c-6.472 0-12.306 3.898-14.782 9.877s-1.107 12.86 3.469 17.437l32 32c3.124 3.124 7.218 4.686 11.313 4.686s8.189-1.563 11.313-4.687l32-32c4.577-4.576 5.946-11.458 3.469-17.436z" fill="#4182c3"/><g><path d="m152 184c-8.837 0-16-7.163-16-16v-16c0-8.837 7.163-16 16-16s16 7.163 16 16v16c0 8.837-7.163 16-16 16z" fill="#4182c3"/></g><g><path d="m315.078 332.687-35.147-35.148v-49.704c0-8.837-7.163-16-16-16h-49.704l-35.148-35.147c-6.248-6.248-16.379-6.248-22.627 0l-35.148 35.147h-49.705c-8.837 0-16 7.163-16 16v49.704l-35.147 35.148c-6.249 6.248-6.249 16.379 0 22.627l35.147 35.148v49.704c0 8.837 7.163 16 16 16h49.705l35.147 35.147c3 3.001 7.07 4.687 11.313 4.687s8.313-1.686 11.313-4.687l35.147-35.147h49.705c8.837 0 16-7.163 16-16v-49.704l35.147-35.148c6.251-6.249 6.251-16.379.002-22.627z" fill="#faa019"/><g><circle cx="167.765" cy="344.235" fill="#f06423" r="96"/></g><g><path d="m167.765 264.235c-44.183 0-80 35.817-80 80h64c8.837 0 16-7.163 16-16z" fill="#faa019"/></g></g></g></svg>