<svg id="Capa_1" enable-background="new 0 0 512 512" height="512" viewBox="0 0 512 512" width="512" xmlns="http://www.w3.org/2000/svg"><g><g><g fill="#7fe881"><path d="m206.176 398.976c-22.654-9.996-42.505-25.215-58.007-44.133-2.686-3.278-7.356-4.115-11.027-1.996l-60.772 35.087c-4.514 2.606-5.707 8.558-2.597 12.74 7.08 9.521 14.899 18.593 23.441 27.135 24.349 24.349 52.961 42.881 84.147 54.924 4.814 1.859 10.181-.869 11.517-5.854l18.15-67.737c1.105-4.122-.948-8.443-4.852-10.166z"/><path d="m294.444 417.748c-1.098-4.098-5-6.823-9.22-6.385-5.326.552-10.731.837-16.2.837-5.13 0-10.2-.254-15.203-.744-4.211-.412-8.093 2.301-9.188 6.388l-18.149 67.733c-1.35 5.039 2.021 10.096 7.183 10.847 11.608 1.687 23.415 2.554 35.357 2.554 12.322 0 24.502-.92 36.466-2.714 5.121-.768 8.429-5.833 7.089-10.834z"/><path d="m371.84 383.329c-3.004-3.004-7.754-3.409-11.191-.911-8.676 6.308-18.021 11.748-27.91 16.185-3.864 1.734-5.869 6.042-4.773 10.132l18.159 67.77c1.339 4.996 6.727 7.729 11.544 5.843 22.597-8.845 43.822-21.114 63.042-36.533 4.032-3.234 4.359-9.258.704-12.913z"/><path d="m489.502 333.201-67.799-18.167c-4.089-1.096-8.395.909-10.131 4.77-4.423 9.841-9.834 19.146-16.108 27.785-2.496 3.437-2.091 8.185.912 11.188l49.592 49.591c3.655 3.655 9.68 3.327 12.914-.705 15.385-19.183 27.626-40.369 36.462-62.917 1.888-4.815-.844-10.206-5.842-11.545z"/><path d="m440.834 84.191c-45.892-45.893-106.909-71.166-171.809-71.166-64.901 0-125.918 25.274-171.81 71.166-36.709 36.708-60.21 83.097-68.149 133.408-.335 2.119-2.14 3.691-4.286 3.691h-16.087c-7.151 0-11.233 8.164-6.942 13.884l54.518 72.691c6.721 8.962 20.046 9.303 27.217.697l60.867-73.04c4.71-5.652.691-14.233-6.666-14.233h-15.409c-2.843 0-4.936-2.693-4.205-5.44 17.929-67.353 79.834-116.961 152.964-116.035 82.755 1.048 150.853 67.318 154.065 150.017.296 7.613.041 15.111-.725 22.46-.44 4.225 2.28 8.134 6.383 9.234l67.674 18.133c5.001 1.34 10.064-1.967 10.834-7.086 1.806-11.997 2.732-24.213 2.732-36.572 0-64.901-25.273-125.918-71.166-171.809z"/></g><g><path d="m489.502 333.201-20.616-5.524c4.795 1.478 7.377 6.731 5.53 11.445-8.693 22.182-20.687 43.039-35.721 61.974l7.273 7.273c3.655 3.655 9.68 3.328 12.914-.705 15.385-19.183 27.626-40.369 36.462-62.917 1.888-4.816-.844-10.207-5.842-11.546z" fill="#5bc980"/></g><g><g><path d="m440.834 84.191c-45.892-45.893-106.909-71.166-171.81-71.166-3.965 0-7.914.097-11.847.285 60.451 2.883 116.874 27.792 159.962 70.881 45.893 45.892 71.166 106.909 71.166 171.809 0 12.359-.926 24.574-2.731 36.572-.184 1.221-.617 2.334-1.23 3.31l14.09 3.776c5.001 1.34 10.064-1.967 10.834-7.086 1.806-11.997 2.732-24.213 2.732-36.572 0-64.901-25.274-125.918-71.166-171.809z" fill="#5bc980"/></g></g></g></g></svg>