<svg id="Layer_1" enable-background="new 0 0 510 510" height="512" viewBox="0 0 510 510" width="512" xmlns="http://www.w3.org/2000/svg"><g><g><g><g><path d="m255 0c-98.131 0-158.58 55.352-158.747 55.445 0 0-2.513 3.137-2.983 5.222-3.818 16.948-7.385 39.663-7.385 56.238 0 140.833 118.763 254.972 259.596 254.972l161.531-77.609c1.479-9.643 2.988-23.332 2.988-39.268 0-140.833-114.167-255-255-255z" fill="#99e6fc"/></g></g><g><g><path d="m90.459 109.679c0-18.615 2.007-36.753 5.795-54.234-58.645 46.72-96.254 118.747-96.254 199.555 0 6.9.274 13.736.812 20.497l10.513 12.323-6.443 17.085c.979 4.936 2.101 9.821 3.361 14.65l5.724 5.187-1.774 8.39c7.38 22.953 17.924 44.486 31.119 64.088l302.147-32.54c-140.833-.001-255-114.168-255-255.001z" fill="#8ac9fe"/></g></g></g><g><g><g><g><path d="m411.498 273.134-111.368 24.718c-27.667 6.141-47.354 30.677-47.354 59.016l153.632 103.307c48.76-36.011 84.39-89.076 97.791-150.937.086-.524 1.435-6.003 2.811-14.969z" fill="#2577f8"/></g></g><g><g><g><path d="m412.13 345.995c27.757 0 50.259-22.502 50.259-50.259v-11.341l-50.891-11.261-49.628 11.015v11.587c.001 27.757 22.503 50.259 50.26 50.259z" fill="#2696ff"/></g></g><g><g><g><g><path d="m412.13 322.577c-15.404 0-27.892-12.488-27.892-27.892v-62.473h55.784v62.473c0 15.405-12.488 27.892-27.892 27.892z" fill="#f6a96c"/></g></g></g></g><g><g><path d="m384.238 240.702h55.784v41.715c-14.723 16.071-34.534 20.094-55.784 15.647z" fill="#ea9b58"/></g></g><g><g><path d="m478.315 72.595-119.785.306v160.949c0 29.365 23.618 53.396 52.982 53.618.206.002.412.002.618.002 43.733 0 79.186-35.453 79.186-79.186v-24.999-1.195z" fill="#ffbd86"/></g></g><g><g><g><g><path d="m491.316 197.681v-47.067c10.254 0 18.566 8.312 18.566 18.566v9.935c0 10.254-8.312 18.566-18.566 18.566z" fill="#f6a96c"/></g></g></g></g><g><g><g><g><path d="m491.316 182.089v-15.884c3.46 0 6.266 2.805 6.266 6.266v3.353c0 3.46-2.806 6.265-6.266 6.265z" fill="#ea9b58"/></g></g></g></g><g><g><g><g><path d="m313.594 179.115c0 10.254 8.312 18.566 18.566 18.566v-47.067c-10.254 0-18.566 8.312-18.566 18.566z" fill="#f6a96c"/></g></g></g></g><g><g><g><g><path d="m326.06 175.779c0 3.369 2.731 6.1 6.1 6.1v-15.464c-3.369 0-6.1 2.731-6.1 6.1z" fill="#ea9b58"/></g></g></g></g><g><g><g><g><path d="m377.916 178.693v5.584c0 3.642 2.953 6.595 6.595 6.595s6.595-2.953 6.595-6.595v-5.584z" fill="#f6a96c"/></g></g></g></g><g><g><g><g><path d="m431.654 178.693v5.584c0 3.642 2.953 6.595 6.595 6.595s6.595-2.953 6.595-6.595v-5.584z" fill="#f6a96c"/></g></g></g></g><g><g><g><path d="m358.795 210.552c.198-4.499 0-48.098 0-64.659v-49.141h-24.89v44.344l-1.745 42.189v24.215c0 45.705 38.295 82.289 84.262 79.854-33.292-9.668-57.627-40.391-57.627-76.802z" fill="#f6a96c"/></g></g></g><g><g><g><g><path d="m384.511 185.59c-3.642 0-6.595-2.953-6.595-6.595v-8.484l2.431-3.682-2.431-3.682v-2.191c0-3.642 2.953-6.595 6.595-6.595s6.595 2.953 6.595 6.595v18.038c.001 3.643-2.952 6.596-6.595 6.596z" fill="#373c41"/></g></g></g></g><g><g><g><g><path d="m438.249 185.59c-3.642 0-6.595-2.953-6.595-6.595v-8.484l2.431-3.682-2.431-3.682v-2.191c0-3.642 2.953-6.595 6.595-6.595s6.595 2.953 6.595 6.595v18.038c.001 3.643-2.952 6.596-6.595 6.596z" fill="#373c41"/></g></g></g></g><g><g><g><g><g><path d="m399.796 144.468c0 3.642-2.953 6.595-6.595 6.595h-19.234c-3.642 0-6.595-2.953-6.595-6.595 0-3.642 2.953-6.595 6.595-6.595h19.233c3.643 0 6.596 2.953 6.596 6.595z" fill="#fff"/></g></g></g></g></g><g><g><g><g><g><path d="m448.161 151.064h-19.234c-3.642 0-6.595-2.953-6.595-6.595 0-3.642 2.953-6.595 6.595-6.595h19.234c3.642 0 6.595 2.953 6.595 6.595 0 3.642-2.953 6.595-6.595 6.595z" fill="#fff"/></g></g></g></g></g><g><g><path d="m436.414 222.076h-48.569c-2.015 0-3.626 1.759-3.357 3.756.514 3.821 1.802 7.397 3.701 10.564l36.214 10.732c8.179-4.015 14.104-11.916 15.367-21.296.27-1.997-1.34-3.756-3.356-3.756z" fill="#de0c1e"/></g></g><g><g><g><g><path d="m401.444 194.952c-1.64 6.547 1.34 13.679 7.038 15.828 1.147.433 2.373.667 3.648.667s2.501-.234 3.648-.667c5.698-2.15 8.678-9.281 7.038-15.828l-5.435-21.704c-1.368-5.464-9.134-5.464-10.502 0z" fill="#f6a96c"/></g></g></g></g><g><g><path d="m380.347 172.942c-1.343 0-2.431-1.089-2.431-2.431v-7.363c0-1.343 1.089-2.431 2.431-2.431 1.343 0 2.431 1.089 2.431 2.431v7.363c.001 1.342-1.088 2.431-2.431 2.431z" fill="#fff"/></g></g><g><g><path d="m434.085 172.942c-1.343 0-2.431-1.089-2.431-2.431v-7.363c0-1.343 1.089-2.431 2.431-2.431 1.343 0 2.431 1.089 2.431 2.431v7.363c.001 1.342-1.088 2.431-2.431 2.431z" fill="#fff"/></g></g></g><g><g><path d="m388.193 236.395c4.874 8.13 13.768 13.573 23.937 13.573 4.405 0 8.569-1.025 12.273-2.843-1.592-9.988-10.243-17.623-20.68-17.623-6.16.001-11.697 2.66-15.53 6.893z" fill="#ff3939"/></g></g><g><g><g><g><path d="m491.318 97.695v44.352.002 40.024c-5.858 0-10.607-4.749-10.607-10.607v-46.834c0-10.345-5.821-19.879-15.124-24.404-.228-.111-.456-.219-.683-.325v-2.209h26.414z" fill="#fff"/></g></g></g><g><g><g><path d="m332.16 108.555v33.492.002 40.024c5.733 0 10.381-4.749 10.381-10.607v-46.834c0-.062 0-.124.001-.186.05-7.521 5.041-13.812 11.773-15.892h-22.155z" fill="#fff"/></g></g></g><g><g><path d="m368.905 51.885h-12.349c-13.474 0-24.396 10.923-24.396 24.396v65.765c20.294 0 36.745-16.451 36.745-36.745z" fill="#fff"/></g></g></g></g><g><g><path d="m383.583 126.143h54.666v5.659h-54.666z" fill="#f6a96c"/></g></g><g><g><path d="m383.583 113.683h54.666v5.659h-54.666z" fill="#f6a96c"/></g></g><g><g><path d="m500.599 105.398h-136.89v-42.616c0-12.634 10.242-22.876 22.876-22.876h48.521c36.171-.001 65.493 29.321 65.493 65.492z" fill="#fff"/></g></g><g><g><path d="m376.178 211.552c-14.316 0-25.963-11.646-25.963-25.962s11.647-25.963 25.963-25.963 25.962 11.647 25.962 25.963-11.646 25.962-25.962 25.962zm0-46.266c-11.195 0-20.304 9.108-20.304 20.304s9.108 20.303 20.304 20.303 20.303-9.108 20.303-20.303-9.108-20.304-20.303-20.304z" fill="#fff"/></g></g><g><g><path d="m447.964 211.552c-14.316 0-25.962-11.646-25.962-25.962s11.646-25.963 25.962-25.963 25.962 11.647 25.962 25.963-11.646 25.962-25.962 25.962zm0-46.266c-11.195 0-20.303 9.108-20.303 20.304s9.108 20.303 20.303 20.303 20.303-9.108 20.303-20.303-9.107-20.304-20.303-20.304z" fill="#fff"/></g></g><g><g><path d="m399.311 182.76h25.521v5.659h-25.521z" fill="#fff"/></g></g></g><g><g><g><path d="m359.687 340.103-111.81-24.742-111.369 24.719c-27.667 6.141-47.354 30.677-47.354 59.016l122.029 107.152c14.236 2.467 28.876 3.752 43.817 3.752 56.727 0 109.459-18.627 152.078-50.319v-60.553c0-28.355-19.707-52.899-47.391-59.025z" fill="#fe0364"/></g></g><g><g><path d="m248.116 292.916c-33.361 0-60.405 27.044-60.405 60.405 0 22.205 11.989 41.599 29.84 52.095l30.917-30.917 30.66 30.66c17.605-10.555 29.392-29.817 29.392-51.838.001-33.361-27.043-60.405-60.404-60.405z" fill="#fff"/></g></g><g><g><g><g><g><path d="m248.508 373.294c-15.404 0-27.892-12.488-27.892-27.892v-62.473h55.784v62.473c0 15.405-12.487 27.892-27.892 27.892z" fill="#f6a96c"/></g></g></g></g><g><g><path d="m220.616 282.929h55.784v41.715c-14.723 16.071-34.534 20.094-55.784 15.647z" fill="#ea9b58"/></g></g><g><g><g><g><path d="m324.173 185.068c0-25.454-16.329-48.73-41.783-48.73h-67.763c-7.263 0-13.915 1.901-19.719 5.201v134.537c0 29.365 23.618 53.396 52.982 53.618.206.002.412.002.618.002 43.733 0 79.186-35.453 79.186-79.186v-24.999z" fill="#ffbd86"/></g></g></g></g><g><g><g><g><path d="m327.694 239.909v-47.067c10.254 0 18.566 8.312 18.566 18.566v9.935c.001 10.253-8.312 18.566-18.566 18.566z" fill="#f6a96c"/></g></g></g></g><g><g><g><g><path d="m327.694 224.317v-15.884c3.46 0 6.266 2.805 6.266 6.266v3.353c0 3.46-2.805 6.265-6.266 6.265z" fill="#ea9b58"/></g></g></g></g><g><g><g><g><path d="m149.972 221.342c0 10.254 8.312 18.566 18.566 18.566v-47.067c-10.254 0-18.566 8.312-18.566 18.566z" fill="#f6a96c"/></g></g></g></g><g><g><g><g><path d="m162.438 218.007c0 3.369 2.731 6.1 6.1 6.1v-15.464c-3.369 0-6.1 2.731-6.1 6.1z" fill="#ea9b58"/></g></g></g></g><g><g><g><g><path d="m214.295 220.92v5.584c0 3.642 2.953 6.595 6.595 6.595s6.595-2.953 6.595-6.595v-5.584z" fill="#f6a96c"/></g></g></g></g><g><g><g><g><path d="m268.033 220.92v5.584c0 3.642 2.953 6.595 6.595 6.595s6.595-2.953 6.595-6.595v-5.584z" fill="#f6a96c"/></g></g></g></g><g><g><g><path d="m252.8 329.582c-33.292-9.668-57.627-40.391-57.627-76.802.198-4.499 0-48.098 0-64.659 0-25.454 20.634-46.088 46.088-46.088h57.519c-5.06-1.965-10.576-3.052-16.391-3.052h-67.763c-25.454 0-44.344 18.89-44.344 44.344l-1.745 42.189v24.216c.002 45.702 38.296 82.287 84.263 79.852z" fill="#f6a96c"/></g></g></g><g><g><g><g><path d="m220.89 227.817c-3.642 0-6.595-2.953-6.595-6.595v-8.484l2.431-3.682-2.431-3.682v-2.191c0-3.642 2.953-6.595 6.595-6.595s6.595 2.953 6.595 6.595v18.038c0 3.643-2.953 6.596-6.595 6.596z" fill="#373c41"/></g></g></g></g><g><g><g><g><path d="m274.628 227.817c-3.642 0-6.595-2.953-6.595-6.595v-8.484l2.431-3.682-2.431-3.682v-2.191c0-3.642 2.953-6.595 6.595-6.595s6.595 2.953 6.595 6.595v18.038c0 3.643-2.953 6.596-6.595 6.596z" fill="#373c41"/></g></g></g></g><g><g><g><g><g><path d="m229.579 193.291h-19.234c-3.642 0-6.595-2.953-6.595-6.595 0-3.642 2.953-6.595 6.595-6.595h19.234c3.642 0 6.595 2.953 6.595 6.595 0 3.642-2.953 6.595-6.595 6.595z" fill="#883f2e"/></g></g></g></g></g><g><g><g><g><g><path d="m284.539 193.291h-19.234c-3.642 0-6.595-2.953-6.595-6.595 0-3.642 2.953-6.595 6.595-6.595h19.234c3.642 0 6.595 2.953 6.595 6.595.001 3.642-2.952 6.595-6.595 6.595z" fill="#883f2e"/></g></g></g></g></g><g><g><path d="m272.793 264.304h-6.791l-17.885 3.713-17.885-3.713h-6.007c-2.015 0-3.626 1.759-3.357 3.756.514 3.821 1.802 7.397 3.701 10.564l36.214 10.732c8.179-4.015 14.104-11.917 15.366-21.296.269-1.997-1.341-3.756-3.356-3.756z" fill="#de0c1e"/></g></g><g><g><g><g><path d="m237.822 237.18c-1.64 6.547 1.34 13.679 7.038 15.828 1.147.433 2.373.667 3.648.667s2.501-.234 3.648-.667c5.698-2.15 8.678-9.281 7.038-15.828l-5.435-21.704c-1.368-5.464-9.134-5.464-10.502 0z" fill="#f6a96c"/></g></g></g></g><g><g><path d="m216.726 215.169c-1.343 0-2.431-1.089-2.431-2.431v-7.363c0-1.343 1.089-2.431 2.431-2.431 1.343 0 2.431 1.089 2.431 2.431v7.363c0 1.343-1.088 2.431-2.431 2.431z" fill="#fff"/></g></g><g><g><path d="m270.464 215.169c-1.343 0-2.431-1.089-2.431-2.431v-7.363c0-1.343 1.089-2.431 2.431-2.431 1.343 0 2.431 1.089 2.431 2.431v7.363c0 1.343-1.088 2.431-2.431 2.431z" fill="#fff"/></g></g></g><g><g><path d="m224.572 278.622c4.874 8.13 13.768 13.573 23.937 13.573 4.405 0 8.569-1.025 12.273-2.843-1.592-9.988-10.243-17.623-20.68-17.623-6.16.001-11.698 2.661-15.53 6.893z" fill="#ff3939"/></g></g><g><g><path d="m262.067 271.73h-27.901c-2.173 0-3.934-1.762-3.934-3.935v-3.492h35.77v3.492c0 2.173-1.762 3.935-3.935 3.935z" fill="#fff"/></g></g><g><g><g><g><path d="m327.697 139.922v44.352.002 40.024c-5.858 0-10.607-4.749-10.607-10.607v-46.833c0-10.345-5.821-19.879-15.124-24.404-.228-.111-.456-.219-.683-.325v-2.209z" fill="#6d3222"/></g></g></g><g><g><g><path d="m168.539 150.782v33.492.002 40.024c5.858 0 10.607-4.749 10.607-10.607v-46.833c0-.062 0-.124.001-.186.051-7.521 5.15-13.812 12.028-15.892z" fill="#6d3222"/></g></g></g><g><g><path d="m205.283 94.112h-12.349c-13.474 0-24.396 10.923-24.396 24.396v65.765c20.294 0 36.745-16.451 36.745-36.745z" fill="#6d3222"/></g></g><g><g><ellipse cx="184.848" cy="97.901" fill="#6d3222" rx="7.077" ry="17.053" transform="matrix(.55 -.835 .835 .55 1.404 198.408)"/></g></g><g><g><ellipse cx="196.362" cy="92.115" fill="#883f2e" rx="7.077" ry="17.053" transform="matrix(.998 -.061 .061 .998 -5.286 12.233)"/></g></g><g><g><path d="m342.493 168.463h-85.777c-36.198 0-65.542-29.344-65.542-65.542 0-12.725 10.316-23.041 23.041-23.041h62.736c36.198 0 65.542 29.344 65.542 65.542z" fill="#883f2e"/></g></g></g></g><g><g><g><path d="m185.641 284.912c0-8.469-4.203-15.952-10.631-20.492 2.072-3.208 3.287-7.02 3.287-11.122 0-11.281-9.094-20.43-20.35-20.536.555-1.615.871-3.342.871-5.146 0-8.751-7.094-15.846-15.846-15.846-2.87 0-5.553.774-7.875 2.108-1.468-9.957-10.024-17.608-20.389-17.608-7.832 0-14.645 4.364-18.141 10.793-4.019-7.515-11.94-12.629-21.058-12.629-10.662 0-19.688 6.992-22.751 16.64-2.743-1.223-5.778-1.909-8.976-1.909-12.187 0-22.066 9.879-22.066 22.066 0 1.213.102 2.403.29 3.563-10.979.876-19.621 10.045-19.621 21.249 0 4.94 1.694 9.474 4.512 13.091-2.415 1.705-4.477 3.871-6.077 6.362.793 9.975 2.165 19.787 4.074 29.406 1.743 1.549 3.716 2.844 5.874 3.806-1.601 3.277-2.505 6.955-2.519 10.844 1.194 4.577 2.521 9.1 3.959 13.573 4.439 6.896 12.177 11.467 20.987 11.467.328 0 .653-.012.977-.025 14.672 16.727 36.188 27.302 60.187 27.302 25.073 0 47.444-11.534 62.122-29.578 13.28-1.842 23.506-13.233 23.506-27.02 0-4.199-.951-8.174-2.645-11.728 5.096-4.588 8.299-11.234 8.299-18.631z" fill="#bb5d4c"/></g></g><g><g><path d="m176.271 404.219-48.512-10.735-66.795-.184-17.648 3.917c6.362 9.45 13.339 18.451 20.875 26.945l9.784 4.51 4.872 10.698c35.77 34.182 81.472 58.057 132.339 66.867v-58.532c0-20.89-14.519-38.973-34.915-43.486z" fill="#ffc344"/></g></g><g><g><path d="m94.361 443.196c18.445 0 33.397-14.953 33.397-33.397v-16.315l-33.863-7.493-32.931 7.309v16.499c0 5.139 1.163 10.005 3.237 14.354 4.675 5.269 9.554 10.353 14.645 15.219 4.636 2.438 9.913 3.824 15.515 3.824z" fill="#fff"/></g></g><g><g><g><g><path d="m94.361 428.672c-11.349 0-20.549-9.2-20.549-20.549v-3.766l41.098-42.261v46.027c0 11.349-9.2 20.549-20.549 20.549z" fill="#f6a96c"/></g></g></g></g><g><g><path d="m73.812 362.096h41.098v30.733c-10.847 11.84-25.443 14.804-41.098 11.528z" fill="#ea9b58"/></g></g><g><g><g><g><path d="m152.701 330.401v-34.676c7.554 0 13.679 6.124 13.679 13.679v7.319c-.001 7.554-6.125 13.678-13.679 13.678z" fill="#f6a96c"/></g></g></g></g><g><g><g><g><path d="m152.701 318.914v-11.702c2.549 0 4.616 2.067 4.616 4.616v2.47c0 2.55-2.067 4.616-4.616 4.616z" fill="#ea9b58"/></g></g></g></g><g><g><g><g><path d="m21.766 316.723c0 7.554 6.124 13.679 13.679 13.679v-34.676c-7.554 0-13.679 6.124-13.679 13.679z" fill="#f6a96c"/></g></g></g></g><g><g><g><g><path d="m30.95 314.266c0 2.482 2.012 4.494 4.494 4.494v-11.393c-2.482 0-4.494 2.012-4.494 4.494z" fill="#ea9b58"/></g></g></g></g><g><g><g><g><path d="m69.155 316.412v4.114c0 2.683 2.176 4.859 4.859 4.859s4.859-2.176 4.859-4.859v-4.114z" fill="#f6a96c"/></g></g></g></g><g><g><g><g><path d="m108.745 316.412v4.114c0 2.683 2.176 4.859 4.859 4.859s4.859-2.176 4.859-4.859v-4.114z" fill="#f6a96c"/></g></g></g></g><g><g><path d="m94.361 396.552h.02" fill="#ffbd86"/></g></g><g><g><path d="m152.701 329.735v-9.94l-2.595-29.797c0-18.753-12.03-35.901-30.783-35.901h-49.924c-.666 0-1.324.025-1.977.065-.01.001-.019.002-.029.002-5.876.36-11.22 2.298-15.747 5.377l-.399 89.387c-.103 22.95 17.124 42.281 39.934 44.813l14.821 1.645c11.02-2.235 20.908-7.58 28.722-15.073 13.654-4.247 23.568-16.984 23.568-32.036.001-6.857-2.06-13.23-5.591-18.542z" fill="#ffbd86"/></g></g><g><g><path d="m106.464 395.275c-10.923-2.304-54.824-7.139-54.342-64.64l1.285-41.922c0-18.077 13.087-33.635 30.816-34.721l-14.825.105c-.666 0-1.324.025-1.977.065-.01.001-.019.002-.029.002-17.73 1.086-30.664 16.471-30.664 34.549l-1.285 31.082v10.841c-3.176 5.126-5.015 11.168-5.015 17.641 0 14.908 9.728 27.537 23.18 31.904 10.447 10.008 24.562 16.196 40.083 16.362.072.001.142.007.214.007.152.001.303.002.455.002h.02c.928-.001 1.862-.026 2.799-.071.085-.004.171-.006.256-.01.029-.001.058-.002.086-.003-.003-.001-.005-.002-.008-.003 3.056-.163 6.041-.574 8.951-1.19z" fill="#f6a96c"/></g></g><g><g><g><g><path d="m74.014 321.493c-2.683 0-4.859-2.176-4.859-4.859v-6.25l1.791-2.712-1.791-2.712v-1.614c0-2.683 2.176-4.859 4.859-4.859s4.859 2.176 4.859 4.859v13.289c0 2.683-2.176 4.858-4.859 4.858z" fill="#373c41"/></g></g></g></g><g><g><g><g><path d="m113.604 321.493c-2.683 0-4.859-2.176-4.859-4.859v-6.25l1.791-2.712-1.791-2.712v-1.614c0-2.683 2.176-4.859 4.859-4.859s4.859 2.176 4.859 4.859v13.289c0 2.683-2.175 4.858-4.859 4.858z" fill="#373c41"/></g></g></g></g><g><g><path d="m112.252 348.374h-5.003l-13.177 2.736-13.177-2.736h-4.425c-1.485 0-2.671 1.296-2.473 2.767.379 2.815 1.328 5.449 2.727 7.783l26.68 7.907c6.026-2.958 10.391-8.779 11.321-15.69.199-1.471-.988-2.767-2.473-2.767z" fill="#de0c1e"/></g></g><g><g><g><g><path d="m86.488 328.391c-1.208 4.823.987 10.078 5.185 11.661.845.319 1.748.491 2.688.491.939 0 1.843-.173 2.688-.491 4.198-1.584 6.393-6.838 5.185-11.661l-4.004-15.991c-1.008-4.026-6.729-4.026-7.737 0z" fill="#f6a96c"/></g></g></g></g><g><g><path d="m70.946 312.175c-.989 0-1.791-.802-1.791-1.791v-5.425c0-.989.802-1.791 1.791-1.791.989 0 1.791.802 1.791 1.791v5.425c0 .989-.802 1.791-1.791 1.791z" fill="#fff"/></g></g><g><g><path d="m110.537 312.175c-.989 0-1.791-.802-1.791-1.791v-5.425c0-.989.802-1.791 1.791-1.791.989 0 1.791.802 1.791 1.791v5.425c0 .989-.802 1.791-1.791 1.791z" fill="#fff"/></g></g><g><g><path d="m76.726 358.923c3.591 5.989 10.144 10 17.635 10 3.245 0 6.313-.755 9.042-2.094-1.173-7.359-7.546-12.983-15.235-12.983-4.538 0-8.618 1.959-11.442 5.077z" fill="#ff3939"/></g></g><g><g><path d="m104.351 353.846h-20.556c-1.601 0-2.899-1.298-2.899-2.899v-2.573h26.353v2.573c0 1.601-1.298 2.899-2.898 2.899z" fill="#fff"/></g></g><g><g><g><g><path d="m152.702 256.738v32.676.002 29.487c-4.316 0-7.814-3.499-7.814-7.814v-35.894c0-7.621-4.289-14.646-11.142-17.979-.168-.082-.503-.477-.503-.477h19.459z" fill="#bb5d4c"/></g></g></g><g><g><g><path d="m35.444 264.739v24.675.002 29.487c4.316 0 7.814-3.499 7.814-7.814v-40.064c0-.046 0 5.468 0 5.422.038-5.541 3.795-15.735 8.862-17.268z" fill="#bb5d4c"/></g></g></g></g><g><g><path d="m123.454 291.936c-5.431-5.431-14.268-5.431-19.698 0l-3.439-3.439c7.327-7.327 19.25-7.327 26.577 0z" fill="#883f2e"/></g></g><g><g><path d="m83.661 291.936c-5.431-5.43-14.267-5.431-19.698 0l-3.439-3.439c7.327-7.328 19.25-7.328 26.577 0z" fill="#883f2e"/></g></g><g><g><circle cx="124.253" cy="330.879" fill="#f6a96c" r="2.873"/></g></g><g><g><circle cx="138.553" cy="342.559" fill="#f6a96c" r="4.419"/></g></g><g><g><circle cx="138.206" cy="327.682" fill="#f6a96c" r="2.72"/></g></g><g><g><circle cx="68.397" cy="330.231" fill="#f6a96c" r="2.549"/></g></g><g><g><circle cx="57.825" cy="342.559" fill="#f6a96c" r="4.419"/></g></g><g><g><circle cx="55.054" cy="325.88" fill="#f6a96c" r="2.77"/></g></g><g><g><path d="m42.936 307.672v-15.838c0-20.899 16.942-37.841 37.841-37.841h26.324c20.899 0 37.841 16.942 37.841 37.841v15.201l7.758.177v-62.262l-117.256-.482v62.899z" fill="#bb5d4c"/></g></g></g></g></svg>