<svg id="Capa_1" enable-background="new 0 0 512 512" height="512" viewBox="0 0 512 512" width="512" xmlns="http://www.w3.org/2000/svg"><g><g><path d="m245 11c-135.31 0-245 109.69-245 245 0 51.875 16.136 99.974 43.644 139.58l1.064-.223c-.008-.012-.017-.023-.025-.035l22.391-182.81.987-.602h80.521l1.084.62 2.011 16.417 1.265-.625c18.113-8.96 37.591-13.504 57.892-13.504 55.921 0 105.722 35.568 123.925 88.507l.231.675h145.716l4.772-1c2.956-15.213 4.522-30.923 4.522-47 0-135.31-109.69-245-245-245z" fill="#ffe5c2"/></g><path d="m94.833 344.818h-10.895c-1.104 0-2.132-.438-2.897-1.234-.757-.786-1.15-1.815-1.108-2.898 1.311-33.852 15.524-65.506 40.022-89.132 9.79-9.441 20.807-17.186 32.671-23.094l-2.027-16.548-1.75-1h-81.069l-1.64 1-22.496 183.668c3.925 5.651 8.085 11.126 12.456 16.42l2.538 1h36.196v-68.182z" fill="#7a8c98"/><g><path d="m87.496 211.911 1.64-1h-21.356l-1.64 1-22.496 183.669c3.925 5.651 8.085 11.126 12.456 16.42l2.538 1h4.295z" fill="#596c76"/></g><g><path d="m331 61c0-5.5-4.5-10-10-10h-30c-5.5 0-10 4.5-10 10s4.5 10 10 10h30c5.5 0 10-4.5 10-10z" fill="#fff3de"/></g><path d="m225.202 132.807c-.741-.383-1.202-1.139-1.202-1.973v-3.834h-27.481c-5.523 0-10-4.477-10-10s4.477-10 10-10h19.519c5.523 0 10-4.477 10-10s-4.477-10-10-10h-34.075c-1.478 1.665-3.626 2.722-6.022 2.722h-4.941v49.278h4.939c4.424 0 8.024 3.583 8.057 8h62.04c1.632 0 3.168-.399 4.53-1.093z" fill="#fff3de"/><path d="m439 183h-49.519c-5.523 0-10-4.477-10-10 0-.054.007-.107.008-.161l-67.252 30.161h126.763c5.523 0 10-4.477 10-10s-4.477-10-10-10z" fill="#fff3de"/><g><g><path d="m350 266.125c-1.567.556-3.245.875-5 .875s-3.433-.319-5-.875v14.875h10z" fill="#7a8c98"/></g><g><circle cx="345" cy="252" fill="#fff" r="16"/></g><path d="m341 252c0-6.713 4.139-12.451 10-14.826-1.854-.751-3.876-1.174-6-1.174-8.836 0-16 7.163-16 16s7.164 16 16 16c2.124 0 4.146-.423 6-1.174-5.861-2.375-10-8.113-10-14.826z" fill="#eaf6ff"/></g><g><g><path d="m400 266.125c-1.567.556-3.245.875-5 .875s-3.433-.319-5-.875v14.875h10z" fill="#7a8c98"/></g><g><circle cx="395" cy="252" fill="#fff" r="16"/></g><path d="m391 252c0-6.713 4.139-12.451 10-14.826-1.854-.751-3.876-1.174-6-1.174-8.836 0-16 7.163-16 16s7.164 16 16 16c2.124 0 4.146-.423 6-1.174-5.861-2.375-10-8.113-10-14.826z" fill="#eaf6ff"/></g><g><path d="m155 73.6v-9c0-2.761-2.239-5-5-5h-33c-2.761 0-5 2.239-5 5v9z" fill="#9facba"/></g><path d="m475 304v-19c0-2.761-2.239-5-5-5h-145.914c4.447 7.616 8.082 15.657 10.893 24z" fill="#8d9ca8"/><g><g><g><path d="m76.645 73.6v-30.46c0-3.943-3.196-7.14-7.139-7.14s-7.14 3.196-7.14 7.14v30.46z" fill="#9facba"/></g></g><g><g><path d="m97.279 73.6v-15.315c0-3.943-3.196-7.14-7.139-7.14-3.943 0-7.14 3.197-7.14 7.14v15.315z" fill="#9facba"/></g></g><g><path d="m44.738 89.722h127.262v49.278h-127.262z" fill="#fff"/></g><g><path d="m44.738 89.722h25.262v49.278h-25.262z" fill="#eaf6ff"/></g><g><g><path d="m97.4 102.638h-33.936c-1.657 0-3 1.343-3 3v33.362h39.936v-33.362c0-1.657-1.344-3-3-3z" fill="#fed402"/></g><path d="m80.064 102.638h-16.6c-1.657 0-3 1.343-3 3v33.362h16.6v-33.362c0-1.657 1.343-3 3-3z" fill="#fac600"/><g><path d="m153.274 102.638h-33.936c-1.657 0-3 1.343-3 3v33.362h39.936v-33.362c0-1.657-1.343-3-3-3z" fill="#fed402"/></g><path d="m135.938 102.638h-16.6c-1.657 0-3 1.343-3 3v33.362h16.6v-33.362c0-1.657 1.343-3 3-3z" fill="#fac600"/></g><g><path d="m44.815 155.122 21.324 56.789h84.459l21.324-56.789z" fill="#fff"/></g><g><path d="m44.815 155.122 21.324 56.789h25.303l-21.324-56.789z" fill="#eaf6ff"/></g><g><path d="m175.939 156.122h-135.141c-5.004 0-9.061-4.057-9.061-9.061 0-5.004 4.057-9.061 9.061-9.061h135.141c5.004 0 9.061 4.057 9.061 9.061 0 5.004-4.057 9.061-9.061 9.061z" fill="#7a8c98"/></g><path d="m57 147.061c0-5.004 4.057-9.061 9.061-9.061h-25.263c-5.004 0-9.061 4.057-9.061 9.061s4.057 9.061 9.061 9.061h25.263c-5.004 0-9.061-4.057-9.061-9.061z" fill="#596c76"/><g><path d="m175.939 90.722h-135.141c-5.004 0-9.061-4.057-9.061-9.061 0-5.004 4.057-9.061 9.061-9.061h135.141c5.004 0 9.061 4.057 9.061 9.061 0 5.004-4.057 9.061-9.061 9.061z" fill="#7a8c98"/></g><path d="m57 81.661c0-5.004 4.057-9.061 9.061-9.061h-25.263c-5.004 0-9.061 4.057-9.061 9.061 0 5.004 4.057 9.061 9.061 9.061h25.263c-5.004 0-9.061-4.057-9.061-9.061z" fill="#596c76"/></g><path d="m334.66 303c4.159 12.019 6.571 24.689 7.074 37.686.042 1.083-.352 2.112-1.108 2.898-.766.795-1.794 1.234-2.897 1.234h-10.896v68.182h101.14l5.948-1c25.524-30.881 43.615-68.128 51.557-109z" fill="#7a8c98"/><path d="m210.833 213.818c-71.054 0-129.175 56.431-131.9 126.828-.109 2.826 2.176 5.171 5.004 5.171h10.896c0-63.962 52.037-116 116-116s116 52.037 116 116h10.896c2.828 0 5.114-2.345 5.004-5.171-2.725-70.397-60.846-126.828-131.9-126.828z" fill="#9facba"/><path d="m327.833 413v-67.182c0-64.617-52.383-117-117-117-64.617 0-117 52.383-117 117v67.182z" fill="#fff"/><path d="m226.917 229.924c-5.259-.723-10.626-1.105-16.083-1.105-64.617 0-117 52.383-117 117v67.181h32.166v-67.182c0-59.16 43.911-108.056 100.917-115.894z" fill="#eaf6ff"/><g><path d="m155.333 413v-61c0-1.657-1.343-3-3-3h-27c-1.657 0-3 1.343-3 3v61z" fill="#d8ecfe"/><path d="m142 349h-16.667c-1.657 0-3 1.343-3 3v61h16.667v-61c0-1.657 1.343-3 3-3z" fill="#b3dafe"/><path d="m299.333 413v-61c0-1.657-1.343-3-3-3h-27c-1.657 0-3 1.343-3 3v61z" fill="#d8ecfe"/><path d="m286 349h-16.667c-1.657 0-3 1.343-3 3v61h16.667v-61c0-1.657 1.343-3 3-3z" fill="#b3dafe"/></g><path d="m243.833 413v-61c0-1.657-1.343-3-3-3h-60c-1.657 0-3 1.343-3 3v61z" fill="#d8ecfe"/><path d="m205 349h-24.167c-1.657 0-3 1.343-3 3v61h24.167v-61c0-1.657 1.343-3 3-3z" fill="#b3dafe"/><g><path d="m56.079 412c44.938 54.359 112.883 89 188.921 89s143.983-34.641 188.921-89z" fill="#9facba"/></g><g><path d="m375.668 314h-19.901c-1.657 0-3 1.343-3 3v19.902c0 1.657 1.343 3 3 3h19.901c1.657 0 3-1.343 3-3v-19.902c0-1.657-1.343-3-3-3z" fill="#fed402"/><path d="m365.099 336.902v-19.902c0-1.657 1.343-3 3-3h-12.332c-1.657 0-3 1.343-3 3v19.902c0 1.657 1.343 3 3 3h12.332c-1.657 0-3-1.344-3-3z" fill="#fac600"/><g fill="#fed402"><path d="m375.668 349.726h-19.901c-1.657 0-3 1.343-3 3v19.902c0 1.657 1.343 3 3 3h19.901c1.657 0 3-1.343 3-3v-19.902c0-1.657-1.343-3-3-3z"/><path d="m410.334 314h-19.902c-1.657 0-3 1.343-3 3v19.902c0 1.657 1.343 3 3 3h19.902c1.657 0 3-1.343 3-3v-19.902c0-1.657-1.343-3-3-3z"/><path d="m410.334 349.726h-19.902c-1.657 0-3 1.343-3 3v19.902c0 1.657 1.343 3 3 3h19.902c1.657 0 3-1.343 3-3v-19.902c0-1.657-1.343-3-3-3z"/><path d="m445 314h-19.902c-1.657 0-3 1.343-3 3v19.902c0 1.657 1.343 3 3 3h19.902c1.657 0 3-1.343 3-3v-19.902c0-1.657-1.343-3-3-3z"/><path d="m445 349.726h-19.902c-1.657 0-3 1.343-3 3v19.902c0 1.657 1.343 3 3 3h19.902c1.657 0 3-1.343 3-3v-19.902c0-1.657-1.343-3-3-3z"/></g></g><g><g><path d="m310.142 96.323 29.663 19.775h60.924l-58.994-26.458c-.493-.221-1.027-.335-1.568-.335h-27.9c-3.79 0-5.278 4.916-2.125 7.018z" fill="#26a6fe"/><path d="m328.838 89.305h-16.571c-3.79 0-5.279 4.916-2.125 7.018l29.663 19.775h16.571l-29.663-19.775c-3.154-2.102-1.665-7.018 2.125-7.018z" fill="#0593fc"/><path d="m288.102 116.098-30.279-51.217c-.689-1.166-1.943-1.881-3.298-1.881h-18.118c-2.116 0-3.831 1.715-3.831 3.831v49.267z" fill="#26a6fe"/><path d="m253.306 63h-16.898c-2.116 0-3.831 1.715-3.831 3.831v49.267h16.898v-49.267c0-2.116 1.715-3.831 3.831-3.831z" fill="#0593fc"/><path d="m509.03 145.653-7.265-8.692c-11.581-13.856-28.709-21.863-46.767-21.863h-228.777c-1.779 0-3.221 1.442-3.221 3.221v12.514c0 1.205.672 2.309 1.743 2.862l57.584 29.742c3.809 1.967 8.032 2.993 12.319 2.993h31.894l20.932-13.955c.466-.311 1.009-.476 1.57-.476h63.682c1.689 0 2.547 1.206 2.768 2.238s-.067 2.484-1.609 3.175l-20.105 9.017h105.539c10.741.001 16.601-12.534 9.713-20.776z" fill="#d8ecfe"/><g><path d="m248.743 133.696c-1.071-.553-1.743-1.657-1.743-2.862v-12.514c0-1.779 1.442-3.221 3.221-3.221h-24c-1.779 0-3.221 1.442-3.221 3.221v12.514c0 1.205.672 2.309 1.743 2.862l57.584 29.742c3.809 1.967 8.032 2.993 12.319 2.993h24c-4.286 0-8.51-1.026-12.319-2.993z" fill="#b3dafe"/></g><g><path d="m346.918 151.643-73.551 49.034c-3.154 2.102-1.665 7.018 2.125 7.018h27.9c.54 0 1.075-.114 1.568-.335l109.332-49.034c3.769-1.69 2.563-7.326-1.568-7.326h-63.682c-.756 0-1.495.224-2.124.643z" fill="#26a6fe"/></g><path d="m289.807 200.677 73.551-49.034c.629-.419 1.369-.643 2.125-.643h-16.44c-.756 0-1.496.224-2.125.643l-73.551 49.034c-3.154 2.102-1.665 7.018 2.125 7.018h16.44c-3.79 0-5.279-4.916-2.125-7.018z" fill="#0593fc"/></g><g><path d="m464.528 136.553c0 4.429 3.624 8.053 8.053 8.053h35.574l-6.39-7.646c-2.619-3.134-5.535-5.951-8.668-8.461h-20.516c-4.429.001-8.053 3.625-8.053 8.054z" fill="#b3dafe"/></g></g><g><g><path d="m152.333 334h-27c-1.657 0-3-1.343-3-3v-27c0-1.657 1.343-3 3-3h27c1.657 0 3 1.343 3 3v27c0 1.657-1.343 3-3 3z" fill="#d8ecfe"/></g><path d="m139 331v-27c0-1.657 1.343-3 3-3h-16.667c-1.657 0-3 1.343-3 3v27c0 1.657 1.343 3 3 3h16.667c-1.657 0-3-1.343-3-3z" fill="#b3dafe"/><g><path d="m200.333 334h-27c-1.657 0-3-1.343-3-3v-27c0-1.657 1.343-3 3-3h27c1.657 0 3 1.343 3 3v27c0 1.657-1.343 3-3 3z" fill="#d8ecfe"/></g><g><path d="m248.333 334h-27c-1.657 0-3-1.343-3-3v-27c0-1.657 1.343-3 3-3h27c1.657 0 3 1.343 3 3v27c0 1.657-1.343 3-3 3z" fill="#d8ecfe"/></g><g><path d="m296.333 334h-27c-1.657 0-3-1.343-3-3v-27c0-1.657 1.343-3 3-3h27c1.657 0 3 1.343 3 3v27c0 1.657-1.343 3-3 3z" fill="#d8ecfe"/></g></g><g><g><path d="m176.5 451.5h-46.5c-1.657 0-3-1.343-3-3v-9c0-1.657 1.343-3 3-3h46.5c1.657 0 3 1.343 3 3v9c0 1.657-1.343 3-3 3z" fill="#b6c4cf"/></g><g><path d="m268.25 451.5h-46.5c-1.657 0-3-1.343-3-3v-9c0-1.657 1.343-3 3-3h46.5c1.657 0 3 1.343 3 3v9c0 1.657-1.343 3-3 3z" fill="#b6c4cf"/></g><g><path d="m360 451.5h-46.5c-1.657 0-3-1.343-3-3v-9c0-1.657 1.343-3 3-3h46.5c1.657 0 3 1.343 3 3v9c0 1.657-1.343 3-3 3z" fill="#b6c4cf"/></g></g><g><path d="m441.75 145c3.452 0 6.25-2.798 6.25-6.25v-2.5c0-3.452-2.798-6.25-6.25-6.25-3.452 0-6.25 2.798-6.25 6.25v2.5c0 3.452 2.798 6.25 6.25 6.25z" fill="#fff"/></g><g><path d="m418.25 145c3.452 0 6.25-2.798 6.25-6.25v-2.5c0-3.452-2.798-6.25-6.25-6.25-3.452 0-6.25 2.798-6.25 6.25v2.5c0 3.452 2.798 6.25 6.25 6.25z" fill="#fff"/></g><g><path d="m394.75 145c3.452 0 6.25-2.798 6.25-6.25v-2.5c0-3.452-2.798-6.25-6.25-6.25-3.452 0-6.25 2.798-6.25 6.25v2.5c0 3.452 2.798 6.25 6.25 6.25z" fill="#fff"/></g><g><path d="m371.25 145c3.452 0 6.25-2.798 6.25-6.25v-2.5c0-3.452-2.798-6.25-6.25-6.25-3.452 0-6.25 2.798-6.25 6.25v2.5c0 3.452 2.798 6.25 6.25 6.25z" fill="#fff"/></g><g><path d="m347.75 145c3.452 0 6.25-2.798 6.25-6.25v-2.5c0-3.452-2.798-6.25-6.25-6.25-3.452 0-6.25 2.798-6.25 6.25v2.5c0 3.452 2.798 6.25 6.25 6.25z" fill="#fff"/></g><g><path d="m324.25 145c3.452 0 6.25-2.798 6.25-6.25v-2.5c0-3.452-2.798-6.25-6.25-6.25-3.452 0-6.25 2.798-6.25 6.25v2.5c0 3.452 2.798 6.25 6.25 6.25z" fill="#fff"/></g><g><path d="m300.75 145c3.452 0 6.25-2.798 6.25-6.25v-2.5c0-3.452-2.798-6.25-6.25-6.25-3.452 0-6.25 2.798-6.25 6.25v2.5c0 3.452 2.798 6.25 6.25 6.25z" fill="#fff"/></g><g><g><g><circle cx="85.369" cy="182" fill="#fed402" r="10"/></g><path d="m84 182c0-3.975 2.325-7.398 5.684-9.01-1.308-.628-2.768-.99-4.316-.99-5.523 0-10 4.477-10 10s4.477 10 10 10c1.548 0 3.008-.362 4.316-.99-3.359-1.612-5.684-5.035-5.684-9.01z" fill="#fac600"/><g><circle cx="131.369" cy="182" fill="#fed402" r="10"/></g></g></g><g fill="#fac600"><path d="m399.764 336.902v-19.902c0-1.657 1.343-3 3-3h-12.332c-1.657 0-3 1.343-3 3v19.902c0 1.657 1.343 3 3 3h12.332c-1.657 0-3-1.344-3-3z"/><path d="m434.43 336.902v-19.902c0-1.657 1.343-3 3-3h-12.332c-1.657 0-3 1.343-3 3v19.902c0 1.657 1.343 3 3 3h12.332c-1.657 0-3-1.344-3-3z"/><path d="m365.099 372.628v-19.902c0-1.657 1.343-3 3-3h-12.332c-1.657 0-3 1.343-3 3v19.902c0 1.657 1.343 3 3 3h12.332c-1.657 0-3-1.343-3-3z"/><path d="m399.764 372.628v-19.902c0-1.657 1.343-3 3-3h-12.332c-1.657 0-3 1.343-3 3v19.902c0 1.657 1.343 3 3 3h12.332c-1.657 0-3-1.343-3-3z"/><path d="m434.43 372.628v-19.902c0-1.657 1.343-3 3-3h-12.332c-1.657 0-3 1.343-3 3v19.902c0 1.657 1.343 3 3 3h12.332c-1.657 0-3-1.343-3-3z"/><path d="m130 182c0-3.975 2.325-7.398 5.684-9.01-1.308-.628-2.768-.99-4.316-.99-5.523 0-10 4.477-10 10s4.477 10 10 10c1.548 0 3.008-.362 4.316-.99-3.359-1.612-5.684-5.035-5.684-9.01z"/></g><path d="m187 331v-27c0-1.657 1.343-3 3-3h-16.667c-1.657 0-3 1.343-3 3v27c0 1.657 1.343 3 3 3h16.667c-1.657 0-3-1.343-3-3z" fill="#b3dafe"/><path d="m235 331v-27c0-1.657 1.343-3 3-3h-16.667c-1.657 0-3 1.343-3 3v27c0 1.657 1.343 3 3 3h16.667c-1.657 0-3-1.343-3-3z" fill="#b3dafe"/><path d="m283 331v-27c0-1.657 1.343-3 3-3h-16.667c-1.657 0-3 1.343-3 3v27c0 1.657 1.343 3 3 3h16.667c-1.657 0-3-1.343-3-3z" fill="#b3dafe"/></g></svg>