<svg height="512pt" viewBox="0 -66 512 511" width="512pt" xmlns="http://www.w3.org/2000/svg"><path d="m330.71875 318.445312-30.917969-15.460937 30.917969-15.457031h23.1875c4.269531 0 7.730469 3.460937 7.730469 7.726562v15.460938c0 4.269531-3.460938 7.730468-7.730469 7.730468zm0 0" fill="#199aff"/><path d="m330.71875 380.28125-30.917969-15.460938 30.917969-15.457031h23.1875c4.269531 0 7.730469 3.460938 7.730469 7.730469v15.457031c0 4.269531-3.460938 7.730469-7.730469 7.730469zm0 0" fill="#199aff"/><path d="m150.363281 310.714844v-15.460938c0-4.265625 3.460938-7.726562 7.730469-7.726562h172.625v30.917968h-172.625c-4.269531 0-7.730469-3.460937-7.730469-7.730468zm0 0" fill="#10beff"/><path d="m150.363281 372.550781v-15.457031c0-4.269531 3.460938-7.730469 7.730469-7.730469h172.625v30.917969h-172.625c-4.269531 0-7.730469-3.460938-7.730469-7.730469zm0 0" fill="#10beff"/><path d="m209.730469.5-46.378907 120.324219 46.378907 120.324219h23.1875c4.269531 0 7.730469-3.460938 7.730469-7.730469v-225.1875c0-4.269531-3.460938-7.730469-7.730469-7.730469zm0 0" fill="#ff6f44"/><path d="m151.296875.5-30.972656 20.386719-30.972657-20.386719h-81.621093c-4.269531 0-7.730469 3.460938-7.730469 7.730469v225.1875c0 4.269531 3.460938 7.730469 7.730469 7.730469h202v-240.648438zm0 0" fill="#ff986d"/><path d="m151.242188 113.09375v-112.59375h-30.917969l-15.460938 30.917969v58.488281l15.460938 30.917969h23.1875c4.269531 0 7.730469-3.460938 7.730469-7.730469zm0 0" fill="#ffebbe"/><path d="m120.324219 120.824219v-120.324219h-30.917969v112.59375c0 4.269531 3.460938 7.730469 7.730469 7.730469zm0 0" fill="#fff"/><path d="m481.082031.5-46.378906 120.324219 46.378906 120.324219h23.1875c4.269531 0 7.730469-3.460938 7.730469-7.730469v-225.1875c0-4.269531-3.460938-7.730469-7.730469-7.730469zm0 0" fill="#ff6f44"/><path d="m422.648438.5-30.972657 20.386719-30.976562-20.386719h-81.617188c-4.269531 0-7.730469 3.460938-7.730469 7.730469v225.1875c0 4.269531 3.460938 7.730469 7.730469 7.730469h202v-240.648438zm0 0" fill="#ff986d"/><path d="m422.59375 113.09375v-112.59375h-30.917969l-15.457031 30.917969v58.488281l15.457031 30.917969h23.1875c4.269531 0 7.730469-3.460938 7.730469-7.730469zm0 0" fill="#ffebbe"/><path d="m391.675781 120.824219v-120.324219h-30.917969v112.59375c0 4.269531 3.460938 7.730469 7.730469 7.730469zm0 0" fill="#fff"/></svg>