<svg id="Capa_1" enable-background="new 0 0 512 512" height="512" viewBox="0 0 512 512" width="512" xmlns="http://www.w3.org/2000/svg"><g><g><g><path d="m216.554 265.987-92.805 53.581c-11.906 6.874-26.788-1.719-26.788-15.466v-19.393h-38.244c-9.063 0-16.479-7.416-16.479-16.479v-35.418c0-9.064 7.416-16.479 16.479-16.479h38.244v-19.393c0-13.748 14.882-22.34 26.788-15.466l92.805 53.581c11.906 6.873 11.906 24.058 0 30.932z" fill="#00b889"/></g><g><path d="m235.886 276.946-92.805 53.581c-11.906 6.874-26.788-1.719-26.788-15.466v-19.393h-38.244c-9.063 0-16.479-7.416-16.479-16.479v-35.417c0-9.064 7.416-16.479 16.479-16.479h38.244v-19.393c0-13.748 14.882-22.34 26.788-15.466l92.805 53.581c11.906 6.872 11.906 24.057 0 30.931z" fill="#4fed9a"/></g></g><g><g><path d="m295.446 245.013 92.805-53.581c11.906-6.874 26.788 1.719 26.788 15.466v19.393h38.244c9.063 0 16.479 7.416 16.479 16.479v35.417c0 9.064-7.416 16.479-16.479 16.479h-38.244v19.393c0 13.748-14.882 22.34-26.788 15.466l-92.805-53.581c-11.906-6.872-11.906-24.057 0-30.931z" fill="#00b889"/></g><g><path d="m276.114 235.054 92.805-53.581c11.906-6.874 26.788 1.719 26.788 15.466v19.393h38.244c9.063 0 16.479 7.416 16.479 16.479v35.418c0 9.064-7.416 16.479-16.479 16.479h-38.244v19.393c0 13.748-14.882 22.34-26.788 15.466l-92.805-53.581c-11.906-6.873-11.906-24.058 0-30.932z" fill="#4fed9a"/></g></g></g></svg>