<svg id="Capa_1" enable-background="new 0 0 512 512" height="512" viewBox="0 0 512 512" width="512" xmlns="http://www.w3.org/2000/svg"><g><g><path d="m368.396 361.375h-315.167c-29.35 0-53.229-23.879-53.229-53.23v-194.666c0-29.35 23.879-53.229 53.229-53.229h37.146v-45.25c0-6.067 3.654-11.536 9.26-13.858 5.604-2.319 12.058-1.039 16.347 3.252l55.856 55.856h196.558c29.351 0 53.229 23.879 53.229 53.229v194.666c0 29.351-23.879 53.23-53.229 53.23z" fill="#d7e7f8"/></g><path d="m53.229 361.375h157.583v-301.125h-38.975l-55.856-55.856c-2.869-2.87-6.706-4.395-10.609-4.394-1.933 0-3.882.373-5.737 1.142-5.605 2.322-9.26 7.791-9.26 13.858v45.25h-37.146c-29.35 0-53.229 23.879-53.229 53.23v194.666c0 29.35 23.879 53.229 53.229 53.229z" fill="#ebf6ff"/><path d="m458.771 150.625h-315.167c-29.351 0-53.229 23.879-53.229 53.229v194.666c0 29.351 23.879 53.229 53.229 53.229h196.558l55.856 55.856c2.869 2.87 6.706 4.395 10.609 4.394 1.933 0 3.882-.373 5.737-1.142 5.605-2.322 9.26-7.791 9.26-13.858v-45.25h37.146c29.351 0 53.229-23.879 53.229-53.229v-194.666c.001-29.35-23.878-53.229-53.228-53.229z" fill="#9fe066"/><path d="m458.771 150.625h-157.583v301.125h38.975l55.856 55.856c2.869 2.87 6.706 4.395 10.609 4.394 1.933 0 3.882-.373 5.737-1.142 5.605-2.322 9.26-7.791 9.26-13.858v-45.25h37.146c29.351 0 53.229-23.879 53.229-53.229v-194.667c0-29.35-23.879-53.229-53.229-53.229z" fill="#4aca7b"/><g><path d="m256 361.375c-1.15 0-2.306-.132-3.446-.401-4.329-1.021-7.981-3.912-9.97-7.891l-30.125-60.25c-3.705-7.409-.702-16.42 6.708-20.124 7.411-3.707 16.42-.702 20.124 6.708l22.088 44.174 106.121-79.591c6.629-4.971 16.03-3.627 21 3 4.971 6.628 3.628 16.029-3 21l-120.5 90.375c-2.621 1.966-5.785 3-9 3z" fill="#394949"/></g><path d="m367.5 244-66.312 49.734v37.5l84.312-63.234c6.628-4.971 7.971-14.372 3-21-4.97-6.627-14.371-7.971-21-3z" fill="#151f1f"/></g></svg>