<svg height="511pt" viewBox="-3 0 511 511.99975" width="511pt" xmlns="http://www.w3.org/2000/svg"><path d="m118.863281 435.914062v11.558594l.546875.941406c.449219.765626.453125 1.714844.011719 2.484376-.144531.253906-.34375.460937-.558594.640624v23.507813h15v-39.132813zm0 0" fill="#775436"/><path d="m159.191406 389.636719-.988281-1.695313h-63.675781l-.742188 1.273438 16.5 28.296875c.222656.386719.222656.867187-.003906 1.253906s-.652344.628906-1.109375.628906h-6.679687l10.214843 17.519531h46.484375zm0 0" fill="#368c0e"/><path d="m159.191406 367.304688-14.976562-25.679688h-35.699219l-16.960937 29.085938 8.851562 15.179687c.222656.386719.226562.867187 0 1.253906-.230469.386719-.65625.632813-1.109375.632813h-6.351563l.679688 1.164062h65.566406zm0 0" fill="#89c947"/><path d="m101.175781 342.625c-1.195312 0-2.292969-.632812-2.890625-1.65625-.597656-1.019531-.597656-2.28125 0-3.308594l25.1875-43.191406c.597656-1.023438 1.695313-1.652344 2.890625-1.652344 1.195313 0 2.296875.628906 2.894531 1.652344l25.1875 43.191406c.59375 1.023438.59375 2.289063 0 3.308594-.597656 1.023438-1.699218 1.65625-2.890624 1.65625zm0 0" fill="#368c0e"/><path d="m413.976562 459.050781c-.882812 0-1.703124-.476562-2.144531-1.242187-.441406-.769532-.4375-1.722656.007813-2.488282l15.59375-26.742187v-2.273437h-5.351563c-.457031 0-.886719-.242188-1.113281-.636719-.226562-.382813-.226562-.859375 0-1.246094l6.464844-11.089844v-387.292969c0-1.914062-1.5625-3.480468-3.472656-3.480468h-181.039063c-1.910156 0-3.476563 1.566406-3.476563 3.480468v97.289063h103.261719c1.363281 0 2.472657 1.109375 2.472657 2.480469v372.191406h48.046874l.265626-.582031c3.59375-7.835938 11.46875-12.898438 20.066406-12.898438h13.878906v-25.46875zm0 0" fill="#ffc502"/><path d="m296.382812 95.421875c0 1.679687-1.371093 3.046875-3.046874 3.046875h-19.386719c-1.675781 0-3.046875-1.367188-3.046875-3.046875v-34.511719c0-1.675781 1.371094-3.042968 3.046875-3.042968h19.386719c1.675781 0 3.046874 1.367187 3.046874 3.042968zm0 0" fill="#f7931e"/><path d="m346.179688 95.421875c0 1.679687-1.371094 3.046875-3.046876 3.046875h-19.382812c-1.675781 0-3.046875-1.367188-3.046875-3.046875v-34.511719c0-1.675781 1.371094-3.042968 3.046875-3.042968h19.382812c1.675782 0 3.046876 1.367187 3.046876 3.042968zm0 0" fill="#fff"/><path d="m395.976562 95.421875c0 1.679687-1.371093 3.046875-3.046874 3.046875h-19.382813c-1.675781 0-3.046875-1.367188-3.046875-3.046875v-34.511719c0-1.675781 1.371094-3.042968 3.046875-3.042968h19.382813c1.675781 0 3.046874 1.367187 3.046874 3.042968zm0 0" fill="#f7931e"/><path d="m395.976562 161.546875c0 1.679687-1.371093 3.046875-3.046874 3.046875h-19.382813c-1.675781 0-3.046875-1.367188-3.046875-3.046875v-34.511719c0-1.675781 1.371094-3.042968 3.046875-3.042968h19.382813c1.675781 0 3.046874 1.367187 3.046874 3.042968zm0 0" fill="#fff"/><path d="m395.976562 227.671875c0 1.675781-1.371093 3.046875-3.046874 3.046875h-19.382813c-1.675781 0-3.046875-1.371094-3.046875-3.046875v-34.511719c0-1.675781 1.371094-3.042968 3.046875-3.042968h19.382813c1.675781 0 3.046874 1.367187 3.046874 3.042968zm0 0" fill="#f7931e"/><path d="m395.976562 293.796875c0 1.679687-1.371093 3.046875-3.046874 3.046875h-19.382813c-1.675781 0-3.046875-1.367188-3.046875-3.046875v-34.511719c0-1.675781 1.371094-3.042968 3.046875-3.042968h19.382813c1.675781 0 3.046874 1.367187 3.046874 3.042968zm0 0" fill="#fff"/><path d="m395.976562 359.921875c0 1.679687-1.371093 3.046875-3.046874 3.046875h-19.382813c-1.675781 0-3.046875-1.367188-3.046875-3.046875v-34.511719c0-1.675781 1.371094-3.042968 3.046875-3.042968h19.382813c1.675781 0 3.046874 1.367187 3.046874 3.042968zm0 0" fill="#f7931e"/><path d="m395.976562 426.050781c0 1.675781-1.371093 3.042969-3.046874 3.042969h-19.382813c-1.675781 0-3.046875-1.367188-3.046875-3.042969v-34.515625c0-1.675781 1.371094-3.042968 3.046875-3.042968h19.382813c1.675781 0 3.046874 1.367187 3.046874 3.042968zm0 0" fill="#fff"/><path d="m173.777344 497.3125.226562.6875h172.175782v-372.191406c0-1.917969-1.5625-3.480469-3.472657-3.480469h-181.042969c-1.910156 0-3.472656 1.5625-3.472656 3.480469v353.050781c7.207032 3.832031 12.886719 10.320313 15.585938 18.453125zm0 0" fill="#0481bf"/><path d="m281.300781 498v-63.78125c0-3.191406-2.605469-5.800781-5.789062-5.800781h-46.648438c-3.1875 0-5.792969 2.609375-5.792969 5.800781v63.78125zm0 0" fill="#75eae7"/><path d="m215.128906 195.191406c0 1.675782-1.371094 3.046875-3.046875 3.046875h-19.386719c-1.675781 0-3.046874-1.371093-3.046874-3.046875v-34.511718c0-1.679688 1.371093-3.046876 3.046874-3.046876h19.386719c1.675781 0 3.046875 1.367188 3.046875 3.046876zm0 0" fill="#fff"/><path d="m212.082031 205.738281h-19.386719c-5.8125 0-10.546874-4.730469-10.546874-10.546875v-34.511718c0-5.816407 4.730468-10.546876 10.546874-10.546876h19.386719c5.8125 0 10.546875 4.730469 10.546875 10.546876v34.511718c0 5.816406-4.734375 10.546875-10.546875 10.546875zm-14.933593-15h10.480468v-25.605469h-10.480468zm0 0" fill="#046699"/><path d="m264.925781 195.191406c0 1.675782-1.371093 3.046875-3.046875 3.046875h-19.386718c-1.675782 0-3.046876-1.371093-3.046876-3.046875v-34.511718c0-1.679688 1.371094-3.046876 3.046876-3.046876h19.386718c1.675782 0 3.046875 1.367188 3.046875 3.046876zm0 0" fill="#fff"/><path d="m261.878906 205.738281h-19.386718c-5.8125 0-10.546876-4.730469-10.546876-10.546875v-34.511718c0-5.816407 4.734376-10.546876 10.546876-10.546876h19.386718c5.816406 0 10.546875 4.730469 10.546875 10.546876v34.511718c0 5.816406-4.730469 10.546875-10.546875 10.546875zm-14.933594-15h10.480469v-25.605469h-10.480469zm0 0" fill="#046699"/><path d="m314.722656 195.191406c0 1.675782-1.371094 3.046875-3.046875 3.046875h-19.382812c-1.675781 0-3.046875-1.371093-3.046875-3.046875v-34.511718c0-1.679688 1.371094-3.046876 3.046875-3.046876h19.382812c1.675781 0 3.046875 1.367188 3.046875 3.046876zm0 0" fill="#fff"/><path d="m311.679688 205.738281h-19.386719c-5.816407 0-10.546875-4.730469-10.546875-10.546875v-34.511718c0-5.816407 4.730468-10.546876 10.546875-10.546876h19.386719c5.8125 0 10.546874 4.730469 10.546874 10.546876v34.511718c-.003906 5.816406-4.734374 10.546875-10.546874 10.546875zm-14.933594-15h10.476562v-25.605469h-10.476562zm0 0" fill="#046699"/><path d="m215.128906 261.316406c0 1.675782-1.371094 3.042969-3.046875 3.042969h-19.386719c-1.675781 0-3.046874-1.367187-3.046874-3.042969v-34.511718c0-1.675782 1.371093-3.046876 3.046874-3.046876h19.386719c1.675781 0 3.046875 1.371094 3.046875 3.046876zm0 0" fill="#ffc502"/><path d="m212.082031 271.859375h-19.386719c-5.8125 0-10.546874-4.730469-10.546874-10.542969v-34.511718c0-5.816407 4.730468-10.546876 10.546874-10.546876h19.386719c5.8125 0 10.546875 4.730469 10.546875 10.546876v34.511718c0 5.8125-4.734375 10.542969-10.546875 10.542969zm-14.933593-15h10.480468v-25.601563h-10.480468zm0 0"/><path d="m212.082031 271.859375h-19.386719c-5.8125 0-10.546874-4.730469-10.546874-10.542969v-34.511718c0-5.816407 4.730468-10.546876 10.546874-10.546876h19.386719c5.8125 0 10.546875 4.730469 10.546875 10.546876v34.511718c0 5.8125-4.734375 10.542969-10.546875 10.542969zm-14.933593-15h10.480468v-25.601563h-10.480468zm0 0" fill="#046699"/><path d="m264.925781 261.316406c0 1.675782-1.371093 3.042969-3.046875 3.042969h-19.386718c-1.675782 0-3.046876-1.367187-3.046876-3.042969v-34.511718c0-1.675782 1.371094-3.046876 3.046876-3.046876h19.386718c1.675782 0 3.046875 1.371094 3.046875 3.046876zm0 0" fill="#fff"/><path d="m264.925781 261.316406c0 1.675782-1.371093 3.042969-3.046875 3.042969h-19.386718c-1.675782 0-3.046876-1.367187-3.046876-3.042969v-34.511718c0-1.675782 1.371094-3.046876 3.046876-3.046876h19.386718c1.675782 0 3.046875 1.371094 3.046875 3.046876zm0 0" fill="#ffc502"/><path d="m261.878906 271.859375h-19.386718c-5.8125 0-10.546876-4.730469-10.546876-10.542969v-34.511718c0-5.816407 4.734376-10.546876 10.546876-10.546876h19.386718c5.816406 0 10.546875 4.730469 10.546875 10.546876v34.511718c0 5.8125-4.730469 10.542969-10.546875 10.542969zm-14.933594-15h10.480469v-25.601563h-10.480469zm0 0" fill="#046699"/><path d="m314.722656 261.316406c0 1.675782-1.371094 3.042969-3.046875 3.042969h-19.382812c-1.675781 0-3.046875-1.367187-3.046875-3.042969v-34.511718c0-1.675782 1.371094-3.046876 3.046875-3.046876h19.382812c1.675781 0 3.046875 1.371094 3.046875 3.046876zm0 0" fill="#ffc502"/><path d="m311.679688 271.859375h-19.386719c-5.816407 0-10.546875-4.730469-10.546875-10.542969v-34.511718c0-5.816407 4.730468-10.546876 10.546875-10.546876h19.386719c5.8125 0 10.546874 4.730469 10.546874 10.546876v34.511718c-.003906 5.8125-4.734374 10.542969-10.546874 10.542969zm-14.933594-15h10.476562v-25.601563h-10.476562zm0 0"/><path d="m311.679688 271.859375h-19.386719c-5.816407 0-10.546875-4.730469-10.546875-10.542969v-34.511718c0-5.816407 4.730468-10.546876 10.546875-10.546876h19.386719c5.8125 0 10.546874 4.730469 10.546874 10.546876v34.511718c-.003906 5.8125-4.734374 10.542969-10.546874 10.542969zm-14.933594-15h10.476562v-25.601563h-10.476562zm0 0" fill="#046699"/><path d="m215.128906 327.441406c0 1.675782-1.371094 3.046875-3.046875 3.046875h-19.386719c-1.675781 0-3.046874-1.371093-3.046874-3.046875v-34.511718c0-1.675782 1.371093-3.046876 3.046874-3.046876h19.386719c1.675781 0 3.046875 1.371094 3.046875 3.046876zm0 0" fill="#fff"/><path d="m212.082031 337.988281h-19.386719c-5.8125 0-10.546874-4.730469-10.546874-10.546875v-34.511718c0-5.816407 4.730468-10.546876 10.546874-10.546876h19.386719c5.8125 0 10.546875 4.730469 10.546875 10.546876v34.511718c0 5.816406-4.734375 10.546875-10.546875 10.546875zm-14.933593-15h10.480468v-25.605469h-10.480468zm0 0" fill="#046699"/><path d="m264.925781 327.441406c0 1.675782-1.371093 3.046875-3.046875 3.046875h-19.386718c-1.675782 0-3.046876-1.371093-3.046876-3.046875v-34.511718c0-1.675782 1.371094-3.046876 3.046876-3.046876h19.386718c1.675782 0 3.046875 1.371094 3.046875 3.046876zm0 0" fill="#fff"/><path d="m261.878906 337.988281h-19.386718c-5.8125 0-10.546876-4.730469-10.546876-10.546875v-34.511718c0-5.816407 4.734376-10.546876 10.546876-10.546876h19.386718c5.816406 0 10.546875 4.730469 10.546875 10.546876v34.511718c0 5.816406-4.730469 10.546875-10.546875 10.546875zm-14.933594-15h10.480469v-25.605469h-10.480469zm0 0" fill="#046699"/><path d="m314.722656 327.441406c0 1.675782-1.371094 3.046875-3.046875 3.046875h-19.382812c-1.675781 0-3.046875-1.371093-3.046875-3.046875v-34.511718c0-1.675782 1.371094-3.046876 3.046875-3.046876h19.382812c1.675781 0 3.046875 1.371094 3.046875 3.046876zm0 0" fill="#fff"/><path d="m311.679688 337.988281h-19.386719c-5.816407 0-10.546875-4.730469-10.546875-10.546875v-34.511718c0-5.816407 4.730468-10.546876 10.546875-10.546876h19.386719c5.8125 0 10.546874 4.730469 10.546874 10.546876v34.511718c-.003906 5.816406-4.734374 10.546875-10.546874 10.546875zm-14.933594-15h10.476562v-25.605469h-10.476562zm0 0" fill="#046699"/><path d="m215.128906 393.566406c0 1.675782-1.371094 3.046875-3.046875 3.046875h-19.386719c-1.675781 0-3.046874-1.371093-3.046874-3.046875v-34.511718c0-1.675782 1.371093-3.046876 3.046874-3.046876h19.386719c1.675781 0 3.046875 1.371094 3.046875 3.046876zm0 0" fill="#fff"/><path d="m215.128906 393.566406c0 1.675782-1.371094 3.046875-3.046875 3.046875h-19.386719c-1.675781 0-3.046874-1.371093-3.046874-3.046875v-34.511718c0-1.675782 1.371093-3.046876 3.046874-3.046876h19.386719c1.675781 0 3.046875 1.371094 3.046875 3.046876zm0 0" fill="#ffc502"/><path d="m212.082031 404.113281h-19.386719c-5.8125 0-10.546874-4.730469-10.546874-10.546875v-34.511718c0-5.816407 4.730468-10.546876 10.546874-10.546876h19.386719c5.8125 0 10.546875 4.730469 10.546875 10.546876v34.511718c0 5.816406-4.734375 10.546875-10.546875 10.546875zm-14.933593-15h10.480468v-25.605469h-10.480468zm0 0" fill="#046699"/><path d="m264.925781 393.566406c0 1.675782-1.371093 3.046875-3.046875 3.046875h-19.386718c-1.675782 0-3.046876-1.371093-3.046876-3.046875v-34.511718c0-1.675782 1.371094-3.046876 3.046876-3.046876h19.386718c1.675782 0 3.046875 1.371094 3.046875 3.046876zm0 0" fill="#ffc502"/><path d="m261.878906 404.113281h-19.386718c-5.8125 0-10.546876-4.730469-10.546876-10.546875v-34.511718c0-5.816407 4.734376-10.546876 10.546876-10.546876h19.386718c5.816406 0 10.546875 4.730469 10.546875 10.546876v34.511718c0 5.816406-4.730469 10.546875-10.546875 10.546875zm-14.933594-15h10.480469v-25.605469h-10.480469zm0 0" fill="#046699"/><path d="m314.722656 393.566406c0 1.675782-1.371094 3.046875-3.046875 3.046875h-19.382812c-1.675781 0-3.046875-1.371093-3.046875-3.046875v-34.511718c0-1.675782 1.371094-3.046876 3.046875-3.046876h19.382812c1.675781 0 3.046875 1.371094 3.046875 3.046876zm0 0" fill="#ffc502"/><path d="m311.679688 404.113281h-19.386719c-5.816407 0-10.546875-4.730469-10.546875-10.546875v-34.511718c0-5.816407 4.730468-10.546876 10.546875-10.546876h19.386719c5.8125 0 10.546874 4.730469 10.546874 10.546876v34.511718c-.003906 5.816406-4.734374 10.546875-10.546874 10.546875zm-14.933594-15h10.476562v-25.605469h-10.476562zm0 0" fill="#046699"/><path d="m441.652344 459.050781v25.46875h14.578125c.144531 0 .28125.011719.421875.015625v-25.480468h-15zm0 0" fill="#5b4025"/><path d="m487.328125 454.816406-16.929687-29.03125h-42.492188l-16.929688 29.03125c-.625 1.078125-.632812 2.40625-.011718 3.488282.617187 1.082031 1.769531 1.746093 3.011718 1.746093h70.351563c1.242187 0 2.394531-.664062 3.011719-1.746093.621094-1.082032.617187-2.410157-.011719-3.488282zm0 0" fill="#368c0e"/><path d="m478.199219 423.917969-17.277344-29.628907h-23.539063l-17.277343 29.628907c-.40625.699219-.40625 1.558593 0 2.257812.410156.699219 1.160156 1.128907 1.976562 1.128907h54.140625c.816406 0 1.570313-.429688 1.980469-1.128907.402344-.699219.402344-1.558593-.003906-2.257812zm0 0" fill="#89c947"/><path d="m431.957031 395.6875c-.816406 0-1.566406-.433594-1.972656-1.132812-.410156-.695313-.410156-1.558594 0-2.257813l17.195313-29.484375c.402343-.699219 1.15625-1.128906 1.972656-1.128906.8125 0 1.566406.429687 1.976562 1.128906l17.191406 29.484375c.40625.699219.40625 1.5625 0 2.257813-.40625.699218-1.160156 1.132812-1.972656 1.132812zm0 0" fill="#368c0e"/><path d="m80.976562 475.046875h8.625v-22.902344h-15v23.570313c2.078126-.421875 4.203126-.667969 6.375-.667969zm0 0" fill="#775436"/><path d="m120.277344 447.910156-16.628906-28.515625h-43.097657l-16.625 28.515625c-.628906 1.074219-.632812 2.40625-.011719 3.484375.617188 1.082031 1.769532 1.75 3.011719 1.75h70.351563c1.242187 0 2.394531-.667969 3.011718-1.75.617188-1.078125.613282-2.410156-.011718-3.484375zm0 0" fill="#266d00"/><path d="m111.148438 417.007812-17.046876-29.230468h-24l-17.046874 29.230468c-.410157.699219-.410157 1.5625 0 2.261719.40625.695313 1.160156 1.128907 1.976562 1.128907h54.140625c.8125 0 1.566406-.433594 1.976563-1.128907.40625-.703125.40625-1.5625 0-2.261719zm0 0" fill="#89c947"/><path d="m64.90625 388.777344c-.816406 0-1.566406-.429688-1.976562-1.132813-.40625-.695312-.40625-1.558593 0-2.257812l17.195312-29.484375c.40625-.699219 1.15625-1.128906 1.976562-1.128906.8125 0 1.566407.429687 1.972657 1.128906l17.195312 29.484375c.40625.699219.40625 1.5625 0 2.257812-.410156.703125-1.160156 1.132813-1.976562 1.132813zm0 0" fill="#266d00"/><path d="m138.89075 70.133062c0-1.675781 1.1875-3.730468 2.636719-4.566406l9.609375-5.554687c1.449218-.839844 3.824218-.839844 5.277343 0l9.609375 5.554687c1.449219.835938 2.636719 2.890625 2.636719 4.566406v11.113282c0 1.675781-1.1875 3.730468-2.636719 4.570312l-9.609375 5.550781c-1.453125.839844-3.828125.839844-5.277343 0l-9.609375-5.550781c-1.449219-.839844-2.636719-2.898437-2.636719-4.570312zm0 0" fill="#e3fffe" stroke="#e3fffe" stroke-miterlimit="10" transform="translate(-3.250125 -.00025)"/><path d="m70.964844 209.199219c0-1.675781 1.1875-3.730469 2.636718-4.566407l9.609376-5.554687c1.453124-.835937 3.828124-.835937 5.277343 0l9.609375 5.554687c1.453125.835938 2.640625 2.894532 2.640625 4.566407v11.113281c0 1.675781-1.1875 3.730469-2.640625 4.570312l-9.609375 5.554688c-1.449219.835938-3.824219.835938-5.277343 0l-9.609376-5.554688c-1.449218-.839843-2.636718-2.894531-2.636718-4.570312zm0 0" fill="#c7fffd"/><path d="m467.726562 169.613281c0-1.675781 1.1875-3.734375 2.636719-4.570312l9.613281-5.554688c1.449219-.835937 3.824219-.835937 5.273438 0l9.609375 5.554688c1.453125.835937 2.640625 2.894531 2.640625 4.570312v11.109375c0 1.675782-1.1875 3.730469-2.640625 4.570313l-9.609375 5.554687c-1.449219.839844-3.824219.839844-5.273438 0l-9.613281-5.554687c-1.449219-.839844-2.636719-2.894531-2.636719-4.570313zm0 0" fill="#a2f9f9"/><path d="m44.238281 26.351562c0-1.675781 1.1875-3.734374 2.636719-4.570312l9.613281-5.550781c1.449219-.839844 3.824219-.839844 5.273438 0l9.609375 5.550781c1.453125.839844 2.640625 2.894531 2.640625 4.570312v11.109376c0 1.679687-1.1875 3.734374-2.640625 4.570312l-9.609375 5.554688c-1.449219.839843-3.824219.839843-5.273438 0l-9.613281-5.554688c-1.449219-.835938-2.636719-2.894531-2.636719-4.570312zm0 0" fill="#c7fffd"/><path d="m449.769531 10.75c0-1.675781 1.1875-3.730469 2.636719-4.566406l9.609375-5.554688c1.453125-.839844 3.824219-.839844 5.277344 0l9.609375 5.554688c1.449218.835937 2.636718 2.890625 2.636718 4.566406v11.113281c0 1.675781-1.183593 3.730469-2.636718 4.570313l-9.609375 5.550781c-1.453125.839844-3.824219.839844-5.277344 0l-9.609375-5.550781c-1.449219-.839844-2.636719-2.898438-2.636719-4.570313zm0 0" fill="#c7fffd"/><path d="m178.293094 498.00025c-4.109375-13.847656-16.929688-23.953125-32.117188-23.953125h-61.949219c-15.191406 0-28.007812 10.105469-32.121093 23.953125zm0 0" fill="#e3fffe" stroke="#e3fffe" stroke-miterlimit="10" transform="translate(-3.250125 -.00025)"/><path d="m480.898563 498.00025c-3.410157-8.484375-11.707032-14.480469-21.417969-14.480469h-42.675781c-9.707032 0-18.003907 5.996094-21.417969 14.480469zm0 0" fill="#e3fffe" stroke="#e3fffe" stroke-miterlimit="10" transform="translate(-3.250125 -.00025)"/><path d="m497.5 512h-489.5c-4.144531 0-7.5-3.355469-7.5-7.5s3.355469-7.5 7.5-7.5h489.5c4.144531 0 7.5 3.355469 7.5 7.5 0 4.140625-3.359375 7.5-7.5 7.5zm0 0" fill="#c7fffd"/></svg>