<svg id="Capa_1" enable-background="new 0 0 512 512" height="512" viewBox="0 0 512 512" width="512" xmlns="http://www.w3.org/2000/svg"><g><path d="m497 150h-482c-8.284 0-15-6.716-15-15v-60c0-24.813 20.187-45 45-45h422c24.813 0 45 20.187 45 45v60c0 8.284-6.716 15-15 15z" fill="#ff8493"/><path d="m467 30h-211v120h241c8.284 0 15-6.716 15-15v-60c0-24.813-20.187-45-45-45z" fill="#ff405c"/><path d="m0 135v332c0 24.813 20.187 45 45 45h422c24.813 0 45-20.187 45-45v-332z" fill="#f9f9f9"/><path d="m256 512h211c24.813 0 45-20.187 45-45v-332h-256z" fill="#e2dff4"/><path d="m406 90c-8.284 0-15-6.716-15-15v-60c0-8.284 6.716-15 15-15s15 6.716 15 15v60c0 8.284-6.716 15-15 15z" fill="#ffc178"/><path d="m306 90c-8.284 0-15-6.716-15-15v-60c0-8.284 6.716-15 15-15s15 6.716 15 15v60c0 8.284-6.716 15-15 15z" fill="#ffc178"/><path d="m206 90c-8.284 0-15-6.716-15-15v-60c0-8.284 6.716-15 15-15s15 6.716 15 15v60c0 8.284-6.716 15-15 15z" fill="#fff17d"/><path d="m106 90c-8.284 0-15-6.716-15-15v-60c0-8.284 6.716-15 15-15s15 6.716 15 15v60c0 8.284-6.716 15-15 15z" fill="#fff17d"/><path d="m256 304.5c-6.903 0-12.5-5.597-12.5-12.5v-87.5h-8.874c-6.904 0-12.5-5.597-12.5-12.5s5.596-12.5 12.5-12.5h21.374c6.904 0 12.5 5.597 12.5 12.5v100c0 6.903-5.596 12.5-12.5 12.5z" fill="#453d83"/><path d="m268.5 292v-100c0-6.903-5.596-12.5-12.5-12.5v125c6.904 0 12.5-5.597 12.5-12.5z" fill="#2d2755"/><path d="m153.752 432.586-33.488-88.736c-.043-.114-.088-.228-.134-.341-2.252-5.474-7.528-9.009-13.447-9.009-.004 0-.01 0-.015 0-5.924.006-11.201 3.553-13.443 9.037-.038.093-.075.188-.111.282l-33.795 88.732c-2.457 6.452.781 13.673 7.232 16.131 1.465.558 2.968.822 4.447.822 5.037 0 9.785-3.067 11.684-8.054l5.35-14.048h37.042l5.288 14.013c2.438 6.459 9.65 9.719 16.108 7.281 6.46-2.439 9.719-9.651 7.282-16.11zm-56.199-30.185 9.084-23.852 9.002 23.852z" fill="#453d83"/><g fill="#2d2755"><path d="m407.374 449.245c-6.001-1.028-10.389-6.231-10.389-12.32v-89.925c0-6.903 5.597-12.5 12.5-12.5 6.904 0 12.5 5.597 12.5 12.5v77.496c5.986-.01 13.176-.04 18.945-.072 6.902-.075 12.531 5.527 12.57 12.43s-5.527 12.531-12.43 12.57c-10.325.058-32.794-.025-33.696-.179z"/><path d="m365 449.5c-6.903 0-12.5-5.597-12.5-12.5v-90c0-6.903 5.597-12.5 12.5-12.5s12.5 5.597 12.5 12.5v90c0 6.903-5.597 12.5-12.5 12.5z"/><path d="m310.778 404.194c14.392-4.962 24.722-18.239 24.722-33.804 0-19.79-16.694-35.89-37.213-35.89h-23.917c-.005 0-.01.001-.015.001s-.009-.001-.014-.001c-6.903 0-12.5 5.597-12.5 12.5v90c0 6.903 5.597 12.5 12.5 12.5s12.5-5.597 12.5-12.5v-22.164l26.775 30.422c2.471 2.808 5.921 4.242 9.388 4.242 2.933 0 5.879-1.026 8.253-3.117 5.183-4.561 5.686-12.459 1.125-17.642zm-12.491-44.694c6.62 0 12.213 4.987 12.213 10.89s-5.593 10.89-12.213 10.89c-2.7 0-7.061.017-11.32.037-.02-4.157-.037-8.374-.037-10.927 0-2.198-.01-6.538-.022-10.89z"/></g><path d="m208.104 334.5h-25.06c-3.322 0-6.508 1.322-8.853 3.675-2.336 2.344-3.645 5.517-3.645 8.825h-.002v90c0 6.903 5.597 12.5 12.5 12.5s12.5-5.597 12.5-12.5v-26.66c4.7-.023 9.633-.044 12.56-.044 21.171 0 38.396-17.001 38.396-37.898s-17.224-37.898-38.396-37.898zm0 50.796c-2.955 0-7.807.02-12.454.042-.023-4.849-.044-9.947-.044-12.94 0-2.568-.012-7.825-.026-12.898h12.523c7.261 0 13.396 5.907 13.396 12.898s-6.133 12.898-13.395 12.898z" fill="#453d83"/></g></svg>