<svg height="512pt" viewBox="0 0 512 512" width="512pt" xmlns="http://www.w3.org/2000/svg"><path d="m391 181v210h-210v-90l75-24.902344 15-5.097656 30-90zm0 0" fill="#979fef"/><path d="m391 181v210h-135v-114.902344l15-5.097656 30-90zm0 0" fill="#737ee6"/><path d="m301 121v60l-90 30-30 90h-60v-180zm0 0" fill="#ffda2d"/><path d="m301 121v60l-45 15v-75zm0 0" fill="#fdbf00"/><path d="m76 31h75v30h-75zm0 0" fill="#61729b"/><path d="m181 31h30v30h-30zm0 0" fill="#61729b"/><path d="m241 31h30v30h-30zm0 0" fill="#61729b"/><path d="m301 31h30v30h-30zm0 0" fill="#47568c"/><path d="m361 31h75v30h-75zm0 0" fill="#47568c"/><path d="m76 451h75v30h-75zm0 0" fill="#61729b"/><path d="m181 451h30v30h-30zm0 0" fill="#61729b"/><path d="m241 451h30v30h-30zm0 0" fill="#61729b"/><path d="m301 451h30v30h-30zm0 0" fill="#47568c"/><path d="m361 451h75v30h-75zm0 0" fill="#47568c"/><path d="m31 361h30v75h-30zm0 0" fill="#61729b"/><path d="m31 301h30v30h-30zm0 0" fill="#61729b"/><path d="m31 241h30v30h-30zm0 0" fill="#61729b"/><path d="m31 181h30v30h-30zm0 0" fill="#61729b"/><path d="m31 76h30v75h-30zm0 0" fill="#61729b"/><g fill="#47568c"><path d="m451 361h30v75h-30zm0 0"/><path d="m451 301h30v30h-30zm0 0"/><path d="m451 241h30v30h-30zm0 0"/><path d="m451 181h30v30h-30zm0 0"/><path d="m451 76h30v75h-30zm0 0"/><path d="m256 31h15v30h-15zm0 0"/><path d="m256 451h15v30h-15zm0 0"/></g><path d="m91 91h-91v-91h91zm0 0" fill="#979fef"/><path d="m512 91h-91v-91h91zm0 0" fill="#737ee6"/><path d="m512 512h-91v-91h91zm0 0" fill="#737ee6"/><path d="m91 512h-91v-91h91zm0 0" fill="#979fef"/><path d="m181 181h120v120h-120zm0 0" fill="#e0f4ff"/><path d="m256 181h45v120h-45zm0 0" fill="#bbdcff"/></svg>