<?xml version="1.0" encoding="iso-8859-1"?>
<!-- Generator: Adobe Illustrator 21.0.0, SVG Export Plug-In . SVG Version: 6.00 Build 0)  -->
<svg xmlns="http://www.w3.org/2000/svg" xmlns:xlink="http://www.w3.org/1999/xlink" version="1.1" id="Capa_1" x="0px" y="0px" viewBox="0 0 512 512" style="enable-background:new 0 0 512 512;" xml:space="preserve" width="512" height="512">
<g>
	<g>
		<path style="fill:#F9CFBF;" d="M136.14,429.904c-10.947-30.786-5.534-65.916,13.964-92.093    c17.742-23.819,45.65-39.088,75.062-42.344c19.574-2.166,39.678,0.885,57.722,8.778c-12.063-31.528-7.416-67.235,10.711-95.495    c8.271-12.895,19.255-21.659,31.379-30.589c13.042-9.606,30.107-15.197,45.998-17.398c31.187-4.32,63.777,3.837,88.934,22.821    c25.528,19.264,41.401,48.929,44.543,80.653c3.159,31.898-6.193,63.14-22.804,90.225c-2.08,3.391-4.266,6.717-6.548,9.975    c0,0-27.048,31.649-37.474,40.753c-98.255,85.793-235.699,115.135-365.422,104.84c-5.148-1.03-9.266-2.059-13.384-5.148    c-3.089-3.089-6.177-8.236-8.236-12.355c-1.03-2.059-2.059-4.118-4.118-7.207c-18.532-27.798-26.768-56.625-32.946-88.541    c-4.118-16.473-5.148-32.945-6.177-49.418c-1.03-19.561,0-38.093,2.059-57.655c3.089-19.561,6.387-37.793,10.295-56.625    c5.663-27.283,17.301-56.26,17.301-56.26c7.409-23.015,19.763-44.635,26.97-67.285c-1.03-15.443-1.03-31.916,5.148-47.359    c2.059-5.148,3.089-10.295,6.177-15.443c1.03-1.03,2.059-2.059,3.089-3.089c13.384-23.68,38.093-37.064,63.832-41.182    c17.502-2.059,33.975-3.089,50.448-2.059c9.266,1.03,17.502,6.177,23.68,13.384c11.325,15.443,14.414,32.946,19.561,50.448    c1.03,4.118,1.03,8.236-1.03,11.325c-1.03,2.059-2.059,5.148-3.089,7.207c-9.266,13.384-25.739,16.473-39.123,23.68    c-11.325,5.148-23.68-2.059-27.798-13.384c-1.03-1.03-2.059-2.059-3.089-3.089l-3.478,0.166c0,0-4.912,16.786-40.912,31.158    l0.754,5.781c52.584,112.813,28.369,217.373,28.369,217.373"/>
		<g>
			<path style="fill:#F6B99C;" d="M136.036,425.607c0,0,3.089-67.95,11.325-85.452c11.325-60.743,3.864-142.092-29.223-213.075     l-0.754-5.781c0.12-0.438-25.619,2.651-37.064,0l0.754,5.781C126.77,212.491,134.94,427.078,136.036,425.607z"/>
			<path style="fill:#F6B99C;" d="M225.166,295.467c-2.06,0.228-4.111,0.521-6.153,0.866c9.216,1.525,18.247,4.166,26.811,7.913     c-1.175-3.071-2.187-6.183-3.048-9.323C236.904,294.649,231.011,294.82,225.166,295.467z"/>
			<path style="fill:#F6B99C;" d="M179.277,13.788c11.325,15.443,14.414,32.946,19.561,50.448c1.03,4.118,1.03,8.236-1.03,11.325     c-1.03,2.059-2.059,5.148-3.089,7.207c-6.299,9.098-15.927,13.438-25.652,17.549c5.724,6.792,14.956,10.056,23.593,6.131     c13.384-7.207,29.857-10.295,39.123-23.68c1.03-2.059,2.059-5.148,3.089-7.207c2.059-3.089,2.059-7.207,1.03-11.325     c-5.148-17.502-8.236-35.005-19.561-50.448c-6.177-7.207-14.414-12.355-23.68-13.384c-11.283-0.705-22.573-0.429-34.187,0.467     C166.565,2.546,173.748,7.337,179.277,13.788z"/>
			<path style="fill:#F6B99C;" d="M504.452,264.237c-3.142-31.724-19.014-61.389-44.543-80.653     c-25.157-18.984-57.747-27.141-88.934-22.821c-0.656,0.091-1.316,0.197-1.976,0.299c19.417,2.99,38.09,10.632,53.846,22.522     c25.528,19.264,41.401,48.929,44.543,80.653c3.159,31.898-6.193,63.14-22.804,90.225c-2.08,3.391-4.266,6.717-6.548,9.975     c0,0-27.048,31.649-37.474,40.753c-81.21,70.91-189.193,103.253-297.459,106.529c120.318,3.611,244.039-27.52,334.523-106.529     c10.426-9.103,37.474-40.753,37.474-40.753c2.282-3.258,4.468-6.584,6.548-9.975     C498.259,327.377,507.611,296.136,504.452,264.237z"/>
		</g>
		<g>
			<path style="fill:#F6B99C;" d="M166.923,0.404c9.266,1.03,17.502,6.177,23.68,13.384c11.325,15.443,14.414,32.946,19.561,50.448     c1.03,4.118,1.03,8.236-1.03,11.325c-1.03,2.059-2.059,5.148-3.089,7.207c-2.078,3.002-4.519,5.486-7.207,7.615     c-7.656,6.065-17.312,9.247-26.281,13.305c5.612,4.38,13.057,5.962,20.104,2.759c13.384-7.207,29.857-10.295,39.123-23.68     c1.03-2.059,2.059-5.148,3.089-7.207c2.059-3.089,2.059-7.207,1.03-11.325c-5.148-17.502-8.236-35.005-19.561-50.448     c-6.177-7.207-14.414-12.355-23.68-13.384c-8.773-0.548-17.551-0.499-26.479-0.035C166.429,0.384,166.676,0.389,166.923,0.404z"/>
			<path style="fill:#F6B99C;" d="M282.232,302.061c0,0-81.632-31.117-134.871,38.093c-10.295,13.384-24.709,49.418-11.325,90.6     c0,0,2.429-57.75,53.536-97.807C227.666,303.091,282.232,302.061,282.232,302.061z"/>
		</g>
		<path style="fill:#F6B99C;" d="M186.484,61.147c0,0-12.355-11.325-24.709-2.059c-12.355,9.266-12.355,19.561-3.089,31.916    c9.266,12.355,17.502,17.502,23.68,17.502c6.177,0,18.28-2.385,28.827-10.295c8.236-6.177-3.089-16.473-3.089-16.473    s-21.066,21.336-35.005-5.148C162.804,57.029,186.484,61.147,186.484,61.147z"/>
	</g>
	<path style="fill:none;stroke:#000000;stroke-width:15;stroke-linecap:round;stroke-linejoin:round;stroke-miterlimit:10;" d="   M188.543,96.152"/>
</g>















</svg>
