<svg height="512pt" viewBox="0 0 512 512.00172" width="512pt" xmlns="http://www.w3.org/2000/svg"><path d="m459.871094 249.964844c0 111.367187-90.28125 201.648437-201.648438 201.648437-111.367187 0-201.648437-90.28125-201.648437-201.648437 0-111.367188 90.28125-201.648438 201.648437-201.648438 111.367188 0 201.648438 90.28125 201.648438 201.648438zm0 0" fill="#6398ff"/><path d="m308.636719 409.601562c-111.367188 0-201.648438-90.28125-201.648438-201.648437 0-50.421875 18.507813-96.523437 49.101563-131.878906-59.546875 35.050781-99.515625 99.796875-99.515625 173.890625 0 111.367187 90.28125 201.648437 201.648437 201.648437 60.945313 0 115.574219-27.035156 152.546875-69.769531-29.953125 17.632812-64.859375 27.757812-102.132812 27.757812zm0 0" fill="#2157c2"/><path d="m258.222656 451.613281c51.445313 0 98.378906-19.273437 134.003906-50.984375l-72.667968-96.890625c-1.585938-2.117187-4.078125-3.363281-6.722656-3.363281h-63.015626l-8.402343-50.410156s-8.402344-25.207032-16.800781-25.207032c-6.082032 0-12.160157-17.589843-15.054688-27.320312-1.09375-3.667969.453125-7.609375 3.734375-9.578125l36.523437-21.914063s75.621094-25.207031 84.023438-33.609374c4.175781-4.175782 20.808594-27.039063 36.480469-50.007813-32.058594-21.476563-70.613281-34.011719-112.101563-34.011719-74.636718 0-139.796875 40.550782-174.664062 100.824219h40.230468l33.609376 25.207031 42.011718 75.617188 8.046875 72.421875c.226563 2.058593-.3125 4.128906-1.515625 5.8125l-40.140625 56.199219-48.914062 9.375c36.390625 35.769531 86.28125 57.839843 141.335937 57.839843zm0 0" fill="#74d8f3"/><path d="m83.558594 149.140625h32.152344c8.300781-27.261719 22.207031-52.074219 40.394531-73.089844-30.035157 17.675781-55.089844 42.910157-72.546875 73.089844zm0 0" fill="#3db5d4"/><path d="m180.570312 363.71875-14.769531 20.679688-48.914062 9.375c36.390625 35.769531 86.28125 57.839843 141.335937 57.839843 51.445313 0 98.378906-19.273437 134.003906-50.984375l-5.140624-6.855468c-24.113282 10.191406-50.625 15.828124-78.449219 15.828124-48.628907 0-93.238281-17.214843-128.066407-45.882812zm0 0" fill="#3db5d4"/><path d="m384.253906 140.738281-7.230468 43.390625c-.675782 4.050782-4.179688 7.019532-8.289063 7.019532h-36.40625c-4.003906 0-7.453125 2.828124-8.238281 6.753906l-6.265625 31.316406c-.496094 2.492188.15625 5.078125 1.785156 7.027344l37.945313 45.535156c.960937 1.152344 2.207031 2.027344 3.621093 2.53125 6.253907 2.226562 24.5625 9.144531 31.480469 16.0625 4.316406 4.316406 26.378906 21.941406 46.808594 38.0625 13.066406-26.714844 20.40625-56.734375 20.40625-88.472656 0-53.945313-21.183594-102.945313-55.683594-139.128906zm0 0" fill="#74d8f3"/><g fill="#b6abb6"><path d="m302.015625 497.808594c-3.644531 0-6.914063-2.542969-7.699219-6.25-.898437-4.253906 1.820313-8.433594 6.078125-9.335938 2.636719-.558594 5.300781-1.167968 7.921875-1.816406 4.21875-1.039062 8.492188 1.527344 9.539063 5.75 1.042969 4.222656-1.53125 8.496094-5.753907 9.542969-2.792968.691406-5.636718 1.34375-8.449218 1.9375-.550782.117187-1.097656.171875-1.636719.171875zm0 0"/><path d="m251.394531 503.074219c-4.347656 0-7.894531-3.527344-7.894531-7.878907 0-4.347656 3.507812-7.875 7.859375-7.875 5.5 0 11.023437-.1875 16.457031-.5625 4.339844-.304687 8.097656 2.980469 8.394532 7.320313.300781 4.339844-2.976563 8.097656-7.316407 8.398437-5.792969.398438-11.679687.597657-17.5.597657zm-33.925781-2.34375c-.359375 0-.726562-.023438-1.09375-.078125-5.769531-.800782-11.585938-1.820313-17.289062-3.027344-4.253907-.898438-6.976563-5.078125-6.074219-9.335938.898437-4.253906 5.074219-6.976562 9.335937-6.078124 5.34375 1.132812 10.792969 2.085937 16.199219 2.839843 4.308594.601563 7.316406 4.578125 6.714844 8.890625-.546875 3.9375-3.921875 6.789063-7.792969 6.789063zm-49.449219-12.292969c-.894531 0-1.804687-.152344-2.691406-.476562-5.484375-1.996094-10.964844-4.214844-16.296875-6.59375-3.972656-1.773438-5.753906-6.429688-3.980469-10.402344 1.769531-3.972656 6.425781-5.757813 10.402344-3.980469 4.992187 2.226563 10.128906 4.304687 15.261719 6.171875 4.089844 1.488281 6.195312 6.011719 4.707031 10.097656-1.164063 3.199219-4.183594 5.183594-7.402344 5.183594zm-45.789062-22.371094c-1.425781 0-2.871094-.390625-4.171875-1.203125-4.929688-3.085937-9.820313-6.394531-14.546875-9.832031-3.515625-2.558594-4.292969-7.484375-1.734375-11.003906 2.558594-3.515625 7.484375-4.296875 11.003906-1.734375 4.429688 3.222656 9.019531 6.324219 13.640625 9.21875 3.683594 2.308593 4.800781 7.167969 2.492187 10.855469-1.492187 2.390624-4.058593 3.699218-6.683593 3.699218zm-40.109375-31.390625c-1.96875 0-3.941406-.734375-5.46875-2.210937-4.1875-4.046875-8.289063-8.292969-12.191406-12.621094-2.910157-3.230469-2.652344-8.210938.578124-11.125 3.230469-2.910156 8.210938-2.652344 11.125.578125 3.65625 4.0625 7.503907 8.042969 11.433594 11.839844 3.125 3.019531 3.214844 8.007812.191406 11.136719-1.546874 1.597656-3.605468 2.402343-5.667968 2.402343zm-32.738282-38.984375c-2.527343 0-5.007812-1.214844-6.53125-3.46875-3.261718-4.820312-6.390624-9.820312-9.308593-14.863281-2.179688-3.765625-.894531-8.585937 2.871093-10.765625 3.765626-2.175781 8.582032-.894531 10.761719 2.871094 2.738281 4.726562 5.671875 9.417968 8.726563 13.9375 2.4375 3.601562 1.492187 8.5-2.113282 10.9375-1.351562.914062-2.886718 1.351562-4.40625 1.351562zm-23.933593-44.90625c-3.117188 0-6.066407-1.863281-7.304688-4.925781-2.1875-5.398437-4.210937-10.949219-6.011719-16.492187-1.34375-4.136719.917969-8.582032 5.054688-9.925782s8.582031.917969 9.925781 5.054688c1.6875 5.191406 3.582031 10.394531 5.632813 15.453125 1.632812 4.035156-.316406 8.625-4.347656 10.257812-.964844.390625-1.964844.578125-2.949219.578125zm-14.042969-48.949218c-3.753906 0-7.078125-2.691407-7.75-6.515626-1.003906-5.734374-1.824219-11.582031-2.425781-17.382812-.453125-4.324219 2.6875-8.199219 7.015625-8.648438 4.316406-.445312 8.199218 2.691407 8.652344 7.019532.566406 5.429687 1.332031 10.914062 2.273437 16.289062.753906 4.285156-2.109375 8.367188-6.394531 9.117188-.460938.082031-.917969.121094-1.371094.121094zm-3.523438-50.796876c-.089843 0-.179687 0-.269531-.003906-4.351562-.148437-7.753906-3.789062-7.60937475-8.136718.19921875-5.832032.60156275-11.71875 1.19921875-17.503907.445313-4.324219 4.320313-7.46875 8.640625-7.023437 4.328125.445312 7.476562 4.316406 7.027344 8.644531-.558594 5.421875-.9375 10.945313-1.121094 16.414063-.144531 4.257812-3.640625 7.609374-7.867188 7.609374zm485.796876-17.574218c-3.980469 0-7.394532-3.003906-7.824219-7.046875-.574219-5.4375-1.347657-10.917969-2.300781-16.289063-.757813-4.28125 2.101562-8.371094 6.382812-9.128906 4.285156-.761719 8.371094 2.097656 9.128906 6.382812 1.015625 5.730469 1.839844 11.574219 2.457032 17.375.457031 4.328126-2.679688 8.207032-7.003907 8.664063-.285156.027344-.5625.042969-.839843.042969zm-478.792969-32.851563c-.628907 0-1.265625-.078125-1.902344-.234375-4.222656-1.046875-6.796875-5.316406-5.75-9.539062 1.398437-5.660156 3.023437-11.339844 4.816406-16.878906 1.34375-4.140626 5.78125-6.410157 9.921875-5.066407 4.136719 1.339844 6.40625 5.78125 5.066406 9.921875-1.683593 5.191406-3.203124 10.511719-4.515624 15.8125-.886719 3.585938-4.101563 5.984375-7.636719 5.984375zm468.164062-16.941406c-3.316406 0-6.398437-2.109375-7.484375-5.433594-1.691406-5.179687-3.59375-10.367187-5.648437-15.421875-1.636719-4.03125.304687-8.625 4.332031-10.261718 4.03125-1.640626 8.628906.300781 10.265625 4.332031 2.191406 5.394531 4.21875 10.933593 6.027344 16.460937 1.351562 4.132813-.90625 8.582032-5.042969 9.933594-.8125.265625-1.636719.390625-2.449219.390625zm-450.785156-30.9375c-1.160156 0-2.335937-.257813-3.449219-.800781-3.910156-1.90625-5.53125-6.621094-3.625-10.53125 2.554688-5.238282 5.332032-10.457032 8.25-15.507813 2.175782-3.769531 6.992188-5.058593 10.761719-2.882812 3.765625 2.175781 5.054687 6.992187 2.878906 10.761719-2.734375 4.734374-5.335937 9.625-7.730469 14.535156-1.367187 2.796875-4.167968 4.425781-7.085937 4.425781zm430-15.492187c-2.714844 0-5.359375-1.40625-6.820313-3.921876-2.742187-4.722656-5.683593-9.40625-8.746093-13.925781-2.441407-3.597656-1.5-8.496093 2.097656-10.9375 3.601563-2.441406 8.5-1.503906 10.941406 2.097657 3.265625 4.820312 6.40625 9.816406 9.332031 14.851562 2.183594 3.765625.90625 8.585938-2.855468 10.769531-1.246094.722657-2.605469 1.066407-3.949219 1.066407zm-402.996094-27.710938c-1.699219 0-3.40625-.542969-4.84375-1.667969-3.429687-2.679687-4.039062-7.628906-1.359375-11.058593 3.585938-4.589844 7.382813-9.113282 11.28125-13.445313 2.910156-3.234375 7.890625-3.5 11.125-.589844 3.234375 2.910157 3.496094 7.890625.585938 11.125-3.65625 4.0625-7.214844 8.304688-10.578125 12.609375-1.550781 1.988282-3.871094 3.027344-6.210938 3.027344zm372.976563-13.410156c-2.152344 0-4.292969-.875-5.847656-2.597656-3.660157-4.050782-7.515626-8.03125-11.449219-11.820313-3.132813-3.015625-3.226563-8.003906-.207031-11.136719 3.015624-3.132812 8.003906-3.226562 11.136718-.207031 4.195313 4.039063 8.304688 8.28125 12.210938 12.605469 2.914062 3.226562 2.660156 8.207031-.566406 11.125-1.507813 1.363281-3.394532 2.03125-5.277344 2.03125zm-337.613282-23.246094c-2.246093 0-4.472656-.953125-6.03125-2.804688-2.800781-3.328124-2.371093-8.296874.957032-11.097656 4.460937-3.753906 9.109375-7.398437 13.808594-10.824218 3.515624-2.558594 8.441406-1.785157 11.007812 1.730468 2.5625 3.515625 1.789062 8.441406-1.726562 11.003906-4.40625 3.210938-8.765626 6.625-12.949219 10.144532-1.476563 1.242187-3.277344 1.847656-5.066407 1.847656zm299.722657-10.789062c-1.605469 0-3.222657-.492188-4.621094-1.503907-4.425781-3.214843-9.019531-6.308593-13.652344-9.199219-3.691406-2.304687-4.8125-7.164062-2.511719-10.851562 2.304688-3.691406 7.164063-4.820312 10.855469-2.511719 4.941407 3.082031 9.839844 6.382813 14.558594 9.8125 3.523437 2.554688 4.304687 7.480469 1.75 11-1.539063 2.125-3.941406 3.253907-6.378906 3.253907zm-257.570313-17.742188c-2.8125 0-5.535156-1.511719-6.953125-4.167969-2.050781-3.839843-.601562-8.609375 3.238281-10.660156 5.140626-2.746094 10.4375-5.339844 15.75-7.714844 3.972657-1.773437 8.628907.003907 10.402344 3.976563 1.777344 3.972656-.003906 8.628906-3.972656 10.40625-4.976562 2.222656-9.941406 4.65625-14.757812 7.226562-1.183594.632813-2.453126.933594-3.707032.933594zm213.441406-7.707031c-1.070312 0-2.15625-.21875-3.195312-.683594-4.992188-2.214844-10.128906-4.285156-15.273438-6.152344-4.089843-1.480469-6.203124-6-4.722656-10.089843 1.484375-4.089844 6.003906-6.203126 10.089844-4.71875 5.492188 1.992187 10.976562 4.199218 16.300781 6.566406 3.976563 1.769531 5.765625 6.421875 4 10.398437-1.300781 2.933594-4.183593 4.679688-7.199219 4.679688zm-166.277343-11.425781c-3.421875 0-6.574219-2.25-7.566407-5.703126-1.203124-4.179687 1.210938-8.542968 5.394532-9.746093 5.597656-1.609375 11.328125-3.042969 17.027344-4.253907 4.261718-.898437 8.441406 1.8125 9.34375 6.066407.90625 4.253906-1.8125 8.4375-6.066407 9.34375-5.339843 1.136719-10.707031 2.476562-15.953125 3.984375-.726562.210937-1.460937.308594-2.179687.308594zm117.792969-4.25c-.535157 0-1.082032-.054688-1.628907-.167969-5.339843-1.121094-10.792969-2.070313-16.203125-2.816407-4.3125-.59375-7.324218-4.570312-6.726562-8.878906.589844-4.3125 4.566406-7.320312 8.878906-6.726562 5.773438.796875 11.59375 1.808594 17.289062 3.003906 4.257813.894531 6.984376 5.070312 6.089844 9.328125-.777344 3.710937-4.050781 6.257813-7.699218 6.257813zm-67.65625-4.601563c-4.101563 0-7.558594-3.171875-7.851563-7.324219-.304687-4.339844 2.96875-8.105468 7.308594-8.410156 5.800781-.40625 11.699219-.6171875 17.53125-.625h.007812c4.347657 0 7.875 3.519531 7.878907 7.867188.003906 4.351562-3.515626 7.882812-7.867188 7.886718-5.472656.007813-11.007812.203125-16.449219.585938-.1875.015625-.375.019531-.558593.019531zm0 0"/><path d="m494.492188 276.21875c-.179688 0-.359376-.007812-.542969-.019531-4.339844-.292969-7.617188-4.050781-7.324219-8.394531.183594-2.691407.324219-5.425782.414062-8.121094.148438-4.347656 3.777344-7.738282 8.140626-7.605469 4.347656.148437 7.753906 3.792969 7.605468 8.140625-.097656 2.875-.246094 5.789062-.441406 8.660156-.285156 4.15625-3.746094 7.339844-7.851562 7.339844zm0 0"/></g><path d="m317.332031 315.039062 120.308594 22.277344c1.53125.285156 2.78125 1.398438 3.246094 2.886719.460937 1.488281.0625 3.113281-1.042969 4.214844l-51.984375 51.984375c-1.519531 1.523437-3.945313 1.648437-5.617187.292968l-78.71875-63.867187c-.113282-.09375-.222657-.191406-.324219-.292969-.730469-.730468-1.171875-1.710937-1.226563-2.753906-.058594-1.1875.386719-2.347656 1.226563-3.1875l10.398437-10.398438c.976563-.976562 2.375-1.410156 3.734375-1.15625zm0 0" fill="#ffab6f"/><path d="m473.765625 373.082031c1.492187.464844 2.601563 1.714844 2.886719 3.246094l22.277344 120.308594c.253906 1.359375-.179688 2.757812-1.160157 3.734375l-10.394531 10.398437c-.84375.84375-2.003906 1.289063-3.191406 1.226563-1.042969-.054688-2.019532-.496094-2.75-1.226563-.101563-.101562-.199219-.210937-.292969-.324219l-63.867187-78.71875c-1.355469-1.671874-1.230469-4.097656.292968-5.617187l51.984375-51.984375c1.101563-1.105469 2.726563-1.503906 4.214844-1.042969zm0 0" fill="#e87844"/><path d="m318.429688 420.441406 65.355468 5.941406c1.621094.144532 3.015625 1.21875 3.570313 2.75.554687 1.535157.171875 3.25-.980469 4.402344l-35.648438 35.644532c-1.453124 1.453124-3.742187 1.644531-5.414062.449218l-41.585938-29.707031c-.191406-.132813-.367187-.285156-.527343-.445313-.699219-.699218-1.136719-1.625-1.21875-2.625-.101563-1.230468.34375-2.445312 1.21875-3.316406l11.882812-11.882812c.878907-.878906 2.109375-1.324219 3.347657-1.210938zm0 0" fill="#ffab6f"/><path d="m384.835938 426.613281c1.53125.554688 2.605468 1.949219 2.75 3.570313l5.941406 65.355468c.113281 1.238282-.332032 2.46875-1.210938 3.347657l-11.882812 11.882812c-.875.875-2.089844 1.320313-3.316406 1.21875-1-.082031-1.925782-.519531-2.625-1.21875-.164063-.160156-.3125-.335937-.449219-.527343l-29.703125-41.585938c-1.195313-1.671875-1.003906-3.960938.445312-5.414062l35.648438-35.648438c1.152344-1.152344 2.867187-1.535156 4.402344-.980469zm0 0" fill="#e87844"/><path d="m508.167969 305.800781c9.84375 9.84375-2.039063 37.6875-11.882813 47.53125l-112.882812 112.878907c-9.84375 9.84375-25.800782 9.84375-35.644532 0s-9.84375-25.800782 0-35.644532l112.878907-112.882812c9.847656-9.84375 37.6875-21.726563 47.53125-11.882813zm0 0" fill="#f0eef0"/><path d="m371.523438 454.328125 112.878906-112.878906c7.761718-7.761719 16.777344-26.699219 15.429687-39.195313 3.355469.363282 6.253907 1.464844 8.335938 3.546875 9.84375 9.84375-2.039063 37.6875-11.882813 47.53125l-112.882812 112.878907c-9.84375 9.84375-25.800782 9.84375-35.644532 0-2.085937-2.082032-3.722656-4.441407-4.921874-6.957032 9.367187 4.472656 20.925781 2.835938 28.6875-4.925781zm0 0" fill="#d3ccd3"/><path d="m347.757812 474.613281c-2.152343 0-4.300781-.820312-5.941406-2.460937-3.28125-3.28125-3.28125-8.601563 0-11.882813l29.703125-29.707031c3.28125-3.277344 8.601563-3.277344 11.882813 0 3.28125 3.285156 3.28125 8.601562 0 11.882812l-29.707032 29.707032c-1.636718 1.640625-3.789062 2.460937-5.9375 2.460937zm0 0" fill="#fcd25e"/></svg>