<svg id="Layer_1" enable-background="new 0 0 512 512" viewBox="0 0 512 512" xmlns="http://www.w3.org/2000/svg" xmlns:xlink="http://www.w3.org/1999/xlink"><linearGradient id="lg1"><stop offset="0" stop-color="#5a5a5a"/><stop offset="1" stop-color="#444"/></linearGradient><linearGradient id="SVGID_1_" gradientTransform="matrix(0 1 1 0 -2633.305 2633.305)" gradientUnits="userSpaceOnUse" x1="-2542.746" x2="-2444.583" xlink:href="#lg1" y1="2674.584" y2="2841.461"/><linearGradient id="lg2"><stop offset="0" stop-color="#433f43" stop-opacity="0"/><stop offset="1" stop-color="#1a1a1a"/></linearGradient><linearGradient id="SVGID_00000176746506655013808520000014005584637601716927_" gradientTransform="matrix(0 1 1 0 -2633.305 2633.305)" gradientUnits="userSpaceOnUse" x1="-2488.822" x2="-2488.822" xlink:href="#lg2" y1="2693.749" y2="2673.69"/><linearGradient id="SVGID_00000091013118040922162190000006740999146116548279_" gradientTransform="matrix(0 1 1 0 -2633.305 2633.305)" gradientUnits="userSpaceOnUse" x1="-2590.01" x2="-2622.986" xlink:href="#lg2" y1="2766.255" y2="2766.255"/><linearGradient id="lg3"><stop offset="0" stop-color="#ffa1ae"/><stop offset="1" stop-color="#ff4565"/></linearGradient><linearGradient id="SVGID_00000090985860114125979780000006514730491504244894_" gradientUnits="userSpaceOnUse" x1="101.261" x2="208.337" xlink:href="#lg3" y1="25.9" y2="126.651"/><linearGradient id="lg4"><stop offset="0" stop-color="#fe0364" stop-opacity="0"/><stop offset=".2343" stop-color="#f90362" stop-opacity=".234"/><stop offset=".5173" stop-color="#ea035b" stop-opacity=".517"/><stop offset=".8243" stop-color="#d20250" stop-opacity=".824"/><stop offset="1" stop-color="#c00148"/></linearGradient><linearGradient id="SVGID_00000008137280136442025270000008556640854901842824_" gradientUnits="userSpaceOnUse" x1="100.31" x2="81.936" xlink:href="#lg4" y1="69.471" y2="68.266"/><linearGradient id="SVGID_00000160894658556229390890000018259497226651709375_" gradientUnits="userSpaceOnUse" x1="191.175" x2="226.421" xlink:href="#lg4" y1="93.016" y2="93.016"/><linearGradient id="SVGID_00000075856036572926790650000013815261963273225394_" gradientUnits="userSpaceOnUse" x1="183.496" x2="183.496" xlink:href="#lg4" y1="162.519" y2="175.104"/><linearGradient id="SVGID_00000144339838111628154000000006070832631139411387_" gradientUnits="userSpaceOnUse" x1="155.785" x2="155.785" xlink:href="#lg4" y1="126.977" y2="137.497"/><linearGradient id="SVGID_00000029034524047601322230000010819673575472601764_" gradientUnits="userSpaceOnUse" x1="115.725" x2="115.725" xlink:href="#lg4" y1="150.772" y2="164.028"/><linearGradient id="SVGID_00000068639818821577823170000010429133830424969660_" gradientUnits="userSpaceOnUse" x1="162.08" x2="147.02" xlink:href="#lg4" y1="97.46" y2="94.448"/><linearGradient id="SVGID_00000131349913693213945640000011961533850577773194_" gradientUnits="userSpaceOnUse" x1="138.897" x2="121.174" xlink:href="#lg4" y1="55.691" y2="52.687"/><linearGradient id="SVGID_00000182501957436832514540000011164319678189292707_" gradientUnits="userSpaceOnUse" x1="214.123" x2="185.056" xlink:href="#lg4" y1="103.941" y2="95.206"/><linearGradient id="lg5"><stop offset="0" stop-color="#fef0ae"/><stop offset="1" stop-color="#fac600"/></linearGradient><linearGradient id="SVGID_00000061467530283596080250000001456131043648268735_" gradientUnits="userSpaceOnUse" x1="41.139" x2="96.709" xlink:href="#lg5" y1="33.574" y2="64.296"/><linearGradient id="lg6"><stop offset="0" stop-color="#fe9738" stop-opacity="0"/><stop offset="1" stop-color="#fe9738"/></linearGradient><linearGradient id="SVGID_00000067958246043695608650000002930066641431453342_" gradientUnits="userSpaceOnUse" x1="87.47" x2="105.544" xlink:href="#lg6" y1="58.482" y2="58.482"/><linearGradient id="SVGID_00000151525833872771635390000018267391993158895747_" gradientUnits="userSpaceOnUse" x1="61.538" x2="61.538" xlink:href="#lg6" y1="84.005" y2="95.428"/><linearGradient id="SVGID_00000150060534006223675080000012778881534646805438_" gradientUnits="userSpaceOnUse" x1="82.464" x2="82.464" xlink:href="#lg6" y1="97.659" y2="106.359"/><linearGradient id="SVGID_00000157279389655071315990000016101198071700561343_" gradientUnits="userSpaceOnUse" x1="105.725" x2="133.87" xlink:href="#lg5" y1="25.068" y2="32.897"/><linearGradient id="SVGID_00000017485758391394512830000005046359948171130541_" gradientUnits="userSpaceOnUse" x1="123.589" x2="132.687" xlink:href="#lg6" y1="31.491" y2="32.249"/><linearGradient id="SVGID_00000167386124735329325340000000826706144890811299_" gradientUnits="userSpaceOnUse" x1="127.866" x2="127.866" xlink:href="#lg6" y1="49.266" y2="53.559"/><linearGradient id="lg7"><stop offset="0" stop-color="#bbec6c"/><stop offset=".1974" stop-color="#b5e665"/><stop offset=".4799" stop-color="#a5d552"/><stop offset=".8118" stop-color="#8abb33"/><stop offset="1" stop-color="#78a91f"/></linearGradient><linearGradient id="SVGID_00000057842653978139818890000003389769228508741786_" gradientUnits="userSpaceOnUse" x1="71.484" x2="99.948" xlink:href="#lg7" y1="113.355" y2="141.819"/><linearGradient id="SVGID_00000029038396755671534500000002151397201214230180_" gradientUnits="userSpaceOnUse" x1="172.993" x2="223.14" xlink:href="#lg7" y1="44.193" y2="90.559"/><linearGradient id="lg8"><stop offset="0" stop-color="#334c0f" stop-opacity="0"/><stop offset=".3197" stop-color="#344c12" stop-opacity=".32"/><stop offset=".5654" stop-color="#374a1c" stop-opacity=".565"/><stop offset=".7856" stop-color="#3c482c" stop-opacity=".786"/><stop offset=".9909" stop-color="#444443" stop-opacity=".991"/><stop offset="1" stop-color="#444"/></linearGradient><linearGradient id="SVGID_00000075845877833565794000000006816371577487031173_" gradientUnits="userSpaceOnUse" x1="165.793" x2="153.745" xlink:href="#lg8" y1="88.184" y2="83.817"/><linearGradient id="SVGID_00000107567899151905705460000001970974752417772465_" gradientUnits="userSpaceOnUse" x1="223.363" x2="237.283" xlink:href="#lg8" y1="59.968" y2="59.968"/><linearGradient id="SVGID_00000103980520912848629100000007064950415673380795_" gradientUnits="userSpaceOnUse" x1="184.448" x2="184.448" xlink:href="#lg8" y1="116.31" y2="124.542"/><linearGradient id="SVGID_00000075862475144083126250000017969139694138933174_" gradientUnits="userSpaceOnUse" x1="200.899" x2="200.899" xlink:href="#lg8" y1="97.434" y2="110.312"/><linearGradient id="lg9"><stop offset="0" stop-color="#b3dafe"/><stop offset="1" stop-color="#01d0fb"/></linearGradient><linearGradient id="SVGID_00000164486857484807071900000007168448185996007333_" gradientUnits="userSpaceOnUse" x1="146.665" x2="161.725" xlink:href="#lg9" y1="74.958" y2="81.433"/><linearGradient id="lg10"><stop offset="0" stop-color="#f9f5f3"/><stop offset="1" stop-color="#efe2dd"/></linearGradient><linearGradient id="SVGID_00000061436837907251096950000015645745203703632566_" gradientTransform="matrix(0 1 1 0 -2633.305 2633.305)" gradientUnits="userSpaceOnUse" x1="-2488.822" x2="-2488.822" xlink:href="#lg10" y1="2666.345" y2="2863.909"/><linearGradient id="SVGID_00000016055699203359169340000014171113091754516102_" gradientTransform="matrix(0 1 1 0 -2633.305 2633.305)" gradientUnits="userSpaceOnUse" x1="-2488.822" x2="-2488.822" xlink:href="#lg10" y1="2843.038" y2="2651.882"/><linearGradient id="lg11"><stop offset="0" stop-color="#9e9797" stop-opacity="0"/><stop offset=".3562" stop-color="#9b9494" stop-opacity=".356"/><stop offset=".6285" stop-color="#928b8b" stop-opacity=".629"/><stop offset=".872" stop-color="#827a7a" stop-opacity=".872"/><stop offset="1" stop-color="#766e6e"/></linearGradient><linearGradient id="SVGID_00000155840613088766189680000003363165391237427625_" gradientUnits="userSpaceOnUse" x1="132.95" x2="132.95" xlink:href="#lg11" y1="271.624" y2="288.785"/><linearGradient id="SVGID_00000161619748070110968990000007306662557512085182_" gradientTransform="matrix(0 1 1 0 -2633.305 2633.305)" gradientUnits="userSpaceOnUse" x1="-2488.822" x2="-2488.822" xlink:href="#lg11" y1="2861.853" y2="2874.532"/><linearGradient id="SVGID_00000143578195080768158320000000151638187980266138_" gradientUnits="userSpaceOnUse" x1="194.144" x2="218.537" xlink:href="#lg5" y1="163.867" y2="168.672"/><linearGradient id="SVGID_00000101788643162086123220000014872087355942766221_" gradientUnits="userSpaceOnUse" x1="59.288" x2="83.681" xlink:href="#lg3" y1="233.755" y2="238.56"/><linearGradient id="SVGID_00000057844035504593044800000002085697709862859657_" gradientUnits="userSpaceOnUse" x1="98.42" x2="148.185" xlink:href="#lg9" y1="166.637" y2="216.402"/><linearGradient id="SVGID_00000178193081691462430330000005246748346140367247_" gradientUnits="userSpaceOnUse" x1="157.324" x2="180.293" xlink:href="#lg7" y1="229.173" y2="252.142"/><linearGradient id="SVGID_00000161599585682866414580000008660289074960519601_" gradientUnits="userSpaceOnUse" x1="130.41" x2="136.713" xlink:href="#lg5" y1="319.489" y2="355.73"/><linearGradient id="SVGID_00000121985906094974413160000013183076736298229634_" gradientUnits="userSpaceOnUse" x1="132.95" x2="132.95" xlink:href="#lg6" y1="336.134" y2="349.527"/><linearGradient id="SVGID_00000113337838887132780800000016831635180692621974_" gradientUnits="userSpaceOnUse" x1="172.77" x2="187.925" xlink:href="#lg6" y1="334.09" y2="334.09"/><linearGradient id="SVGID_00000118399292672466445240000003829584419735167113_" gradientUnits="userSpaceOnUse" x1="129.451" x2="135.754" xlink:href="#lg1" y1="315.432" y2="349.047"/><linearGradient id="SVGID_00000145052357257881881690000006690446955704558005_" gradientTransform="matrix(0 1 1 0 -2633.305 2633.305)" gradientUnits="userSpaceOnUse" x1="-2538.669" x2="-2440.506" xlink:href="#lg1" y1="2920.684" y2="3087.562"/><linearGradient id="SVGID_00000074432557868759576180000002689484418185519509_" gradientTransform="matrix(0 1 1 0 -2633.305 2633.305)" gradientUnits="userSpaceOnUse" x1="-2484.745" x2="-2484.745" xlink:href="#lg2" y1="2939.849" y2="2919.791"/><linearGradient id="SVGID_00000108310589336046770050000017168984236392709780_" gradientTransform="matrix(0 1 1 0 -2633.305 2633.305)" gradientUnits="userSpaceOnUse" x1="-2585.933" x2="-2618.908" xlink:href="#lg2" y1="3012.356" y2="3012.356"/><linearGradient id="SVGID_00000173120815074929166060000009690682714381207685_" gradientTransform="matrix(0 1 1 0 -2633.305 2633.305)" gradientUnits="userSpaceOnUse" x1="-2484.745" x2="-2484.745" xlink:href="#lg10" y1="2912.445" y2="3110.01"/><linearGradient id="SVGID_00000106864326046003601140000014491639292534675105_" gradientTransform="matrix(0 1 1 0 -2633.305 2633.305)" gradientUnits="userSpaceOnUse" x1="-2484.745" x2="-2484.745" xlink:href="#lg10" y1="3089.139" y2="2897.983"/><linearGradient id="SVGID_00000124158700597551308990000006282408304063701921_" gradientUnits="userSpaceOnUse" x1="379.05" x2="379.05" xlink:href="#lg11" y1="275.701" y2="292.862"/><linearGradient id="SVGID_00000070120478202708887140000004257406091738682515_" gradientTransform="matrix(0 1 1 0 -2633.305 2633.305)" gradientUnits="userSpaceOnUse" x1="-2484.745" x2="-2484.745" xlink:href="#lg11" y1="3107.954" y2="3120.633"/><linearGradient id="SVGID_00000054232093284804385710000004895244726921931678_" gradientUnits="userSpaceOnUse" x1="371.638" x2="415.903" xlink:href="#lg3" y1="204.751" y2="249.016"/><linearGradient id="SVGID_00000017478079980061301940000001797007149519044495_" gradientUnits="userSpaceOnUse" x1="369.287" x2="473.039" y1="141.275" y2="165.087"><stop offset="0" stop-color="#d9b1ee"/><stop offset="1" stop-color="#814aa0"/></linearGradient><linearGradient id="lg12"><stop offset="0" stop-color="#632f78" stop-opacity="0"/><stop offset="1" stop-color="#632f78"/></linearGradient><linearGradient id="SVGID_00000074408562655592196400000002394799881767506601_" gradientUnits="userSpaceOnUse" x1="437.269" x2="457.68" xlink:href="#lg12" y1="139.628" y2="138.21"/><linearGradient id="SVGID_00000169555155730376112070000016050817864551855001_" gradientUnits="userSpaceOnUse" x1="322.137" x2="322.137" xlink:href="#lg12" y1="244.878" y2="260.533"/><linearGradient id="SVGID_00000031887260372931777750000014524774896891332785_" gradientUnits="userSpaceOnUse" x1="337.956" x2="337.956" xlink:href="#lg12" y1="212.562" y2="224.754"/><linearGradient id="SVGID_00000166664708076361118400000004634294949082122686_" gradientUnits="userSpaceOnUse" x1="434.754" x2="434.754" xlink:href="#lg12" y1="231.271" y2="241.855"/><linearGradient id="SVGID_00000111901308701981073040000013172439939002238376_" gradientUnits="userSpaceOnUse" x1="256" x2="256" xlink:href="#lg3" y1="399.911" y2="461.812"/><linearGradient id="SVGID_00000103943335503054152260000008412751172297057191_" gradientUnits="userSpaceOnUse" x1="230.279" x2="212.457" xlink:href="#lg4" y1="418.923" y2="470.963"/><linearGradient id="SVGID_00000052079907158012875610000015375457106508885376_" gradientUnits="userSpaceOnUse" x1="287.417" x2="313.081" xlink:href="#lg4" y1="413.633" y2="470.663"/><linearGradient id="SVGID_00000111183661274684256440000010146919204462159013_" gradientUnits="userSpaceOnUse" x1="422.386" x2="459.599" xlink:href="#lg4" y1="372.522" y2="372.522"/><linearGradient id="SVGID_00000049221628044895808070000004356091292158676376_" gradientUnits="userSpaceOnUse" x1="87.337" x2="44.564" xlink:href="#lg4" y1="372.383" y2="372.383"/><linearGradient id="SVGID_00000018918590640803501320000010784765949270182278_" gradientUnits="userSpaceOnUse" x1="25.971" x2="47.444" xlink:href="#lg5" y1="412.68" y2="412.68"/><linearGradient id="SVGID_00000031911496422121604120000009956930257303473025_" gradientUnits="userSpaceOnUse" x1="36" x2="36" xlink:href="#lg6" y1="387.857" y2="347.633"/><linearGradient id="SVGID_00000111150025168487513920000007469818815469548681_" gradientUnits="userSpaceOnUse" x1="20.26" x2="52.066" xlink:href="#lg5" y1="289.841" y2="321.647"/><linearGradient id="SVGID_00000134970204201500139320000007737473837001587383_" gradientUnits="userSpaceOnUse" x1="37.839" x2="59.801" xlink:href="#lg6" y1="307.517" y2="330.635"/><linearGradient id="SVGID_00000110450076312329209100000016123620838265600171_" gradientUnits="userSpaceOnUse" x1="36" x2="36" xlink:href="#lg6" y1="316.333" y2="337.217"/><linearGradient id="SVGID_00000029039818199872697400000015650978692126584716_" gradientUnits="userSpaceOnUse" x1="36" x2="36" xlink:href="#lg5" y1="333.751" y2="343.112"/><linearGradient id="SVGID_00000129919977700424623120000012009794473753848238_" gradientUnits="userSpaceOnUse" x1="36" x2="36" xlink:href="#lg5" y1="349.425" y2="358.786"/><linearGradient id="SVGID_00000008843547182803292280000011543927351861112214_" gradientUnits="userSpaceOnUse" x1="465.971" x2="487.444" xlink:href="#lg5" y1="412.68" y2="412.68"/><linearGradient id="SVGID_00000057859712306379558490000015817800880955220927_" gradientUnits="userSpaceOnUse" x1="476" x2="476" xlink:href="#lg6" y1="387.857" y2="347.633"/><linearGradient id="SVGID_00000111882836270716009130000004298698956592857225_" gradientUnits="userSpaceOnUse" x1="460.26" x2="492.066" xlink:href="#lg5" y1="289.841" y2="321.647"/><linearGradient id="SVGID_00000060724946354572660860000007824088327350262449_" gradientUnits="userSpaceOnUse" x1="477.839" x2="499.801" xlink:href="#lg6" y1="307.517" y2="330.635"/><linearGradient id="SVGID_00000099622310877649408820000009824734919250904738_" gradientUnits="userSpaceOnUse" x1="476" x2="476" xlink:href="#lg6" y1="316.333" y2="337.217"/><linearGradient id="SVGID_00000113347799166832917540000017074169992428837795_" gradientUnits="userSpaceOnUse" x1="476" x2="476" xlink:href="#lg5" y1="333.751" y2="343.112"/><linearGradient id="SVGID_00000079464106186612627730000012342086482828514478_" gradientUnits="userSpaceOnUse" x1="476" x2="476" xlink:href="#lg5" y1="349.425" y2="358.786"/><linearGradient id="SVGID_00000148663085082961350270000003023671269715662211_" gradientUnits="userSpaceOnUse" x1="451.118" x2="451.118" xlink:href="#lg12" y1="244.878" y2="252.896"/><linearGradient id="SVGID_00000085230730738213263690000007979163713421344148_" gradientUnits="userSpaceOnUse" x1="427.286" x2="427.286" xlink:href="#lg5" y1="50.508" y2="108.42"/><linearGradient id="SVGID_00000165233897646937236760000003044507568477303175_" gradientUnits="userSpaceOnUse" x1="309.43" x2="333.824" xlink:href="#lg3" y1="146.986" y2="151.791"/><linearGradient id="SVGID_00000020362656506421876980000017578656984738846390_" gradientUnits="userSpaceOnUse" x1="317.767" x2="367.532" xlink:href="#lg9" y1="59.138" y2="108.903"/><linearGradient id="SVGID_00000129176722910372134150000004061975254087362962_" gradientUnits="userSpaceOnUse" x1="423.094" x2="446.064" xlink:href="#lg7" y1="159.169" y2="182.139"/><linearGradient id="SVGID_00000039818596323156646360000007205063700441816716_" gradientUnits="userSpaceOnUse" x1="376.511" x2="382.814" xlink:href="#lg5" y1="319.489" y2="355.73"/><linearGradient id="SVGID_00000069393580165046450340000002685377584576403123_" gradientUnits="userSpaceOnUse" x1="379.05" x2="379.05" xlink:href="#lg6" y1="336.134" y2="349.527"/><linearGradient id="SVGID_00000017487681994375755230000012248689393555905930_" gradientUnits="userSpaceOnUse" x1="418.871" x2="434.025" xlink:href="#lg6" y1="334.09" y2="334.09"/><linearGradient id="SVGID_00000069387220243474726970000005051331085779906998_" gradientUnits="userSpaceOnUse" x1="375.552" x2="381.855" xlink:href="#lg1" y1="315.432" y2="349.047"/><g><g><g><g><path d="m41.223 282.571h183.453c4.071 0 7.367-3.296 7.367-7.367v-261.442c0-4.071-3.296-7.367-7.367-7.367h-183.453c-4.071 0-7.367 3.296-7.367 7.367v261.443c0 4.07 3.297 7.366 7.367 7.366z" fill="url(#SVGID_1_)"/><path d="m41.223 282.571h90.22v-276.177h-90.22c-4.071 0-7.367 3.296-7.367 7.367v261.443c0 4.071 3.297 7.367 7.367 7.367z" fill="url(#SVGID_00000176746506655013808520000014005584637601716927_)"/><path d="m33.856 126.734v-112.972c0-4.071 3.296-7.367 7.367-7.367h183.453c4.071 0 7.367 3.296 7.367 7.367v112.972z" fill="url(#SVGID_00000091013118040922162190000006740999146116548279_)"/><g><g><path d="m222.148 84.952c-2.674 10.848-7.796 21.179-15.267 30.116l-1.692 2.03c-1.851 2.209-3.994 4.007-6.323 5.394-4.359 2.594-7.086 7.232-7.086 12.301v32.995c0 2.289-.929 4.359-2.428 5.859-1.499 1.499-3.569 2.428-5.859 2.428-4.571 0-8.28-3.709-8.28-8.287v-33.426c0-5.932-2.428-11.558-6.588-15.784-.02-.02-.04-.04-.06-.06l-.04-.046c-1.626-1.665-4.459-.511-4.459 1.818v10.516c0 2.282-.929 4.353-2.428 5.852-1.493 1.499-3.563 2.428-5.852 2.428-4.578 0-8.28-3.709-8.28-8.28v-10.788c0-8.95-7.716-16.05-16.62-15.127-.053.007-.113.013-.173.02-.033.007-.066.007-.1.013-5.786.604-10.218 5.408-10.218 11.226v41.654c0 1.287-.524 2.455-1.367 3.298s-2.01 1.367-3.304 1.367c-2.574 0-4.671-2.09-4.671-4.664v-46.564c0-4.784-2.621-9.203-6.847-11.445-6.555-3.483-12.268-8.546-16.528-14.842-1.526-2.249-2.866-4.664-3.994-7.219l-.444-1.022c-8.168-18.491-7.703-39.657 1.274-57.777l.392-.79c1.639-3.304 3.961-6.071 6.715-8.187h125.227c-.173.279-.352.557-.544.829-4.167 5.991-4.591 13.82-1.102 20.23 9.169 16.831 11.358 36.086 6.946 53.934z" fill="url(#SVGID_00000090985860114125979780000006514730491504244894_)"/><path d="m127.866 9.957v95.595c-4.386 1.592-7.471 5.739-7.471 10.596v15.346h-9.342v-20.256c0-4.784-2.621-9.203-6.847-11.445-6.555-3.483-12.268-8.546-16.528-14.842-1.526-2.249-2.866-4.664-3.994-7.219l-.444-1.022c-8.168-18.491-7.703-39.657 1.274-57.777l.392-.79c1.639-3.304 3.961-6.071 6.715-8.187h36.245z" fill="url(#SVGID_00000008137280136442025270000008556640854901842824_)"/><path d="m222.148 84.952c-2.674 10.848-7.796 21.179-15.267 30.116l-1.692 2.03c-1.851 2.209-3.994 4.007-6.323 5.394-4.359 2.594-7.086 7.232-7.086 12.301v32.995c0 4.578-3.709 8.287-8.287 8.287-4.571 0-8.28-3.709-8.28-8.287v-33.426c0-5.932-2.428-11.558-6.588-15.784-.02-.02-.04-.04-.06-.06l-.04-.046c-1.626-1.665-4.459-.511-4.459 1.818v10.516c0 4.572-3.709 8.28-8.28 8.28-4.578 0-8.28-3.709-8.28-8.28v-10.788c0-2.607-.663-5.056-1.811-7.199v-102.862h71.153c-.173.279-.352.557-.544.829-4.167 5.991-4.591 13.82-1.102 20.23 9.169 16.833 11.358 36.088 6.946 53.936z" fill="url(#SVGID_00000160894658556229390890000018259497226651709375_)"/><path d="m175.213 134.808v32.982c0 4.575 3.708 8.283 8.283 8.283s8.283-3.708 8.283-8.283v-32.982z" fill="url(#SVGID_00000075856036572926790650000013815261963273225394_)"/><path d="m147.502 120.363v10.441c0 4.575 3.708 8.283 8.283 8.283s8.283-3.708 8.283-8.283v-10.441z" fill="url(#SVGID_00000144339838111628154000000006070832631139411387_)"/><path d="m111.057 117.94v39.861c0 2.578 2.09 4.669 4.669 4.669s4.669-2.09 4.669-4.669v-39.861z" fill="url(#SVGID_00000029034524047601322230000010819673575472601764_)"/></g><path d="m205.188 117.096 1.696-2.03c2.137-2.558 4.081-5.23 5.831-7.994l-49.238-49.238-13.506 12.215v31.448l16.239 16.239c.79-.146 1.651.058 2.315.737l.043.044c.02.02.04.041.06.061 1.667 1.695 3.05 3.618 4.116 5.692l19.036 19.036v-8.514c0-5.07 2.727-9.708 7.085-12.298 2.33-1.386 4.476-3.186 6.323-5.398z" fill="url(#SVGID_00000068639818821577823170000010429133830424969660_)"/><path d="m222.148 84.952c-2.674 10.848-7.796 21.179-15.267 30.116l-1.692 2.03c-1.851 2.209-3.994 4.007-6.323 5.394-.909.544-1.745 1.174-2.501 1.884l-39.425-39.424-31.575-31.575v-43.42h91.482c-.173.279-.352.557-.544.829-4.167 5.991-4.591 13.82-1.102 20.23 9.17 16.833 11.359 36.088 6.947 53.936z" fill="url(#SVGID_00000131349913693213945640000011961533850577773194_)"/><path d="m183.496 71.706v52.368l8.471 8.471c.675-4.168 3.193-7.851 6.897-10.052 2.331-1.385 4.477-3.185 6.324-5.397l1.696-2.03c10.467-12.529 16.314-27.772 17.309-43.361h-40.697z" fill="url(#SVGID_00000182501957436832514540000011164319678189292707_)"/><g><path d="m93.358 61.922c-2.933 2.322-4.585 5.912-4.585 9.654v29.121c0 1.745-.71 3.324-1.851 4.465s-2.72 1.845-4.459 1.845c-3.483 0-6.31-2.82-6.31-6.31v-23.674c0-2.654-2.468-4.578-5.056-3.994-.033.007-.06.013-.093.02-1.858.405-3.152 2.09-3.152 3.994v12.951c0 1.745-.703 3.317-1.851 4.459-1.141 1.148-2.714 1.851-4.459 1.851-3.483 0-6.31-2.826-6.31-6.31v-11.186c0-3.915-1.944-7.517-5.089-9.853-2.893-2.15-4.605-4.963-4.08-8.28l.007-.06c.312-1.964-1.387-3.656-3.344-3.344l-.053.013c-13.176 2.083-18.437-31.124-5.26-33.214l.053-.007c1.964-.305 3.052-2.448 2.15-4.22l-.027-.04c-1.652-3.238-.63-6.721 1.858-9.846h51.666c6.024 5.958 9.7 14.351 4.95 19.102l-.04.04c-1.413 1.407-1.035 3.775.743 4.671l.046.027c8.659 4.412 2.906 21.51-5.454 28.125z" fill="url(#SVGID_00000061467530283596080250000001456131043648268735_)"/><path d="m93.358 61.922c-2.933 2.322-4.585 5.912-4.585 9.654v29.121c0 1.745-.71 3.324-1.851 4.465s-2.72 1.845-4.459 1.845c-3.483 0-6.31-2.82-6.31-6.31v-23.674c0-2.654-2.468-4.578-5.056-3.994-.033.007-.06.013-.093.02-1.858.405-3.152 2.09-3.152 3.994l-.151-67.086h25.412c6.024 5.958 9.7 14.351 4.95 19.102l-.04.04c-1.407 1.407-1.035 3.775.743 4.671l.046.027c8.659 4.412 2.906 21.51-5.454 28.125z" fill="url(#SVGID_00000067958246043695608650000002930066641431453342_)"/><g><path d="m61.545 96.302c3.485 0 6.31-2.825 6.31-6.31v-11.61h-12.633c.005.142.013.283.013.425v11.185c0 3.485 2.825 6.31 6.31 6.31z" fill="url(#SVGID_00000151525833872771635390000018267391993158895747_)"/><path d="m76.154 78.382v22.317c0 3.485 2.825 6.31 6.31 6.31 3.485 0 6.31-2.825 6.31-6.31v-22.317z" fill="url(#SVGID_00000150060534006223675080000012778881534646805438_)"/></g></g><g><path d="m134.919 9.957c-.172.478-.372.942-.59 1.393-1.639 3.351-2.634 6.98-2.634 10.709v28.424c0 1.062-.425 2.017-1.121 2.707-.69.69-1.652 1.121-2.707 1.121-2.116 0-3.828-1.712-3.828-3.828v-29.293c0-1.168-.969-2.07-2.136-2.063h-.02c-6.005 0-11.113-3.822-13.031-9.169h26.067z" fill="url(#SVGID_00000157279389655071315990000016101198071700561343_)"/><path d="m134.919 9.957c-.172.478-.372.942-.59 1.393-1.639 3.351-2.634 6.98-2.634 10.709v28.424c0 1.062-.425 2.017-1.121 2.707-.69.69-1.652 1.121-2.707 1.121-2.116 0-3.828-1.712-3.828-3.828v-29.293c0-1.168-.969-2.07-2.136-2.063h-.02c-6.005 0-11.113-3.822-13.031-9.169h26.067z" fill="url(#SVGID_00000017485758391394512830000005046359948171130541_)"/><path d="m124.039 32.951v17.533c0 2.114 1.714 3.827 3.827 3.827 2.114 0 3.827-1.714 3.827-3.827v-17.533z" fill="url(#SVGID_00000167386124735329325340000000826706144890811299_)"/></g><path d="m107.223 117.879c-.507-5.873-5.369-10.552-11.256-10.854-4.727-.243-8.89 2.269-11.029 6.071-1.303 2.317-3.647 3.831-6.296 4.061-.052.004-.104.009-.156.014-8.062.774-14.461 7.419-14.929 15.504-.555 9.596 7.062 17.551 16.538 17.551 9.149 0 16.566-7.417 16.566-16.566 0-.027 0-.054 0-.08-.008-1.517.964-2.834 2.405-3.307 5.078-1.669 8.652-6.653 8.157-12.394z" fill="url(#SVGID_00000057842653978139818890000003389769228508741786_)"/><g><path d="m234.151 38.779v55.507c-.564.173-1.161.265-1.785.265-3.364 0-6.091-2.72-6.091-6.084v-1.924c0-.557-.08-1.088-.226-1.592-.71-2.442-3.012-4.193-5.699-4.147h-.06c-1.586.02-3.132-.113-4.625-.392-.033-.007-.06-.013-.086-.013-3.397-.617-6.555 1.46-7.597 4.552-.232.69-.358 1.426-.358 2.196v16.746c0 1.679-.677 3.198-1.778 4.299s-2.627 1.785-4.306 1.785c-3.364 0-6.084-2.727-6.084-6.084v-12.3c0-2.647-2.428-4.591-5.029-4.094-.027.007-.06.013-.086.02-1.997.372-3.463 2.083-3.463 4.114v30.481c0 .624-.252 1.188-.663 1.599s-.975.663-1.599.663c-1.247 0-2.256-1.015-2.256-2.262v-20.794c0-6.827-3.749-13.057-9.693-16.368-.106-.06-.212-.113-.318-.173-8.433-4.485-14.298-13.237-14.67-23.308-.431-11.764 6.522-21.961 16.587-26.327 2.601-1.128 4.306-3.669 4.306-6.502v-.053c0-7.942 4.293-14.882 10.682-18.631h21.981c6.157 3.616 10.191 10.218 10.51 17.702.013.272.02.544.02.816.013 3.019 2.077 5.64 4.963 6.509 2.712.815 5.22 2.116 7.423 3.794z" fill="url(#SVGID_00000029038396755671534500000002151397201214230180_)"/><path d="m201.54 109.978c3.361 0 6.086-2.725 6.086-6.086v-1.908l-44.149-44.149-5.697 5.152c.871 9.429 6.559 17.532 14.566 21.795 6.131 3.264 10.012 9.589 10.012 16.535v20.798c0 1.248 1.011 2.259 2.259 2.259s2.259-1.011 2.259-2.259v-30.483c0-2.031 1.466-3.74 3.462-4.114.03-.006.059-.011.089-.017 2.602-.496 5.027 1.442 5.027 4.09v12.3c-.001 3.362 2.724 6.087 6.086 6.087z" fill="url(#SVGID_00000075845877833565794000000006816371577487031173_)"/><path d="m234.151 38.779v55.507c-.564.173-1.161.265-1.785.265-3.364 0-6.091-2.72-6.091-6.084v-1.924c0-.557-.08-1.088-.226-1.592-.71-2.442-3.012-4.193-5.699-4.147h-.06c-1.586.02-3.132-.113-4.625-.392-.026-.007-.06-.013-.086-.013-3.397-.617-6.555 1.46-7.597 4.552-.232.69-.358 1.426-.358 2.196v16.746c0 3.357-2.72 6.084-6.084 6.084-2.302 0-4.313-1.281-5.341-3.171v-96.849h15.035c6.157 3.616 10.191 10.218 10.51 17.702.013.272.02.544.02.816.013 3.019 2.077 5.64 4.963 6.509 2.713.816 5.221 2.117 7.424 3.795z" fill="url(#SVGID_00000107567899151905705460000001970974752417772465_)"/><path d="m182.02 97.836c.217 1.135.338 2.298.338 3.481v20.798c0 1.248 1.011 2.259 2.259 2.259s2.259-1.011 2.259-2.259v-24.279z" fill="url(#SVGID_00000103980520912848629100000007064950415673380795_)"/><path d="m194.173 88.599c.782.748 1.28 1.796 1.28 2.993v12.3c0 3.361 2.725 6.086 6.086 6.086s6.086-2.725 6.086-6.086v-15.293z" fill="url(#SVGID_00000075862475144083126250000017969139694138933174_)"/></g><path d="m145.695 65.163c0-6.137 5.312-11.032 11.589-10.339 4.771.527 8.628 4.383 9.155 9.154.693 6.277-4.202 11.59-10.339 11.59-.006 0-.011 0-.017 0-.878-.002-1.605.675-1.605 1.554v22.008c0 1.588-1.288 2.876-2.876 2.876-1.588 0-2.876-1.288-2.876-2.876v-21.358c0-2.802-.748-5.528-1.98-8.045-.673-1.378-1.051-2.927-1.051-4.564z" fill="url(#SVGID_00000164486857484807071900000007168448185996007333_)"/></g><g><path d="m37.6 288.966h190.699c6.197 0 11.214-5.018 11.214-11.214v-266.538c0-6.196-5.017-11.214-11.214-11.214h-190.699c-6.197 0-11.214 5.018-11.214 11.214v266.538c0 6.196 5.018 11.214 11.214 11.214zm186.508-10.489h-182.317c-2.354 0-4.252-1.879-4.252-4.19v-259.608c0-2.311 1.898-4.19 4.252-4.19h182.317c2.354 0 4.252 1.879 4.252 4.19v259.608c0 2.311-1.897 4.19-4.252 4.19z" fill="url(#SVGID_00000061436837907251096950000015645745203703632566_)"/><path d="m41.223 282.571h183.453c4.071 0 7.367-3.296 7.367-7.367v-261.442c0-4.071-3.296-7.367-7.367-7.367h-183.453c-4.071 0-7.367 3.296-7.367 7.367v261.443c0 4.07 3.297 7.366 7.367 7.366zm4.088-7.367c-2.263 0-4.088-1.833-4.088-4.088v-253.266c0-2.255 1.825-4.088 4.088-4.088h175.277c2.263 0 4.088 1.833 4.088 4.088v253.267c0 2.255-1.825 4.088-4.088 4.088h-175.277z" fill="url(#SVGID_00000016055699203359169340000014171113091754516102_)"/><path d="m26.386 277.752v-80.873h14.837v74.237c0 2.255 1.825 4.088 4.088 4.088h175.277c2.263 0 4.088-1.833 4.088-4.088v-74.237h14.837v80.873c0 6.197-5.018 11.214-11.214 11.214h-190.699c-6.196 0-11.214-5.018-11.214-11.214z" fill="url(#SVGID_00000155840613088766189680000003363165391237427625_)"/><path d="m118.114 275.204h102.473c2.263 0 4.088-1.833 4.088-4.088v-253.266c0-2.255-1.825-4.088-4.088-4.088h-102.473v-13.762h110.185c6.197 0 11.214 5.018 11.214 11.214v266.538c0 6.197-5.018 11.214-11.214 11.214h-110.185z" fill="url(#SVGID_00000161619748070110968990000007306662557512085182_)"/></g></g><g><g><path d="m220.254 150.709c0-7.613-6.59-13.686-14.377-12.826-5.919.654-10.703 5.438-11.357 11.357-.86 7.787 5.213 14.378 12.826 14.378h.021c1.09-.002 1.991.838 1.991 1.928v27.303c0 1.97 1.597 3.568 3.568 3.568 1.97 0 3.568-1.597 3.568-3.568v-26.499c0-3.477.929-6.858 2.456-9.981.835-1.709 1.304-3.63 1.304-5.66z" fill="url(#SVGID_00000143578195080768158320000000151638187980266138_)"/></g><g><path d="m85.398 220.597c0-7.613-6.59-13.686-14.377-12.826-5.919.654-10.703 5.438-11.357 11.357-.86 7.787 5.213 14.378 12.826 14.378h.021c1.09-.002 1.991.838 1.991 1.928v27.303c0 1.97 1.597 3.568 3.568 3.568 1.97 0 3.568-1.597 3.568-3.568v-26.497c0-3.477.929-6.858 2.456-9.981.835-1.711 1.304-3.632 1.304-5.662z" fill="url(#SVGID_00000101788643162086123220000014872087355942766221_)"/></g><g><path d="m159.701 179.517c.138-9.466-6.092-17.498-14.682-20.089-2.548-.769-4.368-3.081-4.381-5.742-.001-.24-.007-.482-.017-.724-.367-8.681-6.408-16.017-14.912-17.801-12.329-2.587-23.187 6.751-23.187 18.625v.045c0 2.502-1.505 4.742-3.801 5.738-8.884 3.853-15.019 12.85-14.636 23.236.327 8.888 5.502 16.608 12.944 20.57 5.411 2.881 8.836 8.463 8.836 14.592v18.354c0 1.101.893 1.994 1.994 1.994 1.101 0 1.994-.893 1.994-1.994v-26.901c0-1.792 1.293-3.301 3.055-3.631.026-.005.052-.01.079-.015 2.296-.438 4.436 1.272 4.436 3.61v10.855c0 2.966 2.405 5.371 5.371 5.371 2.966 0 5.371-2.405 5.371-5.371v-14.777c0-3.727 3.355-6.623 7.022-5.957.024.004.047.009.071.013 1.321.246 2.687.365 4.084.346.018 0 .037-.001.055-.001 2.862-.048 5.229 2.206 5.229 5.069v21.894c0 2.966 2.405 5.371 5.371 5.371 2.966 0 5.371-2.405 5.371-5.371v-27.775c0-3.945.893-7.827 2.52-11.421 1.124-2.487 1.77-5.232 1.813-8.113z" fill="url(#SVGID_00000057844035504593044800000002085697709862859657_)"/></g><path d="m173.532 254.318c4.63-.4 8.319-4.233 8.557-8.874.191-3.727-1.789-7.009-4.787-8.695-1.827-1.028-3.02-2.875-3.201-4.964-.004-.041-.007-.082-.011-.123-.61-6.356-5.849-11.401-12.223-11.77-7.565-.438-13.837 5.568-13.837 13.038 0 7.213 5.848 13.061 13.061 13.061h.063c1.196-.006 2.234.76 2.607 1.896 1.316 4.004 5.245 6.821 9.771 6.431z" fill="url(#SVGID_00000178193081691462430330000005246748346140367247_)"/></g></g><g><g><path d="m183.642 349.828h-101.385c-2.81 0-5.088-2.278-5.088-5.088v-21.301c0-2.81 2.278-5.088 5.088-5.088h101.385c2.81 0 5.088 2.278 5.088 5.088v21.301c0 2.81-2.278 5.088-5.088 5.088z" fill="url(#SVGID_00000161599585682866414580000008660289074960519601_)"/><path d="m183.642 349.828h-101.385c-2.81 0-5.088-2.278-5.088-5.088v-21.301c0-2.81 2.278-5.088 5.088-5.088h101.385c2.81 0 5.088 2.278 5.088 5.088v21.301c0 2.81-2.278 5.088-5.088 5.088z" fill="url(#SVGID_00000121985906094974413160000013183076736298229634_)"/><path d="m183.642 318.351h-50.692v31.477h50.692c2.81 0 5.088-2.278 5.088-5.088v-21.3c0-2.811-2.278-5.089-5.088-5.089z" fill="url(#SVGID_00000113337838887132780800000016831635180692621974_)"/></g><path d="m158.38 338.388h-50.861c-2.374 0-4.299-1.925-4.299-4.299 0-2.374 1.925-4.299 4.299-4.299h50.861c2.374 0 4.299 1.925 4.299 4.299-.001 2.375-1.925 4.299-4.299 4.299z" fill="url(#SVGID_00000118399292672466445240000003829584419735167113_)"/></g></g><g><g><g><path d="m287.324 286.649h183.453c4.071 0 7.367-3.296 7.367-7.367v-261.443c0-4.071-3.296-7.367-7.367-7.367h-183.453c-4.071 0-7.367 3.296-7.367 7.367v261.443c0 4.071 3.296 7.367 7.367 7.367z" fill="url(#SVGID_00000145052357257881881690000006690446955704558005_)"/><path d="m287.324 286.649h90.22v-276.177h-90.22c-4.071 0-7.367 3.296-7.367 7.367v261.443c0 4.071 3.296 7.367 7.367 7.367z" fill="url(#SVGID_00000074432557868759576180000002689484418185519509_)"/><path d="m279.957 130.811v-112.972c0-4.071 3.296-7.367 7.367-7.367h183.453c4.071 0 7.367 3.296 7.367 7.367v112.972z" fill="url(#SVGID_00000108310589336046770050000017168984236392709780_)"/><g><path d="m283.701 293.043h190.699c6.197 0 11.214-5.018 11.214-11.214v-266.537c0-6.197-5.018-11.214-11.214-11.214h-190.699c-6.197 0-11.214 5.018-11.214 11.214v266.538c0 6.196 5.017 11.213 11.214 11.213zm186.508-10.488h-182.317c-2.354 0-4.252-1.879-4.252-4.19v-259.609c0-2.311 1.898-4.19 4.252-4.19h182.317c2.354 0 4.252 1.879 4.252 4.19v259.608c0 2.312-1.898 4.191-4.252 4.191z" fill="url(#SVGID_00000173120815074929166060000009690682714381207685_)"/><path d="m287.324 286.649h183.453c4.071 0 7.367-3.296 7.367-7.367v-261.443c0-4.071-3.296-7.367-7.367-7.367h-183.453c-4.071 0-7.367 3.296-7.367 7.367v261.443c0 4.071 3.296 7.367 7.367 7.367zm4.088-7.367c-2.263 0-4.088-1.833-4.088-4.088v-253.267c0-2.255 1.825-4.088 4.088-4.088h175.277c2.263 0 4.088 1.833 4.088 4.088v253.267c0 2.255-1.825 4.088-4.088 4.088z" fill="url(#SVGID_00000106864326046003601140000014491639292534675105_)"/><path d="m272.487 281.829v-80.873h14.837v74.237c0 2.255 1.825 4.088 4.088 4.088h175.277c2.263 0 4.088-1.833 4.088-4.088v-74.237h14.837v80.873c0 6.197-5.018 11.214-11.214 11.214h-190.699c-6.197 0-11.214-5.017-11.214-11.214z" fill="url(#SVGID_00000124158700597551308990000006282408304063701921_)"/><path d="m364.215 279.282h102.473c2.263 0 4.088-1.833 4.088-4.088v-253.267c0-2.255-1.825-4.088-4.088-4.088h-102.473v-13.762h110.185c6.197 0 11.214 5.018 11.214 11.214v266.538c0 6.197-5.018 11.214-11.214 11.214h-110.185z" fill="url(#SVGID_00000070120478202708887140000004257406091738682515_)"/></g></g></g><g><g><path d="m427.215 211.787c-.788-9.133-8.349-16.41-17.504-16.879-7.352-.377-13.825 3.528-17.151 9.442-2.027 3.603-5.672 5.958-9.79 6.315-.081.007-.162.014-.243.022-12.537 1.203-22.488 11.536-23.216 24.11-.863 14.922 10.982 27.294 25.718 27.294 14.228 0 25.762-11.534 25.762-25.762 0-.042 0-.083 0-.125-.012-2.359 1.5-4.407 3.74-5.143 7.897-2.596 13.454-10.347 12.684-19.274z" fill="url(#SVGID_00000054232093284804385710000004895244726921931678_)"/><g><g><path d="m448.133 47.347c-.288-4.666-2.631-8.681-7.03-12.046-4.404-3.362-9.527-5.755-15.371-7.17-5.849-1.416-11.499-1.632-16.949-.656-5.455.979-9.375 3.478-11.761 7.496l-83.605 141.547c-.661 1.257-1.047 2.133-1.168 2.635-.567 2.341-.292 4.662.833 6.965.047.096.1.197.16.304 4.25 7.525 6.768 15.903 6.768 24.545v43.406c0 1.174.952 2.126 2.126 2.126 1.174 0 2.126-.952 2.126-2.126v-50.053c0-3.298 3.36-5.531 6.401-4.254l.128.054c1.712.719 2.826 2.395 2.826 4.252v11.875c0 3.601 2.919 6.52 6.52 6.52 3.601 0 6.52-2.919 6.52-6.52v-14.767c0-1.464.399-2.901 1.155-4.155l.146-.242 16.101-29.255 20.524 4.969c1.797.435 3.063 2.044 3.063 3.893v10.229c0 3.601 2.919 6.52 6.52 6.52 3.601 0 6.52-2.919 6.52-6.52v-5.132c0-2.593 2.427-4.503 4.948-3.893l11.291 2.734.935 33.38c.186 2.876 1.278 5.129 3.27 6.759.85.698 1.809 1.315 2.875 1.852 2.693 1.358 4.461 4.041 4.461 7.057v6.08c0 3.601 2.919 6.52 6.52 6.52 3.601 0 6.52-2.919 6.52-6.52v-7.983c0-1.702 1.161-3.186 2.814-3.589.031-.008.062-.015.093-.023 2.329-.572 4.579 1.191 4.579 3.589v23.136c0 1.174.952 2.126 2.126 2.126 1.174 0 2.126-.952 2.126-2.126v-22.493c0-4.289 1.331-8.442 3.647-12.053.438-.684.782-1.357.923-1.943.121-.501.175-1.458.166-2.878zm-68.777 92.357 34.547-62.717 2.032 71.574z" fill="url(#SVGID_00000017478079980061301940000001797007149519044495_)"/><path d="m441.103 35.301c-4.404-3.362-9.527-5.755-15.371-7.17-5.849-1.416-11.499-1.632-16.949-.656-5.455.979-9.375 3.478-11.761 7.496l-12.05 20.401v74.134l28.931-52.521 2.032 71.574-30.963-7.497v31.863c1.584.561 2.673 2.053 2.673 3.762v10.229c0 3.601 2.919 6.52 6.52 6.52 3.601 0 6.52-2.919 6.52-6.52v-5.132c0-2.593 2.427-4.503 4.948-3.893l11.291 2.734.935 33.38c.186 2.876 1.278 5.129 3.27 6.759.85.698 1.809 1.314 2.875 1.853 2.693 1.358 4.461 4.041 4.461 7.057v6.081c0 3.601 2.919 6.52 6.52 6.52 3.601 0 6.52-2.919 6.52-6.52v-7.983c0-1.702 1.161-3.186 2.814-3.589.031-.008.062-.015.093-.023 2.329-.572 4.579 1.191 4.579 3.589v23.136c0 1.174.952 2.126 2.126 2.126 1.174 0 2.126-.952 2.126-2.126v-22.493c0-4.289 1.331-8.442 3.647-12.053.438-.684.782-1.358.923-1.943.121-.501.175-1.458.166-2.878l-9.847-164.174c-.287-4.663-2.63-8.678-7.029-12.043z" fill="url(#SVGID_00000074408562655592196400000002394799881767506601_)"/><path d="m320.011 212.561v41.813c0 1.174.952 2.126 2.126 2.126 1.174 0 2.126-.952 2.126-2.126v-41.813z" fill="url(#SVGID_00000169555155730376112070000016050817864551855001_)"/><g><path d="m329.04 199.709c.538.02 1.085.131 1.623.357l.128.054c1.712.719 2.826 2.395 2.826 4.252v11.875c0 3.601 2.919 6.52 6.52 6.52 3.601 0 6.52-2.919 6.52-6.52v-14.767c0-.6.084-1.191.214-1.77h-17.831z" fill="url(#SVGID_00000031887260372931777750000014524774896891332785_)"/></g><path d="m427.286 225.601c.75 1.201 1.179 2.597 1.179 4.075v6.081c0 3.601 2.919 6.52 6.52 6.52 3.601 0 6.52-2.919 6.52-6.52v-7.983c0-.805.267-1.557.716-2.173z" fill="url(#SVGID_00000166664708076361118400000004634294949082122686_)"/><g><path d="m479.497 317.361c-42.614 59.613-126.804 100.283-223.497 100.283s-180.883-40.67-223.497-100.283v52.912c6.706 6.383 13.874 12.507 21.522 18.34 54.146 41.291 125.876 64.031 201.975 64.031s147.829-22.74 201.975-64.031c7.649-5.833 14.816-11.957 21.522-18.34z" fill="url(#SVGID_00000111901308701981073040000013172439939002238376_)"/><path d="m479.497 317.361c-42.614 59.613-126.804 100.283-223.497 100.283s-180.883-40.67-223.497-100.283v52.912c6.706 6.383 13.874 12.507 21.522 18.34 54.146 41.291 125.876 64.031 201.975 64.031s147.829-22.74 201.975-64.031c7.649-5.833 14.816-11.957 21.522-18.34z" fill="url(#SVGID_00000103943335503054152260000008412751172297057191_)"/><path d="m479.497 317.361c-42.614 59.613-126.804 100.283-223.497 100.283s-180.883-40.67-223.497-100.283v52.912c6.706 6.383 13.874 12.507 21.522 18.34 54.146 41.291 125.876 64.031 201.975 64.031s147.829-22.74 201.975-64.031c7.649-5.833 14.816-11.957 21.522-18.34z" fill="url(#SVGID_00000052079907158012875610000015375457106508885376_)"/><path d="m388.662 389.561v38.123c25.191-10.142 48.549-23.237 69.313-39.072 7.649-5.833 14.816-11.957 21.522-18.34v-52.912c-21.189 29.642-52.661 54.598-90.835 72.201z" fill="url(#SVGID_00000111183661274684256440000010146919204462159013_)"/><path d="m122.637 389.234c-37.858-17.585-69.075-42.414-90.134-71.874v52.912c6.706 6.383 13.874 12.507 21.522 18.34 20.572 15.688 43.688 28.69 68.612 38.793z" fill="url(#SVGID_00000049221628044895808070000004356091292158676376_)"/><g><g><path d="m49.182 512h-26.364c-3.466 0-6.276-2.81-6.276-6.276v-192.363h38.915v192.364c0 3.465-2.809 6.275-6.275 6.275z" fill="url(#SVGID_00000018918590640803501320000010784765949270182278_)"/><path d="m16.543 361.451 38.914 38.914v-47.39h-38.914z" fill="url(#SVGID_00000031911496422121604120000009956930257303473025_)"/><g><circle cx="36" cy="305.582" fill="url(#SVGID_00000111150025168487513920000007469818815469548681_)" r="36"/><path d="m10.544 331.037c14.059 14.059 36.853 14.059 50.912 0s14.059-36.853 0-50.912c-2.794-2.794-5.937-5.023-9.284-6.707l-48.335 48.336c1.684 3.347 3.913 6.489 6.707 9.283z" fill="url(#SVGID_00000134970204201500139320000007737473837001587383_)"/><path d="m.218 309.478c.852 7.875 4.289 15.523 10.326 21.56 14.059 14.059 36.853 14.059 50.912 0 6.037-6.037 9.474-13.685 10.326-21.56z" fill="url(#SVGID_00000110450076312329209100000016123620838265600171_)"/></g><path d="m55.953 345.789h-39.906c-4.328 0-7.837-3.509-7.837-7.837 0-4.328 3.509-7.837 7.837-7.837h39.906c4.328 0 7.837 3.509 7.837 7.837 0 4.329-3.509 7.837-7.837 7.837z" fill="url(#SVGID_00000029039818199872697400000015650978692126584716_)"/><path d="m55.953 361.463h-39.906c-4.328 0-7.837-3.509-7.837-7.837 0-4.328 3.509-7.837 7.837-7.837h39.906c4.328 0 7.837 3.509 7.837 7.837 0 4.329-3.509 7.837-7.837 7.837z" fill="url(#SVGID_00000129919977700424623120000012009794473753848238_)"/></g><g><path d="m489.182 512h-26.363c-3.466 0-6.276-2.81-6.276-6.276v-192.363h38.915v192.364c-.001 3.465-2.81 6.275-6.276 6.275z" fill="url(#SVGID_00000008843547182803292280000011543927351861112214_)"/><path d="m456.543 361.451 38.914 38.914v-47.39h-38.914z" fill="url(#SVGID_00000057859712306379558490000015817800880955220927_)"/><g><circle cx="476" cy="305.582" fill="url(#SVGID_00000111882836270716009130000004298698956592857225_)" r="36"/><path d="m450.544 331.037c14.059 14.059 36.853 14.059 50.912 0s14.059-36.853 0-50.912c-2.794-2.794-5.937-5.023-9.284-6.707l-48.335 48.335c1.684 3.348 3.913 6.49 6.707 9.284z" fill="url(#SVGID_00000060724946354572660860000007824088327350262449_)"/><path d="m440.218 309.478c.852 7.875 4.289 15.523 10.326 21.56 14.059 14.059 36.853 14.059 50.912 0 6.037-6.037 9.474-13.685 10.326-21.56z" fill="url(#SVGID_00000099622310877649408820000009824734919250904738_)"/></g><path d="m495.953 345.789h-39.906c-4.328 0-7.837-3.509-7.837-7.837 0-4.328 3.509-7.837 7.837-7.837h39.906c4.328 0 7.837 3.509 7.837 7.837 0 4.329-3.509 7.837-7.837 7.837z" fill="url(#SVGID_00000113347799166832917540000017074169992428837795_)"/><path d="m495.953 361.463h-39.906c-4.328 0-7.837-3.509-7.837-7.837 0-4.328 3.509-7.837 7.837-7.837h39.906c4.328 0 7.837 3.509 7.837 7.837 0 4.329-3.509 7.837-7.837 7.837z" fill="url(#SVGID_00000079464106186612627730000012342086482828514478_)"/></g></g></g><path d="m448.992 228.486v22.401c0 1.174.952 2.126 2.126 2.126 1.174 0 2.126-.952 2.126-2.126v-22.401z" fill="url(#SVGID_00000148663085082961350270000003023671269715662211_)"/></g></g><path d="m442.158 57.244c0-8.771-7.593-15.769-16.564-14.778-6.819.753-12.331 6.265-13.085 13.084-.991 8.972 6.007 16.565 14.778 16.565h.024c1.255-.003 2.294.965 2.294 2.221v31.457c0 2.27 1.84 4.11 4.11 4.11 2.27 0 4.11-1.84 4.11-4.11v-30.528c0-4.005 1.07-7.901 2.83-11.499.962-1.969 1.503-4.182 1.503-6.522z" fill="url(#SVGID_00000085230730738213263690000007979163713421344148_)"/></g><g><g><path d="m335.541 133.827c0-7.613-6.59-13.686-14.377-12.826-5.919.654-10.703 5.438-11.357 11.357-.86 7.787 5.213 14.378 12.826 14.378h.021c1.09-.002 1.991.838 1.991 1.928v27.303c0 1.97 1.597 3.568 3.568 3.568 1.97 0 3.568-1.597 3.568-3.568v-26.497c0-3.477.929-6.858 2.456-9.981.835-1.71 1.304-3.631 1.304-5.662z" fill="url(#SVGID_00000165233897646937236760000003044507568477303175_)"/></g><g><path d="m379.048 72.019c.138-9.466-6.092-17.498-14.682-20.089-2.548-.769-4.368-3.081-4.381-5.742-.001-.24-.007-.482-.017-.724-.367-8.681-6.408-16.017-14.912-17.801-12.329-2.587-23.187 6.751-23.187 18.625v.045c0 2.502-1.505 4.742-3.801 5.737-8.884 3.853-15.019 12.85-14.636 23.236.327 8.888 5.502 16.608 12.944 20.57 5.411 2.881 8.836 8.463 8.836 14.592v18.354c0 1.101.893 1.994 1.994 1.994 1.101 0 1.994-.893 1.994-1.994v-26.901c0-1.792 1.293-3.301 3.055-3.631.026-.005.052-.01.079-.015 2.296-.438 4.436 1.272 4.436 3.61v10.855c0 2.966 2.405 5.371 5.371 5.371 2.966 0 5.371-2.405 5.371-5.371v-14.775c0-3.727 3.355-6.623 7.022-5.957.024.004.047.009.071.013 1.321.246 2.687.365 4.084.346.018 0 .036-.001.055-.001 2.862-.048 5.229 2.206 5.229 5.069v21.894c0 2.966 2.405 5.371 5.371 5.371 2.966 0 5.371-2.405 5.371-5.371v-27.776c0-3.945.893-7.827 2.52-11.421 1.125-2.488 1.771-5.233 1.813-8.113z" fill="url(#SVGID_00000020362656506421876980000017578656984738846390_)"/></g><path d="m439.302 184.314c4.63-.4 8.319-4.233 8.557-8.874.191-3.727-1.789-7.009-4.787-8.695-1.827-1.028-3.02-2.875-3.201-4.964-.004-.041-.007-.082-.011-.123-.61-6.356-5.849-11.401-12.223-11.77-7.565-.438-13.837 5.568-13.837 13.038 0 7.213 5.848 13.061 13.061 13.061h.063c1.196-.006 2.234.76 2.607 1.896 1.316 4.004 5.246 6.821 9.771 6.431z" fill="url(#SVGID_00000129176722910372134150000004061975254087362962_)"/></g></g><g><g><path d="m429.743 349.828h-101.385c-2.81 0-5.088-2.278-5.088-5.088v-21.301c0-2.81 2.278-5.088 5.088-5.088h101.385c2.81 0 5.088 2.278 5.088 5.088v21.301c0 2.81-2.278 5.088-5.088 5.088z" fill="url(#SVGID_00000039818596323156646360000007205063700441816716_)"/><path d="m429.743 349.828h-101.385c-2.81 0-5.088-2.278-5.088-5.088v-21.301c0-2.81 2.278-5.088 5.088-5.088h101.385c2.81 0 5.088 2.278 5.088 5.088v21.301c0 2.81-2.278 5.088-5.088 5.088z" fill="url(#SVGID_00000069393580165046450340000002685377584576403123_)"/><path d="m429.743 318.351h-50.693v31.477h50.692c2.81 0 5.088-2.278 5.088-5.088v-21.3c.001-2.811-2.277-5.089-5.087-5.089z" fill="url(#SVGID_00000017487681994375755230000012248689393555905930_)"/></g><path d="m404.481 338.388h-50.861c-2.374 0-4.299-1.925-4.299-4.299 0-2.374 1.925-4.299 4.299-4.299h50.861c2.374 0 4.299 1.925 4.299 4.299-.001 2.375-1.925 4.299-4.299 4.299z" fill="url(#SVGID_00000069387220243474726970000005051331085779906998_)"/></g></g></g><g/><g/><g/><g/><g/><g/><g/><g/><g/><g/><g/><g/><g/><g/><g/></svg>