<svg id="Capa_1" enable-background="new 0 0 512 512" viewBox="0 0 512 512" xmlns="http://www.w3.org/2000/svg"><g><g><path d="m470.793 0h-156.763l-107.936 20.604v432.676l107.936 20.604h156.763c22.758 0 41.207-18.449 41.207-41.207v-391.47c0-22.759-18.451-41.207-41.207-41.207z" fill="#c9aaf2"/><path d="m314.03 0h-245.008c-22.759 0-41.207 18.451-41.207 41.207v391.469c0 22.758 18.449 41.207 41.207 41.207h245.008c-130.859-130.859-130.859-343.024 0-473.883z" fill="#b28ae4"/></g><g><g><g><path d="m272.372 398.68-18.825 6.959v103.36l16.137 3.001h28.438c10.499 0 19.318-7.894 20.478-18.328l3.115-28.03v-46.358z" fill="#b9bbf1"/><path d="m259.903 493.251v-89.961l-43.268 15.994 8.265 74.388c1.16 10.434 9.979 18.328 20.478 18.328h24.306c-5.912-4.135-9.781-10.988-9.781-18.749z" fill="#9ea2e3"/></g><g><path d="m288.748 398.68-44.298 20.604c8.522 0 15.453 6.918 15.453 15.453v30.446c0 8.583 6.799 15.874 15.382 15.912 8.58.039 15.546-6.916 15.524-15.492-.021-8.482 6.417-15.413 14.899-15.413 10.342 0 16.006 7.503 16.006 15.044v.408l5.151-46.358z" fill="#ffce71"/><path d="m326.864 388.378h-82.414l-18.179 15.453 18.179 15.453h82.414c8.534 0 15.453-6.919 15.453-15.453s-6.918-15.453-15.453-15.453z" fill="#fce3a0"/><path d="m244.45 388.378h-27.815c-8.534 0-15.453 6.918-15.453 15.453 0 8.534 6.918 15.453 15.453 15.453h27.815c-8.534-8.534-8.534-22.371 0-30.906z" fill="#ffce71"/></g></g><g><g><path d="m413.506 398.68-18.825 6.959v103.36l16.137 3.001h28.438c10.499 0 19.318-7.894 20.478-18.328l3.115-28.03v-46.358z" fill="#b9bbf1"/><path d="m401.038 493.251v-89.961l-43.268 15.994 8.265 74.388c1.159 10.434 9.979 18.328 20.478 18.328h24.306c-5.912-4.135-9.781-10.988-9.781-18.749z" fill="#9ea2e3"/></g><g><path d="m429.883 398.68-44.298 20.604c8.522 0 15.453 6.918 15.453 15.453v30.446c0 8.583 6.799 15.873 15.382 15.912 8.58.039 15.546-6.916 15.524-15.492-.021-8.482 6.417-15.413 14.899-15.413 10.342 0 16.006 7.503 16.006 15.044v.408l5.151-46.358z" fill="#efedff"/><path d="m467.999 388.378h-82.414l-18.179 15.453 18.179 15.453h82.414c8.534 0 15.453-6.918 15.453-15.453 0-8.534-6.918-15.453-15.453-15.453z" fill="#fff"/><path d="m385.585 388.378h-27.815c-8.534 0-15.453 6.918-15.453 15.453 0 8.534 6.918 15.453 15.453 15.453h27.815c-8.535-8.534-8.535-22.371 0-30.906z" fill="#efedff"/></g></g></g><g><path d="m465.877 80.269c-20.29-35.143-58.103-56.975-98.683-56.975l-30.905 30.905 30.905 30.905c18.568 0 35.87 9.989 45.154 26.069s9.284 36.059 0 52.139-26.586 26.069-45.154 26.069l-30.905 30.905 30.905 30.905c40.58 0 78.394-21.831 98.683-56.975 20.29-35.141 20.29-78.804 0-113.947z" fill="#fff1d4"/><g fill="#fce3a0"><path d="m302.084 152.303v-15.258c7.707.674 14.869-4.518 16.462-12.283 4.715-22.979 25.174-39.657 48.648-39.657-17.069-17.069-17.069-44.742 0-61.811-37.862 0-72.824 19.016-93.523 50.867-4.651 7.156-2.62 16.727 4.536 21.377.353.229.716.43 1.08.627-5.209 11.818-8.109 24.874-8.109 38.597v17.541c0 8.534 6.919 15.453 15.453 15.453s15.453-6.919 15.453-15.453z"/><path d="m404.237 309.17h-8.494c0-8.534-6.919-15.453-15.453-15.453h-13.096c-11.724 0-21.262-9.538-21.262-21.262s9.538-21.262 21.262-21.262c-17.069-17.069-17.069-44.742 0-61.811-45.806 0-83.073 37.266-83.073 83.072s37.267 83.072 83.073 83.072c8.534 0 15.453-6.919 15.453-15.453h21.59c8.534 0 15.453-6.919 15.453-15.453-.001-8.532-6.919-15.45-15.453-15.45z"/></g></g><g><path d="m325.737 229.818c-3.695-2.135-8.421-.868-10.554 2.828 2.134-3.696.868-8.421-2.828-10.554-3.696-2.135-8.422-.868-10.555 2.828 2.134-3.696.867-8.421-2.828-10.554-3.697-2.134-8.421-.868-10.554 2.828 2.134-3.696.868-8.421-2.828-10.554-3.696-2.134-8.422-.867-10.554 2.828l-15.453 26.765c-2.134 3.696-.868 8.421 2.828 10.554l40.147 23.179c3.68 2.124 8.412.882 10.554-2.828l15.453-26.765c2.134-3.696.868-8.421-2.828-10.555z" fill="#ffce71"/><path d="m259.583 236.232-5.151 8.921c-5.027 8.708-4.491 19.144 2.371 26.799l-10.463 18.122c-4.267 7.391-1.735 16.842 5.656 21.109s16.842 1.735 21.109-5.656l10.463-18.122c10.046 2.111 19.36-2.627 24.394-11.346l5.151-8.922z" fill="#ea5b70"/></g><g><g><path d="m84.517 477.807h-44.965c-.825 1.11-1.739 2.249-2.598 3.339-9.781 12.412-1.007 30.854 14.984 30.854h24.576c9.957 0 18.028-8.072 18.028-18.028.001-7.078-4.089-13.215-10.025-16.165z" fill="#ea5b70"/><path d="m67.587 399.305c-1.404 28.517-11.081 55.62-28.034 78.501 13.562 9.213 31.403 9.213 44.965 0 12.897-24.08 20.16-50.717 21.246-78.501z" fill="#2ed0fc"/></g><g><g><path d="m162.293 339.846c0-1.311-.054-2.612-.153-3.906v3.906z" fill="#7ce3ff"/><path d="m162.141 335.94c-1.806-23.742-19.866-43.61-44.151-47.012l-45.296 45.296v58.237h81.314l8.134-6.258v-50.263z" fill="#ff8e9e"/></g><path d="m128.83 307.724-10.841-18.797c-2.198-.311-4.443-.491-6.722-.516-27.601-.298-51.743 21.556-51.743 51.574v46.071l13.17 6.403 39.26-6.258v-49.247c0-12.058 6.433-23.2 16.876-29.23z" fill="#ea5b70"/></g><g><path d="m248.601 301.235c-8.13-1.773-16.159 3.488-18.312 11.525l-.854 3.186c-10.284 1.924-20.588 1.978-30.526.402l-16.85 9.728 11.984 20.757c16.452 2.635 33.611 1.904 50.445-2.653 6.267-1.696 11.151-6.619 12.831-12.89l2.935-10.955c2.273-8.482-2.973-17.208-11.653-19.1z" fill="#ffddcf"/><path d="m198.909 316.348c-13.875-2.199-27.074-7.579-38.433-15.697-6.836-5.066-16.485-3.632-21.551 3.205-5.066 6.836-3.631 16.485 3.205 21.551 15.369 11.062 33.183 18.426 51.914 21.427 8.684-7.702 10.721-20.464 4.865-30.486z" fill="#ff8e9e"/></g><g><path d="m111.954 386.202-7.189 6.258v38.332h31.801c15.628-9.023 25.575-25.794 25.576-44.591h-50.188z" fill="#b9f0ff"/><path d="m111.954 386.202c-11.278 0-40.338-.145-52.43-.145 0 24.209 16.542 43.925 38.18 49.723 13.515 3.622 27.177 1.759 38.861-4.987-5.986-3.566-11.134-8.374-15.153-14.093-5.98-8.509-9.458-19.036-9.458-30.498z" fill="#7ce3ff"/></g><g><g><path d="m220.473 156.79-99.255-65.145-108.134 108.229 115.746 107.85c11.131-.78 21.756-3.225 31.646-7.073 41.128-16.004 68.978-55.922 68.925-100.837-.017-14.724-2.992-29.337-8.928-43.024z" fill="#ffddcf"/><path d="m84.335 226.664-11.641-3.907h-57.174c2.423 11.261 6.569 21.788 12.112 31.338 12.456 21.459 31.964 37.975 54.823 46.745 12.339 4.734 25.433 7.144 38.763 7.144 2.539 0 5.078-.081 7.611-.259-23.404-21.837-38.813-50.215-44.494-81.061z" fill="#ffcbbe"/></g><g><path d="m214.949 125.528c-10.711-2.275-20.904-6.417-29.724-12.906-16.018-11.784-35.387-19.246-56.395-20.719l-46.436 22.676v73.077c25.601-9.307 48.797-23.621 68.409-41.755 19.763 15.468 46.13 19.588 69.67 10.889 12.955-8.119 9.548-28.061-5.524-31.262z" fill="#676fb2"/><path d="m128.83 91.903c-2.534-.178-5.073-.259-7.611-.259-28.224 0-53.921 10.824-73.178 28.549-29.869 5.168-48.041 29.273-48.041 55.698v31.652c0 19.262 10.352 37.177 27.282 46.362.116.063.233.126.35.189 22.742 3.38 45.236-7.502 56.702-27.431-1.617-8.781-2.45-17.762-2.45-26.85 0-4.062.177-8.117.509-12.158 2.921-35.51 18.623-69.802 46.437-95.752z" fill="#4c5699"/></g><path d="m95.791 211.242c.378 15.829-12.147 28.968-27.976 29.346s-28.968-12.147-29.346-27.976 12.147-28.968 27.976-29.346c5.854-.14 11.341 1.485 15.949 4.389 7.853 4.95 13.158 13.612 13.397 23.587z" fill="#ffddcf"/></g><g><path d="m165.955 476.297h-38.277c-.468 4.353-1.137 8.689-2.008 13.007-2.398 11.887 6.957 22.696 18.677 22.696h18.028c9.957 0 18.028-8.071 18.028-18.028 0-8.731-6.207-16.014-14.448-17.675z" fill="#ff8e9e"/><path d="m157.665 404.92c-3.253-10.012-14.008-15.486-24.015-12.236-10.011 3.253-15.49 14.006-12.238 24.016 6.32 19.452 8.409 39.653 6.266 59.597 10.566 10.566 27.711 10.566 38.277 0 2.031-23.925-.717-48.07-8.29-71.377z" fill="#b9f0ff"/></g><path d="m144.277 220.431c-16.5 0-29.875 10.608-29.875 23.694s13.376 23.694 29.875 23.694c16.5 0 29.875-10.608 29.875-23.694s-13.376-23.694-29.875-23.694z" fill="#ff8e9e"/></g><g fill="#313d40"><path d="m161.275 200.73c-4.267 0-7.726 3.459-7.726 7.726v12.362c0 4.267 3.459 7.726 7.726 7.726s7.726-3.459 7.726-7.726v-12.362c0-4.267-3.459-7.726-7.726-7.726z"/><path d="m225.661 220.432c-4.266 0-8.324-1.851-11.136-5.077-2.803-3.217-7.684-3.551-10.901-.748-3.217 2.804-3.552 7.684-.748 10.901 5.747 6.595 14.053 10.377 22.786 10.377 4.267 0 7.726-3.459 7.726-7.726s-3.46-7.727-7.727-7.727z"/></g></g><g/><g/><g/><g/><g/><g/><g/><g/><g/><g/><g/><g/><g/><g/><g/></svg>