<svg id="Capa_1" enable-background="new 0 0 512 512" height="512" viewBox="0 0 512 512" width="512" xmlns="http://www.w3.org/2000/svg"><g><path d="m504.236 203.27v230.148c0 43.398-35.184 78.581-78.581 78.581h-280.009c-43.398 0-78.581-35.184-78.581-78.581v-230.148z" fill="#d7d7f9"/><path d="m504.236 134.603v68.667l-218.57 21.935-218.601-21.935v-68.667c0-43.408 35.184-78.592 78.581-78.592h280.008c43.398 0 78.582 35.184 78.582 78.592z" fill="#f97a6f"/><path d="m67.065 433.418c0 9.994 1.886 19.542 5.288 28.336h311.997c31.29 0 60.763-15.3 78.838-40.927 13.862-19.652 28.565-42.77 41.048-70.359v-147.198h-437.171z" fill="#b6c4f9"/><path d="m189.892 56.011h-44.246c-43.398 0-78.581 35.184-78.581 78.592v68.668l82.306 8.259c1.679-55.986 16.122-108.761 40.521-155.519z" fill="#f85d5e"/><path d="m67.065 203.27c0 85.973-29.769 141.869-54.814 182.351-12.217 19.747 1.95 45.227 25.17 45.227h346.929c21.33 0 41.288-10.405 53.583-27.835 26.274-37.248 66.302-100.05 66.302-199.743z" fill="#f0f0f9"/><path d="m149.2 222.535c0-6.463.174-12.885.51-19.265h-82.645c0 85.973-29.769 141.869-54.814 182.351-12.217 19.747 1.95 45.227 25.17 45.227h178.03c-41.724-58.824-66.251-130.703-66.251-208.313z" fill="#d7d7f9"/><g fill="#f0f0f9"><path d="m221.62 162.915c-4.045.051-8.292.089-12.152.108 2.701-3.662 6.147-8.428 10.477-14.614 3.457-4.939 7.264-11.944 7.264-17.92 0-11.7-9.519-21.22-21.22-21.22-10.118 0-18.875 7.198-20.822 17.116-.822 4.187 1.905 8.248 6.093 9.07s8.248-1.905 9.07-6.093c.528-2.689 2.908-4.641 5.659-4.641 3.049 0 5.553 2.379 5.754 5.378-.036.115.127 2.897-4.458 9.448-8.331 11.903-13.301 18.411-15.972 21.908-3.342 4.376-5.359 7.017-4.074 11.191.756 2.457 2.686 4.416 5.162 5.241 2.79.931 19.422.605 29.413.479 4.267-.053 7.682-3.556 7.629-7.823-.054-4.265-3.549-7.67-7.823-7.628z"/><path d="m326.838 162.915c-4.044.051-8.292.089-12.152.108 2.701-3.662 6.147-8.428 10.477-14.614 3.464-4.951 7.264-11.932 7.264-17.92 0-11.7-9.519-21.22-21.22-21.22-10.117 0-18.873 7.198-20.822 17.115-.822 4.187 1.904 8.248 6.092 9.071 4.19.824 8.249-1.905 9.071-6.092.528-2.689 2.908-4.641 5.659-4.641 3.049 0 5.553 2.379 5.755 5.378-.034.111.127 2.897-4.458 9.448-8.333 11.905-13.303 18.413-15.973 21.909-3.341 4.374-5.358 7.015-4.073 11.189.756 2.456 2.685 4.415 5.162 5.241 2.79.931 19.422.605 29.414.479 4.267-.053 7.682-3.556 7.628-7.823-.055-4.266-3.572-7.666-7.824-7.628z"/><path d="m386.279 130.282c0-11.701-9.519-21.22-21.22-21.22-10.117 0-18.873 7.198-20.822 17.115-.823 4.187 1.904 8.248 6.092 9.071 4.191.824 8.249-1.904 9.071-6.092.528-2.69 2.908-4.642 5.659-4.642 3.18 0 5.768 2.588 5.768 5.768s-2.588 5.768-5.768 5.768c-4.268 0-7.726 3.459-7.726 7.726s3.459 7.726 7.726 7.726c3.18 0 5.768 2.587 5.768 5.768 0 3.18-2.588 5.767-5.768 5.767-3.113 0-5.768-2.522-5.768-5.767 0-4.268-3.459-7.726-7.726-7.726s-7.726 3.459-7.726 7.726c0 11.787 9.663 21.22 21.22 21.22 11.701 0 21.22-9.52 21.22-21.22 0-5.121-1.824-9.824-4.855-13.494 3.032-3.671 4.855-8.374 4.855-13.494z"/><path d="m259.841 108.15c-12.669 0-22.976 10.307-22.976 22.976v24.388c0 12.669 10.307 22.976 22.976 22.976s22.976-10.307 22.976-22.976v-24.388c0-12.669-10.307-22.976-22.976-22.976zm7.523 47.364c0 4.148-3.375 7.523-7.523 7.523s-7.523-3.375-7.523-7.523v-24.388c0-4.148 3.375-7.523 7.523-7.523s7.523 3.375 7.523 7.523z"/></g><ellipse cx="176.787" cy="276.836" fill="#fba0ab" rx="31.872" ry="25.381"/><ellipse cx="349.542" cy="276.836" fill="#fba0ab" rx="31.872" ry="25.381"/><ellipse cx="263.164" cy="257.335" fill="#363c58" rx="16.918" ry="18.932"/><g><path d="m182.115 253.934c-4.267 0-7.726-3.459-7.726-7.726v-12.362c0-4.267 3.459-7.726 7.726-7.726s7.726 3.459 7.726 7.726v12.362c.001 4.267-3.459 7.726-7.726 7.726z" fill="#363c58"/></g><g><path d="m344.214 253.934c-4.268 0-7.726-3.459-7.726-7.726v-12.362c0-4.267 3.459-7.726 7.726-7.726s7.726 3.459 7.726 7.726v12.362c0 4.267-3.458 7.726-7.726 7.726z" fill="#363c58"/></g><path d="m192.028 318.343c-2.465-5.992-8.72-5.799-8.617-5.767-3.857.004-7.29 2.357-8.676 5.959l-26.205 68.805c-1.519 3.987.482 8.452 4.47 9.97 3.989 1.52 8.452-.483 9.97-4.47l4.631-12.16h31.438l4.581 12.138c1.515 4.014 5.984 5.999 9.957 4.501 3.992-1.507 6.008-5.965 4.501-9.957-30.874-81.806-25.235-67.032-26.05-69.019zm-18.541 46.885 9.906-26.009 9.815 26.009z" fill="#363c58"/><path d="m375.173 347.47h-20.876c-4.268 0-7.726 3.459-7.726 7.726s3.459 7.726 7.726 7.726h12.39c-2.05 10.129-8.451 19.441-21.636 19.441-14.981 0-27.168-12.187-27.168-27.167s12.187-27.168 27.168-27.168c5.446 0 10.696 1.603 15.183 4.635 3.538 2.389 8.34 1.459 10.728-2.076 2.388-3.536 1.459-8.339-2.076-10.727-7.052-4.765-15.295-7.284-23.835-7.284-23.501 0-42.621 19.12-42.621 42.62 0 23.501 19.12 42.62 42.621 42.62 22.285 0 37.848-17.526 37.848-42.62 0-4.266-3.459-7.726-7.726-7.726z" fill="#363c58"/><path d="m282.023 312.576c-4.267 0-7.726 3.459-7.726 7.726v47.971c0 8.471-8.744 14.091-16.92 14.09-.008 0-.016 0-.024 0-7.613-.01-16.096-5.779-16.096-14.039v-48.022c0-4.267-3.459-7.726-7.726-7.726s-7.726 3.459-7.726 7.726v48.022c0 17.616 16.302 29.471 31.528 29.492h.045c16.619 0 32.373-12.182 32.373-29.543v-47.971c-.002-4.266-3.461-7.726-7.728-7.726z" fill="#363c58"/><path d="m175.984 0c-17.154 0-31.059 13.906-31.059 31.059v30.748c0 17.154 13.906 31.059 31.059 31.059 17.154 0 31.059-13.906 31.059-31.059v-30.748c0-17.153-13.906-31.059-31.059-31.059z" fill="#fbe381"/><path d="m395.317 0c17.154 0 31.059 13.906 31.059 31.059v30.748c0 17.154-13.906 31.059-31.059 31.059-17.154 0-31.059-13.906-31.059-31.059v-30.748c0-17.153 13.905-31.059 31.059-31.059z" fill="#fbe381"/><path d="m169.396 28.203c0-10.639 3.775-20.396 10.058-28.006-1.14-.126-2.297-.197-3.47-.197-17.154 0-31.059 13.905-31.059 31.059v30.748c0 17.153 13.905 31.059 31.059 31.059 13.769 0 25.439-8.963 29.51-21.371-20.528-3.731-36.098-21.688-36.098-43.292z" fill="#f9d154"/><path d="m388.729 28.204c0-10.639 3.775-20.396 10.058-28.006-1.14-.127-2.297-.198-3.47-.198-17.154 0-31.059 13.905-31.059 31.059v30.748c0 17.153 13.905 31.059 31.059 31.059 13.769 0 25.439-8.963 29.51-21.371-20.528-3.731-36.098-21.687-36.098-43.291z" fill="#f9d154"/></g></svg>