<svg id="Capa_1" enable-background="new 0 0 512 512" height="512" viewBox="0 0 512 512" width="512" xmlns="http://www.w3.org/2000/svg"><g><g><path d="m456.969 407.139c27.744-39.712 44.031-88.02 44.031-140.139 0-135.31-109.69-245-245-245s-245 109.69-245 245c0 52.119 16.287 100.427 44.031 140.139z" fill="#ffdd40"/></g><g><circle cx="256" cy="252" fill="#ffc839" r="200"/></g><g><path d="m371.453 226.163c-3.282-28.378-10.31-25.293-10.31-78.944v-30.076c0-23.009-3.49-58.398-23.273-80.72-19.784-22.322-47.621-36.423-81.87-36.423s-48.985 5.638-62.772 12-14.708 34.073-14.708 34.073c-17.176 18.715-27.663 43.666-27.663 71.07v30.076c0 53.652-7.028 50.566-10.31 78.944-2.843 24.579 5.897 47.568 22.722 57.311 3.546 2.053 7.931-.751 7.513-4.828l-1.674-16.325s6.405 44.191 86.892 44.191 86.892-44.191 86.892-44.191l-1.674 16.325c-.418 4.076 3.967 6.881 7.513 4.828 16.825-9.743 25.565-32.732 22.722-57.311z" fill="#b76c4e"/></g><g><path d="m220.594 303.015v-214.126c-21.924-14.127-19.594-80.275 1.607-86.34-12.475 2.242-20.89 5.721-28.973 9.451-13.787 6.362-14.708 34.073-14.708 34.073-17.176 18.715-27.663 43.666-27.663 71.07v30.076c0 53.652-7.028 50.566-10.31 78.944-2.843 24.579 5.897 47.568 22.722 57.311 3.546 2.053 7.931-.751 7.513-4.828l-1.674-16.325s4.387 30.25 51.486 40.694z" fill="#a05838"/></g><g><path d="m456.949 407.139c-8.256-22.709-16.99-42.685-24.722-51.911-.904-1.078-1.794-2.019-2.668-2.79-6.623-5.848-19.39-11.382-34.352-16.323-37.928-12.525-89.968-21.232-91.82-21.54h-94.772c-1.853.307-53.892 9.014-91.82 21.54-14.961 4.941-27.729 10.475-34.352 16.323-.874.772-1.765 1.712-2.668 2.79-7.732 9.226-16.467 29.203-24.722 51.911-.001.009-.001.018-.002.026 32.701 46.795 81.323 81.637 138.012 96.667l-.001-.009 62.938-15.972 62.94 15.973.002.008c56.687-15.031 105.309-49.873 138.009-96.666-.001-.009-.001-.018-.002-.027z" fill="#213159"/></g><g><path d="m120.812 471.33c-.075-.212-8.769-24.824 4.705-53.619 2.512-5.369-4.447-10.154-8.544-5.871-8.577 8.966-17.032 22.169-20.587 41.004 7.736 6.653 15.895 12.828 24.426 18.486z" fill="#162544"/></g><g><path d="m391.188 471.33c.075-.212 8.769-24.824-4.705-53.619-2.512-5.369 4.447-10.154 8.544-5.871 8.577 8.966 17.032 22.169 20.587 41.004-7.736 6.653-15.895 12.828-24.426 18.486z" fill="#162544"/></g><g><path d="m376.363 400.049c-12.574-62.943-53.75-134.554-120.363-134.554s-107.789 71.611-120.363 134.554c-2.232 11.171 4.616 22.15 15.628 25.069l1.946.516c6.666 1.767 12.085 6.615 14.579 13.045l25.27 65.146c13.835 3.667 28.147 6.161 42.827 7.358v-.001l20.113-23.331 20.114 23.33v.001c14.679-1.197 28.992-3.691 42.827-7.358l25.27-65.146c2.494-6.43 7.913-11.278 14.579-13.045l1.946-.516c11.011-2.918 17.859-13.897 15.627-25.068z" fill="#2d3c6b"/></g><g><path d="m313.386 316.347h-114.772l37.272 194.835c6.634.538 13.341.818 20.114.818s13.48-.28 20.114-.819z" fill="#4fabf7"/></g><g><path d="m228.614 316.346h-30l37.272 194.835c6.634.539 13.341.819 20.114.819 0-69.298-27.386-97.827-27.386-180.485z" fill="#2e8be6"/></g><g><path d="m208.614 221.239h94.772v93.336h-94.772z" fill="#fd995b"/></g><g><path d="m208.614 277.655h94.772c5.523 0 10 4.477 10 10v28.692s-16.429 18.317-57.386 18.317-57.386-18.317-57.386-18.317v-28.692c0-5.523 4.477-10 10-10z" fill="#73c3f9"/></g><g><path d="m228.614 287.655c0-5.523 4.477-10 10-10h-30c-5.523 0-10 4.477-10 10v28.692s8.931 9.934 30 15.169z" fill="#4fabf7"/></g><g><path d="m180.942 159.567s-10.385-25.285-28.897-19.415.448 60.664 36.573 64.116z" fill="#fd995b"/></g><g><path d="m331.058 159.567s10.385-25.285 28.897-19.415-.448 60.664-36.573 64.116z" fill="#fcad6d"/></g><g><circle cx="335.18" cy="201.166" fill="#e9efff" r="15"/></g><g><circle cx="176.82" cy="201.166" fill="#e9efff" r="15"/></g><g><path d="m343.512 143.021c-80.432-.001-112.898-68.574-149.248-58.497-9.288 2.575-16.517 9.929-19.433 19.116-4.143 13.053-6.428 27.555-6.428 43.114 0 64.505 39.219 140.155 87.597 140.155s87.597-75.651 87.597-140.155c0-1.252-.02-2.495-.049-3.733z" fill="#f9ba8f"/></g><g><path d="m194.264 84.525c-9.288 2.575-16.517 9.929-19.433 19.116-4.143 13.052-6.428 27.555-6.428 43.114 0 64.505 39.219 140.155 87.597 140.155 6.881 0 13.576-1.535 20-4.346-38.741-16.953-67.597-80.479-67.597-135.809 0-21.705 4.456-41.342 12.191-57.865-9.034-4.647-17.57-6.794-26.33-4.365z" fill="#fcad6d"/></g><g><path d="m310.999 162.085c.043-3.495-1.371-7.004-4.242-9.539-4.675-4.128-11.84-4.128-16.515 0-2.871 2.535-4.284 6.044-4.242 9.539.055 4.538 5.629 6.716 8.838 3.507 2.022-2.022 5.3-2.022 7.322 0 3.21 3.21 8.784 1.032 8.839-3.507z" fill="#162544"/></g><g><path d="m201.001 162.085c-.043-3.495 1.371-7.004 4.242-9.539 4.675-4.128 11.84-4.128 16.515 0 2.871 2.535 4.284 6.044 4.242 9.539-.055 4.538-5.629 6.716-8.838 3.507-2.022-2.022-5.3-2.022-7.322 0-3.21 3.21-8.784 1.032-8.839-3.507z" fill="#162544"/></g><g><path d="m196 132.917v-.005c0-3.045 1.951-5.736 4.829-6.731 8.513-2.944 16.772-2.959 25.337.003 2.88.996 4.834 3.685 4.834 6.733 0 4.883-4.783 8.211-9.427 6.701-5.247-1.706-10.9-1.706-16.147 0-4.642 1.51-9.426-1.818-9.426-6.701z" fill="#934a2e"/></g><g><path d="m316 132.917v-.005c0-3.045-1.951-5.736-4.829-6.731-8.513-2.944-16.772-2.959-25.337.003-2.88.996-4.834 3.685-4.834 6.733 0 4.883 4.783 8.211 9.427 6.701 5.247-1.706 10.9-1.706 16.147 0 4.643 1.51 9.426-1.818 9.426-6.701z" fill="#934a2e"/></g><g><g><path d="m242.013 192.447 8.436-13.441c2.569-4.093 8.533-4.093 11.102 0l8.436 13.441c2.739 4.365-.398 10.038-5.551 10.038h-16.871c-5.154-.001-8.291-5.674-5.552-10.038z" fill="#fd995b"/></g></g><g><g><path d="m235.384 240.87h41.233c4.111-3.622 7.258-8.309 9.01-13.631 1.584-4.811-2.069-9.754-7.134-9.754h-44.985c-5.065 0-8.718 4.943-7.134 9.754 1.752 5.322 4.899 10.009 9.01 13.631z" fill="#162544"/></g><g><path d="m276.616 240.87c-5.493 4.849-12.714 7.798-20.616 7.798s-15.124-2.948-20.616-7.798c5.5-4.849 12.714-7.798 20.616-7.798s15.116 2.949 20.616 7.798z" fill="#ff4155"/></g></g></g></svg>