<svg id="Capa_1" enable-background="new 0 0 512 512" height="512" viewBox="0 0 512 512" width="512" xmlns="http://www.w3.org/2000/svg"><g><path d="m511.999 256c0 141.385-114.615 256-255.999 256-119.932 0-220.601-82.472-248.39-193.797-.641-2.567 3.454-41.848 3.454-59.621 0-18.688-4.941-58.528-4.473-60.549 26.266-113.463 127.961-198.033 249.408-198.033 141.385 0 256 114.615 256 256z" fill="#44bfd7"/><path d="m472.992 253.313c0 108.847-88.238 197.085-197.085 197.085s-197.084-88.237-197.084-197.085 88.238-197.085 197.085-197.085 197.084 88.238 197.084 197.085z" fill="#7cd2e3"/><path d="m199.502 153.63c-4.557 16.865-16.528 28.3-26.739 25.541-.453-.122-.895-.271-1.325-.444-2.586 14.251-19.391 26.094-40.49 27.543-23.659 1.624-43.756-10.437-44.889-26.939-.288-4.196.678-8.275 2.668-12.052-17.196-1.387-30.407-9.607-31.149-20.422-.617-8.988 7.542-17.378 19.986-22.094-2.383-2.424-4.701-5.054-6.916-7.875-17.433-22.207-21.87-47.818-9.912-57.204 11.28-8.854 33.119-.107 50.191 19.554 3.565-4.973 8.157-8.077 13.329-8.432 8.83-.606 17.083 6.957 21.952 18.66 3.366-2.848 7.068-4.3 10.827-3.941 10.987 1.048 18.577 17.195 17.879 36.956 4.558-3.907 9.643-5.654 14.352-4.382 10.209 2.758 14.792 18.666 10.236 35.531z" fill="#ffc14f"/><path d="m199.502 153.63c-4.557 16.865-16.528 28.3-26.739 25.541-.453-.122-.895-.271-1.325-.444-.106.586-.237 1.168-.391 1.745-46.168-29.429-81.858-73.086-101.534-124.145 11.847-1.14 28.084 7.557 41.414 22.909 3.565-4.973 8.157-8.077 13.329-8.432 8.83-.606 17.083 6.957 21.952 18.66 3.366-2.848 7.068-4.3 10.827-3.941 10.987 1.048 18.577 17.195 17.879 36.956 4.558-3.907 9.643-5.654 14.352-4.382 10.209 2.76 14.792 18.668 10.236 35.533z" fill="#fff36c"/><path d="m208.398 201.267c-.873 1.76-2.644 2.78-4.483 2.78-.746 0-1.504-.168-2.217-.522-12.725-6.309-26.826-15.414-40.859-26.053-8.052 2.601-18.276 3.997-27.92 3.997-6.18 0-12.12-.573-17.1-1.768-2.685-.644-4.34-3.344-3.695-6.029s3.34-4.341 6.029-3.695c8.832 2.12 22.048 1.87 32.782-.277-7.047-5.718-13.99-11.752-20.639-17.94-2.934.483-6.206.713-9.642.713-11.487 0-24.842-2.564-33.804-6.817-2.495-1.184-3.558-4.166-2.374-6.661 1.184-2.494 4.164-3.559 6.661-2.374 7.532 3.575 19.535 5.825 29.51 5.844-12.523-12.498-23.529-25.281-31.553-37.075-1.554-2.283-.962-5.393 1.321-6.946 2.283-1.554 5.394-.961 6.946 1.321 6.669 9.802 15.47 20.312 25.502 30.744-.359-6.942.226-14.102 1.801-19.571.766-2.653 3.535-4.185 6.188-3.42 2.654.765 4.186 3.535 3.421 6.189-2.263 7.852-1.951 21.021.68 28.757.004.011.007.022.011.033 6.117 5.784 12.515 11.447 19.033 16.849-1.61-10.478-1.53-22.146.534-30.75.645-2.685 3.337-4.339 6.029-3.695 2.685.644 4.339 3.344 3.695 6.029-2.553 10.637-1.401 28.126 2.497 38.533 13.528 10.25 27.119 19.021 39.386 25.103 2.476 1.227 3.486 4.227 2.26 6.701z" fill="#f29500"/><path d="m482.701 294.574s14.326 49.26 8.2 63.357c-47.664-16.636-115.047-25.59-173.611-24.365-5-32.491-3.786-66.491 4.612-100.394 1.653-6.672 3.553-13.217 5.689-19.628 19.903-.013 40.525.886 61.406 2.714 44.07 3.859 86.868 11.597 123.003 22.291.212 3.165-29.299 56.025-29.299 56.025z" fill="#51489a"/><path d="m317.29 333.567-.001-.003c-3.056-19.861-3.79-40.285-1.981-60.907l117.862-16.657 21.916 42.575z" fill="#453d83"/><path d="m169.795 183.766c12.298-3.74 25.647-7.006 39.812-9.769 36.683-7.155 70.855 20.808 70.87 58.182 0 .502 0 1.003-.001 1.504-.042 28.34-20.234 52.58-48.038 58.067-9.863 1.946-19.169 4.221-27.73 6.825-43.637 13.27-100.496 20.578-160.102 20.578-12.485 0-24.849-.321-36.996-.95-4.971-19.914-7.61-40.75-7.61-62.203 0-19.937 2.279-39.341 6.591-57.967 57.216 3.691 119.789-1.065 163.204-14.267z" fill="#51489a"/><path d="m329.897 163.188c55.206 0 108.056 6.269 150.227 17.738 5.435 1.478 8.559 7.169 6.92 12.558l-31.958 105.092c-67.859-20.636-182.519-20.636-250.378 0-4.984 1.516-10.14 2.953-15.453 4.311-29.184 7.459-59.477-8.03-70.384-36.108-.16-.413-.32-.826-.478-1.239-12.741-33.311 6.902-70.029 41.426-78.972 3.424-.887 6.753-1.821 9.977-2.801 43.636-13.271 100.494-20.579 160.101-20.579z" fill="#5f55af"/><path d="m53.838 222.877c-.021-.044-.042-.088-.065-.131-1.21-2.359-3.699-3.739-6.34-3.516-.002 0-.004 0-.007.001-2.644.225-4.866 2.007-5.661 4.539-.012.039-.024.077-.035.116l-19.458 67.689c-.763 2.654.77 5.424 3.424 6.187.603.173 1.21.228 1.8.179 2.008-.169 3.797-1.551 4.387-3.602l3.894-13.546 33.258-2.8 6.052 12.694c1.188 2.493 4.173 3.552 6.664 2.362 2.493-1.188 3.55-4.172 2.362-6.665zm-15.105 47.63 10.056-34.983 15.646 32.819zm410.932-71.125-6.429 64.191c-.333 3.034-2.227 5.293-4.83 5.802-2.52.493-5.015-.787-6.355-3.263l-30.038-55.659-5.528 50.292c-.302 2.745-2.772 4.725-5.516 4.424-2.745-.302-4.725-2.772-4.424-5.516l7.28-66.235c.239-2.175 1.865-3.942 4.012-4.361 2.15-.419 4.319.607 5.358 2.533l31.377 58.14 5.142-51.344c.276-2.748 2.726-4.752 5.474-4.477.016.002.033.004.049.005 2.723.299 4.702 2.736 4.428 5.468zm-77.939 56.549c.426 2.728-1.441 5.285-4.169 5.711-2.729.425-5.285-1.441-5.711-4.169l-7.941-50.874-16.099 49.967c-.019.057-.038.115-.059.171-.959 2.645-3.493 4.368-6.306 4.287-.011 0-.022-.001-.034-.001-2.799-.095-5.213-1.957-6.015-4.643-.018-.059-.035-.119-.05-.179l-13.178-50.99-10.824 50.154c-.582 2.7-3.242 4.414-5.942 3.832-2.699-.582-4.415-3.243-3.832-5.942l13.936-64.574c.669-2.937 3.19-5.017 6.143-5.115 2.945-.1 5.605 1.812 6.45 4.643.018.059.035.119.05.179l13.852 53.596 16.913-52.495c.019-.057.038-.115.059-.171 1.007-2.776 3.77-4.526 6.706-4.263 2.941.267 5.338 2.487 5.83 5.4zm-223.228 3.212c1.014 6.809-.212 16.642-11.806 24.821-3.686 2.6-7.941 4.273-12.645 4.974-.015.002-.029.004-.044.007-5.428.801-10.63.11-15.461-2.052-9.315-4.169-14.487-10.514-15.809-19.399l-6.764-45.437c-.407-2.731 1.478-5.275 4.209-5.682s5.275 1.478 5.682 4.209l6.764 45.437c.812 5.457 3.804 8.969 10.003 11.743 3.066 1.372 6.403 1.805 9.918 1.287.01-.001.02-.003.03-.004 3.146-.468 5.956-1.563 8.354-3.255 6.137-4.328 8.577-9.151 7.68-15.177l-6.757-45.389c-.407-2.731 1.478-5.275 4.209-5.682s5.275 1.478 5.682 4.209zm129.238-20.162c.787 6.839-.764 16.626-12.624 24.415-3.77 2.476-8.078 4.007-12.803 4.551-.015.002-.029.003-.044.005-5.452.62-10.628-.243-15.385-2.564-9.171-4.475-14.129-10.988-15.156-19.913l-5.252-45.636c-.316-2.743 1.652-5.223 4.396-5.539 2.743-.316 5.223 1.652 5.539 4.396l5.252 45.636c.631 5.482 3.504 9.091 9.607 12.069 3.019 1.473 6.339 2.016 9.87 1.615.01-.001.02-.002.03-.003 3.159-.364 6.004-1.364 8.457-2.976 6.277-4.122 8.876-8.861 8.179-14.913l-5.246-45.588c-.316-2.743 1.652-5.223 4.396-5.539 2.743-.316 5.223 1.652 5.539 4.396zm-77.301-34.955c.432 2.727-1.428 5.289-4.155 5.721l-13.342 2.116 9.673 60.997c.432 2.727-1.428 5.289-4.155 5.721s-5.289-1.428-5.721-4.155l-9.673-60.997-13.194 2.093c-2.727.432-5.289-1.428-5.721-4.155s1.428-5.289 4.155-5.721l36.413-5.775c2.726-.433 5.287 1.428 5.72 4.155z" fill="#fff5f5"/><path d="m436.234 96.221c-.963.899-2.188 1.344-3.409 1.344-1.338 0-2.673-.534-3.657-1.59-6.212-6.66-14.638-10.502-23.726-10.818-9.076-.318-17.759 2.93-24.419 9.142-.18.168-.37.32-.566.457-3.224 4.973-6.823 9.681-10.757 14.085 6.252.175 12.444 1.698 18.218 4.545 10.551 5.203 18.446 14.211 22.231 25.365.888 2.615-.513 5.454-3.127 6.342-.533.181-1.075.267-1.607.267-2.084 0-4.028-1.312-4.734-3.395-2.928-8.624-9.03-15.588-17.186-19.61s-17.396-4.625-26.019-1.698c-.005.002-.011.003-.016.005-19.858 16.532-45.375 26.487-73.173 26.487-2.762 0-5-2.239-5-5s2.238-5 5-5c9.075 0 17.883-1.163 26.284-3.347 10.289-14.899 7.094-35.47-7.481-46.503-2.202-1.667-2.636-4.802-.969-7.004 1.665-2.201 4.803-2.636 7.004-.969 15.705 11.888 21.195 32.338 14.898 49.976 10.801-4.456 20.698-10.67 29.332-18.286 4.601-6.925 6.496-15.18 5.348-23.476-1.246-9.007-5.931-16.994-13.192-22.491-2.202-1.667-2.636-4.802-.969-7.004 1.665-2.201 4.804-2.636 7.004-.969 9.392 7.109 15.451 17.441 17.062 29.094.353 2.549.483 5.094.398 7.614 12.459-17.209 19.811-38.346 19.811-61.168 0-2.761 2.238-5 5-5s5 2.239 5 5c0 15.969-3.285 31.185-9.215 45.008 5.127-1.808 10.598-2.657 16.189-2.462 11.757.409 22.655 5.378 30.689 13.991 1.884 2.021 1.774 5.185-.246 7.068zm-240.506-19.49c-.731 2.043-2.655 3.316-4.707 3.316-.56 0-1.129-.095-1.686-.294-1.451-.52-2.514-1.642-3.008-2.983-.154-.327-.275-.677-.358-1.045-2.367-10.586-8.707-19.612-17.852-25.414-9.145-5.803-20.014-7.694-30.598-5.327-2.691.603-5.368-1.094-5.971-3.788s1.094-5.368 3.789-5.97c13.189-2.95 26.735-.592 38.137 6.642 6.113 3.879 11.221 8.913 15.098 14.782-1.182-15.481-11.242-29.603-26.778-35.167-2.6-.931-3.953-3.793-3.021-6.393.931-2.6 3.795-3.952 6.393-3.021 26.255 9.4 39.964 38.408 30.562 64.662z" fill="#ae583e"/><path d="m303.683 474.001c-3.668 4.67-9.862 7.016-15.997 5.483-8.327-2.08-13.392-10.517-11.312-18.844 1.532-6.135 6.514-10.499 12.361-11.54 2.09-.372 16.259 23.232 14.948 24.901zm-50.4-97.447c-5.847 1.041-10.829 5.405-12.361 11.54-2.08 8.327 2.985 16.764 11.312 18.844 6.135 1.532 12.329-.813 15.997-5.483 1.31-1.67-12.859-25.273-14.948-24.901zm17.884-63.231c-7.982 2.605-14.102 9.693-15.044 18.583-1.278 12.068 7.468 22.888 19.536 24.166 9.376.993 17.998-4.064 21.978-12.029 1.143-2.287-23.616-31.651-26.47-30.72zm143.863-282.993c-3.288 7.991-11.152 13.617-20.329 13.617-12.136 0-21.973-9.838-21.973-21.973 0-8.94 5.339-16.633 13.003-20.065 2.738-1.227 30.359 25.845 29.299 28.421zm-50.687 41.429c-4.22 7.259-12.432 11.758-21.323 10.816-12.068-1.278-20.815-12.098-19.536-24.166.942-8.89 7.061-15.978 15.044-18.583 2.853-.931 27.323 29.339 25.815 31.933zm-41.72 20.945c-3.959 8.018-12.612 13.119-22.024 12.122-12.068-1.278-20.815-12.098-19.536-24.166.942-8.89 7.061-15.978 15.044-18.583 2.853-.932 27.634 28.364 26.516 30.627zm135.245-11.895c2.992 7.845 1.328 17.061-4.994 23.382-8.581 8.581-22.494 8.581-31.075 0-6.322-6.322-7.986-15.537-4.994-23.382 1.07-2.805 39.994-2.805 41.063 0zm-34.407 58.949c-.495 8.382-5.798 16.1-14.159 19.266-11.349 4.298-24.033-1.418-28.332-12.767-3.166-8.361-.898-17.446 5.053-23.369 2.128-2.118 37.615 13.873 37.438 16.87zm-147.84-91.105c-3.998 7.917-12.593 12.937-21.936 11.947-12.068-1.278-20.815-12.098-19.536-24.166.942-8.89 7.061-15.978 15.044-18.583 2.852-.931 27.594 28.493 26.428 30.802zm-29.366 58.13c-3.668 4.67-9.862 7.016-15.997 5.483-8.327-2.08-13.392-10.517-11.312-18.844 1.532-6.135 6.514-10.499 12.361-11.54 2.09-.372 16.259 23.232 14.948 24.901z" fill="#f44545"/><path d="m299.826 336.536c-.337 3.178-1.335 6.125-2.843 8.72-2.853.931-5.944 1.29-9.122.953-12.068-1.278-20.815-12.098-19.536-24.166.337-3.178 1.335-6.125 2.843-8.72 2.853-.931 5.944-1.29 9.122-.953 12.067 1.279 20.814 12.098 19.536 24.166zm-4.608 112.792c-2.193-.548-4.393-.6-6.483-.228-1.311 1.669-2.3 3.636-2.847 5.828-2.08 8.327 2.985 16.764 11.312 18.844 2.193.548 4.393.6 6.483.228 1.311-1.669 2.3-3.636 2.847-5.829 2.08-8.326-2.984-16.763-11.312-18.843zm-35.453-72.546c-2.193-.548-4.393-.6-6.483-.228-1.311 1.669-2.3 3.636-2.847 5.829-2.08 8.327 2.985 16.764 11.312 18.844 2.193.548 4.393.6 6.483.228 1.311-1.669 2.3-3.636 2.847-5.829 2.08-8.327-2.984-16.764-11.312-18.844zm134.936-376.782c-3.196 0-6.232.682-8.971 1.909-1.227 2.739-1.909 5.775-1.909 8.971 0 12.136 9.838 21.974 21.973 21.974 3.196 0 6.232-.682 8.971-1.909 1.227-2.739 1.909-5.775 1.909-8.971 0-12.136-9.837-21.974-21.973-21.974zm-47.051 38.873c-3.178-.337-6.269.022-9.122.953-1.508 2.595-2.507 5.542-2.843 8.72-1.278 12.068 7.468 22.888 19.536 24.166 3.178.337 6.269-.022 9.122-.953 1.508-2.595 2.507-5.542 2.843-8.72 1.279-12.068-7.468-22.887-19.536-24.166zm-42.421 22.25c-3.178-.337-6.269.022-9.122.953-1.508 2.595-2.507 5.542-2.843 8.72-1.278 12.068 7.468 22.888 19.536 24.166 3.178.337 6.269-.022 9.122-.953 1.508-2.595 2.507-5.542 2.843-8.72 1.279-12.068-7.468-22.887-19.536-24.166zm-46.915-44.225c-3.178-.337-6.269.022-9.122.953-1.508 2.595-2.507 5.542-2.843 8.72-1.278 12.068 7.468 22.888 19.536 24.166 3.178.337 6.269-.022 9.122-.953 1.508-2.595 2.507-5.542 2.843-8.72 1.279-12.068-7.468-22.888-19.536-24.166zm163.485 56.218c-2.26 2.26-3.924 4.889-4.993 7.693 1.07 2.804 2.734 5.434 4.993 7.693 8.581 8.581 22.494 8.581 31.075 0 2.26-2.26 3.924-4.889 4.993-7.693-1.07-2.804-2.734-5.434-4.993-7.693-8.581-8.582-22.493-8.582-31.075 0zm-28.062 44.809c-2.988 1.132-5.586 2.845-7.713 4.962-.177 2.996.26 6.077 1.392 9.065 4.298 11.349 16.983 17.065 28.332 12.767 2.988-1.132 5.586-2.845 7.713-4.962.177-2.996-.26-6.077-1.392-9.066-4.299-11.348-16.983-17.064-28.332-12.766zm-155.947-35.815c-2.193-.548-4.393-.6-6.483-.228-1.311 1.669-2.3 3.636-2.847 5.829-2.08 8.327 2.985 16.764 11.312 18.844 2.193.548 4.393.6 6.483.228 1.311-1.669 2.3-3.636 2.847-5.829 2.08-8.327-2.985-16.764-11.312-18.844z" fill="#f76937"/><path d="m182.287 495.325c-38.329 22.008-94.256 2.263-146.042-45.455-15.104-68.779 3.634-116.344 41.963-138.352 38.33-22.008 86.66-12.952 138.445 34.765 15.105 68.78 3.964 127.034-34.366 149.042z" fill="#cdc743"/><path d="m34.178 439.406c-11.053-63.15 7.676-107.014 44.03-127.888 37.894-21.758 85.563-13.154 136.682 33.154-12.141 11.139-25.209 21.731-39.162 31.647-45.095 32.046-93.828 53.03-141.55 63.087zm37.845 20.64c6.558.638 12.243-2.625 12.697-7.289s-4.495-8.962-11.053-9.6-12.243 2.625-12.697 7.289 4.495 8.962 11.053 9.6zm26.892 18.198c5.019.488 9.369-2.009 9.716-5.578s-3.44-6.858-8.459-7.347c-5.019-.488-9.369 2.009-9.716 5.578s3.44 6.859 8.459 7.347zm78.239 4.963c4.447-2.378 6.682-6.869 4.991-10.031s-6.666-3.799-11.113-1.421-6.682 6.869-4.991 10.031 6.666 3.799 11.113 1.421zm17.528-20.533c6.182-3.305 9.288-9.548 6.938-13.944s-9.267-5.28-15.448-1.975c-6.182 3.305-9.288 9.548-6.938 13.944 2.35 4.395 9.266 5.279 15.448 1.975zm-83.527-9.666c7.532.733 14.06-3.015 14.581-8.371s-5.162-10.292-12.694-11.024c-7.532-.733-14.06 3.015-14.581 8.371-.52 5.356 5.163 10.291 12.694 11.024z" fill="#bcb632"/><path d="m246.442 317.483c-11.662 13.945-27.253 28.776-44.733 43.042 1.509 17.432-2.856 41.436-10.437 56.299-.884 1.732-2.639 2.729-4.458 2.729-.765 0-1.54-.176-2.268-.547-2.46-1.255-3.438-4.266-2.183-6.726 5.796-11.362 9.569-29.345 9.645-44.045-10.017 7.756-20.499 15.258-31.1 22.26.006.173.003.349-.01.525-1.149 16.146-10.014 38.66-20.182 51.254-.988 1.224-2.435 1.859-3.894 1.859-1.103 0-2.213-.363-3.138-1.109-2.148-1.735-2.484-4.883-.75-7.031 7.481-9.267 14.369-25.199 16.983-38.446-20.017 12.468-40.032 22.866-57.738 29.557-.582.22-1.18.324-1.767.324-2.02 0-3.922-1.233-4.678-3.234-.977-2.583.326-5.469 2.909-6.445 15.353-5.802 32.489-14.468 49.822-24.871-9.901-1.364-20.328-4.5-27.553-8.603-2.401-1.364-3.242-4.416-1.878-6.817 1.363-2.4 4.415-3.242 6.817-1.878 8.713 4.949 24.099 8.443 34.698 8.007.636-.026 2.437-.012 2.908-.106 9.821-6.415 19.557-13.284 28.921-20.402-14.22-.72-30.158-4.412-40.946-9.915-2.46-1.255-3.437-4.266-2.183-6.726 1.255-2.46 4.267-3.437 6.726-2.182 12.925 6.592 35.077 10.368 49.546 8.465 16.894-13.811 31.961-28.158 43.246-41.653 1.771-2.118 4.924-2.4 7.043-.628 2.122 1.771 2.403 4.924.632 7.043z" fill="#a19c2b"/><path d="m403.866 472.964c-23.925 7.107-51.95-16.184-62.594-52.02-10.644-35.837 5.858-51.337 29.783-58.444 8.579-2.548 16.947-3.671 24.643-2.411 13.768 2.254 36.449 86.153 25.017 100.939-4.459 5.767-10.136 9.942-16.849 11.936z" fill="#ff9f22"/><path d="m420.715 461.027c-17.651-6.148-34.304-25.436-41.962-51.217s-1.265-41.038 11.833-50.216c15.985.539 29.669 9.832 37.327 35.614s4.234 51.033-7.198 65.819z" fill="#ffb655"/><path d="m378.853 388.753c-26.956 8.007-48.137 16.755-51.809 4.391s12.994-36.312 39.949-44.319c26.956-8.007 53.993 2.961 57.665 15.325 3.673 12.363-18.85 16.596-45.805 24.603z" fill="#c0694e"/><path d="m365.956 392.703c-20.61 6.38-35.85 10.752-38.912.441-3.387-11.405 10.53-32.666 33.866-42.18-2.873-7.438-10.145-17.643-19.355-24.803-2.181-1.695-2.574-4.836-.879-7.016 1.694-2.179 4.836-2.574 7.016-.879 10.125 7.871 19.027 19.741 22.722 29.644 2.347-.561 4.687-.984 7.005-1.279-17.808 10.929-27.611 28.998-24.498 39.478 1.624 5.47 6.245 7.115 13.035 6.594z" fill="#ae583e"/></g></svg>