<svg id="Layer_1" enable-background="new 0 0 52 52" height="512" viewBox="0 0 52 52" width="512" xmlns="http://www.w3.org/2000/svg"><g id="_x38_3"><path d="m49.2 14.1v21.2s-2.4-1.5-3.7-3.1c-.3-.4-.6-.8-.7-1.2 0 0-2.7 3-5.4 4.8 0 0 0 0-.1 0v14h-26.7v-14s0 0-.1 0c-2.6-1.8-5.3-4.8-5.3-4.8-.1.4-.4.8-.7 1.2-1.3 1.6-3.7 3.1-3.7 3.1v-21.2c2.1-2.5 6-3.3 8.1-3.5 1-.1 1.6-.1 1.6-.1.1-.1.2-.3.2-.3 1.7-2.3 5-2.6 5.5-2.6h.1c.4-.2.8-.5 1-.9 1.2-1.7 1.2-4.5 1.2-4.5h11s0 2.8 1.2 4.5c.3.4.6.7 1.1.9h.1c.5 0 3.8.3 5.5 2.6.1.1.1.2.2.3 0 0 .6 0 1.6.1 2.1.3 5.9 1 8 3.5z" fill="#ffaf93"/><path d="m12.6 35.8c-2.7-1.7-5.4-4.8-5.4-4.8-.1.4-.4.8-.7 1.2-1.3 1.6-3.7 3.1-3.7 3.1v-2.3s1.9-1.2 3.3-2.6v-1.2l.1-1.8c.2.2 1.8 2.4 4.9 4.8.9 1 1.5 2.3 1.5 3.6z" fill="#ee8778"/><path d="m49.2 33v2.3s-2.4-1.5-3.7-3.1c-.3-.4-.6-.8-.7-1.2 0 0-2.8 3-5.5 4.8 0-1.4.6-2.7 1.7-3.5 3-2.4 4.6-4.5 4.9-4.8l.1 1.8v1.2c1.3 1.4 3.2 2.5 3.2 2.5z" fill="#ee8778"/><g><g><g><path d="m43 12.6c-.1.3-.5.4-.8.2-1.4-.8-2.3-1.7-2.8-2.3 0 0 .6 0 1.6.1.4.4 1 .8 1.7 1.2.4.2.5.6.3.8z" fill="#ee8778"/></g><g><path d="m33.8 7.6c-.5 0-1.9.3-3.2 1.1-.3.2-.6.1-.8-.1-.1-.3-.1-.6.2-.8 1-.7 2-1 2.7-1.2.3.5.6.8 1.1 1z" fill="#ee8778"/></g><g><path d="m35.1 29.5c-6.2-3.8-6.9-10.9-7-13 0-.3.2-.6.5-.6s.6.2.6.5c.1 1.9.7 8.6 6.5 12.1.3.2.3.5.2.8-.2.3-.5.4-.8.2z" fill="#ee8778"/></g><g><path d="m45.5 32.2c-.3-.4-.6-.8-.7-1.2.4-1 1-2.8.5-4.4-.1-.3.1-.6.4-.7s.6.1.7.4c.7 2.6-.7 5.5-.9 5.9z" fill="#ee8778"/></g><g><path d="m39.4 35.8v1.6c-.6.7-1.4 1.7-1.9 2.7-.1.3-.5.4-.7.3-.3-.1-.4-.5-.3-.7.8-1.9 2.8-3.8 2.9-3.9z" fill="#ee8778"/></g><g><path d="m26 40.4c-.3 0-.5-.2-.5-.5v-16.9c0-.3.2-.5.5-.5s.5.2.5.5v16.8c0 .3-.2.6-.5.6z" fill="#ee8778"/></g><g><path d="m32.8 43.6c-2.3-1-4.8-3.7-4.9-3.8-.3-.3-.2-.7 0-1 .3-.3.7-.2 1 0 0 0 2.4 2.6 4.4 3.5.3.1.5.5.4.9-.2.4-.6.5-.9.4z" fill="#ee8778"/></g><g><path d="m26 40.4c-.3 0-.5-.2-.5-.5v-16.9c0-.3.2-.5.5-.5s.5.2.5.5v16.8c0 .3-.2.6-.5.6z" fill="#ee8778"/></g></g></g><g><g><g><path d="m9 12.6c.1.3.5.4.8.2 1.4-.8 2.3-1.7 2.8-2.3 0 0-.6 0-1.6.1-.4.4-1 .8-1.7 1.2-.4.2-.5.6-.3.8z" fill="#ee8778"/></g><g><path d="m18.2 7.6c.5 0 1.9.3 3.2 1.1.3.2.6.1.8-.1.1-.3.1-.6-.2-.8-1-.7-2-1-2.7-1.2-.3.5-.6.8-1.1 1z" fill="#ee8778"/></g><g><path d="m16.9 29.5c6.2-3.8 6.9-10.9 7-13 0-.3-.2-.6-.5-.6s-.6.2-.6.5c-.1 1.9-.7 8.6-6.5 12.1-.3.2-.3.5-.2.8.2.3.5.4.8.2z" fill="#ee8778"/></g><g><path d="m6.5 32.2c.3-.4.5-.8.7-1.2-.4-1-1-2.8-.5-4.4.1-.3-.1-.6-.4-.7s-.6.1-.7.4c-.7 2.6.7 5.5.9 5.9z" fill="#ee8778"/></g><g><path d="m12.6 35.8v1.6c.6.7 1.4 1.7 1.9 2.7.1.3.5.4.7.3.3-.1.4-.5.3-.7-.8-1.9-2.8-3.8-2.9-3.9z" fill="#ee8778"/></g><g><path d="m26 40.4c.3 0 .5-.2.5-.5v-16.9c0-.3-.2-.5-.5-.5s-.5.2-.5.5v16.8c0 .3.2.6.5.6z" fill="#ee8778"/></g><g><path d="m19.2 43.6c2.3-1 4.8-3.7 4.9-3.8.3-.3.2-.7 0-1-.3-.3-.7-.2-1 0 0 0-2.4 2.6-4.4 3.5-.3.1-.5.5-.4.9.2.4.6.5.9.4z" fill="#ee8778"/></g><g><path d="m26 40.4c.3 0 .5-.2.5-.5v-16.9c0-.3-.2-.5-.5-.5s-.5.2-.5.5v16.8c0 .3.2.6.5.6z" fill="#ee8778"/></g></g></g></g></svg>