<svg id="Capa_1" enable-background="new 0 0 511.998 511.998" height="512" viewBox="0 0 511.998 511.998" width="512" xmlns="http://www.w3.org/2000/svg"><g><path d="m253.661 511.723c-119.827-4.866-170.101-59.434-186.88-130.978s-17.543-278.916 30.932-276.948c48.474 1.969 22.85 83.602 68.705 85.464s20.051-170.585 73.765-168.403 21.468 149.962 67.056 158.375 31.45-95.831 78.614-93.916 182.843 439.2-132.192 426.406z" fill="#f19028"/><path d="m117.037 369.65c-6.062-63.293-17.473-149.537 10.364-156.381 15.905-3.91 36.585 14.398 48.949 25.618 4.64 4.21 12.079 2.143 13.885-3.856 6.741-22.38 22.963-68.311 42.572-68.311 16.487 0 31.729 33.787 48.648 62.593l64.384 27.777c15.18-19.698 19.204-56.141 36.185-56.141 23.269 0 32.305 83.897 14.099 130.919 0 0 .01 0 0 .01" fill="#f9da41"/><ellipse cx="326.012" cy="56.24" fill="#f19028" rx="31.87" ry="16.39" transform="matrix(.041 -.999 .999 .041 256.591 379.701)"/><g><circle cx="259.12" cy="369.648" fill="#ee596b" r="142.088"/><path d="m281.599 509.97c-7.326 1.163-14.826 1.773-22.471 1.773-78.475 0-142.095-63.62-142.095-142.095s63.62-142.081 142.095-142.081c7.645 0 15.146.61 22.471 1.773-67.792 10.771-119.609 69.478-119.609 140.307s51.817 129.552 119.609 140.323z" fill="#ed3a4f"/><g fill="#21386b"><path d="m313.244 325.952c-9.472 0-17.178 12.805-17.178 28.544s7.706 28.544 17.178 28.544 17.178-12.805 17.178-28.544-7.706-28.544-17.178-28.544z"/><path d="m204.997 325.952c-9.472 0-17.178 12.805-17.178 28.544s7.706 28.544 17.178 28.544 17.178-12.805 17.178-28.544-7.707-28.544-17.178-28.544z"/></g><path d="m315.291 444.912c-3.015 0-5.878-1.775-7.123-4.727-8.341-19.781-27.593-32.563-49.048-32.563s-40.707 12.782-49.048 32.563c-1.658 3.932-6.191 5.776-10.121 4.118-3.932-1.657-5.776-6.189-4.118-10.121 10.761-25.522 35.602-42.013 63.286-42.013s52.526 16.491 63.286 42.013c1.658 3.932-.186 8.463-4.118 10.121-.978.413-1.996.609-2.996.609z" fill="#21386b"/><g fill="#ed3a4f"><path d="m242.675 339.693c-30.393 0-58.476-25.601-59.656-26.69-3.136-2.894-3.331-7.783-.437-10.918 2.892-3.133 7.775-3.331 10.911-.443.246.226 24.883 22.599 49.182 22.599 4.267 0 7.726 3.459 7.726 7.726 0 4.266-3.459 7.726-7.726 7.726z"/><path d="m275.566 339.693c-4.267 0-7.726-3.459-7.726-7.726s3.459-7.726 7.726-7.726c12.532 0 25.184-6.089 33.592-11.197 9.37-5.693 15.523-11.339 15.584-11.395 3.136-2.893 8.024-2.699 10.918.437 2.894 3.135 2.699 8.024-.437 10.918-1.181 1.088-29.264 26.689-59.657 26.689z"/></g></g><ellipse cx="142.261" cy="40.764" fill="#f19028" rx="23.073" ry="40.818" transform="matrix(.998 -.063 .063 .998 -2.281 9.023)"/></g></svg>