<svg id="Layer_1" enable-background="new 0 0 512 512" viewBox="0 0 512 512" xmlns="http://www.w3.org/2000/svg" xmlns:xlink="http://www.w3.org/1999/xlink"><linearGradient id="lg1"><stop offset="0" stop-color="#fef0ae"/><stop offset="1" stop-color="#fac600"/></linearGradient><linearGradient id="SVGID_1_" gradientTransform="matrix(.325 -.946 .946 .325 -64.298 345.452)" gradientUnits="userSpaceOnUse" x1="172.901" x2="267.688" xlink:href="#lg1" y1="290.886" y2="317.065"/><linearGradient id="SVGID_00000088127630921810730850000001920972313110835874_" gradientTransform="matrix(.325 -.946 .946 .325 -64.298 345.452)" gradientUnits="userSpaceOnUse" x1="224.374" x2="307.425" xlink:href="#lg1" y1="303.452" y2="323.312"/><linearGradient id="lg2"><stop offset="0" stop-color="#fe9738" stop-opacity="0"/><stop offset=".2485" stop-color="#fe9433" stop-opacity=".249"/><stop offset=".5486" stop-color="#fe8c24" stop-opacity=".549"/><stop offset=".8742" stop-color="#fe7d0c" stop-opacity=".874"/><stop offset="1" stop-color="#fe7701"/></linearGradient><linearGradient id="SVGID_00000058554532589831829360000000569954247073590445_" gradientTransform="matrix(.898 -.439 .439 .898 -50.945 64.945)" gradientUnits="userSpaceOnUse" x1="301.495" x2="293.07" xlink:href="#lg2" y1="375.58" y2="416.102"/><linearGradient id="SVGID_00000011012106695724198250000004635073014582908310_" gradientTransform="matrix(.898 -.439 .439 .898 -50.945 64.945)" gradientUnits="userSpaceOnUse" x1="338.223" x2="357.882" xlink:href="#lg2" y1="380.971" y2="417.481"/><linearGradient id="SVGID_00000156559138207990998190000001363029486727774654_" gradientUnits="userSpaceOnUse" x1="326.978" x2="295.912" xlink:href="#lg2" y1="200.753" y2="263.993"/><linearGradient id="lg3"><stop offset="0" stop-color="#7a6d79"/><stop offset=".2544" stop-color="#6d626c"/><stop offset=".683" stop-color="#5b535c"/><stop offset="1" stop-color="#554e56"/></linearGradient><linearGradient id="SVGID_00000005959031083718111450000003643875141609883522_" gradientTransform="matrix(.898 -.439 .439 .898 -50.945 64.945)" gradientUnits="userSpaceOnUse" x1="436.264" x2="444.771" xlink:href="#lg3" y1="347.386" y2="364.047"/><linearGradient id="SVGID_00000056392906844798670070000000823459464819728802_" gradientTransform="matrix(.52 -.854 .854 .52 -102.752 299.436)" gradientUnits="userSpaceOnUse" x1="152.169" x2="260.228" xlink:href="#lg1" y1="269.497" y2="299.342"/><linearGradient id="SVGID_00000041280452359022858970000016235613487736279230_" gradientTransform="matrix(.52 -.854 .854 .52 -102.752 299.436)" gradientUnits="userSpaceOnUse" x1="210.849" x2="305.53" xlink:href="#lg1" y1="283.823" y2="306.464"/><linearGradient id="SVGID_00000023973564923588601240000011074061579394957467_" gradientTransform="matrix(.972 -.237 .237 .972 -29.641 28.295)" gradientUnits="userSpaceOnUse" x1="286.936" x2="277.331" xlink:href="#lg2" y1="381.558" y2="427.755"/><linearGradient id="SVGID_00000100383413649958227900000015533685215793686662_" gradientTransform="matrix(.972 -.237 .237 .972 -29.641 28.295)" gradientUnits="userSpaceOnUse" x1="328.807" x2="351.219" xlink:href="#lg2" y1="387.704" y2="429.327"/><linearGradient id="SVGID_00000142867188752585734000000012028778335166007446_" gradientUnits="userSpaceOnUse" x1="294.638" x2="261.354" xlink:href="#lg2" y1="265.185" y2="331.754"/><linearGradient id="SVGID_00000168099700793431533220000006219493443512879026_" gradientUnits="userSpaceOnUse" x1="403.541" x2="329.575" xlink:href="#lg2" y1="311.2" y2="322.294"/><linearGradient id="SVGID_00000042709711213697598720000001723620521711458974_" gradientTransform="matrix(.972 -.237 .237 .972 -29.641 28.295)" gradientUnits="userSpaceOnUse" x1="440.577" x2="450.276" xlink:href="#lg3" y1="349.416" y2="368.41"/><linearGradient id="SVGID_00000084525432601430705590000005333927986486217088_" gradientTransform="matrix(.707 -.707 .707 .707 -135.176 246.15)" gradientUnits="userSpaceOnUse" x1="123.316" x2="239.811" xlink:href="#lg1" y1="240.412" y2="272.587"/><linearGradient id="SVGID_00000123439302251701339280000018402712414751906235_" gradientTransform="matrix(.707 -.707 .707 .707 -135.176 246.15)" gradientUnits="userSpaceOnUse" x1="186.577" x2="288.649" xlink:href="#lg1" y1="255.856" y2="280.264"/><linearGradient id="SVGID_00000090994919012064606870000007921418410163958664_" gradientUnits="userSpaceOnUse" x1="255.644" x2="245.289" xlink:href="#lg2" y1="385.488" y2="435.291"/><linearGradient id="SVGID_00000155106787349475334170000015809040206801026457_" gradientUnits="userSpaceOnUse" x1="300.783" x2="324.945" xlink:href="#lg2" y1="392.113" y2="436.986"/><linearGradient id="SVGID_00000016062493681860911600000004270081654383503794_" gradientUnits="userSpaceOnUse" x1="421.278" x2="431.734" xlink:href="#lg3" y1="350.836" y2="371.313"/><linearGradient id="SVGID_00000101081934925882385640000004876691364594966710_" gradientUnits="userSpaceOnUse" x1="349.26" x2="304.141" xlink:href="#lg2" y1="396.092" y2="371.683"/><linearGradient id="SVGID_00000054232718193850101590000004046784545686923941_" gradientUnits="userSpaceOnUse" x1="182.686" x2="167.4" y1="173.853" y2="107.777"><stop offset="0" stop-color="#d5efc8" stop-opacity="0"/><stop offset="1" stop-color="#68ca44"/></linearGradient><linearGradient id="SVGID_00000016036223548239937740000005272024580288901797_" gradientTransform="matrix(0 -1 1 0 -73.309 510.767)" gradientUnits="userSpaceOnUse" x1="70.953" x2="169.339" xlink:href="#lg1" y1="204.695" y2="231.869"/><linearGradient id="SVGID_00000073708341573653559530000011809905232784258196_" gradientTransform="matrix(0 -1 1 0 -73.309 510.767)" gradientUnits="userSpaceOnUse" x1="124.381" x2="210.585" xlink:href="#lg1" y1="217.739" y2="238.353"/><linearGradient id="SVGID_00000042719768107526989320000000701675521061058749_" gradientTransform="matrix(.707 -.707 .707 .707 -151.779 241.128)" gradientUnits="userSpaceOnUse" x1="172.59" x2="163.845" xlink:href="#lg2" y1="388.469" y2="430.531"/><linearGradient id="SVGID_00000142866947228896796460000004465898956090835888_" gradientTransform="matrix(.707 -.707 .707 .707 -151.779 241.128)" gradientUnits="userSpaceOnUse" x1="210.712" x2="231.118" xlink:href="#lg2" y1="394.065" y2="431.962"/><linearGradient id="SVGID_00000025410744802386855940000013299704507571620503_" gradientTransform="matrix(.707 -.707 .707 .707 -151.779 241.128)" gradientUnits="userSpaceOnUse" x1="312.476" x2="321.307" xlink:href="#lg3" y1="359.205" y2="376.498"/><linearGradient id="SVGID_00000134969414177415783910000012994048472363114682_" gradientUnits="userSpaceOnUse" x1="298.447" x2="253.082" y1="409.662" y2="377.61"><stop offset="0" stop-color="#fef0ae"/><stop offset=".1658" stop-color="#fde681" stop-opacity=".834"/><stop offset=".3604" stop-color="#fcda53" stop-opacity=".64"/><stop offset=".5469" stop-color="#fbd22f" stop-opacity=".453"/><stop offset=".7207" stop-color="#facb15" stop-opacity=".279"/><stop offset=".8767" stop-color="#fac805" stop-opacity=".123"/><stop offset="1" stop-color="#fac600" stop-opacity="0"/></linearGradient><linearGradient id="SVGID_00000108991384803220499120000015740746391769051048_" gradientUnits="userSpaceOnUse" x1="173.501" x2="173.501" y1="65.051" y2="108.829"><stop offset="0" stop-color="#d5efc8"/><stop offset="1" stop-color="#68ca44"/></linearGradient><linearGradient id="lg4"><stop offset="0" stop-color="#47a920" stop-opacity="0"/><stop offset=".2191" stop-color="#42a725" stop-opacity=".219"/><stop offset=".4839" stop-color="#33a232" stop-opacity=".484"/><stop offset=".771" stop-color="#1b9947" stop-opacity=".771"/><stop offset="1" stop-color="#02905d"/></linearGradient><linearGradient id="SVGID_00000109718148497017521140000004318167186037721007_" gradientUnits="userSpaceOnUse" x1="173.501" x2="173.501" xlink:href="#lg4" y1="80.213" y2="111.039"/><linearGradient id="SVGID_00000058550762662002850450000004276370057787040180_" gradientUnits="userSpaceOnUse" x1="217.459" x2="264.057" xlink:href="#lg4" y1="85.637" y2="100.061"/><g><g><path d="m331.31 210.415c-56.02-19.236-95.107-65.459-107.731-119.152-3.153-13.409-21.745-14.519-26.337-1.533-.197.557-.391 1.115-.582 1.675-29.893 87.452 18.083 183.176 106.01 211.64 85.922 27.814 178.623-18.275 208.073-104.039.169-.493.336-.987.501-1.481 4.348-13.055-11.017-23.579-21.731-14.945-42.946 34.611-102.183 47.071-158.203 27.835z" fill="url(#SVGID_1_)"/><path d="m510.4 186.75c-3.765-6.917-13.445-10.167-20.887-4.169-42.946 34.611-102.184 47.071-158.203 27.835s-95.107-65.459-107.731-119.152c-2.185-9.295-11.788-12.675-19.005-9.551-7.693 75.994 38.386 150.323 114.067 174.822 73.635 23.837 152.245-6.609 191.759-69.785z" fill="url(#SVGID_00000088127630921810730850000001920972313110835874_)"/><path d="m302.67 303.045c85.922 27.814 178.623-18.275 208.073-104.039.169-.493.336-.987.501-1.481 4.348-13.055-11.017-23.579-21.731-14.945-41.633 33.553-98.578 46.287-153.059 29.508l-100.969 49.352c18.141 18.541 40.872 33.087 67.185 41.605z" fill="url(#SVGID_00000058554532589831829360000000569954247073590445_)"/><path d="m302.67 303.045c85.922 27.814 178.623-18.275 208.073-104.039.169-.493.336-.987.501-1.481 4.348-13.055-11.017-23.579-21.731-14.945-41.633 33.553-98.578 46.287-153.059 29.508l-100.969 49.352c18.141 18.541 40.872 33.087 67.185 41.605z" fill="url(#SVGID_00000011012106695724198250000004635073014582908310_)"/><path d="m331.31 210.415c-56.02-19.236-95.107-65.459-107.731-119.152-3.153-13.409-21.745-14.519-26.337-1.533-.197.557-.391 1.115-.582 1.675-29.893 87.452 18.083 183.176 106.01 211.64 85.922 27.814 178.623-18.275 208.073-104.039.169-.493.336-.987.501-1.481 4.348-13.055-11.017-23.579-21.731-14.945-42.946 34.611-102.183 47.071-158.203 27.835z" fill="url(#SVGID_00000156559138207990998190000001363029486727774654_)"/><path d="m489.513 182.58c-.018.015-.036.029-.055.044-3.181 2.561-3.7 7.229-1.059 10.344 3.392 4 7.34 7.387 11.669 10.102 3.89 2.439 9.081.551 10.58-3.789.032-.091.063-.183.095-.275.169-.493.336-.987.501-1.481 4.348-13.055-11.017-23.579-21.731-14.945z" fill="url(#SVGID_00000005959031083718111450000003643875141609883522_)"/></g><g><path d="m294.326 251.747c-57.687-35.097-89.93-96.113-90.879-158.987-.237-15.702-20.67-21.477-28.954-8.136-.355.572-.708 1.146-1.057 1.723-54.638 90.088-24.581 208.398 66.385 261.56 88.892 51.95 203.374 23.256 257.107-65.06.309-.508.616-1.017.919-1.527 8.029-13.477-6.512-28.947-20.551-21.947-56.275 28.057-125.283 27.471-182.97-7.626z" fill="url(#SVGID_00000056392906844798670070000000823459464819728802_)"/><path d="m499.536 269.114c-2.504-8.622-12.49-14.604-22.241-9.742-56.274 28.058-125.282 27.472-182.969-7.625s-89.93-96.113-90.879-158.987c-.164-10.884-10.032-16.992-18.832-15.275-27.119 82.748 6.048 176.77 84.345 222.527 76.179 44.521 171.15 29.807 230.576-30.898z" fill="url(#SVGID_00000041280452359022858970000016235613487736279230_)"/><path d="m239.82 347.906c88.892 51.95 203.374 23.256 257.107-65.06.309-.508.616-1.017.919-1.527 8.029-13.477-6.512-28.947-20.551-21.947-54.554 27.201-121.075 27.479-177.648-4.506l-124.487 30.308c15.676 25.076 37.437 46.823 64.66 62.732z" fill="url(#SVGID_00000023973564923588601240000011074061579394957467_)"/><path d="m239.82 347.906c88.892 51.95 203.374 23.256 257.107-65.06.309-.508.616-1.017.919-1.527 8.029-13.477-6.512-28.947-20.551-21.947-54.554 27.201-121.075 27.479-177.648-4.506l-124.487 30.308c15.676 25.076 37.437 46.823 64.66 62.732z" fill="url(#SVGID_00000100383413649958227900000015533685215793686662_)"/><path d="m294.326 251.747c-57.687-35.097-89.93-96.113-90.879-158.987-.237-15.702-20.67-21.477-28.954-8.136-.355.572-.708 1.146-1.057 1.723-54.638 90.088-24.581 208.398 66.385 261.56 88.892 51.95 203.374 23.256 257.107-65.06.309-.508.616-1.017.919-1.527 8.029-13.477-6.512-28.947-20.551-21.947-56.275 28.057-125.283 27.471-182.97-7.626z" fill="url(#SVGID_00000142867188752585734000000012028778335166007446_)"/><path d="m477.295 259.372c-45.558 22.715-99.461 26.648-148.948 8.702v105.559c66.2 2.356 131.7-30.17 168.579-90.787.309-.508.616-1.017.919-1.527 8.03-13.476-6.511-28.947-20.55-21.947z" fill="url(#SVGID_00000168099700793431533220000006219493443512879026_)"/><path d="m477.295 259.372c-.024.012-.048.024-.072.036-4.168 2.075-5.885 7.147-3.705 11.26 2.801 5.283 6.371 10.018 10.529 14.098 3.736 3.666 9.978 2.83 12.707-1.637.058-.094.115-.188.172-.283.309-.508.616-1.017.919-1.527 8.03-13.476-6.511-28.947-20.55-21.947z" fill="url(#SVGID_00000042709711213697598720000001723620521711458974_)"/></g><g><path d="m228.668 290.82c-51.475-51.475-69.687-123.609-54.648-189.709 3.756-16.507-16.174-27.768-28.253-15.906-.518.508-1.033 1.02-1.547 1.535-80.205 80.43-78.894 212.021 2.832 290.905 79.863 77.085 207.097 76.225 285.903-2.581.453-.453.904-.908 1.352-1.365 11.847-12.069.561-31.982-15.929-28.23-66.101 15.038-138.236-3.175-189.71-54.649z" fill="url(#SVGID_00000084525432601430705590000005333927986486217088_)"/><path d="m439.189 361.344c-.424-9.67-9.358-18.482-20.812-15.876-66.1 15.039-138.235-3.174-189.709-54.648s-69.688-123.609-54.649-189.71c2.604-11.443-6.175-20.357-15.83-20.803-49.509 79.76-38.745 186.703 31.599 254.6 68.443 66.062 171.674 74.869 249.401 26.437z" fill="url(#SVGID_00000123439302251701339280000018402712414751906235_)"/><path d="m147.051 377.644c79.863 77.085 207.097 76.225 285.903-2.581.453-.453.904-.908 1.352-1.365 11.847-12.069.561-31.982-15.929-28.23-64.08 14.58-133.83-2.094-184.932-50.024h-138.124c10.025 30.263 27.273 58.593 51.73 82.2z" fill="url(#SVGID_00000090994919012064606870000007921418410163958664_)"/><path d="m147.051 377.644c79.863 77.085 207.097 76.225 285.903-2.581.453-.453.904-.908 1.352-1.365 11.847-12.069.561-31.982-15.929-28.23-64.08 14.58-133.83-2.094-184.932-50.024h-138.124c10.025 30.263 27.273 58.593 51.73 82.2z" fill="url(#SVGID_00000155106787349475334170000015809040206801026457_)"/><path d="m418.377 345.468c-.028.006-.056.013-.084.019-4.895 1.111-7.987 5.986-6.752 10.85 1.587 6.248 4.118 12.118 7.433 17.452 2.979 4.793 9.73 5.509 13.727 1.526.084-.084.168-.168.253-.252.453-.453.904-.908 1.352-1.365 11.848-12.069.561-31.982-15.929-28.23z" fill="url(#SVGID_00000016062493681860911600000004270081654383503794_)"/></g><path d="m418.377 345.468c-35.068 7.979-71.828 6.575-106.306-4.166l-75.401 86.8c67.854 17.821 143.098.148 196.284-53.038.453-.453.904-.908 1.352-1.365 11.848-12.07.561-31.983-15.929-28.231z" fill="url(#SVGID_00000101081934925882385640000004876691364594966710_)"/><path d="m223.579 91.263c-2.594-11.034-15.637-13.731-22.737-7.108-5.809-8.687-19.834-10.024-26.35.468-.355.572-.708 1.146-1.057 1.723-.45.743-.88 1.492-1.319 2.239-5.177-8.546-17.75-11.827-26.351-3.382-.518.508-1.033 1.02-1.547 1.535-62.752 62.928-75.601 157.172-39.081 232.989l199.683-121.074c-41.788-23.071-70.717-62.627-81.241-107.39z" fill="url(#SVGID_00000054232718193850101590000004046784545686923941_)"/><g><path d="m172.306 353.353c-61.48 0-115.434-32.201-145.927-80.657-7.615-12.101-26.241-6.924-26.372 7.373-.006.613-.008 1.226-.007 1.841.134 95.929 79.501 173.73 175.416 172.033 93.727-1.659 169.196-78.155 169.196-172.278 0-.542-.003-1.082-.008-1.623-.132-14.282-18.764-19.434-26.371-7.346-30.493 48.456-84.447 80.657-145.927 80.657z" fill="url(#SVGID_00000016036223548239937740000005272024580288901797_)"/><path d="m340.143 269.749c-6.028-5.522-16.626-5.449-21.91 2.948-30.493 48.455-84.447 80.657-145.927 80.657s-115.434-32.202-145.927-80.657c-5.279-8.388-15.845-8.469-21.877-2.97 18.065 77.198 88.358 134.634 170.914 133.173 80.324-1.422 147.232-57.81 164.727-133.151z" fill="url(#SVGID_00000073708341573653559530000011809905232784258196_)"/><path d="m175.416 453.943c93.727-1.659 169.196-78.155 169.196-172.278 0-.542-.003-1.082-.008-1.623-.132-14.282-18.764-19.434-26.371-7.346-29.561 46.974-81.172 78.671-140.312 80.565l-82.486 82.486c24.059 12.087 51.277 18.704 79.981 18.196z" fill="url(#SVGID_00000042719768107526989320000000701675521061058749_)"/><path d="m175.416 453.943c93.727-1.659 169.196-78.155 169.196-172.278 0-.542-.003-1.082-.008-1.623-.132-14.282-18.764-19.434-26.371-7.346-29.561 46.974-81.172 78.671-140.312 80.565l-82.486 82.486c24.059 12.087 51.277 18.704 79.981 18.196z" fill="url(#SVGID_00000142866947228896796460000004465898956090835888_)"/><path d="m318.233 272.697c-.013.021-.026.041-.039.062-2.26 3.586-1.196 8.344 2.447 10.512 4.679 2.784 9.696 4.777 14.861 5.983 4.641 1.084 9.101-2.521 9.109-7.287 0-.1 0-.201 0-.301 0-.542-.003-1.082-.008-1.623-.131-14.283-18.763-19.435-26.37-7.346z" fill="url(#SVGID_00000025410744802386855940000013299704507571620503_)"/></g><path d="m175.416 453.943c93.727-1.659 169.196-78.155 169.196-172.278 0-.542-.003-1.082-.008-1.623-.132-14.282-18.764-19.434-26.371-7.346-29.561 46.974-81.172 78.671-140.312 80.565l-82.486 82.486c24.059 12.087 51.277 18.704 79.981 18.196z" fill="url(#SVGID_00000134969414177415783910000012994048472363114682_)"/><path d="m79.072 79.594v.568c0 9.518 6.22 17.965 15.348 20.661 52.548 15.521 105.614 15.52 158.162-.001 9.128-2.696 15.348-11.143 15.348-20.661v-.568c0-14.097-13.278-24.334-26.949-20.895-44.879 11.29-90.081 11.291-134.96 0-13.67-3.438-26.949 6.799-26.949 20.896z" fill="url(#SVGID_00000108991384803220499120000015740746391769051048_)"/><path d="m79.072 79.594v.568c0 9.518 6.22 17.965 15.348 20.661 52.548 15.521 105.614 15.52 158.162-.001 9.128-2.696 15.348-11.143 15.348-20.661v-.568c0-14.097-13.278-24.334-26.949-20.895-44.879 11.29-90.081 11.291-134.96 0-13.67-3.438-26.949 6.799-26.949 20.896z" fill="url(#SVGID_00000109718148497017521140000004318167186037721007_)"/><path d="m240.982 58.699c-19.515 4.909-39.091 7.682-58.674 8.321v45.292c23.467-.767 46.922-4.591 70.275-11.489 9.128-2.696 15.348-11.143 15.348-20.661v-.568c0-14.097-13.279-24.334-26.949-20.895z" fill="url(#SVGID_00000058550762662002850450000004276370057787040180_)"/></g><g/><g/><g/><g/><g/><g/><g/><g/><g/><g/><g/><g/><g/><g/><g/></svg>