<svg height="512pt" viewBox="0 0 512 512" width="512pt" xmlns="http://www.w3.org/2000/svg"><path d="m512 256c0 57.667969-19.070312 110.875-51.242188 153.671875-7.3125 9.738281-15.316406 18.945313-23.929687 27.535156-4.1875 4.179688-8.523437 8.222657-12.996094 12.097657-44.929687 39.058593-103.613281 62.695312-167.832031 62.695312s-122.902344-23.636719-167.832031-62.695312c-4.472657-3.875-8.808594-7.917969-12.996094-12.097657-2.84375-2.832031-5.613281-5.738281-8.320313-8.703125-5.496093-6.019531-10.710937-12.3125-15.609374-18.832031-32.171876-42.796875-51.242188-96.003906-51.242188-153.671875 0-141.386719 114.613281-256 256-256s256 114.613281 256 256zm0 0" fill="#69b8d4"/><path d="m95.699219 183.164062h324.761719v266.597657h-324.761719zm0 0" fill="#b3b3b3"/><path d="m408.878906 442.898438c-4.421875.113281-8.835937.21875-13.257812.308593-16.167969.363281-32.328125.554688-48.496094.601563-5.375.023437-10.742188.023437-16.117188 0-16.160156-.046875-32.328124-.238282-48.5-.601563-4.421874-.085937-8.84375-.195312-13.265624-.308593-.175782-41.066407.769531-102.203126 2.835937-137.058594.441406-7.4375 6.019531-13.574219 13.386719-14.648438 35.738281-5.234375 71.464844-5.234375 107.199218 0 7.371094 1.074219 12.949219 7.210938 13.390626 14.648438 2.066406 34.855468 3.007812 95.992187 2.824218 137.058594zm0 0" fill="#fff"/><path d="m331.007812 300.597656v143.210938c-16.160156-.046875-32.328124-.238282-48.496093-.601563-.203125-41.941406.730469-101.886719 2.777343-136.589843.074219-1.183594.953126-2.160157 2.09375-2.328126 14.464844-2.121093 29.105469-3.363281 43.625-3.691406zm0 0" fill="#564d47"/><path d="m395.621094 443.207031c-16.167969.363281-32.328125.554688-48.496094.601563v-143.210938c14.519531.328125 29.160156 1.570313 43.625 3.691406 1.140625.167969 2.023438 1.144532 2.09375 2.328126 2.046875 34.703124 2.980469 94.648437 2.777344 136.589843zm0 0" fill="#564d47"/><path d="m359.769531 399.492188c-2.859375 0-5.175781-2.320313-5.175781-5.175782v-47.15625c0-2.859375 2.316406-5.175781 5.175781-5.175781s5.175781 2.316406 5.175781 5.175781v47.15625c0 2.855469-2.320312 5.175782-5.175781 5.175782zm0 0" fill="#999"/><path d="m318.363281 399.492188c-2.859375 0-5.175781-2.320313-5.175781-5.175782v-47.15625c0-2.859375 2.316406-5.175781 5.175781-5.175781s5.175781 2.316406 5.175781 5.175781v47.15625c0 2.855469-2.316406 5.175782-5.175781 5.175782zm0 0" fill="#999"/><path d="m240.101562 442.898438c-4.421874.113281-8.832031.21875-13.253906.308593-16.171875.363281-32.332031.554688-48.5.601563-5.375.023437-10.742187.023437-16.117187 0-16.160157-.046875-32.328125-.238282-48.496094-.601563-4.421875-.085937-8.84375-.195312-13.265625-.308593-.175781-41.066407.769531-102.203126 2.832031-137.058594.441407-7.4375 6.019531-13.574219 13.390625-14.648438 35.734375-5.234375 71.460938-5.234375 107.199219 0 7.371094 1.074219 12.945313 7.210938 13.390625 14.648438 2.0625 34.855468 3.007812 95.992187 2.820312 137.058594zm0 0" fill="#fff"/><path d="m162.230469 300.597656v143.210938c-16.160157-.046875-32.328125-.238282-48.496094-.601563-.203125-41.941406.730469-101.886719 2.78125-136.589843.070313-1.183594.953125-2.160157 2.089844-2.328126 14.464843-2.121093 29.109375-3.363281 43.625-3.691406zm0 0" fill="#564d47"/><path d="m226.847656 443.207031c-16.171875.363281-32.332031.554688-48.5.601563v-143.210938c14.519532.328125 29.160156 1.570313 43.628906 3.691406 1.136719.167969 2.019532 1.144532 2.089844 2.328126 2.046875 34.703124 2.984375 94.648437 2.78125 136.589843zm0 0" fill="#564d47"/><path d="m190.992188 399.492188c-2.859376 0-5.175782-2.320313-5.175782-5.175782v-47.15625c0-2.859375 2.320313-5.175781 5.175782-5.175781 2.859374 0 5.175781 2.316406 5.175781 5.175781v47.15625c0 2.855469-2.316407 5.175782-5.175781 5.175782zm0 0" fill="#999"/><path d="m149.585938 399.492188c-2.855469 0-5.171876-2.320313-5.171876-5.175782v-47.15625c0-2.859375 2.316407-5.175781 5.171876-5.175781 2.859374 0 5.175781 2.316406 5.175781 5.175781v47.15625c0 2.855469-2.316407 5.175782-5.175781 5.175782zm0 0" fill="#999"/><path d="m478.667969 129.085938v67.761718h-446.285157v-67.761718l224.671876-113.359376zm0 0" fill="#e6e6e6"/><path d="m478.667969 136.316406v35.402344l-222.667969-116.894531-223.617188 117.394531v-35.398438l216.324219-113.582031c4.566407-2.390625 10.007813-2.390625 14.574219 0zm0 0" fill="#ccc"/><path d="m119.960938 413.308594c-8.683594 6.511718-17.355469 10.460937-26.027344 11.871094-13.4375 2.171874-26.875-1.785157-40.324219-11.871094-5.089844-72.171875-5.089844-112.996094 0-185.15625 13.449219-10.09375 26.886719-14.054688 40.324219-11.878906 8.671875 1.410156 17.34375 5.371093 26.027344 11.878906 5.078124 72.160156 5.078124 112.984375 0 185.15625zm0 0" fill="#ccc"/><path d="m119.960938 413.308594c-8.683594 6.511718-17.355469 10.460937-26.027344 11.871094-8.675782-1.410157-17.347656-5.359376-26.03125-11.871094-5.078125-72.171875-5.078125-112.996094 0-185.15625 8.683594-6.507813 17.355468-10.46875 26.03125-11.878906 8.671875 1.410156 17.34375 5.371093 26.027344 11.878906 5.078124 72.160156 5.078124 112.984375 0 185.15625zm0 0" fill="#e6e6e6"/><path d="m109.996094 402.320312c-2.820313 0-5.105469-2.289062-5.105469-5.109374v-148.390626c0-2.820312 2.285156-5.105468 5.105469-5.105468 2.820312 0 5.105468 2.285156 5.105468 5.105468v148.390626c0 2.820312-2.285156 5.109374-5.105468 5.109374zm0 0" fill="#ccc"/><path d="m92.292969 402.320312c-2.816407 0-5.105469-2.289062-5.105469-5.109374v-148.390626c0-2.820312 2.289062-5.105468 5.105469-5.105468 2.820312 0 5.109375 2.285156 5.109375 5.105468v148.390626c0 2.820312-2.289063 5.109374-5.109375 5.109374zm0 0" fill="#ccc"/><path d="m72.976562 402.320312c-2.820312 0-5.105468-2.289062-5.105468-5.109374v-148.390626c0-2.820312 2.285156-5.105468 5.105468-5.105468 2.820313 0 5.109376 2.285156 5.109376 5.105468v148.390626c0 2.820312-2.289063 5.109374-5.109376 5.109374zm0 0" fill="#d8d8d8"/><path d="m135.277344 196.367188v25.507812c0 7.910156-6.414063 14.324219-14.335938 14.324219h-67.332031c-7.921875 0-14.335937-6.414063-14.335937-14.324219v-25.507812zm0 0" fill="#ccc"/><path d="m135.277344 196.367188v25.507812c0 7.910156-6.414063 14.324219-14.335938 14.324219h-39.757812c-7.921875 0-14.335938-6.414063-14.335938-14.324219v-25.507812zm0 0" fill="#e6e6e6"/><path d="m135.28125 423.800781v25.503907h-47.113281c-4.472657-3.875-8.808594-7.917969-12.996094-12.097657-8.613281-8.589843-16.617187-17.796875-23.929687-27.535156.773437-.132813 1.566406-.195313 2.371093-.195313h67.332031c7.921876 0 14.335938 6.414063 14.335938 14.324219zm0 0" fill="#ccc"/><path d="m135.28125 423.800781v25.503907h-47.113281c-4.472657-3.875-8.808594-7.917969-12.996094-12.097657-2.84375-2.832031-5.613281-5.738281-8.320313-8.703125v-4.703125c0-7.910156 6.417969-14.324219 14.335938-14.324219h39.757812c7.921876 0 14.335938 6.414063 14.335938 14.324219zm0 0" fill="#e6e6e6"/><path d="m288.679688 413.308594c-8.679688 6.511718-17.355469 10.460937-26.027344 11.871094-13.4375 2.171874-26.875-1.785157-40.320313-11.871094-5.089843-72.171875-5.089843-112.996094 0-185.15625 13.445313-10.09375 26.882813-14.054688 40.320313-11.878906 8.671875 1.410156 17.347656 5.371093 26.027344 11.878906 5.078124 72.160156 5.078124 112.984375 0 185.15625zm0 0" fill="#ccc"/><path d="m288.679688 413.308594c-8.679688 6.511718-17.355469 10.460937-26.027344 11.871094-8.671875-1.410157-17.34375-5.359376-26.027344-11.871094-5.078125-72.171875-5.078125-112.996094 0-185.15625 8.683594-6.507813 17.355469-10.46875 26.027344-11.878906 8.671875 1.410156 17.347656 5.371093 26.027344 11.878906 5.078124 72.160156 5.078124 112.984375 0 185.15625zm0 0" fill="#e6e6e6"/><path d="m278.71875 402.320312c-2.820312 0-5.109375-2.289062-5.109375-5.109374v-148.390626c0-2.820312 2.289063-5.105468 5.109375-5.105468s5.105469 2.285156 5.105469 5.105468v148.390626c0 2.820312-2.285157 5.109374-5.105469 5.109374zm0 0" fill="#ccc"/><path d="m261.015625 402.320312c-2.820313 0-5.105469-2.289062-5.105469-5.109374v-148.390626c0-2.820312 2.285156-5.105468 5.105469-5.105468s5.105469 2.285156 5.105469 5.105468v148.390626c0 2.820312-2.285156 5.109374-5.105469 5.109374zm0 0" fill="#ccc"/><path d="m241.699219 402.320312c-2.820313 0-5.105469-2.289062-5.105469-5.109374v-148.390626c0-2.820312 2.285156-5.105468 5.105469-5.105468 2.820312 0 5.105469 2.285156 5.105469 5.105468v148.390626c0 2.820312-2.285157 5.109374-5.105469 5.109374zm0 0" fill="#d8d8d8"/><path d="m304 196.367188v25.507812c0 7.910156-6.417969 14.324219-14.335938 14.324219h-67.332031c-7.921875 0-14.335937-6.414063-14.335937-14.324219v-25.507812zm0 0" fill="#ccc"/><path d="m304 196.367188v25.507812c0 7.910156-6.417969 14.324219-14.335938 14.324219h-39.757812c-7.921875 0-14.335938-6.414063-14.335938-14.324219v-25.507812zm0 0" fill="#e6e6e6"/><path d="m304 449.300781v-25.503906c0-7.910156-6.417969-14.328125-14.335938-14.328125h-67.332031c-7.921875 0-14.335937 6.417969-14.335937 14.328125v25.503906zm0 0" fill="#ccc"/><path d="m304 449.300781v-25.503906c0-7.910156-6.417969-14.328125-14.335938-14.328125h-39.757812c-7.921875 0-14.335938 6.417969-14.335938 14.328125v25.503906zm0 0" fill="#e6e6e6"/><path d="m457.402344 413.308594c-8.683594 6.511718-17.355469 10.460937-26.027344 11.871094-13.4375 2.171874-26.875-1.785157-40.324219-11.871094-5.089843-72.171875-5.089843-112.996094 0-185.15625 13.449219-10.09375 26.886719-14.054688 40.324219-11.878906 8.671875 1.410156 17.34375 5.371093 26.027344 11.878906 5.078125 72.160156 5.078125 112.984375 0 185.15625zm0 0" fill="#ccc"/><path d="m457.402344 413.308594c-8.683594 6.511718-17.355469 10.460937-26.027344 11.871094-8.675781-1.410157-17.347656-5.359376-26.03125-11.871094-5.078125-72.171875-5.078125-112.996094 0-185.15625 8.683594-6.507813 17.355469-10.46875 26.03125-11.878906 8.671875 1.410156 17.34375 5.371093 26.027344 11.878906 5.078125 72.160156 5.078125 112.984375 0 185.15625zm0 0" fill="#e6e6e6"/><path d="m447.4375 402.320312c-2.820312 0-5.105469-2.289062-5.105469-5.109374v-148.390626c0-2.820312 2.285157-5.105468 5.105469-5.105468s5.109375 2.285156 5.109375 5.105468v148.390626c0 2.820312-2.289063 5.109374-5.109375 5.109374zm0 0" fill="#ccc"/><path d="m429.738281 402.320312c-2.820312 0-5.109375-2.289062-5.109375-5.109374v-148.390626c0-2.820312 2.289063-5.105468 5.109375-5.105468 2.820313 0 5.105469 2.285156 5.105469 5.105468v148.390626c0 2.820312-2.289062 5.109374-5.105469 5.109374zm0 0" fill="#ccc"/><path d="m410.421875 402.320312c-2.820313 0-5.109375-2.289062-5.109375-5.109374v-148.390626c0-2.820312 2.289062-5.105468 5.109375-5.105468s5.105469 2.285156 5.105469 5.105468v148.390626c0 2.820312-2.285156 5.109374-5.105469 5.109374zm0 0" fill="#d8d8d8"/><path d="m472.71875 196.367188v25.507812c0 7.910156-6.414062 14.324219-14.335938 14.324219h-67.332031c-7.921875 0-14.335937-6.414063-14.335937-14.324219v-25.507812zm0 0" fill="#ccc"/><path d="m472.71875 196.367188v25.507812c0 7.910156-6.414062 14.324219-14.335938 14.324219h-39.757812c-7.917969 0-14.335938-6.414063-14.335938-14.324219v-25.507812zm0 0" fill="#e6e6e6"/><path d="m460.757812 409.671875c-7.3125 9.738281-15.316406 18.945313-23.929687 27.535156-4.1875 4.179688-8.523437 8.222657-12.996094 12.097657h-47.113281v-25.503907c0-7.910156 6.414062-14.324219 14.335938-14.324219h67.332031c.804687 0 1.597656.0625 2.371093.195313zm0 0" fill="#ccc"/><path d="m460.757812 409.671875c-7.3125 9.738281-15.316406 18.945313-23.929687 27.535156-4.1875 4.179688-8.523437 8.222657-12.996094 12.097657h-19.539062v-25.503907c0-7.910156 6.414062-14.324219 14.335937-14.324219h39.757813c.804687 0 1.597656.0625 2.371093.195313zm0 0" fill="#e6e6e6"/><path d="m474.871094 148.289062-218.875-114.910156-218.871094 114.910156c-7.667969 4.023438-17.140625 1.074219-21.164062-6.589843-4.023438-7.664063-1.074219-17.140625 6.589843-21.164063l226.160157-118.738281c4.5625-2.394531 10.011718-2.394531 14.570312 0l226.160156 118.738281c7.664063 4.023438 10.617188 13.5 6.589844 21.164063-4.019531 7.664062-13.496094 10.613281-21.160156 6.589843zm0 0" fill="#e6e6e6"/><path d="m32.382812 174.988281h446.285157v21.859375h-446.285157zm0 0" fill="#ccc"/><path d="m480.1875 183.164062h-449.320312c-7.925782 0-14.351563 6.421876-14.351563 14.347657s6.425781 14.351562 14.351563 14.351562h449.320312c7.925781 0 14.351562-6.425781 14.351562-14.351562s-6.425781-14.347657-14.351562-14.347657zm0 0" fill="#e6e6e6"/><g fill="#564d47"><path d="m135.671875 104.941406c0-3.261718 3.464844-4.894531 6.933594-4.894531h20.90625c10.199219 0 20.398437 3.671875 20.398437 18.152344 0 8.257812-3.265625 13.664062-8.671875 16.011719 6.222657 2.34375 10.507813 6.117187 10.507813 16.316406v2.140625c0 16.109375-8.976563 21.925781-20.5 21.925781h-22.636719c-4.285156 0-6.9375-2.246094-6.9375-4.792969zm15.808594 23.152344h10.707031c3.875 0 5.8125-3.570312 5.8125-7.039062 0-3.570313-1.9375-7.136719-5.8125-7.136719h-10.707031zm10.195312 32.628906c5.097657 0 8.160157-2.855468 8.160157-9.378906v-1.632812c0-6.933594-3.0625-9.382813-8.160157-9.382813h-10.199219v20.394531zm0 0"/><path d="m190.945312 168.066406c0-.304687.101563-.714844.203126-1.121094l18.96875-62.207031c1.121093-3.570312 5.707031-5.300781 10.398437-5.300781s9.28125 1.730469 10.402344 5.300781l19.070312 62.207031c.101563.40625.203125.816407.203125 1.121094 0 3.773438-5.8125 6.527344-10.195312 6.527344-2.550782 0-4.59375-.816406-5.203125-2.957031l-3.46875-12.75h-21.515625l-3.46875 12.75c-.609375 2.140625-2.648438 2.957031-5.199219 2.957031-4.382813 0-10.195313-2.753906-10.195313-6.527344zm37.015626-21.414062-7.441407-27.332032-7.445312 27.332032zm0 0"/><path d="m293.429688 170.308594-19.375-35.28125v34.671875c0 3.261719-3.976563 4.894531-7.953126 4.894531-3.976562 0-7.953124-1.632812-7.953124-4.894531v-64.757813c0-3.363281 3.976562-4.894531 7.953124-4.894531 5.710938 0 7.851563.511719 11.726563 7.957031l16.523437 31.511719v-34.671875c0-3.367188 3.976563-4.792969 7.953126-4.792969 3.976562 0 7.953124 1.425781 7.953124 4.792969v64.855469c0 3.261719-3.976562 4.894531-7.953124 4.894531-3.671876 0-6.933594-.714844-8.875-4.285156zm0 0"/><path d="m323.3125 104.839844c0-3.363282 3.976562-4.792969 7.953125-4.792969s7.953125 1.429687 7.953125 4.792969v24.476562l19.070312-27.023437c1.121094-1.632813 2.550782-2.246094 4.183594-2.246094 4.078125 0 9.378906 4.183594 9.378906 8.160156 0 .816407-.203124 1.9375-1.019531 3.058594l-16.722656 21.007813 21.109375 32.328124c.507812.8125.8125 1.730469.8125 2.648438 0 3.976562-4.996094 7.957031-9.585938 7.957031-2.140624 0-4.179687-.816406-5.503906-2.957031l-17.441406-26.515625-4.28125 5.507813v18.457031c0 3.265625-3.976562 4.894531-7.953125 4.894531s-7.953125-1.628906-7.953125-4.894531zm0 0"/></g><path d="m436.828125 437.207031c-9.800781 9.78125-20.382813 18.765625-31.648437 26.851563-13.132813 9.449218-27.207032 17.671875-42.035157 24.515625-32.589843 15.035156-68.890625 23.425781-107.144531 23.425781s-74.554688-8.390625-107.144531-23.425781c-14.828125-6.84375-28.902344-15.066407-42.035157-24.515625-11.265624-8.085938-21.847656-17.070313-31.648437-26.851563zm0 0" fill="#ccc"/><path d="m405.179688 464.058594c-13.132813 9.449218-27.207032 17.671875-42.035157 24.515625h-214.289062c-14.828125-6.84375-28.902344-15.066407-42.035157-24.515625zm0 0" fill="#e6e6e6"/></svg>