<?xml version="1.0" encoding="iso-8859-1"?>
<!-- Generator: Adobe Illustrator 19.0.0, SVG Export Plug-In . SVG Version: 6.00 Build 0)  -->
<svg version="1.1" id="Capa_1" xmlns="http://www.w3.org/2000/svg" xmlns:xlink="http://www.w3.org/1999/xlink" x="0px" y="0px"
	 viewBox="0 0 512 512" style="enable-background:new 0 0 512 512;" xml:space="preserve">
<path style="fill:#606673;" d="M396.604,152.136c0.022-1.503,0.02-3.012-0.007-4.527C395.271,70.659,331.453,8.663,254.496,9.47
	c-76.969,0.807-139.115,63.451-139.115,140.611c0,0.789,0.007,1.577,0.02,2.363c0.398,24.091-8.011,47.321-22.665,66.446
	c-12.376,16.152-19.458,36.572-18.651,58.675c1.728,47.286,40.108,85.723,87.392,87.513c46.169,1.749,142.877,1.749,189.046,0
	c47.284-1.791,85.665-40.227,87.392-87.513c0.808-22.102-6.275-42.523-18.651-58.675
	C404.546,199.681,396.257,176.333,396.604,152.136z"/>
<path style="fill:#545B68;" d="M256,283.335l9.988,76.727l10.969,6.277c28.309-0.138,55.017-0.558,73.566-1.261
	c47.284-1.791,85.665-40.227,87.392-87.513c0.177-4.857-0.047-9.627-0.605-14.294L344.8,170.76L256,283.335z"/>
<path style="fill:#FBCCAC;" d="M286.601,302.784v33.946c0,17.741,11.474,33.445,28.376,38.838l47.594,15.183
	c36.165,11.537,60.716,45.14,60.716,83.1V512H84.507v-38.148c0-37.961,24.551-71.563,60.716-83.1l47.594-15.183
	c16.902-5.392,28.376-21.096,28.376-38.838v-33.946"/>
<path style="fill:#F7F5F5;" d="M149.703,484.665L149.815,512h210.793v-27.335c-3.717-27.023-26.049-47.798-53.054-47.798
	c-10.356,0-20.025,3.055-28.22,8.347c-14.866,9.599-33.49,9.599-48.356,0c-8.195-5.292-17.864-8.347-28.22-8.347
	C175.751,436.867,153.42,457.643,149.703,484.665z"/>
<path style="fill:#D2D2D2;" d="M168.095,498.369L168.188,512h174.028v-13.631c-3.069-22.31-21.506-39.462-43.801-39.462
	c-8.55,0-16.532,2.523-23.298,6.891c-12.273,7.924-27.649,7.924-39.922,0c-6.766-4.369-14.748-6.891-23.298-6.891
	C189.6,458.908,171.164,476.06,168.095,498.369z"/>
<path style="fill:#F7AF89;" d="M221.193,329.71c20.254,11.401,45.056,11.513,65.408,0.356v-27.281h-65.408V329.71z"/>
<path style="fill:#FBCCAC;" d="M163.655,170.76l59.228-29.706l32.231-24.882L344.8,170.76l-10.707,67.896
	c-2.124,18.628-11.36,35.715-25.779,47.698l-11.005,9.145c-24.972,20.752-61.19,20.752-86.163,0l-11.005-9.145
	c-14.419-11.982-23.655-29.07-25.779-47.698L163.655,170.76"/>
<path style="fill:#F7AF89;" d="M255.114,116.172l-15.249,15.249c7.222,9.372,19.78,23.318,39.089,35.216
	c3.461,2.133,6.886,4.043,10.244,5.756c23.383,11.925,36.608,37.364,32.52,63.292c-0.958,6.074-1.916,12.148-2.873,18.221
	c-1.477,12.952-6.399,25.155-14.105,35.419l3.574-2.97c14.419-11.982,23.655-29.07,25.779-47.698L344.8,170.76L255.114,116.172z"/>
<path style="fill:#606673;" d="M362.351,170.76l-107.237-55.07l0,0l0,0v0.482l0,0L147.877,170.76
	c41.17,0,77.348-16.42,98.041-41.199c4.761-5.701,13.631-5.701,18.392,0C285.003,154.341,321.181,170.76,362.351,170.76z"/>
<g>
	<path style="fill:#FFDB2D;" d="M391.105,111.967H119.844c-7.65,0-13.852-6.202-13.852-13.852l0,0
		c0-7.65,6.202-13.852,13.852-13.852h271.261c7.65,0,13.852,6.202,13.852,13.852l0,0
		C404.956,105.766,398.755,111.967,391.105,111.967z"/>
	<polygon style="fill:#FFDB2D;" points="216.909,84.264 204.665,47.897 231.996,58.747 253.797,24.817 276.447,58.747 
		303.975,47.897 290.623,84.264 	"/>
</g>
<polygon style="fill:#FFCA00;" points="213.841,75.152 216.909,84.264 290.623,84.264 293.968,75.152 "/>
<g>
	<circle style="fill:#FFDB2D;" cx="253.74" cy="13.852" r="13.852"/>
	<circle style="fill:#FFDB2D;" cx="196.03" cy="38.09" r="13.852"/>
</g>
<g>
	<circle style="fill:#FFFFFF;" cx="196.03" cy="38.09" r="6.394"/>
	<circle style="fill:#FFFFFF;" cx="253.74" cy="13.852" r="6.394"/>
</g>
<circle style="fill:#FFDB2D;" cx="313.77" cy="38.09" r="13.852"/>
<circle style="fill:#FFFFFF;" cx="313.77" cy="38.09" r="6.394"/>
<g>
	<circle style="fill:#424751;" cx="215" cy="198.7" r="7.885"/>
	<circle style="fill:#424751;" cx="293.85" cy="198.7" r="7.885"/>
</g>
<path style="fill:#E63952;" d="M255.114,273.892L255.114,273.892c-16.064,0-29.087-13.023-29.087-29.087v-0.302
	c0-1.983,1.608-3.591,3.591-3.591h50.992c1.983,0,3.591,1.608,3.591,3.591v0.302C284.201,260.869,271.178,273.892,255.114,273.892z"
	/>
<g>
	<circle style="fill:#FFFFFF;" cx="120.16" cy="98.1" r="6.394"/>
	<circle style="fill:#FFFFFF;" cx="144.72" cy="98.1" r="6.394"/>
	<circle style="fill:#FFFFFF;" cx="169.27" cy="98.1" r="6.394"/>
	<circle style="fill:#FFFFFF;" cx="193.82" cy="98.1" r="6.394"/>
	<circle style="fill:#FFFFFF;" cx="218.38" cy="98.1" r="6.394"/>
	<circle style="fill:#FFFFFF;" cx="242.93" cy="98.1" r="6.394"/>
	<circle style="fill:#FFFFFF;" cx="267.48" cy="98.1" r="6.394"/>
	<circle style="fill:#FFFFFF;" cx="292.04" cy="98.1" r="6.394"/>
	<circle style="fill:#FFFFFF;" cx="316.59" cy="98.1" r="6.394"/>
	<circle style="fill:#FFFFFF;" cx="341.14" cy="98.1" r="6.394"/>
	<circle style="fill:#FFFFFF;" cx="365.7" cy="98.1" r="6.394"/>
	<circle style="fill:#FFFFFF;" cx="390.25" cy="98.1" r="6.394"/>
</g>
<path style="fill:#EF687E;" d="M254.761,257.402c-7.89,0-15.138,2.729-20.868,7.285c5.307,5.662,12.848,9.205,21.221,9.205
	c8.215,0,15.63-3.411,20.919-8.888C270.242,260.254,262.835,257.402,254.761,257.402z"/>
<path style="fill:#F7F5F5;" d="M280.61,240.912h-50.992c-1.983,0-3.591,1.608-3.591,3.591v0.302c0,2.363,0.289,4.658,0.821,6.858
	h56.532c0.532-2.2,0.821-4.495,0.821-6.858v-0.302C284.201,242.52,282.593,240.912,280.61,240.912z"/>
<g>
</g>
<g>
</g>
<g>
</g>
<g>
</g>
<g>
</g>
<g>
</g>
<g>
</g>
<g>
</g>
<g>
</g>
<g>
</g>
<g>
</g>
<g>
</g>
<g>
</g>
<g>
</g>
<g>
</g>
</svg>
