<svg id="Capa_1" enable-background="new 0 0 512 512" height="512" viewBox="0 0 512 512" width="512" xmlns="http://www.w3.org/2000/svg"><g><path d="m512 256c0 80.844-37.474 152.936-96 199.852-.675.541-99.348-52.53-158.298-52.914v-397.257c1.5.01 2.997.032 4.49.068.436.01.872-5.653 1.308-5.641 137.916 3.968 248.5 117.016 248.5 255.892z" fill="#ffcd6b"/><path d="m479.287 268.661c0 123.318-99.969 223.287-223.287 223.287s-223.287-99.969-223.287-223.287 99.969-223.286 223.287-223.286 223.287 99.969 223.287 223.286z" fill="#ffd98f"/><path d="m405.638 172.979v208.096h-149.638v-275.825h129.105c2.701 0 5.169 1.553 6.321 3.996 9.115 19.336 14.212 40.939 14.212 63.733z" fill="#d8694b"/><path d="m416 391.233v64.619c-42.011 33.677-94.869 54.383-152.5 56.041-2.491.072-4.991-15.275-7.5-15.275v-175.385h90c38.66 0 70 31.34 70 70z" fill="#4bcd5c"/><path d="m341 497.551v-96.224c0-4.142 3.358-7.5 7.5-7.5s7.5 3.358 7.5 7.5v90.406c-4.923 2.09-9.925 4.032-15 5.818z" fill="#00c53b"/><path d="m286 292.234v38.999c0 15.997-12.521 29.069-28.298 29.952v-98.903c15.777.883 28.298 13.955 28.298 29.952zm80-121.001c-13.807 0-25 11.193-25 25v10c0 13.807 11.193 25 25 25s25-11.193 25-25v-10c0-13.807-11.193-25-25-25z" fill="#ffbfab"/><path d="m366 151.233v40c0 50.792-34.425 93.543-81.216 106.195-9.023 2.44-18.545 2.44-27.568 0-46.791-12.652-81.216-55.403-81.216-106.195v-40c0-55.663 41.345-101.669 95-108.985 53.655 7.316 95 53.322 95 108.985z" fill="#ffdfcf"/><path d="m251 23.422c1.66-.054 3.327-.082 5-.082 60.484 0 112.586 35.885 136.178 87.527h-141.178z" fill="#d8694b"/><path d="m270.5 197.964c-3.875 3.875-9.024 6.009-14.5 6.009v-15c1.469 0 2.851-.574 3.893-1.616 2.929-2.928 7.678-2.928 10.606 0 2.93 2.93 2.93 7.678.001 10.607zm15.803 27.601c-2.929-2.928-7.678-2.928-10.606 0-5.431 5.431-12.564 8.146-19.697 8.146v14.993c10.974 0 21.949-4.177 30.303-12.531 2.929-2.93 2.929-7.678 0-10.608z" fill="#ffa78f"/><path d="m256 2.851v407.594c-57.389 0-157.719 47.236-160 45.407-58.526-46.916-96-119.008-96-199.852 0-138.876 110.584-251.924 248.5-255.892.272-.008.545 2.836.818 2.829 2.22-.057 4.448-.086 6.682-.086z" fill="#49b6fc"/><path d="m256.851 491.947c-.284.001-.567.002-.851.002-123.318 0-223.287-99.969-223.287-223.287s99.969-223.287 223.287-223.287c.284 0 .568.001.851.002z" fill="#65befc"/><path d="m254.447 107.574v297.245h-124.995c-27.614 0-50-22.386-50-50 0-10.128 3.012-19.553 8.188-27.428-12.868-9.046-21.278-24.006-21.278-40.931 0-18.572 10.126-34.779 25.158-43.401-7.521-8.75-12.068-20.131-12.068-32.575 0-19.348 10.99-36.129 27.068-44.442.904-19.805 5.658-38.606 13.531-55.673.782-1.694 2.46-2.795 4.325-2.795z" fill="#54469d"/><path d="m240.056 107.574v297.245h-53.032c-27.614 0-50-22.386-50-50 0-10.128 3.012-19.553 8.188-27.428-12.868-9.046-21.278-24.006-21.278-40.931 0-18.572 10.126-34.779 25.158-43.401-7.521-8.75-12.068-20.131-12.068-32.575 0-19.348 10.99-36.129 27.068-44.442.904-19.805 5.658-38.606 13.531-55.673.782-1.694 2.459-2.795 4.325-2.795z" fill="#6354b2"/><path d="m199.119 321.233c-38.66 0-70 31.34-70 70v87.162c-11.643-6.657-22.714-14.202-33.119-22.543v-64.619c0-38.66 31.34-70 70-70z" fill="#ff4343"/><path d="m256 496.617c-2.509 0-5.009 15.347-7.5 15.275-44.637-1.284-86.411-13.995-122.5-35.31v-85.35c0-38.66 31.34-70 70-70h60z" fill="#ff5757"/><path d="m156 491.732v-90.405c0-4.142 3.358-7.5 7.5-7.5s7.5 3.358 7.5 7.5v96.224c-5.075-1.787-10.077-3.728-15-5.819z" fill="#ff4343"/><path d="m146 231.233c-13.807 0-25-11.193-25-25v-10c0-13.807 11.193-25 25-25 13.807 0 25 11.193 25 25v10c0 13.807-11.193 25-25 25z" fill="#ffbfab"/><path d="m136 191.233v20c0 8.178 3.927 15.439 9.998 20-13.806-.001-24.998-11.194-24.998-25v-10c0-13.806 11.192-24.999 24.998-25-6.071 4.561-9.998 11.822-9.998 20zm120-150c-60.752 0-110 49.249-110 110v40c0 50.351 33.83 92.801 80 105.859v34.141c0 16.568 13.431 30 30 30v-60c1.017 0 2.032-.014 3.042-.042v-259.916c-1.01-.028-2.024-.042-3.042-.042z" fill="#ffa78f"/><path d="m256 297.092c-46.17-13.058-80-55.507-80-105.859v-40c0-50.351 33.83-92.8 80-105.858z" fill="#ffbfab"/><path d="m241.5 197.964c-2.929-2.93-2.929-7.678 0-10.607 2.929-2.928 7.678-2.928 10.606 0 1.042 1.042 2.424 1.616 3.893 1.616v15c-5.474 0-10.624-2.134-14.499-6.009zm9.017 35.085h-15.63c-3.968 0-7.185 3.217-7.185 7.185s3.217 7.185 7.185 7.185h15.63c3.968 0 7.185-3.217 7.185-7.185s-3.217-7.185-7.185-7.185z" fill="#ec806b"/><path d="m261.07 110.867h-141.248c23.592-51.641 75.694-87.527 136.178-87.527 1.697 0 3.387.028 5.07.084z" fill="#54469d"/><path d="m261.07 35.085v75.782h-77.427c15.538-34.013 42.904-61.191 77.427-75.782z" fill="#6354b2"/><path d="m181.995 185.161c0 4.142-3.358 7.5-7.5 7.5s-7.5-3.358-7.5-7.5 3.358-7.5 7.5-7.5 7.5 3.358 7.5 7.5zm50.372-65.361c-4.142 0-7.5 3.358-7.5 7.5s3.358 7.5 7.5 7.5 7.5-3.358 7.5-7.5-3.358-7.5-7.5-7.5zm-38.867 119.189c-4.142 0-7.5 3.358-7.5 7.5s3.358 7.5 7.5 7.5 7.5-3.358 7.5-7.5-3.358-7.5-7.5-7.5zm0-44.282c-4.142 0-7.5 3.358-7.5 7.5s3.358 7.5 7.5 7.5 7.5-3.358 7.5-7.5-3.358-7.5-7.5-7.5z" fill="#ff4343"/><path d="m256 0c2.509 0 5.009.036 7.5.108v511.784c-2.491.072-4.991.108-7.5.108s-5.009-.036-7.5-.108v-511.784c2.491-.072 4.991-.108 7.5-.108z" fill="#e5f2fd"/><path d="m223.5 158.733c0 8.284-6.716 15-15 15s-15-6.716-15-15 6.716-15 15-15 15 6.716 15 15zm80-15c-8.284 0-15 6.716-15 15s6.716 15 15 15 15-6.716 15-15-6.716-15-15-15z" fill="#883f2e"/><path d="m226 151.233c0 4.142-3.358 7.5-7.5 7.5s-7.5-3.358-7.5-7.5 3.358-7.5 7.5-7.5 7.5 3.358 7.5 7.5zm87.5-7.5c-4.142 0-7.5 3.358-7.5 7.5s3.358 7.5 7.5 7.5 7.5-3.358 7.5-7.5-3.358-7.5-7.5-7.5z" fill="#fff5f5"/></g></svg>