<svg height="512" viewBox="0 0 42 58" width="512" xmlns="http://www.w3.org/2000/svg"><g id="028---Down-Arrow" fill="none"><path id="Shape" d="m15 27.16v-25.16c0-1.1 2.69-2 6-2s6 .9 6 2v25.16z" fill="#894b9d"/><path id="Shape" d="m19.427 57.235c.3791562.4828546.9590717.7648194 1.573.7648194s1.1938438-.2819648 1.573-.7648194c.08-.1 19.047-25.465 19.115-25.567.1847859-.1751611.2962805-.4138738.312-.668-.0240419-.2699139-.1447859-.5220559-.34-.71-1.42-1.5-7.16-2.718-14.66-3.13-3.9971644-.2129999-8.0028356-.2129999-12 0-7.5.412-13.24 1.63-14.66 3.13-.19536288.1878366-.31613516.4400376-.34.71.03027304.2681651.15005477.5182976.34.71-.066-.1 19.166 25.626 19.087 25.525z" fill="#955ba5"/><path id="Shape" d="m14.092 42c-.3663085.000434-.7035383-.1994485-.879-.521l-1.091-2c-.2645444-.484906-.085906-1.0924556.399-1.357s1.0924556-.085906 1.357.399l1.091 2c.1690017.3097121.1622888.6855623-.0176649.9890418s-.5065135.4896707-.8593351.4899582z" fill="#b49aca"/><path id="Shape" d="m19 51c-.3663085.000434-.7035383-.1994485-.879-.521l-2.727-5c-.1813039-.3143323-.1781009-.7022144.0083693-1.0135097.1864701-.3112953.5269424-.4971486.889631-.485622.3626886.0115267.6906725.2186241.8569997.5411317l2.728 5c.1690017.3097121.1622888.6855623-.0176649.9890418s-.5065135.4896707-.8593351.4899582z" fill="#b49aca"/><g fill="#955ba5"><path id="Shape" d="m19 22c-.5522847 0-1-.4477153-1-1v-9c0-.5522847.4477153-1 1-1s1 .4477153 1 1v9c0 .5522847-.4477153 1-1 1z"/><path id="Shape" d="m19 9c-.5522847 0-1-.44771525-1-1v-3c0-.55228475.4477153-1 1-1s1 .44771525 1 1v3c0 .55228475-.4477153 1-1 1z"/></g></g></svg>