<?xml version="1.0" encoding="UTF-8"?>
<svg xmlns="http://www.w3.org/2000/svg" xmlns:xlink="http://www.w3.org/1999/xlink" version="1.1" id="Layer_1" x="0px" y="0px" viewBox="0 0 256 256" xml:space="preserve" width="512" height="512">
<g>
	<g>
		<g>
			<g>
				<g>
					<g>
						<g>
							<path fill="#F1F2F2" d="M220.47,186.529c10.887-17.165,17.129-37.567,16.951-59.439         c-0.486-59.666-49.676-108.473-109.344-108.514C66.348,18.533,16.537,69.605,18.64,131.795         c1.928,57.003,48.118,103.39,105.112,105.549c23.294,0.882,45.038-5.527,63.148-17.117c1.644-1.052,3.667-1.322,5.505-0.666         l30.322,10.819c4.939,1.762,9.707-3.006,7.945-7.945l-10.854-30.422C219.166,190.183,219.43,188.169,220.47,186.529z"/>
						</g>
					</g>
					<g>
						<g>
							<path fill="#FFFFFF" d="M43.149,189c-0.659,0-1.27-0.32-1.649-0.86c-0.3-0.43-0.42-0.96-0.33-1.49         c0.1-0.53,0.39-0.98,0.83-1.29c0.87-0.61,2.17-0.38,2.78,0.49c0.63,0.91,0.409,2.16-0.49,2.79         C43.95,188.87,43.56,189,43.149,189z M38.819,182.27c-0.699,0-1.369-0.38-1.72-0.98c-4.37-7.42-7.819-15.34-10.25-23.56         c-2.5-8.45-3.91-17.23-4.21-26.07c-0.04-1.22-0.07-2.46-0.07-3.69c0-13.7,2.57-26.99,7.62-39.5         c5.07-12.53,12.471-23.88,22-33.74C72.1,34.13,98.83,22.71,127.45,22.58h1.09c10.96,0.05,21.75,1.8,32.08,5.19l0.05,0.02         c2.54,0.83,5.09,1.79,7.59,2.83c1.01,0.42,1.5,1.59,1.07,2.61c-0.41,0.99-1.61,1.5-2.61,1.08c-2.41-1.01-4.88-1.93-7.35-2.74         c-10.07-3.31-20.601-4.99-31.301-5H128c-27.74,0.01-53.641,11-72.931,30.94c-18.369,19.01-28.489,44.03-28.5,70.46         c0,1.18,0.03,2.38,0.061,3.55c0.57,16.76,5.38,33.26,13.91,47.73c0,0.01,0.01,0.01,0.01,0.01c0.26,0.46,0.34,0.99,0.21,1.51         c-0.14,0.52-0.46,0.95-0.92,1.22C39.53,182.17,39.18,182.27,38.819,182.27z"/>
						</g>
					</g>
					<g>
						<g>
							<path fill="#E6E7E8" d="M219.818,192.013c-0.653-1.83-0.389-3.843,0.652-5.484c10.887-17.165,17.129-37.567,16.951-59.439         c-0.262-32.201-14.711-61.24-37.336-81.157c16.801,19.085,27.115,43.995,27.336,71.157         c0.178,21.872-6.063,42.274-16.951,59.439c-1.041,1.64-1.305,3.654-0.652,5.484l10.854,30.422         c1.762,4.939-3.006,9.707-7.945,7.945l-30.322-10.819c-1.838-0.656-3.862-0.386-5.506,0.666         c-18.11,11.59-39.854,18-63.148,17.117c-25.908-0.982-49.583-11.102-67.884-27.205         c19.218,21.842,46.961,36.033,77.884,37.205c23.294,0.882,45.038-5.527,63.148-17.117c1.644-1.052,3.667-1.322,5.506-0.666         l30.322,10.819c4.939,1.762,9.707-3.006,7.945-7.945L219.818,192.013z"/>
						</g>
					</g>
					<g>
						<g>
							<path fill="#D1D3D4" d="M219.818,192.013c-0.653-1.83-0.389-3.843,0.652-5.484c10.887-17.165,17.129-37.567,16.951-59.439         c-0.252-30.939-13.599-58.958-34.713-78.772c18.2,19.396,29.482,45.352,29.713,73.772         c0.178,21.872-6.063,42.274-16.951,59.439c-1.041,1.64-1.305,3.654-0.652,5.484l10.854,30.422         c1.762,4.939-3.006,9.707-7.945,7.945l-30.322-10.819c-1.838-0.656-3.862-0.386-5.506,0.666         c-18.11,11.59-39.854,18-63.148,17.117c-27.16-1.029-51.866-12.102-70.498-29.58c19.093,20.349,45.832,33.456,75.498,34.58         c23.294,0.882,45.038-5.527,63.148-17.117c1.644-1.052,3.667-1.322,5.506-0.666l30.322,10.819         c4.939,1.762,9.707-3.006,7.945-7.945L219.818,192.013z"/>
						</g>
					</g>
				</g>
			</g>
		</g>
	</g>
	<g>
		<g>
			<g>
				<path fill="#FFA91A" d="M25.221,207.02c-2.919,6.332-8.001,11.415-14.333,14.333c-1.463,0.662-2.112,2.385-1.449,3.848      c0.291,0.643,0.806,1.158,1.449,1.449c6.333,2.917,11.416,7.999,14.333,14.331c0.657,1.465,2.377,2.121,3.843,1.464      c0.651-0.292,1.172-0.813,1.464-1.464c2.917-6.333,8-11.416,14.333-14.331c1.463-0.662,2.112-2.385,1.449-3.848      c-0.291-0.643-0.806-1.158-1.449-1.449c-6.333-2.917-11.416-8-14.333-14.333c-0.657-1.465-2.377-2.121-3.843-1.464      C26.034,205.848,25.513,206.369,25.221,207.02z"/>
			</g>
			<g>
				<path fill="#F79219" d="M46.31,222.802c-0.291-0.643-0.806-1.158-1.449-1.449c-1.162-0.535-2.266-1.167-3.339-1.843      c-0.163,0.911-0.755,1.729-1.661,2.14c-6.334,2.916-11.417,7.998-14.333,14.331c-0.292,0.651-0.813,1.172-1.464,1.464      c-0.223,0.1-0.453,0.16-0.684,0.201c0.675,1.071,1.306,2.174,1.841,3.335c0.657,1.465,2.377,2.121,3.843,1.464      c0.651-0.292,1.172-0.813,1.464-1.464c2.917-6.333,8-11.416,14.333-14.331C46.324,225.988,46.973,224.265,46.31,222.802z"/>
			</g>
		</g>
		<g>
			<g>
				<path fill="#FFA91A" d="M225.472,15.018c-2.919,6.332-8.001,11.415-14.333,14.333c-1.463,0.662-2.112,2.385-1.449,3.848      c0.291,0.643,0.806,1.158,1.449,1.449c6.333,2.917,11.416,7.999,14.333,14.331c0.657,1.465,2.377,2.121,3.843,1.464      c0.651-0.292,1.172-0.813,1.464-1.464c2.916-6.333,8-11.416,14.333-14.331c1.463-0.662,2.112-2.385,1.449-3.848      c-0.291-0.643-0.806-1.158-1.449-1.449c-6.333-2.917-11.416-8-14.333-14.333c-0.657-1.465-2.377-2.121-3.843-1.464      C226.285,13.846,225.764,14.367,225.472,15.018z"/>
			</g>
			<g>
				<path fill="#F79219" d="M246.561,30.8c-0.291-0.643-0.806-1.158-1.449-1.449c-1.162-0.535-2.266-1.167-3.339-1.843      c-0.163,0.911-0.755,1.729-1.661,2.14c-6.334,2.916-11.417,7.998-14.333,14.331c-0.292,0.651-0.813,1.172-1.464,1.464      c-0.223,0.1-0.453,0.16-0.684,0.201c0.675,1.071,1.306,2.174,1.841,3.335c0.657,1.465,2.377,2.121,3.843,1.464      c0.651-0.292,1.172-0.813,1.464-1.464c2.917-6.333,8-11.416,14.333-14.331C246.575,33.986,247.224,32.263,246.561,30.8z"/>
			</g>
		</g>
	</g>
	<g>
		<g>
			<path fill="#58595B" d="M148.087,51.098L148.087,51.098c5.327,5.327,12.553,8.32,20.087,8.32h0     c15.689,0,28.407,12.718,28.407,28.407v0c0,7.534,2.993,14.76,8.32,20.087h0c11.094,11.094,11.094,29.08,0,40.174l0,0     c-5.327,5.327-8.32,12.553-8.32,20.087v0c0,15.689-12.718,28.407-28.407,28.407h0c-7.534,0-14.76,2.993-20.087,8.32l0,0     c-11.094,11.094-29.08,11.094-40.174,0l0,0c-5.327-5.327-12.553-8.32-20.087-8.32h0c-15.689,0-28.407-12.718-28.407-28.407v0     c0-7.534-2.993-14.76-8.32-20.087l0,0c-11.094-11.094-11.094-29.08,0-40.174h0c5.327-5.327,8.32-12.553,8.32-20.087v0     c0-15.689,12.718-28.407,28.407-28.407h0c7.534,0,14.76-2.993,20.087-8.32h0C119.007,40.004,136.993,40.004,148.087,51.098z"/>
		</g>
		<g>
			<path fill="#414042" d="M204.902,107.913c-5.327-5.327-8.32-12.553-8.32-20.087v0c0-10.817-6.046-20.22-14.943-25.018     c2.161,4.007,3.39,8.592,3.39,13.464v0c0,7.534,2.993,14.76,8.32,20.087c11.094,11.094,11.094,29.08,0,40.174v0     c-5.327,5.327-8.32,12.553-8.32,20.087v0c0,15.689-12.718,28.407-28.407,28.407h0c-7.534,0-14.76,2.993-20.087,8.32v0     c-11.094,11.094-29.08,11.094-40.174,0v0c-5.327-5.327-12.553-8.32-20.087-8.32h0c-4.872,0-9.457-1.228-13.465-3.39     c4.798,8.896,14.201,14.943,25.018,14.943h0c7.534,0,14.76,2.993,20.087,8.32v0c11.094,11.094,29.08,11.094,40.174,0v0     c5.327-5.327,12.553-8.32,20.087-8.32h0c15.689,0,28.407-12.718,28.407-28.407v0c0-7.534,2.993-14.76,8.32-20.087v0     C215.995,136.993,215.995,119.007,204.902,107.913z"/>
		</g>
	</g>
	<g>
		<g>
			<g>
				<path fill="#FFC91D" d="M138.089,105.066l4.26-13.741c2.115-6.825-1.703-14.072-8.527-16.188      c-1.8-0.558-3.711,0.449-4.269,2.248l-1.173,3.786c-0.012,0.028-13.276,30.058-20.76,29.894v51.183h4.044      c4.901-0.309,8.305,4.308,13.207,3.999h30.534v-61.179H138.089z"/>
			</g>
			<g>
				<path fill="#FFA91A" d="M136.546,105.066c-2.48,0-4.191,2.451-3.369,4.791c0.686,1.954,1.061,4.054,1.061,6.244      c0,7.236-4.052,13.524-10.011,16.722c-1.447,0.776-1.447,2.911,0,3.688c5.958,3.198,10.011,9.486,10.011,16.722      c0,1.044-0.085,2.067-0.248,3.064c-0.857,5.237,3.335,9.949,8.641,9.949h12.773v-61.179H136.546z"/>
			</g>
			<g>
				<path fill="#FFC91D" d="M170.074,135.656h-19.494c-4.223,0-7.647-3.424-7.647-7.648l0,0c0-4.223,3.424-7.647,7.647-7.647h19.494      c4.223,0,7.647,3.424,7.647,7.647l0,0C177.722,132.232,174.298,135.656,170.074,135.656z"/>
			</g>
			<g>
				<path fill="#FFC91D" d="M166.276,150.95h-19.494c-4.224,0-7.647-3.424-7.647-7.648l0,0c0-4.223,3.423-7.647,7.647-7.647h19.494      c4.223,0,7.647,3.424,7.647,7.647l0,0C173.923,147.526,170.499,150.95,166.276,150.95z"/>
			</g>
			<g>
				<path fill="#FFC91D" d="M162.477,166.245h-19.493c-4.224,0-7.648-3.424-7.648-7.648l0,0c0-4.223,3.424-7.647,7.648-7.647h19.493      c4.224,0,7.648,3.424,7.648,7.647l0,0C170.124,162.821,166.7,166.245,162.477,166.245z"/>
			</g>
			<g>
				<path fill="#FFC91D" d="M173.873,120.361H154.38c-4.224,0-7.648-3.424-7.648-7.648l0,0c0-4.223,3.424-7.647,7.648-7.647h19.493      c4.224,0,7.648,3.424,7.648,7.647l0,0C181.521,116.937,178.097,120.361,173.873,120.361z"/>
			</g>
			<g>
				<path fill="#FFA91A" d="M102.536,169.094H81.695c-2.807,0-5.083-2.276-5.083-5.083v-54.814c0-2.808,2.276-5.083,5.083-5.083      h20.841c2.807,0,5.083,2.276,5.083,5.083v54.814C107.619,166.819,105.343,169.094,102.536,169.094z"/>
			</g>
		</g>
	</g>
</g>
</svg>
