<?xml version="1.0"?>
<svg xmlns="http://www.w3.org/2000/svg" viewBox="0 0 64 64" width="512" height="512"><path d="m57.46582 34h-.84534a4.00006 4.00006 0 1 0 -5.241 0h-.84534c-3.05642 0-4.53414 2.47772-4.53414 5.53418v9.46582h3v13h10v-13h3v-9.46582c0-3.05646-1.47772-5.53418-4.53418-5.53418z" fill="#17afdc"/><path d="m13.46582 34h-.84534a4.00006 4.00006 0 1 0 -5.241 0h-.8453c-3.05646 0-4.53418 2.47772-4.53418 5.53418v9.46582h3v13h10v-13h3v-9.46582c0-3.05646-1.47772-5.53418-4.53418-5.53418z" fill="#24db6a"/><path d="m39 18v6.59491c0 1.32831-.07678 2.40509-1.40509 2.40509h-2.97443a4.00006 4.00006 0 1 0 -5.241 0h-2.97439c-1.32831 0-1.40509-1.07678-1.40509-2.40509v-6.59491h-4v9.25391a3.7461 3.7461 0 0 0 3.74609 3.74609h2.25391v24h10v-24h2.25391a3.7461 3.7461 0 0 0 3.74609-3.74609v-9.25391z" fill="#f4404a"/><path d="m32 21a3.9874 3.9874 0 0 1 3.947 3.47394 3.82462 3.82462 0 0 0 .053-.47394 4 4 0 0 0 -8 0 3.82462 3.82462 0 0 0 .053.47394 3.9874 3.9874 0 0 1 3.947-3.47394z" fill="#f27985"/><path d="m21 18h4v1h-4z" fill="#f27985"/><path d="m39 18h4v1h-4z" fill="#f27985"/><path d="m10 28a3.9874 3.9874 0 0 1 3.947 3.47394 3.82462 3.82462 0 0 0 .053-.47394 4 4 0 0 0 -8 0 3.82462 3.82462 0 0 0 .053.47394 3.9874 3.9874 0 0 1 3.947-3.47394z" fill="#18ef65"/><path d="m54 28a3.9874 3.9874 0 0 1 3.947 3.47394 3.82462 3.82462 0 0 0 .053-.47394 4 4 0 0 0 -8 0 3.82462 3.82462 0 0 0 .053.47394 3.9874 3.9874 0 0 1 3.947-3.47394z" fill="#65d5ef"/><path d="m14 38h1v11h-1z" fill="#0e8e35"/><path d="m5 38h1v11h-1z" fill="#0e8e35"/><path d="m31 40h2v15h-2z" fill="#f41938"/><path d="m58 38h1v11h-1z" fill="#046f87"/><path d="m49 38h1v11h-1z" fill="#046f87"/><path d="m24 54h16v8h-16z" fill="#5358a1"/><g fill="#ffd700"><path d="m32 2 1.652 5.348h5.348l-4.326 3.304 1.652 5.348-4.326-3.305-4.326 3.305 1.652-5.348-4.326-3.304h5.348z"/><path d="m40.76393 4.99988h4.47214v2.00023h-4.47214z" transform="matrix(.8944272 -.44721358 .44721358 .8944272 1.85635 19.86362)"/><path d="m19.49971 3.30742h2.00058v5.38516h-2.00058z" transform="matrix(.37139068 -.92847669 .92847669 .37139068 7.31563 22.80543)"/><path d="m41.99988 10.76393h2.00023v4.47214h-2.00023z" transform="matrix(.44721358 -.8944272 .8944272 .44721358 12.14226 45.64659)"/><path d="m17.80742 11.99971h5.38516v2.00058h-5.38516z" transform="matrix(.92844304 -.37147479 .37147479 .92844304 -3.36225 8.54547)"/></g><path d="m9 48h2v14h-2z" fill="#0e8e35"/><path d="m53 48h2v14h-2z" fill="#046f87"/></svg>
