<svg id="Layer_1" viewBox="0 0 512 512" xmlns="http://www.w3.org/2000/svg" data-name="Layer 1"><path d="m230.39 324v-147.65l-32.82 32.82a5.81 5.81 0 0 1 -8.19 0l-18.38-18.42a5.81 5.81 0 0 1 0-8.19l80.95-80.94a5.78 5.78 0 0 1 8.18 0l81 80.94a5.81 5.81 0 0 1 0 8.19l-18.42 18.42a5.81 5.81 0 0 1 -8.19 0l-32.82-32.82v159.3l32.82-32.82a5.81 5.81 0 0 1 8.19 0l18.29 18.42a5.81 5.81 0 0 1 0 8.19l-81 80.94a5.78 5.78 0 0 1 -8.18 0l-80.82-80.94a5.81 5.81 0 0 1 0-8.19l18.42-18.42a5.81 5.81 0 0 1 8.19 0l32.82 32.82z" fill="#ffe177" fill-rule="evenodd"/><g fill="#343b41"><rect height="50.52" rx="23.5" width="274.86" x="118.57" y="16"/><rect height="50.52" rx="23.5" width="274.86" x="118.57" y="445.48"/></g></svg>