<svg id="Layer_1" enable-background="new 0 0 512 512" height="512" viewBox="0 0 512 512" width="512" xmlns="http://www.w3.org/2000/svg"><g><path d="m316.398 34.758c-2.409 0-4.738.336-6.951.951-.97-4.183-2.886-8.214-5.79-11.762-10.116-12.358-28.334-14.175-40.692-4.059-8.833 7.231-12.277 18.601-9.831 29.012-1.216-.244-2.473-.373-3.761-.373-10.505 0-19.02 8.516-19.02 19.02s8.516 19.02 19.02 19.02h67.025c14.307 0 25.905-11.598 25.905-25.904 0-14.308-11.598-25.905-25.905-25.905z" fill="#ebf9ff"/><path d="m316.398 34.758c-2.409 0-4.738.336-6.951.951-.97-4.183-2.886-8.214-5.79-11.762-9.244-11.292-25.25-13.777-37.371-6.404 2.73 1.657 5.233 3.792 7.371 6.404 2.904 3.547 4.82 7.579 5.79 11.762 2.213-.615 4.542-.951 6.951-.951 14.307 0 25.905 11.598 25.905 25.904s-11.598 25.904-25.905 25.904h30c14.307 0 25.904-11.598 25.904-25.904s-11.597-25.904-25.904-25.904z" fill="#d7effa"/><path d="m470.355 83.98c-3.175 0-6.246.443-9.163 1.254-1.279-5.514-3.804-10.828-7.632-15.504-13.334-16.289-37.348-18.684-53.637-5.35-11.643 9.531-16.183 24.518-12.958 38.241-1.603-.322-3.26-.492-4.957-.492-13.846 0-25.071 11.225-25.071 25.071s11.225 25.071 25.071 25.071h88.347c18.858 0 34.145-15.287 34.145-34.145s-15.287-34.146-34.145-34.146z" fill="#ebf9ff"/><path d="m470.354 83.98c-3.175 0-6.246.443-9.163 1.254-1.279-5.514-3.804-10.828-7.631-15.504-11.006-13.445-29.286-17.414-44.495-10.894 5.466 2.334 10.469 5.976 14.495 10.894 3.828 4.676 6.353 9.99 7.631 15.504 2.917-.811 5.987-1.254 9.163-1.254 18.858 0 34.146 15.287 34.146 34.145s-15.287 34.146-34.146 34.146h30c18.858 0 34.146-15.287 34.146-34.146 0-18.857-15.287-34.145-34.146-34.145z" fill="#d7effa"/><g><path d="m504.5 497h-497c-4.142 0-7.5 3.358-7.5 7.5s3.358 7.5 7.5 7.5h497c4.143 0 7.5-3.358 7.5-7.5s-3.357-7.5-7.5-7.5z" fill="#7ed085"/><g><path d="m325.548 208.736h94.377l-9.782 62.464c-1.644 10.497-10.643 18.23-21.214 18.23h-28.873z" fill="#c98c40"/><path d="m389.925 208.736-9.782 62.464c-1.586 10.127-10.023 17.66-20.108 18.179l.022.05h28.873c10.571 0 19.57-7.733 21.214-18.229l9.782-62.464z" fill="#bf8032"/><g><path d="m433.562 216.236h-107.014c-4.143 0-7.5-3.358-7.5-7.5s3.357-7.5 7.5-7.5h107.014c4.143 0 7.5 3.358 7.5 7.5s-3.358 7.5-7.5 7.5z" fill="#ab630a"/></g><path d="m412.472 319.49c-50.826 0-92.028 41.416-92.028 92.505s41.203 92.505 92.028 92.505c50.826 0 92.028-41.416 92.028-92.505s-41.202-92.505-92.028-92.505zm0 155.01c-34.202 0-62.028-28.04-62.028-62.505s27.826-62.505 62.028-62.505 62.028 28.04 62.028 62.505-27.826 62.505-62.028 62.505z" fill="#7191f0"/><g><path d="m412.472 319.49c-5.109 0-10.118.425-15 1.23 43.69 7.2 77.028 45.321 77.028 91.275s-33.338 84.075-77.028 91.275c4.882.805 9.891 1.23 15 1.23 50.826 0 92.028-41.416 92.028-92.505s-41.202-92.505-92.028-92.505z" fill="#6084f0"/></g><path d="m99.528 319.49c-50.826 0-92.028 41.416-92.028 92.505s41.203 92.505 92.028 92.505c50.826 0 92.028-41.416 92.028-92.505.001-51.089-41.202-92.505-92.028-92.505zm0 155.01c-34.202 0-62.028-28.04-62.028-62.505s27.826-62.505 62.028-62.505 62.028 28.04 62.028 62.505-27.826 62.505-62.028 62.505z" fill="#7191f0"/><g><path d="m99.528 319.49c-5.109 0-10.118.425-15 1.23 43.69 7.2 77.028 45.321 77.028 91.275s-33.338 84.075-77.028 91.275c4.882.805 9.891 1.23 15 1.23 50.826 0 92.028-41.416 92.028-92.505.001-51.089-41.202-92.505-92.028-92.505z" fill="#6084f0"/></g><g><path d="m235.747 419.495h-134.101c-3.071 0-5.832-1.872-6.968-4.725s-.418-6.111 1.812-8.222l97.729-92.505c3.009-2.848 7.756-2.717 10.603.291 2.848 3.008 2.717 7.755-.291 10.603l-84.051 79.559h115.268c4.142 0 7.5 3.358 7.5 7.5s-3.359 7.499-7.501 7.499z" fill="#d7effa"/></g><g><path d="m235.747 419.495c-.471 0-.945-.044-1.417-.135-2.523-.485-4.623-2.229-5.563-4.62l-58.327-148.343c-1.516-3.855.381-8.209 4.235-9.725 3.855-1.515 8.208.38 9.725 4.235l53.995 137.325 113.376-120.542c2.838-3.018 7.585-3.162 10.602-.325 3.017 2.838 3.162 7.584.324 10.602l-121.487 129.166c-1.431 1.522-3.415 2.362-5.463 2.362z" fill="#d7effa"/></g><g><path d="m412.476 419.497c-2.912 0-5.683-1.706-6.899-4.553l-86.924-203.259-10.72-25.047c-1.034-2.414-3.382-3.974-5.983-3.974h-21.403c-4.143 0-7.5-3.358-7.5-7.5s3.357-7.5 7.5-7.5h21.403c8.612 0 16.373 5.13 19.772 13.071l10.722 25.049 86.924 203.261c1.629 3.809-.138 8.216-3.946 9.845-.963.412-1.963.607-2.946.607z" fill="#d7effa"/></g><path d="m148.29 243.074h67.454c5.313 0 9.62 4.329 9.62 9.67 0 4.245-2.754 7.993-6.79 9.242l-58.046 17.956c-4.421 1.368-9.185-.622-11.341-4.736l-9.408-17.956c-3.374-6.439 1.271-14.176 8.511-14.176z" fill="#c98c40"/><path d="m238.738 438.061h-140.503c-14.359 0-25.999-11.64-25.999-25.999v-.135c0-14.359 11.64-25.999 25.999-25.999h140.503c14.359 0 25.999 11.64 25.999 25.999v.135c-.001 14.359-11.641 25.999-25.999 25.999z" fill="#c98c40"/><path d="m238.738 385.929h-20c14.359 0 25.999 11.64 25.999 25.999v.135c0 14.359-11.64 25.999-25.999 25.999h20c14.359 0 25.999-11.64 25.999-25.999v-.135c-.001-14.359-11.641-25.999-25.999-25.999z" fill="#bf8032"/><g><path d="m280.346 478.377h-20.069c-3.028 0-5.759-1.821-6.923-4.616l-24.529-58.883c-1.593-3.824.216-8.215 4.039-9.808 3.822-1.592 8.214.215 9.808 4.039l22.606 54.267h15.069c4.143 0 7.5 3.358 7.5 7.5s-3.359 7.501-7.501 7.501z" fill="#d7effa"/></g><g><path d="m280.276 478.377h-40.288c-4.142 0-7.5-3.358-7.5-7.5s3.358-7.5 7.5-7.5h40.288c4.143 0 7.5 3.358 7.5 7.5s-3.357 7.5-7.5 7.5z" fill="#7191f0"/></g><g><path d="m216.296 370.047c-3.534 0-6.681-2.509-7.361-6.109-.769-4.07 1.907-7.993 5.978-8.762 37.022-6.994 66.98-30.698 89.042-70.456 16.703-30.102 22.243-58.251 22.297-58.532.782-4.067 4.711-6.729 8.781-5.949 4.068.783 6.731 4.714 5.949 8.782-.239 1.243-6.059 30.804-23.912 62.978-23.984 43.224-58.348 70.167-99.373 77.917-.471.088-.94.131-1.401.131z" fill="#d7effa"/></g></g><g fill="#ffe940"><circle cx="99.303" cy="99.303" r="45.714"/><g><path d="m99.303 0c-4.142 0-7.5 3.358-7.5 7.5v18.286c0 4.142 3.358 7.5 7.5 7.5s7.5-3.358 7.5-7.5v-18.286c0-4.142-3.358-7.5-7.5-7.5z"/><path d="m59.896 16.049c-2.071-3.587-6.658-4.817-10.245-2.745-3.587 2.071-4.816 6.658-2.745 10.245l9.143 15.836c1.389 2.406 3.91 3.751 6.502 3.751 1.272 0 2.562-.324 3.743-1.006 3.587-2.071 4.816-6.658 2.745-10.245z"/><path d="m16.049 59.896 15.836 9.143c1.181.682 2.471 1.006 3.743 1.006 2.592 0 5.113-1.346 6.502-3.751 2.071-3.587.842-8.174-2.745-10.245l-15.836-9.143c-3.588-2.072-8.174-.842-10.245 2.745s-.842 8.175 2.745 10.245z"/><path d="m33.286 99.303c0-4.142-3.358-7.5-7.5-7.5h-18.286c-4.142 0-7.5 3.358-7.5 7.5s3.358 7.5 7.5 7.5h18.286c4.142 0 7.5-3.358 7.5-7.5z"/><path d="m31.885 129.566-15.836 9.143c-3.587 2.071-4.816 6.658-2.745 10.245 1.389 2.406 3.91 3.751 6.502 3.751 1.272 0 2.562-.324 3.743-1.006l15.836-9.143c3.587-2.071 4.816-6.658 2.745-10.245s-6.657-4.816-10.245-2.745z"/><path d="m66.294 156.475c-3.587-2.072-8.174-.842-10.245 2.745l-9.143 15.836c-2.071 3.587-.842 8.174 2.745 10.245 1.181.682 2.471 1.006 3.743 1.006 2.592 0 5.113-1.346 6.502-3.751l9.143-15.836c2.071-3.587.842-8.174-2.745-10.245z"/><path d="m99.303 165.319c-4.142 0-7.5 3.358-7.5 7.5v18.286c0 4.142 3.358 7.5 7.5 7.5s7.5-3.358 7.5-7.5v-18.286c0-4.142-3.358-7.5-7.5-7.5z"/><path d="m142.556 159.22c-2.071-3.588-6.658-4.816-10.245-2.745s-4.816 6.658-2.745 10.245l9.143 15.836c1.389 2.406 3.91 3.751 6.502 3.751 1.272 0 2.562-.324 3.743-1.006 3.587-2.071 4.816-6.658 2.745-10.245z"/><path d="m182.556 138.709-15.836-9.143c-3.587-2.072-8.174-.843-10.245 2.745-2.071 3.587-.842 8.174 2.745 10.245l15.836 9.143c1.181.682 2.471 1.006 3.743 1.006 2.592 0 5.113-1.345 6.502-3.751 2.072-3.587.843-8.174-2.745-10.245z"/><path d="m191.105 91.803h-18.286c-4.142 0-7.5 3.358-7.5 7.5s3.358 7.5 7.5 7.5h18.286c4.142 0 7.5-3.358 7.5-7.5s-3.357-7.5-7.5-7.5z"/><path d="m162.977 70.045c1.272 0 2.562-.324 3.743-1.006l15.836-9.143c3.587-2.071 4.816-6.658 2.745-10.245s-6.659-4.816-10.245-2.745l-15.836 9.143c-3.587 2.071-4.816 6.658-2.745 10.245 1.389 2.406 3.91 3.751 6.502 3.751z"/><path d="m148.954 13.304c-3.588-2.072-8.174-.843-10.245 2.745l-9.143 15.836c-2.071 3.587-.842 8.174 2.745 10.245 1.181.682 2.471 1.006 3.743 1.006 2.592 0 5.113-1.345 6.502-3.751l9.143-15.836c2.072-3.587.843-8.174-2.745-10.245z"/></g></g></g><circle cx="412.472" cy="411.995" fill="#7191f0" r="15.71"/></g></svg>