<svg height="512pt" viewBox="0 -2 512.001 512" width="512pt" xmlns="http://www.w3.org/2000/svg"><path d="m42.863281 469.136719 35.507813 35.503906c4.066406 4.066406 10.652344 4.066406 14.71875 0l35.507812-35.503906 35.503906 35.503906c4.066407 4.066406 10.65625 4.066406 14.71875 0l35.507813-35.503906 35.507813 35.503906c4.0625 4.066406 10.652343 4.066406 14.714843 0l35.507813-35.503906 32.207031 32.203125c3.929687 3.933594 10.65625 1.148437 10.65625-4.414063v-486.519531c0-5.746094-4.65625-10.40625-10.40625-10.40625h-322.109375c-5.746094 0-10.40625 4.660156-10.40625 10.40625v486.519531c0 5.5625 6.726562 8.351563 10.660156 4.414063zm0 0" fill="#ddf5ff"/><path d="m319.78125 0v456.597656l-12.367188-12.363281c-4.0625-4.066406-10.652343-4.066406-14.71875 0l-35.503906 35.507813-35.507812-35.507813c-4.066406-4.066406-10.652344-4.066406-14.71875 0l-35.503906 35.507813-35.507813-35.507813c-4.066406-4.066406-10.652344-4.066406-14.71875 0l-35.503906 35.507813-35.507813-35.507813c-4.0625-4.066406-10.652344-4.066406-14.714844 0l-35.507812 35.507813v17.183593c0 5.5625 6.726562 8.351563 10.660156 4.414063l32.203125-32.203125 35.507813 35.503906c4.066406 4.066406 10.652344 4.066406 14.71875 0l35.507812-35.503906 35.503906 35.503906c4.066407 4.066406 10.65625 4.066406 14.71875 0l35.507813-35.503906 35.507813 35.503906c4.0625 4.066406 10.652343 4.066406 14.714843 0l35.507813-35.503906 32.207031 32.203125c3.929687 3.933594 10.65625 1.148437 10.65625-4.414063v-486.519531c0-5.746094-4.65625-10.40625-10.40625-10.40625zm0 0" fill="#c1e9f4"/><g fill="#495959"><path d="m97.054688 36.945312h-21.855469c-7.171875 0-13.007813 5.832032-13.007813 13.007813v58.273437c0 7.175782 5.835938 13.007813 13.007813 13.007813h21.855469c12.335937 0 22.375-10.035156 22.375-22.371094v-5.203125c0-5.5625-2.039063-10.652344-5.410157-14.570312 3.371094-3.917969 5.410157-9.011719 5.410157-14.570313v-5.203125c0-12.335937-10.039063-22.371094-22.375-22.371094zm0 15.609376c3.730468 0 6.761718 3.035156 6.761718 6.761718v5.203125c0 3.730469-3.035156 6.765625-6.761718 6.765625h-19.253907v-18.730468zm6.761718 46.308593c0 3.730469-3.035156 6.761719-6.761718 6.761719h-19.253907v-18.730469h19.253907c3.730468 0 6.761718 3.035157 6.761718 6.765625zm0 0"/><path d="m207.363281 105.625h-33.820312v-60.875c0-4.3125-3.496094-7.804688-7.804688-7.804688-4.3125 0-7.804687 3.492188-7.804687 7.804688v68.679688c0 4.3125 3.492187 7.808593 7.804687 7.808593h41.625c4.3125 0 7.804688-3.496093 7.804688-7.808593 0-4.308594-3.492188-7.804688-7.804688-7.804688zm0 0"/><path d="m272.925781 105.625h-33.824219v-60.875c0-4.3125-3.492187-7.804688-7.804687-7.804688-4.308594 0-7.804687 3.492188-7.804687 7.804688v68.679688c0 4.3125 3.496093 7.808593 7.804687 7.808593h41.628906c4.308594 0 7.804688-3.496093 7.804688-7.808593 0-4.308594-3.496094-7.804688-7.804688-7.804688zm0 0"/><path d="m138.679688 36.945312c-4.3125 0-7.804688 3.492188-7.804688 7.804688v68.679688c0 4.3125 3.492188 7.808593 7.804688 7.808593s7.804687-3.496093 7.804687-7.808593v-68.679688c0-4.3125-3.492187-7.804688-7.804687-7.804688zm0 0"/><path d="m197.476562 195.121094h-131.121093c-4.3125 0-7.804688-3.492188-7.804688-7.804688 0-4.308594 3.492188-7.804687 7.804688-7.804687h131.121093c4.3125 0 7.804688 3.496093 7.804688 7.804687 0 4.3125-3.492188 7.804688-7.804688 7.804688zm0 0"/><path d="m276.566406 195.121094h-47.871094c-4.308593 0-7.804687-3.492188-7.804687-7.804688 0-4.308594 3.496094-7.804687 7.804687-7.804687h47.871094c4.3125 0 7.804688 3.496093 7.804688 7.804687 0 4.3125-3.492188 7.804688-7.804688 7.804688zm0 0"/><path d="m205.28125 257.5625h-138.925781c-4.3125 0-7.804688-3.496094-7.804688-7.804688 0-4.3125 3.492188-7.804687 7.804688-7.804687h138.925781c4.3125 0 7.804688 3.492187 7.804688 7.804687 0 4.308594-3.492188 7.804688-7.804688 7.804688zm0 0"/><path d="m205.28125 320h-138.925781c-4.3125 0-7.804688-3.492188-7.804688-7.804688 0-4.308593 3.492188-7.804687 7.804688-7.804687h138.925781c4.3125 0 7.804688 3.492187 7.804688 7.804687s-3.492188 7.804688-7.804688 7.804688zm0 0"/></g><path d="m486.617188 434.992188h-261.429688c-14.019531 0-25.382812-11.363282-25.382812-25.382813v-157.363281c0-14.019532 11.363281-25.382813 25.382812-25.382813h261.429688c14.019531 0 25.382812 11.363281 25.382812 25.382813v157.367187c0 14.015625-11.363281 25.378907-25.382812 25.378907zm0 0" fill="#6dc54a"/><path d="m266.433594 350.789062h-38.074219c-4.308594 0-7.804687-3.496093-7.804687-7.804687 0-4.3125 3.496093-7.804687 7.804687-7.804687h38.074219c4.308594 0 7.804687 3.492187 7.804687 7.804687 0 4.308594-3.496093 7.804687-7.804687 7.804687zm0 0" fill="#ffcd50"/><path d="m253.742188 394.574219h-25.382813c-4.308594 0-7.804687-3.496094-7.804687-7.808594 0-4.308594 3.496093-7.804687 7.804687-7.804687h25.382813c4.308593 0 7.804687 3.496093 7.804687 7.804687 0 4.3125-3.496094 7.808594-7.804687 7.808594zm0 0" fill="#495959"/><path d="m301.332031 394.574219h-25.382812c-4.308594 0-7.804688-3.496094-7.804688-7.808594 0-4.308594 3.496094-7.804687 7.804688-7.804687h25.382812c4.308594 0 7.804688 3.496093 7.804688 7.804687 0 4.3125-3.496094 7.808594-7.804688 7.808594zm0 0" fill="#495959"/><path d="m348.921875 394.574219h-25.382813c-4.308593 0-7.804687-3.496094-7.804687-7.808594 0-4.308594 3.496094-7.804687 7.804687-7.804687h25.382813c4.3125 0 7.804687 3.496093 7.804687 7.804687 0 4.3125-3.492187 7.808594-7.804687 7.808594zm0 0" fill="#495959"/><path d="m333.058594 350.789062h-38.070313c-4.3125 0-7.804687-3.496093-7.804687-7.804687 0-4.3125 3.492187-7.804687 7.804687-7.804687h38.070313c4.3125 0 7.804687 3.492187 7.804687 7.804687 0 4.308594-3.492187 7.804687-7.804687 7.804687zm0 0" fill="#ffcd50"/><path d="m399.6875 350.789062h-38.074219c-4.308593 0-7.804687-3.496093-7.804687-7.804687 0-4.3125 3.496094-7.804687 7.804687-7.804687h38.074219c4.308594 0 7.804688 3.492187 7.804688 7.804687 0 4.308594-3.496094 7.804687-7.804688 7.804687zm0 0" fill="#ffcd50"/><path d="m466.3125 350.789062h-38.074219c-4.308593 0-7.804687-3.496093-7.804687-7.804687 0-4.3125 3.496094-7.804687 7.804687-7.804687h38.074219c4.3125 0 7.804688 3.492187 7.804688 7.804687 0 4.308594-3.492188 7.804687-7.804688 7.804687zm0 0" fill="#ffcd50"/><path d="m493.390625 227.78125c.59375 2.15625.917969 4.425781.917969 6.769531v172.34375c0 5.746094-4.660156 10.40625-10.40625 10.40625h-276.40625c-2.347656 0-4.613282-.324219-6.769532-.917969 2.964844 10.730469 12.789063 18.609376 24.460938 18.609376h261.429688c14.019531 0 25.382812-11.363282 25.382812-25.378907v-157.367187c0-11.675782-7.882812-21.5-18.609375-24.464844zm0 0" fill="#5db33a"/><path d="m289.273438 313.160156h-50.761719c-7.007813 0-12.691407-5.683594-12.691407-12.691406v-34.898438c0-7.011718 5.683594-12.691406 12.691407-12.691406h50.761719c7.011718 0 12.691406 5.679688 12.691406 12.691406v34.898438c0 7.007812-5.679688 12.691406-12.691406 12.691406zm0 0" fill="#ffcd50"/><path d="m289.273438 252.878906h-13.527344c7.011718 0 12.691406 5.679688 12.691406 12.691406v34.898438c0 7.007812-5.679688 12.691406-12.691406 12.691406h13.527344c7.011718 0 12.691406-5.683594 12.691406-12.691406v-34.898438c0-7.011718-5.679688-12.691406-12.691406-12.691406zm0 0" fill="#ffbc27"/><path d="m484.078125 388.035156c0 10.515625-8.519531 19.039063-19.035156 19.039063-10.511719 0-19.035157-8.523438-19.035157-19.039063 0-10.511718 8.523438-19.035156 19.035157-19.035156 10.515625 0 19.035156 8.523438 19.035156 19.035156zm0 0" fill="#ff7c48"/><path d="m455.523438 388.035156c0 10.515625-8.519532 19.039063-19.035157 19.039063-10.511719 0-19.035156-8.523438-19.035156-19.039063 0-10.511718 8.523437-19.035156 19.035156-19.035156 10.515625 0 19.035157 8.523438 19.035157 19.035156zm0 0" fill="#ffcd50"/></svg>