<svg id="Capa_1" enable-background="new 0 0 512 512" height="512" viewBox="0 0 512 512" width="512" xmlns="http://www.w3.org/2000/svg"><g><g><path d="m256 247.131c-4.142 0-7.5-3.358-7.5-7.5v-80.854c0-4.142 3.358-7.5 7.5-7.5s7.5 3.358 7.5 7.5v80.854c0 4.142-3.358 7.5-7.5 7.5z" fill="#dbedff"/></g><g><path d="m342.25 247.131c-4.142 0-7.5-3.358-7.5-7.5v-62.113c0-4.142 3.358-7.5 7.5-7.5s7.5 3.358 7.5 7.5v62.113c0 4.142-3.358 7.5-7.5 7.5z" fill="#dbedff"/></g><g><path d="m169.749 247.131c-4.142 0-7.5-3.358-7.5-7.5v-62.113c0-4.142 3.358-7.5 7.5-7.5s7.5 3.358 7.5 7.5v62.113c0 4.142-3.358 7.5-7.5 7.5z" fill="#dbedff"/></g><path d="m20.304 227.935c-7.071 0-12.804 5.732-12.804 12.804v96.416c0 7.071 5.732 12.804 12.804 12.804h44.236l4.29-3.167v-64.167l8.514-4.167 3.147-3.997 37.54-42.212v-4.315h-97.727z" fill="#ff3c98"/><path d="m491.696 227.935h-97.727v1.69l38.151 44.837v2.401l12.086 7.263v61.5l3.254 4.333h44.236c7.071 0 12.804-5.733 12.804-12.804v-96.416c0-7.071-5.732-12.804-12.804-12.804z" fill="#ff3c98"/><path d="m393.969 227.935c-7.071 0-12.804 5.732-12.804 12.804v33.723l4.583 5.83h42.75l6.158-5.83z" fill="#e61d7e"/><path d="m118.03 227.935-40.687 46.527 3.986 5.663h42.834l6.671-5.663v-33.723c0-7.071-5.732-12.804-12.804-12.804z" fill="#e61d7e"/><path d="m398.826 87.45c0-39.078-25.329-64.587-56.575-64.587-13.773 0-26.393 4.962-36.204 13.853l-2.216 5.076 4.333 29-4.333 27.5-9.167 14.667-1.794 9.024c7.823 17.453 21.386 30.339 37.495 34.648l-10.015 22.618c-1.67 3.771 1.091 8.012 5.215 8.012h33.371c4.124 0 6.884-4.242 5.215-8.012l-10.015-22.618c25.537-6.831 44.69-35.203 44.69-69.181z" fill="#ff7ab9"/><path d="m351.004 179.248 6.574-14.845-3.442-7.772c1.162-.311 2.307-.682 3.442-1.08-23.795-8.36-41.248-35.669-41.248-68.1 0-32.432 17.453-55.501 41.248-62.415-4.876-1.417-10.013-2.172-15.327-2.172-13.773 0-26.393 4.962-36.204 13.853l-2.216 5.076 4.333 29-4.333 27.5-9.167 14.667-1.794 9.024c7.823 17.453 21.386 30.339 37.495 34.648l-10.015 22.618c-1.67 3.771 1.091 8.012 5.215 8.012h30.653c-4.123-.002-6.884-4.243-5.214-8.014z" fill="#ff5ca8"/><path d="m212.33 98.625-7.5-24.75 4.5-29.5-3.377-7.659c-9.811-8.891-22.431-13.853-36.204-13.853-31.246 0-56.575 25.509-56.575 64.587 0 33.978 19.153 62.35 44.69 69.18l-10.015 22.618c-1.67 3.771 1.091 8.012 5.215 8.012h33.371c4.124 0 6.884-4.242 5.215-8.012l-10.015-22.618c16.11-4.309 29.672-17.195 37.495-34.648v-8.857z" fill="#00d3b5"/><path d="m178.183 179.248 6.733-15.206-3.282-7.411c1.11-.297 2.205-.644 3.29-1.021-23.881-8.29-41.417-35.652-41.417-68.159 0-32.512 17.54-55.616 41.426-62.468-4.832-1.39-9.923-2.12-15.184-2.12-31.246 0-56.575 25.509-56.575 64.587 0 33.978 19.153 62.35 44.69 69.18l-10.015 22.618c-1.67 3.771 1.091 8.012 5.215 8.012h30.334c-4.124 0-6.885-4.241-5.215-8.012z" fill="#00b8a0"/><g><path d="m355.56 164.255h-26.62c-4.142 0-7.5-3.358-7.5-7.5s3.358-7.5 7.5-7.5h26.62c4.142 0 7.5 3.358 7.5 7.5s-3.357 7.5-7.5 7.5z" fill="#dbedff"/></g><g><path d="m183.059 164.255h-26.62c-4.142 0-7.5-3.358-7.5-7.5s3.358-7.5 7.5-7.5h26.62c4.142 0 7.5 3.358 7.5 7.5s-3.358 7.5-7.5 7.5z" fill="#dbedff"/></g><g fill="#a374c0"><path d="m282.671 427.941c-4.142 0-7.5 3.358-7.5 7.5v25.153h-21.351v-25.153c0-4.142-3.358-7.5-7.5-7.5-3.693 0-6.755 2.671-7.378 6.186-.622-3.514-3.685-6.186-7.378-6.186h-41.334c-4.142 0-7.5 3.358-7.5 7.5 0 .403.041.795.102 1.181-4.374-5.298-10.989-8.681-18.38-8.681h-19.472c-4.142 0-7.5 3.358-7.5 7.5v65.306c0 4.142 3.358 7.5 7.5 7.5s7.5-3.358 7.5-7.5v-23.577l21.723 28.158c1.478 1.916 3.699 2.919 5.944 2.919 1.6 0 3.211-.51 4.576-1.562 3.28-2.53 3.887-7.24 1.357-10.52l-16.334-21.172c10.597-2.415 18.533-11.908 18.533-23.227 0-3.618-.815-7.049-2.264-10.124 1.202.818 2.652 1.298 4.216 1.298h13.167v57.806c0 4.142 3.358 7.5 7.5 7.5s7.5-3.358 7.5-7.5v-57.806h13.167c3.495 0 6.423-2.394 7.255-5.63v63.436c0 4.142 3.358 7.5 7.5 7.5s7.5-3.358 7.5-7.5v-25.153h21.351v25.153c0 4.142 3.358 7.5 7.5 7.5s7.5-3.358 7.5-7.5v-65.306c0-4.141-3.358-7.499-7.5-7.499zm-118.218 32.653h-11.973v-17.653h11.973c4.867 0 8.826 3.959 8.826 8.827 0 4.867-3.96 8.826-8.826 8.826z"/><path d="m456.961 429.432c-3.319-2.478-8.019-1.796-10.497 1.523l-16.628 22.271-16.628-22.271c-2.478-3.319-7.179-4.001-10.497-1.523-3.319 2.478-4.001 7.178-1.523 10.497l21.148 28.325v32.494c0 4.142 3.358 7.5 7.5 7.5s7.5-3.358 7.5-7.5v-32.495l21.147-28.324c2.479-3.32 1.797-8.019-1.522-10.497z"/><path d="m96.973 463.601c2.402-3.633 3.803-7.984 3.803-12.656 0-12.684-10.319-23.003-23.004-23.003h-18.246c-4.142 0-7.5 3.358-7.5 7.5v65.306c0 4.142 3.358 7.5 7.5 7.5h23.049c13.592 0 24.65-11.058 24.65-24.65-.001-8.222-4.047-15.516-10.252-19.997zm-19.201-20.66c4.413 0 8.003 3.59 8.003 8.003s-3.59 8.003-8.003 8.003h-10.746v-16.006zm4.803 50.306h-15.549v-19.299h10.747 4.802c5.321 0 9.649 4.329 9.649 9.649s-4.328 9.65-9.649 9.65z"/><path d="m386.264 432.783c-1.104-2.915-3.897-4.842-7.013-4.842-3.117 0-5.909 1.928-7.013 4.842l-17.328 45.721c.72-2.956 1.11-6.039 1.11-9.213v-2.395c0-21.48-17.476-38.956-38.956-38.956h-9.252c-4.142 0-7.5 3.358-7.5 7.5v65.306c0 4.142 3.358 7.5 7.5 7.5h9.252c14.942 0 27.939-8.461 34.471-20.84l-4.048 10.682c-1.468 3.873.482 8.203 4.355 9.671 3.873 1.469 8.203-.481 9.671-4.355l4.287-11.311h26.901l4.287 11.311c1.136 2.999 3.987 4.844 7.015 4.844.883 0 1.782-.157 2.656-.489 3.874-1.468 5.823-5.798 4.355-9.671zm-45.244 36.509c0 13.209-10.747 23.956-23.956 23.956h-1.752v-50.306h1.752c13.209 0 23.956 10.747 23.956 23.956zm30.466 7.802 7.765-20.49 7.765 20.49z"/><path d="m120.242 427.941c-4.142 0-7.5 3.358-7.5 7.5v65.306c0 4.142 3.358 7.5 7.5 7.5s7.5-3.358 7.5-7.5v-65.306c0-4.142-3.358-7.5-7.5-7.5z"/><path d="m27.194 458.948h-19.694c-4.142 0-7.5 3.358-7.5 7.5s3.358 7.5 7.5 7.5h19.693c4.142 0 7.5-3.358 7.5-7.5s-3.357-7.5-7.499-7.5z"/><path d="m504.5 458.948h-19.694c-4.142 0-7.5 3.358-7.5 7.5s3.358 7.5 7.5 7.5h19.694c4.142 0 7.5-3.358 7.5-7.5s-3.358-7.5-7.5-7.5z"/></g><path d="m435.393 274.462h-301.916l-6.398 5.663v108.5l7.47 7.86h300.844c6.664 0 12.067-5.402 12.067-12.067v-97.89c0-6.664-5.402-12.066-12.067-12.066z" fill="#ff7ab9"/><path d="m129.98 384.418v-97.89c0-6.664 5.403-12.067 12.067-12.067h-65.441c-6.664 0-12.067 5.402-12.067 12.067v97.89c0 6.664 5.403 12.067 12.067 12.067h65.441c-6.664 0-12.067-5.402-12.067-12.067z" fill="#ff5ca8"/><path d="m388.448 297.472c-3.319-2.478-8.019-1.796-10.497 1.523l-16.628 22.271-16.628-22.271c-2.478-3.319-7.177-4.001-10.497-1.523-2.262 1.689-3.296 4.409-2.943 7.021-4.374-5.199-10.923-8.512-18.234-8.512h-19.471c-4.142 0-7.5 3.358-7.5 7.5v11.692c-2.163-10.927-11.818-19.192-23.37-19.192h-19.473c-4.142 0-7.5 3.358-7.5 7.5v62.8c-.018-.051-.03-.102-.049-.153l-24.75-65.305c-1.105-2.915-3.897-4.842-7.013-4.842-3.117 0-5.909 1.928-7.013 4.842l-24.75 65.306c-.095.251-.174.504-.241.757v-63.405c0-4.142-3.358-7.5-7.5-7.5s-7.5 3.358-7.5 7.5v25.153h-21.351v-25.153c0-4.142-3.358-7.5-7.5-7.5s-7.5 3.358-7.5 7.5v65.306c0 4.142 3.358 7.5 7.5 7.5s7.5-3.358 7.5-7.5v-25.153h21.351v25.153c0 4.142 3.358 7.5 7.5 7.5 3.693 0 6.756-2.672 7.378-6.187.449 2.51 2.16 4.73 4.719 5.7.875.332 1.773.489 2.656.489 3.027 0 5.878-1.846 7.015-4.844l4.287-11.311h26.9l4.287 11.311c1.468 3.874 5.797 5.822 9.671 4.355 2.399-.909 4.057-2.917 4.626-5.234.8 3.282 3.751 5.721 7.279 5.721 4.142 0 7.5-3.358 7.5-7.5v-25.153h11.973c11.552 0 21.207-8.265 23.37-19.192v44.344c0 4.142 3.358 7.5 7.5 7.5s7.5-3.358 7.5-7.5v-25.153h11.973c13.138 0 23.826-10.688 23.826-23.826 0-2.879-.514-5.64-1.453-8.197l18.428 24.682v32.494c0 4.142 3.358 7.5 7.5 7.5s7.5-3.358 7.5-7.5v-32.494l21.148-28.325c2.475-3.318 1.794-8.017-1.526-10.495zm-192.319 47.662 7.765-20.49 7.765 20.49zm66.551-16.5h-11.973v-17.653h11.973c4.867 0 8.826 3.959 8.826 8.827 0 4.867-3.959 8.826-8.826 8.826zm50.343 0h-11.973v-17.653h11.973c4.867 0 8.826 3.959 8.826 8.827 0 4.867-3.959 8.826-8.826 8.826z" fill="#dbedff"/><path d="m312.575 68.338c0-39.078-25.329-64.587-56.575-64.587s-56.575 25.509-56.575 64.587c0 33.978 19.153 62.35 44.69 69.18l-10.015 22.617c-1.67 3.771 1.091 8.012 5.215 8.012h33.371c4.124 0 6.884-4.242 5.215-8.012l-10.015-22.618c25.536-6.83 44.689-35.202 44.689-69.179z" fill="#ffe559"/><path d="m264.433 160.135 6.733-15.206-3.282-7.411c1.108-.296 2.199-.648 3.282-1.024-23.877-8.293-41.409-35.653-41.409-68.156 0-32.505 17.531-55.605 41.409-62.462-4.829-1.387-9.911-2.125-15.167-2.125-31.246 0-56.575 25.51-56.575 64.587 0 33.978 19.153 62.35 44.69 69.18l-10.014 22.617c-1.67 3.771 1.091 8.012 5.215 8.012h30.333c-4.124.001-6.884-4.241-5.215-8.012z" fill="#fbc700"/><g><path d="m269.31 145.143h-26.62c-4.142 0-7.5-3.358-7.5-7.5s3.358-7.5 7.5-7.5h26.62c4.142 0 7.5 3.358 7.5 7.5s-3.358 7.5-7.5 7.5z" fill="#dbedff"/></g></g></svg>