<svg id="Layer_1" enable-background="new 0 0 52 52" height="512" viewBox="0 0 52 52" width="512" xmlns="http://www.w3.org/2000/svg"><g id="_x39_5"><g><g><g><g><g><g><g><g><path d="m1.9828146 13.7688103v32.7728233c0 1.9161758 1.5563645 3.4635353 3.4635355 3.4635353h36.2543144c1.9161758 0 3.4634819-1.5473595 3.4634819-3.4635353v-32.7728233z" fill="#deddff"/></g></g><g><g><path d="m7.4704747 50.0051689h-2.0241246c-1.907171 0-3.4635355-1.5473595-3.4635355-3.4635353v-32.7728233h2.0241249v32.7728233c-.0000001 1.9161758 1.5563644 3.4635353 3.4635352 3.4635353z" fill="#c6c6f7"/></g></g></g><g><g><g><path d="m45.1641464 10.1883755v3.6524191h-43.1813318v-3.6524191c0-1.9161758 1.5563645-3.4635353 3.4635355-3.4635353h36.2543144c1.9161759 0 3.4634819 1.5473594 3.4634819 3.4635353z" fill="#5b5e8b"/></g></g></g><g><g><g><path d="m7.4704747 6.7248402c-1.9071708 0-3.4635353 1.5473595-3.4635353 3.4635353v3.6524191h-2.0241248v-3.6524191c0-1.9161758 1.5563645-3.4635353 3.4635355-3.4635353z" fill="#312e4b"/></g></g></g></g></g></g><g><g><g><circle cx="6.855" cy="10.264" fill="#deddff" r="1.257"/></g></g><g><g><circle cx="10.754" cy="10.264" fill="#deddff" r="1.257"/></g></g><g><g><circle cx="14.653" cy="10.264" fill="#deddff" r="1.257"/></g></g><g><g><path d="m41.5493011 10.2686052c0 .4677601-.3868256.8545866-.854641.8545866h-16.5618152c-.47682 0-.854641-.3868265-.854641-.8545866 0-.47682.377821-.8636465.854641-.8636465h16.5618153c.4678154 0 .8546409.3868265.8546409.8636465z" fill="#deddff"/></g></g></g><g><g><g><g><g><path d="m37.935585 32.5041847h-17.4283848c-.352354 0-.638073-.2857208-.638073-.6380749s.2857189-.638073.638073-.638073h17.4283848c.352356 0 .6380768.2857189.6380768.638073s-.2857208.6380749-.6380768.6380749z" fill="#c6c6f7"/></g></g></g><g><g><g><path d="m34.8101807 36.1326637h-14.3029805c-.352354 0-.638073-.285717-.638073-.638073s.2857189-.6380768.638073-.6380768h14.3029804c.352356 0 .6380768.2857208.6380768.6380768s-.2857208.638073-.6380767.638073z" fill="#c6c6f7"/></g></g></g><g><g><g><path d="m33.2474785 39.7611427h-12.7402783c-.352354 0-.638073-.285717-.638073-.638073s.2857189-.638073.638073-.638073h12.7402782c.352356 0 .638073.285717.638073.638073s-.285717.638073-.6380729.638073z" fill="#c6c6f7"/></g></g></g><g><g><g><path d="m31.6847763 43.3896255h-11.1775761c-.352354 0-.638073-.2857208-.638073-.6380768s.2857189-.638073.638073-.638073h11.1775761c.352356 0 .638073.285717.638073.638073s-.285717.6380768-.638073.6380768z" fill="#c6c6f7"/></g></g></g></g><g><g><g><path d="m35.4283752 47.0181046h-29.5401711c-.352355 0-.6380744-.2857208-.6380744-.6380768 0-.3523521.2857194-.638073.6380744-.638073h29.5401707c.352356 0 .6380768.2857208.6380768.638073.0000004.3523559-.2857204.6380768-.6380764.6380768z" fill="#c6c6f7"/></g></g></g></g><g><g><path d="m5.2501297 27.2918015v-8.9937801c0-.8747654.7091379-1.5839043 1.5839043-1.5839043h33.4788933c.8747635 0 1.5839043.7091389 1.5839043 1.5839043v8.9937801c0 .8747654-.7091408 1.5839043-1.5839043 1.5839043h-33.4788933c-.8747664-.0000001-1.5839043-.709139-1.5839043-1.5839043z" fill="#65b9ff"/></g></g><g><g><path d="m9.356493 28.8749561h-2.519959c-.8800049 0-1.5900269-.710022-1.5900269-1.5800171v-9c0-.8699951.710022-1.5800171 1.5900269-1.5800171h2.519959c-.8699951 0-1.5799565.710022-1.5799565 1.5800171v9c0 .8699952.7099614 1.5800171 1.5799565 1.5800171z" fill="#3e7fff"/></g></g></g><g><g><g><g><path d="m35.2663269 41.4212952 5.2748184 3.1998977 7.3420716-11.9866371-5.2748185-3.1998939z" fill="#46cc6b"/></g></g><g><g><path d="m45.2458038 31.0346127 2.6374054 1.5999431-7.3420715 11.9866333-2.6374016-1.5999451z" fill="#179c5f"/></g></g><g><g><path d="m42.641 29.318h6.17v1.851h-6.17z" fill="#c6c6f7" transform="matrix(-.855 -.519 .519 -.855 69.135 79.817)"/></g></g><g><g><path d="m43.5686111 27.8518143 5.2748184 3.1998959.6163139-1.0453262c.883625-1.4565983.4191399-3.3537254-1.0374603-4.2373524l-.0000038-.0000019c-1.4565964-.8836269-3.3537254-.4191399-4.2373505 1.0374584z" fill="#312e4b"/></g></g><g><g><path d="m35.2643356 41.4179459.0101547 3.3244514.0057144 2.1757278c.0040855.1906548.2103996.315815.3750839.2275391l1.932312-1.0000496 2.9531136-1.526825z" fill="#ffaf93"/></g></g></g><g><g><path d="m35.2744904 44.7423973.0057144 2.1757278c.0040855.1906548.2103996.315815.3750839.2275391l1.93853-.9962769z" fill="#312e4b"/></g></g></g></g><g><g><g><path d="m15.2690907 22.5486622c.1572266-.1176758.2958984-.2592773.4130859-.4243164.2070313-.2885742.3125-.6518555.3125-1.0795898 0-1.1011524-.7626123-2.0068359-2.4355469-2.0068359h-2.3554687c-.3710508 0-.6494141.304081-.6494141.6591797v6.0581055c0 .1772461.0654297.3364258.1884766.4604492v.0004883c.1230469.1230469.2832031.1884766.4609375.1884766h2.415039c2.0104284 0 2.765625-.9300823 2.765625-2.15625 0-.7976-.4291715-1.3592359-1.1152343-1.6997072zm-.163086 1.659668c0 .8121166-.7650824.9477539-1.5771484.9477539h-1.6660156v-1.8852539h1.6767578c1.5664062 0 1.5664062.7055664 1.5664062.9375zm-3.243164-2.15625v-1.765625h1.6269531c.6132431 0 1.2363281.2165871 1.2363281.828125 0 .7811756-.6225042.9375-1.40625.9375z" fill="#deddff"/></g></g><g><g><path d="m21.8423328 25.0960255h-3.0634766v-5.4487305c0-.8633251-1.3085938-.8685436-1.3085938 0v5.9282227c0 .455122.3654633.8291016.8291016.8291016h3.5429688c.3634682 0 .6591797-.2848301.6591797-.6494141 0-.359808-.290329-.6591797-.6591797-.6591797z" fill="#deddff"/></g></g><g><g><path d="m26.5034657 18.9383106c-2.112711 0-3.656395 1.4397011-3.703125 3.7871094.0459442 2.2834225 1.538353 3.7788086 3.703125 3.7788086 2.2551918 0 3.6623001-1.6112041 3.703125-3.7866211-.041605-2.1916637-1.4720746-3.7792969-3.703125-3.7792969zm2.3945312 3.7832031c0 1.4785042-.9102669 2.5341797-2.3945313 2.5341797-1.5141277 0-2.3945313-1.0868435-2.3945313-2.5341797 0-1.4369354.8681641-2.534668 2.3945313-2.534668 1.4672967.0000001 2.3945313 1.0364667 2.3945313 2.534668z" fill="#deddff"/></g></g><g><g><path d="m36.7925262 22.181963h-1.9658203c-.7972527 0-.8152237 1.21875 0 1.21875h1.4462891v1.4848633c-.4775391.2392578-.9970703.3603516-1.5458984.3603516-1.5762711 0-2.5146484-1.0563145-2.5146484-2.5146484 0-1.6087837 1.0352859-2.5146484 2.4648438-2.5146484.6366158 0 1.2012749.1434441 1.8662109.5375977.2568359.1289063.5683594.0771484.7480469-.1108398.3033676-.3193321.1633492-.8167267-.1230469-.9560547-.8798561-.5519333-1.6543541-.7490234-2.5908203-.7490234-2.0345612 0-3.6738262 1.4987221-3.6738262 3.7929688 0 2.235796 1.528738 3.7729492 3.7031231 3.7729492.8056641 0 1.6054688-.1953125 2.3720703-.578125.2888718-.136734.4931641-.4347401.4931641-.7993164v-2.265625c-.0000002-.3786891-.3021814-.6791995-.6796877-.6791995z" fill="#deddff"/></g></g></g><g><g><path d="m50.008049 9.5188923c.1241264 2.606225-1.0259476 4.947732-2.8792763 6.4618559-1.1997147.9845877-2.6972733 1.6216383-4.3354759 1.7622786-.1158447.0082817-.2234077.0662041-.3061256.1489735-1.2659225 1.2575874-2.7551994 1.5140743-3.5163765 1.5554829-.1903343.0082321-.2978477-.2151279-.1820526-.3640499.4219742-.5378189.5791779-1.0259972.604023-1.4396877.0082321-.2150784-.1241264-.4054108-.3226891-.4881287-2.8379173-1.191432-4.8319359-3.9962711-4.8319359-7.2727251 0-4.426477 3.6570663-8.009058 8.1249008-7.8849301 2.1677399.0579228 4.1534767 1.0425103 5.5517578 2.5648661 1.2245102 1.332124 2.0105324 3.0613253 2.0932503 4.9560645z" fill="#e83d62"/></g></g><g><g><path d="m40.9883308 17.6437454c-.0248489.4136906-.1820526.9018688-.6122551 1.4396877-.0248489.0330772-.0414124.0661545-.0496407.1075134-.5295372.173769-1.0094337.2399731-1.3486404.2565365-.1903305.0082321-.3061256-.2151279-.1820488-.3640499.4219742-.5378189.5791779-1.0259972.604023-1.4396877.0082321-.2150784-.1324081-.4054108-.3309746-.4881287-2.8379135-1.191432-4.8236542-3.9962711-4.8236542-7.2727251 0-4.426477 3.6570663-8.009058 8.1166229-7.8849301.1903305.0082819.3888969.0165639.5791779.0413592-3.9879913.388896-7.1071892 3.7563493-7.1071892 7.8435707 0 3.276454 1.9856873 6.0812931 4.8236046 7.2727251.1985627.0827182.3392563.2730506.3309746.4881289z" fill="#ce2955"/></g></g><g><g><path d="m16.7274456 43.3896255h-9.8468552c-.6926084 0-1.2540784-.56147-1.2540784-1.2540817v-9.6534309c0-.692606.56147-1.254076 1.2540784-1.254076h9.8468552c.6926079 0 1.2540779.56147 1.2540779 1.254076v9.6534309c0 .6926117-.56147 1.2540817-1.2540779 1.2540817z" fill="#fcb73e"/></g></g><g><g><path d="m9.8765125 43.384903h-3.0000004c-.6900024 0-1.25-.5599976-1.25-1.25v-9.6499634c0-.7000103.5599976-1.2600079 1.25-1.2600079h3.0000005c-.6900024 0-1.25.5599976-1.25 1.2600079v9.6499634c-.0000001.6900024.5599975 1.25 1.2499999 1.25z" fill="#fd982e"/></g></g><g><g><path d="m47.9423103 9.2227154c-.0104866-.2095633-.1781006-.3562632-.3666878-.3876629l-.408638-.0628624c-.1781006-.0314636-.3038254-.1467009-.3562012-.3143129-.094326-.2619381-.1990738-.5134525-.3457756-.754415-.0838356-.1571884-.0838356-.3352885.0104904-.4819894l.2409592-.3561997c.1152382-.1676764.1047516-.3876634-.0314598-.5553393-.1257286-.1362133-.26194-.2828498-.3980904-.4190626-.146698-.1362128-.2933998-.2619381-.4401016-.3771758-.1676102-.1257892-.3981514-.1257892-.555275 0l-.3562622.240963c-.1362152.1047492-.3248024.1152372-.4715042.0313993-.2619362-.1152377-.5133858-.2199874-.7753258-.3038254-.1676102-.0418868-.293335-.1676121-.335289-.3352885l-.073349-.3981509c-.0418854-.1990752-.1990128-.3457761-.3980865-.3561997-.3981514-.0419512-.8067894-.0209756-1.2049408.0418868-.1885872.0209756-.335289.1885877-.356266.3876634l-.052372.3352885c-.0313988.1781001-.1571274.3248005-.3143158.3666878-.2619362.0943255-.5133858.1885877-.743927.3248005-.1571236.083838-.3247986.083838-.4714355-.0104237l-.2829132-.188652c-.1781006-.1152372-.3981514-.1047492-.5553398.0314636-.146637.1257253-.2828484.2619381-.4190636.4086385-.1362114.1362133-.2514496.2828498-.3667526.4295506-.1362114.1571884-.1362114.3876629-.0104218.5553393l.1990128.2724257c.094326.1257253.1048126.3143129.0314598.4714375-.1152344.2305388-.2095604.4924769-.2829132.754415-.0418854.1676121-.1780968.3038254-.3561974.3248005l-.335289.0733509c-.1990776.0313988-.356266.1885872-.3667526.3771753-.0523758.408639-.0313988.8172131.0104866 1.2153645.0314636.188652.188591.335288.3772392.3667517l.408577.07335c.167675.0209122.3038902.1362133.3562622.3038254.0838394.2619381.2095642.5133886.335289.7544155.0837746.1571236.0942612.3352242-.0104866.481925l-.2305374.3562632c-.1152382.1781006-.094265.3981514.0314598.5657635.1257286.1362133.26194.2829142.4086418.4191265.1362114.1257257.2828484.2619381.4295502.3771753.167675.1257257.387661.1257257.5553398 0l.3457108-.2514496c.1467018-.1048136.3248024-.1152382.4819908-.0419512.2514496.1362123.5028992.2410259.7753258.3038893.1571884.0628624.2829132.1885872.3247986.3561993l.0838394.3981514c.0418854.1885881.1990738.335288.3981514.3562641.387661.0313988.8067894.0209112 1.1944504-.0419512.1990776-.0313997.3457146-.1990757.3771782-.3876629l.0418854-.3457127c.020977-.1781635.1467018-.3143768.3248024-.3667517.2514496-.0837746.4924774-.1990757.7334404-.3143129.146698-.0838385.3352852-.0838385.4715004.0104876l.2724266.1781006c.1676102.1257248.3981476.1048136.555275-.0313997.146698-.1257248.2829132-.2515144.4191246-.3981514.1362152-.1362123.26194-.2829132.3771782-.4401016.1257248-.1571245.1362114-.3876629.0104866-.5552759l-.1990776-.2619381c-.1047478-.1362123-.1152344-.3248005-.0418854-.4819889.1257248-.2304745.219986-.481925.2933388-.7334394.0418854-.1780996.1780968-.3143129.3457756-.3457117l.3457756-.0628624c.1990738-.0419512.3457108-.1885881.3666878-.3876638.0313986-.398151.0313986-.80679-.0209772-1.1944538zm-5.4692344 3.0489311c-1.320179 0-2.3889084-1.0686636-2.3889084-2.3888416s1.0687294-2.388906 2.3889084-2.388906c1.3096886 0 2.3783531 1.068728 2.3783531 2.388906s-1.0686646 2.3888416-2.3783531 2.3888416z" fill="#deddff"/></g></g></g></svg>