<svg id="Layer_1" enable-background="new 0 0 511 511" height="512" viewBox="0 0 511 511" width="512" xmlns="http://www.w3.org/2000/svg"><g><g><g><path d="m255.5 17.847c-94.889 0-153.342 53.524-153.503 53.614 0 0-2.43 3.033-2.885 5.05-3.692 16.389-7.141 38.353-7.141 54.381 0 136.18 114.84 246.549 251.02 246.549 52.44 0 110.783-25.133 149.831-55.352.873-.676 3.645-5.218 3.645-5.218.172-1.051 5.609-22.701 5.609-52.447 0-136.181-110.396-246.577-246.576-246.577z" fill="#dff6fd"/></g><g><path d="m342.97 370.48c-136.18 0-246.576-110.396-246.576-246.576 0-18 1.941-35.538 5.603-52.442-56.707 45.176-93.073 114.823-93.073 192.962 0 69.795 28.999 132.818 75.604 177.676l344.813-2.813c32.992-32.776 56.836-74.915 67.127-122.416-42.121 33.549-95.463 53.609-153.498 53.609z" fill="#c4e2ff"/></g></g><g><g><path d="m367.16 197.761h-227.4l-13.875 160.314c81.557 39.022 170.213 38.567 265.722 0z" fill="#ffa700"/></g><g><path d="m426.946 419.613c-4.512-28.003-26.214-50.104-54.13-55.126l-112.877-20.307-44.363 7.824c-44.938 7.926-77.524 47.232-76.982 92.861l.438 36.931c30.987 16.638 65.936 26.856 103.072 28.846l16.457-7.508 16.457 7.101c59.771-4.7 113.909-30.801 154.321-70.949z" fill="#af66da"/></g><g><path d="m149.176 419.862c4.532-28.124 26.398-50.281 54.46-55.185l86.36-15.09-30.057-5.407-117.306 20.498c-28.062 4.903-49.928 27.061-54.46 55.185l-3.644 22.237c16.198 15.59 34.523 28.987 54.496 39.711z" fill="#9857bd"/></g><g><path d="m242.104 510.642c4.435.237 8.901.358 13.396.358 6.565 0 13.075-.259 19.519-.766v-119.85h-32.915z" fill="#9857bd"/></g><g><path d="m175.972 347.533c-3.606 9.564-5.585 19.927-5.585 30.753 0 27.825 13.035 52.606 33.33 68.57 4.721 3.714 11.467 3.341 15.715-.907l30.627-30.627c4.617-4.617 12.103-4.617 16.72 0l29.878 29.878c4.286 4.286 11.12 4.637 15.827.817 19.698-15.985 32.289-40.386 32.289-67.731 0-10.826-1.979-21.189-5.585-30.753z" fill="#fff"/></g><g><g><g><g><path d="m258.119 406.678c-21.212 0-38.408-17.196-38.408-38.408v-86.027h76.816v86.027c0 21.213-17.196 38.408-38.408 38.408z" fill="#f79480"/></g></g></g></g><g><g><path d="m219.711 282.243v47.62c0 21.212 17.196 38.408 38.408 38.408 21.212 0 38.408-17.196 38.408-38.408v-47.62z" fill="#ea806b"/></g></g><g><g><path d="m268.9 26.083h-23.531c-23.032 0-44.211 8.046-60.964 21.454v242.248c19.175 16.768 43.325 49.405 71.745 54.934.284 0 .568-.001.851-.003 5.465-.042 10.778-.701 15.893-1.877 53.233-7.212 94.268-52.831 94.268-108.041v-110.674c-.001-54.268-43.994-98.041-98.262-98.041z" fill="#fdbd81"/></g></g><g><g><g><g><path d="m367.16 201.91v-22.627c4.929 0 8.925 3.996 8.925 8.925v4.776c.001 4.93-3.995 8.926-8.925 8.926z" fill="#fd5ca6"/></g></g></g></g><g><g><g><g><path d="m139.041 192.993c0 4.947 4.01 8.957 8.957 8.957v-22.708c-4.947 0-8.957 4.01-8.957 8.957z" fill="#fd5ca6"/></g></g></g></g><g><g><g><g><path d="m211.006 196.856v7.689c0 5.015 4.066 9.082 9.082 9.082 5.015 0 9.082-4.066 9.082-9.082v-7.689z" fill="#f79480"/></g></g></g></g><g><g><g><g><path d="m285.005 196.856v7.689c0 5.015 4.066 9.082 9.082 9.082 5.015 0 9.082-4.066 9.082-9.082v-7.689z" fill="#f79480"/></g></g></g></g><g><g><path d="m184.675 240.727c.233-5.296.068-139.816.015-193.016-19.607 15.414-33.199 38.13-36.691 64.049v124.763c0 24.269 7.847 46.666 21.112 64.84 19.905 26.335 51.482 43.356 87.038 43.356.284 0 .568-.001.851-.003.476-.004.945-.034 1.419-.047-42.937-15.025-73.744-55.876-73.744-103.942z" fill="#f79480"/></g></g><g><g><g><g><path d="m220.088 206.353c-5.015 0-9.082-4.066-9.082-9.082v-11.682l3.348-5.07-3.348-5.07v-3.017c0-5.015 4.066-9.082 9.082-9.082s9.082 4.066 9.082 9.082v24.838c0 5.016-4.067 9.083-9.082 9.083z" fill="#00366d"/></g></g></g></g><g><g><g><g><path d="m294.086 206.353c-5.015 0-9.082-4.066-9.082-9.082v-11.682l3.348-5.07-3.348-5.07v-3.017c0-5.015 4.066-9.082 9.082-9.082 5.015 0 9.082 4.066 9.082 9.082v24.838c0 5.016-4.066 9.083-9.082 9.083z" fill="#00366d"/></g></g></g></g><g><g><path d="m291.559 256.596h-9.352l-24.628 5.113-24.628-5.113h-8.272c-2.775 0-4.992 2.422-4.622 5.173.708 5.262 2.482 10.185 5.097 14.547l49.868 14.778c11.262-5.528 19.421-16.409 21.16-29.326.37-2.75-1.847-5.172-4.623-5.172z" fill="#e41e7f"/></g></g><g><path d="m267.99 215.942h-19.742c-3.019 0-5.521 2.455-5.456 5.473.155 7.214 4.035 13.958 10.303 16.323 1.579.596 3.268.918 5.023.918 1.756 0 3.445-.323 5.024-.918 6.269-2.365 10.148-9.109 10.304-16.323.065-3.018-2.437-5.473-5.456-5.473z" fill="#f79480"/></g><g><g><path d="m214.354 188.936c-1.849 0-3.348-1.499-3.348-3.348v-10.139c0-1.849 1.499-3.348 3.348-3.348 1.849 0 3.348 1.499 3.348 3.348v10.139c0 1.85-1.499 3.348-3.348 3.348z" fill="#fff"/></g></g><g><g><path d="m288.353 188.936c-1.849 0-3.348-1.499-3.348-3.348v-10.139c0-1.849 1.499-3.348 3.348-3.348 1.849 0 3.348 1.499 3.348 3.348v10.139c-.001 1.85-1.499 3.348-3.348 3.348z" fill="#fff"/></g></g><g><g><path d="m225.158 276.313c6.711 11.195 18.959 18.69 32.961 18.69 6.065 0 11.8-1.411 16.9-3.915-2.192-13.754-14.105-24.267-28.476-24.267-8.482.001-16.108 3.663-21.385 9.492z" fill="#fd3581"/></g></g><g><g><path d="m276.79 266.822h-38.421c-2.992 0-5.418-2.426-5.418-5.418v-4.808h49.257v4.808c0 2.992-2.426 5.418-5.418 5.418z" fill="#fff"/></g></g><g><path d="m286.033 27.568c-2.017 1.087-3.835 2.497-5.378 4.168-.802-1.93-1.898-3.705-3.224-5.281-2.813-.241-5.657-.371-8.533-.371h-23.531c-23.032 0-44.211 8.046-60.964 21.454v118.652h7.2c44.108 0 80.848-31.521 88.939-73.263 12.532 38.056 45.909 66.627 86.617 72.239v-41.042c.002-48.423-35.026-88.487-81.126-96.556z" fill="#f79480"/></g><g><path d="m391.181 159.187c-63.354 0-114.712-51.358-114.712-114.712v-14.99c0-12.167 9.864-22.031 22.031-22.031h8.713c46.374 0 83.968 37.594 83.968 83.968z" fill="#fedf30"/></g><g><path d="m125.885 158.114h60.655c53.825 0 97.459-43.634 97.459-97.459v-38.791c0-12.075-9.789-21.864-21.864-21.864h-48.75c-48.325 0-87.5 39.175-87.5 87.5z" fill="#fec344"/></g><g><path d="m125.885 358.075v-218.369h54.533v163.835c0 30.118-24.415 54.534-54.533 54.534z" fill="#fec344"/></g><g><path d="m391.607 358.075c-21.696 0-39.285-17.588-39.285-39.285v-179.084h39.285z" fill="#fedf30"/></g><g><g><path d="m227.186 77.013-26.997 17.984-18.108-18.108 17.984-26.997c2.376-3.566 7.42-4.067 10.45-1.037l17.707 17.707c3.03 3.031 2.53 8.076-1.036 10.451z" fill="#fd3581"/></g><g><path d="m182.205 121.994 17.984-26.997-18.108-18.108-26.997 17.984c-3.566 2.376-4.067 7.42-1.037 10.45l17.707 17.707c3.031 3.031 8.075 2.531 10.451-1.036z" fill="#fd3581"/></g><g><path d="m205.762 97.562-3.008 3.008c-2.007 2.007-5.261 2.007-7.268 0l-18.978-18.978c-2.007-2.007-2.007-5.261 0-7.268l3.008-3.008c2.007-2.007 5.261-2.007 7.268 0l18.978 18.978c2.007 2.007 2.007 5.261 0 7.268z" fill="#e41e7f"/></g></g><g><circle cx="258.061" cy="452.849" fill="#fff" r="6.73"/></g><g><circle cx="258.562" cy="496.405" fill="#fff" r="6.73"/></g></g></g></svg>