<svg id="Capa_1" enable-background="new 0 0 512 512" height="512" viewBox="0 0 512 512" width="512" xmlns="http://www.w3.org/2000/svg"><g><path d="m340.011 337.133h-252.334c-23.556 0-44.028-15.963-49.873-38.63l4.82-7.725-8.284-7.728-6.867-30.903 6.008-8.253-9.443-7.202-8.585-38.633 235.911-15.453 235.911 15.453-37.519 72.358c-21.252 40.988-63.575 66.716-109.745 66.716z" fill="#d19a6e"/><path d="m497.577 198.062-20.03 38.63-8.171 7.403.158 8.052-9.476 18.276c-2.276 4.389-4.794 8.603-7.532 12.629-9.677 4.111-13.283 8.232-12.44 15.456-23.011 24.3-55.319 38.629-89.773 38.629h-30.906c46.173 0 88.493-25.734 109.745-66.715l37.519-72.36z" fill="#bc845e"/><path d="m442.226 283.052c-3.75 5.511-7.922 10.673-12.445 15.453h-391.973c-.144-.567-.288-1.133-.412-1.71l-3.049-13.743z" fill="#bc845e"/><path d="m452.528 283.052c-3.75 5.511-7.922 10.673-12.445 15.453h-30.905c4.523-4.78 8.695-9.941 12.445-15.453z" fill="#ad775c"/><path d="m467.249 236.693-8.015 15.453h-431.759l-3.441-15.453z" fill="#bc845e"/><path d="m477.551 236.693-8.015 15.453h-30.905l8.014-15.453z" fill="#ad775c"/><path d="m293.602 174.365c-4.268 0-7.726-2.429-7.726-6.696v-15.968c0-4.261-3.466-7.726-7.726-7.726h-25.755c-4.261 0-7.726 3.466-7.726 7.726v15.968c0 4.267-3.459 6.696-7.726 6.696s-7.726-2.429-7.726-6.696v-15.968c0-12.781 10.398-23.179 23.179-23.179h25.755c12.781 0 23.179 10.398 23.179 23.179v15.968c-.002 4.267-3.461 6.696-7.728 6.696z" fill="#e2d6d1"/><path d="m506.849 198.059h-501.698c-2.845 0-5.151-2.306-5.151-5.151v-20.604c0-2.845 2.306-5.151 5.151-5.151h501.698c2.845 0 5.151 2.306 5.151 5.151v20.604c0 2.845-2.306 5.151-5.151 5.151z" fill="#faf2f3"/><path d="m512 172.307v20.604c0 2.843-2.308 5.151-5.151 5.151h-30.905c2.843 0 5.151-2.308 5.151-5.151v-20.604c0-2.843-2.308-5.151-5.151-5.151h30.905c2.843 0 5.151 2.308 5.151 5.151z" fill="#f0e5e0"/><path d="m84.865 340.349c-1.977 0-3.955-.754-5.463-2.263-3.018-3.017-3.018-7.909 0-10.927l221.865-221.865c3.018-3.017 7.909-3.017 10.928 0 3.017 3.017 3.017 7.909 0 10.927l-221.867 221.865c-1.509 1.508-3.486 2.263-5.463 2.263z" fill="#6f6571"/><path d="m348.201 200.698c-6.439 2.275-12.227 5.932-17.002 10.618 0 0 9.447 20.975 9.447 33.78 0 12.637-10.09 31.782-10.09 31.782 4.895 4.991 10.909 8.879 17.636 11.259 24.389-.631 51.517-30.912 51.517-43.717.001-12.805-32.932-44.695-51.508-43.722zm26.373 54.652c-2.792 2.792-6.655 4.523-10.92 4.523-4.432 0-8.429-1.869-11.248-4.86-3.883-.88-9.034-6.819-9.034-10.917 0-4.275 4.25-9.859 9.362-10.606.106-.106.214-.211.324-.315 2.763-2.607 6.494-4.208 10.596-4.208 4.107 0 7.841 1.605 10.605 4.216 0 0 13.991 7.466 13.991 11.741 0 4.101-13.358 10.098-13.358 10.098-.105.111-.211.22-.318.328z" fill="#fc8d94"/><path d="m410.012 244.42c0 12.805-5.192 24.384-13.578 32.78-8.386 8.386-19.986 13.578-32.78 13.578-5.419 0-10.621-.927-15.453-2.648 6.583-2.318 12.486-6.088 17.328-10.93 8.386-8.396 13.578-19.975 13.578-32.78s-5.192-24.395-13.578-32.78c-4.842-4.842-10.745-8.612-17.328-10.941 4.842-1.71 10.034-2.637 15.453-2.637 12.795 0 24.395 5.182 32.78 13.578 8.386 8.385 13.578 19.975 13.578 32.78z" fill="#fa6f7c"/><path d="m352.734 233.49c-2.802 2.802-4.533 6.655-4.533 10.93 0 4.1 1.593 7.823 4.209 10.594l-21.856 21.867c-8.2-8.365-13.258-19.821-13.258-32.461 0-12.805 5.192-24.395 13.578-32.78.113-.113.216-.216.33-.319l21.854 21.854c-.114.092-.221.212-.324.315z" fill="#fff"/><path d="m396.754 276.87-21.861-21.85c2.617-2.771 4.214-6.5 4.214-10.601 0-4.275-1.731-8.128-4.533-10.93-.103-.103-.206-.206-.319-.309l21.86-21.86c.103.113.216.216.319.319 8.386 8.386 8.52 56.866.32 65.231z" fill="#fff"/><path d="m410.012 244.42c0 12.64-5.058 24.086-13.258 32.451l-19.491-19.481c1.205-4.121 1.844-8.468 1.844-12.97 0-4.862-.752-9.55-2.133-13.949l19.141-19.151c.103.113.216.216.319.319 8.386 8.386 13.578 19.976 13.578 32.781z" fill="#faf2f3"/><path d="m293.797 134.623-2.298 8.71-8.653 2.241c-1.298-.999-2.926-1.597-4.698-1.597h-15.566l4.417-8.81 11.036-6.642h.113c6.027-.001 11.529 2.307 15.649 6.098z" fill="#e2d6d1"/><path d="m29.111 394.042 33.73-6.695 30.587-54.281-15.65-15.65c-4.35-4.35-11.125-5.128-16.348-1.876l-40.766 25.383c-14.075 8.764-16.322 28.35-4.598 40.074z" fill="#ffc269"/><path d="m36.489 401.427-20.426-20.426c-.24-.24-.473-.488-.699-.728 11.794 10.919 30.762 8.486 39.351-5.303l25.379-40.764c3.249-5.23 2.469-11.997-1.879-16.346l21.853 21.853c4.349 4.349 5.128 11.116 1.879 16.346l-25.379 40.764c-8.77 14.074-28.358 16.325-40.079 4.604z" fill="#ffa95f"/></g></svg>