<svg height="512pt" viewBox="0 0 512.00029 512" width="512pt" xmlns="http://www.w3.org/2000/svg"><path d="m185.378906 56.746094c.0625 17.335937-13.929687 31.445312-31.265625 31.523437h-87.535156c-17.207031-.285156-31.003906-14.316406-31.003906-31.527343 0-17.207032 13.796875-31.238282 31.003906-31.527344 2.75 0 5.484375.382812 8.128906 1.140625 4.800781-15.660157 19.261719-26.35156275 35.640625-26.35156275 16.382813 0 30.839844 10.69140575 35.644532 26.35156275 2.640624-.757813 5.371093-1.144531 8.121093-1.140625 17.339844.078125 31.335938 14.191406 31.265625 31.53125zm0 0" fill="#cad0d7"/><path d="m322.738281 108.308594c.742188-1.457032 2.242188-2.378906 3.882813-2.378906 1.636718 0 3.140625.921874 3.882812 2.378906l172.667969 324.238281h-344.273437zm0 0" fill="#636c77"/><path d="m400.242188 368.636719-193.324219-366.257813c-.746094-1.460937-2.246094-2.378906-3.882813-2.378906-1.640625 0-3.140625.917969-3.886718 2.378906l-99.484376 195.265625-73.179687 173.109375zm0 0" fill="#a9b0bb"/><path d="m371.464844 185.199219-9.710938 15.09375-3.617187 5.648437c-1.109375 2.097656-3.097657 3.589844-5.421875 4.066406-2.324219.480469-4.738282-.105468-6.585938-1.59375l-13.503906-10.769531c-1.644531-1.320312-3.75-1.925781-5.839844-1.675781-2.09375.25-4 1.332031-5.285156 3l-6.621094 7.855469-21.449218-40.515625 24.453124-48.464844 4.855469-9.535156c.742188-1.457032 2.242188-2.378906 3.882813-2.378906 1.636718 0 3.140625.921874 3.882812 2.378906zm0 0" fill="#e4e8eb"/><path d="m245.40625 75.207031-12.535156 9.886719-22.949219 18.183594c-3.875 3.175781-9.34375 3.53125-13.597656.882812l-37.515625-22.597656 35.488281-69.648438 4.851563-9.535156c.746093-1.460937 2.246093-2.378906 3.886718-2.378906 1.636719 0 3.136719.917969 3.882813 2.378906zm0 0" fill="#e4e8eb"/><path d="m176.550781 167.71875 34.253907-11.386719c4.753906-1.59375 9.964843-1.09375 14.328124 1.382813 4.359376 2.476562 7.464844 6.691406 8.535157 11.59375l21.539062 100.632812-61 3.707032-44.136719-79.445313zm0 0" fill="#e85841"/><path d="m0 459.03125v35.308594c0 9.75 7.90625 17.65625 17.65625 17.65625h150.066406c4.875 0 8.828125-3.953125 8.828125-8.828125v-8.828125c0-4.875 3.953125-8.828125 8.828125-8.828125h14.714844c1.910156 0 3.769531.621093 5.296875 1.765625l30.597656 22.953125c1.527344 1.144531 3.386719 1.765625 5.296875 1.765625h169.789063c19.804687 0 39.207031-5.5625 56.003906-16.058594 27.945313-17.460938 44.925781-48.089844 44.921875-81.046875zm0 0" fill="#a38671"/><path d="m512 414.890625s-35.308594 61.792969-150.070312 61.792969c-46.871094-.734375-93.324219-8.929688-137.621094-24.273438-7.382813-2.464844-15.023438-4.066406-22.773438-4.769531-6.078125-.617187-12.199218-.617187-18.273437 0-7.242188.675781-14.382813 2.1875-21.277344 4.503906l-24.804687 8.210938c-32.050782 10.71875-66.355469 12.847656-99.484376 6.175781l-37.695312-7.5 24.804688-132.503906.265624-1.234375c.953126-4.972657 1.164063-10.0625.617188-15.097657l-.085938-1.234374-6.621093-66.117188c-.789063-7.898438 3.800781-15.34375 11.210937-18.1875l146.359375-56.9375 70.09375 91.1875 11.03125 14.300781 1.855469 2.386719c3.53125 4.546875 7.761719 8.511719 12.535156 11.738281l7.503906 4.945313 14.652344 9.796875 18.804688 12.535156 14.742187 9.800781 18.007813 12.003906 14.652344 9.800782 21.011718 13.945312.261719.175782c4.8125 3.253906 10.078125 5.78125 15.625 7.503906 6.019531 1.941406 12.304687 2.921875 18.628906 2.914062h51.90625c11.714844-.035156 22.960938 4.601563 31.246094 12.886719s12.925781 19.535156 12.890625 31.25zm0 0" fill="#fa6c51"/><path d="m512 56.746094c.070312 17.335937-13.921875 31.445312-31.257812 31.523437h-87.542969c-17.207031-.285156-31.003907-14.316406-31.003907-31.527343 0-17.207032 13.796876-31.238282 31.003907-31.527344 2.75-.003906 5.484375.382812 8.128906 1.140625 4.800781-15.660157 19.261719-26.35156275 35.640625-26.35156275s30.839844 10.69140575 35.640625 26.35156275c2.644531-.761719 5.382813-1.144531 8.132813-1.140625 17.335937.078125 31.332031 14.195312 31.257812 31.53125zm0 0" fill="#cad0d7"/><path d="m133.648438 243.019531-30.894532 31.691407c-4.808594 4.925781-11.390625 7.722656-18.273437 7.765624h-61.527344l-3.972656-39.632812c-.789063-7.898438 3.800781-15.34375 11.210937-18.1875l96.042969-37.339844 12.269531 25.160156c4.949219 10.191407 3.011719 22.386719-4.855468 30.542969zm0 0" fill="#fb836f"/><path d="m255.207031 269.941406h-.089843l-8.472657-11.035156-15.890625-20.65625-14.742187-68.941406c-1.0625-5.050782-4.335938-9.363282-8.917969-11.742188l3.710938-1.234375c4.753906-1.59375 9.964843-1.09375 14.328124 1.382813 4.359376 2.476562 7.464844 6.691406 8.535157 11.59375zm0 0" fill="#d6493a"/><path d="m512 414.890625c-.007812 16.21875-4.140625 32.164063-12.003906 46.347656-7.824219 14.191407-19.160156 26.136719-32.929688 34.691407-16.777344 10.5-36.171875 16.066406-55.964844 16.066406h-17.65625c19.792969 0 39.1875-5.566406 55.96875-16.066406 13.765626-8.554688 25.101563-20.5 32.925782-34.691407 4.183594-7.539062 7.300781-15.621093 9.269531-24.011719l.085937-.089843c7.921876-6.273438 14.777344-13.785157 20.304688-22.246094zm0 0" fill="#937661"/><path d="m512 414.890625c-5.527344 8.460937-12.382812 15.972656-20.304688 22.246094 1.65625-6.792969 2.515626-13.753907 2.5625-20.746094.070313-.496094.101563-.996094.085938-1.5.035156-11.714844-4.601562-22.964844-12.886719-31.25-8.285156-8.285156-19.535156-12.921875-31.25-12.886719h17.65625c11.714844-.035156 22.960938 4.601563 31.246094 12.886719s12.925781 19.535156 12.890625 31.25zm0 0" fill="#e85841"/><path d="m415.957031 370.753906h-17.65625c-6.324219.007813-12.609375-.972656-18.625-2.914062-5.550781-1.722656-10.8125-4.25-15.625-7.503906l-.265625-.175782-21.011718-13.945312-14.652344-9.800782-18.007813-12.003906-14.742187-9.800781-18.804688-12.535156-14.652344-9.796875-7.503906-4.945313c-4.769531-3.226562-9-7.191406-12.535156-11.738281l-1.851562-2.386719-1.679688-2.207031h-.085938l-.707031-1.058594h-.089843l-8.472657-11.035156-62.410156-81.210938-3.621094-4.679687 13.59375-5.296875 54.203125 70.53125 15.890625 20.65625 8.472657 11.035156h.089843l2.46875 3.265625 1.855469 2.386719c3.53125 4.546875 7.761719 8.511719 12.535156 11.738281l7.503906 4.945313 14.652344 9.796875 18.804688 12.535156 14.742187 9.800781 18.007813 12.003906 14.652344 9.800782 21.011718 13.945312.261719.175782c4.8125 3.253906 10.078125 5.78125 15.625 7.503906 6.019531 1.941406 12.304687 2.921875 18.628906 2.914062zm0 0" fill="#e85841"/><path d="m400.242188 368.636719c-.96875-.179688-1.941407-.53125-2.914063-.796875-5.546875-1.722656-10.8125-4.25-15.625-7.503906l-.261719-.175782-5.121094-3.441406-91.542968-173.375-9.003906-17.035156-42.902344-81.214844 12.535156-9.886719 39.019531 73.972657 9.003907 17.128906zm0 0" fill="#949daa"/><path d="m245.40625 75.207031-12.535156 9.886719-38.574219-73.179688 4.851563-9.535156c.746093-1.460937 2.246093-2.378906 3.886718-2.378906 1.636719 0 3.136719.917969 3.882813 2.378906zm0 0" fill="#cad0d7"/><path d="m470.332031 370.929688c-.8125-.144532-1.640625-.207032-2.46875-.175782h-15.273437l-90.835938-170.460937 9.710938-15.09375zm0 0" fill="#535c66"/><path d="m371.464844 185.199219-9.710938 15.09375-43.871094-82.449219 4.855469-9.535156c.742188-1.457032 2.242188-2.378906 3.882813-2.378906 1.636718 0 3.140625.921874 3.882812 2.378906zm0 0" fill="#cad0d7"/><g fill="#424852"><path d="m294.222656 302.074219c-.085937.175781-.175781.265625-.265625.441406l-22.066406 29.398437c-1.679687 2.207032-4.289063 3.511719-7.0625 3.527344-1.90625-.015625-3.761719-.632812-5.296875-1.761718-1.875-1.40625-3.113281-3.496094-3.441406-5.816407-.332032-2.316406.269531-4.671875 1.675781-6.542969l21.804687-29.042968zm0 0"/><path d="m327.769531 324.410156-20.039062 33.277344c-1.613281 2.648438-4.492188 4.257812-7.59375 4.238281-1.609375-.023437-3.183594-.449219-4.589844-1.234375-4.148437-2.566406-5.484375-7.984375-3-12.183594l20.214844-33.632812c.089843-.089844.089843-.175781.265625-.265625zm0 0"/><path d="m360.429688 346.214844-17.390626 29.039062c-1.578124 2.691406-4.472656 4.339844-7.589843 4.328125-1.582031-.015625-3.136719-.441406-4.503907-1.238281-4.191406-2.484375-5.574218-7.898438-3.089843-12.09375l17.65625-29.484375c.066406-.132813.15625-.25.265625-.351563zm0 0"/><path d="m397.328125 367.839844-9.53125 23.835937c-1.339844 3.359375-4.59375 5.5625-8.210937 5.5625-1.117188.007813-2.226563-.203125-3.265626-.621093-4.496093-1.839844-6.695312-6.941407-4.945312-11.472657l9.535156-23.835937c.175782-.441406.351563-.796875.53125-1.148438l.261719.175782c4.8125 3.253906 10.078125 5.78125 15.625 7.503906zm0 0"/></g><path d="m179.023438 308.429688-28.691407 29.925781c2.621094 3.574219 4.894531 7.386719 6.800781 11.386719l43.695313 93.75c.617187 1.292968.859375 2.726562.707031 4.148437-6.078125-.617187-12.199218-.617187-18.273437 0l-42.195313-90.480469c-2.449218-5.28125-5.757812-10.113281-9.800781-14.300781-10.03125-10.347656-23.8125-16.203125-38.222656-16.242187h-67.179688c-.355469.011718-.710937-.015626-1.058593-.089844l.265624-1.234375c.953126-4.972657 1.164063-10.0625.617188-15.097657l-.085938-1.234374h67.441407c16.519531.042968 32.503906 5.847656 45.195312 16.417968l27.898438-29.042968c6.742187-7.300782 15.121093-12.898438 24.449219-16.328126l56.058593-21.101562 11.03125 14.300781c-.699219.546875-1.472656.992188-2.292969 1.324219l-58.617187 21.980469c-6.785156 2.492187-12.871094 6.578125-17.742187 11.917969zm0 0" fill="#e85841"/></svg>