<svg id="Capa_1" enable-background="new 0 0 512 512" height="512" viewBox="0 0 512 512" width="512" xmlns="http://www.w3.org/2000/svg"><g><path d="m337.73 143.74c2.37-4.74 3.604-9.966 3.604-15.265v-16.942c0-5.706-2.852-11.035-7.6-14.201l-39.8-26.533c-2.374-1.583-3.8-4.247-3.8-7.1v-38.099h-68.267v38.1c0 2.853-1.426 5.517-3.8 7.1l-39.8 26.533c-4.748 3.165-7.6 8.494-7.6 14.201v16.942c0 5.299 1.234 10.525 3.604 15.265l4.93 9.86v102.399l-4.93 9.86c-2.37 4.74-3.604 9.966-3.604 15.265v1.283l3.563 7.612-3.293 7.841c.693 7.864 2.834 15.547 6.379 22.637.57 1.14 1.09 2.299 1.588 3.465l5.07 7.699-.581 8.646c1.048 7.829.637 15.844-1.308 23.627l-2.086 8.343 1.113 7.714-4.876 7.339-3.529 14.117c-1.354 5.415-2.038 10.975-2.038 16.557v.939l2.627 7.836-2.627 8.208v35.153l3.948 9.263-3.059 6.189c3.5 15.128 17.049 26.407 33.242 26.407h102.4c16.193 0 29.742-11.279 33.244-26.407l-4.38-7.726 5.269-7.726v-35.153l-3.673-8.428 3.673-7.616v-.94c0-5.582-.685-11.142-2.038-16.557l-3.529-14.117-6.032-7.724 2.269-7.328-2.086-8.344c-1.946-7.782-2.356-15.798-1.309-23.626l-.415-8.592 4.904-7.752c.498-1.167 1.018-2.326 1.588-3.467 3.545-7.09 5.686-14.774 6.379-22.637l-2.412-8.915 2.682-6.538v-1.283c0-5.299-1.234-10.525-3.604-15.265l-4.93-9.859v-102.4z" fill="#d0f0fc"/><path d="m340.444 485.593-4.38-7.726 5.269-7.726v-35.153l-3.673-8.428 3.673-7.616v-.94c0-5.581-.685-11.142-2.038-16.557l-3.529-14.117-6.032-7.724 2.269-7.328-2.086-8.344c-1.946-7.782-2.356-15.798-1.309-23.626l-.415-8.592 4.904-7.752c.498-1.167 1.018-2.326 1.588-3.467 3.545-7.09 5.686-14.774 6.379-22.637l-2.412-8.915 2.682-6.538v-1.283c0-5.299-1.234-10.525-3.604-15.265l-4.93-9.859v-102.4l4.93-9.86c2.37-4.74 3.604-9.966 3.604-15.265v-16.942c0-5.706-2.852-11.035-7.6-14.201l-39.8-26.533c-2.374-1.583-3.8-4.247-3.8-7.1v-38.099h-23.694v38.1c0 2.853 1.426 5.517 3.8 7.1l39.8 26.533c4.748 3.165 7.6 8.494 7.6 14.201v16.942c0 5.299-1.234 10.525-3.604 15.265l-4.93 9.86v102.399l4.93 9.86c2.37 4.74 3.604 9.966 3.604 15.265v11.209c0 9.777-2.276 19.419-6.648 28.163-6.723 13.446-8.414 28.853-4.768 43.437l9.378 37.513c1.354 5.415 2.038 10.976 2.038 16.557v59.863c0 18.851-15.282 34.133-34.133 34.133h23.693c16.193 0 29.742-11.279 33.244-26.407z" fill="#9bd8f9"/><path d="m290.717 0h-69.434c-9.103 0-16.483 7.38-16.483 16.483v26.476c0 4.552 3.69 8.242 8.241 8.242h18.166l7.726-2.153 7.726 2.153h18.68l7.859-2.153 7.594 2.153h18.166c4.552 0 8.241-3.69 8.241-8.242v-26.476c.001-9.103-7.379-16.483-16.482-16.483z" fill="#edf8fc"/><path d="m341.333 161.842c0-4.552-3.69-8.242-8.241-8.242h-154.184c-4.551 0-8.241 3.69-8.241 8.242v25.892l17.067 17.067-17.067 17.067v25.892c0 4.552 3.69 8.241 8.241 8.241h131.487l5.22-1.018 17.183 1.017h.294c4.552 0 8.241-3.69 8.241-8.241v-25.892l-11.847-17.067 11.847-17.067z" fill="#73c3f9"/><ellipse cx="256" cy="204.8" fill="#fff" rx="17.067" ry="17.067" transform="matrix(.707 -.707 .707 .707 -69.835 241.004)"/><path d="m290.717 0h-23.694c9.103 0 16.483 7.38 16.483 16.483v26.476c0 4.552-3.69 8.242-8.241 8.242h23.694c4.552 0 8.241-3.69 8.241-8.242v-26.476c0-9.103-7.38-16.483-16.483-16.483z" fill="#d0f0fc"/><path d="m246.66 51.2v-17.067c0-4.267-3.459-7.726-7.726-7.726-4.268 0-7.726 3.459-7.726 7.726v17.067z" fill="#d0f0fc"/><path d="m280.793 51.2v-17.067c0-4.267-3.459-7.726-7.726-7.726-4.268 0-7.726 3.459-7.726 7.726v17.067z" fill="#d0f0fc"/><path d="m341.333 187.733v-25.892c0-4.552-3.69-8.241-8.241-8.241h-23.694c4.552 0 8.241 3.69 8.241 8.241v85.917c0 4.552-3.69 8.241-8.241 8.241h23.694c4.552 0 8.241-3.69 8.241-8.241v-25.892l-11.847-17.066z" fill="#1e9ef4"/><path d="m170.667 187.733h17.067c9.426 0 17.067 7.641 17.067 17.067s-7.641 17.067-17.067 17.067h-17.067z" fill="#edf8fc"/><path d="m341.333 221.867h-17.067c-9.426 0-17.067-7.641-17.067-17.067s7.641-17.067 17.067-17.067h17.067z" fill="#edf8fc"/><path d="m317.639 189.069v31.462c2.038.859 4.277 1.335 6.628 1.335h17.067v-34.133h-17.067c-2.351 0-4.59.476-6.628 1.336z" fill="#d0f0fc"/><g fill="#edf8fc"><path d="m170.667 282.407v9.927c0 1.85.108 3.691.27 5.526h170.128c.162-1.835.269-3.676.269-5.526v-9.927z"/><path d="m328.608 340.308c.749-5.597 2.25-11.095 4.489-16.345-1.713-.613-3.646-.635-5.467.093l-19.156 7.662c-6.325 2.53-13.292 2.529-19.615 0l-17.313-6.925c-10.024-4.01-21.068-4.01-31.092 0l-17.313 6.925c-6.325 2.53-13.292 2.529-19.615 0l-19.155-7.662c-1.822-.729-3.755-.708-5.469-.094 2.239 5.25 3.74 10.748 4.489 16.345l14.396 5.758c10.024 4.01 21.067 4.011 31.091 0l17.313-6.925c6.325-2.529 13.291-2.529 19.616 0l17.313 6.925c5.013 2.005 10.279 3.008 15.546 3.008 5.266 0 10.533-1.003 15.545-3.007z"/><path d="m335.766 387.33-3.763-15.053c-.335.084-.668.183-.998.314l-22.531 9.012c-6.325 2.529-13.29 2.53-19.615 0l-17.313-6.925c-10.024-4.01-21.068-4.01-31.092 0l-17.313 6.925c-6.323 2.529-13.29 2.53-19.615 0l-22.531-9.012c-.329-.132-.663-.23-.997-.315l-3.763 15.053 21.554 8.62c10.025 4.011 21.068 4.01 31.091 0l17.313-6.925c6.326-2.529 13.29-2.529 19.616 0l17.313 6.925c5.012 2.005 10.279 3.008 15.545 3.008 5.268 0 10.534-1.003 15.546-3.008z"/><path d="m341.333 434.988v-16.044c-.956 0-1.928.172-2.87.549l-29.99 11.996c-6.325 2.53-13.292 2.529-19.615 0l-17.313-6.926c-10.024-4.009-21.068-4.01-31.092.001l-17.313 6.925c-6.325 2.529-13.29 2.53-19.615 0l-29.99-11.996c-.942-.377-1.913-.55-2.87-.55v16.044l27.121 10.848c10.024 4.01 21.067 4.011 31.091 0l17.313-6.925c6.326-2.529 13.29-2.529 19.616 0l17.313 6.925c5.012 2.005 10.279 3.008 15.546 3.008s10.533-1.003 15.545-3.008z"/><path d="m340.444 485.593c.575-2.484.889-5.068.889-7.726v-7.726s0 0-.001 0h-170.665v7.726c0 2.659.314 5.243.889 7.726z"/></g></g></svg>