<svg id="Capa_1" enable-background="new 0 0 512.147 512.147" height="512" viewBox="0 0 512.147 512.147" width="512" xmlns="http://www.w3.org/2000/svg"><g><path d="m207.532 512.143h-170.967v-19.167c0-47.211 38.272-85.483 85.483-85.483 47.211 0 85.483 38.272 85.483 85.483v19.167z" fill="#fee45a"/><path d="m207.532 492.973v19.174h-20.54v-19.174c0-23.611-9.572-44.973-25.039-60.44-13.187-13.187-30.677-22.091-50.18-24.422 3.369-.411 6.799-.616 10.27-.616 23.601 0 44.983 9.572 60.45 25.039 15.468 15.466 25.039 36.828 25.039 60.439z" fill="#fed402"/><g><g><g><path d="m87.16 473.986v38.154h-15.405v-38.154c0-4.262 3.451-7.703 7.703-7.703 4.262 0 7.702 3.44 7.702 7.703z" fill="#fac600"/></g></g><g><g><path d="m172.341 473.986v38.154h-15.405v-38.154c0-4.262 3.451-7.703 7.703-7.703 4.251 0 7.702 3.44 7.702 7.703z" fill="#fac600"/></g></g></g><path d="m354.067 29.068c-8.368-16.477-25.24-27.816-43.727-28.963-25.774-1.6-47.874 15.318-54.266 38.72-6.392-23.402-28.492-40.32-54.266-38.72-18.487 1.147-35.359 12.486-43.727 28.963-15.527 30.574-4.73 64.053 20.455 85.239 0 0 57.702 48.557 73.552 61.895 2.31 1.944 5.661 1.944 7.972 0 15.85-13.338 73.551-61.895 73.552-61.895 25.185-21.186 35.981-54.665 20.455-85.239z" fill="#ee6161"/><path d="m301.611 297.476v66.828c0 33.105 26.592 59.942 59.395 59.942h59.95c32.803 0 59.395-26.837 59.395-59.942v-66.828z" fill="#c86d36"/><path d="m480.353 297.481v66.828c0 33.101-26.589 59.937-59.392 59.937h-20.982c32.803 0 59.392-26.836 59.392-59.937v-66.828z" fill="#ac5e2e"/><path d="m476.466 512.143h-170.967v-19.167c0-47.211 38.272-85.483 85.483-85.483 47.211 0 85.483 38.272 85.483 85.483v19.167z" fill="#8ac9fe"/><path d="m476.471 492.973v19.174h-20.54v-19.174c0-23.611-9.572-44.973-25.039-60.44-13.187-13.187-30.677-22.091-50.18-24.422 3.369-.411 6.799-.616 10.27-.616 23.601 0 44.983 9.572 60.45 25.039 15.467 15.466 25.039 36.828 25.039 60.439z" fill="#60b7ff"/><g><g><g><path d="m356.095 473.986v38.154h-15.405v-38.154c0-4.262 3.451-7.703 7.703-7.703 4.261 0 7.702 3.44 7.702 7.703z" fill="#26a6fe"/></g></g><g><g><path d="m441.275 473.986v38.154h-15.405v-38.154c0-4.262 3.44-7.703 7.703-7.703 4.251 0 7.702 3.44 7.702 7.703z" fill="#26a6fe"/></g></g></g><g><path d="m122.049 435.65c-9.325 0-16.885-7.56-16.885-16.885v-39.432h33.769v39.432c.001 9.326-7.559 16.885-16.884 16.885z" fill="#d88a55"/><path d="m138.934 379.334v39.427c0 9.325-7.559 16.894-16.884 16.894-3.081 0-5.957-.822-8.442-2.27 5.053-2.917 8.442-8.38 8.442-14.625v-39.427h16.884z" fill="#c57a44"/></g><g><g><path d="m39.294 320.812h-15c-12.829 0-23.229-10.4-23.229-23.229v-.213c0-12.829 10.4-23.229 23.229-23.229h15.001v46.671z" fill="#d88a55"/><path d="m204.804 320.812h15.001c12.829 0 23.229-10.4 23.229-23.229v-.213c0-12.829-10.4-23.229-23.229-23.229h-15.001z" fill="#d88a55"/><g><path d="m243.033 297.369v.213c0 12.821-10.397 23.229-23.229 23.229h-14.998v-.374c10.867-1.943 19.108-11.444 19.108-22.855v-.213c0-11.422-8.241-20.923-19.108-22.855v-.374h14.998c12.832.001 23.229 10.398 23.229 23.229z" fill="#c57a44"/></g></g><path d="m122.047 395.504c-49.358 0-89.37-40.381-89.37-90.193v-65.455l89.37-37.103 89.37 37.103v65.455c0 49.813-40.012 90.193-89.37 90.193z" fill="#d88a55"/><path d="m211.419 239.855v65.452c0 49.82-40.012 90.203-89.371 90.203-3.553 0-7.045-.205-10.486-.627 44.418-5.227 78.885-43.34 78.885-89.576v-74.161z" fill="#c57a44"/><g><g><g><path d="m101.078 306.324c-2.911 0-5.696-1.658-6.997-4.473-1.362-2.947-4.307-4.85-7.504-4.85-3.131 0-6.065 1.927-7.474 4.909-1.818 3.847-6.41 5.491-10.255 3.674-3.846-1.817-5.492-6.408-3.674-10.255 3.942-8.343 12.343-13.734 21.403-13.734 9.181 0 17.615 5.414 21.488 13.792 1.785 3.862.101 8.439-3.761 10.224-1.046.484-2.145.713-3.226.713z" fill="#5a5a5a"/></g></g><g><g><path d="m171.964 306.324c-2.911 0-5.695-1.657-6.997-4.473-1.362-2.947-4.308-4.851-7.504-4.851-3.132 0-6.065 1.927-7.473 4.908-1.816 3.847-6.409 5.494-10.255 3.675-3.847-1.817-5.492-6.408-3.675-10.255 3.941-8.344 12.342-13.734 21.403-13.734 9.18 0 17.615 5.414 21.487 13.792 1.785 3.861.102 8.439-3.76 10.224-1.045.485-2.145.714-3.226.714z" fill="#5a5a5a"/></g></g></g><path d="m122.049 140.149h-.002c-49.358 0-89.37 40.381-89.37 90.193v51.008s15.473-19.716 24.334-35.798c1.721-3.124 4.964-5.079 8.505-5.079h113.064c3.541 0 6.784 1.955 8.505 5.079 8.861 16.082 24.334 35.798 24.334 35.798v-51.008c0-49.812-40.012-90.193-89.37-90.193z" fill="#5a5a5a"/><path d="m211.419 230.345v51.002s-12.057-15.354-20.972-30.02v-20.982c0-46.226-34.467-84.338-78.885-89.566 3.44-.421 6.932-.626 10.486-.626 49.359-.001 89.371 40.381 89.371 90.192z" fill="#444"/><g><g><path d="m122.095 356.164c-12.903 0-24.76-7.615-30.207-19.4-1.785-3.861-.101-8.439 3.761-10.224 3.864-1.783 8.439-.101 10.224 3.761 2.936 6.353 9.304 10.458 16.223 10.458 6.798 0 13.141-4.128 16.159-10.516 1.817-3.846 6.408-5.491 10.255-3.674 3.846 1.817 5.492 6.408 3.674 10.255-5.551 11.749-17.361 19.34-30.089 19.34z" fill="#5a5a5a"/></g></g></g><path d="m390.983 435.65c-9.325 0-16.885-7.56-16.885-16.885v-39.432h33.769v39.432c.001 9.326-7.559 16.885-16.884 16.885z" fill="#ffcebf"/><path d="m407.866 379.334v39.427c0 9.325-7.559 16.894-16.884 16.894-3.081 0-5.957-.822-8.442-2.27 5.053-2.917 8.442-8.38 8.442-14.625v-39.427h16.884z" fill="#ffb09e"/><g><path d="m474.303 319.927h14.432c12.342 0 22.348-10.006 22.348-22.348v-.205c0-12.342-10.006-22.348-22.348-22.348h-14.432z" fill="#ffcebf"/></g><g><path d="m511.081 297.378v.205c0 12.334-10.003 22.348-22.348 22.348h-14.43v-.359c10.455-1.869 18.384-11.01 18.384-21.988v-.205c0-10.989-7.929-20.129-18.384-21.988v-.36h14.43c12.345-.001 22.348 10.002 22.348 22.347z" fill="#ffb09e"/></g><g><path d="m307.66 319.927h-14.432c-12.342 0-22.348-10.006-22.348-22.348v-.205c0-12.342 10.006-22.348 22.348-22.348h14.432z" fill="#ffcebf"/></g><g><path d="m390.981 395.504c-49.358 0-89.37-40.381-89.37-90.193v-40.405l89.37-62.153 89.37 62.153v40.405c0 49.813-40.012 90.193-89.37 90.193z" fill="#ffcebf"/></g><path d="m480.353 264.904v40.403c0 49.82-40.013 90.203-89.371 90.203-3.553 0-7.045-.205-10.486-.627 44.418-5.238 78.875-43.34 78.875-89.576v-54.997z" fill="#ffb09e"/><g><g><path d="m391.029 363.629c-12.903 0-24.76-7.615-30.207-19.399-1.785-3.861-.102-8.439 3.76-10.224 3.863-1.785 8.439-.101 10.223 3.76 2.937 6.353 9.305 10.458 16.224 10.458 6.798 0 13.141-4.128 16.158-10.516 1.817-3.847 6.408-5.492 10.254-3.675s5.492 6.408 3.675 10.255c-5.549 11.748-17.359 19.341-30.087 19.341z" fill="#c86d36"/></g></g><path d="m301.611 279.524s46.233-10.444 57.598-48.486c.671-2.246 3.735-2.435 4.663-.285 6.707 15.536 30.697 57.012 116.479 51.794v-40.845c0-49.812-40.012-90.193-89.37-90.193-49.358 0-89.37 40.381-89.37 90.193z" fill="#c86d36"/><path d="m480.353 241.703v40.844c-7.446.452-14.429.555-20.982.349v-41.194c0-46.226-34.456-84.328-78.875-89.566 3.44-.421 6.932-.627 10.486-.627 49.358.002 89.371 40.384 89.371 90.194z" fill="#ac5e2e"/><g><g><g><path d="m370.01 322.196c-2.911 0-5.696-1.658-6.998-4.474-1.361-2.946-4.307-4.85-7.503-4.85-3.131 0-6.065 1.927-7.474 4.909-1.816 3.847-6.406 5.492-10.254 3.675-3.846-1.817-5.492-6.408-3.675-10.255 3.941-8.343 12.342-13.735 21.403-13.735 9.181 0 17.616 5.414 21.488 13.793 1.784 3.861.1 8.439-3.761 10.223-1.046.485-2.145.714-3.226.714z" fill="#c86d36"/></g></g><g><path d="m440.896 322.196c-2.911 0-5.696-1.658-6.998-4.474-1.361-2.946-4.307-4.85-7.503-4.85-3.131 0-6.065 1.927-7.474 4.91-1.817 3.847-6.411 5.489-10.255 3.674-3.846-1.818-5.491-6.409-3.674-10.255 3.943-8.343 12.343-13.734 21.403-13.734 9.181 0 17.616 5.414 21.488 13.793 1.784 3.861.1 8.439-3.761 10.223-1.046.484-2.145.713-3.226.713z" fill="#c86d36"/></g></g><path d="m333.613 114.302s-57.708 48.557-73.555 61.898c-2.311 1.941-5.659 1.941-7.97 0-2.763-2.321-6.799-5.721-11.585-9.746 17.11-14.399 72.569-61.066 72.569-61.066 25.182-21.187 35.976-54.668 20.458-85.242-3.903-7.682-9.654-14.245-16.555-19.185 15.816 3.112 29.742 13.629 37.096 28.109 15.519 30.575 4.725 64.055-20.458 85.232z" fill="#e94444"/></g></svg>