<svg id="Layer_3" enable-background="new 0 0 64 64" height="512" viewBox="0 0 64 64" width="512" xmlns="http://www.w3.org/2000/svg"><g><circle cx="14" cy="14" fill="#7dbd83" r="12"/><path d="m21.971 5.047c-2.121-1.889-4.907-3.047-7.971-3.047-6.627 0-12 5.373-12 12 0 3.439 1.454 6.531 3.772 8.719 9.023-1.449 15.924-8.763 16.199-17.672z" fill="#97ca9c"/><path d="m30 18h24v34h-24z" fill="#eceaec"/><path d="m30 18v21.985c.167.004.332.015.5.015 11.369 0 20.852-9.448 23.029-22z" fill="#f4f2f4"/><path d="m50.402 48.63-5.354-4.589-3.715 7.959h-26.666l-3.714-7.959-5.355 4.589c-1.014.87-1.598 2.139-1.598 3.475h48c0-1.336-.584-2.605-1.598-3.475z" fill="#eecbae"/><path d="m20.5 52-1.5-15h18l-1.5 15z" fill="#aa7f5a"/><g fill="#e2a978"><path d="m19 39-9 3 4.667 10h5.833l-1.3-13z"/><path d="m37 39h-.2l-1.3 13h5.833l4.667-10z"/></g><path d="m2 52h60v4h-60z" fill="#dad8db"/><path d="m4 56 5 6h46l5-6z" fill="#eceaec"/><path d="m54 42h2c1.105 0 2-.895 2-2v-10c0-1.105-.895-2-2-2h-2v-4h2c3.314 0 6 2.686 6 6v10c0 3.314-2.686 6-6 6h-2z" fill="#dad8db"/><g><path d="m46.707 12.707-1.414-1.414 1.293-1.293c.263-.263.414-.628.414-1s-.151-.737-.414-1l-.586-.586c-.645-.644-1-1.502-1-2.414s.355-1.77 1-2.414l1.293-1.293 1.414 1.414-1.293 1.293c-.263.263-.414.628-.414 1s.151.737.414 1l.586.586c.645.644 1 1.502 1 2.414s-.355 1.77-1 2.414z" fill="#a3a2a4"/></g><g><path d="m41.707 12.707-1.414-1.414 1.293-1.293c.263-.263.414-.628.414-1s-.151-.737-.414-1l-.586-.586c-.645-.644-1-1.502-1-2.414s.355-1.77 1-2.414l1.293-1.293 1.414 1.414-1.293 1.293c-.263.263-.414.628-.414 1s.151.737.414 1l.586.586c.645.644 1 1.502 1 2.414s-.355 1.77-1 2.414z" fill="#a3a2a4"/></g><g><path d="m36.707 12.707-1.414-1.414 1.293-1.293c.263-.263.414-.628.414-1s-.151-.737-.414-1l-.586-.586c-.645-.644-1-1.502-1-2.414s.355-1.77 1-2.414l1.293-1.293 1.414 1.414-1.293 1.293c-.263.263-.414.628-.414 1s.151.737.414 1l.586.586c.645.644 1 1.502 1 2.414s-.355 1.77-1 2.414z" fill="#a3a2a4"/></g><g><path d="m30 23h24v2h-24z" fill="#dad8db"/></g><g fill="#edf4ff"><path d="m12.946 2.053.054 3.961 2-.027-.054-3.939c-.313-.025-.627-.048-.946-.048-.356 0-.706.023-1.054.053z"/><path d="m13 25.95c.331.027.662.05 1 .05s.669-.023 1-.05v-3.95h-2z"/><path d="m2 14c0 .338.023.669.05 1h3.95v-2h-3.95c-.027.331-.05.662-.05 1z"/><path d="m22 15h3.95c.027-.331.05-.662.05-1s-.023-.669-.05-1h-3.95z"/><path d="m21.745 4.841-2.452 2.452 1.414 1.414 2.452-2.452c-.432-.509-.905-.982-1.414-1.414z"/><path d="m4.841 21.745c.431.51.904.983 1.414 1.414l2.452-2.452-1.414-1.414z"/><path d="m4.841 6.255 2.452 2.452 1.414-1.414-2.452-2.452c-.509.432-.982.905-1.414 1.414z"/><path d="m23.159 21.745-2.452-2.452-1.414 1.414 2.452 2.452c.509-.432.982-.905 1.414-1.414z"/></g><g><path d="m10.707 18.707-1.414-1.414 3.707-3.707v-5.586h2v6c0 .265-.105.52-.293.707z" fill="#edf4ff"/></g></g></svg>