<svg id="Layer_1" enable-background="new 0 0 102 102" height="512" viewBox="0 0 102 102" width="512" xmlns="http://www.w3.org/2000/svg"><g id="_x35_2"><g><g><g><g><path d="m98.9966736 23.8683605c.195015 6.604475-8.1452942 24.7230434-37.0813675 37.5992661-8.4453316 3.7535706-16.0956764 6.9370117-23.0259361 9.3601608-.4650116.1741943-.9450417.3167725-1.4100571.4751129h-.0449524c-.4500008.110878-.9000893.1584396-1.3800278.1584396-1.4400902 0-3.1201439-.2534637-4.9802017-1.013649-1.260088-.5226822-2.8351307-1.1719894-4.6202011-1.9322739-8.7303448-3.7218684-22.0958147-10.2312259-23.1909189-18.3086146-.5849526-4.1653748-.5550139-12.020916 3.9902034-15.9486847.809998-.5385323 1.680057-1.013649 2.5800548-1.4887657 0 0 .0150156-.0317078.0450459-.0950241.5700293-1.3145733 7.0502872-15.172739 25.0658989-13.9848976 0 0 9.4504318-12.3693991 26.1160469-9.5661554 0 0 12.2704582-7.2695441 23.6108894-3.4209447.7949829.269217 1.5450058.5542879 2.2500839.8552117 2.4601135 1.0612092 4.4402008 2.3123693 6.0302582 3.7061119 0 0 .0149231.0158539.0449524.0317068 4.51519 3.975233 5.8652801 9.0275287 6.0002288 13.5729999z" fill="#ffb961"/></g><g><path d="m97.1965866 17.3115406s-1.3050385 14.269968-1.5149765 14.3491383c-.2250443.0791702-9.9754181 9.9937134-9.9754181 9.9937134s-10.4853897 7.7922211-10.9954453 7.8713913c-.5099716.0791702-23.4308891 14.3491402-24.6459312 14.950985-1.2300568.6177063-15.4056168.5385361-15.8405991.4593658-.4349861-.0792694 0-20.8268852 0-20.8268852 8.5193977 3.5925293 12.660305-2.8790016 12.7504845-7.14291 8.1031837 4.9165268 16.3451271-1.1928177 11.5354462-7.3171043l11.8804245-7.364666c6.7305527 3.4668236 14.5448151-.8305206 9.1504059-7.1428127l5.1451874-5.7650204c2.7960968 1.8165188 4.5137711-.538311 2.2350693-2.8191938 2.4601135 1.0612092 4.4402008 2.3123693 6.0302582 3.7061119 0 0 .0149231.0158539.0449524.0317068l1.5750427 1.8688612z" fill="#f3a250"/></g><g><path d="m98.9964066 23.8623924c.1958618 6.6177959-8.1449585 24.7304535-37.0848885 37.6039925-8.4388504 3.7569351-16.0941505 6.9452362-23.0149155 9.3578949-.47332.1724014-.94664.327446-1.4200592.4825974h-.0489159c-.4407425.1034012-.8978195.1550446-1.3711395.1550446-1.4363976 0-3.1175728-.2584457-4.9783726-1.0167313-1.2568703-.5169907-2.8401146-1.1718826-4.6193218-1.9301682 5.4027748-1.4304276 10.7625771-3.4733887 16.8110962-5.3677483 18.5476532-5.809021 36.9440308-16.4873886 46.3784409-26.7932243 11.8828964-12.9769382 3.8637085-25.2790489 3.3413696-26.0545883 4.5213928 3.9637355 5.8760987 9.0304546 6.0067063 13.562931z" fill="#e08f46"/></g><g><path d="m94.4097595 27.1540928c-9.1732864-10.3229828-20.3216476-16.2169914-33.3470459-18.0265112 0 0 8.3898392-4.3256803 19.1137924-1.2580276 5.6638947 1.5854726 10.5606689 5.5837083 12.7805176 11.322567.8651428 2.1886106 1.4363938 4.8426709 1.4527359 7.9619718z" fill="#f3a250"/></g><g><path d="m93.2617798 24.4396553c-7.9054642-8.1548824-17.3650742-13.4099894-28.1931381-15.6660252 1.8665771-.5057354 4.3683701-.9693971 7.275032-.9693971 2.5607681 0 5.1103745.3576341 7.577095 1.0636439 5.6921844 1.5937824 10.111557 5.4982977 12.12957 10.7155371.5969544 1.5096341 1.0018311 3.1345521 1.2114411 4.8562413z" fill="#ffb961"/></g><g><path d="m92.3514328 22.6489067c-7.020256-6.7945223-15.2106018-11.4508705-24.4208832-13.8581657 1.4700241-.237608 2.9400558-.348484 4.41008-.348484 2.5201797 0 5.010231.348484 7.4253006 1.0295019 5.5052795 1.552084 9.7804031 5.3215132 11.7304611 10.357955.3600006.8869189.6450119 1.8372516.8550415 2.8191928z" fill="#ffde9b"/></g><g><path d="m61.0708046 9.1322308c3.4210014-1.6172481 7.2175255-2.420898 11.0129662-2.502502 1.8982239-.0139771 3.8086853.0994873 5.678009.47052 1.8646088.361084 3.7259827.8403931 5.4724121 1.6353145 3.4907837 1.5646973 6.5389862 4.1586304 8.5449524 7.4417725 2.001442 3.2896729 2.9415207 7.1551514 2.9284134 10.9751587l-.0026474.7713013-.5072785-.5758058c-4.2489929-4.822998-9.2789764-8.9616699-14.9031677-12.0838013-5.6274872-3.1152343-11.8421783-5.1540527-18.2236595-6.1319579 3.2034874.4019165 6.3807945 1.0602417 9.4764977 2.008606 3.0937958.9537354 6.0941315 2.2159424 8.9550629 3.7406616 5.7390137 3.038269 10.8088226 7.2529907 15.1315155 12.0789795l-.5097885.1954346c-.0247421-3.730896-.8899689-7.4917603-2.8214035-10.6882935-.9579926-1.5974731-2.1920319-3.0216675-3.5839233-4.2599487-1.4094849-1.2214355-2.9955139-2.2371826-4.6863098-3.0307007-1.690567-.802063-3.5084991-1.3010859-5.3456421-1.6870112-1.8377991-.3950195-3.7219696-.5361938-5.6001587-.5518799-3.7551881-.0107423-7.5528108.670288-11.0158502 2.1941523z" fill="#d6833e"/></g><g><path d="m85.3180618 38.0285645s-5.1253204 3.0848007-18.2649841-3.4639931c-13.1560059-6.5487938-18.1016998-13.8214779-32.106514-15.8722954 0 0 7.2961502-7.9619703 21.5131645-3.5501423 14.2333565 4.411829 26.9649544 17.7507115 28.8583336 22.8864308z" fill="#f3a250"/></g><g><path d="m81.3705139 37.7208977c-2.5966339 0-7.11483-.7102203-13.8989105-4.0913277-4.613842-2.2964268-8.1493416-4.6450253-11.5684814-6.9170494-5.6929817-3.7824993-10.6742401-7.0920811-18.5852814-8.6606178 1.9542503-1.346386 5.6077042-3.2077618 10.8695107-3.2077618 2.5472145 0 5.2378922.4342089 7.9955177 1.2900047 13.1808167 4.0854359 24.9429626 15.9866314 27.7770996 21.300642-.5682602.1438981-1.4226456.28611-2.5894547.28611z" fill="#ffb961"/></g><g><path d="m82.3310623 36.649559c-.2850113.0158539-.6150742.0317078-.9600601.0317078-2.4900513 0-6.8552704-.6810188-13.4854965-3.9911804-4.5601425-2.2648106-8.0703163-4.5929356-11.4604607-6.8577442-5.160202-3.4210415-9.7053261-6.4460392-16.3356476-8.2040234 1.9951019-.9503326 4.6951866-1.7422276 8.1003456-1.7422276 2.4451027 0 5.0551872.4118004 7.7103157 1.2354031 11.8804283 3.6901627 22.6208916 13.7947521 26.4159889 19.51231.0150147.0157547.0150147.0157547.0150147.0157547z" fill="#ffde9b"/></g><g><path d="m34.9507942 18.6903362c1.7836151-1.7929077 4.0608978-3.0319214 6.4381561-3.8712769 2.3881683-.8380127 4.9389191-1.2056274 7.4729462-1.1418457 2.536438.0737305 5.0476379.5274658 7.4837494 1.2283936 2.408432.7755127 4.7910461 1.6665039 7.0348663 2.843811 4.5432701 2.2496948 8.681118 5.2368164 12.5128899 8.5332642 1.9027252 1.6690063 3.7092133 3.4485474 5.3933258 5.3433838 1.6550293 1.9138813 3.2814331 3.894228 4.3034821 6.3059711l.1036224.2445679-.2288208.1105347c-1.1519775.5563965-2.3139191.6813354-3.4914093.7421875-1.1751404.0604858-2.3385773-.0734863-3.4920044-.2241211-2.2982788-.3708496-4.535202-1.0252075-6.6926727-1.8587036-4.3090668-1.6884766-8.3845482-3.9019775-12.2608147-6.3916645-3.8940277-2.4648438-7.5885162-5.2200317-11.6100006-7.4344482-2.0104218-1.1031494-4.1084747-2.0449829-6.2784271-2.7947998-2.1708069-.7560425-4.4249268-1.2347413-6.6888886-1.635254 2.270752.3543701 4.5387878.7877197 6.732666 1.5021362 2.1927338.7080688 4.3225708 1.6124268 6.3673859 2.6811523 4.0801239 2.1671753 7.8077087 4.8973389 11.7150726 7.3033447 3.8944397 2.4223652 7.9494743 4.6129169 12.2142906 6.2660542 2.1347198.8157959 4.3403778 1.4500732 6.5857697 1.803833 1.1241913.1421509 2.2577057.2684326 3.384079.2052612 1.1069794-.0487061 2.2836761-.2191162 3.2106781-.6713257l-.1251068.3547974c-.9656982-2.2386475-2.5578003-4.2429199-4.1855469-6.1264038-1.6569519-1.8784199-3.4408417-3.649477-5.3213501-5.3114643-3.7829437-3.2913818-7.8927612-6.2441406-12.363369-8.5254517-2.2103424-1.1922607-4.5576172-2.0994873-6.9327545-2.8947754-2.3996429-.7197266-4.8747559-1.1960449-7.3789978-1.2975464-2.5010376-.1090698-5.0301208.1993408-7.4161224.9837646-2.3750153.7851564-4.6681214 1.9709475-6.4866944 3.7266237z" fill="#d6833e"/></g><g><path d="m67.5688095 50.0595093s-9.1304855 8.5075417-25.5097313-3.5203438c-16.159914-11.8668213-22.8516502-17.1874085-32.2330112-13.7668648 0 0 9.3388348-10.9189835 21.4828472-7.5067406 12.1276741 3.4123478 18.8438988 20.7713738 36.2598953 24.7939492z" fill="#f3a250"/></g><g><path d="m58.5454865 52.0289726c-4.9330482 0-10.3070335-2.1096573-15.9725342-6.2701988l-1.7666702-1.2984314c-11.9784832-8.8075142-18.5763912-13.6594181-25.5581017-13.6594181-.7156038 0-1.4319401.0518131-2.1541357.1562138 2.800889-2.3053131 7.6467762-5.4017467 13.4609642-5.4017467 1.5161705 0 3.0382004.2111206 4.5221443.6279469 5.1945343 1.4623775 9.4984093 5.7335072 14.0549812 10.2551994 5.3805771 5.3398781 11.427681 11.3409615 20.1797256 13.9981384-1.4085015.7431754-3.6922807 1.5922965-6.7663735 1.5922965z" fill="#ffb961"/></g><g><path d="m62.6353035 50.5077286c-1.125042.3326302-2.4900551.5702362-4.0951271.5702362-4.7402344 0-9.9453888-2.0590057-15.4506645-6.0976524l-1.7700539-1.2987175c-11.6254463-8.5524101-18.2556725-13.4146595-25.1709156-13.810606 2.7451305-1.7896919 6.3301983-3.3576298 10.4104023-3.3576298 1.4399967 0 2.8800831.1900482 4.2901421.5859947 4.9651833 1.4095974 9.1953583 5.5907326 13.6655006 10.0254211 4.9052162 4.878006 10.425415 10.3579559 18.0756683 13.3671951.0300331.0157586.0450478.0157586.0450478.0157586z" fill="#ffde9b"/></g><g><path d="m9.8260679 32.7723083c.9463348-1.0673237 1.998703-2.0393085 3.1098785-2.9349384 1.1074524-.901123 2.2837982-1.7207031 3.5247793-2.4313965 2.4728394-1.427002 5.2044067-2.4674683 8.0639496-2.8214722 2.8551025-.3522949 5.801178.0227661 8.4800282 1.0864868 2.6882935 1.0575562 5.0688171 2.739563 7.2597809 4.5762939 4.3735657 3.7113667 8.1031647 8.069643 12.4985962 11.6757221 4.3026428 3.6984863 9.3678284 6.5202026 14.872448 7.847168l.5839996.1408081-.44841.3658447c-2.1742859 1.7738647-4.865963 2.6273193-7.5680504 2.8862305-2.7158051.2545776-5.4483032-.168396-8.0228729-.9765015-2.6082153-.7609253-4.9818268-2.0906372-7.3104706-3.4338379-1.1082611-.762146-2.2400208-1.4990845-3.3248444-2.2867432l-3.2246704-2.3934326c-4.3102264-3.1691284-8.5859852-6.4102783-13.2095203-9.0879517-2.3113708-1.3197021-4.7695313-2.4584961-7.4003601-2.9271851-2.6238852-.4894426-5.3648673-.189943-7.8842612.714905 2.5015106-.9489155 5.2503815-1.3021259 7.9084005-.8550434 2.6640778.4261494 5.1663208 1.5326557 7.5146179 2.8189106 4.6852875 2.6361084 8.9927082 5.8481445 13.3378925 8.9725952l3.2485809 2.3613892c1.0912933.7711792 2.2058868 1.4935303 3.3054199 2.2454224 2.3023682 1.3170166 4.6465149 2.6204834 7.2009583 3.3547974 2.5228729.7828369 5.1832886 1.1826782 7.8067474.9279175 2.5943451-.2440796 5.2315788-1.1229248 7.2176476-2.7559204l.1355591.5064087c-5.6165428-1.3449097-10.7626457-4.2632446-15.0919151-8.0038452-4.416153-3.6640015-8.1621246-8.0158691-12.4502411-11.7400532-2.1513519-1.840271-4.4774628-3.5152588-7.0965576-4.5756226-2.6081562-1.0662231-5.4946156-1.4650269-8.30443-1.1461182-2.8175964.2991943-5.5403595 1.2778931-8.0236359 2.6536865-1.2461081.6847534-2.432189 1.4802246-3.5523367 2.359436-1.1239928.8737793-2.1918487 1.8256226-3.1567077 2.8760395z" fill="#d6833e"/></g></g><g><path d="m43.6595421 62.9563942c-.0149231.3166809-.0449524.6493111-.0749855.9819412-.3149529 3.0249977-2.1600838 5.7016106-4.6951866 6.8894539-.4499969.2058945-.930027.3800888-1.4100571.4751129h-.0449524c-.4500008.110878-.9000893.1584396-1.3800278.1584396-1.4400902 0-3.1201439-.2534637-4.9802017-1.013649-1.260088-.5226822-2.8351307-1.1719894-4.6202011-1.9322739-8.7303448-3.7218703-22.0958147-10.2312278-23.1909189-18.3086165-.5849526-4.1653748-.5550139-12.020916 3.9902034-15.9486847.7500291-.6335526 1.6050725-1.1878433 2.6251006-1.5837898 2.1150398-.8394547 4.7551556-.2851677 8.2202835.6967735 5.2502003 1.5046234 9.7804031 4.0070381 13.7255611 7.5072479 5.4001713 4.7196655 12.5404568 11.3874588 11.8353825 22.0780449z" fill="#ffde9b"/></g><g><path d="m36.0541496 70.1946182c-1.5095787 0-3.039669-.3124313-4.5463161-.928772l-.5617905-.2327805c-1.1506786-.4763718-2.520359-1.0439987-4.0431213-1.6920547-14.158989-6.0366554-21.7127438-11.8621864-22.451786-17.313427-.677516-4.8209724-.1501522-11.5814705 3.5626359-14.7884903.7185335-.6078415 1.4670973-1.0602417 2.2786512-1.3749886.5676489-.2258148 1.2026834-.3333092 1.9497814-.3333092 1.4846764 0 3.2908974.4253349 5.5461102 1.0633354 5.0568333 1.4500046 9.3965988 3.8225975 13.2639351 7.2538834 5.857399 5.1194801 12.0458679 11.381176 11.4108353 21.0200272-.0161133.3224792-.0446777.6364517-.073246.9496536-.2644119 2.5373154-1.8296585 4.8410797-3.9874573 5.8518295-.3691521.1693573-.7221947.2930908-1.0422745.3665619l-.1999588.0332489c-.3442531.0850679-.6958271.1252824-1.1059986.1252824z" fill="#ffd06c"/></g><g opacity=".2"><path d="m55.2230453 31.9204941c-.0449562.5385323-.1050148 1.1086731-.4050446 1.5363274-.2549858.3642387-.6450157.6018486-1.0350456.791893-1.4100571.6810188-2.985096 1.0452614-4.5451241.9977989-.4050446 0-.8250122-.0475616-1.1700897-.221756-.5249825-.237606-.8999977-.7285767-1.2449799-1.1878433-1.0800896-1.3620338-2.2351646-2.6290493-3.4951591-3.8011341-.4950447-.4434109-1.0050125-.886919-1.5600281-1.2670135-.8550415-.5701408-8.6853905-3.8327465-9.6154175-4.228693-2.6700535-1.124527-1.470026-4.7513714.3000298-4.8939552 7.1702271-.6176052 19.9057884 7.4121265 20.8358154 8.0456829.7650452.5226765 1.4850426 1.2036953 1.7999954 2.1223202.2100336.6651648.180092 1.3937434.135048 2.1063727z" fill="#fff"/></g><g opacity=".2"><path d="m77.309227 18.8930855c-.1758804.2595806-.4840469.4494095-.7906342.6010227-1.1197586.5730877-2.4110184.934309-3.735527 1.0134659-.3318481.0356712-.6920319.031826-1.003624-.0590343-.4603577-.1232452-.8229141-.433176-1.156517-.7163258-1.0314407-.8380222-2.140419-1.6158867-3.3124695-2.3200893-.4545746-.2632027-.9241486-.5270977-1.4257431-.7414989-.7672119-.3285885-5.0690842-1.5979309-5.9014778-1.8020601-2.3493576-.5545244-1.7014618-3.1510563-.2073021-3.3371716 3.9998322-.5040283 14.8377609 3.1958227 15.6787491 3.5533361.6933517.2996597 1.3818817.7138767 1.7179489 1.3031158.2518463.4451313.2912369.9441986.316246 1.4297638.0301743.3584156.028862.7535877-.1796493 1.0754757z" fill="#fff"/></g><g opacity=".2"><path d="m81.2844467 5.5734439c.6845551.1363025 1.3634949.3020458 2.0422058.4677391.5757446.1405549 1.1531219.2816148 1.7087708.4939804.5719147.2185826 1.1457825.5380602 1.4667511 1.0835485.095932.1630344.1651382.3770041.0708847.5411248-.05896.1026573-.1680603.159236-.2731323.2051239-.9776001.4269438-2.1316376.377079-3.0729218-.1327772-.2208481-.1196222-.4305725-.2631264-.659874-.3634605-.3574295-.1564012-.7481232-.2020435-1.1234055-.3014331-.3208923-.0849824-.6309204-.2094564-.9433289-.3243732-1.449028-.5330043-2.9645538-.8640766-4.4949341-.9819331-.6070328-.0467482-1.2532425-.0640221-1.806366-.3642931-.2779236-.150877-.5766525-.38517-.2085571-.6293283.1936493-.1284442.4082336-.2000842.6365891-.1932111 1.3631821.0410304 2.7363052.0069122 4.0999756.1302314.8575898.0775533 1.7114869.2006431 2.5573426.3690615z" fill="#fff"/></g><g><path d="m82.3310623 36.6488609c-.2850113.0158539-.6150742.0317039-.9600601.0317039-2.4900513 0-6.8552704-.681015-13.4854965-3.9911804-4.5601425-2.2648087-8.0703163-4.5929356-11.4604607-6.8577442-5.160202-3.4210415-9.7053261-6.4460392-16.3356476-8.2040234 0 0 9.1884003-3.4995079 24.9759941 8.6474342 9.7090836 7.4701538 17.0256119 10.1837616 17.2506561 10.3580513.0150147.0157586.0150147.0157586.0150147.0157586z" fill="#ffd06c"/></g><g><path d="m62.6353035 50.5077286c-1.125042.3326302-2.4900551.5702362-4.0951271.5702362-4.7402344 0-9.9453888-2.0590057-15.4506645-6.0976524l-1.7700539-1.2987175c-11.6254463-8.5524101-18.2556725-13.4146595-25.1709156-13.810606 0 0 11.6799412-3.0939484 21.9600582 7.2445965 10.2591362 10.31744 23.6566429 13.202095 24.4816551 13.3763847.0300331.0157585.0450478.0157585.0450478.0157585z" fill="#ffd06c"/></g><g><path d="m92.3514328 22.6489067c-7.020256-6.7945223-15.2106018-11.4508705-24.4208832-13.8581657 0 0 15.7205734-.3167782 24.4208832 13.8581657z" fill="#ffd06c"/></g><g><g><g><g><path d="m81.6098862 46.3993835c-.1315536-.4361343-.3080292-.7492638-.4881973-1.0751915-.196022-.3155327-.3835831-.6209145-.6971436-.9380455-.0998764.4502411.0267029.880619.2305603 1.2442856.2197266.3532677.5291366.6631623.9547806.7689514z" fill="#e28e42"/></g></g><g><g><path d="m67.0552139 35.8344307c-.4334106.0101509-.7677383.1005211-1.1147385.1910133-.3420258.1094971-.6724396.2132759-1.0490952.4413795.3809052.228241.8076859.2215004 1.1956635.1176529.3830033-.1228446.751915-.3487777.9681702-.7500457z" fill="#e28e42"/></g></g><g><g><path d="m75.4087753 40.616787c-.2809296-.4763947-.5801315-.7923164-.887352-1.122261-.3231201-.312542-.6332703-.6157379-1.0965195-.8927574.0099182.5668602.2833023 1.038002.6294785 1.4052505.3620682.3498496.8183213.6195945 1.354393.6097679z" fill="#e28e42"/></g></g><g><g><path d="m82.098671 41.388958c-.6754608-.0917931-1.2722855-.0864334-1.8826752-.1127968-.610878-.0033684-1.2064514-.0363922-1.8855362.0258217.5388031.4488945 1.2111359.6244278 1.871521.6503906.6608734.0029869 1.3394089-.1414986 1.8966904-.5634155z" fill="#e28e42"/></g></g><g><g><path d="m69.7634888 47.2095718c-.2699585-.358139-.540451-.5844421-.8186798-.8213272-.289566-.2212029-.5677872-.4361115-.96772-.6146431.0584412.4582939.3218079.8129234.6349182 1.0761681.3244323.2475662.718048.4209022 1.1514816.3598022z" fill="#e28e42"/></g></g><g><g><path d="m76.6846771 46.234005c-.4196243-.1150322-.7646484-.1243439-1.1218796-.1372032-.3573608.0068626-.7020798.01157-1.1233902.1225548.3075256.3292618.7198792.4456711 1.1199951.4574738.4002457-.007908.8135529-.1190416 1.1252747-.4428254z" fill="#e28e42"/></g></g><g><g><path d="m62.6993027 34.0008354c-.5542831-.1438751-1.0086365-.1499138-1.4791527-.1603813-.4703407.0154839-.9240685.0278931-1.4769325.181633.4101639.4279633.9549294.5737801 1.4818611.5820961.5267639-.0176239 1.0690765-.1714096 1.4742241-.6033478z" fill="#e28e42"/></g></g><g><g><path d="m70.8290482 39.2588577c-.2232971-.5161247-.4845886-.8738174-.7522202-1.2466927-.285675-.3575783-.5595016-.7039986-.9900742-1.0451164-.0595627.5697823.1568222 1.0796204.4589233 1.4952164.3201524.4003067.7445908.7331734 1.2833711.7965927z" fill="#e28e42"/></g></g><g><g><path d="m65.4966125 41.9355583c-.2699585-.3581467-.5404358-.5844498-.8186874-.8213348-.2895584-.2212029-.5677719-.4361115-.9677086-.6146431.0584297.4582939.3218117.8129234.634922 1.0761681.3244172.2475662.7180329.4209022 1.151474.3598098z" fill="#e28e42"/></g></g><g><g><path d="m34.7523384 24.911623c-.2699623-.3581429-.5404434-.5844479-.8186722-.8213348-.2895737-.2212009-.5677872-.4361115-.9677277-.614645.058445.4582939.3218155.8129234.634922 1.0761681.3244325.2475661.7180482.4209022 1.1514779.3598117z" fill="#e28e42"/></g></g><g><g><path d="m61.1425743 44.6833305c.2699623-.358139.5404396-.5844421.8186874-.821331.2895546-.2212029.5677719-.4361076.9677124-.6146507-.0584488.4582939-.3218155.8129349-.6349258 1.0761681-.3244133.2475776-.7180481.4209098-1.151474.3598136z" fill="#e28e42"/></g></g><g><g><path d="m59.1166687 54.2903748c-.3917198.1961403-.6619377.4227867-.9436913.6549988-.2698593.2474365-.531353.4846306-.786953.8552399.435997.0441017.8229752-.1460609 1.1369667-.4081459.3021127-.2772752.5514718-.6425744.5936776-1.1020928z" fill="#e28e42"/></g></g><g><g><path d="m59.4087715 42.0523109c-.6264191-.0509834-1.1208344.0287323-1.6335411.106678-.50811.1061172-.9987106.2057343-1.5729027.4776306.5182838.3868065 1.1346512.4417305 1.7082558.3507118.5690536-.1191596 1.1317635-.3891105 1.498188-.9350204z" fill="#e28e42"/></g></g><g><g><path d="m40.3213921 25.8192329c-.3808174.2187138-.6387482.4607906-.9079056.7091103-.2564735.2628098-.5051117.514904-.7408981.8998756.4376221.0185814.8140259-.1938896 1.1137962-.4738979.2871132-.2944965.5169563-.6738014.5350075-1.135088z" fill="#e28e42"/></g></g><g><g><path d="m30.2995434 20.7610474c-.599432-.2690125-1.1101704-.3635082-1.6383495-.4661198-.5324898-.0733261-1.0457172-.1469193-1.695097-.0804787.387907.5611591.9762592.8305187 1.5683556.9415894.5964298.0818157 1.2339362.0132751 1.7650909-.3949909z" fill="#e28e42"/></g></g><g><g><path d="m53.6881866 11.5934553c-.4333496.0127554-.767189.1051235-1.1137085.1976881-.3414383.1115465-.6712914.2172899-1.0467262.4476185.382122.2259264.8088608.2166252 1.1962776.110465.382351-.1251306.7500534-.3532533.9641571-.7557716z" fill="#e28e42"/></g></g><g><g><path d="m55.1647415 11.055748c.4190254-.128499.7213478-.3072271 1.0359802-.4895458.3049698-.1992912.6000938-.3898716.9087181-.7130241-.4283409-.1158028-.8417816.0075855-1.1928825.2140017-.3414612.2233838-.6430969.5423306-.7518158.9885682z" fill="#e28e42"/></g></g><g><g><path d="m60.2199554 10.8710451c.393177.1986732.7287788.2764444 1.0758171.3601942.3500061.0639696.687336.1276102 1.1148643.0997515-.2527122-.391489-.6385956-.5901031-1.0276489-.6812983-.3920325-.0714368-.8117599-.0418377-1.1630325.2213526z" fill="#e28e42"/></g></g><g><g><path d="m43.420311 18.2896118c.1806259.4256763.3889771.7159653.6024704 1.0187969.2274132.2891102.4454155.5693321.7857513.8381367.0395775-.4835033-.1355553-.904171-.3764839-1.2415199-.2548447-.323658-.5902977-.5857678-1.0117378-.6154137z" fill="#e28e42"/></g></g><g><g><path d="m47.6881371 22.8070755c.3305893.3094139.6336594.4833851.9463043.6665497.3199844.1646099.6279297.3252106 1.0429115.4222164-.1524429-.4578552-.476078-.7650909-.8271866-.9677868-.3584556-.1841679-.7663765-.277195-1.1620292-.1209793z" fill="#e28e42"/></g></g><g><g><path d="m22.7075462 23.1190815c.4038181-.1668644.6884899-.3731537.9850235-.5841408.2856808-.2270374.5623016-.4444809.8418732-.7954369-.4321346-.0760307-.8308334.0852509-1.1614742.3236389-.3198014.254427-.5928154.6005326-.6654225 1.0559388z" fill="#e28e42"/></g></g><g><g><path d="m43.6734962 24.0903778c.0080948-.4577713-.0638161-.8143253-.1353073-1.1842499-.089695-.3654537-.1744385-.71842-.3749275-1.125227-.2315369.3926907-.2425575.8433323-.1601028 1.2570076.1006393.4092026.2993927.8077527.6703376 1.0524693z" fill="#e28e42"/></g></g><g><g><path d="m49.0780029 11.5996399c.3559074-.261569.5872383-.5321865.829071-.8102894.2277298-.2910442.4487801-.5705328.6432381-.9805784-.4370537.0323296-.7892113.2872143-1.0581741.6003513-.2548675.3260651-.4440079.7297821-.414135 1.1905165z" fill="#e28e42"/></g></g><g><g><path d="m19.8098946 25.2500877c.1885395-.412302.264328-.7679482.345789-1.135561.0631561-.3715782.125864-.7296295.1047211-1.1876659-.3657894.254591-.5541668.6591244-.6429844 1.0713196-.0705262.4161549-.0476914.865921.1924743 1.2519073z" fill="#e28e42"/></g></g><g><g><path d="m53.597271 32.7433434c-.2699585-.358139-.5404396-.5844421-.8186722-.8213291-.2895699-.2212029-.5677834-.4361172-.9677086-.6146507.0584297.4582939.3217964.8129253.6349068 1.0761662.3244323.2475699.7180481.4209059 1.151474.3598136z" fill="#e28e42"/></g></g><g><g><path d="m65.5806503 48.0732536c.1018372-.444931.1048126-.8093338.1109467-1.1866798-.0125656-.3771553-.0228424-.7409859-.1350708-1.183876-.3066101.3302383-.4098663.7675362-.4142685 1.1901321.0142593.4223976.126503.8568382.4383926 1.1804237z" fill="#e28e42"/></g></g><g><g><path d="m75.1761551 42.8104401c-.6450577.0856895-1.1910019.2444992-1.7568436.3794975-.5607529.1568947-1.1136169.2841492-1.7224503.5267525.5998459.2786865 1.2597656.2655029 1.8727875.1166382.6079407-.1707154 1.1974717-.4831315 1.6065064-1.0228882z" fill="#e28e42"/></g></g><g><g><path d="m69.7270432 42.051609c-.4142075-.1351089-.7584381-.1610107-1.1147308-.1910439-.3572845-.0103416-.7018127-.0222244-1.1274643.0683708.2929916.3437195.6998825.4798546 1.0990524.5108948.4001312.0113526.8177871-.0797691 1.1431427-.3882217z" fill="#e28e42"/></g></g><g><g><path d="m73.0261307 49.773304c-.3435669-.2791443-.6576385-.4301796-.981636-.5895271-.3314285-.141243-.6504135-.2792549-1.0792618-.351078.1610413.4300346.4974136.7074471.8612671.8835258.3712768.1579895.7928085.2263679 1.1996307.0570793z" fill="#e28e42"/></g></g><g><g><path d="m65.7948761 55.5201378c-.4335022.0030632-.7690964.0879745-1.117363.1727829-.3435822.1039162-.6754837.2022781-1.0554276.4241982.3775063.2344513.8043213.2346916 1.1937637.1371841.3847505-.1165772.7569123-.3364678.9790269-.7341652z" fill="#e28e42"/></g></g><g><g><path d="m46.4095612 50.0441628c-.4442902-.0006599-.7866173.0819626-1.1419449.1643753-.3501472.101696-.6884308.1978989-1.0735435.418148.3915291.2394104.8290253.2433434 1.2263069.1484947.3920974-.1140938.7692756-.3323593.9891815-.731018z" fill="#e28e42"/></g></g><g><g><path d="m77.343483 51.0779648c-.1882477-.4122925-.4046478-.6961555-.6263809-.9921379-.2360764-.2833252-.4623871-.5578766-.8150253-.8253632-.0390091.4605865.1435623.8679237.3937836 1.1977539.2645491.3171845.6121215.5781288 1.0476226.6197472z" fill="#e28e42"/></g></g><g><g><path d="m54.379715 56.1864853c-.4272995.3942413-.7482491.7923431-1.0948563 1.1828499-.3325882.4042511-.6734314.7823296-1.0004616 1.2752037.5663528-.0989838 1.0386238-.4466896 1.412899-.8717041.3602829-.4387322.6403962-.9738617.6824189-1.5863495z" fill="#e28e42"/></g></g><g><g><path d="m68.9039688 51.9633484c-.4333878.0118179-.7674103.1034927-1.1141052.1953278-.3416672.1108246-.6717224.2158852-1.0476151.4454346.3816986.2267685.8084717.2183914 1.1960983.1130371.3825837-.1243363.7507401-.3516885.965622-.7537995z" fill="#e28e42"/></g></g><g><g><path d="m26.4333134 24.2786236c.5380936-.0785027.941927-.2418137 1.3615055-.4071941.4108009-.1882858.8079395-.3676834 1.2456684-.7088547-.505249-.2262039-1.0355549-.1529522-1.5043221.0352783-.4599895.2111301-.8883857.5484276-1.1028518 1.0807705z" fill="#e28e42"/></g></g><g><g><path d="m59.6055565 35.938118c-.5164948.0120964-.9149208.1197891-1.3284378.2276306-.4076004.1304893-.8013458.2541618-1.2502098.5259933.4539223.2719994.9625206.2639694 1.4248619.1402092.45644-.1463928.8960686-.4156379 1.1537857-.8938331z" fill="#e28e42"/></g></g><g><g><path d="m56.7248192 30.6163158c.358757.2569656.680809.3879128 1.0132408.5265236.338829.1200714.6650391.2377014 1.0971909.2823277-.1850929-.419096-.5365677-.6747761-.9097328-.8275719-.3795434-.1342792-.8041955-.17593-1.2006989.0187206z" fill="#e28e42"/></g></g><g><g><path d="m54.8435783 40.5728531c-.4174309-.1236267-.762207-.1400414-1.1191368-.1602478-.3574066-.0004845-.7021408-.0028763-1.1254272.0994263.3013954.3355179.7115211.460392 1.111351.4804192.4002991.000328.8155708-.1022797 1.133213-.4195977z" fill="#e28e42"/></g></g><g><g><path d="m61.971035 38.5002136c-.5530739.0030212-.9814072.1106453-1.4258919.2181244-.4385452.1318588-.8621521.2566681-1.34729.5390167.4812355.2998772 1.0257759.3010635 1.5228119.1774788.4910927-.1479454.9663048-.4277 1.25037-.9346199z" fill="#e28e42"/></g></g><g><g><path d="m51.5777893 54.5599213c-.3917542-.5197487-.7843132-.8481712-1.1880951-1.1919518-.4202156-.321022-.8240013-.6329041-1.4043884-.8920097.0847969.6650963.4670067 1.1797676.9214058 1.5617867.4708328.3592948 1.0420685.6108436 1.6710777.5221748z" fill="#e28e42"/></g></g><g><g><path d="m48.7957039 57.2775841c-.3823738.2156677-.6420364.4556923-.9129524.7018585-.2583504.2607651-.5087852.5108757-.7473221.893959.4374847.0220604.8153992-.1874046 1.1171684-.465023.2892037-.292202.5217514-.6696663.5431061-1.1307945z" fill="#e28e42"/></g></g><g><g><path d="m49.9878311 35.6957664c-.2699623-.3581429-.5404587-.5844498-.8186874-.8213348-.2895584-.2212029-.5677872-.4361115-.9677124-.6146507.0584297.4582939.3218002.8129311.6349068 1.0761681.3244323.2475738.718048.420906 1.151493.3598174z" fill="#e28e42"/></g></g><g><g><path d="m47.0303612 53.0720444c-.4064255-.1591797-.7487526-.2052307-1.1028786-.2561111-.3561287-.0312653-.6994896-.0633392-1.1291809.0021591.2744522.3603821.6735191.5201607 1.0704002.5745583.3988915.0348014.8206368-.031704 1.1616593-.3206063z" fill="#e28e42"/></g></g><g><g><path d="m37.5007172 22.5307312c-.1534538-.4280663-.3455429-.7307739-.5419502-1.0460548-.2117462-.3040066-.4144974-.5983582-.7436867-.8973331-.076931.4552097.0712585.8778057.2932549 1.2294331.2373122.340351.5619811.6323355.992382.7139548z" fill="#e28e42"/></g></g><g><g><path d="m36.7201271 43.6543083c-.3018494-.3284111-.5919418-.5255699-.8907471-.7324638-.3086166-.1901054-.6053581-.3751335-1.0198669-.5113716.100605.4499664.3955383.7755814.7314987 1.0050964.3457718.2127457.7535248.3444557 1.1791153.238739z" fill="#e28e42"/></g></g><g><g><path d="m40.9372406 48.6228561c-.0908508-.4475403-.2377243-.7772636-.387085-1.1200943-.1661263-.3341141-.3247299-.6572647-.6076851-1.0050125-.1407928.4378777-.0543709.8791771.1151199 1.262001.1862336.3741036.4657174.714222.8796502.8631058z" fill="#e28e42"/></g></g><g><g><path d="m47.1040688 26.9297867c-.3808174.2187099-.6387482.4607906-.9079018.7091064-.2564735.2628098-.5051117.5149078-.7409019.8998795.4376221.0185795.814045-.1938896 1.1138-.4739017.2871208-.2944928.5169525-.6737977.5350037-1.1350842z" fill="#e28e42"/></g></g><g><g><path d="m52.5940857 27.9323845c.3926582.1943035.7303696.2702541 1.0794525.3520222.3526459.0624218.6924744.1245251 1.1260262.0969524-.2453346-.383234-.6306343-.5774651-1.0220299-.6664963-.3949547-.0696888-.8206482-.0404205-1.1834488.2175217z" fill="#e28e42"/></g></g><g><g><path d="m45.6650238 32.8417282c.40382-.1668587.6884918-.3731537.9850235-.5841408.2856827-.2270393.5623016-.4444809.8418732-.7954369-.4321327-.0760307-.8308334.0852509-1.1614876.3236389-.3197861.2544251-.5928001.6005326-.6654091 1.0559388z" fill="#e28e42"/></g></g><g><g><path d="m45.3953857 56.7451134c-.2699432-.3581352-.5404396-.5844383-.8186722-.8213272-.2895546-.2212029-.5677834-.4361076-.9677086-.6146507.0584297.4582939.3217964.8129349.6349068 1.0761681.3244324.2475776.7180481.4209098 1.151474.3598098z" fill="#e28e42"/></g></g><g><g><path d="m54.0559883 36.0173607c-.3668785.2438469-.6096916.5027695-.8633308.7686577-.2401161.2795067-.4730682.5478058-.6851845.947834.4378548-.0108604.800705-.2481804 1.0829964-.5477676.2687835-.3131867.4752998-.7071648.4655189-1.1687241z" fill="#e28e42"/></g></g></g><g><g><path d="m81.3997498 46.1775208c-.131546-.4361343-.3080215-.7492676-.4881897-1.0751953-.1960297-.3155289-.3835831-.6209106-.6971512-.9380455-.0998764.4502449.0267029.8806229.2305679 1.2442856.2197189.3532676.529129.663166.954773.7689552z" fill="#ffde9b"/></g></g><g><g><path d="m66.8450775 35.6125679c-.4334106.0101509-.7677383.1005211-1.1147308.1910133-.3420334.1094971-.6724472.2132759-1.0491028.4413757.3809052.2282448.8076935.2215042 1.1956635.1176567.3830032-.1228446.7519226-.3487777.9681701-.7500457z" fill="#ffde9b"/></g></g><g><g><path d="m75.1824951 40.3152733c-.2809372-.4763947-.5801392-.7923164-.8873596-1.122261-.3231201-.312542-.6332703-.6157379-1.0965195-.8927574.0099182.5668602.2833023 1.038002.6294785 1.4052505.3620682.3498497.8183212.6195945 1.3544006.6097679z" fill="#ffde9b"/></g></g><g><g><path d="m81.8536606 41.1302719c-.6754608-.0917931-1.2722855-.0864372-1.8826752-.1127968-.610878-.0033722-1.2064514-.0363922-1.8855362.0258179.5388031.4488983 1.2111359.6244316 1.871521.6503944.6608734.0029869 1.3394089-.1415023 1.8966904-.5634155z" fill="#ffde9b"/></g></g><g><g><path d="m69.5533524 46.987709c-.2699585-.358139-.5404434-.5844421-.8186798-.821331-.2895584-.2212029-.5677872-.4361076-.96772-.6146393.0584412.4582939.3218079.8129234.6349182 1.0761681.3244323.2475662.718048.4209023 1.1514816.3598022z" fill="#ffde9b"/></g></g><g><g><path d="m76.4745407 46.0121384c-.4196243-.1150284-.7646408-.1243401-1.1218719-.1371994-.3573685.0068626-.7020874.0115662-1.1233978.122551.3075256.3292656.7198868.4456749 1.1199951.4574776.4002456-.007908.8135528-.1190415 1.1252746-.4428292z" fill="#ffde9b"/></g></g><g><g><path d="m62.3112221 33.9481506c-.5542831-.1438713-1.0086365-.14991-1.4791489-.1603813-.4703445.0154839-.9240685.0278931-1.4769325.181633.4101639.4279633.9549294.5737801 1.4818573.5820961.5267677-.0176239 1.0690765-.1714058 1.4742241-.6033478z" fill="#ffde9b"/></g></g><g><g><path d="m70.6391068 38.9255714c-.2233047-.5161247-.4845886-.8738136-.7522202-1.2466888-.2856827-.3575821-.5595016-.7040024-.9900742-1.0451202-.0595627.5697823.1568222 1.0796204.4589233 1.4952164.3201524.4003066.7445908.7331733 1.2833711.7965926z" fill="#ffde9b"/></g></g><g><g><path d="m65.2864838 41.7136955c-.2699661-.3581467-.5404434-.5844498-.8186951-.8213387-.2895508-.2212029-.5677681-.4361076-.9677086-.6146393.0584335.4582939.3218155.8129234.634922 1.0761681.3244172.2475663.7180329.4209023 1.1514817.3598099z" fill="#ffde9b"/></g></g><g><g><path d="m34.542202 24.6897583c-.2699585-.3581429-.5404396-.584446-.8186722-.8213329-.2895699-.2212029-.5677834-.4361134-.9677277-.6146469.0584488.4582939.3218155.8129253.6349258 1.0761681.3244325.247568.7180482.4209022 1.1514741.3598117z" fill="#ffde9b"/></g></g><g><g><path d="m61.3527069 44.4614639c.2699623-.3581352.5404434-.5844421.8186913-.8213272.2895546-.2212029.5677681-.4361076.9677086-.6146507-.058445.4582939-.3218155.8129311-.634922 1.0761681-.3244172.2475776-.7180482.4209098-1.1514779.3598098z" fill="#ffde9b"/></g></g><g><g><path d="m58.9065361 54.0685081c-.3917198.1961403-.6619415.4227905-.9436913.6550026-.2698631.2474365-.5313568.4846306-.786953.8552399.435997.0441017.8229752-.1460609 1.1369667-.4081459.3021088-.2772789.5514718-.6425743.5936776-1.1020966z" fill="#ffde9b"/></g></g><g><g><path d="m48.5384903 62.8088226c-.5511017.2759438-.9312668.5948105-1.3276596.921505-.3796577.3481102-.7475471.6818123-1.1071396 1.2032127.6133919.0620499 1.1578217-.2054901 1.5995712-.5742111.4250298-.3900909.7758484-.9040184.835228-1.5505066z" fill="#e28e42"/></g></g><g><g><path d="m48.2428589 62.4966888c-.5511017.2759438-.9312668.5948105-1.3276596.921505-.3796577.3481102-.7475471.6818123-1.1071434 1.2032127.6133957.0620499 1.1578255-.2054901 1.5995712-.5742111.4250298-.3900909.7758522-.9040184.8352318-1.5505066z" fill="#ffde9b"/></g></g><g><g><path d="m56.2475243 59.6109657c-.270134.5773773-.3809738 1.076458-.4999428 1.592308-.0932617.5216904-.1857567 1.0243683-.1614647 1.6688271.5175705-.3530922.7874146-.9195061.917263-1.498024.1041832-.5843315.077404-1.2171821-.2558555-1.7631111z" fill="#e28e42"/></g></g><g><g><path d="m55.8322525 59.5597878c-.2701302.5773773-.3809738 1.0764618-.499939 1.5923119-.0932617.5216866-.1857567 1.0243645-.1614685 1.6688232.5175743-.3530884.7874146-.9195023.9172668-1.498024.1041833-.5843315.0774003-1.2171784-.2558593-1.7631111z" fill="#ffde9b"/></g></g><g><g><path d="m62.1716003 58.8860092c-.4817238-.1290398-.8772583-.137394-1.2868309-.1497307-.4096069.0102806-.8047333.017971-1.2870026.1480255.3545341.3753471.8279343.5060081 1.2866592.5168419.4587404-.0117492.9318238-.141922 1.2871743-.5151367z" fill="#e28e42"/></g></g><g><g><path d="m62.1395836 58.5279579c-.4817238-.1290398-.8772583-.137394-1.2868309-.1497307-.4096069.0102806-.8047333.017971-1.2870026.1480255.3545341.375351.8279343.5060081 1.2866592.5168419.4587441-.0117492.9318276-.141922 1.2871743-.5151367z" fill="#ffde9b"/></g></g><g><g><path d="m72.8709946 53.6184502c-.4673233.1784973-.7991943.4058533-1.1447983.6382256-.3336105.2511177-.6566162.4915161-.9867554.8848228.4928818.1007423.9541779-.0714836 1.3396683-.3342133.3735123-.2814369.6959839-.6694031.7918854-1.1888351z" fill="#e28e42"/></g></g><g><g><path d="m72.6542892 53.3410034c-.4673309.1784935-.7991943.4058495-1.1447983.6382217-.3336182.2511215-.6566162.4915161-.986763.8848267.4928894.1007423.9541779-.0714836 1.3396759-.3342133.3735123-.2814369.695984-.669403.7918854-1.1888351z" fill="#ffde9b"/></g></g><g><g><path d="m81.2544479 48.0123062c-.4965591-.020565-.8850861.0580139-1.2881317.1357765-.3986359.0998917-.7836151.1940765-1.2297745.4270592.4205627.2893829.9093018.3133545 1.3601227.2233429.4464112-.1121025.8835678-.3431892 1.1577835-.7861786z" fill="#e28e42"/></g></g><g><g><path d="m81.1527557 47.6691055c-.4965591-.0205612-.8850861.0580177-1.2881317.1357765-.3986359.0998955-.7836151.1940804-1.2297745.427063.4205627.2893791.9092941.3133545 1.3601227.2233429.4464035-.1121063.8835602-.343193 1.1577835-.7861824z" fill="#ffde9b"/></g></g><g><g><path d="m58.9892464 41.9495659c-.6264153-.0509834-1.1208344.0287323-1.6335411.106678-.50811.1061172-.9987106.2057343-1.5729027.4776306.5182838.3868103 1.1346512.4417305 1.7082558.3507118.5690536-.1191597 1.1317634-.3891067 1.498188-.9350204z" fill="#ffde9b"/></g></g><g><g><path d="m40.1112556 25.5973682c-.3808136.2187157-.6387482.4607925-.9079018.7091122-.2564735.2628098-.5051117.5149021-.7408981.8998756.4376183.0185795.8140259-.1938896 1.1137962-.4738979.2871133-.2944984.5169526-.6738014.5350037-1.1350899z" fill="#ffde9b"/></g></g><g><g><path d="m29.8952961 20.560894c-.599432-.2690125-1.1101704-.3635082-1.6383495-.4661217-.5324898-.0733242-1.0457172-.1469193-1.695097-.0804768.387907.5611591.9762592.8305187 1.5683537.9415894.5964317.0818158 1.2339382.0132752 1.7650928-.3949909z" fill="#ffde9b"/></g></g><g><g><path d="m53.478054 11.3715916c-.4333496.0127554-.767189.1051235-1.1137123.1976881-.3414345.1115465-.6712875.2172899-1.0467262.4476185.3821259.2259264.8088608.2166262 1.1962776.110465.3823548-.1251306.7500572-.3532534.9641609-.7557716z" fill="#ffde9b"/></g></g><g><g><path d="m55.1169014 10.7461014c.4190254-.128499.7213478-.3072271 1.035984-.4895458.304966-.1992912.60009-.3898716.9087143-.7130241-.4283409-.1158028-.8417778.0075855-1.1928787.2140017-.3414612.2233838-.6430969.5423306-.7518196.9885682z" fill="#ffde9b"/></g></g><g><g><path d="m60.0098228 10.6491823c.393177.1986723.728775.2764435 1.0758133.3601933.3500061.0639696.687336.1276102 1.1148682.0997515-.2527122-.391489-.6385956-.5901031-1.0276489-.6812983-.3920365-.0714369-.8117638-.0418377-1.1630326.2213535z" fill="#ffde9b"/></g></g><g><g><path d="m43.2101784 18.0677471c.1806221.4256783.3889771.7159672.6024704 1.0187969.2274094.2891102.4454155.569334.7857513.8381386.0395775-.4835052-.1355591-.9041729-.3764839-1.2415218-.2548485-.323658-.5903015-.5857659-1.0117378-.6154137z" fill="#ffde9b"/></g></g><g><g><path d="m47.4780006 22.5852127c.3305893.3094139.6336632.4833832.9463081.6665497.3199844.1646099.6279259.3252106 1.0429077.4222164-.1524429-.4578571-.4760742-.7650909-.8271828-.9677887-.3584555-.1841659-.7663764-.277195-1.162033-.1209774z" fill="#ffde9b"/></g></g><g><g><path d="m22.4974136 22.8972187c.4038162-.1668644.6884899-.3731537.9850235-.5841408.2856789-.2270393.5622997-.4444828.8418732-.7954369-.4321346-.0760307-.8308353.0852489-1.1614742.323637-.3198033.254427-.5928154.6005345-.6654225 1.0559407z" fill="#ffde9b"/></g></g><g><g><path d="m43.4633598 23.8685131c.0080948-.4577713-.0638161-.8143234-.1353073-1.1842499-.0896912-.3654518-.1744347-.7184181-.3749275-1.125227-.2315331.3926926-.2425575.8433323-.1601028 1.2570095.1006393.4092026.2993965.8077508.6703376 1.0524674z" fill="#ffde9b"/></g></g><g><g><path d="m49.1249313 11.2898216c.3559074-.261569.5872383-.5321875.829071-.8102894.2277298-.2910442.4487801-.5705328.6432381-.9805784-.4370537.0323286-.7892113.2872143-1.0581741.6003513-.2548675.3260651-.4440079.7297822-.414135 1.1905165z" fill="#ffde9b"/></g></g><g><g><path d="m19.706789 24.9558144c.1885395-.412302.264328-.7679482.3457909-1.135561.0631542-.3715782.1258621-.7296295.1047192-1.1876659-.3657894.254591-.5541668.6591244-.6429844 1.0713196-.0705262.4161548-.0476914.8659209.1924743 1.2519073z" fill="#ffde9b"/></g></g><g><g><path d="m53.3871384 32.5214806c-.2699623-.358139-.5404434-.5844421-.8186722-.8213291-.2895737-.2212029-.5677872-.4361172-.9677124-.6146507.0584335.4582939.3218002.8129234.6349068 1.0761662.3244323.2475699.7180519.4209021 1.1514778.3598136z" fill="#ffde9b"/></g></g><g><g><path d="m65.3705139 47.8513908c.1018372-.444931.1048126-.8093376.1109467-1.1866837-.0125656-.3771515-.0228424-.7409859-.1350708-1.1838722-.3066101.3302345-.4098663.7675323-.4142685 1.1901283.0142669.4224015.126503.8568421.4383926 1.1804276z" fill="#ffde9b"/></g></g><g><g><path d="m74.9360962 42.5569763c-.6450653.0856895-1.1910095.2444992-1.7568512.3794975-.5607529.1568947-1.1136093.2841492-1.7224503.5267487.5998459.2786865 1.2597656.2655029 1.8727875.116642.6079407-.1707153 1.1974716-.4831314 1.606514-1.0228882z" fill="#ffde9b"/></g></g><g><g><path d="m69.5169067 41.8297462c-.4142075-.1351089-.7584381-.1610107-1.1147308-.1910439-.3572769-.0103416-.7018127-.0222244-1.1274567.0683708.292984.3437195.6998749.4798546 1.0990448.5108948.4001389.0113526.8177948-.0797729 1.1431427-.3882217z" fill="#ffde9b"/></g></g><g><g><path d="m72.7716599 49.6112595c-.3435745-.2791405-.6576462-.4301758-.9816437-.5895233-.3314209-.1412468-.6504135-.2792549-1.0792618-.351078.1610489.4300346.4974136.7074432.8612671.883522.3712768.1579933.7928085.2263679 1.1996384.0570793z" fill="#ffde9b"/></g></g><g><g><path d="m65.5847397 55.298275c-.4335022.0030632-.7690887.0879745-1.117363.1727829-.3435822.1039162-.6754837.2022743-1.0554237.4241982.3775063.2344513.8043175.2346916 1.1937599.1371841.3847504-.1165772.7569122-.3364678.9790268-.7341652z" fill="#ffde9b"/></g></g><g><g><path d="m46.1764336 49.833931c-.4442902-.0006638-.7866173.0819588-1.1419449.1643753-.3501472.101696-.6884308.1978989-1.0735435.4181442.3915291.2394104.8290253.2433434 1.2263069.1484947.3921012-.1140938.7692794-.3323555.9891815-.7310142z" fill="#ffde9b"/></g></g><g><g><path d="m77.1333542 50.856102c-.1882553-.4122925-.4046555-.6961594-.6263809-.9921379-.2360764-.2833252-.4623947-.5578766-.815033-.8253632-.0390091.4605865.1435623.8679237.3937836 1.1977501.2645492.3171883.6121216.5781288 1.0476303.619751z" fill="#ffde9b"/></g></g><g><g><path d="m54.1595612 55.9648247c-.4272957.3942413-.7482452.7923393-1.0948524 1.1828499-.3325882.4042511-.6734352.7823296-1.0004654 1.2752037.5663567-.0989876 1.0386238-.4466896 1.412899-.8717041.3602828-.4387322.6403961-.9738617.6824188-1.5863495z" fill="#ffde9b"/></g></g><g><g><path d="m68.6938324 51.7414818c-.4333878.0118217-.7674103.1034966-1.1140976.1953278-.3416748.1108284-.67173.215889-1.0476151.4454346.3816986.2267723.8084641.2183952 1.1960983.1130371.3825761-.1243325.7507325-.3516847.9656144-.7537995z" fill="#ffde9b"/></g></g><g><g><path d="m26.1700077 24.0006199c.5380936-.0785007.941927-.2418118 1.3615055-.4071922.4108028-.1882858.8079395-.3676834 1.2456703-.7088547-.505249-.2262039-1.0355549-.1529522-1.5043221.0352783-.4599914.2111282-.8883876.5484276-1.1028537 1.0807686z" fill="#ffde9b"/></g></g><g><g><path d="m59.3551407 35.6737213c-.5164986.0120964-.9149246.1197891-1.3284416.2276306-.4076004.1304893-.8013458.2541618-1.2502098.5259933.4539223.2719994.9625244.2639694 1.4248619.1402092.4564399-.1463927.8960685-.4156379 1.1537895-.8938331z" fill="#ffde9b"/></g></g><g><g><path d="m56.5146866 30.394453c.358757.2569637.6808052.3879128 1.0132408.5265217.3388252.1200733.6650352.2377014 1.097187.2823296-.1850891-.419096-.5365639-.6747761-.9097328-.8275738-.3795395-.1342773-.8041916-.17593-1.200695.0187225z" fill="#ffde9b"/></g></g><g><g><path d="m54.6334419 40.3509903c-.4174271-.1236305-.7622032-.1400414-1.119133-.1602478-.3574104-.0004845-.7021408-.0028801-1.1254311.0994225.3013992.3355217.711525.4603958 1.111351.480423.400303.000328.8155709-.1022836 1.1332131-.4195977z" fill="#ffde9b"/></g></g><g><g><path d="m61.6505699 38.2862778c-.5530777.0030212-.9814072.1106453-1.4258919.2181244-.438549.1318588-.8621521.2566719-1.3472939.5390167.4812355.2998772 1.0257797.3010635 1.5228157.1774788.491089-.1479454.9663049-.4277001 1.2503701-.9346199z" fill="#ffde9b"/></g></g><g><g><path d="m72.9239349 13.0115461c-.4334106.010149-.767746.1005182-1.1147385.1910114-.3420334.109499-.6724472.2132769-1.0491028.4413776.3809128.2282438.8076935.2215042 1.1956635.1176558.3830109-.1228446.7519226-.3487768.9681778-.7500448z" fill="#e28e42"/></g></g><g><g><path d="m68.9027557 12.512887c-.2699585-.3581381-.5404358-.5844421-.8186874-.8213291-.2895508-.2212019-.5677643-.4361076-.9677124-.6146412.0584335.4582844.3218155.8129244.6349258 1.0761671.3244172.2475681.7180329.4209023 1.151474.3598032z" fill="#e28e42"/></g></g><g><g><path d="m75.8122711 16.2720242c-.2699585-.358139-.5404434-.5844431-.8186874-.8213301-.2895584-.2212019-.5677719-.4361086-.9677124-.6146412.0584335.4582844.3218155.8129244.6349258 1.0761671.3244171.2475681.7180329.4209023 1.151474.3598042z" fill="#e28e42"/></g></g><g><g><path d="m72.5881653 19.9154243c-.3266983-.4334183-.6540222-.707283-.9907455-.9939575-.3504105-.2676926-.6871033-.5277634-1.1710968-.7438202.0707092.5546131.3894501.9837761.768364 1.3023453.3926009.2995987.8689422.5093632 1.3934783.4354324z" fill="#e28e42"/></g></g><g><g><path d="m77.7853088 22.5471916c.3814468-.2175064.7143631-.3135471 1.0583572-.4161015.3485565-.0834427.6843414-.1657944 1.1185684-.1642532-.224144.3972816-.5982285.6143036-.9840775.7266426-.3904265.0932522-.8169173.0895348-1.1928481-.1462879z" fill="#e28e42"/></g></g><g><g><path d="m60.4524117 13.2843552c-.6033783-.2231569-1.1073303-.2824907-1.6288414-.3486137-.5235023-.0374184-1.0283127-.0763178-1.6550293.029377.4195595.5201931 1.0121536.7444019 1.596489.8146658.5863685.0416011 1.2013587-.0653773 1.6873817-.4954291z" fill="#e28e42"/></g></g><g><g><path d="m77.2663269 19.3396549c-.4141998-.1351089-.7584381-.1610107-1.1147232-.1910419-.3572845-.0103416-.7018204-.0222263-1.1274643.0683689.292984.3437195.6998749.4798546 1.0990448.5108948.4001389.0113544.8177948-.0797711 1.1431427-.3882218z" fill="#e28e42"/></g></g><g><g><path d="m65.9960175 12.8237553c-.4334106.010149-.767746.1005182-1.1147385.1910114-.3420334.109499-.6724319.2132759-1.0490913.4413776.3809013.2282438.807682.2215042 1.1956444.1176558.3830184-.1228457.7519225-.3487768.9681854-.7500448z" fill="#e28e42"/></g></g><g><g><path d="m67.3917847 16.0578785c-.4925079.0026894-.8739319.098526-1.2697372.1942348-.3905182.1174183-.7677307.2285614-1.1997452.4799862.4285355.2670364.9134445.2680931 1.3560486.158041.4373016-.1317405.8604736-.3808593 1.1134338-.832262z" fill="#e28e42"/></g></g><g><g><path d="m72.7137985 12.7896824c-.4334106.010149-.7677383.1005182-1.1147385.1910114-.3420258.109499-.6724396.2132769-1.0490952.4413786.3809052.2282429.8076859.2215033 1.1956635.1176548.3830033-.1228447.751915-.3487768.9681702-.7500448z" fill="#ffde9b"/></g></g><g><g><path d="m68.692627 12.2910233c-.2699661-.3581381-.5404434-.5844412-.8186874-.8213291-.2895584-.2212019-.5677719-.4361076-.9677124-.6146412.0584259.4582844.3218155.8129244.6349182 1.0761671.324417.2475681.7180328.4209032 1.1514816.3598032z" fill="#ffde9b"/></g></g><g><g><path d="m75.6021347 16.0501595c-.2699585-.3581381-.5404358-.5844421-.8186874-.8213291-.2895508-.2212019-.5677719-.4361076-.9677124-.6146412.0584335.4582844.3218155.8129244.6349258 1.0761671.3244171.2475681.7180328.4209032 1.151474.3598032z" fill="#ffde9b"/></g></g><g><g><path d="m72.3338699 19.6469326c-.3266983-.4334183-.6540222-.7072849-.9907532-.9939575-.3504105-.2676926-.6870956-.5277653-1.1710892-.7438202.0707092.5546131.3894501.9837761.768364 1.3023453.3925934.2995987.8689423.5093631 1.3934784.4354324z" fill="#ffde9b"/></g></g><g><g><path d="m77.6270447 22.4758797c.3814545-.2175064.7143631-.3135471 1.0583572-.4161015.3485565-.0834427.6843491-.1657944 1.118576-.1642532-.2241516.3972816-.5982285.6143036-.9840851.7266426-.3904266.0932522-.8169173.0895347-1.1928481-.1462879z" fill="#ffde9b"/></g></g><g><g><path d="m82.5182495 30.689003c.5280075-.3290424.9935989-.4836674 1.4745102-.6481285.4883423-.1377106.9586868-.2731533 1.5724182-.2956219-.2965698.5741806-.8141861.9021206-1.3537598 1.0827847-.5470123.1539497-1.1499176.1729049-1.6931686-.1390343z" fill="#e28e42"/></g></g><g><g><path d="m82.9020081 30.508049c.5280075-.3290443.9935913-.4836674 1.4745102-.6481285.4883347-.1377106.9586868-.2731533 1.5724106-.2956219-.2965622.5741806-.8141861.9021206-1.3537598 1.0827847-.5470124.1539497-1.14991.172905-1.693161-.1390343z" fill="#ffde9b"/></g></g><g><g><path d="m90.0689468 33.6864319c.047348-.4549828.1617584-.7987518.2773895-1.1558456.1331177-.3502007.2598343-.6886864.5078735-1.0649853.1821594.4205475.1386261.8688564.0068207 1.2678738-.1492767.3921432-.3946151.7604865-.7920837.9529571z" fill="#e28e42"/></g></g><g><g><path d="m90.1345596 33.3804131c.047348-.4549828.1617584-.7987518.2773895-1.1558495.1331177-.3501987.2598343-.6886845.5078735-1.0649815.1821594.4205456.1386185.8688564.0068207 1.2678738-.1492767.3921433-.3946151.7604828-.7920837.9529572z" fill="#ffde9b"/></g></g><g><g><path d="m60.0641747 13.0681067c-.6033745-.2231569-1.1073303-.2824907-1.6288376-.3486137-.5235062-.0374184-1.0283165-.0763178-1.6550331.029377.4195633.5201931 1.0121574.7444019 1.596489.8146658.5863685.041602 1.2013587-.0653773 1.6873817-.4954291z" fill="#ffde9b"/></g></g><g><g><path d="m77.0561905 19.1177921c-.4141998-.1351089-.7584305-.1610126-1.1147232-.1910439-.3572845-.0103416-.7018127-.0222244-1.1274643.0683689.2929916.3437195.6998825.4798546 1.0990524.5108948.4001312.0113545.8177872-.0797691 1.1431351-.3882198z" fill="#ffde9b"/></g></g><g><g><path d="m65.785881 12.6018915c-.4334106.010149-.7677383.1005182-1.1147385.1910114-.3420258.109499-.6724319.2132759-1.0490875.4413776.3808975.2282438.8076859.2215042 1.1956482.1176558.3830109-.1228456.751915-.3487768.9681778-.7500448z" fill="#ffde9b"/></g></g><g><g><path d="m67.1064148 15.8673716c-.4925079.0026903-.8739319.098527-1.2697372.1942339-.3905182.1174202-.7677307.2285633-1.1997452.4799862.4285355.2670383.9134445.268095 1.356041.1580429.4373092-.1317425.8604812-.3808594 1.1134414-.832263z" fill="#ffde9b"/></g></g><g><g><path d="m85.9994354 19.8844814c-.4334106.010149-.7677383.1005173-1.1147385.1910114-.3420258.109499-.6724396.2132759-1.0490952.4413776.3809052.2282429.8076935.2215042 1.1956635.1176548.3830033-.1228446.7519227-.3487758.9681702-.7500438z" fill="#e28e42"/></g></g><g><g><path d="m81.9782639 19.3858223c-.2699585-.3581371-.5404434-.5844421-.8186874-.8213291-.2895584-.2212029-.5677719-.4361076-.9677124-.6146412.0584335.4582844.3218155.8129234.6349258 1.0761681.3244171.2475662.7180328.4209022 1.151474.3598022z" fill="#e28e42"/></g></g><g><g><path d="m89.1558075 23.4716625c-.2699661-.3581371-.5404434-.5844421-.8186951-.8213291-.2895508-.2212029-.5677643-.4361076-.9677048-.6146412.0584259.4582844.3218155.8129234.6349182 1.0761681.3244172.2475662.7180329.4209022 1.1514817.3598022z" fill="#e28e42"/></g></g><g><g><path d="m84.5808792 25.7309399c.2699585-.3581467.5404434-.5844517.8186874-.8213387.2895584-.2212009.5677719-.4361076.9677124-.6146412-.0584335.4582939-.3218155.8129253-.6349258 1.0761681-.3244171.2475681-.7180328.4209022-1.151474.3598118z" fill="#e28e42"/></g></g><g><g><path d="m91.6357803 29.3272209c.2699661-.3581371.5404434-.5844421.8186951-.8213291.2895508-.2212029.5677643-.4361076.9677048-.6146507-.0584488.4582939-.3218155.812933-.6349182 1.0761681-.3244172.2475757-.7180558.4209117-1.1514817.3598117z" fill="#e28e42"/></g></g><g><g><path d="m91.4629288 26.1016598c-.4142075-.1351109-.7584381-.1610126-1.1147308-.1910439-.3572845-.0103416-.7018127-.0222244-1.1274567.0683689.292984.3437195.6998749.4798546 1.0990448.5108948.4001312.0113545.8177871-.079771 1.1431427-.3882198z" fill="#e28e42"/></g></g><g><g><path d="m75.6021347 22.1161079c-.4334106.0101509-.7677383.1005192-1.1147308.1910133-.3420334.1094971-.6724396.2132759-1.0490952.4413776.3809052.2282429.8076859.2215042 1.1956482.1176548.3830109-.1228446.7519226-.3487777.9681778-.7500457z" fill="#e28e42"/></g></g><g><g><path d="m80.1682739 25.7166634c-.5695267-.166338-1.0395432-.1869049-1.526123-.2125702-.4871826.0012226-.9570541-.0002251-1.5335083.1414528.4124146.4557724.972023.6238232 1.517067.649025.5456237-.0016633 1.1111526-.1437188 1.5425643-.5779076z" fill="#e28e42"/></g></g><g><g><path d="m85.789299 19.6626167c-.433403.0101509-.7677383.1005192-1.1147308.1910133-.3420334.1094971-.6724472.2132759-1.0491028.4413776.3809128.2282429.8076935.2215023 1.1956635.1176548.3830108-.1228446.7519226-.3487777.9681701-.7500457z" fill="#ffde9b"/></g></g><g><g><path d="m81.7681274 19.1639595c-.2699585-.358139-.5404358-.5844421-.8186874-.8213291-.2895508-.2212029-.5677719-.4361095-.9677124-.6146431.0584335.4582844.3218155.8129253.6349258 1.0761681.3244172.2475681.7180329.4209022 1.151474.3598041z" fill="#ffde9b"/></g></g><g><g><path d="m88.9456711 23.2497997c-.2699585-.358139-.5404434-.5844421-.8186874-.8213291-.2895584-.2212029-.5677719-.4361095-.9677124-.6146431.0584335.4582863.3218155.8129253.6349258 1.0761681.3244095.2475681.7180328.4209022 1.151474.3598041z" fill="#ffde9b"/></g></g><g><g><path d="m84.7910156 25.5090752c.2699585-.3581467.5404358-.5844498.8186874-.8213367.2895508-.2212029.5677719-.4361076.9677124-.6146412-.0584335.458292-.3218155.8129234-.6349258 1.0761662-.3244171.247568-.7180328.4209021-1.151474.3598117z" fill="#ffde9b"/></g></g><g><g><path d="m83.0882111 22.457777c-.3206635-.3080502-.6219025-.4858608-.9324036-.6728077-.3192978-.1695595-.626442-.3348122-1.0482559-.4436398.1269989.4425716.4406433.7482605.7895432.9553509.3576965.1897088.7724761.2944718 1.1911163.1610966z" fill="#e28e42"/></g></g><g><g><path d="m82.8472214 22.2741795c-.3206635-.3080521-.6219025-.4858608-.9324112-.6728096-.3192902-.1695576-.626442-.3348122-1.0482483-.4436398.1269913.4425716.4406357.7482605.7895432.9553509.3576965.1897106.7724761.2944717 1.1911163.1610985z" fill="#ffde9b"/></g></g><g><g><path d="m83.4425735 27.4244976c-.2699661-.3581467-.5404434-.5844517-.8186951-.8213387-.2895508-.2212009-.5677643-.4361076-.9677048-.6146412.0584259.4582939.3218155.8129253.6349182 1.0761681.3244172.2475682.718033.4209023 1.1514817.3598118z" fill="#e28e42"/></g></g><g><g><path d="m83.2324371 27.2026348c-.2699585-.3581486-.5404434-.5844517-.8186874-.8213387-.2895584-.2212029-.5677719-.4361076-.9677124-.6146412.0584335.458292.3218155.8129234.6349258 1.0761662.3244171.2475682.7180329.4209042 1.151474.3598137z" fill="#ffde9b"/></g></g><g><g><path d="m89.100029 29.6693325c-.3775177-.3316841-.7268677-.5169964-1.0871429-.7121601-.3694-.1750202-.7248459-.3458099-1.2073898-.4466782.1647034.4941635.5341568.8235455.9388504 1.0394745.4138106.1957951.8882064.2924347 1.3556823.1193638z" fill="#e28e42"/></g></g><g><g><path d="m88.8185806 29.4742832c-.3775177-.3316841-.7268677-.5169945-1.0871429-.7121601-.3694-.1750183-.7248459-.345808-1.2073898-.4466782.164711.4941654.5341644.8235474.9388504 1.0394764.4138107.1957951.8882064.2924347 1.3556823.1193619z" fill="#ffde9b"/></g></g><g><g><path d="m86.6824799 36.0282021c.2699585-.3581467.5404434-.5844498.8186874-.8213387.2895584-.2212029.5677719-.4361076.9677124-.6146393-.0584335.4582901-.3218155.8129234-.6349258 1.0761642-.3244172.2475701-.7180329.4209023-1.151474.3598138z" fill="#e28e42"/></g></g><g><g><path d="m86.8926163 35.8063393c.2699585-.3581467.5404358-.5844536.8186874-.8213387.2895508-.2212029.5677719-.4361076.9677124-.6146431-.0584335.4582939-.3218155.8129272-.6349258 1.0761681-.3244171.24757-.7180329.4209022-1.151474.3598137z" fill="#ffde9b"/></g></g><g><g><path d="m77.5620117 17.3167286c.2699585-.3581467.5404434-.5844517.8186874-.8213387.2895584-.2212029.5677719-.4361076.9677124-.6146412-.0584335.4582939-.3218155.8129253-.6349258 1.0761681-.3244171.2475681-.7180328.4209023-1.151474.3598118z" fill="#e28e42"/></g></g><g><g><path d="m77.7721481 17.0948639c.2699585-.3581467.5404358-.5844498.8186874-.8213367.2895508-.2212029.5677643-.4361086.9677124-.6146421-.0584335.458293-.3218155.8129244-.6349258 1.0761671-.3244171.247568-.7180328.4209022-1.151474.3598117z" fill="#ffde9b"/></g></g><g><g><path d="m91.8459167 29.1053581c.2699585-.358139.5404434-.5844421.8186874-.8213291.2895584-.2212029.5677719-.4361095.9677124-.6146507-.0584488.4582939-.3218155.812933-.6349258 1.0761681-.3244171.2475757-.718048.4209098-1.151474.3598117z" fill="#ffde9b"/></g></g><g><g><path d="m88.4122543 41.0209312c-.1589432-.4258156-.2094727-.7862473-.264801-1.1590691-.0368118-.3753281-.0741272-.7371407-.0207901-1.1921158.3467941.282402.5061722.7004395.5656967 1.1183052.0410385.4203874-.0134277.8669931-.2801056 1.2328797z" fill="#e28e42"/></g></g><g><g><path d="m88.3352203 40.7179108c-.1589508-.4258156-.2094727-.7862473-.2648087-1.1590691-.0368118-.3753281-.0741196-.7371407-.0207825-1.1921158.3467941.282402.5061646.7004395.5656967 1.1183052.041031.4203873-.0134276.866993-.2801055 1.2328797z" fill="#ffde9b"/></g></g><g><g><path d="m90.6375198 37.4765015c.2699585-.358139.5404358-.5844421.8186874-.8213272.2895508-.2212029.5677643-.4361115.9677048-.6146507-.0584412.4582901-.3218079.8129311-.6349182 1.0761642-.3244171.2475776-.7180481.4209137-1.151474.3598137z" fill="#e28e42"/></g></g><g><g><path d="m95.2211227 32.7962952c-.4334641-.008213-.7709579.0679359-1.1211319.1436691-.3459167.0949249-.6800079.1846237-1.0650406.3965874.371933.2441902.798645.2555199 1.1902618.1681824.3873673-.1065217.7645722-.3166466.9959107-.7084389z" fill="#e28e42"/></g></g><g><g><path d="m94.925293 32.8261375c-.4334641-.008213-.7709579.0679321-1.1211319.1436653-.3459167.0949249-.6800156.1846275-1.0650406.3965912.371933.2441902.7986374.2555199 1.1902542.1681824.3873672-.1065254.7645721-.3166466.9959183-.7084389z" fill="#ffde9b"/></g></g><g><g><path d="m83.9418716 42.5952377c.4046173-.1643677.7464142-.2147865 1.0999832-.2701797.3557968-.03582.6987915-.0722771 1.1292801-.0122643-.2702942.3638611-.6675491.528717-1.0638275.5881805-.3985061.0399056-.8210449-.0212096-1.1654358-.3057365z" fill="#e28e42"/></g></g><g><g><path d="m84.2295074 42.5163651c.4046173-.1643677.7464142-.2147903 1.0999832-.2701797.3557968-.03582.6987915-.0722809 1.1292801-.0122643-.2702942.3638611-.6675491.5287132-1.0638275.5881805-.3985061.0399017-.8210449-.0212097-1.1654358-.3057365z" fill="#ffde9b"/></g></g><g><g><path d="m90.8476486 37.2546387c.2699585-.358139.5404434-.5844421.8186874-.821331.2895584-.2212029.5677719-.4361076.9677124-.6146507-.0584488.4582939-.3218155.8129349-.6349258 1.0761681-.3244095.2475775-.7180481.4209136-1.151474.3598136z" fill="#ffde9b"/></g></g><g><g><path d="m91.2527924 25.8797951c-.4141998-.1351089-.7584381-.1610107-1.1147232-.1910439-.3572845-.0103416-.7018204-.0222244-1.1274643.0683708.292984.3437176.6998749.4798527 1.0990448.5108948.4001388.0113526.8177948-.079771 1.1431427-.3882217z" fill="#ffde9b"/></g></g><g><g><path d="m75.3920059 21.8942451c-.4334106.010149-.767746.1005192-1.1147385.1910114-.3420334.109499-.6724319.2132759-1.0490952.4413776.3809052.2282448.8076859.2215042 1.1956482.1176567.3830186-.1228465.7519227-.3487776.9681855-.7500457z" fill="#ffde9b"/></g></g><g><g><path d="m79.8975525 25.3985138c-.5695343-.166338-1.0395432-.1869049-1.5261307-.2125721-.487175.0012245-.9570541-.0002232-1.5335007.1414547.4124146.4557705.9720154.6238232 1.517067.649025.5456238-.0016633 1.1111526-.1437188 1.5425644-.5779076z" fill="#ffde9b"/></g></g><g><g><path d="m73.5058365 5.5991993c-.4234314-.0979252-.7684784-.0932465-1.1258621-.091598-.3568039.0213547-.7010345.0400381-1.1179504.1680465.3192215.3165522.7354507.4161429 1.1356277.4117055.3995971-.0241347.8085022-.15196 1.1081848-.488154z" fill="#e28e42"/></g></g><g><g><path d="m89.1976471 9.126605c-.2699585-.3581381-.5404434-.5844421-.8186874-.8213291-.2895584-.2212019-.5677719-.4361081-.9677124-.6146412.0584335.4582844.3218155.8129244.6349258 1.0761671.3244171.2475682.7180328.4209023 1.151474.3598032z" fill="#e28e42"/></g></g><g><g><path d="m80.0885849 6.4161997c-.3530884-.2655487-.6722183-.4042368-1.0015869-.5508327-.3361282-.1282263-.6597137-.2537055-1.0907974-.3087544.1759567.4234424.5218124.6875448.891571.8493142.3765335.1434082.8001709.1953033 1.2008133.0102729z" fill="#e28e42"/></g></g><g><g><path d="m87.0332031 33.0944366c-.4141998-.1351128-.7584381-.1610146-1.1147232-.1910439-.3572845-.0103416-.7018204-.0222244-1.1274643.068367.292984.3437195.6998749.4798546 1.0990448.5108948.4001389.0113564.8177948-.0797691 1.1431427-.3882179z" fill="#e28e42"/></g></g><g><g><path d="m73.3511429 5.3313193c-.4234238-.0979252-.7684708-.0932469-1.1258621-.091598-.3567963.0213542-.7010345.0400376-1.1179428.168046.3192139.3165522.7354431.4161429 1.1356277.4117055.3995972-.0241346.8085022-.1519599 1.1081772-.4881535z" fill="#ffde9b"/></g></g><g><g><path d="m88.9875107 8.9047413c-.2699585-.3581381-.5404358-.5844412-.8186874-.8213291-.2895508-.2212024-.5677643-.4361081-.9677048-.6146412.0584259.4582844.3218079.8129244.6349182 1.0761671.3244171.2475681.7180328.4209032 1.151474.3598032z" fill="#ffde9b"/></g></g><g><g><path d="m79.8286209 6.264194c-.353096-.2655487-.672226-.4042363-1.0015869-.5508323-.3361359-.1282268-.6597214-.253706-1.0907974-.3087544.1759491.4234424.5218124.6875448.891571.8493142.3765259.1434083.8001709.1953034 1.2008133.0102725z" fill="#ffde9b"/></g></g><g><g><path d="m86.8230667 32.87257c-.4141998-.1351089-.7584305-.1610107-1.1147232-.1910439-.3572845-.0103378-.7018127-.0222244-1.1274643.0683708.2929916.3437195.6998825.4798546 1.0990524.5108948.4001313.0113526.8177872-.0797691 1.1431351-.3882217z" fill="#ffde9b"/></g></g><g><g><path d="m85.4691696 6.8511491c-.5145264-.1558428-.940094-.1787453-1.3806458-.2064056-.4412918-.0033302-.8669052-.0089073-1.3902206.1141877.3698349.4165783.8753662.5738754 1.368866.601655.4942398.0034599 1.0076675-.1200748 1.4020004-.5094371z" fill="#e28e42"/></g></g><g><g><path d="m98.273201 26.726368c-.2699585-.358139-.5404434-.5844421-.8186874-.8213291-.2895584-.2212029-.5677719-.4361095-.9677124-.6146431.0584335.4582863.3218155.8129253.6349258 1.0761681.3244171.247568.7180328.4209021 1.151474.3598041z" fill="#e28e42"/></g></g><g><g><path d="m96.3817368 21.3875999c.2699585-.3581467.5404358-.5844498.8186874-.8213367.2895584-.2212029.5677719-.4361095.9677124-.6146431-.0584335.4582939-.3218155.8129253-.6349258 1.0761681-.3244172.2475681-.7180329.4209022-1.151474.3598117z" fill="#e28e42"/></g></g><g><g><path d="m97.335434 28.9128895c-.4273071.0772381-.7454376.2184792-1.076088.3617916-.3231049.1613503-.6354904.315237-.9763412.5992565.4085388.1666985.8297653.0938663 1.1990967-.0690193.3617553-.1809044.6952514-.4615803.8533325-.8920288z" fill="#e28e42"/></g></g><g><g><path d="m92.4322662 11.0731297c-.4334106.010149-.767746.1005182-1.1147385.1910114-.3420334.109499-.6724396.2132769-1.0490952.4413776.3809052.2282438.8076859.2215042 1.1956482.1176558.3830186-.1228447.7519227-.3487768.9681855-.7500448z" fill="#e28e42"/></g></g><g><g><path d="m95.2902374 14.0469074c-.4335022.0023689-.7692261.0867233-1.1176147.1709652-.3437347.1033525-.6757584.2011795-1.056015.4224825.3771973.2350454.8040085.2359762 1.1935883.1391087.3849181-.1159582.7573928-.3352309.9800414-.7325564z" fill="#e28e42"/></g></g><g><g><path d="m85.2984772 6.5082135c-.514534-.1558428-.9401016-.1787453-1.3806534-.2064056-.4412918-.0033302-.8669052-.0089073-1.390213.1141877.3698273.4165783.8753586.5738754 1.3688583.601655.4942398.0034599 1.0076752-.1200747 1.4020081-.5094371z" fill="#ffde9b"/></g></g><g><g><path d="m98.0630646 26.5045033c-.2699585-.3581371-.5404358-.5844421-.8186874-.8213291-.2895508-.2212029-.5677795-.4361019-.9676971-.6146469.7496109.9028206 3.1520004 2.63311.6348953 1.0761929.3244323.2475642.718048.4208831 1.1514892.3597831z" fill="#ffde9b"/></g></g><g><g><path d="m96.5918655 21.1657372c.2699661-.3581467.5404434-.5844517.8186951-.8213387.2895508-.2212029.5677643-.4361076.9677048-.6146412-.0584259.4582939-.3218155.8129234-.6349182 1.0761681-.3244171.2475662-.7180329.4209022-1.1514817.3598118z" fill="#ffde9b"/></g></g><g><g><path d="m96.7282104 18.2118664c-.2699585-.3581486-.5404434-.5844517-.8186874-.8213387-.2895584-.2212029-.5677719-.4361076-.9677124-.6146412.0584335.458292.3218155.8129234.6349258 1.0761681.3244095.2475662.7180329.4209022 1.151474.3598118z" fill="#e28e42"/></g></g><g><g><path d="m96.518074 17.9900017c-.2699585-.3581467-.5404358-.5844498-.8186874-.8213367-.2895584-.2212029-.5677719-.4361095-.9677124-.6146431.0584335.4582939.3218155.8129253.6349258 1.0761681.3244172.247568.7180329.4209021 1.151474.3598117z" fill="#ffde9b"/></g></g><g><g><path d="m96.7282104 23.8348541c-.2699585-.3581467-.5404434-.5844498-.8186874-.8213367-.2895584-.2212029-.5677719-.4361076-.9677124-.6146412.0584335.458292.3218155.8129234.6349258 1.0761662.3244095.2475681.7180329.4209022 1.151474.3598117z" fill="#e28e42"/></g></g><g><g><path d="m96.518074 23.6129913c-.2699585-.3581467-.5404358-.5844498-.8186874-.8213367-.2895584-.2212029-.5677719-.4361095-.9677124-.6146431.0584335.4582939.3218155.8129253.6349258 1.0761681.3244172.2475681.7180329.4209022 1.151474.3598117z" fill="#ffde9b"/></g></g><g><g><path d="m97.0529861 28.815321c-.4273071.0772381-.7454376.2184792-1.076088.3617935-.3231049.1613503-.6354904.315237-.9763412.5992546.4085388.1666985.8297653.0938663 1.1990891-.0690174.361763-.1809063.6952591-.4615803.8533401-.8920307z" fill="#ffde9b"/></g></g><g><g><path d="m92.2221298 10.8512659c-.4334106.010149-.7677383.1005182-1.1147385.1910114-.3420258.109499-.6724319.2132769-1.0490875.4413786.3808975.2282429.8076782.2215033 1.1956482.1176548.3830109-.1228447.751915-.3487768.9681778-.7500448z" fill="#ffde9b"/></g></g><g><g><path d="m95.0390549 13.8792248c-.4335022.002368-.7692261.0867233-1.1176147.1709652-.3437347.1033525-.6757584.2011795-1.056015.4224825.3771973.2350445.8040085.2359762 1.1935883.1391087.3849181-.1159592.7573928-.3352319.9800414-.7325564z" fill="#ffde9b"/></g></g><g><g><path d="m51.2728348 54.2379417c-.391758-.5197487-.784317-.8481712-1.1880989-1.1919518-.4202156-.321022-.8239975-.6329041-1.4043884-.8920097.0847969.6650963.4670105 1.1797676.9214096 1.5617867.470829.3592949 1.0420646.6108437 1.6710777.5221748z" fill="#ffde9b"/></g></g><g><g><path d="m48.5855713 57.0557213c-.3823776.2156677-.6420364.4556923-.9129524.7018585-.2583542.2607651-.5087852.5108719-.7473259.893959.4374886.0220604.815403-.1874084 1.1171684-.465023.2892036-.2922058.5217552-.6696663.5431099-1.1307945z" fill="#ffde9b"/></g></g><g><g><path d="m49.7776985 35.4739037c-.2699623-.3581429-.5404587-.5844536-.8186913-.8213348-.2895546-.2212029-.5677872-.4361115-.9677086-.6146507.0584297.4582939.3217964.8129311.6349068 1.0761681.3244324.2475737.7180481.4209059 1.1514931.3598174z" fill="#ffde9b"/></g></g><g><g><path d="m46.8202286 52.8501816c-.4064293-.1591797-.7487564-.2052307-1.1028786-.2561111-.3561287-.0312691-.6994896-.0633392-1.1291809.0021591.2744522.3603821.6735191.5201569 1.0703964.5745583.3988953.0348014.8206406-.031704 1.1616631-.3206063z" fill="#ffde9b"/></g></g><g><g><path d="m37.2905846 22.3088665c-.1534538-.4280663-.3455429-.730772-.541954-1.0460548-.2117424-.3040066-.4144936-.5983582-.7436829-.8973312-.0769348.4552078.0712547.8778057.293251 1.2294312.2373161.3403529.561985.6323374.9923859.7139548z" fill="#ffde9b"/></g></g><g><g><path d="m36.7456703 43.3417168c-.3018494-.3284111-.591938-.5255699-.8907471-.7324638-.3086128-.1901054-.6053543-.3751335-1.0198669-.5113716.1006088.4499664.3955421.7755814.7314987 1.0050964.3457718.2127456.7535248.3444557 1.1791153.238739z" fill="#ffde9b"/></g></g><g><g><path d="m40.727108 48.4009895c-.0908508-.4475365-.2377243-.7772598-.3870888-1.1200905-.1661224-.3341179-.3247261-.6572685-.6076851-1.0050125-.1407928.4378777-.0543671.8791771.1151199 1.262001.1862374.3741036.4657212.714222.879654.863102z" fill="#ffde9b"/></g></g><g><g><path d="m46.8939362 26.707922c-.3808174.2187099-.6387482.4607906-.9079056.7091084-.2564735.2628078-.5051117.5149059-.7408981.8998795.4376221.0185795.8140411-.1938915 1.1137962-.4739037.2871246-.2944928.5169563-.6737977.5350075-1.1350842z" fill="#ffde9b"/></g></g><g><g><path d="m52.3839531 27.7105217c.3926582.1943035.7303696.2702522 1.0794525.3520222.3526459.0624199.6924706.1245232 1.1260262.0969505-.2453346-.383234-.6306343-.5774651-1.0220337-.6664944-.3949509-.0696907-.8206444-.0404205-1.183445.2175217z" fill="#ffde9b"/></g></g><g><g><path d="m45.4548912 32.6198654c.4038162-.1668625.6884918-.3731537.9850235-.5841408.2856789-.2270393.5623016-.4444828.8418732-.7954388-.4321327-.0760307-.8308334.0852509-1.1614914.3236389-.3197861.254427-.5928002.6005345-.6654053 1.0559407z" fill="#ffde9b"/></g></g><g><g><path d="m45.1852531 56.5232506c-.2699432-.358139-.5404396-.5844421-.8186722-.8213272-.2895546-.2212029-.5677872-.4361115-.9677086-.6146507.0584297.4582939.3217964.8129311.6349068 1.0761681.3244324.2475738.7180481.4209098 1.151474.3598098z" fill="#ffde9b"/></g></g><g><g><path d="m53.8458519 35.7954941c-.3668747.2438507-.6096916.5027695-.863327.7686615-.2401161.2795029-.4730682.5478058-.6851845.947834.4378548-.0108604.800705-.2481804 1.0829926-.5477715.2687873-.3131828.4752998-.7071609.4655189-1.168724z" fill="#ffde9b"/></g></g></g><g><path d="m40.9404602 60.0316162c-.3848381 1.7066078-.4155617 2.4054604-.0615425 4.111969.0769501.3413467.0923576.7638321-.1538963 1.0239334-.2001228.2112885-.538826.2599945-.6619987.5200958-.0923576.1787567-.0461311.3737793-.0461311.5688019 0 1.072731-1.2314529 1.6090012-2.2320633 1.8365631-.4156532.0975113-.8620262.1950226-1.2622719.0649719-.2616615-.0812454-.4925995-.2600021-.754261-.3575134-1.2468643-.4551239-2.4783173 1.0726318-3.7714062.8613434-.9081593-.1462173-1.4931164-1.0726318-2.0934811-1.8202896-.6157742-.7312927-2.3090115-1.2839279-3.0632744-.7312927-.1539898.113678-.3078861.276268-.4925995.2437286-.1847134-.0162659-.2924786-.1950226-.3848362-.3575134-.0923557.0649796-.2155304.0649796-.3386097.0649796-.6157742-.0325394-1.2469559-.0975113-1.8626366-.1950226-.3694267-.0649796-.7696705-.1463242-1.031332-.438858-.2617569-.276268-.3541126-.7151184-.6620007-.9264145-.2770691-.2111893-.6464958-.1787567-.969698-.2599945-.3848343-.0812454-.7235394-.2925415-.9697933-.6013451-.2463455-.2925339-.4002438-.6988525-.7389469-.8451691-.2001209-.0975113-.4155579-.0975113-.6156807-.1462212-.2463455-.0650711-.4771919-.2438278-.6927223-.4063148-.3848343-.2925377-1.062149-.6501465-1.4469833-1.1214371-1.2007313-.5363693-2.2628813-1.0727348-2.8939695-1.5602951-.2155304-.162487-.4463749-.3737793-.5234175-.6338768-.0615396-.2599983 0-.5200958-.0307226-.780098-.0462255-.7476578-.7389479-1.2514877-1.4008532-1.4952164-.6464968-.2600975-1.3853512-.3738785-1.9394913-.8289032-.1231737-.113781-.2617559-.276268-.2771645-.4551201-.0153141-.1950264.0923567-.390049.1693993-.5850754.3077936-.8451691-.538826-1.4789467-1.293088-1.9340706-.7388535-.4712906-1.6162896-.7475586-2.1704297-1.4465103-.0770421-.0975151-.1385822-.2112961-.1385822-.3412437.0154085-.1463165.2001219-.227562.2309389-.3738785.6310887-2.9417305-1.2468624-4.3069-1.8010969-5.0220222-.5387316-.7313881 1.1083746-3.0229721 1.2161398-4.3069954.0615396-.8126335-.1231737-1.739048.3848352-2.3403893.7388539-.8938789 1.8164115-1.1214409 2.6476216-1.9340744.4464693-.438755.4640427-.5764961.9543839-.9751205 3.1698599-2.576931 2.1581192-.2376022 6.0804167-1.0564613.2873173-.0599861.6157742-.0487061.8466187.1463165.1693993.1300507.2463474.3737793.3232956.5688057.4463749 1.072731 3.7097721 1.3978043 4.7719212 1.739048 1.062149.3250732 2.1859322.4388504 3.2172642.8451691.1693058.0649757.3694267.162487.4617844.3413429.1539898.276268.0154076.6175079-.0154095.9425812-.0769482.9589539.9082527 1.5928307 1.7548714 1.9828796 1.0159245.4875603 2.0473499.9588509 3.0632744 1.4302406.230938.113781.4771919.2274628.6157742.4550247.2001209.3088036.1077652.7313919.1231728 1.1051712.0615406.9752197.8620281 1.739048 1.6932392 2.1453629.8466187.4063187 1.7855949.5689049 2.6168976.9913902.8466187.4063148 1.616291 1.2189484 1.616291 2.1941719.0154076.3737793-.1077652.7475586-.0462265 1.1377068.0770416.4875603.4002457.9425812.8004875 1.2189484 4.8181456 3.2505341 3.494335 6.6147499 3.2479895 7.7361908z" fill="#ffde9b"/></g></g><g><g><path d="m21.2518406 43.1418953c.430727.8881607.3992367 1.812664-.0624371 2.0622215-.4706783.2544289-1.1905403-.2639313-1.6212673-1.1520958-.4375305-.9021873-.4150448-1.8218231.0556335-2.0762482.4616738-.2495574 1.1905404.2639313 1.6280709 1.1661225z" fill="#ffd06c"/></g><g><path d="m26.2038479 55.7190628c.1886749.6323013.0311031 1.24506-.3457241 1.3675728-.3841801.1249046-.8398781-.2884712-1.028553-.9207726-.1916542-.6422844-.0414333-1.2526512.3427448-1.3775558.3768291-.1225128.8398781.2884674 1.0315323.9307556z" fill="#ffd06c"/></g><g><path d="m38.1930771 65.2657242c.1545258.5185318-.0305443 1.0396652-.407196 1.1627579-.3840027.1255035-.8119125-.1952972-.9664383-.7138214-.1569672-.5267181.0207596-1.0454483.4047585-1.1709518.3766517-.1230928.8119124.1952971.9688758.7220153z" fill="#ffd06c"/></g><g><path d="m32.3865166 63.6877899c.7835007-.2969475 1.5620651-.1129036 1.7372894.4025116.1786423.5254745-.3147507 1.1802444-1.0982552 1.4771957-.7958717.3016357-1.5710182.1276474-1.7496605-.3978271-.1752243-.515419.3147507-1.1802406 1.1106263-1.4818802z" fill="#ffd06c"/></g><g><path d="m25.5182476 61.6601448c.6238747.0716553 1.0940971.4676247 1.0518055.8780327-.0431156.4184151-.5821629.6903648-1.2060394.6187096-.6337261-.0727882-1.1047745-.4607506-1.061657-.8791656.0422898-.4104081.5821629-.6903649 1.2158909-.6175767z" fill="#ffd06c"/></g><g><path d="m37.599926 56.9044647c.3720703-.6610107.950058-1.022419 1.2861748-.8114853.3426743.2150536.3117027.9197464-.0603676 1.5807571-.3779449.6714478-.949379 1.036972-1.2920532.8219223-.3361168-.2109374-.311699-.9197463.066246-1.5911941z" fill="#ffd06c"/></g><g><path d="m32.6231384 51.8384285c.6233559-.0763588 1.1650696.1994972 1.2101021.6095505.0459099.4180489-.4225121.809536-1.0458679.8858948-.6332016.0775642-1.1740341-.1902924-1.219944-.608345-.0450325-.4100495.4225101-.8095361 1.0557098-.8871003z" fill="#ffd06c"/></g><g><path d="m31.9042568 57.9032097c.6249905-.0598183 1.1599865.2303276 1.195261.6414757.0359612.4191666-.4416313.7981453-1.0666237.8579636-.6348572.0607643-1.1691666-.2213631-1.2051277-.6405296-.0352726-.4111482.4416313-.7981454 1.0764904-.8589097z" fill="#ffd06c"/></g><g><path d="m18.8962612 48.893158c.6094685.3751373.9416199.9732666.7458229 1.3308296-.1996155.3645363-.8504143.34832-1.4598846-.0268173-.6190929-.3810616-.9550629-.9722176-.7554474-1.3367538.195795-.3575593.8504143-.3483201 1.4695091.0327415z" fill="#ffd06c"/></g><g><path d="m26.0803909 43.78965c.6754112-.2150841 1.3162899-.0639343 1.4305744.3310509.1165123.4026909-.3383732.8943672-1.0137863 1.1094513-.6860771.2184792-1.3247261.0750351-1.4412384-.3276558-.1142845-.3949853.3383732-.8943673 1.0244503-1.1128464z" fill="#ffd06c"/></g><g><path d="m14.3831835 37.0115585c.6667404.2433891 1.1023111.7622414.9758015 1.1530457-.1289768.3984261-.7704363.5155869-1.4371767.2721977-.677269-.2472382-1.1153078-.7584648-.98633-1.1568909.1265096-.3908042.7704362-.5155906 1.4477052-.2683525z" fill="#ffd06c"/></g><g><path d="m7.8520813 44.7155457c.6859245.2067757 1.1562214.7027283 1.0530252 1.1017189-.1052103.4067726-.7434559.5601578-1.4293799.3533821-.6967559-.210041-1.1690664-.6982079-1.0638566-1.1049805.1031971-.3989906.7434554-.5601616 1.4402113-.3501205z" fill="#ffd06c"/></g><g><path d="m12.7757387 42.6228104c.7650356.7835274 1.1215181 1.7038765.8023386 2.0512505-.3254051.3541489-1.2013378-.0008659-1.9663725-.7843933-.7771168-.7959061-1.1398258-1.7094765-.8144197-2.0636253.3191795-.3473741 1.2013378.000862 1.9784536.7967681z" fill="#ffd06c"/></g><g><path d="m12.7150984 51.3723717c.8070469.4541817 1.2835388 1.1741409 1.0687933 1.6019363-.2189341.4361382-1.0449142.4123955-1.8519602-.0417862-.8197908-.4613571-1.3004723-1.1729736-1.0815382-1.6091118.2147455-.4277954 1.0449142-.4123954 1.8647051.0489617z" fill="#ffd06c"/></g><g><path d="m25.5947685 48.8347969c.5639954-.271225 1.1546268-.1717758 1.3174229.2156219.1659698.3949547-.1597195.9259758-.7237148 1.1972008-.5729008.2755089-1.1603565.1836166-1.3263283-.211338-.1627941-.3873978.1597195-.9259758.7326202-1.2014847z" fill="#ffd06c"/></g><g><path d="m18.5650997 57.7768974c.6429253.5424423.8946877 1.3322639.5683804 1.7581367-.332674.4341812-1.1154881.3374481-1.7584133-.2049942-.65308-.5510063-.9112072-1.3325195-.5785332-1.7667007.3263073-.4258766 1.1154861-.3374481 1.7685661.2135582z" fill="#ffd06c"/></g></g></g><g><g><g><g><path d="m90.5471725 90.9048767c-20.4078064 12.4340744-35.2705917 4.0326843-39.0894051-.3207245-1.0692863-1.2068024-1.6191711-2.7648163-1.6497536-4.3535004-.0304871-.595665.0458717-1.2220001.1680984-1.8177567l1.390007-6.4614029 44.6801071-9.2873764s.0152893.1069412.0610657.320816c.2902298 1.3442307 1.3442307 6.6294022 1.5428162 8.1875076.8096315 6.9655153-4.5062178 12.1438448-7.1029357 13.7324373z" fill="#f3a250"/></g><g><path d="m84.678978 86.1249695c-7.6182709 3.6095047-13.5487518 6.3436508-27.6279335-.1454849-15.0485001-6.9365845 3.8392715-18.9360428 3.8392715-18.9360428 6.8146782-4.8629837 14.6401787-8.983429 20.4811134-8.5774651 0 0 9.9680481-.5935402 13.7400284 7.3238335 3.7546158 7.9167785-2.6221313 16.6632538-10.4324798 20.3351593z" fill="#ffde9b"/></g><g><path d="m71.0233841 88.8518066c-3.8257904-.1301651-8.2544823-1.3771133-13.5391502-3.8127136-3.3119278-1.5268784-5.0643044-3.385231-5.2074013-5.5244675-.3050804-4.5413666 6.5151443-9.9113007 9.1689835-11.5969772 7.8674088-5.612587 14.7718048-8.5982056 19.487915-8.4377518l.3653336.0191765c.1560287-.0005951.4888458-.0171013 1.0363541.0015259 2.6389694.0897865 9.0735092.925148 11.8408432 6.7351189 1.2440033 2.6227875 1.3420715 5.4410248.2901993 8.3744583-1.5345078 4.2797699-5.4536972 8.3325119-10.2280197 10.576828-4.3481141 2.0606384-8.1013719 3.8387833-13.2150575 3.6648025z" fill="#ffd06c"/></g></g><g><path d="m90.5438843 90.9012527c-20.4049911 12.4313583-35.2655716 4.0332108-39.0899811-.3109283-1.0641518-1.2105865-1.6156425-2.7664566-1.6478767-4.3565216 4.1014023 3.8181763 12.8470306 9.2905731 27.425602 6.2380753 21.5343628-4.5089188 19.2512131-20.7979507 18.8763809-23.4876251.2825699 1.3394852 1.3462524 6.625885 1.5349579 8.1866989.8163223 6.9704666-4.5063706 12.1433181-7.099083 13.7303008z" fill="#e08f46"/></g><g><path d="m92.9507065 75.4914932c-.0450974.3093262-.1424866.6341553-.3881226.7467041-.1415558.0988007-.3479691.0744934-.5043335.1036453-1.5458984.2583618-1.4094238 3.3544006-2.9535522 3.5609665-.2427063.0262146-.4830704-.0164337-.7090912.0276337-.4347916.0888214-.7403488.4411469-.9608383.8308334-.6051025 1.0328979-.9649048 2.4714279-2.0765991 2.6581268-.5216064.1031647-1.0660019-.1398849-1.5697556-.0534058-.7285995.0961227-1.2862549.750618-1.6214066 1.464653-.2787552.5776596-.493721 1.3129654-1.0890884 1.5518112-.2266159.0613327-.4514694.0709763-.6757355.0633392-.6905441-.0062027-1.4128036-.099823-2.0807953-.2607422-.3254242-.0801163-.7020493-.1793671-1.0149002-.1208572-.4157562.0376053-.7701797.3019409-1.1240158.5488968-1.0251083.6905594-2.2359467 1.2537918-3.4549103 1.0396576-1.6317749-.2628632-2.8238831-1.7713776-4.3985825-2.1876678-1.3701553-.3401871-2.8218307.19767-4.2571793.2524567-1.4014053.0732269-3.1202507-.6761169-3.25951-2.1660995-.0227966-.3462067.0246506-.7244949-.1741295-.9730759-.1506081-.1433182-.3564301-.1848907-.545578-.2085114-.979187-.1542206-2.0005379-.08535-2.9992332-.1711884-1.0160713-.0863266-2.0434341-.3458099-2.8141098-1.0456009-.7718506-.6652679-1.1970482-1.8714066-.7841301-2.8417892.0570869-.1535416.1485977-.3058014.255619-.4057846.1594124-.1154785.3330498-.1441498.5072708-.1899796 1.4672928-.4854584 2.3510437-2.0961151 2.8190346-3.6690598.059433-.2225037.1377907-.4962234.3144684-.6111221.249054-.2159424.5929146-.1697769.9045868-.1936417.9000015-.0558167 1.6318779-.7562485 2.1592102-1.5327911.5623474-.7925339.9033661-1.679039 1.4979019-2.4014282.1985321-.252243.4131622-.4694672.6754837-.5641632.3496246-.126297.708992-.0277405 1.0873833.0197067 1.3229408.200386 2.704586-.305275 3.6707115-1.2913055.7170639-.7700882 1.1829529-1.7731476 2.0654373-2.330368 1.023941-.6560287 2.3302994-.4733887 3.5127182-.7094421 1.0450821-.2581177 2.0155563-.8641014 2.7016068-1.7387581.3602905-.4367943.6187363-.9288101 1.0118027-1.3127289.3756943-.3844109.8324432-.6106834 1.3082199-.8880653.5096207-.2590485 1.8414764-.3173561 3.1370239-.3250351 1.8309097-.0068588 3.6649933.4009743 5.3659897 1.1669998.5782471.2613792 1.1738663.5234566 1.7521057.7849426.169632.0921059.3742828.1682167.4540634.3608818.1137238.2111092.0341949.5192604.0259781.7607918-.0928879 1.2058029 1.1411285 1.9904099 2.1592102 2.525856 1.0185623.51828 2.1581345 1.5413818 1.8428421 2.6878586-.0967941.3075638-.313179.5764847-.41008.8840408-.3249283.9216232.1258621 1.8868179.4231033 2.7950363.3430788 1.0824433.4072496 2.2417222.2139055 3.3577729z" fill="#ffde9b"/></g><g><g><path d="m89.0589142 67.5527573c-.0170212.5002289-.8591003.886055-1.8940964.8508453-1.0178299-.0346298-1.8317337-.476799-1.8147202-.9770279.0170288-.5003357.8585205-.8688965 1.8763504-.8342667 1.0349885.0352097 1.8494874.4601136 1.8324662.9604493z" fill="#ffd06c"/></g><g><path d="m84.0694351 63.2526894c-.0153275.4505119-.7737122.7979927-1.7058411.7662773-.9166641-.0311852-1.6496811-.4294052-1.6343536-.8799171.0153275-.4506073.7731857-.7825394 1.6898575-.7513504.9321289.0317115 1.6656723.4143829 1.6503372.8649902z" fill="#ffd06c"/></g><g><path d="m84.6102448 79.7989197c.1662979.6396713-.7544556 1.4446716-2.0774384 1.7891617-1.3010483.3387833-2.4970627.0849686-2.6633606-.5547028-.1663361-.6398087.7601624-1.4227295 2.061203-1.7615051 1.3229828-.3444901 2.5132599-.1127625 2.679596.5270462z" fill="#ffd06c"/></g><g><path d="m90.4608307 75.2671356c-.185112.4650116-1.1078873.5438766-2.0698624.1613998-.946022-.3761368-1.5624008-1.0669708-1.3772888-1.5319824.1851501-.4651108 1.1015396-.5279236 2.0475616-.1517792.9619751.3824769 1.5847474 1.0572587 1.3995896 1.5223618z" fill="#ffd06c"/></g><g><path d="m83.6709671 71.124527c-.0969772.8635941-1.6067581 1.4187851-3.3936462 1.219368-1.7572632-.196106-3.1065063-1.0703659-3.0095291-1.93396.0970078-.8637772 1.6034393-1.3891602 3.3606949-1.1930466 1.7868957.1994171 3.1394882 1.0438614 3.0424804 1.9076386z" fill="#ffd06c"/></g><g><path d="m62.6873589 77.1189423c-.1200638.6018906-1.2158585.9014664-2.4613991.6532669-1.2248878-.2440872-2.1219521-.9407806-2.0018883-1.5426712.1200867-.6020203 1.2117386-.8808136 2.4366264-.6367264 1.2455407.2481994 2.1467514.924118 2.026661 1.5261307z" fill="#ffd06c"/></g><g><path d="m71.1773376 69.4403992c-.0847397.4248047-.8581314.6362381-1.7372055.4610596-.864502-.1722717-1.4976349-.6639862-1.4128952-1.0887909.0847549-.4248886.8552246-.6216583 1.7197189-.4493866.8790818.1751785 1.5151368.6522293 1.4303818 1.0771179z" fill="#ffd06c"/></g><g><path d="m77.9693298 66.4537582c-.0783157.3925781-.7930374.5879745-1.605423.4260864-.7989197-.1592026-1.3840179-.6136169-1.3057098-1.0061874.078331-.392662.7903442-.574501 1.5892639-.4152985.8123856.1618806 1.4001923.6027451 1.3218689.9953995z" fill="#ffd06c"/></g><g><path d="m80.663063 76.6728058c-.0986023.589119-1.1763229.9240341-2.4292374.7000198-1.2164459-.2009506-2.1337357-.8740234-2.0331802-1.4822922.0984879-.5891342 1.1934128-.9030685 2.4080353-.6829529 1.2548523.204979 2.1549301.8569565 2.0543823 1.4652253z" fill="#ffd06c"/></g><g><path d="m66.1441498 82.292923c-.0847397.4248047-.8581314.6362381-1.7372055.4610596-.864502-.1722717-1.4976349-.6639862-1.4128952-1.0887833.0847549-.4248962.8552208-.621666 1.7197266-.4493942.879074.1751785 1.515129.6522293 1.4303741 1.0771179z" fill="#ffd06c"/></g><g><path d="m75.0284958 82.3129959c.0498352.6117172-.9215622 1.2006989-2.1873627 1.3040848-1.2448044.1016769-2.2986832-.3218765-2.3485107-.9335861-.0498428-.6118469.9232712-1.1797104 2.1680832-1.2813873 1.2657928-.1033936 2.317955.2990417 2.3677902.9108886z" fill="#ffd06c"/></g><g><path d="m71.2820358 75.0550232c-.0281372.7113342-1.2290192 1.2537384-2.7010117 1.1958542-1.4475784-.0569229-2.6018829-.6919403-2.5737457-1.4032745.0281448-.7114868 1.2280502-1.2293396 2.6756363-1.1724167 1.4719925.0578842 2.627266.6683502 2.5991211 1.379837z" fill="#ffd06c"/></g></g></g><g><g><g><path d="m79.4654236 92.5884094c-.3180313.3182755-.5065994.6197891-.7045975.9304886-.1811905.3200455-.3576355.6278534-.4832764 1.0532379.442543-.118782.7579422-.4299698.9774857-.7791901.2027512-.3585281.3240662-.7768783.2103882-1.2045364z" fill="#e28e42"/></g></g><g><g><path d="m92.7903824 85.1891098c-.0375748.5734482.0034943 1.0732193.0210648 1.5862579.0369339.5122833.0501709 1.012764.1512909 1.5810623.3375854-.4733047.4389191-1.0475082.4176865-1.6037521-.0405656-.5554962-.2039262-1.1187439-.5900422-1.5635681z" fill="#e28e42"/></g></g><g><g><path d="m90.4666061 86.5139084c-.6770248-.1589737-1.2306747-.1601563-1.8040314-.166275-.5728531.0238419-1.1255264.0439453-1.7972412.2283173.5048828.4885712 1.1703339.6499023 1.8124084.6527939.6416093-.027031 1.3004762-.2113496 1.7888642-.7148362z" fill="#e28e42"/></g></g><g><g><path d="m96.3612595 77.1910095c-.1752472.4977341-.2238617.9133224-.2777939 1.343399-.0318527.4317017-.0647354.8479614.0129166 1.3645782.4027252-.34655.5786972-.8354263.6362-1.3173065.0354384-.4834975-.043274-.9904555-.3713227-1.3906707z" fill="#e28e42"/></g></g><g><g><path d="m84.9358215 87.970932c-.5979691.2756653-1.0119171.5972366-1.4434357.9265976-.413681.3514328-.8144989.6883163-1.2084351 1.2171631.6615067.0706558 1.2521896-.1964798 1.733139-.5682755.4631349-.3938598.8475267-.915184.9187318-1.5754852z" fill="#e28e42"/></g></g><g><g><path d="m73.6261826 91.7314758c-.4389038-.005806-.7802277.0688171-1.1343918.1430969-.3497696.0926895-.6876068.1802902-1.0764694.3854141.3776398.2324677.8097076.2413406 1.2057953.1557236.3917159-.1040115.7726745-.3073501 1.0050659-.6842346z" fill="#e28e42"/></g></g><g><g><path d="m79.3906555 90.668541c-.4313507-.0815659-.7805252-.0670319-1.1422653-.0550461-.360611.0308685-.70858.0587997-1.1271057.1936646.3318939.29422.7559967.377594 1.1609955.3616943.403862-.0347824.8142776-.1692429 1.1083755-.5003128z" fill="#e28e42"/></g></g><g><g><path d="m87.9622269 90.5240936c-.6393967.040596-1.1324692.1940842-1.6442261.348465-.5043716.1822128-.9916534.3552933-1.5468826.7150192.562439.315239 1.1920776.2800827 1.7642517.1035004.5648346-.2043839 1.1086426-.5604706 1.426857-1.1669846z" fill="#e28e42"/></g></g><g><g><path d="m79.1559372 92.6133118c-.3180313.3182755-.5065994.6197891-.7045975.9304962-.1811905.3200378-.3576355.6278458-.4832764 1.0532303.442543-.118782.7579422-.4299698.9774857-.7791824.2027512-.3585358.3240662-.7768861.2103882-1.2045441z" fill="#ffde9b"/></g></g><g><g><path d="m69.4075851 91.0064697c-.5515442.2291946-.9320755.5039902-1.3288498.7852707-.380043.3013763-.7482986.590126-1.1083527 1.0496445.6136932.0801544 1.1585541-.1416626 1.6007309-.459343.4254609-.337738.7767259-.7908096.8364716-1.3755722z" fill="#e28e42"/></g></g><g><g><path d="m69.0059967 90.8787994c-.5515366.229187-.9320755.5039902-1.3288422.7852631-.380043.301384-.7482986.590126-1.1083603 1.0496445.6137009.0801544 1.1585617-.141655 1.6007309-.459343.4254609-.337738.7767334-.7908096.8364716-1.3755646z" fill="#ffde9b"/></g></g><g><g><path d="m59.0458145 92.5999832c-.5155258-.0276642-.9195023.0413589-1.3385506.1093674-.4146042.0892792-.8149948.1733017-1.2798119.3892822.4348869.283905.9422646.3147049 1.4110069.235733.4642945-.1002044.9197465-.3145141 1.2073556-.7343826z" fill="#e28e42"/></g></g><g><g><path d="m58.7923775 92.3573914c-.5155258-.0276642-.9195061.0413589-1.3385506.1093674-.4146042.0892792-.8149948.1733093-1.2798157.3892822.4348869.283905.9422646.3147125 1.4110107.235733.4642945-.1002045.9197465-.3145142 1.2073556-.7343826z" fill="#ffde9b"/></g></g><g><g><path d="m66.4161606 95.3073959c-.4988861-.2157669-.9235992-.2941132-1.3628159-.3789749-.4427567-.0619659-.8695145-.1239929-1.4090385-.0775223.3238258.4426956.8134956.658638 1.3058891.7506561.4958954.0691605 1.0255509.0209428 1.4659653-.2941589z" fill="#e28e42"/></g></g><g><g><path d="m66.2561722 94.9722366c-.4988861-.2157669-.9236069-.2941132-1.3628235-.3789749-.442749-.0619659-.8695068-.1239929-1.4090347-.0775223.3238258.4426956.8134995.658638 1.3058853.7506561.495903.0691605 1.0255585.0209428 1.4659729-.2941589z" fill="#ffde9b"/></g></g><g><g><path d="m62.7629128 90.8769913c-.4051399-.3455429-.7825394-.5409241-1.1716423-.746582-.3995056-.1851883-.7838707-.3658524-1.3083267-.4771347.1696205.50811.5659943.8511734 1.0031624 1.078804.4475364.207199.9631957.3140106 1.4768066.1449127z" fill="#e28e42"/></g></g><g><g><path d="m62.7150269 90.5167542c-.4051399-.3455505-.7825394-.5409317-1.1716423-.746582-.3995094-.1851959-.7838707-.3658524-1.3083305-.4771347.1696243.50811.5659981.8511734 1.0031624 1.078804.4475402.2071914.9631995.3140029 1.4768104.1449127z" fill="#ffde9b"/></g></g><g><g><path d="m57.2744751 89.2751846c-.2102089-.489212-.4620514-.8314972-.7198372-1.1881714-.2761765-.3429413-.5407791-.6751099-.9617157-1.007103-.072937.5306854.1305122 1.0137863.4216614 1.4114456.309494.3839341.7245178.7080232 1.2598915.7838288z" fill="#e28e42"/></g></g><g><g><path d="m57.3910751 88.9309845c-.2102089-.489212-.4620514-.8314972-.719841-1.1881714-.2761726-.3429413-.5407791-.6751099-.9617119-1.007103-.0729408.5306854.1305122 1.0137863.4216576 1.4114456.309494.3839341.7245216.7080231 1.2598953.7838288z" fill="#ffde9b"/></g></g><g><g><path d="m52.5937233 87.6831055c-.1811714-.5006638-.4125214-.8571014-.6489639-1.2282562-.2556-.3585205-.5002861-.7056122-.9010429-1.0616913-.1039314.5254669.0708542 1.0196381.3381958 1.4336624.2864608.4013977.6817855.749237 1.211811.8562851z" fill="#e28e42"/></g></g><g><g><path d="m52.7303085 87.3463516c-.1811752-.5006714-.4125252-.8571091-.6489639-1.2282639-.2556038-.3585205-.5002861-.7056122-.9010468-1.0616837-.1039314.5254669.0708542 1.0196381.3381958 1.4336624.2864609.4013978.6817856.7492372 1.2118149.8562852z" fill="#ffde9b"/></g></g><g><g><path d="m92.4824066 85.1969681c-.0375748.5734482.0034943 1.0732193.0210648 1.5862579.0369339.5122833.0501709 1.012764.1512909 1.5810623.3375854-.4733047.4389191-1.0475082.4176865-1.6037521-.0405656-.5554962-.2039262-1.1187439-.5900422-1.5635681z" fill="#ffde9b"/></g></g><g><g><path d="m89.9931564 86.4580536c-.6770248-.1589737-1.2306747-.1601563-1.8040314-.1662674-.5728531.0238342-1.1255264.0439377-1.7972412.2283096.5048828.4885712 1.1703339.6499023 1.8124084.6527939.6416093-.0270309 1.3004762-.2113495 1.7888642-.7148361z" fill="#ffde9b"/></g></g><g><g><path d="m96.0088882 77.1822662c-.1752472.4977341-.2238693.9133224-.2777939 1.343399-.0318527.4317017-.064743.8479614.0129089 1.3645706.4027328-.3465424.5787048-.8354187.6362076-1.3172989.035431-.4834975-.0432738-.9904555-.3713226-1.3906707z" fill="#ffde9b"/></g></g><g><g><path d="m84.4844284 87.9717407c-.5979614.2756577-1.0119171.597229-1.4434357.92659-.413681.3514404-.8144989.6883163-1.2084351 1.2171707.6615143.0706482 1.2521896-.1964874 1.733139-.5682755.4631349-.3938598.8475267-.915184.9187318-1.5754852z" fill="#ffde9b"/></g></g><g><g><path d="m95.899765 82.1087723c-.6464996-.0363388-1.1539078.0515366-1.6801682.1380768-.5208359.1138229-1.0238266.2209702-1.6087036.4972382.5432587.3649445 1.1795197.405304 1.7682114.3047867.5832901-.1277848 1.1564255-.4019395 1.5206604-.9401017z" fill="#e28e42"/></g></g><g><g><path d="m95.5066299 81.9021225c-.6465073-.0363388-1.1539078.0515442-1.6801682.1380844-.5208435.1138229-1.0238266.2209625-1.6087036.4972382.543251.3649368 1.1795197.405304 1.7682114.3047791.5832901-.1277772 1.1564255-.4019318 1.5206604-.9401017z" fill="#ffde9b"/></g></g><g><g><path d="m73.4320526 91.5015182c-.4389038-.005806-.7802277.0688095-1.1343918.1430969-.3497696.0926819-.6876068.1802902-1.0764694.3854065.3776398.2324753.8097076.2413483 1.2057953.1557312.391716-.1040115.7726746-.3073577 1.0050659-.6842346z" fill="#ffde9b"/></g></g><g><g><path d="m79.1120224 90.7822266c-.4313583-.0815659-.7805328-.0670319-1.1422729-.0550461-.360611.0308685-.70858.0587997-1.1270981.1936646.3318939.29422.7559891.377594 1.1609879.3616943.4038619-.0347824.8142776-.1692429 1.1083831-.5003128z" fill="#ffde9b"/></g></g><g><g><path d="m87.5278931 90.6041336c-.6393967.040596-1.1324692.1940842-1.6442261.348465-.5043793.1822128-.9916534.3552933-1.5468826.7150192.562439.315239 1.1920776.2800827 1.7642517.103508.5648269-.2043915 1.1086349-.5604782 1.426857-1.1669922z" fill="#ffde9b"/></g></g><g><g><path d="m74.7917175 95.2025986c-.4357529-.1654053-.8092194-.2089996-1.1953201-.2576294-.3897476-.0272751-.7653809-.0556564-1.2431717.0236664.275795.3866425.7034225.5528259 1.1363297.6044693.4365692.0303115.9056854-.0499573 1.3021621-.3705063z" fill="#e28e42"/></g></g><g><g><path d="m74.4796448 95.1262894c-.4357529-.1654053-.8092194-.2089996-1.1953278-.2576294-.3897476-.0272751-.7653732-.0556488-1.2431641.0236664.2757874.3866425.7034225.5528336 1.1363297.6044769.4365616.0303116.9056778-.0499649 1.3021622-.3705139z" fill="#ffde9b"/></g></g></g></g></g></svg>