<?xml version="1.0" encoding="iso-8859-1"?>
<!-- Generator: Adobe Illustrator 19.0.0, SVG Export Plug-In . SVG Version: 6.00 Build 0)  -->
<svg version="1.1" id="Capa_1" xmlns="http://www.w3.org/2000/svg" xmlns:xlink="http://www.w3.org/1999/xlink" x="0px" y="0px"
	 viewBox="0 0 512 512" style="enable-background:new 0 0 512 512;" xml:space="preserve">
<g>
	<path style="fill:#FFD5B3;" d="M361.929,326.213v-15.831l-2.082-0.669c-13.555-4.355-25.517-11.656-35.322-21.063h-53.887
		c2.02,1.309,3.362,3.593,3.362,6.166v31.396h87.929V326.213z"/>
	<path style="fill:#FFD5B3;" d="M260,360.433h-37.57v24.918h37.602c-0.018-0.207-0.032-0.414-0.032-0.625L260,360.433L260,360.433z"
		/>
</g>
<path style="fill:#FF484E;" d="M470.566,350.538l-6.19,6.191c-2.201,2.2-5.128,3.412-8.239,3.412c-3.112,0-6.039-1.212-8.239-3.413
	c-2.88-2.88-4.03-6.977-3.078-10.959c0.081-0.338-0.02-0.694-0.266-0.94c-0.189-0.19-0.445-0.293-0.707-0.293
	c-0.078,0-0.155,0.009-0.232,0.027c-0.896,0.214-1.817,0.323-2.738,0.323c-3.109,0-6.029-1.208-8.222-3.4
	c-2.879-2.88-4.029-6.977-3.077-10.959c0.081-0.338-0.02-0.694-0.266-0.939c-0.19-0.19-0.445-0.293-0.707-0.293
	c-0.078,0-0.155,0.009-0.233,0.027c-0.895,0.214-1.816,0.323-2.737,0.323c-3.109,0-6.029-1.208-8.222-3.401
	c-0.749-0.749-1.373-1.587-1.884-2.482v3.017c0,15.629-12.671,28.3-28.301,28.3s-28.3-12.671-28.3-28.3v-1.566h-80.177
	c-0.552,0-1,0.448-1,1V355.7c0,3.45-2.807,6.257-6.257,6.257H255.53v22.77c0,4.007,3.249,7.257,7.256,7.257h34.581v95.784
	c0,4.008,3.249,7.257,7.256,7.257h157.741v-32.523h23.432V401.56C485.798,382.751,480.186,365.232,470.566,350.538z"/>
<path style="fill:#FFB98A;" d="M387.547,316.041c-9.979,0-19.594-1.597-28.618-4.542v15.28c0,15.629,12.67,28.3,28.3,28.3
	c15.63,0,28.301-12.671,28.301-28.3v-15.071C406.691,314.521,397.291,316.041,387.547,316.041z"/>
<path style="fill:#89C947;" d="M271.496,287.489h-88.259c-15.061,10.275-33.206,16.273-52.735,16.273
	c-13.602,0-26.53-2.914-38.215-8.153c-3.408,1.517-6.702,3.24-9.882,5.133l5.494,5.493c4.542,4.544,4.542,11.937,0,16.48
	c-2.193,2.192-5.113,3.4-8.222,3.4c-0.921,0-1.842-0.108-2.738-0.323c-0.077-0.019-0.155-0.027-0.232-0.027
	c-0.262,0-0.518,0.103-0.707,0.293c-0.246,0.246-0.346,0.602-0.266,0.94c0.953,3.981-0.198,8.079-3.078,10.961
	c-2.192,2.192-5.112,3.399-8.22,3.399c-0.921,0-1.842-0.108-2.738-0.323c-0.077-0.019-0.155-0.027-0.232-0.027
	c-0.262,0-0.518,0.103-0.707,0.293c-0.246,0.246-0.346,0.602-0.266,0.94c0.953,3.981-0.197,8.078-3.078,10.958
	c-2.202,2.201-5.128,3.414-8.24,3.414s-6.038-1.212-8.238-3.414l-0.159-0.159c-2.83,8.906-4.367,18.378-4.367,28.202v81.26h23.691
	v32.523h157.482c4.008,0,7.257-3.249,7.257-7.257V362.957h46.656c4.007,0,7.257-3.249,7.257-7.257v-60.884
	C278.752,290.807,275.503,287.489,271.496,287.489z"/>
<path style="fill:#FFD5B3;" d="M62.51,460.467h-26.1v27.301c0,4.008,3.249,7.257,7.256,7.257H62.51V460.467z"/>
<path style="fill:#FFB98A;" d="M130.502,303.763c-9.814,0-19.279-1.515-28.178-4.326v20.131c0,15.629,12.671,28.3,28.3,28.3
	c15.63,0,28.301-12.671,28.301-28.3v-20.212C149.954,302.217,140.406,303.763,130.502,303.763z"/>
<g style="opacity:0.1;">
	<path d="M123.165,319.567v-16.09c-7.203-0.56-14.181-1.938-20.842-4.041v20.131c0,15.629,12.671,28.3,28.3,28.3
		c3.682,0,7.195-0.71,10.421-1.989C130.574,341.726,123.165,331.515,123.165,319.567z"/>
</g>
<g>
	<path style="fill:#FFB98A;" d="M245.552,169.734H221.97v41.494c0,5.634-0.501,11.15-1.458,16.51h25.04
		c8.499,0,15.453-6.953,15.453-15.452v-27.099C261.005,176.688,254.051,169.734,245.552,169.734z"/>
	<path style="fill:#FFB98A;" d="M39.034,211.228v-41.494H15.453C6.954,169.734,0,176.688,0,185.187v27.099
		c0,8.499,6.954,15.452,15.453,15.452h25.039C39.535,222.379,39.034,216.862,39.034,211.228z"/>
</g>
<path style="opacity:0.1;fill:#15004D;enable-background:new    ;" d="M21.119,212.286v-27.099c0-8.499,6.954-15.453,15.453-15.453
	H15.453C6.954,169.734,0,176.688,0,185.187v27.099c0,8.499,6.954,15.452,15.453,15.452h21.119
	C28.072,227.738,21.119,220.785,21.119,212.286z"/>
<path style="fill:#FFD5B3;" d="M194.365,166.734c-0.352,0-0.683-0.188-0.863-0.489l-14.862-24.794
	c-1.016-1.698-2.88-2.754-4.862-2.754c-2.004,0.006-3.872,1.074-4.883,2.786l-14.633,24.757c-0.18,0.305-0.512,0.494-0.865,0.494
	H36.034v44.494c0,52.805,42.296,95.61,94.468,95.61c52.171,0,94.468-42.806,94.468-95.61v-44.494L194.365,166.734L194.365,166.734z"
	/>
<path style="opacity:0.1;fill:#15004D;enable-background:new    ;" d="M57.175,211.228v-44.494H36.034v44.494
	c0,52.805,42.296,95.61,94.468,95.61c3.574,0,7.1-0.208,10.57-0.599C93.877,300.921,57.175,260.416,57.175,211.228z"/>
<g>
	<path style="fill:#A75436;" d="M141.098,232.761h-7.242c-7.058,0-12.799-5.77-12.799-12.861v-16.645c0-4.143,3.358-7.5,7.5-7.5
		s7.5,3.357,7.5,7.5v14.506h5.041c4.142,0,7.5,3.357,7.5,7.5C148.598,229.402,145.24,232.761,141.098,232.761z"/>
	<path style="fill:#A75436;" d="M86.573,213.359c-4.142,0-7.5-3.358-7.5-7.5v-12.506c0-4.143,3.358-7.5,7.5-7.5s7.5,3.357,7.5,7.5
		v12.506C94.073,210.001,90.715,213.359,86.573,213.359z"/>
	<path style="fill:#A75436;" d="M174.432,213.359c-4.142,0-7.5-3.358-7.5-7.5v-12.506c0-4.143,3.358-7.5,7.5-7.5s7.5,3.357,7.5,7.5
		v12.506C181.932,210.001,178.574,213.359,174.432,213.359z"/>
	<path style="fill:#A75436;" d="M133.904,276.948c-17.063,0-32.2-10.266-38.563-26.152c-1.54-3.845,0.329-8.211,4.174-9.751
		c3.845-1.541,8.211,0.329,9.751,4.174c4.07,10.163,13.741,16.73,24.638,16.73c10.894,0,20.562-6.566,24.631-16.729
		c1.539-3.846,5.902-5.716,9.751-4.175c3.845,1.54,5.714,5.905,4.174,9.751C166.1,266.682,150.965,276.948,133.904,276.948z"/>
</g>
<path style="fill:#FFC12E;" d="M194.365,169.734c-1.407,0-2.712-0.738-3.437-1.946l-14.862-24.794
	c-0.479-0.8-1.356-1.297-2.289-1.297c-0.945,0.003-1.823,0.505-2.299,1.312l-14.634,24.758c-0.72,1.22-2.031,1.968-3.448,1.968
	H15.681c-2.212,0-4.005-1.794-4.005-4.006v-22.696c0-64.049,52.107-116.157,116.156-116.157h5.341
	c64.049,0,116.156,52.108,116.156,116.157v22.696c0,2.212-1.793,4.006-4.005,4.006L194.365,169.734L194.365,169.734z"/>
<g style="opacity:0.1;">
	<path d="M32.77,165.728v-22.696c0-61.401,47.891-111.82,108.279-115.884c-2.604-0.176-5.229-0.273-7.876-0.273h-5.341
		c-64.049,0-116.156,52.108-116.156,116.157v22.696c0,2.212,1.793,4.006,4.005,4.006h21.094
		C34.563,169.734,32.77,167.94,32.77,165.728z"/>
</g>
<g>
	<path style="fill:#FCDB80;" d="M130.318,131.257c-4.142,0-7.5,3.358-7.5,7.5v30.978h15v-30.978
		C137.818,134.615,134.46,131.257,130.318,131.257z"/>
	<path style="fill:#FCDB80;" d="M108.973,169.734v-30.978c0-4.142-3.358-7.5-7.5-7.5s-7.5,3.358-7.5,7.5v30.978H108.973z"/>
	<path style="fill:#FCDB80;" d="M80.128,169.734v-30.978c0-4.142-3.358-7.5-7.5-7.5s-7.5,3.358-7.5,7.5v30.978H80.128z"/>
	<path style="fill:#FCDB80;" d="M51.283,169.734v-30.978c0-4.142-3.358-7.5-7.5-7.5s-7.5,3.358-7.5,7.5v30.978H51.283z"/>
</g>
<path style="opacity:0.1;fill:#15004D;enable-background:new    ;" d="M379.681,326.779v-11.076
	c-7.177-0.608-14.124-2.041-20.752-4.204v15.28c0,15.629,12.67,28.3,28.3,28.3c3.665,0,7.162-0.704,10.376-1.972
	C387.111,348.968,379.681,338.744,379.681,326.779z"/>
<path style="fill:#FFB98A;" d="M472.373,332.254c-3.227-3.229-27.255-27.256-30.484-30.484c-4.941-4.941-12.951-4.941-17.892,0
	l-7.29,7.29c-4.942,4.941-4.942,12.95,0,17.893c3.228,3.228,7.763,4.333,11.898,3.344c-0.989,4.136,0.115,8.67,3.342,11.898
	c3.228,3.228,7.764,4.332,11.9,3.343c-0.99,4.137,0.116,8.671,3.343,11.898c4.941,4.941,12.951,4.94,17.893,0.001l7.289-7.291
	C477.314,345.204,477.314,337.194,472.373,332.254z"/>
<path style="fill:#FFD5B3;" d="M63.423,298.239c-3.228,3.228-27.256,27.256-30.484,30.484c-4.941,4.941-4.941,12.951,0,17.893
	l7.291,7.289c4.94,4.942,12.95,4.942,17.893,0c3.227-3.228,4.333-7.764,3.343-11.898c4.135,0.989,8.67-0.115,11.898-3.342
	c3.228-3.229,4.333-7.765,3.343-11.9c4.137,0.989,8.671-0.116,11.899-3.343c4.941-4.942,4.94-12.951,0-17.894l-7.29-7.289
	C76.373,293.299,68.363,293.299,63.423,298.239z"/>
<g>
	<path style="fill:#FFB98A;" d="M296.079,221.43v-41.493h-17.532c-8.499,0-15.453,6.953-15.453,15.452v27.1
		c0,8.499,6.954,15.452,15.453,15.452h18.99C296.58,232.581,296.079,227.063,296.079,221.43z"/>
	<path style="fill:#FFB98A;" d="M496.547,179.936h-17.532v41.493c0,5.634-0.501,11.151-1.458,16.511h18.99
		c8.499,0,15.453-6.953,15.453-15.452v-27.1C512,186.889,505.046,179.936,496.547,179.936z"/>
</g>
<path style="fill:#FFD5B3;" d="M364.653,176.936c-0.354,0-0.686-0.189-0.866-0.495l-14.634-24.759
	c-1.012-1.712-2.879-2.778-4.872-2.784c-1.992,0-3.856,1.057-4.874,2.758l-14.86,24.791c-0.181,0.302-0.511,0.489-0.863,0.489
	h-30.605v44.493c0,52.805,42.297,95.611,94.468,95.611c52.172,0,94.468-42.807,94.468-95.611v-44.493H364.653z"/>
<path style="opacity:0.1;fill:#15004D;enable-background:new    ;" d="M314.307,221.43v-44.493h-21.228v44.493
	c0,52.805,42.297,95.611,94.468,95.611c3.589,0,7.129-0.21,10.614-0.605C350.986,311.097,314.307,270.601,314.307,221.43z"/>
<g>
	<path style="fill:#A75436;" d="M398.142,242.961H390.9c-7.057,0-12.799-5.769-12.799-12.859v-16.645c0-4.143,3.358-7.5,7.5-7.5
		s7.5,3.357,7.5,7.5v14.504h5.041c4.142,0,7.5,3.357,7.5,7.5C405.642,239.602,402.284,242.961,398.142,242.961z"/>
	<path style="fill:#A75436;" d="M343.618,223.559c-4.142,0-7.5-3.358-7.5-7.5v-12.505c0-4.143,3.358-7.5,7.5-7.5s7.5,3.357,7.5,7.5
		v12.505C351.118,220.201,347.76,223.559,343.618,223.559z"/>
	<path style="fill:#A75436;" d="M431.476,223.559c-4.142,0-7.5-3.358-7.5-7.5v-12.505c0-4.143,3.358-7.5,7.5-7.5s7.5,3.357,7.5,7.5
		v12.505C438.976,220.201,435.618,223.559,431.476,223.559z"/>
	<path style="fill:#A75436;" d="M390.903,287.149c-17.064,0-32.2-10.266-38.561-26.152c-1.54-3.846,0.329-8.211,4.174-9.751
		c3.846-1.541,8.211,0.33,9.75,4.175c4.069,10.162,13.74,16.729,24.637,16.729c10.894,0,20.563-6.566,24.632-16.729
		c1.54-3.846,5.904-5.716,9.75-4.175c3.845,1.54,5.714,5.905,4.174,9.751C423.099,276.884,407.964,287.149,390.903,287.149z"/>
</g>
<path style="fill:#0481BF;" d="M390.217,37.077h-5.34c-3.849,0-7.653,0.192-11.407,0.561l4.216-3.146
	c3.32-2.477,4.004-7.176,1.526-10.496c-2.477-3.319-7.175-4.003-10.497-1.526l-21.22,15.834l4.584-10.926
	c1.603-3.819-0.195-8.215-4.014-9.817c-3.819-1.601-8.215,0.194-9.818,4.014l-13.575,32.354
	c-33.519,20.397-55.952,57.28-55.952,99.305v22.697c0,2.212,1.794,4.006,4.006,4.006h50.958c1.407,0,2.712-0.739,3.436-1.946
	l14.862-24.794c0.479-0.801,1.357-1.298,2.29-1.298c0.945,0.003,1.823,0.505,2.299,1.311l14.634,24.76
	c0.721,1.22,2.031,1.968,3.448,1.968h137.715c2.212,0,4.005-1.794,4.005-4.006v-22.697
	C506.373,89.184,454.267,37.077,390.217,37.077z"/>
<path style="fill:#89C947;" d="M403.566,452.234c-0.72,0-1.443-0.172-2.104-0.52l-15.499-8.148l-15.499,8.148
	c-0.662,0.348-1.385,0.52-2.105,0.52c-0.938,0-1.871-0.292-2.659-0.864c-1.393-1.012-2.09-2.727-1.8-4.424l2.96-17.258
	l-12.539-12.223c-1.233-1.201-1.676-2.999-1.145-4.637c0.532-1.637,1.948-2.831,3.651-3.078l17.328-2.518l7.749-15.702
	c0.762-1.544,2.334-2.521,4.057-2.521c1.722,0,3.294,0.978,4.056,2.521l7.75,15.702l17.328,2.518
	c1.704,0.247,3.12,1.441,3.651,3.078c0.532,1.638,0.089,3.435-1.145,4.637l-12.538,12.223l2.96,17.258
	c0.291,1.697-0.407,3.412-1.799,4.424C405.437,451.942,404.503,452.234,403.566,452.234z"/>
<path style="fill:#FF484E;" d="M150.217,442.061c-0.72,0-1.443-0.172-2.104-0.52l-15.499-8.148l-15.499,8.148
	c-0.662,0.348-1.384,0.52-2.104,0.52c-0.938,0-1.871-0.292-2.66-0.864c-1.392-1.012-2.09-2.727-1.799-4.424l2.96-17.258
	l-12.539-12.223c-1.233-1.201-1.676-2.999-1.144-4.637c0.532-1.637,1.948-2.831,3.651-3.079l17.328-2.518l7.748-15.701
	c0.762-1.544,2.335-2.521,4.057-2.521s3.294,0.977,4.056,2.521l7.749,15.701l17.328,2.518c1.704,0.248,3.119,1.442,3.651,3.079
	c0.532,1.638,0.088,3.436-1.145,4.637l-12.538,12.223l2.96,17.258c0.29,1.697-0.407,3.412-1.8,4.424
	C152.087,441.769,151.154,442.061,150.217,442.061z"/>
<path style="fill:#FFD5B3;" d="M460.164,460.467v34.558h18.377c4.008,0,7.257-3.249,7.257-7.257v-27.301L460.164,460.467
	L460.164,460.467z"/>
<g>
</g>
<g>
</g>
<g>
</g>
<g>
</g>
<g>
</g>
<g>
</g>
<g>
</g>
<g>
</g>
<g>
</g>
<g>
</g>
<g>
</g>
<g>
</g>
<g>
</g>
<g>
</g>
<g>
</g>
</svg>
