<?xml version="1.0" encoding="UTF-8" standalone="no"?>
<!-- Created with Inkscape (http://www.inkscape.org/) -->

<svg
   version="1.1"
   id="svg159"
   width="682.66669"
   height="682.66669"
   viewBox="0 0 682.66669 682.66669"
   xmlns="http://www.w3.org/2000/svg"
   xmlns:svg="http://www.w3.org/2000/svg">
  <defs
     id="defs163">
    <clipPath
       clipPathUnits="userSpaceOnUse"
       id="clipPath173">
      <path
         d="M 0,512 H 512 V 0 H 0 Z"
         id="path171" />
    </clipPath>
  </defs>
  <g
     id="g165"
     transform="matrix(1.3333333,0,0,-1.3333333,0,682.66667)">
    <g
       id="g167">
      <g
         id="g169"
         clip-path="url(#clipPath173)">
        <g
           id="g175"
           transform="translate(282.4772,482.5513)">
          <path
             d="m 0,0 c 6.667,2.371 13.843,3.666 21.324,3.666 l 14.549,-22.045 c 0.815,0.01 1.629,0.027 2.447,0.027 11.926,0 23.594,-1.102 34.916,-3.192 8.887,29.501 36.254,50.993 68.652,50.993 39.6,0 71.701,-32.102 71.701,-71.701 h -15 l 15,-90.825 c 10.236,-23.423 15.934,-49.282 15.934,-76.478 0,-11.696 -1.055,-23.144 -3.066,-34.26 l -15.261,-84.366 C 198.593,-397.845 137.641,-450.684 64.344,-450.684 h -90.821 l -45,241.129 45,234.403 C -15.857,18.702 -6.792,10.174 0,0"
             style="fill:#925442;fill-opacity:1;fill-rule:nonzero;stroke:none"
             id="path177" />
        </g>
        <g
           id="g179"
           transform="translate(456.2324,480.1328)">
          <path
             d="m 0,0 c 22,0 39.834,-17.834 39.834,-39.834 v -90.824 c -16.4,37.527 -44.481,68.783 -79.668,89.138 v 1.686 C -39.834,-17.834 -22,0 0,0"
             style="fill:#7d4536;fill-opacity:1;fill-rule:nonzero;stroke:none"
             id="path181" />
        </g>
        <g
           id="g183"
           transform="translate(229.5228,482.5513)">
          <path
             d="m 0,0 c -6.667,2.371 -13.843,3.666 -21.324,3.666 l -14.549,-22.045 c -0.815,0.01 -1.629,0.027 -2.447,0.027 -11.926,0 -23.594,-1.102 -34.916,-3.192 -8.887,29.501 -36.254,50.993 -68.652,50.993 -39.6,0 -71.701,-32.102 -71.701,-71.701 h 15 l -15,-90.825 c -10.236,-23.423 -15.934,-49.282 -15.934,-76.478 0,-11.696 1.055,-23.144 3.066,-34.26 l 15.261,-84.366 c 12.603,-69.664 73.555,-122.503 146.852,-122.503 H 26.477 V 24.848 C 15.857,18.702 6.792,10.174 0,0"
             style="fill:#b6644b;fill-opacity:1;fill-rule:nonzero;stroke:none"
             id="path185" />
        </g>
        <g
           id="g187"
           transform="translate(55.7676,480.1328)">
          <path
             d="m 0,0 c -22,0 -39.834,-17.834 -39.834,-39.834 v -90.824 c 16.4,37.527 44.481,68.783 79.668,89.138 v 1.686 C 39.834,-17.834 22,0 0,0"
             style="fill:#925442;fill-opacity:1;fill-rule:nonzero;stroke:none"
             id="path189" />
        </g>
        <g
           id="g191"
           transform="translate(180.7095,208.0703)">
          <path
             d="M 0,0 H -68.112 V 30 H -15 Z"
             style="fill:#4f4d4c;fill-opacity:1;fill-rule:nonzero;stroke:none"
             id="path193" />
        </g>
        <g
           id="g195"
           transform="translate(399.4025,208.0703)">
          <path
             d="m 0,0 h -68.112 l 15,30 H 0 Z"
             style="fill:#292827;fill-opacity:1;fill-rule:nonzero;stroke:none"
             id="path197" />
        </g>
        <g
           id="g199"
           transform="translate(351.6017,238.0706)">
          <path
             d="m 0,0 h -95.602 l -30,-119.035 45,-119.036 H 0 Z"
             style="fill:#b6644b;fill-opacity:1;fill-rule:nonzero;stroke:none"
             id="path201" />
        </g>
        <g
           id="g203"
           transform="translate(160.3983,238.0706)">
          <path
             d="m 0,0 v -238.071 h 80.602 l 15,15 V 0 Z"
             style="fill:#db7354;fill-opacity:1;fill-rule:nonzero;stroke:none"
             id="path205" />
        </g>
        <g
           id="g207"
           transform="translate(241,63.7344)">
          <path
             d="M 0,0 15,-63.734 H 30 V 0 Z"
             style="fill:#292827;fill-opacity:1;fill-rule:nonzero;stroke:none"
             id="path209" />
        </g>
        <path
           d="m 241,0 h 15 v 63.734 h -15 z"
           style="fill:#4f4d4c;fill-opacity:1;fill-rule:nonzero;stroke:none"
           id="path211" />
        <g
           id="g213"
           transform="translate(303.8008,78.7344)">
          <path
             d="m 0,0 h -47.801 l -15,-15 15,-15 H 0 Z"
             style="fill:#292827;fill-opacity:1;fill-rule:nonzero;stroke:none"
             id="path215" />
        </g>
        <path
           d="M 208.199,48.734 H 256 v 30 h -47.801 z"
           style="fill:#4f4d4c;fill-opacity:1;fill-rule:nonzero;stroke:none"
           id="path217" />
      </g>
    </g>
  </g>
</svg>
