<svg id="Capa_1" enable-background="new 0 0 512 512" height="512" viewBox="0 0 512 512" width="512" xmlns="http://www.w3.org/2000/svg"><g><path d="m459.553 372.951v25.597c0 8.623-3.111 16.944-8.707 23.505-9.476 11.109-19.886 21.397-31.108 30.744-5.848 4.871-14.728.723-14.728-6.888 0-30.795-24.964-55.759-55.759-55.759h-232.602c-57.831 0-106.791-42.79-114.406-100.118-1.48-11.134-2.243-22.494-2.243-34.032 0-141.211 114.333-255.718 255.477-255.999 140.872-.282 256.167 114.469 256.522 255.34.069 27.549-4.213 54.089-12.199 78.969-.839 2.615-3.259 4.398-6.005 4.398-18.911 0-34.242 15.331-34.242 34.243z" fill="#60c8dd"/><path d="m470.149 256c0 118.271-95.878 214.149-214.149 214.149s-214.149-95.878-214.149-214.149 95.878-214.149 214.149-214.149 214.149 95.878 214.149 214.149z" fill="#7cd2e3"/><path d="m420 145v307.579c-12.154 10.151-25.265 19.196-39.176 26.98-4.847 2.712-10.824-.838-10.824-6.392v-328.167c0-5.523 4.477-10 10-10h30c5.523 0 10 4.477 10 10z" fill="#3d4ec6"/><path d="m90 400h-30c-5.523 0-10-4.477-10-10v-250c0-5.523 4.477-10 10-10h30c5.523 0 10 4.477 10 10v250c0 5.523-4.477 10-10 10zm410-66.314v-73.686c0-5.523-4.477-10-10-10h-30c-5.523 0-10 4.477-10 10v163.039c22.244-25.811 39.425-56.109 50-89.353zm-240-23.686v-250c0-5.523-4.477-10-10-10h-30c-5.523 0-10 4.477-10 10v250c0 5.523 4.477 10 10 10h30c5.523 0 10-4.477 10-10z" fill="#ffb52d"/><path d="m250 150h-9.979c-5.523 0-10-4.477-10-10v-80c0-5.523 4.477-10 10-10h9.979c5.523 0 10 4.477 10 10v80c0 5.523-4.477 10-10 10zm250 167.426v-57.426c0-5.523-4.477-10-10-10h-9.979c-5.523 0-10 4.477-10 10v57.426c0 5.523 4.477 10 10 10h9.979c5.523 0 10-4.478 10-10zm-400-111.235v-66.191c0-5.523-4.477-10-10-10h-9.979c-5.523 0-10 4.477-10 10v66.191c0 5.523 4.477 10 10 10h9.979c5.523 0 10-4.477 10-10z" fill="#ffc14f"/><path d="m330 400h-30c-5.523 0-10-4.477-10-10v-226c0-5.523 4.477-10 10-10h30c5.523 0 10 4.477 10 10v226c0 5.523-4.477 10-10 10zm-150-50v-250c0-5.523-4.477-10-10-10h-30c-5.523 0-10 4.477-10 10v250c0 5.523 4.477 10 10 10h30c5.523 0 10-4.477 10-10zm230 73.039h-9.979c-5.523 0-10-4.477-10-10v-268.039c0-5.523 4.477-10 10-10h9.979c5.523 0 10 4.477 10 10v268.039c0 5.523-4.477 10-10 10z" fill="#5766ce"/><path d="m170 154h-9.979c-5.523 0-10-4.477-10-10v-44c0-5.523 4.477-10 10-10h9.979c5.523 0 10 4.477 10 10v44c0 5.523-4.477 10-10 10zm170 54v-44c0-5.523-4.477-10-10-10h-9.979c-5.523 0-10 4.477-10 10v44c0 5.523 4.477 10 10 10h9.979c5.523 0 10-4.477 10-10z" fill="#717ed6"/><path d="m398.032 62.732v36.672c0 2.761-2.239 5-5 5s-5-2.239-5-5v-24.122l-95.372 95.372c-1.953 1.952-5.118 1.952-7.071 0l-30.788-30.788-115.588 107.695c-.964.9-2.189 1.345-3.411 1.345-1.337 0-2.671-.533-3.656-1.588-1.884-2.019-1.776-5.183.243-7.067l119.119-110.991c1.97-1.84 5.042-1.786 6.948.119l30.668 30.668 92.316-92.316h-25.081c-2.761 0-5-2.239-5-5s2.239-5 5-5h36.672c2.762.001 5.001 2.239 5.001 5.001z" fill="#fff5f5"/><path d="m289.091 203.103c-26.446-14.402-59.684-22.333-93.591-22.333s-67.146 7.932-93.592 22.334c-6.647 3.621-10.616 9.903-10.616 16.805v23.308c0 13.316 12.721 24.149 28.357 24.149h151.7c15.636 0 28.357-10.833 28.357-24.149v-23.308c.002-6.903-3.967-13.185-10.615-16.806zm.617 40.113c0 7.802-8.235 14.149-18.357 14.149h-151.7c-10.123 0-18.357-6.347-18.357-14.149v-23.308c0-3.183 2.019-6.182 5.398-8.023 25.004-13.617 56.544-21.116 88.809-21.116s63.805 7.499 88.809 21.116c3.381 1.841 5.399 4.84 5.399 8.023v23.308z" fill="#7c3f2c"/><path d="m351.76 273.126v110.982c0 69.962-57.155 126.734-127.108 125.627-2.146-.034-3.782-.124-4.816-.27-100.229-14.172-181.795-86.389-209.596-181.547v-54.792c0-20.566 16.672-37.238 37.238-37.238h267.043c20.566 0 37.239 16.672 37.239 37.238z" fill="#954c35"/><path d="m380.76 273.126v206.469c-36.913 20.64-79.463 32.405-124.76 32.405-12.276 0-24.35-.864-36.165-2.535-30.458-40.032-48.54-89.991-48.54-144.175 0-47.706 14.017-92.138 38.157-129.402h134.069c20.566 0 37.239 16.672 37.239 37.238z" fill="#ae583e"/><path d="m391 274.731v34.585c0 9.109-4.43 17.661-11.897 22.878-50.141 35.034-114.028 56.024-183.603 56.024s-133.462-20.99-183.603-56.024c-7.467-5.217-11.897-13.768-11.897-22.877v-34.585c0-21.703 17.594-39.296 39.296-39.296h312.407c21.703-.001 39.297 17.592 39.297 39.295z" fill="#c0694e"/><path d="m391 274.785v34.585c0 9.109-4.43 17.661-11.897 22.878-50.141 35.034-114.028 56.024-183.603 56.024-7.925 0-15.776-.273-23.541-.808-.44-5.915-.664-11.891-.664-17.919 0-49.709 15.219-95.863 41.251-134.057h139.158c21.702.001 39.296 17.594 39.296 39.297z" fill="#c97e67"/><path d="m237.393 404.114h-83.786c-5.142 0-9.31-4.168-9.31-9.31v-9.31c0-5.142 4.168-9.31 9.31-9.31h83.786c5.142 0 9.31 4.168 9.31 9.31v9.31c-.001 5.142-4.169 9.31-9.31 9.31z" fill="#ff9f22"/><path d="m237.393 404.114h-66.098c-5.142 0-9.31-4.168-9.31-9.31v-9.31c0-5.142 4.168-9.31 9.31-9.31h66.098c5.142 0 9.31 4.168 9.31 9.31v9.31c-.001 5.142-4.169 9.31-9.31 9.31z" fill="#ffc14f"/><path d="m232.738 394.805h-74.476c-2.571 0-4.655-2.084-4.655-4.655 0-2.571 2.084-4.655 4.655-4.655h74.476c2.571 0 4.655 2.084 4.655 4.655 0 2.571-2.084 4.655-4.655 4.655z" fill="#ff9100"/><path d="m185.26 394.805h-26.998c-2.571 0-4.655-2.084-4.655-4.655s2.084-4.655 4.655-4.655h26.998c-2.571 0-4.655 2.084-4.655 4.655s2.084 4.655 4.655 4.655z" fill="#dd7d00"/><path d="m189.799 194.487c0 10.305-8.354 18.659-18.659 18.659h-47.163c-9.921 0-17.964-5.137-17.964-11.474v-4.126c0-2.66 2.025-5.156 5.439-6.68 16.452-7.342 36.141-12.571 57.705-14.938 11.022-1.211 20.642 7.47 20.642 18.559z" fill="#ae583e"/><path d="m284.756 197.546v4.126c0 6.337-8.043 11.474-17.964 11.474h-95.567c-10.308 0-18.665-8.356-18.665-18.665 0-9.486 7.108-17.51 16.537-18.547 8.499-.935 17.289-1.426 26.287-1.426 31.806 0 61.011 6.129 83.933 16.358 3.414 1.523 5.439 4.02 5.439 6.68z" fill="#c0694e"/><path d="m327.227 68.5c0 2.761-2.239 5-5 5h-25.455c-2.761 0-5-2.239-5-5s2.239-5 5-5h25.455c2.762 0 5 2.239 5 5z" fill="#ececf1"/><path d="m324.292 91.5c0 2.761-2.239 5-5 5h-19.585c-2.761 0-5-2.239-5-5s2.239-5 5-5h19.585c2.762 0 5 2.239 5 5zm-24.584-41h19.585c2.761 0 5-2.239 5-5s-2.239-5-5-5h-19.585c-2.761 0-5 2.239-5 5s2.238 5 5 5z" fill="#c2eaf2"/></g></svg>