<svg id="Capa_1" enable-background="new 0 0 512 512" height="512" viewBox="0 0 512 512" width="512" xmlns="http://www.w3.org/2000/svg"><g><path d="m499.947 289.658-.541-1.955-34.054-34.054-8.007 8.006c-1.46 1.46-3.41 2.264-5.491 2.264s-4.031-.804-5.491-2.264l-24.792-24.792c-1.54-1.54-2.35-3.684-2.246-5.865v-1h-85.552c-4.962 0-9-4.038-9-9v-58.888l-.506-.288c-2.816-1.6-4.565-4.598-4.565-7.825v-26.811c0-2.206 1.794-4 4-4h129.919v-1c-44.586-60.743-116.492-100.186-197.621-100.186-88.396 0-165.849 46.82-208.937 117.008l.192 1.606 51.281 51.281c.756.756 1.172 1.76 1.172 2.829 0 1.068-.416 2.072-1.172 2.828l-23 23.001-15.842-15.842c-.89-.89-2.073-1.38-3.331-1.38s-2.441.49-3.331 1.38l-.97.969c-2.281 2.281-3.537 5.313-3.537 8.54 0 3.226 1.256 6.258 3.537 8.539l4.415 4.415c-1.625 2.034-2.511 4.542-2.511 7.159 0 2.157.597 4.233 1.734 6.056l-43.147 43.147-.842 2.256c2.595 34.175 12.211 66.385 27.392 95.209h273.217c7.385-43.097 45.01-76 90.181-76 35.825 0 66.902 20.699 81.914 50.762 8.092-20.807 13.422-42.992 15.545-66.106-.005 0-.009 0-.013.001z" fill="#05e39c"/><g><path d="m156.199 305 12.124-12.124v-34.896h-21.673l-22.159 22.159-22.388-22.388c-8.238-1.223-14.753-7.738-15.976-15.976l-6.741-6.741c-.355.665-.809 1.279-1.355 1.825l-24.791 24.792c-.66.659-1.423 1.177-2.25 1.555l41.794 41.794z" fill="#dff6fd"/></g><g><path d="m86.701 244.323c-.244-.829-.445-1.676-.574-2.548l-6.741-6.741c-.355.665-.809 1.279-1.355 1.825l-24.791 24.792c-.66.659-1.423 1.177-2.25 1.555l41.794 41.794h16.677l-38.244-38.244c-1.958-1.958-1.952-5.135.014-7.085z" fill="#c8effe"/></g><path d="m75.535 221.967-.044-1.458-15.798-15.798c-.89-.89-2.073-1.38-3.331-1.38s-2.441.49-3.331 1.38l-.97.969c-2.281 2.281-3.537 5.313-3.537 8.54 0 3.226 1.256 6.258 3.537 8.539l4.415 4.415c-1.625 2.034-2.511 4.542-2.511 7.159 0 2.157.597 4.233 1.734 6.056l-16.656 16.656-.696 2.111 3.204 3.204c3.409 3.409 8.987 3.409 12.396 0l24.792-24.792c3.409-3.409 3.409-8.987 0-12.396z" fill="#fed2a4"/><path d="m99.242 191.188-52.18-52.18c-22.867 37.251-36.062 81.078-36.062 127.992 0 6.322.24 12.589.711 18.791l45.279-45.279c-1.268-1.735-2.025-3.867-2.025-6.18 0-2.794 1.098-5.325 2.877-7.207l-5.074-5.074c-4.326-4.325-4.326-11.339 0-15.664l.969-.969c1.449-1.449 3.799-1.449 5.248 0l16.549 16.549 23.708-23.708c1.953-1.953 1.953-5.118 0-7.071z" fill="#eaf6ff"/><g><path d="m28 267c0-42.469 10.814-82.407 29.827-117.228l-10.764-10.764c-22.868 37.251-36.063 81.078-36.063 127.992 0 6.322.24 12.589.711 18.791l16.313-16.313c-.009-.826-.024-1.65-.024-2.478z" fill="#dff6fd"/></g><path d="m446.365 261.656-24.792-24.792-1.836-2.152-.35.35v3.917c0 10.477-8.523 19-19 19h-3.917l-22.159 22.159-22.159-22.159h-8.475v48.094l11.902 11.902c13.729-8.233 29.781-12.975 46.921-12.975 1.155 0 2.303.029 3.447.072l42.129-42.129c-.62-.345-1.197-.773-1.711-1.287z" fill="#dff6fd"/><g><path d="m360.602 304.003v-37.573l-8.449-8.449h-8.475v48.094l11.902 11.902c3.586-2.151 7.334-4.057 11.215-5.709l-4.729-4.729c-.938-.939-1.464-2.21-1.464-3.536z" fill="#c8effe"/></g><path d="m447.556 235.853c.439-1.234.661-2.527.661-3.852 0-.37-.019-.736-.053-1.097l-.087-.904h-29.651c-.42 2.679.387 5.519 2.44 7.572l24.792 24.792c3.409 3.409 8.987 3.409 12.396 0l8.007-8.007z" fill="#fed2a4"/><g><path d="m417.918 112.132h-35.061c-.864 0-1.693-.148-2.47-.409v11.467h40v-11.467c-.776.261-1.605.409-2.469.409z" fill="#fff"/><path d="m333.775 230c-4.962 0-9-4.038-9-9v-2.02h-199.877v-47.055l-3.101-3.101-.678.437c-1.251.804-2.707 1.229-4.21 1.229-2.079 0-4.027-.803-5.486-2.261l-24.792-24.792c-.792-.792-1.356-1.738-1.733-2.745v98.288c0 11.046 8.954 20 20 20h62.425v122.02h144.997c3.802-22.189 15.619-41.674 32.358-55.359v-66.661h55.71c11.046 0 20-8.954 20-20v-8.98z" fill="#fff"/><g><path d="m101.51 238.98v-80.663l-14.879-14.879c-.792-.792-1.356-1.738-1.733-2.745v98.288c0 11.046 8.954 20 20 20h16.612c-11.046-.001-20-8.955-20-20.001z" fill="#f2fbff"/></g></g><path d="m477.119 161.42c-.202.138-.398.283-.613.405l-.506.287v58.888c0 4.962-4.038 9-9 9h-19.976c.126.648.194 1.316.194 2.001 0 1.454-.296 2.838-.83 4.097l53.56 53.56c.684-7.462 1.052-15.017 1.052-22.658 0-37.81-8.582-73.608-23.881-105.58z" fill="#eaf6ff"/><g><path d="m464.281 230h-17.257c.126.648.194 1.316.194 2.001 0 1.454-.296 2.838-.83 4.097l53.56 53.56c.684-7.462 1.052-15.017 1.052-22.658 0-.095-.004-.19-.004-.285z" fill="#dff6fd"/></g><path d="m315.225 424h-247.3c44.942 53.78 112.508 88 188.075 88 42 0 81.52-10.585 116.068-29.21-26.982-9.544-48.194-31.402-56.843-58.79z" fill="#ef4424"/><path d="m289 91.455v19.397c8.656.49 15.553 7.666 15.553 16.442v9.162h8.953c2.601 0 5.049.65 7.205 1.784v-29.505c-.001-21.393-17.342-38.735-38.735-38.735h-2.771c5.995 5.221 9.795 12.9 9.795 21.455z" fill="#554e56"/><path d="m198.495 136.455h8.953v-9.162c0-9.092 7.397-16.489 16.489-16.489h64.127c.656 0 1.3.049 1.937.124v-19.474c-.001-16.267-13.188-29.454-29.455-29.454h-59.256c-5.523 0-10 4.477-10 10v66.24c2.155-1.135 4.604-1.785 7.205-1.785z" fill="#685e68"/><g><path d="m217 72c0-5.523 4.477-10 10-10h-25.71c-5.523 0-10 4.477-10 10v66.24c2.156-1.134 4.604-1.784 7.205-1.784h8.953v-9.162c0-6.613 3.921-12.312 9.553-14.938v-40.356z" fill="#554e56"/></g><g fill="#918291"><path d="m304.553 127.293v9.162h8.953c2.601 0 5.049.65 7.205 1.784v-18.239h-17.881c1.092 2.202 1.723 4.673 1.723 7.293z"/><path d="m198.495 136.455h8.953v-9.162c0-2.621.631-5.091 1.723-7.293h-17.881v18.24c2.155-1.135 4.604-1.785 7.205-1.785z"/></g><path d="m278.197 381-13.916-113.342-5.299 5.925c-.758.847-1.845 1.333-2.981 1.333s-2.224-.486-2.981-1.333l-5.3-5.925-13.917 113.342z" fill="#01d0fb"/><path d="m243.866 381 13.039-106.195c-.295.069-.597.111-.905.111-1.137 0-2.224-.486-2.981-1.333l-5.3-5.925-13.916 113.342z" fill="#01c0fa"/><path d="m200 381h56v-11.047c0-12.124-9.829-21.953-21.953-21.953h-34.047z" fill="#685e68"/><path d="m200 348h16v33h-16z" fill="#554e56"/><path d="m256 238.856-20.201 16.974 16.474 18.419c1.988 2.222 5.466 2.222 7.454 0l16.474-18.419z" fill="#01c0fa"/><path d="m245.902 248.648-9.436 7.929 15.807 17.673c1.988 2.222 5.466 2.222 7.454 0l4.648-5.196c-.336-.227-.656-.486-.94-.804z" fill="#08a9f1"/><path d="m270.707 207.91h-29.413c-.17 0-.337-.01-.506-.013l-14.347 11.083v39.581c0 2.549 2.978 3.937 4.93 2.297l24.629-20.695 24.629 20.695c1.952 1.64 4.93.252 4.93-2.297v-39.581l-14.347-11.083c-.169.003-.336.013-.505.013z" fill="#f2fbff"/><g><path d="m236.779 219.901c-.563-.563-.879-1.326-.879-2.121v-6.107l-9.459 7.307v39.581c0 2.549 2.978 3.937 4.93 2.297l8.511-7.151v-24.872l3.289-2.541z" fill="#dff6fd"/></g><path d="m270.707 207.91h-29.413c-1.836 0-3.636-.152-5.394-.435v10.304c0 .796.316 1.559.879 2.121l17.1 17.1c1.172 1.172 3.071 1.172 4.243 0l17.1-17.1c.563-.563.879-1.326.879-2.121v-10.304c-1.758.283-3.559.435-5.394.435z" fill="#ffbd86"/><g><path d="m253.678 219.901c-.563-.563-.879-1.326-.879-2.121v-9.87h-11.506c-1.836 0-3.636-.152-5.394-.435v10.304c0 .796.316 1.559.879 2.121l17.1 17.1c1.172 1.172 3.071 1.172 4.243 0l6.328-6.329z" fill="#f6a96c"/></g><g><path d="m207.447 135.455h-8.952c-9.131 0-16.533 7.402-16.533 16.533v5.411c0 9.131 7.402 16.533 16.533 16.533h8.952z" fill="#f6a96c"/><path d="m313.505 135.455h-8.952v38.476h8.952c9.131 0 16.533-7.402 16.533-16.533v-5.411c0-9.13-7.402-16.532-16.533-16.532z" fill="#ffbd86"/></g><g><path d="m270.706 208.91h-29.413c-19.245 0-34.846-15.601-34.846-34.846v-46.77c0-9.659 7.83-17.489 17.489-17.489h64.127c9.659 0 17.489 7.83 17.489 17.489v46.77c.001 19.245-15.6 34.846-34.846 34.846z" fill="#fed2a4"/></g><path d="m227.706 174.063v-46.77c0-9.659 7.83-17.489 17.489-17.489h-21.259c-9.659 0-17.489 7.83-17.489 17.489v46.77c0 19.245 15.601 34.846 34.846 34.846h21.259c-19.244.001-34.846-15.6-34.846-34.846z" fill="#ffbd86"/><g><g><g><path d="m228.805 152.772c-3.313 0-6-2.687-6-6v-8.162c0-3.313 2.687-6 6-6s6 2.687 6 6v8.162c0 3.313-2.686 6-6 6z" fill="#d88a55"/></g><g><path d="m283.195 152.772c-3.313 0-6-2.687-6-6v-8.162c0-3.313 2.687-6 6-6s6 2.687 6 6v8.162c0 3.313-2.687 6-6 6z" fill="#d88a55"/></g></g><g><path d="m255.995 169c-1.239 0-2.488-.382-3.561-1.175l-8-5.912c-2.375-1.755-3.12-4.976-1.756-7.595l8-15.371c1.53-2.94 5.153-4.082 8.092-2.552s4.082 5.153 2.552 8.092l-5.633 10.823 3.876 2.865c2.665 1.969 3.229 5.726 1.259 8.391-1.175 1.592-2.99 2.434-4.829 2.434z" fill="#d88a55"/></g></g><path d="m241 190v5.516c0 3.046 2.47 5.516 5.516 5.516h18.968c3.046 0 5.516-2.47 5.516-5.516v-5.516c0-6.093-4.939-11.032-11.032-11.032h-7.937c-6.092 0-11.031 4.939-11.031 11.032z" fill="#fd6930"/><path d="m253 195.516v-5.516c0-5.398 3.879-9.882 9-10.837-.659-.123-1.337-.195-2.032-.195h-7.937c-6.093 0-11.032 4.939-11.032 11.032v5.516c0 3.046 2.47 5.516 5.516 5.516h12c-3.045 0-5.515-2.47-5.515-5.516z" fill="#fd5426"/><path d="m195 215c0-1.643-.804-3.089-2.028-4 1.224-.911 2.028-2.357 2.028-4 0-2.761-2.239-5-5-5h-1.555c-.961-1.973-2.235-3.802-3.832-5.399l-18.884-18.884-3.535 3.536c-1.211 1.211-2.562 2.225-4.001 3.071l19.213 19.213c-.867.898-1.406 2.116-1.406 3.463 0 1.643.804 3.089 2.028 4-1.224.911-2.028 2.357-2.028 4s.804 3.089 2.028 4c-1.224.911-2.028 2.357-2.028 4s.804 3.089 2.028 4c-1.224.911-2.028 2.357-2.028 4s.804 3.089 2.028 4c-1.224.911-2.028 2.357-2.028 4s.804 3.089 2.028 4c-1.224.911-2.028 2.357-2.028 4s.804 3.089 2.028 4c-1.224.911-2.028 2.357-2.028 4s.804 3.089 2.028 4c-1.224.911-2.028 2.357-2.028 4s.804 3.089 2.028 4c-1.224.911-2.028 2.357-2.028 4 0 2.58 1.961 4.678 4.47 4.947v29.053h1.53c1.103 0 2 .897 2 2v13h6.47v-44.047c2.537-.24 4.53-2.353 4.53-4.953 0-1.643-.804-3.089-2.028-4 1.224-.911 2.028-2.357 2.028-4s-.804-3.089-2.028-4c1.224-.911 2.028-2.357 2.028-4s-.804-3.089-2.028-4c1.224-.911 2.028-2.357 2.028-4s-.804-3.089-2.028-4c1.224-.911 2.028-2.357 2.028-4s-.804-3.089-2.028-4c1.224-.911 2.028-2.357 2.028-4s-.804-3.089-2.028-4c1.224-.911 2.028-2.357 2.028-4s-.804-3.089-2.028-4c1.224-.911 2.028-2.357 2.028-4z" fill="#918291"/><g fill="#685e68"><path d="m86.631 132.456 15.39-15.39c.556-.556 1.185-1.016 1.864-1.374l-3.431-3.431 7.586-7.586c1.953-1.953 1.953-5.118 0-7.071l-15.826-15.824c-1.953-1.953-5.118-1.953-7.071 0l-11.211 11.211c-8.114 8.114-8.114 21.269 0 29.382l11.555 11.555c.32-.528.697-1.025 1.144-1.472z"/><path d="m158.286 147.852c-1.953-1.953-5.118-1.953-7.071 0l-7.586 7.586-4.461-4.461c-.354.67-.811 1.299-1.374 1.863l-15.39 15.39c-.447.447-.944.824-1.473 1.144l12.587 12.587c8.114 8.114 21.269 8.114 29.383 0l11.211-11.211c1.953-1.953 1.953-5.119 0-7.071z"/></g><g fill="#554e56"><path d="m86.631 132.456 6.578-6.578-11.687-11.688c-6.947-6.947-7.992-17.537-3.18-25.608l-4.409 4.409c-8.114 8.114-8.114 21.269 0 29.382l11.555 11.555c.319-.528.696-1.025 1.143-1.472z"/><path d="m141.81 174.478-12.828-12.828-6.579 6.579c-.447.447-.944.824-1.473 1.144l12.587 12.587c8.114 8.114 21.269 8.114 29.383 0l3.987-3.987c-7.999 4.453-18.282 3.3-25.077-3.495z"/></g><g><path d="m116.244 122.088c-.11-2.088-.949-4.144-2.534-5.729-3.409-3.409-8.987-3.409-12.396 0l-15.39 15.39c-3.409 3.409-3.409 8.987 0 12.396l24.792 24.792c3.409 3.409 8.987 3.409 12.396 0l15.39-15.39c3.409-3.409 3.409-8.987 0-12.396-1.586-1.586-3.641-2.424-5.729-2.534-.11-2.088-.949-4.144-2.534-5.729-1.586-1.586-3.642-2.424-5.73-2.534-.11-2.088-.949-4.144-2.534-5.73-1.588-1.587-3.643-2.426-5.731-2.536z" fill="#fed2a4"/></g><path d="m102.866 144.145c-3.409-3.409-3.409-8.987 0-12.396l12.678-12.678c-.422-.986-1.032-1.91-1.834-2.712-3.409-3.409-8.987-3.409-12.396 0l-15.39 15.39c-3.409 3.409-3.409 8.987 0 12.396l24.792 24.792c3.409 3.409 8.987 3.409 12.396 0l2.273-2.273z" fill="#ffbd86"/><path d="m472.071 163h-52.071v6c0 2.206-1.794 4-4 4h-31.225c-2.206 0-4-1.794-4-4v-6h-52.071c-1.819 0-3.512-.547-4.929-1.479v59.479c0 5.523 4.477 10 10 10h133.225c5.523 0 10-4.477 10-10v-59.479c-1.417.932-3.109 1.479-4.929 1.479z" fill="#685e68"/><g><path d="m353.704 221v-58h-25c-1.819 0-3.512-.547-4.929-1.479v59.479c0 5.523 4.477 10 10 10h29.929c-5.523 0-10-4.477-10-10z" fill="#554e56"/></g><g fill="#685e68"><path d="m375.092 88.221c-11.14 1.337-19.804 10.839-19.804 22.333v12.635h15v-12.635c0-3.185 1.998-5.905 4.804-6.991z"/><path d="m425.683 88.221v15.342c2.806 1.086 4.804 3.806 4.804 6.991v12.635h15v-12.635c0-11.494-8.664-20.996-19.804-22.333z"/></g><g><path d="m388.701 76.096c-1.554-1.398-3.601-2.259-5.843-2.259-4.821 0-8.765 3.944-8.765 8.765v21.765c0 4.821 3.944 8.765 8.765 8.765h35.061c4.821 0 8.765-3.944 8.765-8.765v-21.765c0-4.821-3.944-8.765-8.765-8.765-2.243 0-4.289.861-5.843 2.259-1.554-1.398-3.601-2.259-5.843-2.259-2.243 0-4.289.861-5.843 2.259-1.554-1.398-3.601-2.259-5.844-2.259-2.244 0-4.291.861-5.845 2.259z" fill="#fed2a4"/></g><g><path d="m391 104.18v-22.228c0-3.486 2.025-6.516 4.952-7.992-.459-.076-.928-.123-1.408-.123-2.243 0-4.289.861-5.843 2.259-1.554-1.398-3.601-2.259-5.843-2.259-4.821 0-8.765 3.944-8.765 8.765v21.765c0 4.821 3.944 8.765 8.765 8.765h17.095c-4.925 0-8.953-4.028-8.953-8.952z" fill="#ffbd86"/></g><path d="m201 381v-59c0-1.657-1.343-3-3-3h-144v62z" fill="#f2fbff"/><path d="m54 319h24v62h-24z" fill="#dff6fd"/><g><path d="m185 319h-144c-1.657 0-3-1.343-3-3v-9c0-1.657 1.343-3 3-3h141c1.657 0 3 1.343 3 3z" fill="#ffe5c2"/></g><path d="m38 307v9c0 1.657 1.343 3 3 3h29v-15h-29c-1.657 0-3 1.343-3 3z" fill="#fed2a4"/><path d="m311 396.5c0-5.632.515-11.146 1.494-16.5h-292.494c-2.761 0-5 2.239-5 5v35c0 2.761 2.239 5 5 5h295.55c-2.948-8.974-4.55-18.553-4.55-28.5z" fill="#fd6930"/><path d="m311.858 409h-255.858c-5.523 0-10-4.477-10-10v-19h-26c-2.761 0-5 2.239-5 5v35c0 2.761 2.239 5 5 5h295.55c-1.691-5.149-2.937-10.497-3.692-16z" fill="#fd5426"/><g><g><circle cx="402.5" cy="396.5" fill="#6e61b6" r="92.5"/></g><path d="m367.752 455.25c-20.058-11.908-33.538-33.78-33.538-58.75s13.48-46.842 33.538-58.75c13.262-16.107 31.861-27.654 53.095-31.927-5.93-1.193-12.065-1.823-18.347-1.823-51.086 0-92.5 41.414-92.5 92.5s41.414 92.5 92.5 92.5c6.282 0 12.417-.629 18.347-1.823-21.234-4.273-39.833-15.82-53.095-31.927z" fill="#6354b1"/><g><circle cx="402.5" cy="396.5" fill="#fff" r="68.285"/></g><g><circle cx="402.5" cy="396.5" fill="#05e39c" r="35.577"/></g><g><path d="m392 396.5c0-5.064 1.084-9.874 3-14.238v-20.536c-16.027 3.454-28.077 17.73-28.077 34.774 0 19.617 15.96 35.577 35.577 35.577 4.412 0 8.636-.813 12.538-2.288-13.447-5.082-23.038-18.084-23.038-33.289z" fill="#0ed290"/></g><path d="m358.301 396.5c0-33.559 24.34-61.52 56.289-67.209-3.926-.704-7.965-1.077-12.09-1.077-37.653 0-68.285 30.633-68.285 68.285s30.632 68.285 68.285 68.285c4.125 0 8.164-.372 12.09-1.077-31.949-5.687-56.289-33.648-56.289-67.207z" fill="#f2fbff"/><g><path d="m440.868 404h-38.368c-4.142 0-7.5-3.358-7.5-7.5v-49.07c0-4.142 3.358-7.5 7.5-7.5 4.142 0 7.5 3.358 7.5 7.5v41.57h30.868c4.142 0 7.5 3.358 7.5 7.5 0 4.142-3.358 7.5-7.5 7.5z" fill="#554e56"/></g></g><path d="m477.071 122.189h-153.367c-2.761 0-5 2.239-5 5v26.811c0 5.523 4.477 10 10 10h52.071v-13c0-2.206 1.794-4 4-4h31.225c2.206 0 4 1.794 4 4v13h52.071c5.523 0 10-4.477 10-10v-26.811c0-2.762-2.239-5-5-5z" fill="#554e56"/><g><path d="m348.633 154v-26.811c0-2.761 2.239-5 5-5h-29.929c-2.761 0-5 2.239-5 5v26.811c0 5.523 4.477 10 10 10h29.929c-5.523 0-10-4.477-10-10z" fill="#433f43"/></g><g><path d="m379.775 169v-18c0-2.761 2.239-5 5-5h31.225c2.761 0 5 2.239 5 5v18c0 2.761-2.239 5-5 5h-31.225c-2.761 0-5-2.239-5-5z" fill="#fac600"/></g><path d="m396.775 165c-2.761 0-5-2.239-5-5v-14h-7c-2.761 0-5 2.239-5 5v18c0 2.761 2.239 5 5 5h31.225c2.761 0 5-2.239 5-5v-4z" fill="#e8b800"/><g><path d="m180.12 82.831-22.503-13.698c-9.923-6.04-22.726.53-23.603 12.114-.877 11.584 10.789 20.008 21.509 15.531l24.309-10.153c1.611-.672 1.778-2.887.288-3.794z" fill="#dff6fd"/></g><path d="m180.12 82.831-3.062-1.864-16.68 6.966c-10.72 4.477-22.386-3.947-21.509-15.531.039-.509.108-1.005.191-1.494-2.797 2.525-4.725 6.093-5.046 10.339-.877 11.584 10.789 20.008 21.509 15.531l24.309-10.152c1.611-.673 1.778-2.888.288-3.795z" fill="#c8effe"/><g><path d="m322.51 65.904 25.598-6.226c11.288-2.745 15.694-16.445 8.124-25.256-7.571-8.811-21.777-6.519-26.191 4.227l-10.01 24.368c-.664 1.615.783 3.3 2.479 2.887z" fill="#dff6fd"/></g><path d="m338.175 46.682c3.456-8.413 12.914-11.643 20.491-8.421-.6-1.343-1.402-2.637-2.434-3.839-7.571-8.811-21.777-6.519-26.191 4.227l-10.01 24.368c-.663 1.614.785 3.299 2.48 2.886l8.631-2.099z" fill="#c8effe"/><g><path d="m193.784 54.826 6.187-31.94c2.728-14.085-10.382-26.082-24.17-22.119-13.788 3.963-18.527 21.091-8.736 31.578l22.203 23.78c1.469 1.575 4.106.817 4.516-1.299z" fill="#dff6fd"/></g><path d="m181.181 25.345c-6.961-7.456-6.572-18.265-.813-25.317-1.501.064-3.029.297-4.568.74-13.788 3.963-18.527 21.091-8.736 31.578l22.203 23.78c1.471 1.575 4.107.817 4.517-1.298l2.564-13.237z" fill="#c8effe"/></g></svg>