<svg id="Flat" height="512" viewBox="0 0 64 64" width="512" xmlns="http://www.w3.org/2000/svg"><path d="m3 33v19h29v-19l3-3h-29a3 3 0 0 0 -3 3z" fill="#fcd841"/><path d="m35.9238 29.6172a1 1 0 0 0 -.9238-.6172h-29a4.0042 4.0042 0 0 0 -4 4v19a1 1 0 0 0 1 1h1v-20a2.0023 2.0023 0 0 1 2-2h26.5859l-1.2929 1.293a1 1 0 0 0 -.293.707v20h1a1 1 0 0 0 1-1v-18.5859l2.707-2.7071a.9986.9986 0 0 0 .2168-1.0898z" fill="#ffe675"/><path d="m35.3628 21.8941 11.2577-9.0063a3.3061 3.3061 0 0 0 .2725-4.9194 3.306 3.306 0 0 0 -4.6756 0l-10.39 10.39z" fill="#a7aebb"/><path d="m35 30h9a3 3 0 0 1 3 3v19a0 0 0 0 1 0 0h-15a0 0 0 0 1 0 0v-19a3 3 0 0 1 3-3z" fill="#fff0aa"/><path d="m44 29h-9a4.0042 4.0042 0 0 0 -4 4v19a1 1 0 0 0 1 1h1v-20a2.0023 2.0023 0 0 1 2-2h9a2.0023 2.0023 0 0 1 2 2v20h1a1 1 0 0 0 1-1v-19a4.0042 4.0042 0 0 0 -4-4z" fill="#fff0aa"/><path d="m39 48h20v4h-20z" fill="#ffe675"/><path d="m41 50h18v2h-18z" fill="#fcd841"/><path d="m42 44h20v4h-20z" fill="#ffe675"/><path d="m44 46h18v2h-18z" fill="#fcd841"/><path d="m35.3051 21.8363-3.4778-3.4778-19.3195 19.3195a1.2544 1.2544 0 0 0 .7734 2.1363 11.5529 11.5529 0 0 0 8.8821-3.0164l3.8367-3.5417v-4.2562h4.611l4.6364-4.28a2 2 0 0 0 .0577-2.8837z" fill="#bbc2cc"/><path d="m1 52h62v5h-62z" fill="#cd9d67"/><path d="m3 54h60v3h-60z" fill="#be8959"/></svg>