<svg id="Layer_1" enable-background="new 0 0 450 450" height="512" viewBox="0 0 450 450" width="512" xmlns="http://www.w3.org/2000/svg"><g><g clip-rule="evenodd" fill-rule="evenodd"><path d="m101.6 103.5h246.4v41.8h-246.4z" fill="#ffe5c2"/><path d="m101.6 103.5h246.4v15.5h-246.4z" fill="#f0cea1"/><path d="m43.6 181.3h363.4v256.3h-363.4z" fill="#ffe5c2"/><path d="m43.6 181.3h363.4v42.8c-1.8.2-3.6.3-5.4.3h-2.3c-12.6 0-24.7-4.9-33.9-13.5-9.1 8.7-21.2 13.5-33.9 13.5h-2.3c-12.6 0-24.7-4.9-33.9-13.5-9.1 8.7-21.2 13.5-33.9 13.5h-2.3c-12.6 0-24.7-4.9-33.9-13.5-9.1 8.7-21.2 13.5-33.9 13.5h-2.3c-12.6 0-24.7-4.9-33.9-13.5-9.1 8.7-21.2 13.5-33.9 13.5h-2.2c-12.7 0-24.7-4.9-33.9-13.5-9.2 8.7-21.2 13.5-33.9 13.5h-2.3c-1.8 0-3.6-.1-5.4-.3z" fill="#f0cea1"/></g><path d="m396.2 108.8h-342.8c-2.8 0-5.2-2.3-5.2-5.2v-88.7c0-2.8 2.3-5.1 5.2-5.1h342.8c2.8 0 5.1 2.3 5.1 5.1v88.7c.1 2.9-2.3 5.2-5.1 5.2z" fill="#6c3429"/><path d="m58.5 20h332.5v78.4h-332.5z" fill="#a44f3e"/><g fill="#a44f3e"><path d="m364 410c0 2.8-2.3 5.1-5.1 5.1s-91.5 0-94.3 0-5.1-2.3-5.1-5.1v-114.9c0-28.8 23.5-52.3 52.3-52.3 28.8 0 52.3 23.5 52.3 52.3z"/><path d="m95.9 238.1h124.7c3.5 0 6.6 1.4 8.9 3.7s3.7 5.4 3.7 8.9v122.8c0 3.5-1.4 6.6-3.7 8.9-.1.1-.2.2-.4.3-2.3 2.1-5.3 3.4-8.6 3.4h-124.6c-3.5 0-6.6-1.4-8.9-3.7-2.3-2.3-3.7-5.4-3.7-8.9v-122.8c0-3.5 1.4-6.6 3.7-8.9 2.3-2.3 5.4-3.7 8.9-3.7z"/></g><g><g><path clip-rule="evenodd" d="m94.4 248.9c-.1.1-.1.1-.2.2-.4.4-.7 1-.7 1.6v122.8c0 .5.2 1 .5 1.5.1 0 .1.1.2.2.4.4 1 .7 1.6.7h124.7c.6 0 1.1-.2 1.6-.6.1-.1.1-.1.2-.2.4-.4.6-1 .6-1.5v-122.9c0-.6-.3-1.2-.7-1.6s-1-.7-1.6-.7h-124.7c-.6 0-1.1.2-1.5.5z" fill="#c8effe" fill-rule="evenodd"/></g><g><path clip-rule="evenodd" d="m353.7 404.8v-109.7c0-23.1-18.9-42-42-42s-42 18.9-42 42v109.8c27.9-.1 56-.1 84-.1z" fill="#c8effe" fill-rule="evenodd"/></g></g><g clip-rule="evenodd" fill="#fff" fill-rule="evenodd"><path d="m183.1 279.2c2.3-2.3 6-2.3 8.3 0s2.3 6 0 8.3l-58.1 58.4c-2.3 2.3-6 2.3-8.3 0s-2.3-6 0-8.3z"/><path d="m143.8 278.3c2.4-2.2 6.1-2.1 8.3.2s2.1 6.1-.2 8.3l-17.3 16.5c-2.4 2.2-6.1 2.1-8.3-.2s-2.1-6.1.2-8.3z"/></g><g><path d="m30 136.1h55.1c2.8 0 5.2 2.3 5.2 5.1v33.9c0 10.7-4.4 20.5-11.4 27.6-7.1 7.1-16.8 11.4-27.5 11.4h-2.4c-10.7 0-20.5-4.4-27.5-11.4-7.1-7.1-11.5-16.8-11.5-27.6v-18.9c0-5.5 2.3-10.6 5.9-14.2 3.6-3.7 8.6-5.9 14.1-5.9z" fill="#f6a96c"/><path d="m85.2 136.1h70.1c2.8 0 5.1 2.3 5.1 5.1v33.9c0 10.7-4.4 20.5-11.4 27.6-7.1 7.1-16.8 11.4-27.6 11.4h-2.4c-10.7 0-20.5-4.4-27.6-11.4-7.1-7.1-11.4-16.8-11.4-27.6v-33.9c0-2.8 2.3-5.1 5.2-5.1z" fill="#a44f3e"/><path d="m155.2 136.1h70.1c2.8 0 5.1 2.3 5.1 5.1v33.9c0 10.7-4.4 20.5-11.4 27.6-7.1 7.1-16.8 11.4-27.6 11.4h-2.3c-10.7 0-20.5-4.4-27.6-11.4-7.1-7.1-11.4-16.8-11.4-27.6v-33.9c0-2.8 2.3-5.1 5.1-5.1z" fill="#f6a96c"/><path d="m225.3 136.1h70.1c2.8 0 5.1 2.3 5.1 5.1v33.9c0 10.7-4.4 20.5-11.5 27.6s-16.8 11.4-27.5 11.4h-2.3c-10.7 0-20.5-4.4-27.6-11.4-7.1-7.1-11.4-16.8-11.4-27.6v-33.9c-.1-2.8 2.2-5.1 5.1-5.1z" fill="#a44f3e"/><path d="m295.3 136.1h70.1c2.8 0 5.1 2.3 5.1 5.1v33.9c0 10.7-4.4 20.5-11.5 27.6s-16.8 11.4-27.5 11.4h-2.3c-10.7 0-20.5-4.4-27.5-11.4-7.1-7.1-11.5-16.8-11.5-27.6v-33.9c0-2.8 2.3-5.1 5.1-5.1z" fill="#f6a96c"/><path d="m365.4 136.1h55.1c5.5 0 10.6 2.3 14.2 5.9s5.9 8.7 5.9 14.2v18.9c0 10.7-4.4 20.5-11.5 27.6s-16.8 11.4-27.5 11.4h-2.3c-10.7 0-20.5-4.4-27.5-11.4-7.1-7.1-11.5-16.8-11.5-27.6v-33.9c-.1-2.8 2.2-5.1 5.1-5.1z" fill="#a44f3e"/></g><path d="m330.1 311.4c0-2.8 2.3-5.1 5.1-5.1s5.1 2.3 5.1 5.1v35c0 2.8-2.3 5.1-5.1 5.1s-5.1-2.3-5.1-5.1z" fill="#783a2d"/><g clip-rule="evenodd" fill="#ffe5c2" fill-rule="evenodd"><path d="m175.2 69.9c1.9-2.1 5.1-2.3 7.2-.4s2.3 5.1.4 7.2c-2.7 3-5.9 5.3-9.5 6.9s-7.5 2.5-11.5 2.5c-7.8 0-14.9-3.2-20.1-8.3-5.1-5.1-8.3-12.2-8.3-20.1s3.2-14.9 8.3-20.1c5.1-5.1 12.2-8.3 20.1-8.3 3.5 0 6.9.6 10.1 1.9 3.2 1.2 6.2 3 8.8 5.3 2.1 1.9 2.3 5.1.4 7.3-1.9 2.1-5.1 2.3-7.3.4-1.7-1.5-3.6-2.6-5.6-3.4s-4.2-1.2-6.4-1.2c-5 0-9.5 2-12.8 5.3s-5.3 7.8-5.3 12.8 2 9.5 5.3 12.8 7.8 5.3 12.8 5.3c2.6 0 5.1-.5 7.4-1.5 2.2-1 4.3-2.5 6-4.4z"/><path d="m201.9 84.4c-1 2.7-3.9 4-6.6 3.1-2.7-1-4-3.9-3.1-6.6l17.8-47.9c1-2.7 3.9-4 6.6-3.1 1.5.5 2.6 1.7 3.1 3.1l17.7 47.9c1 2.7-.4 5.6-3.1 6.6s-5.6-.4-6.6-3.1l-12.9-34.9z"/><path d="m203.6 70.1c-2.8 0-5.1-2.3-5.1-5.2 0-2.8 2.3-5.2 5.1-5.2h22.3c2.8 0 5.1 2.3 5.1 5.2 0 2.8-2.3 5.2-5.1 5.2z"/><path d="m245.4 34.7c0-2.8 2.3-5.2 5.1-5.2s5.1 2.3 5.1 5.2v49.3c0 2.8-2.3 5.2-5.1 5.2s-5.1-2.3-5.1-5.2z"/><path d="m250.5 39.9c-2.8 0-5.1-2.3-5.1-5.2 0-2.8 2.3-5.2 5.1-5.2h21.3c2.8 0 5.1 2.3 5.1 5.2 0 2.8-2.3 5.2-5.1 5.2z"/><path d="m250.5 62.1c-2.8 0-5.1-2.3-5.1-5.2 0-2.8 2.3-5.2 5.1-5.2h21.3c2.8 0 5.1 2.3 5.1 5.2 0 2.8-2.3 5.2-5.1 5.2z"/><path d="m284.6 34.7c0-2.8 2.3-5.2 5.1-5.2s5.1 2.3 5.1 5.2v49.3c0 2.8-2.3 5.2-5.1 5.2s-5.1-2.3-5.1-5.2z"/><path d="m289.8 39.9c-2.8 0-5.1-2.3-5.1-5.2 0-2.8 2.3-5.2 5.1-5.2h21.2c2.8 0 5.1 2.3 5.1 5.2 0 2.8-2.3 5.2-5.1 5.2z"/><path d="m289.8 89.2c-2.8 0-5.1-2.3-5.1-5.2 0-2.8 2.3-5.2 5.1-5.2h21.2c2.8 0 5.1 2.3 5.1 5.2 0 2.8-2.3 5.2-5.1 5.2z"/><path d="m289.8 64.5c-2.8 0-5.1-2.3-5.1-5.2 0-2.8 2.3-5.2 5.1-5.2h21.2c2.8 0 5.1 2.3 5.1 5.2 0 2.8-2.3 5.2-5.1 5.2z"/></g><path d="m415.4 441.7c5.5 0 10.6-2.2 14.5-6 3.9-3.9 6-9 6-14.5s-2.2-10.6-6-14.5c-3.9-3.9-9-6-14.5-6h-380.2c-5.5 0-10.6 2.2-14.5 6-3.9 3.9-6 9-6 14.5s2.2 10.6 6 14.5 9 6 14.5 6z" fill="#f6a96c"/></g></svg>