<svg id="Capa_1" enable-background="new 0 0 510 510" height="512" viewBox="0 0 510 510" width="512" xmlns="http://www.w3.org/2000/svg" xmlns:xlink="http://www.w3.org/1999/xlink"><linearGradient id="lg1"><stop offset="0" stop-color="#8a7889"/><stop offset="1" stop-color="#6e566e"/></linearGradient><linearGradient id="SVGID_1_" gradientUnits="userSpaceOnUse" x1="234.549" x2="260.101" xlink:href="#lg1" y1="180.427" y2="239.922"/><linearGradient id="lg2"><stop offset="0" stop-color="#f8f6fb"/><stop offset="1" stop-color="#efdcfb"/></linearGradient><linearGradient id="SVGID_2_" gradientUnits="userSpaceOnUse" x1="198.569" x2="311.431" xlink:href="#lg2" y1="209.646" y2="209.646"/><linearGradient id="lg3"><stop offset="0" stop-color="#fff" stop-opacity="0"/><stop offset="1" stop-color="#fff"/></linearGradient><linearGradient id="SVGID_3_" gradientUnits="userSpaceOnUse" x1="254.52" x2="218.553" xlink:href="#lg3" y1="228.179" y2="148.184"/><linearGradient id="SVGID_4_" gradientUnits="userSpaceOnUse" x1="198.569" x2="311.431" xlink:href="#lg3" y1="223.684" y2="223.684"/><linearGradient id="SVGID_5_" gradientUnits="userSpaceOnUse" x1="172.352" x2="354.667" y1="214.416" y2="554.241"><stop offset="0" stop-color="#bdc2d1"/><stop offset=".2367" stop-color="#b5b6c5"/><stop offset=".6651" stop-color="#9e96a6"/><stop offset="1" stop-color="#8a7889"/></linearGradient><linearGradient id="SVGID_6_" gradientUnits="userSpaceOnUse" x1="209.847" x2="292.943" xlink:href="#lg1" y1="263.334" y2="456.811"/><linearGradient id="lg4"><stop offset="0" stop-color="#6e566e" stop-opacity="0"/><stop offset=".2944" stop-color="#674d66" stop-opacity=".294"/><stop offset="1" stop-color="#593b56"/></linearGradient><linearGradient id="SVGID_7_" gradientUnits="userSpaceOnUse" x1="361.106" x2="247.685" xlink:href="#lg4" y1="474.57" y2="361.149"/><linearGradient id="lg5"><stop offset="0" stop-color="#8a7889"/><stop offset=".4735" stop-color="#887687"/><stop offset=".7132" stop-color="#826e81"/><stop offset=".8997" stop-color="#776177"/><stop offset="1" stop-color="#6e566e"/></linearGradient><radialGradient id="SVGID_8_" cx="219.548" cy="325.02" gradientUnits="userSpaceOnUse" r="158.597" xlink:href="#lg5"/><linearGradient id="SVGID_9_" gradientUnits="userSpaceOnUse" x1="355.634" x2="164.274" xlink:href="#lg2" y1="469.101" y2="277.741"/><linearGradient id="SVGID_10_" gradientUnits="userSpaceOnUse" x1="325.536" x2="246.761" y1="439.003" y2="360.228"><stop offset="0" stop-color="#efdcfb" stop-opacity="0"/><stop offset=".4856" stop-color="#baaad6" stop-opacity=".486"/><stop offset="1" stop-color="#8679b2"/></linearGradient><radialGradient id="SVGID_11_" cx="228.808" cy="334.004" gradientUnits="userSpaceOnUse" r="91.257" xlink:href="#lg5"/><linearGradient id="SVGID_12_" gradientUnits="userSpaceOnUse" x1="427.586" x2="301.082" xlink:href="#lg4" y1="281.452" y2="154.12"/><linearGradient id="lg6"><stop offset="0" stop-color="#ffd945"/><stop offset=".3043" stop-color="#ffcd3e"/><stop offset=".8558" stop-color="#ffad2b"/><stop offset="1" stop-color="#ffa325"/></linearGradient><linearGradient id="SVGID_13_" gradientTransform="matrix(1 .002 -.002 1 -2.261 -.606)" gradientUnits="userSpaceOnUse" x1="331.644" x2="380.528" xlink:href="#lg6" y1="203.586" y2="268.765"/><linearGradient id="SVGID_14_" gradientTransform="matrix(1 .002 -.002 1 -2.261 -.606)" gradientUnits="userSpaceOnUse" x1="216.31" x2="250.879" xlink:href="#lg6" y1="153.062" y2="199.154"/><linearGradient id="SVGID_15_" gradientTransform="matrix(-1 0 0 -1 2327.246 -692.971)" gradientUnits="userSpaceOnUse" x1="2075.557" x2="2045.384" xlink:href="#lg6" y1="-734.221" y2="-734.221"/><linearGradient id="SVGID_16_" gradientTransform="matrix(0 -1 1 0 4879.504 2472.76)" gradientUnits="userSpaceOnUse" x1="2286.848" x2="2256.674" y1="-4470.404" y2="-4470.404"><stop offset="0" stop-color="#ff7044"/><stop offset="1" stop-color="#f82814"/></linearGradient><linearGradient id="SVGID_17_" gradientTransform="matrix(0 -1 1 0 4879.504 2472.76)" gradientUnits="userSpaceOnUse" x1="2286.848" x2="2256.674" y1="-4778.603" y2="-4778.603"><stop offset="0" stop-color="#9b62cd"/><stop offset=".3003" stop-color="#985dcb"/><stop offset=".6716" stop-color="#8f4ec7"/><stop offset="1" stop-color="#833ac1"/></linearGradient><linearGradient id="SVGID_18_" gradientTransform="matrix(-.707 -.707 .707 -.707 4259.019 361.305)" gradientUnits="userSpaceOnUse" x1="2956.218" x2="2926.044" y1="-2559.443" y2="-2559.443"><stop offset="0" stop-color="#92f37f"/><stop offset="1" stop-color="#4ab272"/></linearGradient><linearGradient id="SVGID_19_" gradientTransform="matrix(.707 -.707 .707 .707 3825.229 4404.533)" gradientUnits="userSpaceOnUse" x1="459.556" x2="429.383" y1="-5655.207" y2="-5655.207"><stop offset="0" stop-color="#00adfb"/><stop offset="1" stop-color="#3f3ced"/></linearGradient><g><g><path d="m324.385 233.057h-138.77l16.202-47.628c2.136-6.28 8.034-10.504 14.668-10.504h77.029c6.634 0 12.532 4.223 14.668 10.504z" fill="url(#SVGID_1_)"/><path d="m311.431 233.057h-112.862l13.177-38.361c1.738-5.059 6.534-8.46 11.93-8.46h62.648c5.395 0 10.192 3.402 11.93 8.46z" fill="url(#SVGID_2_)"/><path d="m198.569 233.057h112.862l-11.09-32.286h-90.682z" fill="url(#SVGID_3_)"/><path d="m198.569 233.057h112.862l-6.44-18.746h-99.982z" fill="url(#SVGID_4_)"/></g><path d="m433.538 509.994h-357.076c-19.151 0-34.676-15.525-34.676-34.676v-213.702c0-19.151 15.525-34.676 34.676-34.676h357.076c19.151 0 34.676 15.525 34.676 34.676v213.702c0 19.151-15.525 34.676-34.676 34.676z" fill="url(#SVGID_5_)"/><path d="m462.109 450.298h-414.218c-8.226 0-14.894-6.668-14.894-14.894v-133.874c0-8.226 6.668-14.894 14.894-14.894h414.218c8.226 0 14.894 6.668 14.894 14.894v133.875c0 8.225-6.668 14.893-14.894 14.893z" fill="url(#SVGID_6_)"/><g><path d="m468.209 401.628v73.695c0 19.149-15.515 34.677-34.677 34.677h-217.041l-46.968-46.968c-26.38-23.949-42.677-58.8-41.771-97.433 1.575-67.655 56.729-122.808 124.371-124.383 38.646-.905 73.497 15.391 97.446 41.771l17.45 17.45c3.051 2.778 5.965 5.693 8.731 8.731z" fill="url(#SVGID_7_)"/><circle cx="255" cy="368.467" fill="url(#SVGID_8_)" r="127.286"/><circle cx="255" cy="368.467" fill="url(#SVGID_9_)" r="96.958"/><path d="m315.884 331.341-9.503-9.503c-12.693-13.978-31.012-22.756-51.381-22.756-38.32 0-69.385 31.065-69.385 69.385 0 20.369 8.778 38.687 22.756 51.381l45.55 45.55c.361.004.717.027 1.079.027 53.548 0 96.958-43.409 96.958-96.958 0-.362-.023-.718-.027-1.079l-31.295-31.295c-1.507-1.659-3.093-3.245-4.752-4.752z" fill="url(#SVGID_10_)"/><circle cx="255" cy="368.467" fill="url(#SVGID_11_)" r="69.385"/></g><path d="m477.003 301.528v103.374l-176.474-176.486c-.62-.409-1.129-.918-1.526-1.476h134.529c19.162 0 34.677 15.528 34.677 34.677v26.343c5.185 2.332 8.794 7.516 8.794 13.568z" fill="url(#SVGID_12_)"/><g><path d="m387.533 228.573c-15.496 10.098-28.717 23.399-38.729 38.959-2.251 3.499-7.448 3.49-9.686-.018-9.955-15.596-23.128-28.945-38.587-39.099-3.431-2.254-3.422-7.379.017-9.62 15.496-10.098 28.717-23.399 38.729-38.959 2.251-3.499 7.448-3.49 9.687.017 9.956 15.596 23.129 28.945 38.587 39.1 3.431 2.254 3.421 7.379-.018 9.62z" fill="url(#SVGID_13_)"/><path d="m255.154 170.522c-10.958 7.141-20.308 16.547-27.388 27.55-1.592 2.474-5.267 2.468-6.85-.013-7.04-11.029-16.355-20.469-27.287-27.65-2.427-1.594-2.42-5.218.012-6.803 10.958-7.141 20.307-16.547 27.387-27.55 1.592-2.474 5.267-2.468 6.85.012 7.04 11.029 16.356 20.469 27.287 27.65 2.428 1.595 2.421 5.219-.011 6.804z" fill="url(#SVGID_14_)"/></g><g><g><path d="m255.103 0c8.099 0 14.664 6.565 14.664 14.664v53.172c0 8.099-6.565 14.664-14.664 14.664-8.099 0-14.664-6.565-14.664-14.664v-53.172c0-8.099 6.566-14.664 14.664-14.664z" fill="url(#SVGID_15_)"/></g><path d="m450.349 189.327c0 8.099-6.565 14.664-14.664 14.664h-53.172c-8.099 0-14.664-6.565-14.664-14.664 0-8.099 6.565-14.664 14.664-14.664h53.172c8.099 0 14.664 6.565 14.664 14.664z" fill="url(#SVGID_16_)"/><path d="m142.151 189.327c0 8.099-6.565 14.664-14.664 14.664h-53.172c-8.099 0-14.664-6.565-14.664-14.664 0-8.099 6.565-14.664 14.664-14.664h53.172c8.098 0 14.664 6.565 14.664 14.664z" fill="url(#SVGID_17_)"/><g><path d="m390.441 53.99c5.727 5.727 5.727 15.011 0 20.738l-37.598 37.598c-5.727 5.727-15.011 5.727-20.738 0-5.727-5.727-5.727-15.011 0-20.738l37.598-37.598c5.727-5.727 15.011-5.727 20.738 0z" fill="url(#SVGID_18_)"/></g><g><path d="m178.102 112.326c-5.727 5.727-15.011 5.727-20.738 0l-37.598-37.598c-5.727-5.727-5.727-15.011 0-20.738 5.727-5.727 15.011-5.727 20.738 0l37.598 37.598c5.727 5.727 5.727 15.011 0 20.738z" fill="url(#SVGID_19_)"/></g></g></g></svg>