<svg id="Layer_1" enable-background="new 0 0 512 512" height="512" viewBox="0 0 512 512" width="512" xmlns="http://www.w3.org/2000/svg"><g clip-rule="evenodd" fill-rule="evenodd"><g><path d="m348.403 407.081c-61.821 61.822-162.983 61.822-224.804 0-61.821-61.821-53.235-155.452 0-224.804l72.256-94.131-35.809-62.327c-.914-1.59-.911-3.408.008-4.995.918-1.587 2.493-2.495 4.327-2.495h143.239c1.834 0 3.408.908 4.327 2.495.918 1.587.922 3.405.008 4.995l-35.808 62.327 72.256 94.131c53.235 69.352 61.821 162.983 0 224.804z" fill="#937661"/><path d="m190.782 95.146c-3.866 0-7-3.134-7-7s3.134-7 7-7h90.437c3.866 0 7 3.134 7 7s-3.134 7-7 7z" fill="#d5a889"/><path d="m206.484 270.752c-2.809-2.643-2.944-7.062-.301-9.871s7.062-2.943 9.871-.301c3.388 3.196 6.352 5.698 9.472 7.276 2.888 1.461 6.218 2.25 10.681 2.25 6.479 0 12.283-2.29 16.428-5.991 3.941-3.519 6.378-8.339 6.378-13.625s-2.438-10.107-6.378-13.626c-4.145-3.701-9.949-5.991-16.428-5.991-9.982 0-19.083-3.669-25.725-9.601-6.847-6.114-11.082-14.603-11.082-24.016h.027c0-9.429 4.225-17.917 11.055-24.016 5.03-4.492 11.469-7.686 18.634-8.972l-.236-9.873c-.09-3.851 2.958-7.046 6.809-7.137 3.851-.09 7.046 2.958 7.137 6.809l.249 10.41c3.748.793 7.782 2.133 11.483 3.855 5.762 2.68 11.063 6.437 13.917 10.779 2.114 3.217 1.22 7.538-1.996 9.653-3.216 2.114-7.538 1.22-9.652-1.996-1.306-1.988-4.458-4.045-8.12-5.748-4.486-2.087-9.298-3.406-12.499-3.406v.027c-6.479 0-12.283 2.29-16.427 5.991-3.958 3.534-6.406 8.356-6.406 13.626h.028c0 5.286 2.438 10.107 6.378 13.626 4.145 3.701 9.949 5.991 16.428 5.991 9.982 0 19.082 3.669 25.725 9.601 6.847 6.114 11.082 14.603 11.082 24.016s-4.235 17.902-11.082 24.016c-5.025 4.487-11.457 7.679-18.613 8.968l.215 8.898c.09 3.851-2.958 7.046-6.809 7.137-3.851.09-7.046-2.958-7.137-6.809l-.22-9.104c-3.743-.595-7.031-1.703-10.131-3.271-4.623-2.339-8.498-5.559-12.755-9.575z" fill="#daa33b"/></g><g><ellipse cx="80.864" cy="218.576" fill="#fdcd56" rx="64.865" ry="64.865" transform="matrix(.957 -.29 .29 .957 -59.87 32.812)"/><ellipse cx="80.864" cy="218.576" fill="#f5b945" rx="51.732" ry="51.732" transform="matrix(.526 -.851 .851 .526 -147.58 172.451)"/><path d="m61.489 248.4c-2.809-2.643-2.944-7.062-.301-9.871s7.062-2.944 9.871-.301c1.802 1.7 3.347 3.015 4.861 3.781 1.282.648 2.818.998 4.944.998 3.064 0 5.776-1.054 7.682-2.756 1.702-1.52 2.756-3.58 2.756-5.816s-1.054-4.296-2.756-5.816c-1.907-1.703-4.619-2.756-7.682-2.756-6.567 0-12.575-2.433-16.98-6.366-4.609-4.115-7.459-9.843-7.459-16.207h.028c0-6.38 2.841-12.107 7.432-16.207 2.752-2.458 6.131-4.33 9.882-5.388l-.082-3.413c-.09-3.851 2.958-7.046 6.809-7.137 3.851-.09 7.046 2.958 7.137 6.809l.093 3.89c1.723.493 3.464 1.135 5.092 1.892 3.807 1.771 7.354 4.321 9.345 7.35 2.114 3.216 1.22 7.538-1.996 9.652s-7.538 1.22-9.653-1.996c-.443-.675-1.841-1.526-3.548-2.319-2.281-1.061-4.63-1.732-6.099-1.732v.027c-3.064 0-5.776 1.054-7.682 2.756-1.719 1.536-2.784 3.597-2.784 5.816h.027c0 2.236 1.054 4.296 2.756 5.816 1.907 1.703 4.619 2.756 7.683 2.756 6.567 0 12.575 2.433 16.98 6.366 4.608 4.115 7.459 9.843 7.459 16.207s-2.851 12.092-7.459 16.207c-2.749 2.455-6.124 4.326-9.869 5.385l.069 2.845c.09 3.851-2.958 7.046-6.808 7.137-3.851.09-7.046-2.958-7.137-6.809l-.073-3.032c-1.551-.416-2.998-.983-4.395-1.689-3.016-1.527-5.473-3.559-8.143-6.079z" fill="#daa33b"/></g><g><path d="m28.845 349.118h104.038c7.064 0 12.844 6.57 12.844 14.602v18.982c0 8.031-5.78 14.602-12.844 14.602 7.064 0 12.844 6.57 12.844 14.601v18.982c0 8.031-5.78 14.601-12.844 14.601 7.064 0 12.844 6.57 12.844 14.601v18.982c0 8.031-5.78 14.601-12.844 14.601h-104.038c-7.065 0-12.844-6.57-12.844-14.601v-18.982c0-8.031 5.78-14.601 12.844-14.601-7.065 0-12.844-6.57-12.844-14.601v-18.982c0-8.031 5.78-14.601 12.844-14.601-7.065 0-12.844-6.571-12.844-14.602v-18.982c0-8.032 5.78-14.602 12.844-14.602z" fill="#f5b945"/><path d="m28.845 445.487h104.038c7.064 0 12.844-6.57 12.844-14.601v-18.982c0-8.031-5.78-14.601-12.844-14.601h-104.038c-7.065 0-12.844 6.57-12.844 14.601v18.982c0 8.031 5.78 14.601 12.844 14.601z" fill="#daa33b"/></g><g><path d="m379.118 176.007h104.038c7.064 0 12.844 6.57 12.844 14.602v18.982c0 8.031-5.78 14.602-12.844 14.602 7.064 0 12.844 6.57 12.844 14.601v18.982c0 8.031-5.78 14.601-12.844 14.601 7.064 0 12.844 6.57 12.844 14.601v18.982c0 8.031-5.78 14.601-12.844 14.601v7h-104.038v-7c-7.064 0-12.844-6.57-12.844-14.601v-18.982c0-8.031 5.78-14.601 12.844-14.601-7.064 0-12.844-6.57-12.844-14.601v-18.982c0-8.031 5.78-14.601 12.844-14.601-7.064 0-12.844-6.571-12.844-14.602v-18.982c0-8.031 5.78-14.602 12.844-14.602zm0 0h104.038c7.064 0 12.844-6.57 12.844-14.601v-18.982c0-8.031-5.78-14.601-12.844-14.601h-104.038c-7.064 0-12.844 6.57-12.844 14.601v18.982c0 8.03 5.78 14.601 12.844 14.601z" fill="#f5b945"/><g fill="#daa33b"><path d="m379.118 272.376h104.038c7.064 0 12.844-6.57 12.844-14.601v-18.982c0-8.031-5.78-14.601-12.844-14.601h-104.038c-7.064 0-12.844 6.57-12.844 14.601v18.982c0 8.031 5.78 14.601 12.844 14.601z"/><path d="m379.118 176.007h104.038c7.064 0 12.844-6.57 12.844-14.601v-18.982c0-8.031-5.78-14.601-12.844-14.601h-104.038c-7.064 0-12.844 6.57-12.844 14.601v18.982c0 8.03 5.78 14.601 12.844 14.601z"/></g></g><g><g><path d="m217.789 320.561h267.173c6.08 0 11.039 4.959 11.039 11.039v151.033c0 6.079-4.959 11.039-11.039 11.039h-267.173c-6.079 0-11.039-4.959-11.039-11.039v-151.033c0-6.08 4.959-11.039 11.039-11.039z" fill="#afe269"/><path d="m255.269 342.927h192.213v3.788c0 12.353 10.012 22.366 22.365 22.366h3.788v76.072h-3.788c-12.353 0-22.365 10.012-22.365 22.365v3.788h-192.213v-3.788c0-12.353-10.012-22.365-22.366-22.365h-3.788v-76.073h3.788c12.354 0 22.366-10.012 22.366-22.366z" fill="#c6ea94"/><ellipse cx="351.375" cy="407.116" fill="#afe269" rx="46.331" ry="46.331" transform="matrix(.982 -.189 .189 .982 -70.649 73.793)"/></g><path d="m363.935 384.866c2.869 2.567 3.114 6.975.547 9.844s-6.975 3.114-9.844.547c-.864-.772-2.122-1.122-3.263-1.122-1.702 0-4.188.958-4.188 2.99s2.486 2.991 4.188 2.991c9.482 0 18.189 7.169 18.189 16.991 0 7.087-4.651 13.055-11.083 15.629.085 3.847-2.961 7.037-6.809 7.128-3.851.09-7.046-2.958-7.137-6.809l-.005-.182c-2.865-1.136-5.073-2.879-7.302-4.982-2.809-2.643-2.944-7.062-.301-9.871s7.062-2.943 9.871-.301c1.551 1.463 2.374 2.38 4.576 2.38 1.702 0 4.188-.958 4.188-2.991 0-2.032-2.487-2.991-4.188-2.991-9.482 0-18.188-7.169-18.188-16.991 0-7.09 4.655-13.06 11.091-15.631l-.008-.354c-.09-3.851 2.958-7.046 6.809-7.137 3.851-.09 7.046 2.958 7.137 6.809l.014.581c2.112.803 4.047 1.99 5.706 3.472z" fill="#89c053"/></g></g></svg>