<svg id="Capa_1" enable-background="new 0 0 512 512" viewBox="0 0 512 512" xmlns="http://www.w3.org/2000/svg" xmlns:xlink="http://www.w3.org/1999/xlink"><linearGradient id="lg1"><stop offset="0" stop-color="#fef0ae"/><stop offset="1" stop-color="#fac600"/></linearGradient><linearGradient id="SVGID_1_" gradientTransform="matrix(.966 -.259 .259 .966 -67.639 118.714)" gradientUnits="userSpaceOnUse" x1="482.112" x2="505.108" xlink:href="#lg1" y1="294.2" y2="309.329"/><linearGradient id="lg2"><stop offset="0" stop-color="#fe9738" stop-opacity="0"/><stop offset="1" stop-color="#fe9738"/></linearGradient><linearGradient id="SVGID_00000163795349997721350240000005503540071207704198_" gradientTransform="matrix(.966 -.259 .259 .966 -67.639 118.714)" gradientUnits="userSpaceOnUse" x1="495.361" x2="501.815" xlink:href="#lg2" y1="301.878" y2="320.78"/><linearGradient id="SVGID_00000098941966662173465220000016118496991447153285_" gradientTransform="matrix(.966 -.259 .259 .966 -67.639 118.714)" gradientUnits="userSpaceOnUse" x1="493.825" x2="509.27" xlink:href="#lg2" y1="301.646" y2="307.178"/><linearGradient id="lg3"><stop offset="0" stop-color="#5a5a5a"/><stop offset="1" stop-color="#444"/></linearGradient><linearGradient id="SVGID_00000124864030203261329370000012743423377501977510_" gradientUnits="userSpaceOnUse" x1="142.203" x2="188.198" xlink:href="#lg3" y1="296.65" y2="342.646"/><linearGradient id="lg4"><stop offset="0" stop-color="#433f43" stop-opacity="0"/><stop offset="1" stop-color="#1a1a1a"/></linearGradient><linearGradient id="SVGID_00000183971845544480097460000015676255963954658460_" gradientUnits="userSpaceOnUse" x1="161.753" x2="161.753" xlink:href="#lg4" y1="316.84" y2="376.36"/><linearGradient id="SVGID_00000052813506538632440070000006773480677501940632_" gradientTransform="matrix(.707 -.707 .707 .707 367.785 554.088)" gradientUnits="userSpaceOnUse" x1="22.525" x2="22.525" xlink:href="#lg4" y1="-313.259" y2="-250.608"/><linearGradient id="SVGID_00000057867926840222570280000015979532674334448056_" gradientUnits="userSpaceOnUse" x1="202.717" x2="147.113" xlink:href="#lg4" y1="324.714" y2="314.258"/><linearGradient id="SVGID_00000087410893885080004660000010370699755609346748_" gradientUnits="userSpaceOnUse" x1="196.657" x2="135.568" xlink:href="#lg4" y1="325.854" y2="308.957"/><linearGradient id="SVGID_00000057138028879251273920000004712665173520287663_" gradientUnits="userSpaceOnUse" x1="402.254" x2="448.249" xlink:href="#lg3" y1="296.65" y2="342.646"/><linearGradient id="SVGID_00000145057232862315618630000003851023378572342969_" gradientUnits="userSpaceOnUse" x1="421.804" x2="421.804" xlink:href="#lg4" y1="316.84" y2="376.36"/><linearGradient id="SVGID_00000049196149458439069530000001064863695049274272_" gradientTransform="matrix(.707 -.707 .707 .707 367.785 554.088)" gradientUnits="userSpaceOnUse" x1="206.409" x2="206.409" xlink:href="#lg4" y1="-129.375" y2="-66.724"/><linearGradient id="SVGID_00000089557290431447415530000008037060173454714763_" gradientUnits="userSpaceOnUse" x1="462.768" x2="407.164" xlink:href="#lg4" y1="324.714" y2="314.258"/><linearGradient id="SVGID_00000181087747949474610400000010472091040737871283_" gradientUnits="userSpaceOnUse" x1="456.708" x2="395.619" xlink:href="#lg4" y1="325.854" y2="308.957"/><linearGradient id="lg5"><stop offset="0" stop-color="#ffa1ae"/><stop offset="1" stop-color="#ff4565"/></linearGradient><linearGradient id="SVGID_00000127734486106266633140000012274448454902599097_" gradientUnits="userSpaceOnUse" x1="215.394" x2="253.694" xlink:href="#lg5" y1="169.989" y2="330.535"/><linearGradient id="lg6"><stop offset="0" stop-color="#fe0364" stop-opacity="0"/><stop offset=".2343" stop-color="#f90362" stop-opacity=".234"/><stop offset=".5173" stop-color="#ea035b" stop-opacity=".517"/><stop offset=".8243" stop-color="#d20250" stop-opacity=".824"/><stop offset="1" stop-color="#c00148"/></linearGradient><linearGradient id="SVGID_00000182502048381993341310000004415774567699649447_" gradientUnits="userSpaceOnUse" x1="420.627" x2="316.905" xlink:href="#lg6" y1="-5.397" y2="393.455"/><linearGradient id="SVGID_00000093170902871907700440000005214368192350310287_" gradientUnits="userSpaceOnUse" x1="453.468" x2="453.468" xlink:href="#lg5" y1="262.566" y2="250.884"/><linearGradient id="SVGID_00000018935317950449508660000014039183158573136559_" gradientUnits="userSpaceOnUse" x1="458.933" x2="458.933" xlink:href="#lg5" y1="277.27" y2="265.588"/><linearGradient id="SVGID_00000049210708346511449270000004936916308270640772_" gradientUnits="userSpaceOnUse" x1="464.399" x2="464.399" xlink:href="#lg5" y1="291.975" y2="280.293"/><linearGradient id="SVGID_00000084490957173355000850000012363459413687724953_" gradientUnits="userSpaceOnUse" x1="421.481" x2="458.906" xlink:href="#lg6" y1="233.747" y2="218.777"/><linearGradient id="SVGID_00000106859680249241751450000003637997749991391129_" gradientUnits="userSpaceOnUse" x1="252.034" x2="252.034" xlink:href="#lg6" y1="259.952" y2="306.874"/><linearGradient id="SVGID_00000005974662669772288180000001230892995946721948_" gradientUnits="userSpaceOnUse" x1="194.743" x2="194.743" xlink:href="#lg5" y1="253.299" y2="235.214"/><linearGradient id="SVGID_00000054982966938844576600000015154121859000401289_" gradientUnits="userSpaceOnUse" x1="233.575" x2="119.041" xlink:href="#lg6" y1="278.643" y2="333.296"/><linearGradient id="SVGID_00000041258154059895570130000010344203226098934942_" gradientTransform="matrix(.966 -.259 .259 .966 -67.639 118.714)" gradientUnits="userSpaceOnUse" x1="416.353" x2="439.349" xlink:href="#lg1" y1="276.58" y2="291.709"/><linearGradient id="SVGID_00000152955915006414850040000002312828482853885065_" gradientTransform="matrix(.966 -.259 .259 .966 -67.639 118.714)" gradientUnits="userSpaceOnUse" x1="429.601" x2="436.056" xlink:href="#lg2" y1="284.258" y2="303.16"/><linearGradient id="SVGID_00000019663131273920577070000004729800306960750480_" gradientTransform="matrix(.966 -.259 .259 .966 -67.639 118.714)" gradientUnits="userSpaceOnUse" x1="428.066" x2="443.51" xlink:href="#lg2" y1="284.026" y2="289.558"/><linearGradient id="lg7"><stop offset="0" stop-color="#b3dafe"/><stop offset="1" stop-color="#0182fc"/></linearGradient><linearGradient id="SVGID_00000183228413028020179370000002242481871386036671_" gradientUnits="userSpaceOnUse" x1="206.626" x2="246.761" xlink:href="#lg7" y1="149.785" y2="240.591"/><linearGradient id="lg8"><stop offset="0" stop-color="#314dc9" stop-opacity="0"/><stop offset=".2761" stop-color="#304bc4" stop-opacity=".276"/><stop offset=".5628" stop-color="#2b45b8" stop-opacity=".563"/><stop offset=".8535" stop-color="#243ba3" stop-opacity=".854"/><stop offset="1" stop-color="#1f3596"/></linearGradient><linearGradient id="SVGID_00000005963306287695508100000009353581672319984280_" gradientUnits="userSpaceOnUse" x1="236.835" x2="236.835" xlink:href="#lg8" y1="177.921" y2="146.738"/><linearGradient id="SVGID_00000150782795292037094180000001119879184244996239_" gradientUnits="userSpaceOnUse" x1="180.45" x2="153.735" xlink:href="#lg8" y1="190.715" y2="190.715"/><linearGradient id="SVGID_00000018228624459758577950000010861711549957956026_" gradientUnits="userSpaceOnUse" x1="111.312" x2="135.787" xlink:href="#lg7" y1="189.704" y2="203.011"/><linearGradient id="SVGID_00000176003268643760600000000004411522810133753733_" gradientUnits="userSpaceOnUse" x1="120.537" x2="101.052" xlink:href="#lg8" y1="195.859" y2="181.127"/><linearGradient id="SVGID_00000054255973604149450300000000551427757224445858_" gradientUnits="userSpaceOnUse" x1="319.594" x2="393.401" xlink:href="#lg7" y1="145.428" y2="241.451"/><linearGradient id="SVGID_00000176017069048832393040000017090146064395891872_" gradientUnits="userSpaceOnUse" x1="348.712" x2="324.474" xlink:href="#lg8" y1="197.655" y2="218.685"/><linearGradient id="SVGID_00000002356918611158558930000004350473675794945961_" gradientUnits="userSpaceOnUse" x1="331.556" x2="331.556" xlink:href="#lg8" y1="173.457" y2="145.598"/><linearGradient id="lg9"><stop offset="0" stop-color="#f5fbff"/><stop offset="1" stop-color="#dbd5ef"/></linearGradient><linearGradient id="SVGID_00000175281168046208741900000017291543286585364155_" gradientUnits="userSpaceOnUse" x1="256" x2="256" xlink:href="#lg9" y1="304.625" y2="334.701"/><linearGradient id="lg10"><stop offset="0" stop-color="#dbd5ef" stop-opacity="0"/><stop offset=".2853" stop-color="#d9d2ee" stop-opacity=".285"/><stop offset=".4739" stop-color="#d4c9e9" stop-opacity=".474"/><stop offset=".6346" stop-color="#cbbae2" stop-opacity=".635"/><stop offset=".7795" stop-color="#bfa5d7" stop-opacity=".78"/><stop offset=".9126" stop-color="#af8aca" stop-opacity=".913"/><stop offset="1" stop-color="#a274bf"/></linearGradient><linearGradient id="SVGID_00000171700172110677803220000003781399567354311831_" gradientUnits="userSpaceOnUse" x1="460.349" x2="460.349" xlink:href="#lg10" y1="200.546" y2="350.8"/><linearGradient id="SVGID_00000050634661647931884830000003073490819873355660_" gradientUnits="userSpaceOnUse" x1="477.753" x2="513.636" xlink:href="#lg10" y1="318" y2="318"/><linearGradient id="SVGID_00000075847217635026198270000009206464351766149562_" gradientUnits="userSpaceOnUse" x1="256" x2="256" xlink:href="#lg10" y1="310.328" y2="336.15"/><linearGradient id="SVGID_00000064349933199174272790000003383769327238341772_" gradientUnits="userSpaceOnUse" x1="178.941" x2="132.817" xlink:href="#lg10" y1="318" y2="318"/><linearGradient id="SVGID_00000176011148788527883870000011454024842960972702_" gradientUnits="userSpaceOnUse" x1="440.155" x2="394.031" xlink:href="#lg10" y1="318" y2="318"/><linearGradient id="SVGID_00000017503143761223266620000009758910759755545249_" gradientUnits="userSpaceOnUse" x1="320.606" x2="371.06" xlink:href="#lg3" y1="297.594" y2="348.047"/><linearGradient id="SVGID_00000029727564683243726180000009145622259188720035_" gradientUnits="userSpaceOnUse" x1="342.051" x2="342.051" xlink:href="#lg4" y1="319.741" y2="385.029"/><linearGradient id="SVGID_00000019674215868026410060000013411350482671553194_" gradientTransform="matrix(.707 -.707 .707 .707 367.785 554.088)" gradientUnits="userSpaceOnUse" x1="148.008" x2="148.008" xlink:href="#lg4" y1="-183.7" y2="-114.976"/><linearGradient id="SVGID_00000013164894885008497490000008618680821938009756_" gradientUnits="userSpaceOnUse" x1="355.385" x2="313.686" xlink:href="#lg4" y1="332.373" y2="290.674"/><linearGradient id="SVGID_00000145772450388935527130000015809874073700187044_" gradientUnits="userSpaceOnUse" x1="331.856" x2="355.842" xlink:href="#lg9" y1="308.844" y2="332.83"/><linearGradient id="SVGID_00000001665458492780256660000018218397589902373761_" gradientUnits="userSpaceOnUse" x1="342.051" x2="342.051" xlink:href="#lg10" y1="319.373" y2="350.411"/><linearGradient id="SVGID_00000049199361799272341410000011058107313314681474_" gradientTransform="matrix(.707 -.707 .707 .707 367.785 554.088)" gradientUnits="userSpaceOnUse" x1="148.008" x2="148.008" xlink:href="#lg10" y1="-184.068" y2="-151.396"/><linearGradient id="SVGID_00000163052053526662722820000004355723604518599330_" gradientUnits="userSpaceOnUse" x1="60.555" x2="111.009" xlink:href="#lg3" y1="297.594" y2="348.047"/><linearGradient id="SVGID_00000050644795859619993830000000038632861218664110_" gradientUnits="userSpaceOnUse" x1="82" x2="82" xlink:href="#lg4" y1="319.741" y2="385.029"/><linearGradient id="SVGID_00000088848938197698934850000009083165698981196696_" gradientTransform="matrix(.707 -.707 .707 .707 367.785 554.088)" gradientUnits="userSpaceOnUse" x1="-35.876" x2="-35.876" xlink:href="#lg4" y1="-367.584" y2="-298.86"/><linearGradient id="SVGID_00000064335596389449490360000004196905807710306211_" gradientUnits="userSpaceOnUse" x1="95.334" x2="53.635" xlink:href="#lg4" y1="332.373" y2="290.674"/><linearGradient id="SVGID_00000041271950667226805240000001003344630353225637_" gradientUnits="userSpaceOnUse" x1="71.805" x2="95.791" xlink:href="#lg9" y1="308.844" y2="332.83"/><linearGradient id="SVGID_00000106105284299101957540000003766124694920871060_" gradientUnits="userSpaceOnUse" x1="82" x2="82" xlink:href="#lg10" y1="319.373" y2="350.411"/><linearGradient id="SVGID_00000129207661675409534350000000496027763538360488_" gradientTransform="matrix(.707 -.707 .707 .707 367.785 554.088)" gradientUnits="userSpaceOnUse" x1="-35.876" x2="-35.876" xlink:href="#lg10" y1="-367.952" y2="-335.28"/><linearGradient id="SVGID_00000046324693877320560000000009589582576935837609_" gradientUnits="userSpaceOnUse" x1="340.722" x2="305.553" xlink:href="#lg6" y1="257.587" y2="240.953"/><linearGradient id="SVGID_00000158020431340940729450000012790138867787501458_" gradientUnits="userSpaceOnUse" x1="302.608" x2="312.113" xlink:href="#lg3" y1="215.488" y2="222.141"/><linearGradient id="SVGID_00000060724521650609017500000003127342281156843667_" gradientUnits="userSpaceOnUse" x1="311.954" x2="311.954" xlink:href="#lg4" y1="226.022" y2="239.305"/><linearGradient id="SVGID_00000183965012795941182190000017520913789092241311_" gradientUnits="userSpaceOnUse" x1="311.059" x2="322.71" xlink:href="#lg4" y1="221.302" y2="221.302"/><g><g><path d="m503.183 277.116c3.184 11.881-3.125 23.894-14.089 26.832s-22.493-40.087-11.528-43.025c10.964-2.938 22.434 4.312 25.617 16.193z" fill="url(#SVGID_1_)"/><path d="m489.094 303.948c10.965-2.938 17.273-14.951 14.089-26.832-.904-3.375-2.479-6.375-4.519-8.875l-25.334 6.788c1.265 13.3 8.633 30.83 15.764 28.919z" fill="url(#SVGID_00000163795349997721350240000005503540071207704198_)"/><path d="m477.566 260.923c-.138.037-.271.085-.402.135l11.515 42.974c.138-.023.277-.047.415-.084 10.965-2.938 17.273-14.951 14.089-26.832-3.183-11.881-14.653-19.131-25.617-16.193z" fill="url(#SVGID_00000098941966662173465220000016118496991447153285_)"/></g><g><g><circle cx="161.753" cy="316.2" fill="url(#SVGID_00000124864030203261329370000012743423377501977510_)" r="50.596"/><path d="m111.157 316.2c0 27.943 22.653 50.596 50.596 50.596s50.596-22.653 50.596-50.596c0-6.052-1.066-11.854-3.015-17.233h-95.163c-1.948 5.379-3.014 11.181-3.014 17.233z" fill="url(#SVGID_00000183971845544480097460000015676255963954658460_)"/><path d="m125.976 351.977c19.759 19.759 51.795 19.759 71.554 0s19.759-51.795 0-71.554c-4.279-4.279-9.136-7.628-14.317-10.054l-67.29 67.29c2.425 5.182 5.774 10.038 10.053 14.318z" fill="url(#SVGID_00000052813506538632440070000006773480677501940632_)"/><path d="m125.976 351.977c19.759 19.759 51.795 19.759 71.554 0s19.759-51.795 0-71.554c-4.279-4.279-9.136-7.628-14.317-10.054l-67.29 67.29c2.425 5.182 5.774 10.038 10.053 14.318z" fill="url(#SVGID_00000057867926840222570280000015979532674334448056_)"/></g><circle cx="161.753" cy="316.2" fill="url(#SVGID_00000087410893885080004660000010370699755609346748_)" r="32.61"/></g><g><g><circle cx="421.804" cy="316.2" fill="url(#SVGID_00000057138028879251273920000004712665173520287663_)" r="50.596"/><path d="m371.208 316.2c0 27.943 22.653 50.596 50.596 50.596s50.596-22.653 50.596-50.596c0-6.052-1.066-11.854-3.015-17.233h-95.163c-1.948 5.379-3.014 11.181-3.014 17.233z" fill="url(#SVGID_00000145057232862315618630000003851023378572342969_)"/><path d="m386.027 351.977c19.759 19.759 51.795 19.759 71.554 0s19.759-51.795 0-71.554c-4.279-4.279-9.136-7.628-14.317-10.054l-67.29 67.29c2.425 5.182 5.774 10.038 10.053 14.318z" fill="url(#SVGID_00000049196149458439069530000001064863695049274272_)"/><path d="m386.027 351.977c19.759 19.759 51.795 19.759 71.554 0s19.759-51.795 0-71.554c-4.279-4.279-9.136-7.628-14.317-10.054l-67.29 67.29c2.425 5.182 5.774 10.038 10.053 14.318z" fill="url(#SVGID_00000089557290431447415530000008037060173454714763_)"/></g><circle cx="421.804" cy="316.2" fill="url(#SVGID_00000181087747949474610400000010472091040737871283_)" r="32.61"/></g><g><path d="m502.228 323.575h-500.388l15.668-70.303c2.198-11.552 12.274-20.722 25.367-23.072l13.362-2.392c.075-.011.162-.032.237-.043 9.817-1.821 18.233-8.05 23.276-16.671 11.304-19.332 50.227-73.633 86.877-73.633h123.235c26.865 0 51.952 11.401 67.469 30.41 2.791 3.427 5.582 6.832 8.535 10.119 12.479 13.933 41.585 45.044 55.346 48.611l33.307 9.217c14.417 3.989 25.78 15.093 30.102 29.414z" fill="url(#SVGID_00000127734486106266633140000012274448454902599097_)"/><path d="m484.622 265.232c-4.321-14.321-15.685-25.425-30.102-29.414l-33.307-9.217c-13.761-3.567-42.867-34.677-55.346-48.611-2.953-3.287-5.744-6.692-8.535-10.119-15.518-19.009-40.604-30.41-67.469-30.41h-73.538c26.865 0 51.952 11.401 67.469 30.41 2.791 3.427 5.582 6.832 8.535 10.119 12.479 13.933 41.585 45.044 55.346 48.611l33.307 9.217c14.417 3.989 25.78 15.093 30.102 29.414l17.606 58.343h73.538z" fill="url(#SVGID_00000182502048381993341310000004415774567699649447_)"/><g><path d="m469.568 263.539h-32.201c-2.762 0-5.001-2.239-5.001-5.001s2.239-5.001 5.001-5.001h32.201c2.762 0 5.001 2.239 5.001 5.001s-2.239 5.001-5.001 5.001z" fill="url(#SVGID_00000093170902871907700440000005214368192350310287_)"/><path d="m475.034 278.243h-32.201c-2.762 0-5.001-2.239-5.001-5.001s2.239-5.001 5.001-5.001h32.201c2.762 0 5.001 2.239 5.001 5.001s-2.239 5.001-5.001 5.001z" fill="url(#SVGID_00000018935317950449508660000014039183158573136559_)"/><path d="m480.499 292.948h-32.201c-2.762 0-5.001-2.239-5.001-5.001s2.239-5.001 5.001-5.001h32.201c2.762 0 5.001 2.239 5.001 5.001 0 2.761-2.239 5.001-5.001 5.001z" fill="url(#SVGID_00000049210708346511449270000004936916308270640772_)"/></g><path d="m454.52 235.818-33.307-9.217c-13.761-3.567-42.867-34.677-55.346-48.611-2.953-3.287-5.744-6.692-8.535-10.119-6.851-8.393-15.57-15.299-25.481-20.399v69.556c6.088 4.884 11.66 8.494 15.824 9.573l33.307 9.217c14.417 3.989 25.78 15.093 30.102 29.414l17.606 58.343h73.538l-17.606-58.343c-4.322-14.321-15.685-25.425-30.102-29.414z" fill="url(#SVGID_00000084490957173355000850000012363459413687724953_)"/><path d="m17.508 253.272-15.668 70.303h500.388l-17.606-58.343c-4.321-14.321-15.685-25.425-30.102-29.414l-19.151-5.3h-393.974c-12.363 2.755-21.772 11.644-23.887 22.754z" fill="url(#SVGID_00000106859680249241751450000003637997749991391129_)"/><path d="m202.109 255.2h-14.733c-4.2 0-7.604-3.404-7.604-7.604s3.404-7.604 7.604-7.604h14.733c4.2 0 7.604 3.404 7.604 7.604 0 4.199-3.405 7.604-7.604 7.604z" fill="url(#SVGID_00000005974662669772288180000001230892995946721948_)"/><path d="m186.738 308.74 14.835 14.835h300.654l-17.606-58.343c-4.321-14.321-15.685-25.425-30.102-29.414l-33.307-9.217c-13.761-3.567-42.867-34.677-55.346-48.611-2.953-3.287-5.744-6.692-8.535-10.119-15.518-19.009-40.604-30.41-67.469-30.41h-123.234c-16.238 16.36-25.351 38.475-25.351 61.526 0 41.165 16.353 80.645 45.461 109.753z" fill="url(#SVGID_00000054982966938844576600000015154121859000401289_)"/></g><g><path d="m435.104 277.116c3.183 11.881-3.125 23.894-14.089 26.832-10.965 2.938-22.493-40.087-11.528-43.025 10.964-2.938 22.434 4.312 25.617 16.193z" fill="url(#SVGID_00000041258154059895570130000010344203226098934942_)"/><path d="m421.015 303.948c10.965-2.938 17.273-14.951 14.089-26.832-.904-3.375-2.479-6.375-4.519-8.875l-25.334 6.788c1.265 13.3 8.632 30.83 15.764 28.919z" fill="url(#SVGID_00000152955915006414850040000002312828482853885065_)"/><path d="m409.486 260.923c-.138.037-.271.085-.402.135l11.515 42.974c.138-.023.277-.047.415-.084 10.965-2.938 17.273-14.951 14.089-26.832-3.182-11.881-14.652-19.131-25.617-16.193z" fill="url(#SVGID_00000019663131273920577070000004729800306960750480_)"/></g><g><path d="m310.62 228.48h-132.689c-10.692 0-19.36-8.668-19.36-19.36v-36.812c0-10.692 8.668-19.36 19.36-19.36h40.235c21.514 0 41.698 8.984 53.986 24.037 2.629 3.23 5.627 6.893 8.825 10.472 13.491 15.032 24.174 25.673 32.63 33.232 3.051 2.724 1.109 7.791-2.987 7.791z" fill="url(#SVGID_00000183228413028020179370000002242481871386036671_)"/><path d="m310.62 228.48h-132.689c-10.692 0-19.36-8.668-19.36-19.36v-36.812c0-10.692 8.668-19.36 19.36-19.36h40.235c21.514 0 41.698 8.984 53.986 24.037 2.629 3.23 5.627 6.893 8.825 10.472 13.491 15.032 24.174 25.673 32.63 33.232 3.051 2.724 1.109 7.791-2.987 7.791z" fill="url(#SVGID_00000005963306287695508100000009353581672319984280_)"/><path d="m225.226 153.291c-2.333-.215-4.686-.343-7.06-.343h-40.235c-10.692 0-19.36 8.668-19.36 19.36v36.812c0 10.692 8.668 19.36 19.36 19.36h47.295z" fill="url(#SVGID_00000150782795292037094180000001119879184244996239_)"/></g><g><path d="m147.86 165.715c-4.3 10.46-6.58 21.74-6.58 33.27 0 8.16.64 16.253 1.899 24.212.431 2.724-1.658 5.188-4.415 5.188h-54.024c-3.63 0-5.75-4.1-3.63-7.04.94-1.31 1.83-2.67 2.66-4.08 12.82-21.936 38.583-52.777 60.205-61.706 3.734-1.542 7.439 2.394 5.708 6.044-.642 1.355-1.25 2.726-1.823 4.112z" fill="url(#SVGID_00000018228624459758577950000010861711549957956026_)"/></g><g><path d="m147.86 165.715c-4.3 10.46-6.58 21.74-6.58 33.27 0 8.16.64 16.253 1.899 24.212.431 2.724-1.658 5.188-4.415 5.188h-54.024c-3.63 0-5.75-4.1-3.63-7.04.94-1.31 1.83-2.67 2.66-4.08 12.82-21.936 38.583-52.777 60.205-61.706 3.734-1.542 7.439 2.394 5.708 6.044-.642 1.355-1.25 2.726-1.823 4.112z" fill="url(#SVGID_00000176003268643760600000000004411522810133753733_)"/></g><g><path d="m428.02 228.485h-55.77c-.011 0-.022 0-.033 0-2.059-.001-4.093-.449-5.997-1.23-17.216-7.06-32.837-17.526-45.88-30.795-6.852-6.971-13.038-13.716-17.289-18.465-2.96-3.29-5.75-6.7-8.54-10.12-2.947-3.607-6.244-6.954-9.841-9.992-1.997-1.687-.823-4.938 1.791-4.938h47.93c5.08 0 10.02 1.67 14.06 4.77 9.65 7.4 17.04 17.63 19.42 20.28 12.48 13.93 39.58 44.04 53.34 47.61z" fill="url(#SVGID_00000054255973604149450300000000551427757224445858_)"/><path d="m428.02 228.485h-55.77c-.011 0-.022 0-.033 0-2.059-.001-4.093-.449-5.997-1.23-17.216-7.06-32.837-17.526-45.88-30.795-6.852-6.971-13.038-13.716-17.289-18.465-2.96-3.29-5.75-6.7-8.54-10.12-2.947-3.607-6.244-6.954-9.841-9.992-1.997-1.687-.823-4.938 1.791-4.938h47.93c5.08 0 10.02 1.67 14.06 4.77 9.65 7.4 17.04 17.63 19.42 20.28 12.48 13.93 39.58 44.04 53.34 47.61z" fill="url(#SVGID_00000176017069048832393040000017090146064395891872_)"/><path d="m367.87 177.995c-2.38-2.65-9.77-12.88-19.42-20.28-4.04-3.1-8.98-4.77-14.06-4.77h-47.93c-2.614 0-3.787 3.251-1.791 4.938 3.596 3.038 6.893 6.385 9.841 9.992 2.79 3.42 5.58 6.83 8.54 10.12 3.064 3.422 7.141 7.887 11.739 12.72h64.659c-4.476-4.801-8.478-9.26-11.578-12.72z" fill="url(#SVGID_00000002356918611158558930000004350473675794945961_)"/></g><g><path d="m500.108 336.969h-488.216c-6.568 0-11.892-5.324-11.892-11.892v-14.155c0-6.568 5.324-11.892 11.892-11.892h488.217c6.568 0 11.892 5.324 11.892 11.892v14.155c-.001 6.568-5.325 11.892-11.893 11.892z" fill="url(#SVGID_00000175281168046208741900000017291543286585364155_)"/><path d="m500.108 299.03h-91.41c6.568 0 11.892 5.324 11.892 11.891v14.156c0 6.568-5.324 11.892-11.892 11.892h91.41c6.568 0 11.892-5.324 11.892-11.892v-14.156c0-6.567-5.324-11.891-11.892-11.891z" fill="url(#SVGID_00000171700172110677803220000003781399567354311831_)"/><path d="m500.108 299.03h-91.41c6.568 0 11.892 5.324 11.892 11.891v14.156c0 6.568-5.324 11.892-11.892 11.892h91.41c6.568 0 11.892-5.324 11.892-11.892v-14.156c0-6.567-5.324-11.891-11.892-11.891z" fill="url(#SVGID_00000050634661647931884830000003073490819873355660_)"/><path d="m500.108 336.969h-488.216c-6.568 0-11.892-5.324-11.892-11.892v-14.155c0-6.568 5.324-11.892 11.892-11.892h488.217c6.568 0 11.892 5.324 11.892 11.892v14.155c-.001 6.568-5.325 11.892-11.893 11.892z" fill="url(#SVGID_00000075847217635026198270000009206464351766149562_)"/><path d="m108.385 299.03h116.841v37.939h-116.841z" fill="url(#SVGID_00000064349933199174272790000003383769327238341772_)"/><path d="m369.599 299.03h116.841v37.939h-116.841z" fill="url(#SVGID_00000176011148788527883870000011454024842960972702_)"/></g><g><g><circle cx="342.051" cy="319.039" fill="url(#SVGID_00000017503143761223266620000009758910759755545249_)" r="55.5"/><path d="m286.551 319.039c0 30.652 24.848 55.5 55.5 55.5s55.5-24.848 55.5-55.5c0-6.638-1.169-13.003-3.307-18.903h-104.386c-2.138 5.9-3.307 12.264-3.307 18.903z" fill="url(#SVGID_00000029727564683243726180000009145622259188720035_)"/><path d="m302.806 358.283c21.674 21.674 56.815 21.674 78.489 0s21.674-56.815 0-78.489c-4.694-4.694-10.021-8.367-15.705-11.028l-73.812 73.812c2.661 5.684 6.334 11.011 11.028 15.705z" fill="url(#SVGID_00000019674215868026410060000013411350482671553194_)"/></g><circle cx="342.051" cy="319.039" fill="url(#SVGID_00000013164894885008497490000008618680821938009756_)" r="35.771"/><g><circle cx="342.051" cy="319.039" fill="url(#SVGID_00000145772450388935527130000015809874073700187044_)" r="26.385"/><path d="m315.666 319.039c0 14.572 11.813 26.385 26.385 26.385s26.385-11.813 26.385-26.385c0-3.156-.556-6.182-1.572-8.987h-49.626c-1.016 2.805-1.572 5.831-1.572 8.987z" fill="url(#SVGID_00000001665458492780256660000018218397589902373761_)"/><path d="m323.394 337.696c10.304 10.304 27.01 10.304 37.314 0s10.304-27.01 0-37.314c-2.232-2.232-4.764-3.978-7.466-5.243l-35.091 35.091c1.265 2.702 3.011 5.234 5.243 7.466z" fill="url(#SVGID_00000049199361799272341410000011058107313314681474_)"/></g></g><g><g><circle cx="82" cy="319.039" fill="url(#SVGID_00000163052053526662722820000004355723604518599330_)" r="55.5"/><path d="m26.5 319.039c0 30.652 24.848 55.5 55.5 55.5s55.5-24.848 55.5-55.5c0-6.638-1.169-13.003-3.307-18.903h-104.386c-2.138 5.9-3.307 12.264-3.307 18.903z" fill="url(#SVGID_00000050644795859619993830000000038632861218664110_)"/><path d="m42.755 358.283c21.674 21.674 56.815 21.674 78.489 0s21.674-56.815 0-78.489c-4.694-4.694-10.021-8.367-15.705-11.028l-73.812 73.812c2.661 5.684 6.334 11.011 11.028 15.705z" fill="url(#SVGID_00000088848938197698934850000009083165698981196696_)"/></g><circle cx="82" cy="319.039" fill="url(#SVGID_00000064335596389449490360000004196905807710306211_)" r="35.771"/><g><circle cx="82" cy="319.039" fill="url(#SVGID_00000041271950667226805240000001003344630353225637_)" r="26.385"/><path d="m55.614 319.039c0 14.572 11.813 26.385 26.385 26.385s26.385-11.813 26.385-26.385c0-3.156-.556-6.182-1.572-8.987h-49.625c-1.017 2.805-1.573 5.831-1.573 8.987z" fill="url(#SVGID_00000106105284299101957540000003766124694920871060_)"/><path d="m63.343 337.696c10.304 10.304 27.01 10.304 37.314 0s10.304-27.01 0-37.314c-2.232-2.232-4.764-3.978-7.466-5.243l-35.091 35.091c1.265 2.702 3.011 5.234 5.243 7.466z" fill="url(#SVGID_00000129207661675409534350000000496027763538360488_)"/></g></g><path d="m320.452 203.502-17.509 36.858 83.215 83.215h54.367z" fill="url(#SVGID_00000046324693877320560000000009589582576935837609_)"/><g><path d="m310.434 199.29c-6.067 0-10.986 4.918-10.986 10.986v22.052c0 6.067 4.918 10.986 10.986 10.986 7.746 0 14.026-6.28 14.026-14.026v-15.971c0-7.747-6.28-14.027-14.026-14.027z" fill="url(#SVGID_00000158020431340940729450000012790138867787501458_)"/><path d="m299.448 218.1v14.228c0 6.067 4.918 10.986 10.986 10.986 7.746 0 14.026-6.28 14.026-14.026v-11.188z" fill="url(#SVGID_00000060724521650609017500000003127342281156843667_)"/><path d="m310.434 199.29c-1.372 0-2.679.263-3.89.722v42.58c1.211.459 2.518.722 3.89.722 7.746 0 14.026-6.28 14.026-14.026v-15.971c0-7.747-6.28-14.027-14.026-14.027z" fill="url(#SVGID_00000183965012795941182190000017520913789092241311_)"/></g></g><g/><g/><g/><g/><g/><g/><g/><g/><g/><g/><g/><g/><g/><g/><g/></svg>