<svg height="512pt" viewBox="0 0 512 512.00033" width="512pt" xmlns="http://www.w3.org/2000/svg"><path d="m512 256c0 75.335938-32.539062 143.066406-84.324219 189.898438-13.320312 12.058593-27.917969 22.726562-43.570312 31.789062-17.410157 10.082031-36.125 18.167969-55.820313 23.957031-9.695312 2.851563-19.621094 5.140625-29.757812 6.835938-9.050782 1.511719-18.246094 2.558593-27.585938 3.089843-4.941406.285157-9.914062.429688-14.941406.429688-14.242188 0-28.203125-1.160156-41.804688-3.40625-6.019531-.992188-11.964843-2.183594-17.839843-3.59375-18.128907-4.316406-35.503907-10.5625-51.898438-18.527344-18.503906-8.964844-35.789062-20.09375-51.472656-33.082031-14.554687-12.023437-27.75-25.628906-39.339844-40.5625-33.625-43.320313-53.644531-97.738281-53.644531-156.828125 0-141.382812 114.613281-256 256-256 141.382812 0 256 114.617188 256 256zm0 0" fill="#56e6bf"/><g fill="#1dbfbd"><path d="m427.675781 445.898438c-13.320312 12.058593-27.917969 22.726562-43.570312 31.789062-2.855469-4.316406-4.527344-9.511719-4.527344-15.089844 0-15.003906 12.058594-27.210937 26.886719-27.210937 8.609375 0 16.300781 4.117187 21.210937 10.511719zm0 0"/><path d="m409.375 233.703125c-37.554688 0-63.730469 21.496094-63.730469 40.789063 0 13.011718 10.9375 21.070312 21.070313 21.070312 8.226562 0 12.875-5.140625 16.609375-9.269531 4.789062-5.292969 9.742187-10.769531 25.082031-10.769531 10.960938 0 29.347656 3.222656 29.347656 24.824218 0 18.339844-13.117187 29.292969-24.691406 38.960938-2.617188 2.183594-5.089844 4.25-7.382812 6.367187-9.867188 9.136719-19.957032 23.261719-19.957032 58.742188 0 15.050781 6.871094 22.6875 20.421875 22.6875 15.789063 0 21.390625-9.613281 21.390625-17.839844 0-20.546875.449219-29.292969 11.65625-39.457031l.359375-.347656c1.523438-1.570313 3.570313-3.4375 5.945313-5.597657 13.59375-12.382812 36.339844-33.105469 36.339844-66.75 0-37.925781-29.117188-63.410156-72.460938-63.410156zm0 0"/><path d="m363.332031 436.078125c0 32.589844-21.359375 53.070313-35.046875 65.566406-9.695312 2.851563-19.621094 5.140625-29.757812 6.835938-9.050782 1.511719-18.246094 2.558593-27.585938 3.089843 3.824219-13.582031 10.074219-21.230468 16.238282-26.9375 2.289062-2.109374 4.765624-4.179687 7.386718-6.363281 11.566406-9.664062 24.691406-20.625 24.691406-38.960937 0-21.601563-18.390624-24.828125-29.351562-24.828125-15.339844 0-20.292969 5.476562-25.085938 10.773437-3.730468 4.125-8.382812 9.265625-16.605468 9.265625-10.136719 0-21.074219-8.054687-21.074219-21.074219 0-19.289062 26.171875-40.78125 63.738281-40.78125 43.332032 0 72.453125 25.484376 72.453125 63.414063zm0 0"/></g><path d="m298.527344 449.578125v29.246094c-25.546875 14.503906-53.84375 24.722656-83.90625 29.707031-.144532.019531-.28125.042969-.425782.0625-45.589843-7.480469-87.113281-27-121.210937-55.203125-14.554687-12.023437-27.75-25.628906-39.339844-40.5625 11.273438-26.882813 34.542969-47.511719 63.121094-55.148437 1.484375-.398438 2.980469-.761719 4.496094-1.085938 4.03125-.878906 8.167969-1.484375 12.378906-1.828125 2.570313-.210937 5.164063-.316406 7.785156-.316406h61.953125c6.925782 0 13.675782.734375 20.175782 2.144531.378906.074219.753906.15625 1.117187.238281 1.097656.253907 2.195313.523438 3.273437.816407.03125.011718.050782.011718.082032.019531 10.710937 2.863281 20.679687 7.554687 29.539062 13.710937 24.753906 17.175782 40.960938 45.796875 40.960938 78.199219zm0 0" fill="#f78c45"/><path d="m298.527344 449.578125v58.902344c-13.835938 2.316406-28.035156 3.519531-42.527344 3.519531-61.941406 0-118.742188-21.996094-163.015625-58.609375v-3.8125c0-44.011719 29.886719-81.042969 70.480469-91.898437 1.484375-.398438 2.976562-.761719 4.492187-1.085938 4.03125-.878906 8.171875-1.484375 12.382813-1.828125 2.570312-.210937 5.160156-.316406 7.785156-.316406h15.253906c6.925782 0 13.675782.734375 20.175782 2.144531.378906.074219.753906.15625 1.117187.238281 1.097656.253907 2.195313.523438 3.273437.816407.03125.011718.050782.011718.082032.019531 10.710937 2.863281 20.679687 7.554687 29.539062 13.710937 24.753906 17.175782 40.960938 45.796875 40.960938 78.199219zm0 0" fill="#ffe16b"/><path d="m228.257812 356.59375-.230468 1.074219-31.671875 147.332031c-18.128907-4.316406-35.503907-10.5625-51.898438-18.527344l-27.691406-128.792968-.226563-1.085938zm0 0" fill="#f2efea"/><path d="m172.394531 393.394531-42.832031 23.804688-13.027344-60.605469 26.613282-15.671875" fill="#d8d4ce"/><path d="m172.394531 393.394531 42.828125 23.804688 13.03125-60.605469-26.613281-15.671875" fill="#d8d4ce"/><path d="m44.515625 331.515625v-143.476563c0-14.578124 2.433594-28.863281 7.230469-42.453124 17.957031-51.097657 66.445312-85.441407 120.65625-85.441407 6.714844 0 13.414062.519531 19.921875 1.546875 29.785156 4.65625 57.109375 19.859375 76.921875 42.808594 20.023437 23.195312 31.046875 52.863281 31.046875 83.539062v143.476563" fill="#273647"/><path d="m97.125 193.640625c0 50.75 29.714844 109.464844 46.035156 137.875h-98.648437v-143.476563c0-14.574218 2.4375-28.859374 7.230469-42.453124 17.847656-50.800782 65.890624-85.042969 119.726562-85.429688-39.320312.980469-74.34375 64.0625-74.34375 133.484375zm0 0" fill="#151a1c"/><path d="m206.347656 317.804688v41.652343c0 15.25-10.054687 28.140625-23.90625 32.421875-3.167968.984375-6.546875 1.515625-10.042968 1.515625-18.742188 0-33.9375-15.191406-33.9375-33.9375v-41.652343zm0 0" fill="#ea947c"/><path d="m206.347656 356.820312v2.636719c0 15.25-10.054687 28.140625-23.90625 32.421875-12.496094-3.839844-21.890625-14.707031-23.625-28 2.265625.136719 4.546875.207032 6.835938.207032 6.421875 0 12.71875-.507813 18.851562-1.515626 7.554688-1.214843 14.855469-3.160156 21.84375-5.75zm0 0" fill="#f6c2b4"/><path d="m79.296875 249.535156c0 15.714844-11.480469 28.742188-26.507813 31.160156-1.644531.265626-3.332031.40625-5.058593.40625-17.4375 0-31.566407-14.128906-31.566407-31.566406s14.128907-31.566406 31.566407-31.566406c1.726562 0 3.414062.140625 5.058593.40625 15.027344 2.417969 26.507813 15.445312 26.507813 31.160156zm0 0" fill="#f6c2b4"/><path d="m79.296875 249.535156c0 15.714844-11.480469 28.742188-26.507813 31.160156-2.730468-9.929687-4.191406-20.375-4.191406-31.160156s1.457032-21.230468 4.191406-31.160156c15.027344 2.417969 26.507813 15.445312 26.507813 31.160156zm0 0" fill="#ea947c"/><path d="m59.011719 249.535156c0 6.230469-5.050781 11.28125-11.28125 11.28125s-11.28125-5.050781-11.28125-11.28125c0-6.230468 5.050781-11.28125 11.28125-11.28125s11.28125 5.050782 11.28125 11.28125zm0 0" fill="#ea947c"/><path d="m253.453125 209.230469v108.5c-16.769531 16.007812-38.273437 27.097656-62.203125 30.953125-.1875.03125-.386719.0625-.574219.09375-5.945312.949218-12.046875 1.417968-18.273437 1.417968-64.859375 0-117.4375-52.578124-117.4375-117.433593v-44.722657c0-5.726562.40625-11.355468 1.203125-16.863281 27.9375 20.09375 68 18.109375 93.527343-6.019531 8.453126-7.984375 14.324219-17.492188 17.648438-27.574219 1.847656 17.660157 9.925781 34.847657 24.242188 48.378907 17.042968 16.089843 39.558593 23.855468 61.867187 23.269531zm0 0" fill="#ea947c"/><path d="m253.453125 209.230469v108.5c-16.769531 16.007812-38.273437 27.097656-62.203125 30.953125-.1875.03125-.386719.0625-.574219.09375-56.171875-8.777344-99.140625-57.386719-99.140625-116.015625v-44.722657c0-1.191406.023438-2.371093.0625-3.550781 20.710938 2.121094 42.214844-4.316406 58.097656-19.332031 8.453126-7.984375 14.324219-17.492188 17.648438-27.574219 1.847656 17.660157 9.925781 34.847657 24.242188 48.378907 17.042968 16.089843 39.558593 23.855468 61.867187 23.269531zm0 0" fill="#f6c2b4"/><path d="m235.472656 222.84375c0-10.773438-8.730468-19.503906-19.503906-19.503906s-19.503906 8.730468-19.503906 19.503906" fill="#ea947c"/><path d="m148.355469 222.84375c0-10.773438-8.730469-19.503906-19.503907-19.503906-10.773437 0-19.503906 8.730468-19.503906 19.503906" fill="#ea947c"/><path d="m142.175781 231.148438c0 7.355468-5.964843 13.320312-13.324219 13.320312-7.359374 0-13.324218-5.964844-13.324218-13.320312 0-7.359376 5.964844-13.324219 13.324218-13.324219 7.359376 0 13.324219 5.964843 13.324219 13.324219zm0 0" fill="#273647"/><path d="m229.292969 231.148438c0 7.355468-5.964844 13.320312-13.324219 13.320312-7.355469 0-13.320312-5.964844-13.320312-13.320312 0-7.359376 5.964843-13.324219 13.320312-13.324219 7.359375 0 13.324219 5.964843 13.324219 13.324219zm0 0" fill="#273647"/><path d="m185.734375 264.691406h-26.648437c-3.171876 0-5.746094-2.574218-5.746094-5.746094 0-3.175781 2.574218-5.746093 5.746094-5.746093h26.648437c3.171875 0 5.746094 2.570312 5.746094 5.746093 0 3.171876-2.574219 5.746094-5.746094 5.746094zm0 0" fill="#ea947c"/><path d="m172.410156 301.050781c-9.832031 0-19.667968-2.464843-28.632812-7.390625-2.527344-1.390625-3.449219-4.566406-2.058594-7.097656 1.390625-2.527344 4.566406-3.449219 7.09375-2.058594 14.777344 8.121094 32.421875 8.121094 47.195312 0 2.527344-1.390625 5.707032-.46875 7.097657 2.058594 1.390625 2.53125.464843 5.707031-2.0625 7.097656-8.964844 4.925782-18.796875 7.390625-28.632813 7.390625zm0 0" fill="#ea947c"/><path d="m139.457031 228.796875c0 3.152344-2.554687 5.707031-5.707031 5.707031s-5.710938-2.554687-5.710938-5.707031 2.558594-5.710937 5.710938-5.710937 5.707031 2.558593 5.707031 5.710937zm0 0" fill="#fff"/><path d="m227.230469 228.796875c0 3.152344-2.558594 5.707031-5.710938 5.707031-3.152343 0-5.707031-2.554687-5.707031-5.707031s2.554688-5.710937 5.707031-5.710937c3.152344 0 5.710938 2.558593 5.710938 5.710937zm0 0" fill="#fff"/><path d="m252.339844 263.597656c0 8.078125-6.550782 14.628906-14.628906 14.628906-8.078126 0-14.628907-6.550781-14.628907-14.628906s6.550781-14.628906 14.628907-14.628906c8.078124 0 14.628906 6.550781 14.628906 14.628906zm0 0" fill="#ea947c"/><path d="m121.726562 263.597656c0 8.078125-6.546874 14.628906-14.625 14.628906-8.082031 0-14.628906-6.550781-14.628906-14.628906s6.546875-14.628906 14.628906-14.628906c8.078126 0 14.625 6.550781 14.625 14.628906zm0 0" fill="#ea947c"/><path d="m505.5625 168.144531c-.855469 4.441407-2.558594 8.558594-4.933594 12.183594-5.398437 8.257813-14.292968 13.972656-24.511718 15.234375-35.535157 4.371094-71.085938 6.28125-106.621094 5.726562l-62.558594 36.605469c-5.035156 2.933594-11.355469-.691406-11.355469-6.511719v-34.824218c-2.886719-.324219-5.769531-.640625-8.644531-.996094-14.773438-1.816406-26.707031-12.945312-29.496094-27.5625-8.558594-44.921875-8.546875-89.839844.03125-134.761719 2.78125-14.574219 14.753906-25.609375 29.476563-27.417969 5.003906-.617187 10-1.179687 15.003906-1.703124 58.046875-6.007813 116.097656-5.441407 174.132813 1.703124 14.734374 1.808594 26.6875 12.84375 29.476562 27.417969 8.578125 44.964844 8.578125 89.933594 0 134.90625zm0 0" fill="#caf1ff"/><path d="m500.628906 180.328125c-5.398437 8.257813-14.292968 13.972656-24.511718 15.234375-35.535157 4.371094-71.085938 6.28125-106.621094 5.726562l-62.558594 36.605469c-2.183594 1.273438-4.597656 1.316407-6.644531.480469-2.675781-1.089844-4.710938-3.691406-4.710938-6.992188v-34.824218c-2.886719-.324219-5.769531-.640625-8.644531-.996094-14.773438-1.816406-26.707031-12.945312-29.496094-27.5625-5.121094-26.875-7.167968-53.75-6.152344-80.625.667969-18.042969 2.734376-36.089844 6.183594-54.136719 2.78125-14.574219 14.753906-25.609375 29.476563-27.417969 5.003906-.617187 10-1.179687 15.003906-1.703124 94.417969 17.105468 170.800781 86.007812 198.675781 176.210937zm0 0" fill="#82e2ff"/><path d="m374.285156 149.894531c-8.660156 0-15.707031 7.132813-15.707031 15.898438s7.046875 15.894531 15.707031 15.894531 15.707032-7.128906 15.707032-15.894531-7.046876-15.898438-15.707032-15.898438zm0 0" fill="#36507d"/><path d="m375.984375 32.070312c-21.941406 0-37.234375 12.558594-37.234375 23.828126 0 7.601562 6.390625 12.308593 12.308594 12.308593 4.808594 0 7.523437-3 9.707031-5.414062 2.796875-3.09375 5.691406-6.292969 14.652344-6.292969 6.402343 0 17.144531 1.882812 17.144531 14.503906 0 10.714844-7.664062 17.113282-14.425781 22.761719-1.527344 1.277344-2.972657 2.484375-4.3125 3.71875-5.765625 5.339844-11.660157 13.589844-11.660157 34.320313 0 8.792968 4.015626 13.253906 11.933594 13.253906 9.222656 0 12.496094-5.617188 12.496094-10.421875 0-12.003907.261719-17.113281 6.8125-23.054688l.207031-.199219c.890625-.917968 2.085938-2.007812 3.472657-3.273437 7.941406-7.234375 21.230468-19.339844 21.230468-38.996094 0-22.15625-17.011718-37.042969-42.332031-37.042969zm0 0" fill="#36507d"/><path d="m300.292969 188.039062v50.335938c-2.675781-1.089844-4.710938-3.691406-4.710938-6.992188v-34.824218c-2.886719-.324219-5.769531-.640625-8.644531-.996094-14.773438-1.816406-26.707031-12.945312-29.496094-27.5625-5.121094-26.875-7.167968-53.75-6.152344-80.625 6.488282 5.078125 12.503907 10.816406 17.960938 17.125 20.019531 23.199219 31.042969 52.863281 31.042969 83.539062zm0 0" fill="#3fb7d4"/></svg>