<svg height="512" viewBox="0 0 64 64" width="512" xmlns="http://www.w3.org/2000/svg"><g id="Icons"><g><g><g><path d="m36 54v2h-32v-2c0-4.42 3.58-8 8-8h16c1.8 0 3.46.6 4.8 1.6 1.94 1.46 3.2 3.78 3.2 6.4z" fill="#c80a50"/></g></g><g><g><path d="m36 54v2h-3v-5c0-.55-.45-1-1-1h-1c-.55 0-1-.45-1-1s.45-1 1-1h1c.33 0 .62-.16.8-.4 1.94 1.46 3.2 3.78 3.2 6.4z" fill="#a00028"/></g></g><g><g><path d="m26.7 46c-1.64 1.84-4.04 3-6.7 3s-5.06-1.16-6.7-3z" fill="#a00028"/></g></g><g><g><g><path d="m20 48c-4.971 0-9-4.029-9-9v-8h18v8c0 4.971-4.029 9-9 9z" fill="#f0c8a0"/></g></g><g><g><path d="m11 39h1v-6h-1c-1.657 0-3 1.343-3 3 0 1.657 1.343 3 3 3z" fill="#f0c8a0"/></g></g><g><g><path d="m29 33h-1v6h1c1.657 0 3-1.343 3-3 0-1.657-1.343-3-3-3z" fill="#f0c8a0"/></g></g><g><g><path d="m20 34.5c-.276 0-.5.224-.5.5v2.5c0 .276.224.5.5.5s.5-.224.5-.5v-2.5c0-.276-.224-.5-.5-.5z" fill="#0a5078"/></g></g><g><g><circle cx="16" cy="35" fill="#0a5078" r="1"/></g></g><g><g><circle cx="24" cy="35" fill="#0a5078" r="1"/></g></g><g><g><path d="m11 26.5v12.5c1.1 0 2-.9 2-2v-5c0-.552.448-1 1-1h4v-4.5c0-1.933-1.567-3.5-3.5-3.5-1.933 0-3.5 1.567-3.5 3.5z" fill="#0a5078"/></g></g><g><g><path d="m29 26.5v12.5c-1.1 0-2-.9-2-2v-5c0-.552-.448-1-1-1h-8v-4.5c0-1.933 1.567-3.5 3.5-3.5h4c1.933 0 3.5 1.567 3.5 3.5z" fill="#0a5078"/></g></g></g><g><g><g><path d="m60 22c0-7.732-6.268-14-14-14s-14 6.268-14 14c0 7.394 5.737 13.435 13 13.95v2.05c0 .551-.448 1-1 1h-2c-.553 0-1 .448-1 1s.447 1 1 1h2c1.654 0 3-1.346 3-3v-2.05c7.263-.515 13-6.556 13-13.95z" fill="#00a0c8"/></g></g></g><g><path d="m45.078 12.059c-3.528.454-6.078 3.628-6.078 7.185v10.756c0 1.105.895 2 2 2 1.105 0 2-.895 2-2v-4h6v4c0 1.105.895 2 2 2 1.105 0 2-.895 2-2v-11c0-4.163-3.654-7.489-7.922-6.941zm-2.078 9.941v-3c0-1.654 1.346-3 3-3s3 1.346 3 3v3z" fill="#0082aa"/></g><g><g><g><path d="m41 47v9h-8v-6c0-.552-.448-1-1-1h-1c-.55 0-1-.45-1-1s.45-1 1-1h1c.55 0 1-.45 1-1v-4c0-.55.45-1 1-1s1 .45 1 1v5z" fill="#f0c8a0"/></g></g><g><g><path d="m40 49h-4c-.552 0-1-.448-1-1v-3h5c.552 0 1 .448 1 1v2c0 .552-.448 1-1 1z" fill="#d2aa82"/></g></g></g><g><g><path d="m17.173 40c-.668 0-1.177.652-.962 1.285.535 1.579 2.029 2.715 3.789 2.715s3.254-1.136 3.789-2.715c.215-.633-.294-1.285-.962-1.285z" fill="#c80a50"/></g></g><g><path d="m45.078 11.059c-3.528.454-6.078 3.628-6.078 7.185v10.756c0 1.105.895 2 2 2 1.105 0 2-.895 2-2v-4h6v4c0 1.105.895 2 2 2 1.105 0 2-.895 2-2v-11c0-4.163-3.654-7.489-7.922-6.941zm-2.078 9.941v-3c0-1.654 1.346-3 3-3s3 1.346 3 3v3z" fill="#f0f0f0"/></g></g></g></svg>