<svg height="512" viewBox="0 0 512 512" width="512" xmlns="http://www.w3.org/2000/svg"><g id="Layer_1"><g><g><g><path d="m112 448h60c2.209 0 4-1.791 4-4v-4c0-8.837-7.163-16-16-16h-48z" fill="#463c4b"/></g><g><path d="m64 272h96v152h-96z" fill="#463c4b"/></g><path d="m112 424v-152h-48v168c0 4.418 3.582 8 8 8h52c2.209 0 4-1.791 4-4v-4c0-8.836-7.163-16-16-16z" fill="#555a6e"/><g><path d="m112 272h48v32h-48z" fill="#555a6e"/></g><g><path d="m64 272h96v-112c0-8.837-7.163-16-16-16h-64c-8.837 0-16 7.163-16 16z" fill="#23aae6"/></g><g><path d="m96 144h32c8.837 0 16 7.163 16 16 0 8.837-7.163 16-16 16-8.837 0-16-7.163-16-16 0-8.836-7.163-16-16-16z" fill="#f0915a"/></g><g><path d="m96 144h40c13.255 0 24-10.745 24-24v-40h-64z" fill="#f0915a"/></g><g><path d="m136 144c13.255 0 24-10.745 24-24v-40h-48v40c0 13.255 10.745 24 24 24z" fill="#fab991"/></g><g><path d="m64 256v-96c0-8.837 7.163-16 16-16 8.836 0 16 7.163 16 16v96z" fill="#5ad7ff"/></g><g><path d="m64 256v48c-4.418 0-8 3.582-8 8s3.582 8 8 8h16c8.837 0 16-7.164 16-16v-48z" fill="#f0915a"/></g><g><path d="m152 64h-40c-13.255 0-24 10.745-24 24v40c0 4.418 3.582 8 8 8h8c4.418 0 8-3.582 8-8v-16c4.418 0 8-3.582 8-8s3.582-8 8-8h24c8.837 0 16-7.164 16-16 0-8.837-7.163-16-16-16z" fill="#463c4b"/></g><g><path d="m104 120h8v-16h-8c-4.418 0-8 3.582-8 8 0 4.418 3.582 8 8 8z" fill="#f0915a"/></g></g><g><g><path d="m384 224v-64c0-8.836 7.163-16 16-16h64c8.837 0 16 7.164 16 16v64z" fill="#555a6e"/></g><g><path d="m448 144h-32c-8.837 0-16 7.163-16 16v16c0 8.837 7.163 16 16 16 8.837 0 16-7.163 16-16v-16c0-8.836 7.163-16 16-16z" fill="#d7e6f0"/></g><g><path d="m448 144h-40c-13.255 0-24-10.745-24-24v-40h64z" fill="#f0915a"/></g><g><path d="m408 144c-13.255 0-24-10.745-24-24v-40h48v40c0 13.255-10.745 24-24 24z" fill="#fab991"/></g><g><path d="m480 224v-64c0-8.837-7.163-16-16-16-8.836 0-16 7.163-16 16v64z" fill="#463c4b"/></g><g><path d="m392 64h40c13.255 0 24 10.745 24 24v40c0 4.418-3.582 8-8 8h-8c-4.418 0-8-3.582-8-8v-16c-4.418 0-8-3.582-8-8s-3.582-8-8-8h-24c-8.837 0-16-7.164-16-16 0-8.837 7.163-16 16-16z" fill="#463c4b"/></g><g><path d="m440 120h-8v-16h8c4.418 0 8 3.582 8 8 0 4.418-3.582 8-8 8z" fill="#f0915a"/></g></g><g><g><path d="m240 256h256v192h-256z" fill="#a5c3dc"/></g><g><path d="m240 272h176v176h-176z" fill="#d7e6f0"/></g><g><path d="m232 256h264v-32h-264c-4.418 0-8 3.582-8 8v16c0 4.418 3.582 8 8 8z" fill="#91c83c"/></g><g><path d="m408 256h88v-32h-88c-4.418 0-8 3.582-8 8v16c0 4.418 3.582 8 8 8z" fill="#5faa46"/></g></g><g><g><path d="m160 416h-128c-8.837 0-16-7.163-16-16v-64c0-8.837 7.163-16 16-16h128c8.837 0 16 7.163 16 16v64c0 8.837-7.163 16-16 16z" fill="#f06423"/></g><g><path d="m128 416h-96c-8.837 0-16-7.163-16-16v-64c0-8.837 7.163-16 16-16h96c8.837 0 16 7.163 16 16v64c0 8.837-7.163 16-16 16z" fill="#faa019"/></g><g><path d="m48 320h16v96h-16z" fill="#5ad7ff"/></g><g><path d="m96 320h16v96h-16z" fill="#5ad7ff"/></g></g><g><path d="m264 192h-32c-9.707 0-18.458-5.847-22.173-14.816-3.714-8.968-1.661-19.291 5.203-26.155l23.03-23.03-23.03-23.03c-6.864-6.864-8.917-17.187-5.203-26.155 3.715-8.967 12.466-14.814 22.173-14.814h32c6.365 0 12.47 2.529 16.971 7.03l40 40c9.372 9.373 9.372 24.568 0 33.941l-40 40c-4.501 4.5-10.606 7.029-16.971 7.029z" fill="#23aae6"/></g><g><path d="m232 192c-6.142 0-12.284-2.343-16.971-7.03-9.373-9.373-9.373-24.568 0-33.941l23.03-23.03-23.03-23.03c-9.373-9.373-9.373-24.568 0-33.941s24.568-9.373 33.941 0l40 40c9.372 9.373 9.372 24.568 0 33.941l-40 40c-4.686 4.688-10.828 7.031-16.97 7.031z" fill="#5ad7ff"/></g></g></g></svg>