<svg id="Capa_1" enable-background="new 0 0 512 512" height="512" viewBox="0 0 512 512" width="512" xmlns="http://www.w3.org/2000/svg"><g><path d="m412.001 290.512-2.098-4.477-.886-10.094-178.221-114.865-9.995-6.548-2.731-1.023c-9.709-3.638-19.913-5.784-30.265-6.365l-28.285-1.589c-3.705-.208-7.421-.254-11.123-.016-6.676.429-13.379-.687-19.581-3.282l-20.479-8.569-5.689 4.043-47.164 117.095 2.626 6.171 39.706 25.041 12.566 8.832 7.952.177 123.965 87.521 1.176 8.045 17.053 12.585c9.47 6.989 22.816 6.187 30.948-2.322 7.914-8.28 8.385-20.746 2.059-29.534l8.551 6.311c9.751 7.197 23.563 6.092 31.578-2.998 7.764-8.804 7.567-21.723.318-30.28l4.803 3.544c9.299 6.862 22.367 6.24 30.548-1.922 8.698-8.677 8.928-22.272 1.448-31.232l7.212 5.323c10.081 7.44 24.277 5.53 32.024-4.383 5.81-7.435 6.163-17.319 1.984-25.189z" fill="#f1afa2"/><path d="m63.998 233.683-8.514 21.14 2.626 6.171 39.706 25.041 12.566 8.832 7.952.177 123.965 87.521 1.176 8.045 17.053 12.585c9.47 6.989 22.816 6.187 30.948-2.322.69-.722 1.302-1.485 1.879-2.265z" fill="#e99c8c"/><path d="m.564 239.857 52.829-133.91c1.631-4.135 6.306-6.165 10.441-4.533l42.037 16.584c4.135 1.631 6.165 6.306 4.534 10.441l-52.83 133.91c-1.631 4.135-6.306 6.165-10.441 4.533l-42.037-16.583c-4.135-1.632-6.165-6.306-4.533-10.442z" fill="#dbedff"/><path d="m28.09 252.608 53.89-136.601c1.068-2.706 3.414-4.521 6.072-5.04l-24.218-9.554c-4.135-1.631-8.81.399-10.441 4.533l-52.829 133.911c-1.631 4.136.399 8.81 4.534 10.442l23.416 9.237c-1.117-2.059-1.351-4.578-.424-6.928z" fill="#b5dcff"/><g fill="#ffdecf"><path d="m109.862 327.048c-8.604-7.295-9.665-20.184-2.37-28.788l19.099-22.418c7.295-8.604 20.184-9.665 28.788-2.37 8.604 7.295 9.665 20.184 2.37 28.788l-19.099 22.418c-7.295 8.604-20.184 9.665-28.788 2.37z"/><path d="m141.02 353.466c-8.604-7.295-9.665-20.184-2.37-28.788l19.099-22.418c7.295-8.604 20.184-9.665 28.788-2.37 8.604 7.295 9.665 20.184 2.37 28.788l-19.099 22.418c-7.295 8.605-20.184 9.666-28.788 2.37z"/><path d="m172.178 379.885c-8.604-7.295-9.665-20.184-2.37-28.788l19.099-22.418c7.295-8.604 20.184-9.665 28.788-2.37 8.604 7.295 9.665 20.184 2.37 28.788l-19.099 22.418c-7.295 8.605-20.184 9.665-28.788 2.37z"/><path d="m203.335 406.304c-8.604-7.295-9.665-20.184-2.37-28.788l19.099-22.418c7.295-8.604 20.184-9.665 28.788-2.37 8.604 7.295 9.665 20.184 2.37 28.788l-19.099 22.418c-7.295 8.604-20.184 9.665-28.788 2.37z"/></g><path d="m128.611 301.522 19.099-22.418c2.157-2.544 4.809-4.41 7.688-5.614-.007-.006-.012-.012-.019-.018-8.604-7.295-21.493-6.234-28.788 2.37l-19.099 22.418c-7.295 8.604-6.234 21.493 2.369 28.788 6.06 5.139 14.24 6.113 21.1 3.245-8.585-7.299-9.64-20.174-2.35-28.771z" fill="#ffcebe"/><path d="m159.769 327.941 19.099-22.418c2.157-2.544 4.809-4.41 7.688-5.614-.007-.006-.012-.012-.019-.017-8.604-7.296-21.493-6.235-28.788 2.369l-19.099 22.418c-7.295 8.604-6.234 21.493 2.37 28.788 6.06 5.139 14.24 6.113 21.1 3.245-8.586-7.299-9.641-20.174-2.351-28.771z" fill="#ffcebe"/><path d="m190.927 354.359 19.099-22.418c2.157-2.544 4.809-4.41 7.688-5.614-.007-.006-.012-.012-.019-.018-8.604-7.295-21.493-6.234-28.788 2.369l-19.099 22.419c-7.295 8.604-6.234 21.493 2.369 28.788 6.06 5.138 14.24 6.113 21.1 3.244-8.585-7.298-9.64-20.173-2.35-28.77z" fill="#ffcebe"/><path d="m222.085 380.778 19.099-22.418c2.157-2.544 4.809-4.41 7.688-5.614-.007-.006-.012-.012-.019-.018-8.604-7.295-21.493-6.234-28.788 2.369l-19.099 22.418c-7.295 8.604-6.234 21.493 2.369 28.788 6.06 5.138 14.24 6.113 21.1 3.245-8.585-7.298-9.64-20.173-2.35-28.77z" fill="#ffcebe"/><path d="m411.249 138.069-7.447-4.039-29.829 11.011c-8.272 3.054-17.19 3.932-25.899 2.552l-87.935-13.938c-9.921-1.573-20.004 1.712-27.066 8.856-14.552 14.721-42.015 40.717-72.065 60.004-6.714 4.309-7.71 13.779-1.927 19.274 12.025 11.426 36.793 21.272 79.563-17.141 3.939-3.538 9.981-3.392 13.642.432 12.469 13.019 43.122 38.075 88.857 30.21l68.761 50.746 42.976-27.604 2.11-4.639z" fill="#ffdecf"/><path d="m172.735 223.988c30.05-19.288 57.513-45.283 72.065-60.004 7.062-7.144 17.145-10.429 27.066-8.856l87.935 13.938c8.709 1.38 17.627.502 25.899-2.552l29.829-11.011 2.903 1.574-7.185-19.009-7.447-4.039-29.829 11.011c-8.272 3.054-17.19 3.932-25.899 2.552l-87.935-13.938c-9.921-1.573-20.004 1.712-27.066 8.856-14.552 14.721-42.015 40.717-72.065 60.004-6.714 4.309-7.71 13.779-1.927 19.274 2.568 2.44 5.72 4.807 9.502 6.648.959-1.737 2.34-3.284 4.154-4.448z" fill="#ffcebe"/><path d="m511.436 239.857-52.829-133.91c-1.631-4.135-6.306-6.165-10.441-4.533l-42.037 16.584c-4.135 1.631-6.165 6.306-4.534 10.441l52.829 133.911c1.631 4.135 6.306 6.165 10.441 4.533l42.037-16.584c4.136-1.632 6.166-6.306 4.534-10.442z" fill="#b16e3d"/><path d="m485.149 254.979-55.317-140.219c-.805-2.042-.749-4.206-.02-6.106l-23.682 9.343c-4.135 1.631-6.165 6.306-4.534 10.441l52.829 133.911c1.631 4.135 6.306 6.165 10.441 4.533l22.387-8.832c-.893-.83-1.626-1.86-2.104-3.071z" fill="#985e33"/><g fill="#e99c8c"><path d="m332.726 375.615-46.703-36.144c-4.499-3.482-10.97-2.657-14.452 1.842-3.482 4.5-2.657 10.97 1.842 14.452l20.164 15.605 8.509 6.28c9.387 6.928 22.521 6.14 30.64-2.035z"/><path d="m304.976 309.027c-3.471 4.509-2.63 10.977 1.878 14.448l27.506 21.177 4.425 3.265c9.299 6.862 22.367 6.24 30.548-1.922.08-.08.147-.167.225-.247l-50.134-38.598c-4.508-3.472-10.977-2.63-14.448 1.877z"/><path d="m353.174 275.173c-4.506-3.471-10.975-2.634-14.448 1.873-3.472 4.507-2.634 10.975 1.873 14.448l30.501 23.502 6.894 5.088c9.378 6.921 22.309 5.741 30.305-2.436z"/></g></g></svg>