<svg id="Layer_1" enable-background="new 0 0 512 512" height="512" viewBox="0 0 512 512" width="512" xmlns="http://www.w3.org/2000/svg"><g clip-rule="evenodd" fill-rule="evenodd"><g><path d="m251.505 436.978c-77.383-45.457-219.75-149.785-221.649-253.885-2.115-115.892 128.149-168.452 226.145-68.807 97.982-99.63 228.239-47.105 226.144 68.787-1.88 104.107-144.262 208.444-221.649 253.905-2.852 1.673-6.141 1.673-8.991 0z" fill="#fe646f"/><path d="m251.506 436.979c-4.236-2.488-8.677-5.163-13.268-7.995 79.295-48.898 206.604-147.503 208.382-245.911 1.202-66.44-41.104-112.042-95.883-120.094 70.826-10.017 132.859 39.832 131.408 120.094-1.88 104.107-144.262 208.444-221.649 253.905-2.852 1.673-6.141 1.673-8.99.001z" fill="#fd4755"/></g><g><path d="m396.286 262.796-18.795 18.795-155.313 184.897c-1.682 2.002-3.888 3.089-6.501 3.203-2.613.113-4.905-.778-6.754-2.627l-114.199-114.2c-1.849-1.849-2.741-4.141-2.627-6.754.113-2.613 1.2-4.819 3.202-6.501l184.897-155.313 18.795-18.795z" fill="#8d9ca8"/><path d="m396.286 262.796-18.795 18.795-155.313 184.897c-1.682 2.002-3.888 3.089-6.501 3.203-2.613.113-4.905-.778-6.754-2.627l-10.765-10.765c1.814 1.718 4.035 2.544 6.555 2.434 2.613-.113 4.819-1.2 6.501-3.203l155.313-184.897 18.795-18.795-86.334-86.334.003-.003z" fill="#8192a5"/><path d="m335.898 331.107-89.04 105.999-110.715-131.805 84.517-70.994z" fill="#8192a5"/><path d="m335.898 331.107-89.04 105.999-10.083-12.004 87.298-103.927z" fill="#65788e"/></g><g><path d="m384.372 62.023 13.443-13.443c8.374-8.375 22.075-8.374 30.449.001 8.374 8.374 8.37 22.079 0 30.448l-.467.467c8.49-5.474 19.998-4.503 27.414 2.913 8.41 8.41 8.544 22.139.293 30.709 6.972-2.376 15.019-.799 20.553 4.736 7.742 7.742 7.741 20.405.002 28.144l-2.284 2.284c5.871-.842 12.062.982 16.551 5.471 7.565 7.565 7.563 19.934.003 27.494-34.766 34.766-39.856 39.858-63.767 63.768-6.537 6.537-13.608 10.674-22.51 13.168-2.857.801-5.51 2.358-7.769 4.616l-11.839 11.84c-3.831 3.831-10.081 3.831-13.913-.001l-83.383-83.383c-3.831-3.831-3.831-10.081 0-13.912l11.84-11.84c10.33-10.33 5.172-25.159 1.801-37.937-3.647-13.829-2.188-27.918 6.991-38.887l24.314-29.055c15.141-15.142 31.885-17.993 47.02-2.858z" fill="#f6dccd"/><path d="m421.24 43.907c2.56 1.047 4.955 2.604 7.025 4.674 8.381 8.381 8.36 22.089 0 30.449-8.47 8.47-16.952 16.952-25.426 25.426-3.216 3.216-8.48 3.217-11.697 0s-3.217-8.48 0-11.697l25.426-25.426c6.301-6.302 7.86-15.628 4.672-23.426zm34.264 69.211c8.189-8.505 8.18-22.236-.293-30.709-2.068-2.068-4.454-3.634-7.004-4.7 3.276 7.84 1.826 17.244-4.4 23.711l-25.059 25.059c-3.216 3.216-3.217 8.48 0 11.697s8.481 3.216 11.697 0zm20.556 32.879c-9.042 9.042-18.087 18.087-27.13 27.13-3.216 3.216-8.48 3.217-11.697 0s-3.217-8.481 0-11.697l24.846-24.846 2.284-2.284c5.656-5.657 7.178-13.943 4.565-21.016 2.605.962 5.045 2.485 7.129 4.569 7.85 7.85 7.632 20.515.003 28.144zm-104.072-94.983c2.407 1.501 4.786 3.411 7.127 5.753l5.257 5.257-31.062 31.061c-3.216 3.216-8.48 3.217-11.697 0s-3.217-8.481 0-11.697zm111.176 98.206c2.452 6.865.941 14.858-4.532 20.33-34.766 34.766-39.856 39.858-63.767 63.768-6.537 6.537-13.608 10.674-22.51 13.168-2.856.801-5.51 2.358-7.769 4.616l-11.84 11.839c-3.831 3.831-10.081 3.831-13.913-.001l11.697 11.697c3.832 3.832 10.082 3.832 13.913.001l11.839-11.84c2.259-2.259 4.912-3.815 7.769-4.616 8.902-2.494 15.973-6.631 22.51-13.168 23.91-23.911 29-29.002 63.767-63.768 7.56-7.56 7.562-19.93-.003-27.494-2.086-2.087-4.54-3.597-7.161-4.532z" fill="#f1cbbc"/><path d="m396.285 262.8-18.796 18.795-21.923-21.923-75.373-75.373 18.796-18.795z" fill="#d1d1d6"/><path d="m367.748 258.078h26.581v16.542h-26.581z" fill="#b1b1b5" transform="matrix(.707 -.707 .707 .707 -76.734 347.444)"/></g><g><path d="m115.714 262.796 18.795 18.795 155.313 184.897c1.682 2.002 3.888 3.089 6.501 3.203 2.613.113 4.904-.778 6.754-2.627l114.199-114.199c1.849-1.849 2.74-4.141 2.627-6.754s-1.2-4.819-3.203-6.501l-184.896-155.313-18.795-18.795z" fill="#9facba"/><path d="m115.714 262.796 18.795 18.795 155.313 184.897c1.682 2.002 3.888 3.089 6.501 3.203 2.613.113 4.904-.778 6.754-2.627l10.764-10.765c-1.814 1.718-4.035 2.544-6.555 2.434-2.613-.113-4.819-1.2-6.501-3.203l-155.313-184.897-18.795-18.795 86.334-86.334-.003-.003z" fill="#8d9ca8"/></g><g><path d="m127.628 62.023-13.444-13.443c-8.374-8.375-22.075-8.374-30.449.001-8.374 8.374-8.37 22.079 0 30.448l.467.467c-8.49-5.474-19.998-4.503-27.414 2.913-8.41 8.41-8.544 22.139-.293 30.709-6.972-2.376-15.019-.799-20.553 4.736-7.742 7.742-7.741 20.405-.002 28.144l2.285 2.284c-5.871-.842-12.062.982-16.551 5.471-7.565 7.565-7.563 19.934-.003 27.494 34.766 34.766 39.856 39.858 63.767 63.768 6.537 6.537 13.608 10.674 22.51 13.168 2.856.801 5.51 2.358 7.769 4.616l11.839 11.84c3.831 3.831 10.081 3.831 13.913-.001l83.383-83.383c3.831-3.831 3.831-10.081 0-13.912l-11.839-11.84c-10.33-10.33-5.172-25.159-1.801-37.937 3.647-13.829 2.188-27.918-6.991-38.887l-24.314-29.055c-15.141-15.142-31.885-17.993-47.02-2.858z" fill="#f6dccd"/><path d="m90.76 43.907c-2.56 1.047-4.955 2.604-7.025 4.674-8.381 8.381-8.36 22.089 0 30.449l25.426 25.426c3.217 3.216 8.48 3.217 11.697 0s3.217-8.48 0-11.697l-25.426-25.427c-6.301-6.301-7.86-15.627-4.672-23.425zm-34.264 69.211c-8.189-8.505-8.18-22.236.293-30.709 2.068-2.068 4.454-3.634 7.003-4.7-3.276 7.84-1.826 17.244 4.4 23.711l25.059 25.059c3.216 3.216 3.216 8.48 0 11.697-3.217 3.217-8.481 3.216-11.697 0zm-20.556 32.879 27.13 27.13c3.216 3.216 8.48 3.217 11.697 0s3.217-8.481 0-11.697l-24.846-24.846-2.285-2.284c-5.656-5.657-7.178-13.943-4.565-21.016-2.605.962-5.045 2.485-7.129 4.569-7.85 7.85-7.631 20.515-.002 28.144zm104.072-94.983c-2.407 1.501-4.786 3.411-7.127 5.753l-5.257 5.257 31.062 31.062c3.216 3.216 8.48 3.217 11.697 0s3.217-8.481 0-11.697zm-111.177 98.206c-2.452 6.865-.941 14.858 4.532 20.33 34.766 34.766 39.856 39.858 63.767 63.768 6.537 6.537 13.608 10.674 22.51 13.168 2.856.801 5.51 2.358 7.769 4.616l11.84 11.839c3.831 3.831 10.081 3.831 13.913-.001l-11.697 11.697c-3.832 3.832-10.082 3.832-13.913.001l-11.839-11.84c-2.259-2.259-4.912-3.815-7.769-4.616-8.902-2.494-15.973-6.631-22.51-13.168-23.91-23.911-29-29.002-63.767-63.768-7.56-7.56-7.562-19.93.003-27.494 2.087-2.087 4.541-3.597 7.161-4.532z" fill="#f1cbbc"/><path d="m115.715 262.8 18.796 18.795 21.923-21.923 75.373-75.373-18.796-18.795z" fill="#d1d1d6"/><path d="m122.691 253.058h16.542v26.581h-16.542z" fill="#b1b1b5" transform="matrix(.707 -.707 .707 .707 -149.98 170.618)"/></g></g></svg>