<svg height="512pt" viewBox="-15 0 511 512" width="512pt" xmlns="http://www.w3.org/2000/svg"><path d="m139.675781 163.503906-69.585937-100.78125-69.589844 100.78125h25.496094v348.214844h88.1875v-348.214844zm0 0" fill="#79bbe8"/><path d="m196.898438 399.207031-69.585938-100.78125-69.589844 100.78125h25.492188v112.511719h88.191406v-112.511719zm0 0" fill="#f74866"/><path d="m480.886719 100.78125-69.585938-100.78125-69.589843 100.78125h25.496093v410.9375h88.1875v-410.9375zm0 0" fill="#ffc627"/><path d="m385.855469 461.402344v50.597656h-221.847657v-50.597656c0-21.742188 17.621094-39.363282 39.355469-39.363282h143.132813c21.738281 0 39.359375 17.621094 39.359375 39.363282zm0 0" fill="#3b485b"/><path d="m385.855469 461.402344v50.597656h-208.363281v-50.597656c0-21.742188 17.621093-39.363282 39.363281-39.363282h129.640625c21.738281 0 39.359375 17.621094 39.359375 39.363282zm0 0" fill="#515f75"/><path d="m204.472656 422.042969-2.390625 60.53125 25.449219 6.363281-22.847656 22.84375h140.496094l-22.847657-22.84375 25.445313-6.363281-2.386719-60.53125" fill="#3b485b"/><path d="m323.441406 422.042969-25.628906 89.953125h-45.753906l-25.628906-89.953125" fill="#f2f2f2"/><path d="m243.585938 444.128906 31.347656 39.242188 31.039062-39.09375-31.039062-5.800782z" fill="#f74866"/><path d="m240.828125 472.578125 34.105469-34.101563 34.105468 34.101563 14.402344-50.535156h-97.011718zm0 0" fill="#e6e6e6"/><path d="m304.09375 371.507812v50.539063l-29.160156 16.429687-9.007813-5.074218-20.152343-11.355469v-50.574219l20.152343.007813zm0 0" fill="#f9c2af"/><path d="m252.214844 511.996094 22.71875-28.625 22.878906 28.625" fill="#f74866"/><path d="m265.925781 371.480469-20.152343-.007813v50.574219l20.152343 11.355469v-23.386719c2.976563.292969 5.992188.460937 9.046875.460937 10.179688 0 19.976563-1.660156 29.121094-4.730468v-34.238282zm0 0" fill="#ea9e8f"/><path d="m183.441406 318.292969c-15.179687 0-27.488281-11.015625-27.488281-24.609375 0-13.589844 12.308594-24.609375 27.488281-24.609375h183.066406c15.183594 0 27.492188 11.019531 27.492188 24.609375 0 13.59375-12.308594 24.609375-27.492188 24.609375" fill="#ea9e8f"/><path d="m366.511719 215.214844v91.539062c0 50.546875-40.980469 91.527344-91.539063 91.527344-25.269531 0-48.160156-10.246094-64.722656-26.804688-16.558594-16.5625-26.804688-39.453124-26.804688-64.722656v-91.539062zm0 0" fill="#f9c2af"/><path d="m274.324219 398.28125c-25.019531-.171875-47.644531-10.382812-64.074219-26.804688-16.5625-16.570312-26.808594-39.445312-26.808594-64.726562v-91.535156h41.210938v91.535156c0 25.28125 5.628906 48.15625 14.738281 64.726562 8.964844 16.308594 21.292969 26.484376 34.933594 26.804688zm0 0" fill="#ea9e8f"/><path d="m307.535156 305.753906c-3.351562 0-6.070312-2.71875-6.070312-6.070312v-12.71875c0-3.351563 2.71875-6.070313 6.070312-6.070313 3.355469 0 6.070313 2.71875 6.070313 6.070313v12.71875c0 3.351562-2.714844 6.070312-6.070313 6.070312zm0 0" fill="#293544"/><path d="m242.414062 305.753906c-3.351562 0-6.070312-2.71875-6.070312-6.070312v-12.71875c0-3.351563 2.71875-6.070313 6.070312-6.070313 3.351563 0 6.070313 2.71875 6.070313 6.070313v12.71875c0 3.351562-2.71875 6.070312-6.070313 6.070312zm0 0" fill="#293544"/><path d="m366.511719 215.214844v22.9375c-6.273438 4.496094-13.777344 8.4375-22.6875 11.648437-33.171875 11.949219-65.28125 7.925781-87.984375 1.59375 0 0-.011719 0-.011719-.007812-19.78125-5.503907-32.421875-12.773438-32.421875-12.773438s-8.347656 40.171875-39.960938 40.171875v-63.570312zm0 0" fill="#ea9e8f"/><path d="m343.820312 240.089844c-33.167968 11.949218-65.277343 7.925781-87.984374 1.597656 0 0-.011719 0-.011719-.011719-19.773438-5.507812-32.417969-12.777343-32.417969-12.777343s-8.347656 40.171874-39.964844 40.171874c0 0-21.03125-37.207031-20.371094-71.628906.339844-17.851562 15.058594-31.203125 31.789063-31.203125 3.125 0 6.320313.464844 9.503906 1.457031 8.960938-24.0625 32.632813-39.289062 58.261719-37.730468 3.992188.246094 8.007812.5625 12.039062.929687.769532.0625 1.550782.136719 2.320313.207031.078125.007813.160156.015626.238281.023438 41.832032 3.929688 84.207032 11.578125 109.105469-15.964844 0 0 41.152344 94.789063-42.507813 124.929688zm0 0" fill="#515f75"/><path d="m262.625 129.964844c3.992188.246094 8.007812.5625 12.039062.929687-36.914062-1.558593-66.238281 79.730469-18.839843 110.78125-19.773438-5.507812-32.417969-12.777343-32.417969-12.777343s-8.347656 40.171874-39.964844 40.171874c0 0-21.03125-37.207031-20.371094-71.628906.339844-17.851562 15.058594-31.203125 31.789063-31.203125 3.125 0 6.320313.464844 9.503906 1.457031 8.960938-24.0625 32.632813-39.289062 58.261719-37.730468zm0 0" fill="#3b485b"/><path d="m277.238281 131.132812c-.085937-.015624-.164062-.023437-.253906-.03125.078125.007813.160156.015626.238281.023438zm0 0" fill="#f4af9d"/><path d="m274.976562 354.394531c-9.6875 0-19.375-3.6875-26.75-11.0625-2.371093-2.371093-2.371093-6.214843 0-8.585937 2.371094-2.371094 6.214844-2.371094 8.585938 0 10.015625 10.015625 26.3125 10.015625 36.324219 0 2.371093-2.371094 6.214843-2.371094 8.585937 0s2.371094 6.214844 0 8.585937c-7.375 7.375-17.0625 11.0625-26.746094 11.0625zm0 0" fill="#e06e86"/></svg>