<svg id="Capa_1" enable-background="new 0 0 512.219 512.219" height="512" viewBox="0 0 512.219 512.219" width="512" xmlns="http://www.w3.org/2000/svg"><g><path d="m512.109 259.599-15.43 7.25 15.43 7.75v66.54l-11.68 7.5 11.68 7.5v66.79l-13.72 9.14 13.72 5.86v66.05c0 4.55-3.69 8.24-8.24 8.24h-154.93l-6.13-14.11-8.87 14.11h-155.66l-6.36-15.47-8.64 15.47h-154.93c-4.55 0-8.24-3.69-8.24-8.24v-66.05l10.79-7.5-10.79-7.5v-66.79l12.38-3.73-12.38-11.27v-66.05c0-4.55 3.69-8.24 8.24-8.24h247.76v-73.54c0-4.56 3.69-8.25 8.24-8.25h154.93l8.64 14.84 6.36-14.84h69.59c4.55 0 8.24 3.69 8.24 8.25z" fill="#d1a08f"/><path d="m289.109 185.059c-4.56 0-8.25 3.69-8.25 8.25v73.54h-24.75v-73.54c0-4.56 3.69-8.25 8.24-8.25z" fill="#c68d7a"/><path d="m33.109 512.219h-24.76c-4.55 0-8.24-3.69-8.24-8.24v-66.05l10.79-7.5-10.79-7.5v-66.79l12.38-3.73-12.38-11.27v-66.05c0-4.55 3.69-8.24 8.24-8.24h24.76c-4.56 0-8.25 3.69-8.25 8.24v228.89c0 4.55 3.69 8.24 8.25 8.24z" fill="#c68d7a"/><path d="m429.709 145.429-39.56 56.03c-2.91 4.12-7.66 6.53-12.7 6.43l-62.07-1.13-15.91-.29c-8.19-.15-14.78-6.75-14.93-14.93l-1.43-77.98c-.09-5.04 2.32-9.79 6.44-12.7l56.03-39.56c6.04-4.27 14.29-3.57 19.52 1.67l62.94 62.94c5.24 5.23 5.94 13.48 1.67 19.52z" fill="#c5d3dd"/><path d="m315.379 206.759-15.91-.29c-8.19-.15-14.78-6.75-14.93-14.93l-1.43-77.98c-.09-5.04 2.32-9.79 6.44-12.7l56.03-39.56c6.04-4.27 14.29-3.57 19.52 1.67l.13.13-51.62 36.44c-4.28 3.03-6.79 7.98-6.69 13.22l1.48 81.16c.1 5.35 2.84 10.05 6.98 12.84z" fill="#b6c4cf"/><path d="m359.861 131.679-.534-.534c-4.882-4.882-4.882-12.796 0-17.678l107.824-107.823c4.882-4.882 12.796-4.882 17.678 0l.534.534c4.882 4.882 4.882 12.796 0 17.678l-107.824 107.823c-4.882 4.881-12.796 4.881-17.678 0z" fill="#8d9ca8"/><path d="m437.502 75.76-22.667-22.667c-.781-.781-.781-2.047 0-2.828l45.139-45.139c6.834-6.834 17.915-6.834 24.749 0l.747.747c6.834 6.834 6.834 17.915 0 24.749l-45.139 45.138c-.781.781-2.048.781-2.829 0z" fill="#fff0ad"/><path d="m165.259 348.639c0 4.14-3.36 7.5-7.5 7.5h-64.82v66.79h21.79c4.14 0 7.5 3.36 7.5 7.5 0 4.15-3.36 7.5-7.5 7.5h-114.62l10.79-7.5-10.79-7.5h77.83v-66.79h-77.83l12.38-3.73-12.38-11.27h157.65c4.14 0 7.5 3.36 7.5 7.5z" fill="#c5d3dd"/><path d="m512.029 274.599h.08v-15h-.06l-77.77-.13v-74.41h-15v74.38l-163.17-.27-39.76-.06h-6.3c-4.14 0-1.2 3.35-1.21 7.49 0 .08 0 .17-.01.25-.12 4.03-2.85 7.25 1.22 7.26l123.89.19v66.84h-146.39c-4.14 0-7.5 3.36-7.5 7.5s3.36 7.5 7.5 7.5h61.06v66.79h-97.83c-4.14 0-7.5 3.36-7.5 7.5 0 4.15 3.36 7.5 7.5 7.5h12.5v74.29h15v-74.29h155.66v74.29h15v-74.29h163.17v-15h-77.83v-66.79h77.83v-15h-163.17v-66.81zm-92.75 81.54v66.79h-155.67v-66.79z" fill="#c5d3dd"/><path d="m147.407 246.659h54.572c7.97 0 14.43 6.46 14.43 14.43v9.68c0 7.97-6.46 14.43-14.43 14.43-3.99 0-7.59 1.62-10.2 4.23s-4.23 6.21-4.23 10.2v62.48c0 8.05-6.18 15-14.22 15.35-8.53.38-15.57-6.43-15.57-14.88v-57.89c0-10.76-8.73-19.49-19.5-19.49h-6.76c-10.77 0-19.5 8.73-19.5 19.49 0 2.65-.67 5.18-1.86 7.39-.61 1.15-1.36 2.22-2.23 3.17-2.56 2.79-6.11 4.61-10.13 4.79-8.53.38-15.57-6.43-15.57-14.88v-5.53c0-7.97-6.46-14.43-14.43-14.43h-4.25c-7.97 0-14.43-6.46-14.43-14.43v-9.68c0-7.97 6.46-14.43 14.43-14.43z" fill="#8d9ca8"/><path d="m110.139 312.079c-.61 1.15-1.36 2.22-2.23 3.17-2.56 2.79-6.11 4.61-10.13 4.79-8.53.38-15.57-6.43-15.57-14.88v-5.53c0-7.97-6.46-14.43-14.43-14.43h-4.25c-7.97 0-14.43-6.46-14.43-14.43v-9.68c0-7.97 6.46-14.43 14.43-14.43h16.32c-3.87 2.84-6.38 7.43-6.38 12.6v10.47c0 8.63 6.99 15.62 15.62 15.62h4.6c8.63 0 15.62 6.99 15.62 15.61v6c0 1.79.29 3.51.83 5.12z" fill="#7a8c98"/><g fill="#b6c4cf"><path d="m.109 422.929h24.75v15h-24.75z"/><path d="m.109 341.139h24.75v15h-24.75z"/></g></g></svg>