<svg height="512" viewBox="0 0 64 64" width="512" xmlns="http://www.w3.org/2000/svg"><g id="q"><g><path d="m19 41h33c3.314 0 6-2.686 6-6v-12.291c0-.984-.716-1.822-1.688-1.976l-37.312-5.994" fill="#4fb5dc"/><path d="m56.312 20.733-33.312-5.352v16.619c0 2.761 2.239 5 5 5h28c.606 0 1.19-.092 1.741-.259.167-.551.259-1.135.259-1.741v-12.291c0-.984-.716-1.822-1.688-1.976z" fill="#5ed3f2"/><path d="m56.464 19.745-37.312-5.733-.305 1.977 7.237 1.112.513 6.417-7.519-.594-.158 1.994 7.839.619.597 7.463h-7.357v2h7.517l.4 5h-7.917v2h32.001c3.859 0 7-3.141 7-7v-12.291c0-1.486-1.065-2.732-2.536-2.964zm.536 2.964v3.209l-5.754-.454.355-4.442 4.554.7c.488.077.844.493.844.988zm-15.261 2.004-6.077-.48-.459-5.732 6.771 1.04-.235 5.171zm2.223-4.865 5.657.869-.367 4.589-5.518-.436.228-5.023zm-2.314 6.865-.286 6.288h-4.999l-.54-6.748zm-.377 8.288-.227 5h-4.121l-.4-5zm2.002 0h5.203l-.4 5h-5.03zm.091-2 .279-6.13 5.449.43-.456 5.7zm7.722-5.542 5.913.467v5.076h-6.357l.443-5.542zm-22.97-10.045 5.055.777.471 5.884-5.025-.397zm.663 8.284 5.025.397.553 6.907h-4.993l-.584-7.304zm.744 9.304h4.993l.4 5h-4.993zm22.477 5h-1.917l.4-5h6.517c0 2.757-2.243 5-5 5z" fill="#474747"/><path d="m60 51c1.105 0 2-.895 2-2 0-1.105-.895-2-2-2h-38c-1.105 0-2-.895-2-2v-35c0-2.761-2.239-5-5-5h-11c-1.105 0-2 .895-2 2 0 1.105.895 2 2 2h10c1.105 0 2 .895 2 2v36c0 2.209 1.791 4 4 4z" fill="#686868"/><circle cx="27" cy="55" fill="#474747" r="4"/><path d="m27 51c-.161 0-.315.029-.471.047-.327.58-.529 1.239-.529 1.953 0 2.209 1.791 4 4 4 .161 0 .315-.029.471-.047.327-.58.529-1.24.529-1.953 0-2.209-1.791-4-4-4z" fill="#686868"/><circle cx="49" cy="55" fill="#474747" r="4"/><path d="m16 15h-6v9h6" fill="#f4a93c"/><path d="m15 21h1v-6h-3v4c0 1.105.895 2 2 2z" fill="#f6b940"/><path d="m49 51c-.161 0-.315.029-.471.047-.327.58-.529 1.239-.529 1.953 0 2.209 1.791 4 4 4 .161 0 .315-.029.471-.047.327-.58.529-1.24.529-1.953 0-2.209-1.791-4-4-4z" fill="#686868"/><circle cx="36" cy="18" fill="#6bc13b" r="11"/><path d="m36 7c-1.372 0-2.681.263-3.892.722-3.067 1.952-5.108 5.373-5.108 9.278 0 6.075 4.925 11 11 11 1.372 0 2.681-.263 3.892-.722 3.067-1.952 5.108-5.373 5.108-9.278 0-6.075-4.925-11-11-11z" fill="#7bdf45"/><path d="m43 17h-6v-6h-2v6h-6v2h6v6h2v-6h6z" fill="#fff"/></g></g></svg>