<svg id="Layer_1" height="512" viewBox="0 0 512 512" width="512" xmlns="http://www.w3.org/2000/svg"><g><path d="m272 400h-80v-24h-48v48c0 13.255 10.745 24 24 24h104v8c0 8.836 7.163 16 16 16s16-7.164 16-16v-24c0-17.673-14.327-32-32-32z" fill="#f0915a"/><g><path d="m296 176h-32v-16c0-13.255-10.745-24-24-24h-48c-8.837 0-16 7.164-16 16v24h-56v48c0 13.255-10.745 24-24 24h-80v144h32l10.912 10.912c10.197 10.196 23.139 17.013 37.088 19.742v25.346c0 13.255 10.745 24 24 24h104v8c0 8.836 7.163 16 16 16s16-7.164 16-16v-24c0-17.673-14.327-32-32-32h-80v-4.543c55.314-15.012 96-65.567 96-125.633v-45.824h16c26.51 0 48-21.49 48-48v-16c0-4.418-3.582-8-8-8z" fill="#fab991"/><path d="m296 176h-8c-4.418 0-8 3.582-8 8v16c0 13.255-10.745 24-24 24h-48c-13.255 0-24 10.745-24 24v24h56v-24h16c26.51 0 48-21.49 48-48v-16c0-4.418-3.582-8-8-8z" fill="#f0915a"/><g><path d="m232 176h32v-16c0-13.255-10.745-24-24-24h-24v24c0 8.837 7.163 16 16 16z" fill="#f0915a"/></g><g><path d="m136 240c-22.092 0-40-17.909-40-40 0-35.346 28.654-64 64-64h32c-8.837 0-16 7.163-16 16v48c0 22.091-17.909 40-40 40z" fill="#463c4b"/></g><g><circle cx="200" cy="160" fill="#463c4b" r="8"/></g><g><circle cx="240" cy="160" fill="#463c4b" r="8"/></g><g><path d="m292 200c6.627 0 12-5.373 12-12v-4c0-4.418-3.582-8-8-8h-8c-4.418 0-8 3.582-8 8v4c0 6.627 5.373 12 12 12z" fill="#463c4b"/></g></g><g><path d="m20 208h80c2.209 0 4-1.791 4-4 0-2.209-1.791-4-4-4h-80c-2.209 0-4 1.791-4 4 0 2.209 1.791 4 4 4z" fill="#f04b37"/></g><g><path d="m44 224h32c2.209 0 4-1.791 4-4 0-2.209-1.791-4-4-4h-32c-2.209 0-4 1.791-4 4 0 2.209 1.791 4 4 4z" fill="#f04b37"/></g><g><path d="m92 496h32c2.209 0 4-1.791 4-4 0-2.209-1.791-4-4-4h-32c-2.209 0-4 1.791-4 4 0 2.209 1.791 4 4 4z" fill="#f04b37"/></g><g><circle cx="448" cy="184" fill="#4182c3" r="48"/></g><g><path d="m448 152v-16c-26.51 0-48 21.49-48 48h16c17.673 0 32-14.327 32-32z" fill="#64afe1"/></g><g><path d="m384 132c-1.024 0-2.047-.391-2.829-1.171l-33.706-33.706c-44.573-44.575-103.839-69.123-166.876-69.123h-20.589c-2.209 0-4-1.791-4-4s1.791-4 4-4h20.589c32.205 0 63.621 6.249 93.375 18.573 29.754 12.325 56.387 30.12 79.16 52.893l33.706 33.706c1.562 1.563 1.562 4.095 0 5.657-.783.78-1.806 1.171-2.83 1.171z" fill="#64afe1"/></g><g><path d="m416 116c-1.024 0-2.047-.391-2.829-1.171l-24-24c-1.562-1.563-1.562-4.095 0-5.657 1.563-1.562 4.095-1.562 5.657 0l24 24c1.562 1.563 1.562 4.095 0 5.657-.781.78-1.804 1.171-2.828 1.171z" fill="#64afe1"/></g><g><path d="m368 164c-1.024 0-2.047-.391-2.829-1.171l-48-48c-1.562-1.563-1.562-4.095 0-5.657 1.563-1.562 4.095-1.562 5.657 0l48 48c1.562 1.563 1.562 4.095 0 5.657-.781.78-1.804 1.171-2.828 1.171z" fill="#64afe1"/></g><g><path d="m128 28h-16c-2.209 0-4-1.791-4-4s1.791-4 4-4h16c2.209 0 4 1.791 4 4s-1.791 4-4 4z" fill="#64afe1"/></g><g><path d="m376 76c-1.024 0-2.047-.391-2.829-1.171l-8-8c-1.562-1.563-1.562-4.095 0-5.657 1.563-1.562 4.095-1.562 5.657 0l8 8c1.562 1.563 1.562 4.095 0 5.657-.781.78-1.804 1.171-2.828 1.171z" fill="#64afe1"/></g></g></svg>