<svg id="Capa_1" enable-background="new 0 0 512 512" height="512" viewBox="0 0 512 512" width="512" xmlns="http://www.w3.org/2000/svg"><g><path d="m250.5 22c-135.31 0-245 109.69-245 245 0 72.146 31.189 137.003 80.814 181.838l1-.445v-53.017c0-23.662 19.25-42.912 42.912-42.912h231.856c17.798 0 33.486 10.715 39.97 27.299l.249.636h12.346c2.471 0 4.48 2.01 4.48 4.48v58.464l1 .427c46.452-44.586 75.373-107.298 75.373-176.77 0-135.31-109.69-245-245-245z" fill="#d8ecfe"/><path d="m146.217 139.078.371-.558-.375-.555c-5.783-8.577-8.84-18.568-8.84-28.895v-12.261c0-8.166 6.643-14.809 14.808-14.809h30.508v-50.029c0-3.298-2.673-5.971-5.971-5.971h-155.247c-3.298 0-5.971 2.673-5.971 5.971v108.306c0 3.298 2.673 5.971 5.971 5.971h67.622c1.326 0 2.598.527 3.536 1.464l24.774 24.774c1.881 1.881 5.097.549 5.097-2.111v-19.128c0-2.761 2.239-5 5-5h14.716c1.141-2.474 2.473-4.873 4.001-7.169z" fill="#8bc727"/><g><path d="m46.811 140.277v-108.306c0-3.298 2.673-5.971 5.971-5.971h-31.311c-3.298 0-5.971 2.673-5.971 5.971v108.306c0 3.298 2.673 5.971 5.971 5.971h31.311c-3.298 0-5.971-2.673-5.971-5.971z" fill="#81b823"/></g><path d="m407.038.005c-49.823-.504-92.096 35.939-100.149 83.84 27.551 6.801 48.046 31.715 48.046 61.336v41.882c8.713 5.151 18.265 9.032 28.409 11.369 1.367.315 2.552 1.163 3.253 2.378l16.868 29.216c1.127 1.951 3.943 1.951 5.07 0l16.867-29.215c.702-1.216 1.887-2.065 3.255-2.38 44.592-10.275 77.843-50.22 77.843-97.933 0-55.156-44.435-99.936-99.462-100.493z" fill="#fed402"/><g fill="#fac600"><path d="m322.026 88.583c.004-.89-.006-1.777.021-2.672.881-29.292 14.46-55.429 35.298-73.236-25.881 14.436-44.885 39.981-50.279 70.179 5.272 1.29 10.289 3.225 14.96 5.729z"/><path d="m403.097 189.32c-.702-1.215-1.886-2.063-3.253-2.378-16.586-3.822-31.589-11.763-43.909-22.666v23.37c8.442 4.86 17.651 8.539 27.409 10.787 1.367.315 2.552 1.163 3.253 2.378l16.868 29.216c1.127 1.951 3.943 1.951 5.07 0l9.032-15.644z"/></g><g><g><g><path d="m146.266 66.5h-94.343c-4.142 0-7.5-3.358-7.5-7.5s3.358-7.5 7.5-7.5h94.343c4.142 0 7.5 3.358 7.5 7.5s-3.358 7.5-7.5 7.5z" fill="#fff"/></g><path d="m152.182 82h.346c-1.342-2.033-3.643-3.376-6.261-3.376h-94.344c-4.142 0-7.5 3.358-7.5 7.5s3.358 7.5 7.5 7.5h85.804c1.462-6.639 7.384-11.624 14.455-11.624z" fill="#fff"/><g><path d="m98.498 120.748h-46.575c-4.142 0-7.5-3.358-7.5-7.5s3.358-7.5 7.5-7.5h46.574c4.142 0 7.5 3.358 7.5 7.5s-3.357 7.5-7.499 7.5z" fill="#fff"/></g></g></g><g><g><path d="m389.47 82.387 13.917-13.917c2.255-2.255 2.255-5.911 0-8.165l-23.013-23.013c-2.255-2.255-5.911-2.255-8.165 0l-13.21 13.21 3.128 4.542z" fill="#2882b2"/><path d="m469.209 126.126-23.013-23.013c-2.255-2.255-5.911-2.255-8.165 0l-13.917 13.917 25.99 25.99 5.896 4.482 13.21-13.21c2.253-2.256 2.253-5.911-.001-8.166z" fill="#2882b2"/><g><path d="m455.999 147.501c-14.924 14.924-39.119 14.924-54.043 0l-42.957-42.957c-14.923-14.924-14.923-39.119 0-54.043z" fill="#116d9a"/></g><path d="m410.9 138.557-42.957-42.957c-11.788-11.788-14.256-29.358-7.422-43.577l-1.522-1.522c-14.923 14.923-14.923 39.119 0 54.043l42.957 42.957c14.924 14.924 39.119 14.924 54.043 0l-1.522-1.522c-14.22 6.834-31.789 4.366-43.577-7.422z" fill="#005e89"/></g></g><g><g><g><path d="m362.082 351.464h-231.856c-24.252 0-43.912 19.66-43.912 43.912v53.461c43.446 39.255 101.022 63.163 164.186 63.163 59.037 0 113.194-20.885 155.494-55.665v-60.958c0-24.253-19.66-43.913-43.912-43.913z" fill="#26a6fe"/></g><path d="m128 395.377c0-24.252 19.66-43.912 43.912-43.912h-41.686c-24.252 0-43.912 19.66-43.912 43.912v53.461c12.748 11.518 26.721 21.702 41.686 30.361z" fill="#0593fc"/><g><path d="m278.734 439.235 9.263-16.043-12.99-7.5-9.263 16.043c-3.514-1.73-7.813-.468-9.8 2.973-2.071 3.587-.842 8.174 2.745 10.245-3.587-2.071-8.174-.842-10.245 2.745s-.842 8.174 2.745 10.245c-3.587-2.071-8.174-.842-10.245 2.745s-.842 8.174 2.745 10.245c-3.587-2.071-8.174-.842-10.245 2.745s-.842 8.174 2.745 10.245c-3.587-2.071-8.174-.842-10.245 2.745-1.987 3.441-.93 7.796 2.325 9.973l-7.807 13.522c5.44.665 10.935 1.154 16.48 1.456l4.317-7.478c3.514 1.73 7.813.468 9.8-2.973 2.071-3.587.842-8.174-2.745-10.245 3.588 2.071 8.174.842 10.245-2.745s.842-8.174-2.745-10.245c3.588 2.071 8.174.842 10.245-2.745s.842-8.174-2.745-10.245c3.588 2.071 8.174.842 10.245-2.745s.842-8.174-2.745-10.245c3.588 2.071 8.174.842 10.245-2.745 1.986-3.441.93-7.795-2.325-9.973z" fill="#d8ecfe"/></g><path d="m293.236 410.833-18.064-10.429-4.661 8.074c-1.381 2.391-.561 5.449 1.83 6.83l17.321 10c2.391 1.381 5.449.561 6.83-1.83l5.095-8.825c-2.789-.956-5.577-2.219-8.351-3.82z" fill="#eaf6ff"/><path d="m277.256 338.169h-62.204c-6.968 0-13.65-1.249-19.836-3.53v59.55c0 4.749 4.825 7.974 9.213 6.158l39.177-16.211c1.632-.675 3.465-.675 5.097 0l39.177 16.211c4.388 1.816 9.213-1.41 9.213-6.158v-59.55c-6.187 2.281-12.869 3.53-19.837 3.53z" fill="#60b7ff"/><path d="m294.746 410.219 29.529-51.146-.277-1.521-22.941-13.245c-3.916-2.261-8.923-.919-11.184 2.997l-23.074 39.966c-2.261 3.916-.919 8.923 2.997 11.184l22.941 13.245z" fill="#116d9a"/><g><g><path d="m144.278 217.088h13.295v-20.194c0-17.013 12.514-31.155 28.819-33.714l-15.207-5.607c-10.512-3.876-19.224-11.008-25.174-19.986-6.07 8.725-9.638 19.321-9.638 30.755v50.014c2.49-.819 5.145-1.268 7.905-1.268z" fill="#ca6e59"/><path d="m170.839 158.511 13.641 5.029c2.329-.504 4.744-.776 7.222-.776h108.902c18.819 0 34.13 15.311 34.13 34.129v20.194h13.296c2.76 0 5.415.449 7.904 1.269v-73.174c0-35.447-28.735-64.182-64.182-64.182h-139.57c-8.731 0-15.808 7.078-15.808 15.808v12.261c-.001 22.073 13.756 41.806 34.465 49.442z" fill="#ca6e59"/><g><path d="m182.776 162.912c2.851-.747 5.842-1.148 8.927-1.148h29.586l-8.823-3.253c-20.71-7.636-34.466-27.369-34.466-49.441v-12.262c0-8.73 7.078-15.808 15.808-15.808h-41.626c-8.731 0-15.808 7.078-15.808 15.808v12.261c0 22.072 13.756 41.806 34.466 49.441z" fill="#bb5d4c"/></g></g><path d="m216.294 338.169v11.431c0 1.22.335 2.416.968 3.459l23.195 38.204c2.595 4.275 8.799 4.275 11.394 0l23.195-38.204c.633-1.043.968-2.239.968-3.459v-11.431z" fill="#ffb09e"/><path d="m237.279 349.6v-10.431h-20.986v10.431c0 1.22.335 2.416.968 3.459l23.195 38.204c2.595 4.275 8.799 4.275 11.394 0l4.796-7.899-18.4-30.305c-.632-1.043-.967-2.24-.967-3.459z" fill="#ffa78f"/><g><path d="m348.03 216.088h-13.296v64.603c0 1.312-.06 2.61-.147 3.9h13.443c14.551 0 26.347-11.796 26.347-26.347v-15.808c0-14.552-11.796-26.348-26.347-26.348z" fill="#ffa78f"/></g><path d="m335.791 284.145 22.942 13.245 1.581-.738 29.935-51.85-.255-1.559-22.942-13.245c-3.916-2.261-8.923-.919-11.184 2.997l-23.074 39.966c-2.26 3.915-.919 8.923 2.997 11.184z" fill="#116d9a"/><g><path d="m390.068 380.399h21.932v-37.988z" fill="#ffcebf"/><path d="m414.646 379.399h-24.001l-5.113 8.857c-2.039 3.532-5.843 5.727-9.926 5.727-1.997 0-3.973-.531-5.713-1.536l-12.961-7.483-.502.857c-1.026 1.777-2.082 3.479-3.163 5.112v98.519c24.81-11.481 47.378-26.982 66.859-45.681v-58.891c.001-3.027-2.453-5.481-5.48-5.481z" fill="#26a6fe"/><path d="m357.293 386.326-.033.057c-1.268 2.197-2.604 4.302-3.993 6.322v96.746c7.153-3.31 14.113-6.965 20.873-10.924v-83.634c-1.626-.193-3.24-.71-4.748-1.58z" fill="#0593fc"/><path d="m389.994 243.243-97.258 168.456c25.917 14.963 49.561.601 64.524-25.316l43.072-74.602c14.963-25.917 15.579-53.575-10.338-68.538z" fill="#2882b2"/></g><g><path d="m380.734 306.571c-4.658-2.689-10.755-1.523-13.74 2.952-3.271 4.903-1.682 11.467 3.341 14.367-4.83-2.789-11.007-1.134-13.795 3.696s-1.134 11.007 3.696 13.795c-4.83-2.789-11.007-1.134-13.795 3.696-2.789 4.83-1.134 11.007 3.696 13.795-5.023-2.9-11.501-.995-14.113 4.29-2.383 4.822-.345 10.686 4.313 13.375l29.055 16.775c5.954 3.438 13.567 1.398 17.005-4.556l27.947-48.405c3.438-5.954 1.398-13.567-4.556-17.005z" fill="#ffb09e"/></g><path d="m353.983 371.488 28.896-50.05c2.642-4.576 7.67-6.91 12.605-6.35l-14.751-8.516c-4.658-2.689-10.755-1.523-13.74 2.952-3.271 4.903-1.682 11.467 3.341 14.367-4.83-2.789-11.007-1.134-13.795 3.696s-1.134 11.007 3.696 13.795c-4.83-2.789-11.007-1.134-13.795 3.696-2.789 4.83-1.134 11.007 3.696 13.795-5.023-2.9-11.501-.995-14.112 4.29-2.383 4.822-.345 10.686 4.313 13.375l13.706 7.913c-2.269-3.865-2.461-8.804-.06-12.963z" fill="#ffa78f"/><g><path d="m277.256 339.169h-62.204c-32.297 0-58.479-26.182-58.479-58.479v-83.797c0-19.402 15.728-35.13 35.13-35.13h108.902c19.402 0 35.13 15.728 35.13 35.13v83.797c0 32.297-26.182 58.479-58.479 58.479z" fill="#ffcebf"/></g><path d="m157.573 280.69v-64.603h-13.296c-14.551 0-26.347 11.796-26.347 26.347v15.808c0 14.551 11.796 26.347 26.347 26.347h13.443c-.087-1.289-.147-2.586-.147-3.899z" fill="#ffa78f"/><path d="m180.838 280.69v-83.797c0-19.402 15.728-35.13 35.13-35.13h-24.265c-19.402 0-35.13 15.728-35.13 35.13v83.797c0 32.297 26.182 58.479 58.479 58.479h24.265c-32.297 0-58.479-26.182-58.479-58.479z" fill="#ffb09e"/><g><path d="m218.753 290.492v1.057c0 15.133 12.268 27.401 27.401 27.401 15.133 0 27.401-12.268 27.401-27.401v-1.057c0-3.027-2.454-5.48-5.48-5.48h-43.842c-3.027 0-5.48 2.453-5.48 5.48z" fill="#fd8087"/></g><g><path d="m239.197 291.549v-1.057c0-3.027 2.454-5.48 5.48-5.48h-20.445c-3.027 0-5.48 2.454-5.48 5.48v1.057c0 15.133 12.268 27.401 27.401 27.401 3.615 0 7.063-.707 10.222-1.979-10.067-4.052-17.178-13.904-17.178-25.422z" fill="#fe646f"/></g><g><g><g><circle cx="200.368" cy="227.632" fill="#ca6e59" r="14.93"/></g><g><circle cx="291.94" cy="227.632" fill="#ca6e59" r="14.93"/></g></g><g><path d="m246.157 274.653c-2.088 0-4.165-.867-5.647-2.562l-12.295-14.052c-2.06-2.354-2.442-5.74-.959-8.494l12.295-22.834c1.964-3.647 6.513-5.013 10.159-3.048 3.647 1.964 5.012 6.512 3.048 10.159l-9.829 18.254 8.87 10.137c2.728 3.118 2.412 7.856-.706 10.583-1.423 1.246-3.183 1.857-4.936 1.857z" fill="#ca6e59"/></g></g></g></g></g></g></svg>